<svg width="24" height="24" fill="none" xmlns="http://www.w3.org/2000/svg"><path d="M11.14 7.003c-1.019-.011-1.887 0-2.375.242-.325.16-.574.523-.423.54.19.027.619.12.846.434.293.402.282 1.31.282 1.31s.163 2.5-.396 2.813c-.385.215-.91-.22-2.05-2.207-.58-1.024-1.019-2.152-1.019-2.152s-.081-.21-.233-.32a1.18 1.18 0 00-.439-.181l-2.717.016s-.406.017-.553.193c-.135.165-.01.49-.01.49s2.125 5.047 4.533 7.59c2.206 2.334 4.712 2.18 4.712 2.18h1.138s.342-.038.515-.226c.163-.176.158-.506.158-.506s-.022-1.547.683-1.778c.7-.22 1.589 1.497 2.538 2.158.72.5 1.269.39 1.269.39l2.537-.038s1.323-.082.694-1.145c-.048-.082-.363-.781-1.881-2.213-1.594-1.497-1.383-1.255.537-3.847 1.165-1.58 1.632-2.543 1.485-2.962-.14-.39-.997-.286-.997-.286l-2.858.017s-.212-.028-.369.066c-.152.093-.25.313-.25.313s-.455 1.222-1.056 2.263c-1.27 2.19-1.785 2.312-1.99 2.174-.483-.32-.364-1.277-.364-1.954 0-2.13.32-3.01-.618-3.242-.31-.077-.537-.127-1.329-.132z" fill="#9DAED0"/></svg>