<svg width="24" height="24" fill="none" xmlns="http://www.w3.org/2000/svg"><path d="M6.586 3l1.242 4.078v2.649H8.86v-2.79L10.078 3H9.024l-.657 2.695h-.046L7.64 3H6.586zm4.828 1.64c-.419 0-.758.124-1.008.352-.248.226-.375.53-.375.914v2.578c0 .422.132.76.375 1.008.244.25.557.375.961.375.42 0 .745-.135.985-.375.237-.243.351-.56.351-.984V5.93c0-.378-.108-.698-.351-.938s-.554-.351-.938-.351zm2.086.118V8.93c0 .299.056.51.164.656.109.146.279.21.492.21a.974.974 0 00.516-.14c.185-.105.37-.266.54-.469v.54h.913v-4.97h-.914v3.774a1.28 1.28 0 01-.281.281.463.463 0 01-.258.094c-.085 0-.15-.017-.187-.07a.43.43 0 01-.07-.258v-3.82H13.5zm-2.133.75c.123 0 .232.026.305.094.076.067.094.149.094.257v2.72c0 .134-.02.23-.094.304a.415.415 0 01-.305.117.363.363 0 01-.28-.117c-.068-.076-.095-.17-.095-.305V5.86c0-.108.024-.19.094-.257.07-.068.167-.094.281-.094zm-.117 5.39a117.81 117.81 0 00-5.226.094c-1.193 0-2.18.976-2.18 2.156-.07.935-.097 1.875-.094 2.813-.003.934.02 1.851.094 2.789 0 1.184.984 2.156 2.18 2.156 1.708.07 3.445.097 5.226.094a120.81 120.81 0 005.227-.094c1.195 0 2.18-.972 2.18-2.156.07-.938.096-1.855.093-2.79a34.63 34.63 0 00-.093-2.812c0-1.18-.985-2.156-2.18-2.156-1.705-.07-3.443-.097-5.227-.094zm-6.328 1.547h3.14a.09.09 0 01.094.094v.961a.09.09 0 01-.093.094h-.961v5.578a.09.09 0 01-.094.094H5.977c-.056 0-.117-.038-.117-.094v-5.578h-.938c-.056 0-.117-.038-.117-.094v-.96c0-.057.061-.095.117-.095zm6.61 0h.914c.055 0 .117.038.117.094v1.875c.076-.07.152-.117.234-.164a.985.985 0 01.469-.14c.322 0 .554.114.726.35.164.23.258.566.258.985v2.72c0 .371-.076.664-.234.866-.164.211-.402.305-.703.305-.19 0-.36-.038-.516-.117a1.217 1.217 0 01-.234-.164v.117c0 .055-.062.094-.117.094h-.915a.09.09 0 01-.093-.094v-6.633a.09.09 0 01.093-.094zm4.687 1.594c.445 0 .788.152 1.031.422.24.266.375.636.375 1.125v1.266c0 .055-.061.093-.117.093h-1.64v.82c0 .3.037.414.07.47.026.043.09.117.234.117.114 0 .194-.038.235-.094.02-.03.07-.135.07-.492v-.352a.09.09 0 01.094-.094h.937a.09.09 0 01.094.094v.375c0 .527-.109.923-.352 1.195-.246.276-.618.422-1.101.422-.437 0-.803-.152-1.055-.445-.249-.287-.375-.677-.375-1.172v-2.203c0-.451.147-.815.422-1.102a1.448 1.448 0 011.078-.445zm-8.18.14h.914c.056 0 .118.039.118.094v3.75c0 .123.008.17.023.188.006.009.018.047.094.047.026 0 .102-.02.21-.094.089-.059.165-.126.235-.21v-3.68a.09.09 0 01.094-.094h.914a.09.09 0 01.094.093v4.899h.023c0 .055-.061.094-.117.094h-.914a.09.09 0 01-.094-.094v-.281a1.79 1.79 0 01-.375.28c-.2.115-.393.165-.586.165-.243 0-.413-.085-.539-.258-.12-.164-.187-.392-.187-.703v-4.102a.09.09 0 01.093-.093zm4.852.915a.348.348 0 00-.211.047c-.044.02-.073.05-.117.093v2.977c.055.056.09.09.14.117.056.027.126.024.188.024.117 0 .152-.033.164-.047.03-.035.047-.117.047-.282v-2.53c0-.141-.02-.238-.07-.306a.229.229 0 00-.141-.093zm3.281.023c-.108 0-.19.032-.234.094-.033.044-.07.146-.07.375v.398h.609v-.398c0-.226-.059-.325-.094-.375-.041-.059-.105-.094-.21-.094z" fill="#fff"/></svg>