<svg preserveAspectRatio="xMidYMid meet" data-bbox="0 0 716.7 609.55" xmlns="http://www.w3.org/2000/svg" viewBox="0 0 717 610" height="610" width="717" data-type="ugc" role="presentation" aria-hidden="true" aria-labelledby="svgcid--wk4qtv7ks86b"><title id="svgcid--wk4qtv7ks86b"></title>
    <g>
        <path fill="#E0E0E0" d="M265.909 325.379h-1.747v183.387h1.747V325.379z"></path>
        <path fill="#E0E0E0" d="M390.195 325.379h-1.75v183.387h1.75V325.379z"></path>
        <path fill="#E0E0E0" d="M514.475 325.379h-1.746v183.387h1.746V325.379z"></path>
        <path fill="#D9D9D9" d="M170.52 302.782h-29.77v4.782h29.77v-4.782z"></path>
        <path fill="#D9D9D9" d="M182.976 311.618H140.75v4.782h42.226v-4.782z"></path>
        <path fill="#D9D9D9" d="M298.643 302.781h-34.949v4.782h34.949v-4.782z"></path>
        <path fill="#D9D9D9" d="M286.042 311.618h-22.348v4.782h22.348v-4.782z"></path>
        <path fill="#D9D9D9" d="M411.85 302.781h-21.656v4.782h21.656v-4.782z"></path>
        <path fill="#D9D9D9" d="M415.435 311.618h-25.241v4.782h25.241v-4.782z"></path>
        <path fill="#D9D9D9" d="M546.026 302.781h-31.547v4.782h31.547v-4.782z"></path>
        <path fill="#D9D9D9" d="M539.722 311.618h-25.243v4.782h25.243v-4.782z"></path>
        <path fill="#B8B8B8" d="M284.811 519.633h-19.774v6.373h19.774v-6.373z"></path>
        <path fill="#B8B8B8" d="M409.968 519.633h-19.774v6.373h19.774v-6.373z"></path>
        <path fill="#B8B8B8" d="M534.252 519.633h-19.773v6.373h19.773v-6.373z"></path>
        <path fill="#B8B8B8" d="M658.536 519.633h-19.774v6.373h19.774v-6.373z"></path>
        <path fill="url(#svgcid--flgo5hsc35te)" d="M594.818 454.28c-38.765.003-72.463-16.758-107.592-34.229-43.369-21.568-88.216-43.868-147.967-37.76-38.155 3.9-62.104 19.439-83.233 33.145-19.132 12.412-37.219 23.33-61.715 24.262-39.592 1.507-53.324-15.381-53.554-16.41v-10.836c.05.186 8.694 19.139 53.513 18.915 22.073-.111 38.363-10.682 57.224-22.92 21.922-14.221 46.765-30.341 86.922-34.447 62.148-6.351 108.094 16.496 152.524 38.591 46.492 23.118 90.856 44.8 146.953 25.989v8.909c-15.996 5.366-28.784 6.791-43.075 6.791z" opacity=".43"></path>
        <path fill="url(#svgcid--di40o0pmk6c4)" d="M362.13 452.204c-28.613.003-51.308-19.243-73.527-38.079-16.846-14.282-34.324-28.885-54.498-36.089-61.574-21.985-93.074 18.16-93.355 18.51v-12.21c.332-.417 5.953-7.712 22.209-14.679 14.799-6.342 39.633-11.401 73.884.511 21.7 7.549 39.721 22.828 57.151 37.603 35.354 29.974 65.888 55.859 118.915 15.314 40.16-30.711 78.021-59.978 115.272-70.669 36.434-10.457 74.418-2.801 109.974 32.754l-.262 11.089c-75.527-75.858-139.835-27.799-219.922 33.442-21.22 16.221-39.497 22.5-55.841 22.503z" opacity=".22"></path>
        <path fill="url(#svgcid-q3wijf5uvix7)" d="M422.959 281.57l-1.264-1.481 20.936-17.834h12.715l28.851-24.578 18.043 15.371h13.306l6.724 5.729 20.895-17.799h10.605l43.969-37.46 1.263 1.481-44.515 37.924h-10.605l-21.612 18.409-7.441-6.338h-13.306l-17.326-14.762-28.134 23.968h-12.715l-20.389 17.37z"></path>
        <path fill="url(#svgcid--7d3rrp-pl42of)" d="M425.985 256.933h-7.236v-1.945h6.427l10.868-10.864 7.898 7.901 18.871-18.873 5.805 5.805 19.132-19.133 11.468 11.464h13.072l20.178-20.174h17.399l12.866-12.867h15.744l15.627-15.624 1.374 1.377-16.192 16.196h-15.747l-12.864 12.863h-17.402l-20.178 20.175h-14.682l-10.663-10.659-19.132 19.133-5.805-5.805-18.871 18.873-7.898-7.902-10.059 10.059z"></path>
        <path fill="url(#svgcid-yg0uai71wvwr)" d="M619.213 261.358c-.013-.041-.022-.082-.035-.123-18.608-64.896-65.05-120.367-129.217-148.908h-.006c-10.991-4.937-22.528-9.027-34.501-12.251-29.959-8.063-60.145-9.889-89.16-6.298-.022.006-.054.006-.076.013l-.041-.013a232.412 232.412 0 0 0-56.596 14.465c-.034.013-.069.028-.107.041-66.361 26.1-119.887 82.272-139.834 156.406-33.484 124.422 40.214 252.391 164.595 285.865 63.872 17.187 128.676 6.121 181.157-25.544l9.797 13.606 46.17-33.247-11.146-15.478c27.812-27.891 48.925-63.209 59.897-103.979 11.41-42.403 10.378-85.229-.897-124.555zM448.431 474.46c-82.465 29.552-173.281-13.337-202.832-95.802-29.006-80.93 11.764-169.907 91.244-201.12a163.86 163.86 0 0 1 4.558-1.712 159.121 159.121 0 0 1 34.039-8.135c29.189-3.639 58.226 1.039 84.155 12.62 38.088 17.013 69.456 48.94 84.638 91.314a160.91 160.91 0 0 1 3.234 10.044c22.78 79.669-19.907 164.43-99.036 192.791z"></path>
        <path fill="#FF6A00" d="M665.151 248.131l-45.977 13.1-71.708 20.437a167.29 167.29 0 0 0-3.234-10.043c-15.185-42.374-46.55-74.301-84.638-91.315l30.36-67.99h.006l3.193-7.157 16.319-36.544c77.333 34.406 133.294 101.285 155.679 179.512z"></path>
        <path fill="#0064B5" d="M493.153 105.167l-3.193 7.156-30.366 67.991c-25.929-11.581-54.966-16.259-84.155-12.62l-9.146-73.919-.957-7.75c29.997-3.724 61.2-1.835 92.176 6.5 12.365 3.322 24.291 7.548 35.641 12.642z"></path>
        <path fill="#004E8C" d="M375.44 167.69a159.115 159.115 0 0 0-34.04 8.135c-1.535.55-3.051 1.122-4.557 1.712l-27.262-69.301-8.253-20.974a254.507 254.507 0 0 1 62.151-15.899l.048.013 1.812 14.645.957 7.75 9.144 73.919z"></path>
        <path fill="#6A75BA" d="M345.159 55.291s-3.313-6.082-5.199-8.271c-1.885-2.189-8.145-3.831-7.295-6.626.852-2.795 9.241-1.58 11.549 1.156 2.309 2.735 9.361 3.708 9.605 4.864.243 1.155-2.448 7.475-3.961 8.511-1.509 1.033-4.699.366-4.699.366z"></path>
        <path fill="#545D94" d="M331.076 60.443s-5.398-4.28-7.994-5.54c-2.599-1.26-8.998-.28-9.326-3.183-.329-2.905 7.851-5.12 11.06-3.528 3.206 1.592 10.065-.315 10.747.651.683.963.724 7.836-.255 9.383-.979 1.548-4.232 2.217-4.232 2.217z"></path>
        <path fill="#EEA886" d="M343.061 71.582s2.356-16.11 2.249-18.906c-.032-.799 4.848-.502 4.621 1.033-.496 3.341 1.756 16.293 1.364 18.662-.392 2.372-8.436.705-8.234-.79z"></path>
        <path fill="#EEA886" d="M335.677 76.212s-4.416-15.643-5.445-18.246c-.458-1.159 4.039-2.95 4.652-.887.957 3.24 8.079 14.256 8.663 16.587.584 2.334-7.46 3.995-7.87 2.546z"></path>
        <path fill="#D9D3C8" d="M338.744 87.082s-4.741-15.987-5.471-17.689l7.476-4.62s3.465 10.213 3.951 12.765c.486 2.555-5.956 9.544-5.956 9.544z"></path>
        <path fill="#222538" d="M471.099 44.84s-7.219 1.826-10.656 7.287c-3.436 5.46-6.405 11.749-12.86 14.604-6.455 2.852-6.497 10.204-5.994 11.338.502 1.133 20.332 23.424 24.659 24.287 4.327.862 12.428.262 11.563-5.467-.866-5.73-9.358-18.05-4.593-24.265 4.766-6.215 5.966-11.941 5.966-11.941l-8.085-15.842z"></path>
        <path fill="#EEA886" d="M469.839 71.503s-.212-.07-.565-.101a4.15 4.15 0 0 0-1.69.202 4 4 0 0 0-.66.328c-1.715 1.011-5.776 3.756-6.326 3.822-.635.076-.098-9.396-.098-9.396s2.16-3.825 2.435-6.342c.272-2.52 6.904 11.487 6.904 11.487z"></path>
        <path fill="#D9D3C8" d="M419.048 81.4s-7.933-5.56-17.234-3.83c-9.301 1.734-10.306 6.08-13.496 6.278-3.193.196-13.861-.713-22.613 1.838-8.754 2.552-16.138 2.827-17.143 2.098-1.004-.73 5.47-15.318 5.47-17.327l-10.851-2.826s-3.102 12.949-4.318 15.867c-1.301 3.12-3.799 8.998-.243 14.105 3.556 5.106 13.495 2.804 19.515 3.834 6.016 1.029 32.956.369 37.659.117 5.107-.275 20.516-1.005 20.516-1.005l2.738-19.148z"></path>
        <path fill="#EEA886" d="M484.202 52.569s.506 7.839-1.234 10.188c-.695.942-1.169 1.453-1.485 1.728a3.449 3.449 0 0 0-.991 1.437c-.537 1.506-.869 3.629-1.298 4.08-.468.493-1.82-.76-2.312-.764-.49-.003-5.265 4.118-6.405 3.275-1.14-.843-8.107-7.911-7.52-12.756.584-4.845 2.722-12.08 10.564-12.036 7.842.044 10.081 2.9 10.681 4.848z"></path>
        <path fill="#FFC955" d="M460.507 89.972c-.152.322-3.035 4.927-6.193 7.598-1.311 1.109-2.669 1.886-3.901 1.886-.376 0-.742.006-1.099.016-3.626.098-6.408.653-11.303.897-5.085.252-17.418-.455-17.781-.455-.367 0-3.923.638-3.923.638-1.276-1.55 2.097-19.057 2.735-19.149.638-.091 4.741 1.46 8.663.822 3.923-.638 5.47-1.005 11.307-7.842 5.836-6.838 11.673-8.572 14.133-8.025 2.463.546 7.356 0 7.356 0s.217 23.156.006 23.614z"></path>
        <path fill="#222538" d="M480.909 58.18s1.462 3.787 2.236 4.308c0 0 2.82-2.981 1.011-10.343-1.813-7.359-8.644-8.053-13.053-7.305-5.489.932-11.019 19.508-10.732 21.315.284 1.81 6.437-9.601 11.828-8.682 5.385.922 5.426 1.222 8.71.708z"></path>
        <path fill="#A77860" d="M469.29 71.412a4.155 4.155 0 0 0-1.69.22c-.17.058-.407.143-.672.298-1.261-1.968-2.429-6.63-2.467-6.787.84 1.797 4.829 6.269 4.829 6.269z"></path>
        <path fill="#C29941" d="M454.314 97.568c-1.311 1.108-2.669 1.885-3.9 1.885-.376 0-.743.007-1.1.016l1.791-14.512 3.209 12.61z"></path>
        <path fill="#EEA886" d="M482.687 122.562l-3.499 3.183c-3.02-1.617-10.587-7.065-12.043-8.303-1.525-1.301-11.707-9.816-13.106-11.758-1.412-1.942-3.197-22-3.017-22.92.18-.906 8.853-1.37 9.835.752 0 0 .452 11.44.686 13.356.221 1.914.953 3.645 2.267 5.256 1.816 2.229 5.688 7.406 9.437 11.594.894.994 8.284 7.842 9.44 8.84z"></path>
        <path fill="#FFC955" d="M461.571 83.77s.546-15.236-4.409-15.047c-6.263.24-7.204 7.902-6.354 16.23.003.004 9.364.095 10.763-1.184z"></path>
        <path fill="#EEA886" d="M481.001 121.068s.467.732 1.14.963c1.165.395 2.889-.363 3.742 1.162.85 1.529-3.256 5.344-4.358 5.574-1.102.231-2.871-1.487-4.254-4.873-1.38-3.385 3.73-2.826 3.73-2.826z"></path>
        <path fill="#EEA886" d="M485.523 122.717s2.094 1.595 4.213 3.641c1.857 1.797 3.749 4.153 3.272 4.599-.651.609-1.92-1.418-3.882-3.08-1.806-1.531-1.702-.941-1.702-.941s-.019-.17 1.627 1.867c1.771 2.188 3.6 4.784 3.054 5.16-.342.237-.357.297-1.131-.398.36.49.275.654.085.812-.988.828-4.09-2.005-5.321-3.13.941.869 1.538 1.605.584 1.718-1.093.13-5.3-4.064-6.951-5.429-1.804-1.484 6.152-4.819 6.152-4.819z"></path>
        <path fill="#E0E0E0" d="M422.611 82.098s-1.674 11.989-.85 17.885c0 0 .872.647 2.606.123 0 0 .433-13.088 1.405-17.733.004 0-.53-.405-3.161-.275z"></path>
        <path fill="#E0E0E0" d="M424.304 0h-1.295v91.163h1.295V0z"></path>
        <path fill="#ffffff" d="M625.401 473.951h25.095v-1.759h-25.095v1.759z"></path>
        <path fill="#ffffff" d="M625.401 482.903h25.095v-7.396h-25.095v7.396z"></path>
        <path fill="#ffffff" d="M613.61 486.496h14.806v-1.105H613.61v1.105z"></path>
        <path fill="#ffffff" d="M613.61 489.974h14.806v-2.994H613.61v2.994z"></path>
        <path fill="#ffffff" d="M654.616 483.435h1.106V462.71h-1.106v20.725z"></path>
        <path fill="#C5C6CF" d="M605.871 430.57l102.002-6.556.559 59.63h-91.788l-10.773-53.074z"></path>
        <path fill="#E2E3ED" d="M610.29 425.015l97.583-1.001.56 59.63h-91.789l-6.354-58.629z"></path>
        <path fill="#EEA987" d="M608.742 355.593s2.321 2.552 3.234 1.431c.913-1.124 1.952-2.719 1.952-2.719l-5.186 1.288z"></path>
        <path fill="#EEA987" d="M604.16 331.202l2.985 13.877c-.92-1.13-2.53-2.934-3.054-2.4-.746.767 1.743 4.554 2.169 6.184.392 1.494.907 3.824 1.551 5.205l1.127 2.27 4.987-2.04s-.23-9.895-.42-12.121c-.306-3.623-7.273-11.468-7.949-11.55-1.219-.142-1.396.575-1.396.575z"></path>
        <path fill="#E6D3CD" d="M706.336 593.87s1.405 3.386 2.586 4.725c1.185 1.342 5.717 3.739 5.742 7.722.025 4.32-7.64 3.12-10.637 2.962-2.997-.158-3.225-2.466-4.488-4.911-1.263-2.448-2.536-2.031-2.773-4.005-.237-1.973.967-6.389.967-6.389l8.603-.104z"></path>
        <path fill="#E6D3CD" d="M635.67 594.647s-4.175 4.387-8.417 5.306c-4.241.919-7.207 2.091-7.238 4.608-.032 2.517 12.203 4.175 17.054 1.639 7.242-3.787 7.978-2.646 8.78-4.538.802-1.892-.963-6.955-.913-7.558.07-.745-9.266.543-9.266.543z"></path>
        <path fill="#3C4145" d="M646.812 468.001s-4.387 31.867-6.178 42.637c-2.093 12.595-2.804 23.001-3.388 29.52-.736 8.199-2.145 51.312-2.66 53.709-.514 2.397 11.477 1.203 11.477 1.203s8.698-55.907 10.887-64.64c2.037-8.132 7.643-41.651 9.503-39.43 1.86 2.22 13.536 41.439 14.913 47.853 1.377 6.412 14.658 56.618 14.658 56.618s9.926 2.132 12.45.123c0 0-8.66-46.126-9.538-58.146-.335-4.583-3.048-54.625-10.798-74.898-4.097-10.709-41.326 5.451-41.326 5.451z"></path>
        <path fill="#FFC955" d="M659.681 391.578s-11.61 2.4-12.987 3.619c-1.493 1.298-4.13 14.013-4.288 17.554-.158 3.54 1.399 18.337 2.896 23.845 1.497 5.508 1.152 34.263.483 38.786 0 0 23.286 4.554 46.265 1.563 0 0-3.973-24.972-3.054-32.52 1.178-9.671 4.014-31.952 4.014-31.952s-3.07-15.002-5.116-16.736c-2.047-1.734-16.271-4.548-16.271-4.548l-11.942.389z"></path>
        <path fill="#EEA886" d="M664.48 355.685s-13.963-5.167-13.091 13.387c.871 18.558 4.147 20.444 13.331 17.851 9.187-2.593 9.955-14.304 11.152-19.938 1.196-5.631-6.825-10.492-11.392-11.3z"></path>
        <path fill="#EEA886" d="M657.383 394.515s7.254 5.884 14.244-3.325c0 0-.307-7.47 1.828-14.446 2.135-6.977-14.623 9.304-14.623 9.304.177.123.209.821.111 1.794a19.72 19.72 0 0 1-.537 2.883c-.613 2.331-.47 1.917-1.023 3.79z"></path>
        <path fill="#163342" d="M673.931 376.191s.041-4.959-2.021-5.413c-2.062-.458-3.123 2.409-3.123 2.409l-1.662-.088s1.485-5.022-.483-6.174c-1.964-1.153-13.722-.139-15.197-1.832-1.475-1.693.663-11.736 3.872-12.722 3.208-.985 11.969-2.984 17.534 1.971 0 0 4.984.032 4.974 6.007-.006 3.942-2.217 13.154-3.894 15.842z"></path>
        <path fill="#A77860" d="M658.402 390.726c10.824-1.82 12.441-7.975 12.466-8.07-4.207 5.426-11.929 5.186-11.929 5.186a19.028 19.028 0 0 1-.537 2.884z"></path>
        <path fill="#EEA886" d="M669.577 368.671c.616-1.635 4.099-1.427 3.742 1.163-.357 2.593-3.234 6.585-4.39 5.836-1.156-.745-.202-4.744.648-6.999z"></path>
        <path fill="#EEA886" d="M675.391 391.986s-6.547 13.233-16.183 12.162c-9.636-1.07-4.052-10.305-3.13-11.777-.003 0 5.783-3.711 19.313-.385z"></path>
        <path fill="#FFC955" d="M614.575 381.305c-2.722-5.297-8.704-25.756-8.704-25.756l8.47-1.772s4.507 10.296 6.652 17.421c1.045 3.471 2.447 6.882 2.757 7.428.309.547 14.739 11.474 16.312 12.28 1.573.802 7.615 2.896 10.501 5.83 2.89 2.931 1.482 6.948 1.482 6.948-6.127 7.88-17.44-2.366-17.44-2.366s-16.215-12.592-20.03-20.013z"></path>
        <path fill="#FFC955" d="M628.703 396.451s13.369 14.598 13.827 20.008c.328 3.859 2.738-11.61 2.738-11.61l-16.565-8.398z"></path>
        <path fill="#FF6A00" d="M616.644 483.643H716.7v-63.045H616.644v63.045z"></path>
        <path fill="#EFAA88" d="M701.147 486.812s.473-1.156.435-1.765c0 0-.158-1.1-.221-1.889a5.068 5.068 0 0 1-.022-.61c.032-.593.275-1.885-.05-3.328-.326-1.444-1.993-6.421-1.993-6.421l-4.494.669-3.907-.53s-2.912 8.499-2.764 9.879c.016.136.035.268.064.391.24 1.156.903 1.917 1.096 2.508.072.218.941 2.328 1.591 2.53.904.281 1.643.11 2.145-.3 0 0 1.794.473 2.927-.044 0 0 1.64.489 2.868-.559-.003-.004 1.718.306 2.325-.531z"></path>
        <path fill="#FFC955" d="M681.506 395.418c-1.523.591-3.137 4.273-1.937 11.496 1.286 7.75 3.844 11.06 4.874 12.87 1.029 1.81 7.387 13.884 7.362 15.671-.064 4.652.047 16.928-.102 17.87-.252 1.604-1.288 20.105-1.288 20.105l9.819 2.378s1.936-20.86 2.811-27.167c.35-2.53 1.108-9.469.233-16.385-.843-6.67-5.678-21.419-6.326-22.591-.644-1.175-5.384-18.144-15.446-14.247z"></path>
        <path fill="url(#svgcid-wzxql1-chyz04)" d="M201.045 526.258H46.512c-9.541 0-17.276-7.734-17.276-17.275V319.807c0-9.541 7.735-17.276 17.276-17.276h154.533c9.541 0 17.275 7.735 17.275 17.276v189.176c0 9.541-7.734 17.275-17.275 17.275z"></path>
        <path fill="#ffffff" d="M96.892 337.19c-4.125-11.534-15.147-18.618-26.767-18.271-2.814.086-5.66.607-8.454 1.605-8.464 3.029-14.531 9.768-17.023 17.73a27.437 27.437 0 0 0 .36 17.491 27.464 27.464 0 0 0 4.949 8.577c7.21 8.477 19.174 12.059 30.272 8.092 14.329-5.129 21.788-20.898 16.663-35.224zm-18.985 28.727c-8.322 2.975-17.291.291-22.695-6.064a20.537 20.537 0 0 1-3.71-6.43 20.566 20.566 0 0 1-.27-13.113c1.87-5.972 6.418-11.025 12.763-13.293a20.65 20.65 0 0 1 6.339-1.203c8.71-.262 16.975 5.05 20.067 13.697 3.84 10.741-1.752 22.566-12.494 26.406z" opacity=".76"></path>
        <path fill="url(#svgcid-b7syjldo47sn)" d="M210.965 286.361H36.592a7.357 7.357 0 0 1-7.356-7.355v-1.86a7.357 7.357 0 0 1 7.356-7.356h174.373a7.357 7.357 0 0 1 7.355 7.356v1.86a7.356 7.356 0 0 1-7.355 7.355z"></path>
        <path fill="#ffffff" d="M149.865 419.705l28.882 1.63 23.024-31.756-1.557-1.128-22.405 30.907-28.771-1.624-32.985 37.618-34.536-7.482-34.124 32.196 1.32 1.399 33.386-31.504 34.652 7.51 33.114-37.766z"></path>
        <path fill="#ffffff" d="M121.412 455.327a5.128 5.128 0 1 1-10.023 2.17 5.128 5.128 0 0 1 10.023-2.17z"></path>
        <path fill="#ffffff" d="M154.454 417.958a5.128 5.128 0 1 1-10.023 2.17 5.128 5.128 0 0 1 10.023-2.17z"></path>
        <path fill="#ffffff" d="M183.011 419.102a5.127 5.127 0 1 1-10.022 2.168 5.127 5.127 0 0 1 10.022-2.168z"></path>
        <path fill="#ffffff" d="M86.792 448.307a5.126 5.126 0 1 1-10.021 2.17 5.126 5.126 0 0 1 10.02-2.17z"></path>
        <path fill="#ffffff" d="M97.64 468.447H76.655v4.043h20.987v-4.043z"></path>
        <path fill="#ffffff" d="M112.235 426.973H91.248v4.042h20.987v-4.042z"></path>
        <path fill="#ffffff" d="M155.771 455.874h-20.987v4.043h20.987v-4.043z"></path>
        <path fill="#ffffff" d="M174.594 399.117h-20.987v4.043h20.987v-4.043z"></path>
        <path fill="#ffffff" d="M205.077 432.936h-20.986v4.042h20.986v-4.042z"></path>
        <path fill="url(#svgcid-49t9km-9kjaz4)" d="M121.472 339.451h-6.218v34.577h6.218v-34.577z"></path>
        <path fill="url(#svgcid-axnbso3g3x0l)" d="M132.393 330.232h-6.218v43.796h6.218v-43.796z"></path>
        <path fill="url(#svgcid--rfsuqcwzriqc)" d="M143.858 335.055h-6.221v38.972h6.221v-38.972z"></path>
        <path fill="url(#svgcid--t1516ttxu9kz)" d="M155.629 346.251h-6.219v27.777h6.219v-27.777z"></path>
        <path fill="#007BDE" d="M121.472 352.1h-6.218v21.927h6.218V352.1z"></path>
        <path fill="#007BDE" d="M132.393 346.251h-6.218v27.777h6.218v-27.777z"></path>
        <path fill="#007BDE" d="M143.858 349.311h-6.221v24.716h6.221v-24.716z"></path>
        <path fill="#007BDE" d="M155.629 356.739h-6.219v17.288h6.219v-17.288z"></path>
        <path fill="url(#svgcid-w92ltwp8s8i9)" d="M167.614 350.83h-6.218v23.197h6.218V350.83z"></path>
        <path fill="url(#svgcid-allz8knrq60m)" d="M178.535 333.77h-6.219v40.258h6.219V333.77z"></path>
        <path fill="url(#svgcid--ruvars-ycjfos)" d="M189.993 341.154h-6.219v32.875h6.219v-32.875z"></path>
        <path fill="url(#svgcid-r7hol8-9d9qv2)" d="M201.77 323.24h-6.218v50.788h6.218V323.24z"></path>
        <path fill="#007BDE" d="M167.614 361.67h-6.218v12.358h6.218V361.67z"></path>
        <path fill="#007BDE" d="M178.535 355.609h-6.219v18.419h6.219v-18.419z"></path>
        <path fill="#007BDE" d="M189.993 357.59h-6.219v16.435h6.219V357.59z"></path>
        <path fill="#007BDE" d="M201.77 336.283h-6.218v37.744h6.218v-37.744z"></path>
        <path fill="#EEA886" d="M9.056 466s.966 1.582 1.086 2.874c.095 1.023.957 2.552 1.33 3.395.372.843 1.57 4.665 1.614 5.659.018.408-.891 2.969-.762 3.79.13.818.597 2.445-.139 2.552-.735.108-1.57-1.222-1.57-1.222s.07.755-.552 1.042c-1.21.559-1.85.066-1.85.066s-.446.831-1.008.942c-1.238.246-1.841-.25-1.841-.25s-.544.464-1.4.449c-1.092-.023-1.55-.967-1.55-.967s-1.384.281-1.785-.366c-.4-.644-.331-1.333-.499-1.92-.167-.585-.04-5.868 1.753-9.674 1.794-3.806-.458-7.514-.458-7.514L9.055 466z"></path>
        <path fill="#DB9C7C" d="M10.811 482.553s.123-4.741-1.124-5.752c-1.248-1.01-1.39.702-1.39.702s.17-1.69-1.194-1.921c-1.364-.227-1.42 1.782-1.42 1.782s-.225-1.305-1.656-1.036c-1.434.268-1.092 1.933-1.092 1.933s-1.368-1.633-2.255-.064c-1.497 2.647-.054 5.771-.054 5.771s.423.716 1.784.366c0 0 .913 1.835 2.95.515 0 0 2.088 1.149 2.849-.692 0 0 2.302 1.096 2.602-1.604z"></path>
        <path fill="#4C5385" d="M25.138 397.713s-8.114 27.047-10.858 37.024c-.86 3.129-2.94 33.01-3.31 34.213-.37 1.203-10.662 2.852-10.662 2.852s1.247-37.381 1.364-39.421c.117-2.041 11.357-43.783 14.626-45.274 2.448-1.115 3.742-.193 6.828 2.097 4.336 3.218 2.012 8.509 2.012 8.509z"></path>
        <path fill="#EFAA88" d="M125.74 354.656s-.177 1.052-.48 1.472c0 0-.607.723-1.008 1.266a3.949 3.949 0 0 0-.29.433c-.244.442-.648 1.487-1.535 2.384-.885.897-4.33 3.752-4.33 3.752l-2.953-2.504-3.067-1.374s1.715-7.46 2.445-8.391a2.78 2.78 0 0 1 .221-.253c.691-.73 1.513-.979 1.92-1.32.152-.123 1.727-1.26 2.29-1.115.78.202 1.238.66 1.418 1.181 0 0 1.509.464 2.097 1.352 0 0 1.408.382 1.825 1.693 0-.004 1.384.543 1.447 1.424z"></path>
        <path fill="#EAD8CF" d="M68.493 404.957l2.097-.777s-2.615-6.139-3.755-5.988c-1.314.171-2.956.607-2.956.607l4.614 6.158z"></path>
        <path fill="#DA9B5B" d="M68.973 406.015c-.268-.199-4.456-8.237-4.456-8.237l-8.95 1.216 4.835 9.519 8.571-2.498z"></path>
        <path fill="#424773" d="M18.552 582.388s-.739 5.135-.83 5.906c-.092.771-8.23-.455-8.23-.455l-.661-6.114c.003.003 8.704-.06 9.721.663z"></path>
        <path fill="#292C47" d="M17.807 587.64s2.577 3.095 5.072 4.444c2.495 1.349 6.411 1.882 7.886 3.278 1.064 1.008 3.875 5.347-6.48 5.259-10.357-.089-15.35.612-16.458-1.052-1.109-1.664 1.604-12.276 1.604-12.276s2.454.884 8.376.347z"></path>
        <path fill="#424773" d="M76.853 582.388s-.74 5.135-.83 5.906c-.092.771-8.231-.455-8.231-.455l-.66-6.114c0 .003 8.704-.06 9.72.663z"></path>
        <path fill="#292C47" d="M76.108 587.64s2.577 3.095 5.072 4.444c2.492 1.349 11.67 2.457 13.145 3.853 1.064 1.008 2.833 5.066-11.736 4.684-10.353-.269-15.35.612-16.458-1.052-1.108-1.664 1.605-12.276 1.605-12.276s2.308.944 8.372.347z"></path>
        <path fill="#292C47" d="M25.291 450.449s-7.646 12.147-7.074 23.128c.572 10.981-2.773 22.967-3.92 34.438-1.279 12.787-6.521 43.059-6.71 49.9-.19 6.841.814 28.68.814 28.68l10.489.24s8.808-52.923 11.091-58.323c2.28-5.401 13.597-43.9 13.976-48.217.376-4.321-18.666-29.846-18.666-29.846z"></path>
        <path fill="#292C47" d="M65.538 452.094s5.76 30.095 6.521 36.815c.761 6.721 1.267 32.524 1.649 36.721.379 4.201 3.553 54.837 4.564 61.204h-13.41s-10.293-36.904-10.293-54.363c0-17.462-7.953-37.959-13.085-49.48-5.132-11.522-16.884-11.793-20.039-33.168-.003.003 39.82-4.507 44.093 2.271z"></path>
        <path fill="#EEA886" d="M38.048 348.323s10.26-3.834 14.995 3.98c4.731 7.81 4.276 23.45-.897 25.373-5.173 1.924-12.942.919-15.592-3.97-2.65-4.889-5.04-11.954-4.924-16.675.114-4.725 3.724-7.343 6.418-8.708z"></path>
        <path fill="#EEA886" d="M51.032 378.033s-.426 2.77.278 4.134c.704 1.365-13.297 1.399-13.297 1.399s-1.136-7.425-3.29-13.697c-2.154-6.269 16.309 8.164 16.309 8.164z"></path>
        <path fill="#353A3D" d="M34.725 369.872s.967 1.595 4.911.976c3.945-.619 8.758-5.868 10.404-6.442 1.645-.575 1.661-1.545 1.661-1.545l1.03 1.507 1.75.11s-1.596-4.696.81-6.61c2.408-1.914-2.497-15.194-15.146-10.773 0 0-9.715 2.678-9.364 8.205.354 5.527 1.768 11.822 3.944 14.572z"></path>
        <path fill="#E2D2CA" d="M52.143 382.003s-.044-2.608-1.226-2.858c-1.18-.249-13.046-1.39-14.499-.821v3.038c0 .003 2.795 1.721 15.725.641z"></path>
        <path fill="#EEA886" d="M51.438 360.852c-.22-.928-2.577-3.575-3.48-.739-.903 2.836 1.364 6.651 2.628 6.323 1.263-.325 1.415-3.234.852-5.584z"></path>
        <path fill="#323657" d="M99.233 412.815a.021.021 0 0 0-.02 0c.08.035.093.038.02 0z"></path>
        <path fill="#4C5385" d="M71.766 385.955c-8.136-1.074-19.626-3.948-19.626-3.948l-15.725-.641s-14.433 3.177-20.114 5.745c-.54.243-.54 12.876-2.022 16.186l4.712 9.942s2.723 19.692 3.288 28.449c.26 4.021-5.612 37.7-5.612 37.7s6.294 1.854 17.026 3.035c10.732 1.185 37.545-.429 37.716-1.696.17-1.269-5.192-47.2-5.43-49.578-.362-3.651 1.258-23.049 1.258-23.049 2.479-1.923 24.233-12.02 30.167-17.285 1.589-1.408 8.294-7.936 10.198-10.191 6.749-7.981 12.283-14.825 12.955-16.303.765-.84-7.333-5.243-8.066-5.486-.644-.215-9.765 11.606-13.277 15.409-1.567 1.696-8.073 6.43-8.073 6.43s-14.284 5.571-19.375 5.281z"></path>
        <path fill="#353A3D" d="M35.127 349.246s-13.085 1.023-.402 20.627l.401-20.627z"></path>
        <path fill="#353A3D" d="M201.724 585.236s-2.754 4.121-6.62 5.012c-3.866.89-7.671 2.305-7.7 4.747-.028 2.441 11.174 3.894 15.596 1.433 6.601-3.669 7.273-2.564 8.003-4.396.732-1.835-.878-6.739-.831-7.324.06-.72-8.448.528-8.448.528z"></path>
        <path fill="#81807E" d="M202.153 583.203s-.502 1.99-.429 2.034c.076.041 8.71 1.07 8.448-.528a62.716 62.716 0 0 0-.515-2.703l-7.504 1.197z"></path>
        <path fill="#353A3D" d="M230.783 584.962s-1.964 3.944-5.322 5.287c-3.587 1.437-6.468 3.085-6.401 5.46.066 2.378 8.773 4.785 15.109.224 4.004-2.88 5.271-2.896 5.915-4.709.641-1.816-1.115-6.531-1.093-7.099.029-.705-8.208.837-8.208.837z"></path>
        <path fill="#81807E" d="M230.686 582.915s.025 2.008.097 2.046c.076.038 8.42.727 8.209-.837-.168-1.241-.809-2.741-.809-2.741l-7.497 1.532z"></path>
        <path fill="#2D3133" d="M200.088 462.46s-7.753 34.201-9.525 44.616c-1.507 8.866-2.71 18.1-1.987 24.499.894 7.924 12.112 48.994 11.645 51.315-.468 2.325 11.739.373 11.739.373s-8.531-45.811-6.828-54.338c1.263-6.316 12.32-48.264 14.016-46.113 1.696 2.15 3.796 39.591 5.053 45.807 1.257 6.215 5.11 55.32 5.11 55.32s8.616 1.272 10.918-.676c0 0 1.049-41.929.247-53.583-.304-4.44 5.201-53.242-1.861-72.889-3.736-10.378-38.527 5.669-38.527 5.669z"></path>
        <path fill="#DECBC4" d="M166.339 431.37c5.527-.777 22.91 6.926 24.492 6.345 1.086-.398 3.635-8.707 5.457-14.995 1.077-3.721 1.899-6.73 2.015-6.98l.007-.012c-.019.167-.3 3.009.06 6.746.022.24.05.486.079.735.009.064.015.13.025.196.161 1.339.41 2.767.783 4.207.553 2.132.812 4.936.91 7.896v.012c0 .022 0 .044.003.07 0 .069.006.136.006.205 0 .028.003.054.003.082.155 5.385-.218 11.19-.372 14.279-.243 4.784 1.329 6.938 1.377 7.001l1.664-.233 1.203-.171.016-.003 1.608-.224 6.304-.888 2.283-.322.54-.076 3.995-.562 11.263-1.585 1.234-.174.509-.073 4.248-.6 1.92-.268h.006s1.63-11.562 1.756-17.813c.114-5.741 3.187-17.395 3.686-19.262l.009-.038c.004-.019.01-.034.013-.05l.022-.082.01-.041c0-.004 0-.01.003-.013 0-.003.003-.006.003-.013.003-.012.003-.019.003-.019s9.194 9.658 10.975 13.871c.543 1.279 2.208 4.757 4.324 8.989 1.446-2.764 2.356-4.684 2.356-5.164 0-.06 0-.123-.004-.186-.135-4.166-4.5-21.059-7.946-32.098-2.675-5.378-4.983-9.727-5.722-10.258-1.122-.805-5.84-2.826-9.958-4.459l-.401-.158-1.131-.442c-.183-.07-.366-.142-.543-.208-.098-.038-.196-.073-.291-.111-.079-.032-.158-.06-.234-.092-2.059-.783-3.622-1.329-3.947-1.348a9.41 9.41 0 0 0-.777.025c-2.546.149-10.141.862-12.586 1.093-.445.041-.72.069-.761.073h-.006s-1.166.53-2.919 1.332l-.161.073c-1.061.486-2.286 1.134-3.581 1.841-2.542 1.393-5.347 3.019-7.678 4.128-2.283 1.086-5.41 2.599-5.675 2.811L185.25 427.71l-20.07-3.657 1.159 7.317z"></path>
        <path fill="#495055" d="M201.178 457.154s-.847 1.014-1.093 5.306c0 0 34.842-4.065 38.524-5.666 0 0 .146-4.731-.638-4.813-.856-.089-36.793 5.173-36.793 5.173z"></path>
        <path fill="#EEA886" d="M230.89 381.801c-.107 5.467-10.697 8.461-10.697 8.461s-4.428-5.552-3.369-6.083c.416-.208.584-1.039.634-1.967.048-.885-.009-1.861-.06-2.48-.031-.385-.06-.634-.06-.634s1.513-1.595 3.436-3.5c3.364-3.325 7.988-7.583 7.994-5.89a1.7 1.7 0 0 1-.038.322c-.812 3.812 2.16 11.771 2.16 11.771z"></path>
        <path fill="#353A3D" d="M230.012 452.821s.761 4.794.827 6.045l1.611-.322s-.445-5.075-.704-5.925l-1.734.202z"></path>
        <path fill="#353A3D" d="M204.086 456.595s-.609 4.358-.625 6.007l1.705-.222s.351-5.444.544-6.013l-1.624.228z"></path>
        <path fill="#A77860" d="M226.813 373.789c-.022.032-.47.704-1.238 1.668-1.626 2.043-4.68 5.403-8.117 6.752.048-.884-.009-1.86-.06-2.479a5.683 5.683 0 0 1-1.051-.127c.941-1.645 2.302-3.369 2.302-3.369l2.126-.635 6.038-1.81z"></path>
        <path fill="#EEA886" d="M228.847 369.782c-.916 1.992-1.784 3.436-2.034 4.007-.161.373-.596.979-1.238 1.668-1.743 1.879-4.986 4.358-8.176 4.273a5.681 5.681 0 0 1-1.052-.126c-1.289-.281-2.808-.881-3.645-2.517-6.603-12.933-1.822-23.507-1.822-23.507s18.062-5.107 20.886.328c1.986 3.815-.768 11.193-2.919 15.874z"></path>
        <path fill="#163342" d="M210.882 353.579s-1.677-.092-2.09-3.272c-.411-3.142.42-4.014.42-4.014s7.456-3.12 10.131-3.528c2.679-.407 9.26-.796 10.805.97 0 0 3.749-.872 4.772 5.353 1.62 9.876-5.524 19.464-5.524 19.464s.06-6.452-1.361-7.305c-1.421-.856-2.65 1.178-2.65 1.178l-2.912.521s4.422-9.544-.881-9.898c-5.303-.353-7.674 1.084-10.71.531z"></path>
        <path fill="#EEA886" d="M225.464 359.854c.278-2.842 5.416-3.925 5.072-.947-.344 2.978-2.874 5.839-4.046 5.741-1.168-.104-1.238-2.627-1.026-4.794z"></path>
        <path fill="#3C4145" d="M261.141 432.349c0-.06 0-.124-.004-.187-.098-4.156-2.144-20.797-5.59-31.832-1.67-5.359-2.059-9.102-2.706-9.566-1.122-.805-11.102-3.755-15.334-5.416-.135-.054-.268-.108-.401-.158l-1.13-.443c-.184-.069-.367-.142-.544-.208-.098-.038-.195-.073-.29-.111-.079-.031-.158-.06-.234-.091-.006.006-.013.016-.022.022-.376.423-2.337 2.647-4.674 5.972-4.371 6.219-10.069 16.287-9.197 25.582.278 2.985.625 7.27 1.206 12.077.051.411.101.824.155 1.245a165.125 165.125 0 0 0 .783 5.454c1.16 7.207 4.788 12.121 8.01 17.999.028.05.053.098.082.148.016.028.031.057.044.085.07.124.136.25.205.376.111.205.221.414.332.622.063.12.126.24.186.36a139.606 139.606 0 0 1 1.807 3.61c.379.784.752 1.573 1.115 2.356l.113.247s.594 1.377 1.355 3.148c.278.651.581 1.352.885 2.06l.619 1.446c.18.414.35.815.514 1.197.367.853.686 1.601.907 2.122.164.389.278.654.312.746a240.645 240.645 0 0 1 2.278 5.915c.148.404.224.622.224.622l11.145-6.152c2.116-1.061 1.011-6.765.215-8.991-.66-1.851-1.592-3.838-2.64-5.891-.43-.84-.878-1.689-1.339-2.545 3.486-6.096 7.02-12.377 9.26-16.65 1.446-2.77 2.353-4.69 2.353-5.17zm-17.725-17.443l.01-.038c.003-.019.009-.035.013-.051.006-.028.015-.054.022-.082l.009-.041c0-.003 0-.01.003-.013 0-.003.003-.006.003-.012 0 0 5.423 8.473 5.013 15.835-.064 1.147-1.204 4.043-2.862 7.754 0 .003 0 .003-.003.006a252.882 252.882 0 0 1-1.99 4.336c-.028-.063-.053-.126-.079-.189-1.036-2.53-1.711-4.905-1.711-6.98.006.003.464-16.148 1.572-20.525z"></path>
        <path fill="#3C4145" d="M158.933 420.069l25.237 5.496 12.03-31.463c.265-.211 3.714-2.065 5.998-3.155a819.525 819.525 0 0 1 8.053-3.761c1.276-.591 2.476-1.14 3.49-1.608l.082.066s-1.49 4.962-3.417 17.342v.004c-.066.416-.13.84-.196 1.272-.006.051-.016.101-.022.152-.044.287-.088.578-.129.872-.007.034-.01.069-.016.104-.029.196-.06.395-.089.597l-.218 1.494c-.859 6.025-2.065 16.283-3.224 26.636v.003c-.916 8.161-3.004 16.537-3.667 22.787v.013c-.133 1.225-.445 2.858-.868 4.699l-.146.632c-1.866 7.889-5.492 19.054-5.492 19.054l-1.055-.976-3.126-2.887a2.534 2.534 0 0 1-.702-2.615c1.734-5.593 7.628-25.392 8.708-39.314v-.012c.338-4.375-.941-8.493-1.68-12.4l-.038.101a304.173 304.173 0 0 1-2.003 5.429c-1.86 4.905-3.764 9.45-4.557 9.74-1.762.648-34.993-8.435-35.224-9.74l2.271-8.562z"></path>
        <path fill="#51565C" d="M231.964 397.902l-5.151 2.905 2.201 2.246-5.858 31.636c-1.194-7.416-1.737-14.458-2.145-18.776-1.348-14.373 13-30.587 13.893-31.579.689.262 1.434.55 2.202.856l-5.142 12.712z"></path>
        <path fill="#51565C" d="M213.905 385.509s-1.923 6.285-4.169 21.975c-.859 6.026-2.065 16.284-3.227 26.637l-1.2-29.628 2.454-2.659-2.183-2.726 4.668-11.919c1.276-.591 2.476-1.14 3.49-1.608l.167-.072z"></path>
        <path fill="#F5E2D9" d="M235.163 384.394l-4.27-2.593s-.12 2.343-10.697 8.461l3.004 8.461 11.963-14.329z"></path>
        <path fill="#F5E2D9" d="M217.382 382.982s.168 2.527 2.814 7.28l-5.861 7.643-.427-12.393 3.474-2.53z"></path>
        <path fill="#323657" d="M220.212 390.262s1.137 4.544.727 5.817c0 0-2.498.91-4.295-.227.003-.003 1.272-3.184 3.568-5.59z"></path>
        <path fill="#AD9F99" d="M214.338 455.796c-.635-3.206-.031-12.813-.003-13.221l.543.035c-.006.098-.625 9.942-.003 13.078l-.537.108z"></path>
        <path fill="#69737A" d="M218.788 454.317s-5.126.613-6.822 1.036l.221 5.748 6.714-.717-.113-6.067z"></path>
        <path fill="#323657" d="M217.664 395.442s-5.717 14.439-4.785 30.6c.966 16.758 2.552 22.834 2.552 22.834l3.524 4.422 1.554-5.436s-4.731-21.365-1.677-42.153c.553-3.768 1.374-10.905 1.374-10.905l-2.542.638z"></path>
        <path fill="#EEA886" d="M234.848 463.631s-1.225 2.454-2.454 2.862c-1.225.41-3.016 2.403-3.016 2.403l8.638 4.551s2.299-4.497 2.403-7.362c.101-2.861-5.571-2.454-5.571-2.454z"></path>
        <path fill="#DECBC4" d="M234.027 463.861l-.572 1.15s5.486 4.014 6.967 4.267l.509-1.532-6.904-3.885z"></path>
        <path fill="#3C4145" d="M233.455 463.912s4.112 3.402 7.577 4.968l11.654-20.961-6.039-11.673s-12.92 25.623-13.192 27.666z"></path>
        <path fill="#2D3133" d="M198.645 415.784c-.189 3.879-.161 7.321-.161 7.321v.003l-.013.297c-.009-.066-.015-.129-.025-.196a303.975 303.975 0 0 1-2.002 5.429 58.218 58.218 0 0 1-.155-5.915c.278-10.874 3.698-16.575 3.698-16.575-.786 1.895-1.162 5.96-1.342 9.636z"></path>
        <path fill="#2D3133" d="M250.863 456.709l-9.33 11.268 7.991-13.814c.461.856.909 1.706 1.339 2.546z"></path>
        <path fill="#D9C9C2" d="M183.109 442.582H161.57a3.2 3.2 0 0 1-3.108-2.445l-9.354-38.628a3.2 3.2 0 0 1 3.107-3.951h21.54c1.474 0 2.76 1.01 3.107 2.444l9.355 38.629a3.197 3.197 0 0 1-3.108 3.951z"></path>
        <path fill="#EEA886" d="M156.763 431.843c1.055-.976 3.086-1.541 4.829-2.703 1.741-1.163.288-2.363.288-2.363 1.787-.615 1.595-1.43 1.367-1.986-.309-.752-2.264-.537-2.264-.537s1.753-.389 2.473-.708c.72-.319.477-1.576-.632-1.973-1.109-.398-5.625.716-5.625.716s.736-.36 2.966-1.478c2.226-1.118 2.716-2.135 1.402-2.624-.913-.338-2.707.373-6.152 2.688-2.593 1.743-2.382 1.97-2.382 1.97s2.473 10.164 3.73 8.998z"></path>
        <path fill="#898FBF" d="M318.632 513.825h96.017l-30.262 92.931 2.83.922 31.532-96.828H316.472l-31.229 95.906 2.83.922 30.559-93.853z"></path>
        <path fill="#898FBF" d="M351.312 606.756l-30.259-92.931h96.013l30.563 93.853 2.829-.922-31.231-95.906H316.953l31.529 96.828 2.83-.922z"></path>
        <path fill="#898FBF" d="M427.219 540.111H309.701v2.975h117.518v-2.975z"></path>
        <path fill="#898FBF" d="M438.198 572.426H297.596v2.975h140.602v-2.975z"></path>
        <path fill="#EEA886" d="M366.745 301.726s2.394-4.188-1.402-15.415c-3.67-10.858-16.379-9.873-20.418-2.918-4.04 6.954-2.675 11.275 3.272 19.129 5.947 7.855 16.081 2.795 18.548-.796z"></path>
        <path fill="#EEA886" d="M337.228 494.866s-.629 4.611-.708 5.302c-.079.692-6.995-.407-6.995-.407l-.559-5.489s7.396-.057 8.262.594z"></path>
        <path fill="#152B3D" d="M336.597 499.58s2.191 2.776 4.311 3.989c2.119 1.21 5.451 1.69 6.705 2.944.906.903 3.294 4.8-5.508 4.721-8.802-.079-13.047.55-13.991-.944-.945-1.494 1.364-11.022 1.364-11.022s2.154.606 7.119.312z"></path>
        <path fill="#EEA886" d="M385.119 494.866s-.628 4.611-.707 5.302c-.079.692-6.996-.407-6.996-.407l-.559-5.489s7.4-.057 8.262.594z"></path>
        <path fill="#152B3D" d="M384.487 499.58s2.192 2.776 4.311 3.989c2.119 1.21 9.92 2.205 11.174 3.458.907.907 2.41 4.548-9.977 4.207-8.802-.243-13.046.55-13.991-.944-.944-1.494 1.365-11.022 1.365-11.022s2.731.486 7.118.312z"></path>
        <path fill="#FFC05C" d="M339.558 380.069s-3.546 11.023-3.079 20.519c.468 9.497-1.835 19.891-2.773 29.811-1.048 11.06-5.34 37.245-5.495 43.161-.155 5.915.666 24.808.666 24.808l8.591.208s7.213-45.775 9.083-50.446c1.869-4.672 11.133-37.969 11.445-41.708.307-3.736-18.438-26.353-18.438-26.353z"></path>
        <path fill="#FFC05C" d="M375.171 378.923s5.215 29.138 5.837 34.953c.622 5.814 1.039 28.13 1.348 31.762.313 3.632 2.075 47.541 3.737 52.939h-9.579s-9.835-31.921-9.835-47.023c0-15.103-6.512-32.834-10.716-42.798-4.204-9.964-13.827-10.201-16.41-28.689.006.003 32.119-7.008 35.618-1.144z"></path>
        <path fill="#EEA886" d="M363.271 304.689s-1.08 3.146 0 5.388c1.08 2.243-13.805.897-13.805.897s.673-4.636-1.272-8.451c-1.943-3.812 15.077 2.166 15.077 2.166z"></path>
        <path fill="#FFC05C" d="M338.867 382.472s5.353 5.499 36.784-.855l-.48-2.691-35.732 1.345-.572 2.201z"></path>
        <path fill="#EEA886" d="M365.523 310.805s5.498.562 7.068.859c1.57.3 12.143-1.892 14.313-2.116 2.17-.224 11.417-6.563 11.717-7.308.3-.748 5.628-14.237 5.925-17.152.3-2.919 5.189-1.412 4.769.6-.783 3.758-1.791 12.885-2.343 15.532-.597 2.855-2.195 9.326-3.092 10.122-.897.796-9.226 7.131-17.377 9.822-8.151 2.694-14.288 6.658-14.288 6.658h-40.179s-15.627-22.338-15.965-25.705c-.338-3.367 10.915-25.737 13.16-28.541 2.243-2.805 5.489.916 5.489.916s-6.724 19.726-7.621 22.531c-.896 2.804 7.82 15.128 10.214 15.165 2.394.038 8.54-.748 11.269-.859 2.729-.113 5.609-1.307 5.609-1.307l11.332.783z"></path>
        <path fill="#254380" d="M382.84 325.729s-4.917 3.269-5.366 8.881c-.448 5.609-2.242 14.471-3.142 17.5-.897 3.028.786 25.016 1.01 26.589.224 1.569-31.089 5.303-35.899 1.57 0 0-1.346-20.529-1.908-26.366-.562-5.833-3.253-19.969-4.15-21.877-.897-1.907-11.78-17.171-12.229-19.183 0 0 5.628-8.976 9.668-9.086 0 0 6.414 7.516 8.505 7.854 2.091.338 14.91-2.011 14.913-2.03 0 0 1.399 1.904 8.837-.338 0 0 8.859 1.001 10.299 1.184 1.746.224 13.874-1.522 13.874-1.522s4.867 8.218 4.014 12.367l-8.426 4.457z"></path>
        <path fill="#EEA886" d="M404.265 286.841s1.099-5.198-.225-6.692c-.751-.849-2.561-3.098-2.728-3.43-.165-.331-2.107-1.446-2.107-1.983 0-.537 1.901-1.2 3.553.331 1.652 1.529 2.685 1.861 3.348 1.693.66-.164 1.611-5.662 1.693-7.024.082-1.364.609-4.958 1.462-4.712.853.247.812 1.819.812 1.819s.991-2.728 1.651-2.188c.66.537.578 1.86.578 1.86s1.241-1.529 1.57-.414c.328 1.115 0 2.107 0 2.107s1.282-.701 1.364 1.033c.082 1.737-.372 6.818-1.282 8.637-.91 1.819-4.311 6.576-4.718 8.433-.401 1.857-4.971.53-4.971.53z"></path>
        <path fill="#EEA886" d="M333.624 277.711s3.74-6.285 5.009-6.844c1.273-.562 3.067-.878 4.637-2.002 1.569-1.122 3.644-2.056 3.534-2.432-.111-.373-1.965-.225-3.945.635-1.983.859-2.852.445-3.038-.004-.187-.448 1.058-3.616 1.655-4.364.597-.749 4.86-5.038 4.15-5.673-.711-.634-3.478 1.722-3.926 2.208 0 0 2.208-4.636 1.345-4.86-.859-.225-2.466 1.421-2.466 1.421s.186-3.964-4.078 2.469c0 0 .897-2.131-.41-1.421-1.308.711-2.58 4.712-2.991 6.73-.411 2.019-2.277 8.452-3.869 10.006-1.592 1.551 4.393 4.131 4.393 4.131z"></path>
        <path fill="#353A3D" d="M348.197 302.525s1.971.174 6.158-1.273c4.188-1.446 4.501-8.77 5.407-7.902 1.848 1.772 3.594.55 4.292-.499 0 0-2.043-2.694-1.095-3.989.947-1.294 2.488-2.242 2.488-2.242s-2.946-14.199-16.353-7.731c-15.706 7.58-.897 23.636-.897 23.636z"></path>
        <path fill="#254380" d="M363.27 310.08l-.473-2.053s-8.556-.174-13.227.502l-.493 2.454c.006 0 5.982 2.71 14.193-.903z"></path>
        <path fill="#EEA886" d="M361.161 291.554c-.777-1.292-3.651-2.164-3.989 1.497-.262 2.836 5.136 5.934 5.186 3.29.051-2.643-.679-3.928-1.197-4.787z"></path>
        <path fill="#E55353" d="M404.47 285.66s3.089.076 4.586 1.428c0 0 .098.859-.25 1.535 0 0-2.675-1.248-4.728-1.482-.003.004.032-1.121.392-1.481z"></path>
        <path fill="#353A3D" d="M408.109 286.431a1.329 1.329 0 1 1-2.45 1.031 1.329 1.329 0 0 1 2.45-1.031z"></path>
        <defs fill="none">
            <linearGradient gradientUnits="userSpaceOnUse" y2="413.603" x2="637.888" y1="413.603" x1="140.752" id="svgcid--flgo5hsc35te">
                <stop stop-color="#FFC05C"></stop>
                <stop stop-color="#FF6A00" offset="1"></stop>
            </linearGradient>
            <linearGradient gradientUnits="userSpaceOnUse" y2="400.15" x2="638.15" y1="400.15" x1="140.751" id="svgcid--di40o0pmk6c4">
                <stop stop-color="#40D5E6"></stop>
                <stop stop-color="#5577FF" offset="1"></stop>
            </linearGradient>
            <linearGradient gradientUnits="userSpaceOnUse" y2="242.544" x2="599.001" y1="242.544" x1="421.697" id="svgcid-q3wijf5uvix7">
                <stop stop-color="#8FD6FF"></stop>
                <stop stop-color="#BFEBFE" offset="1"></stop>
            </linearGradient>
            <linearGradient gradientUnits="userSpaceOnUse" y2="219.779" x2="595.479" y1="219.779" x1="418.748" id="svgcid--7d3rrp-pl42of">
                <stop stop-color="#8FD6FF"></stop>
                <stop stop-color="#BFEBFE" offset="1"></stop>
            </linearGradient>
            <linearGradient gradientUnits="userSpaceOnUse" y2="448.368" x2="351.677" y1="163.656" x1="451.608" id="svgcid-yg0uai71wvwr">
                <stop stop-color="#C6CBCF"></stop>
                <stop stop-color="#F8F1FE" offset="1"></stop>
            </linearGradient>
            <linearGradient gradientUnits="userSpaceOnUse" y2="1207.52" x2="123.778" y1="421.915" x1="123.778" id="svgcid-wzxql1-chyz04">
                <stop stop-color="#44607D"></stop>
                <stop stop-color="#F5F5F5" offset="1"></stop>
            </linearGradient>
            <linearGradient gradientUnits="userSpaceOnUse" y2="803.071" x2="123.778" y1="252.22" x1="123.778" id="svgcid-b7syjldo47sn">
                <stop stop-color="#626E7A"></stop>
                <stop stop-color="#F5F5F5" offset="1"></stop>
            </linearGradient>
            <linearGradient gradientUnits="userSpaceOnUse" y2="356.739" x2="121.474" y1="356.739" x1="115.254" id="svgcid-49t9km-9kjaz4">
                <stop stop-color="#D5E4FF"></stop>
                <stop stop-color="#EDFFFE" offset="1"></stop>
            </linearGradient>
            <linearGradient gradientUnits="userSpaceOnUse" y2="352.13" x2="132.395" y1="352.13" x1="126.175" id="svgcid-axnbso3g3x0l">
                <stop stop-color="#D5E4FF"></stop>
                <stop stop-color="#EDFFFE" offset="1"></stop>
            </linearGradient>
            <linearGradient gradientUnits="userSpaceOnUse" y2="354.541" x2="143.855" y1="354.541" x1="137.635" id="svgcid--rfsuqcwzriqc">
                <stop stop-color="#D5E4FF"></stop>
                <stop stop-color="#EDFFFE" offset="1"></stop>
            </linearGradient>
            <linearGradient gradientUnits="userSpaceOnUse" y2="360.14" x2="155.63" y1="360.14" x1="149.409" id="svgcid--t1516ttxu9kz">
                <stop stop-color="#D5E4FF"></stop>
                <stop stop-color="#EDFFFE" offset="1"></stop>
            </linearGradient>
            <linearGradient gradientUnits="userSpaceOnUse" y2="362.429" x2="167.616" y1="362.429" x1="161.396" id="svgcid-w92ltwp8s8i9">
                <stop stop-color="#D5E4FF"></stop>
                <stop stop-color="#EDFFFE" offset="1"></stop>
            </linearGradient>
            <linearGradient gradientUnits="userSpaceOnUse" y2="353.898" x2="178.536" y1="353.898" x1="172.316" id="svgcid-allz8knrq60m">
                <stop stop-color="#D5E4FF"></stop>
                <stop stop-color="#EDFFFE" offset="1"></stop>
            </linearGradient>
            <linearGradient gradientUnits="userSpaceOnUse" y2="357.591" x2="189.996" y1="357.591" x1="183.776" id="svgcid--ruvars-ycjfos">
                <stop stop-color="#D5E4FF"></stop>
                <stop stop-color="#EDFFFE" offset="1"></stop>
            </linearGradient>
            <linearGradient gradientUnits="userSpaceOnUse" y2="348.634" x2="201.771" y1="348.634" x1="195.551" id="svgcid-r7hol8-9d9qv2">
                <stop stop-color="#D5E4FF"></stop>
                <stop stop-color="#EDFFFE" offset="1"></stop>
            </linearGradient>
        </defs>
    </g>
</svg>