<svg xmlns="http://www.w3.org/2000/svg" width="117.003" height="71.952" viewBox="0 0 117.003 71.952">
  <g id="Сгруппировать_897" data-name="Сгруппировать 897" transform="translate(-488.7 -6072.869)">
    <path id="Контур_699" data-name="Контур 699" d="M138.146,108.31c-2.453.01-4.9,1.452-6.75-1.4-.615,0,.6-5.722-.029-8.584l-2.467.009c-.638-4.284.579-8.578-.06-12.868-.019-.12-.043-.215-.064-.324l9.37-.157q-4.7,0-9.4-.006c-.756-3.55-3.042-1.048-3.656-3.787-1.888-2.85,1.217-4.294,3.087-4.3-.637-2.858,1.247,0,1.234-2.865-.027-5.72-.045-11.442-2.585-15.72-.637-1.43-.032-5.721-.047-8.58-7.57.035-15.819.053-23.26,5.826-6.151,4.384-13.8-1.654-19.876,3.161-.92.729-2.187-.324-3.362-.664a1.443,1.443,0,0,0-1.6.34,6.121,6.121,0,0,0-1.273,3.289l1.963-.039c-1.726,4.328-4.074.06-6.735,1.679.207,2.856.292,4.28-.438,5.775,1.718-.154,3.989-1.668,5.372-.264l.1,4.285c-.651.732-1.513.4-2.441.082s-1.927-.612-2.666.167c.122,1.427.365,4.278.485,5.7s-.572,1.482-1.281,1.565c.713-.09,2.1-.206,2.775-.241.078,1.294.223,3.755.314,5.267a36.786,36.786,0,0,0-4.191.46l4.214-.072,0,.053c.082,1.432-.513,1.467-1.106,1.516.219,2.85-.014,5.744.605,7.123.493-.042,1-.074,1.536-.1-1.036.77-1.577,2.975-1.67,5.5a45.945,45.945,0,0,0,.475,7.5c.054-1.449.542,2.814.608,1.367a26.4,26.4,0,0,0,.022,3.418c.059,1.163.177,2.323.322,3.385.094.528.11,1.045.163,1.523a6.089,6.089,0,0,0,.293,1.3c.066.354.161.859.329,1.756-.153.539,1.259.813,4.138,1.029,2.807.2,5.474.282,8.225.251a139.878,139.878,0,0,0,16.406-1.254c10.805-1.3,21.61-3.48,32.306-4.955C138.758,114.027,138.149,111.171,138.146,108.31Z" transform="translate(439.705 6023.143)" fill="#30e2d9"/>
    <g id="Сгруппировать_478" data-name="Сгруппировать 478" transform="translate(488.699 6085.859)">
      <path id="Контур_700" data-name="Контур 700" d="M65.594,82.674a2.627,2.627,0,0,0,.583.324,21.514,21.514,0,0,1,3.886,2.849,11.937,11.937,0,0,1,3.626,6.023,7.556,7.556,0,0,1-.971,5.5,8.9,8.9,0,0,1-1.231,1.944,5.367,5.367,0,0,1-.842.906,12.278,12.278,0,0,1-4.079,2.526,3.822,3.822,0,0,1-2.2.388,3.209,3.209,0,0,0-1.683.389,11.023,11.023,0,0,1-1.555.583,9.07,9.07,0,0,1-3.692.193,7.64,7.64,0,0,1-4.532-1.942,3.934,3.934,0,0,1-.648-4.209,14.344,14.344,0,0,1,1.878-3.3,15.853,15.853,0,0,1,2.591-2.979,2.019,2.019,0,0,0,.454-.583c.517-.971.777-1.166,1.748-1.035.389-.131.648-.713,1.166-.519-.258.13-.453.259-.842.454a5.348,5.348,0,0,0,.647.129,4.264,4.264,0,0,0,.065.906c.065.2,0,.389-.194.648-.388.519-.712,1.036-1.166,1.619a5.33,5.33,0,0,0-1.229,2.591,14.377,14.377,0,0,0-.194,1.748.748.748,0,0,0,.582.906,3.371,3.371,0,0,0,1.814.13,14.636,14.636,0,0,0,3.562-.971c1.166-.519,2.4-.972,3.562-1.555a9.786,9.786,0,0,0,2.525-1.618c.583-.454.778-.971.583-1.36A7.051,7.051,0,0,0,67.538,89.6a53.933,53.933,0,0,0-6.67-4.4,28.79,28.79,0,0,1-3.951-2.785A11.991,11.991,0,0,1,53.679,78.4c-1.49-2.461-.13-5.828,1.942-8.354a22.522,22.522,0,0,1,6.994-5.31c.778-.324,1.555-.519,2.267-.842a26.322,26.322,0,0,1,11.2-1.3c1.1.13,2.138.325,3.238.454a6.124,6.124,0,0,1,3.109,1.036.792.792,0,0,1,.323,1.036,1.122,1.122,0,0,0-.064.454,5.138,5.138,0,0,1-.194.971,9.148,9.148,0,0,0-.971,3.3,4.958,4.958,0,0,1-.713,1.619c-.258.517-.647.906-.906,1.36a2.661,2.661,0,0,1-1.036,1.036,13.275,13.275,0,0,1-2.007.842.986.986,0,0,1-1.036,0A12.2,12.2,0,0,0,72.783,74a40.754,40.754,0,0,0-6.411-.519,10.8,10.8,0,0,0-2.008.324c-.777.13-1.489.323-2.2.453-4.662,1.166-1.942,4.533.389,6.217A32.905,32.905,0,0,1,65.594,82.674Z" transform="translate(-51.945 -60.704)" fill="#2e7e7a"/>
      <path id="Контур_701" data-name="Контур 701" d="M85.351,88.621a.21.21,0,0,0-.324.131c-.065,0-.065.064-.065.128-.259.648-.582,1.037-1.166.906-.324.324-.453.648-.712.908a1.128,1.128,0,0,0-.648.842c0,.13-.065.194-.13.324-.323.453-.647.777-.906,1.165a3.641,3.641,0,0,1-1.166,1.426,3.624,3.624,0,0,0-.712.906.355.355,0,0,1-.324.258,2.578,2.578,0,0,0-.971.583,5.659,5.659,0,0,1-2.2.778,4.279,4.279,0,0,1-2.007-.39C72.982,96,72.593,94.9,72.463,93.479a2.511,2.511,0,0,1,.13-.971,32.561,32.561,0,0,1,1.036-6.024c.323-1.1.712-2.072,1.1-3.043.842-1.749,1.555-3.627,2.4-5.375a1.2,1.2,0,0,1,.13-.454A18.072,18.072,0,0,1,79.2,73.338a11.819,11.819,0,0,0,.647-1.3.931.931,0,0,1,.908.194c.712.454,1.424.971,2.2,1.425.13.064.323.194.323.323a15.238,15.238,0,0,1,1.3,2.98c.13.647.194,1.229.324,1.878a3.455,3.455,0,0,1-.259,2.137c-.258.519-.388,1.1-.647,1.619-.065.323-.194.647-.259.971a30.631,30.631,0,0,1-1.36,3.886.226.226,0,0,0-.065.13s0,.064-.13.194a4.842,4.842,0,0,1-.453,1.489c.13-.065.259-.065.324-.13.647-.712,1.359-1.553,2.007-2.331,1.166-1.3,2.2-2.59,3.3-3.886a13.642,13.642,0,0,0,1.231-1.489,55.278,55.278,0,0,1,3.951-4.663,2.118,2.118,0,0,1,.712-.517,3.029,3.029,0,0,1,1.619-.259,2.308,2.308,0,0,1,.582.323c.517.519.971,1.1,1.49,1.555a2.569,2.569,0,0,1,.712,1.166,8.356,8.356,0,0,1,.324,1.36,4.234,4.234,0,0,1-.065,2.007,40.54,40.54,0,0,1-1.425,4.21c-.13.582-.389,1.166-.519,1.878a1.391,1.391,0,0,0,.454-.259,14.967,14.967,0,0,0,3.562-2.915,17.19,17.19,0,0,1,3.3-2.525,1.359,1.359,0,0,0,.519-.389.646.646,0,0,1,.971,0c.324.258.454.713.906.908.324.128.519.453.777.776a6.883,6.883,0,0,0,0,1.619,4.1,4.1,0,0,1-.323,1.425c-.389.194-.13.712-.389,1.036-.065.778-.194,1.553-.324,2.267a11.075,11.075,0,0,0,0,2.073c0,.453.13.647.454.776.971.2,4.339-2.2,4.987-3.043A25.938,25.938,0,0,0,113.91,85.9a1.7,1.7,0,0,1,.389-.843c.13.194.193.194.13.259-.2.972.13.389,0,1.49,0-.259-.324,1.1-.519.972-.13,0-.13.193-.259.323a22.337,22.337,0,0,0-1.1,2.137,1.221,1.221,0,0,1-.259.583,9.151,9.151,0,0,0-1.424,1.294c0,.194-.194.259-.324.324a8.9,8.9,0,0,1-3.756,2.656,6.572,6.572,0,0,1-2.2-.389,7.5,7.5,0,0,1-2.072-2.2,4.3,4.3,0,0,1-.065-2.722,30.093,30.093,0,0,1,1.3-4.728,2.287,2.287,0,0,0,.13-.647c.065-.13,0-.193,0-.388-.389.064-.648.517-.971.582a4.005,4.005,0,0,0-.908.453,1.823,1.823,0,0,1-.453,1.232,10.776,10.776,0,0,0-.648.906c-.324-.194-.647,0-.971.259-.519.453-.971.842-1.555,1.3-.13.128-.323.194-.453.453a11.28,11.28,0,0,1-2.072,1.814c-.065.128-.194.128-.324.323-.389.777-1.166,1.167-1.749,1.814a6.628,6.628,0,0,1-.647.777,4.389,4.389,0,0,1-3.3,1.036,2.208,2.208,0,0,1-1.36-.842,2.287,2.287,0,0,1-.583-1.944,5.865,5.865,0,0,1,.389-2.072A33.2,33.2,0,0,1,92.733,81.3c.454-.842,1.036-1.619,1.49-2.526a.93.93,0,0,0,.324-.971c-.194-.194-.454-.194-.713.065a2.345,2.345,0,0,1-.582.517A25.052,25.052,0,0,1,91.309,80.2a5.539,5.539,0,0,0-.972,1.425,6.953,6.953,0,0,1-1.229,2.007,9.244,9.244,0,0,0-1.49,1.749c-.389.517-.648,1.1-.971,1.618a8.958,8.958,0,0,1-.583,1.1c-.13.194-.324.453-.454.648C85.545,88.752,85.415,88.621,85.351,88.621Z" transform="translate(-48.712 -59.204)" fill="#2e7e7a"/>
      <path id="Контур_702" data-name="Контур 702" d="M109.081,80.125l.065-.065a1.593,1.593,0,0,1,.517-.453c.713-.131,2.331-1.3,2.98-.906.193.258.842.582,1.1.84a1.482,1.482,0,0,1,.13,1.425c-.388.842-.842,1.619-1.359,2.656-.13.388-.259.713-.324.971-.259.582-.519,1.36-.842,1.944-.259.777.906-1.684.777-1.036a1.238,1.238,0,0,1-.194.517,4.3,4.3,0,0,0-.582,2.2c0,.648-.259,3.951-.194,4.533a2,2,0,0,0,.517.971,6.606,6.606,0,0,0,.972.519c.323.259.647.128,1.036.065,5.375-1.942,3.432-2.656,6.54-5.958a10.085,10.085,0,0,0,1.619-2.656c0-.065,0-.065.193-.388.324.647-.388,1.554.519,1.748-1.36,2.461-2.331,6.023-4.533,7.317-.647.843-5.052,4.728-7.9,3.628-.906.323-1.749-.583-2.72-.972a5.35,5.35,0,0,1-1.878-1.424,7.616,7.616,0,0,1-.648-2.591,3.778,3.778,0,0,1-.13-1.166,27.6,27.6,0,0,1,.324-2.784,4.928,4.928,0,0,0,.194-1.037c.13-.065,0-.388.454-.453.064,0,.128-.259.193-.324.324-.454.389-.842.713-1.3,0,0-1.36,1.36-.583.065.519-1.3,1.684-2.72,2.072-3.627a.805.805,0,0,1,.13-.324c.194-.388.389-.647.259-1.1a1.283,1.283,0,0,1,.194-.906A.4.4,0,0,0,109.081,80.125Zm5.957-7.058a1.706,1.706,0,0,0-.323.581.421.421,0,0,1-.13.325,9.688,9.688,0,0,0-.647.777,1.993,1.993,0,0,1-.972.517c-.13-.065-.323.065-.453.194a.788.788,0,0,1-.906.065.781.781,0,0,0-.519-.13,2.646,2.646,0,0,1-.712-.065c.064-.065.129-.193.193-.259a3.51,3.51,0,0,1,.194-.647,5.3,5.3,0,0,1,.454-.842c0-.13.193-.259.193-.324,0-.389.324-.712.519-1.1l.389-.583c.13-.128.258-.258.388-.258a.289.289,0,0,1,.324,0c0,.13.13.13.259.065s.194-.13.259-.065a4.178,4.178,0,0,0,.842.258,2.149,2.149,0,0,1,1.036.972C115.232,72.741,115.168,72.936,115.038,73.067Z" transform="translate(-43.624 -59.321)" fill="#2e7e7a"/>
      <path id="Контур_703" data-name="Контур 703" d="M138.216,90.3c-.324.648-1.425,2.073-1.425,2.785a2.044,2.044,0,0,1-.388.324,2.325,2.325,0,0,0-.519.777,6.833,6.833,0,0,1-.454.713,14.108,14.108,0,0,1-2.979,3.95c-.388.324-3.821,3.627-4.079,3.951-1.879,1.555-4.4.842-6.282.906a2.836,2.836,0,0,1-1.36-.259,7.468,7.468,0,0,1-2.267-1.424c-.582-1.425-2.072-2.4-2.2-4.4-.065-.517-.324-.842-.389-1.36.065-2.072.389-4.144.648-6.281.388-1.49.712-3.108.971-4.6a18.974,18.974,0,0,1,2.072-5.634c.648-1.684,1.231-1.814,1.879-3.5a24.766,24.766,0,0,1,1.489-2.591,21.276,21.276,0,0,1,1.619-2.85,31.584,31.584,0,0,1,4.015-5.568c.971-.972,2.008-2.008,2.98-2.85a6.843,6.843,0,0,1,1.748-1.166,2.3,2.3,0,0,1,.583-.259,2.893,2.893,0,0,1,2.4.713,2.839,2.839,0,0,1,.647,2.719c-.13.777-.194,1.555-.388,2.267a5.3,5.3,0,0,1-.648,1.748,16.658,16.658,0,0,1-1.683,3.174c-.454.842-.972,1.684-1.425,2.526-.778,1.165-1.425,2.4-2.2,3.5-1.36,1.814-2.526,3.756-3.756,5.57-2.008,3.432-1.813,4.016-2.526,7.447a21.1,21.1,0,0,0-.194,3.5c.065.389.259,2.915.324,3.174a8.022,8.022,0,0,0,.777,2.072c.13.259,1.036.453,1.36.582.454.324,3.886-2.007,4.34-2.331a14.048,14.048,0,0,0,2.784-2.46,17.288,17.288,0,0,0,2.267-3.174c1.166-1.553,1.555-2.85,2.785-4.533C139.641,87.32,139.122,88.681,138.216,90.3ZM127.854,78.643a81.392,81.392,0,0,0,4.274-7.383c.713-1.36,1.3-2.719,2.008-4.079a15.759,15.759,0,0,0,.647-2.915c.13-.324.13-.517-.194-.388a1.817,1.817,0,0,0-.712.323,4.666,4.666,0,0,0-2.2,1.878c-.454.519-.777,1.1-1.3,1.619a6.291,6.291,0,0,0-1.166,2.268c-.324.647-.648,1.424-.971,2.072a36.859,36.859,0,0,1-1.749,4.079c-.259.648-.453,1.36-.712,2.007-.777,2.2-.454,1.1-1.166,3.3-.194.519-.065,2.007.777,1.1C126.364,81.1,127.013,80.132,127.854,78.643Z" transform="translate(-41.87 -60.947)" fill="#2e7e7a"/>
      <path id="Контур_704" data-name="Контур 704" d="M138.949,85.317a.431.431,0,0,1-.259.324.406.406,0,0,0-.193.324c-.065.258-.13.324-.324.388-.13.065-.13.13-.194.519.13,0,.194,0,.259.065V87h-.454a1.611,1.611,0,0,0,.065-.519h-.13l-.194,1.36c.13.065.194.13.259.13a8.671,8.671,0,0,1,.065,1.3,3.1,3.1,0,0,0,.259,1.166c.194.259.712,1.683.906,1.942.906.906,2.007,2.072,3.044,2.137a16.669,16.669,0,0,0,2.525-.324,13.622,13.622,0,0,0,4.468-2.4c1.1-.842,2.137-1.813,3.239-2.719l.193-.194c.389-.453.778-.842,1.166-1.3a16.29,16.29,0,0,0,1.944-2.267,1.51,1.51,0,0,1,.777-.777,6.78,6.78,0,0,1-.517,1.618,1.427,1.427,0,0,1-.324.519,6.486,6.486,0,0,0-.971,1.36c-.194.258-.454.517-.648.777a3.842,3.842,0,0,0-.259.389c.194-.065.324-.13.519-.194-.065.388-.389.453-.454.777.065.066.065.13.194.194a3.756,3.756,0,0,1-.647.778,8.742,8.742,0,0,0-1.1,1.1,15.2,15.2,0,0,1-1.879,1.684,8.586,8.586,0,0,1-.906.713c-.259.193-.517.323-.777.517a10.476,10.476,0,0,0-1.166.648,6.356,6.356,0,0,1-2.072.84q-.292.1-.583.194a9.873,9.873,0,0,1-2.331.454A23.243,23.243,0,0,1,136.877,96c-2.267-.908-2.72-2.007-3.756-2.914a3.37,3.37,0,0,1-.906-1.36,9.2,9.2,0,0,1-.454-2.72,13.7,13.7,0,0,1,1.36-5.764c.194-.389.194-.389.13-.971a1.173,1.173,0,0,0-.647.713,9.835,9.835,0,0,1-.778,1.683,3.358,3.358,0,0,1,.454-1.425,20.361,20.361,0,0,1,1.813-3.3,17.933,17.933,0,0,1,2.4-2.98A14.691,14.691,0,0,1,139.4,74.5a6.335,6.335,0,0,0,.647-.324c.324-.13.648-.194.843.13.193.194.453.13.582.258.194.131.259.389.389.519.647.324,3.108.971,3.69,1.36a1.655,1.655,0,0,1,.454.648,5.8,5.8,0,0,0,1.036,1.618,1.6,1.6,0,0,1,.259.582,5.648,5.648,0,0,1,0,2.331,7.072,7.072,0,0,1-.971,2.526,9,9,0,0,0-.713,1.36,5.989,5.989,0,0,1-.647,1.3,1.892,1.892,0,0,1-1.166.971,2.067,2.067,0,0,1-1.231.194c-.194-.065-.388,0-.517-.259a.064.064,0,0,0-.066-.065c-.517.065-.842-.517-1.229-.712a.685.685,0,0,1-.13-.324c.13-.259,0-.389-.065-.582-.259-.519-.519-1.1-.842-1.619-.066-.194-.259-.259-.454-.065C139.208,84.67,138.949,84.928,138.949,85.317ZM132.8,91.145c.066.194.13.324.194.519,0,.193.194.323.065.582-.065-.064-.13-.064-.13-.13a8.231,8.231,0,0,1-.582-2.331c-.065-.065,0-.13,0-.193a10.619,10.619,0,0,1,.259-2.85,1.927,1.927,0,0,0,.13-.583v-.453a4.7,4.7,0,0,0-.389.906c-.065.324-.13.583-.194.906a7.305,7.305,0,0,0,.517,4.6,4.947,4.947,0,0,0,.519.713,1.068,1.068,0,0,0,.454.259c0,.065.065,0,.194,0a6.534,6.534,0,0,1-.519-.906c-.194-.39-.194-.778-.389-1.1A.231.231,0,0,0,132.8,91.145Zm0-4.144a6.691,6.691,0,0,0-.13,2.979c0,.065.066.065.13.13.066-.713.13-1.36.194-2.007a2.186,2.186,0,0,0-.065-1.3C132.862,86.872,132.8,86.936,132.8,87Zm4.6,1.619v0Zm3.562-6.8a6.694,6.694,0,0,0-.453.712c-.259.454-.194.777.13.971a2.025,2.025,0,0,1,.582.453,1.432,1.432,0,0,0,1.425.324,2.016,2.016,0,0,0,1.036-1.036c.454-1.1.712-1.3,1.1-2.4,1.036-2.461-1.036-1.878-2.007-1.1A11.256,11.256,0,0,0,140.956,81.821Z" transform="translate(-39.366 -58.879)" fill="#2e7e7a"/>
    </g>
  </g>
</svg>
