<svg xmlns="http://www.w3.org/2000/svg" width="81.168" height="97.173" viewBox="0 0 81.168 97.173">
  <g id="Сгруппировать_903" data-name="Сгруппировать 903" transform="translate(-1420.521 -6208.045)">
    <g id="Сгруппировать_498" data-name="Сгруппировать 498" transform="translate(1420.521 6208.045)">
      <g id="Сгруппировать_625" data-name="Сгруппировать 625" transform="translate(0 20.986)">
        <path id="Контур_834" data-name="Контур 834" d="M861.4,186.722l-.734-.2-.859,1.281.468.6-.62.926-2.75-3.641.71-1.059,4.41,1.163Zm-2.108.416.566-.844-1.555-.429Z" transform="translate(-856.905 -184.627)" fill="#2e7e7a"/>
      </g>
      <g id="Сгруппировать_626" data-name="Сгруппировать 626" transform="translate(3.953 13.934)">
        <path id="Контур_835" data-name="Контур 835" d="M862.234,179.3l.715-.763,3.146,2.948-.717.763-3.177-.576,1.98,1.854-.717.765-3.145-2.948.715-.765,3.178.578Z" transform="translate(-860.32 -178.535)" fill="#2e7e7a"/>
      </g>
      <g id="Сгруппировать_627" data-name="Сгруппировать 627" transform="translate(9.493 9.225)">
        <path id="Контур_836" data-name="Контур 836" d="M865.6,177.183l-.49-.627,2.674-2.088.49.627-.926.725,2.155,2.76-.824.645-2.157-2.761Z" transform="translate(-865.106 -174.467)" fill="#2e7e7a"/>
      </g>
      <g id="Сгруппировать_628" data-name="Сгруппировать 628" transform="translate(15.44 5.21)">
        <path id="Контур_837" data-name="Контур 837" d="M872.608,171.51l.916-.511,2.092,3.756-.916.509-.867-1.556-1.449.807.867,1.557-.915.509-2.093-3.755.916-.511.837,1.5,1.449-.808Z" transform="translate(-870.243 -170.999)" fill="#2e7e7a"/>
      </g>
      <g id="Сгруппировать_629" data-name="Сгруппировать 629" transform="translate(22.944 2.595)">
        <path id="Контур_838" data-name="Контур 838" d="M878,172.965a2.267,2.267,0,0,1-1.053-2.977,2.28,2.28,0,0,1,2.95-1.044,2.279,2.279,0,0,1,1.051,2.977A2.269,2.269,0,0,1,878,172.965Zm2.025-1.438a1.467,1.467,0,0,0-.6-1.7,1.184,1.184,0,0,0-1.559.552,1.465,1.465,0,0,0,.6,1.7,1.183,1.183,0,0,0,1.558-.551Z" transform="translate(-876.726 -168.739)" fill="#2e7e7a"/>
      </g>
      <g id="Сгруппировать_630" data-name="Сгруппировать 630" transform="translate(30.41 0.401)">
        <path id="Контур_839" data-name="Контур 839" d="M885.932,167.022l1.033-.178.734,4.248-1.032.178-2.189-2.375.463,2.674-1.033.178-.734-4.248,1.031-.178L886.4,169.7Z" transform="translate(-883.175 -166.844)" fill="#2e7e7a"/>
      </g>
      <g id="Сгруппировать_631" data-name="Сгруппировать 631" transform="translate(38.049 0)">
        <path id="Контур_840" data-name="Контур 840" d="M892.379,170.822l-1.048.016-.022-1.383-1.535-2.891,1.188-.02.858,1.927.79-1.954,1.188-.02-1.441,2.939Z" transform="translate(-889.774 -166.498)" fill="#2e7e7a"/>
      </g>
      <g id="Сгруппировать_632" data-name="Сгруппировать 632" transform="translate(49.971 1.32)">
        <path id="Контур_841" data-name="Контур 841" d="M902.164,168.5a.485.485,0,0,0-.337.024.365.365,0,0,0-.195.26.432.432,0,0,0,.037.335.748.748,0,0,0,.25.251q.165.108.374.219c.14.075.275.157.41.248a1.966,1.966,0,0,1,.351.3.9.9,0,0,1,.212.41,1.151,1.151,0,0,1-.016.548,1.2,1.2,0,0,1-.656.8,1.715,1.715,0,0,1-1.229.1,1.848,1.848,0,0,1-1.051-.62,1.2,1.2,0,0,1-.192-1.071l1.082.269a.485.485,0,0,0,.388.626.5.5,0,0,0,.373-.03.393.393,0,0,0,.2-.264.4.4,0,0,0-.041-.318.821.821,0,0,0-.25-.252c-.11-.073-.234-.147-.374-.222a3.921,3.921,0,0,1-.407-.25,2.134,2.134,0,0,1-.352-.3.873.873,0,0,1-.212-.406,1.126,1.126,0,0,1,.015-.542,1.175,1.175,0,0,1,.664-.827,1.769,1.769,0,0,1,1.2-.075,1.86,1.86,0,0,1,1.015.576,1.2,1.2,0,0,1,.195,1.074l-1.107-.274a.573.573,0,0,0-.059-.384A.435.435,0,0,0,902.164,168.5Z" transform="translate(-900.073 -167.638)" fill="#2e7e7a"/>
      </g>
      <g id="Сгруппировать_633" data-name="Сгруппировать 633" transform="translate(56.925 3.021)">
        <path id="Контур_842" data-name="Контур 842" d="M906.334,169.843l.3-.735,3.137,1.292-.3.736-1.087-.448-1.335,3.239-.969-.4,1.336-3.239Z" transform="translate(-906.08 -169.108)" fill="#2e7e7a"/>
      </g>
      <g id="Сгруппировать_634" data-name="Сгруппировать 634" transform="translate(62.49 6.074)">
        <path id="Контур_843" data-name="Контур 843" d="M911.188,173.94l1.33-2.195.9.543-1.33,2.195a.848.848,0,0,0-.145.607.715.715,0,0,0,.368.467.736.736,0,0,0,.59.113.835.835,0,0,0,.476-.406l1.329-2.195.9.542-1.33,2.2a1.78,1.78,0,0,1-.736.7,1.605,1.605,0,0,1-.889.167,2.056,2.056,0,0,1-.855-.3,1.809,1.809,0,0,1-.838-1.051A1.681,1.681,0,0,1,911.188,173.94Z" transform="translate(-910.888 -171.745)" fill="#2e7e7a"/>
      </g>
      <g id="Сгруппировать_635" data-name="Сгруппировать 635" transform="translate(67.834 10.408)">
        <path id="Контур_844" data-name="Контур 844" d="M919.443,176.471a2.427,2.427,0,0,1,.9,1.551,2.15,2.15,0,0,1-2.012,2.361,2.424,2.424,0,0,1-1.676-.64l-1.151-.982,2.787-3.273Zm-2.625,2.364.353.3a1.231,1.231,0,0,0,.957.332,1.592,1.592,0,0,0,1.279-1.5,1.234,1.234,0,0,0-.48-.892l-.354-.3Z" transform="translate(-915.504 -175.489)" fill="#2e7e7a"/>
      </g>
      <g id="Сгруппировать_636" data-name="Сгруппировать 636" transform="translate(73.073 15.69)">
        <path id="Контур_845" data-name="Контур 845" d="M920.03,182.927l3.2-2.875.7.779-3.2,2.875Z" transform="translate(-920.03 -180.052)" fill="#2e7e7a"/>
      </g>
      <g id="Сгруппировать_637" data-name="Сгруппировать 637" transform="translate(76.724 20.288)">
        <path id="Контур_846" data-name="Контур 846" d="M923.221,185.84a2.266,2.266,0,0,1,2.613-1.771,2.28,2.28,0,0,1,1.756,2.591,2.281,2.281,0,0,1-2.615,1.769,2.267,2.267,0,0,1-1.754-2.588Zm1.9,1.6a1.468,1.468,0,0,0,1.491-1.011,1.183,1.183,0,0,0-.928-1.369,1.468,1.468,0,0,0-1.49,1.011,1.184,1.184,0,0,0,.927,1.369Z" transform="translate(-923.184 -184.024)" fill="#2e7e7a"/>
      </g>
    </g>
    <g id="Сгруппировать_499" data-name="Сгруппировать 499" transform="translate(1432.371 6292.277)">
      <g id="Сгруппировать_639" data-name="Сгруппировать 639" transform="translate(0 0.181)">
        <path id="Контур_847" data-name="Контур 847" d="M869.949,240.438a.487.487,0,0,0-.323-.1.369.369,0,0,0-.276.175.437.437,0,0,0-.086.324.759.759,0,0,0,.144.324q.115.16.27.34a4.661,4.661,0,0,1,.293.376,2.046,2.046,0,0,1,.221.405.9.9,0,0,1,.05.458,1.142,1.142,0,0,1-.213.506,1.2,1.2,0,0,1-.9.509,1.707,1.707,0,0,1-1.181-.353,1.844,1.844,0,0,1-.758-.957,1.191,1.191,0,0,1,.206-1.067l.913.64a.485.485,0,0,0,.137.723.5.5,0,0,0,.359.107.4.4,0,0,0,.279-.175.408.408,0,0,0,.078-.313.81.81,0,0,0-.144-.324c-.076-.109-.166-.222-.269-.343a3.942,3.942,0,0,1-.29-.38,2.211,2.211,0,0,1-.221-.405.859.859,0,0,1-.051-.455,1.13,1.13,0,0,1,.208-.5,1.176,1.176,0,0,1,.918-.531,1.754,1.754,0,0,1,1.143.36,1.854,1.854,0,0,1,.74.9,1.193,1.193,0,0,1-.206,1.072l-.932-.654a.575.575,0,0,0,.082-.38A.436.436,0,0,0,869.949,240.438Z" transform="translate(-867.141 -239.42)" fill="#2e7e7a"/>
      </g>
      <g id="Сгруппировать_640" data-name="Сгруппировать 640" transform="translate(5.599 3.278)">
        <path id="Контур_848" data-name="Контур 848" d="M871.978,245.9l2.006-3.8.926.488-2.006,3.8Z" transform="translate(-871.978 -242.096)" fill="#2e7e7a"/>
      </g>
      <g id="Сгруппировать_641" data-name="Сгруппировать 641" transform="translate(10.241 5.273)">
        <path id="Контур_849" data-name="Контур 849" d="M880.1,244.78l.984.359-1.479,4.05-.984-.359-.714-3.15-.931,2.548-.984-.359,1.479-4.05.984.36.714,3.149Z" transform="translate(-875.988 -243.819)" fill="#2e7e7a"/>
      </g>
      <g id="Сгруппировать_642" data-name="Сгруппировать 642" transform="translate(17.986 7.774)">
        <path id="Контур_850" data-name="Контур 850" d="M883.062,249.446a2.261,2.261,0,0,1,.581-3.1,2.16,2.16,0,0,1,1.652-.323,2.2,2.2,0,0,1,1.182.609,1.968,1.968,0,0,1,.571,1.178l-1.228-.23a.822.822,0,0,0-.683-.609,1.1,1.1,0,0,0-.9.176,1.464,1.464,0,0,0-.332,1.769,1.1,1.1,0,0,0,.772.487.823.823,0,0,0,.858-.318l1.227.229a1.978,1.978,0,0,1-.958.893,2.2,2.2,0,0,1-1.322.138A2.153,2.153,0,0,1,883.062,249.446Z" transform="translate(-882.678 -245.979)" fill="#2e7e7a"/>
      </g>
      <g id="Сгруппировать_643" data-name="Сгруппировать 643" transform="translate(25.704 8.539)">
        <path id="Контур_851" data-name="Контур 851" d="M892.1,246.733l-.029.8-1.555-.056-.032.924,1.37.049-.028.8-1.372-.047-.035,1,1.555.056-.029.8-2.6-.094.154-4.309Z" transform="translate(-889.346 -246.64)" fill="#2e7e7a"/>
      </g>
      <g id="Сгруппировать_644" data-name="Сгруппировать 644" transform="translate(36.393 7.52)">
        <path id="Контур_852" data-name="Контур 852" d="M899.218,250.429l-.155-.762q.134-.179.376-.49l.376-.486c.088-.116.191-.259.306-.431a3.174,3.174,0,0,0,.25-.428,1.258,1.258,0,0,0,.145-.736c-.069-.34-.254-.479-.554-.419a.433.433,0,0,0-.311.223.693.693,0,0,0-.036.467l-.99.2a1.4,1.4,0,0,1,.2-1.174,1.616,1.616,0,0,1,1.02-.592,1.437,1.437,0,0,1,1.134.171,1.314,1.314,0,0,1,.568.857,1.453,1.453,0,0,1-.032.763c-.047.135-.089.25-.124.344a2,2,0,0,1-.195.365c-.095.148-.164.256-.209.324s-.127.184-.25.351-.2.274-.231.322l1.56-.317.17.833Z" transform="translate(-898.58 -245.76)" fill="#2e7e7a"/>
      </g>
      <g id="Сгруппировать_645" data-name="Сгруппировать 645" transform="translate(42.614 5.774)">
        <path id="Контур_853" data-name="Контур 853" d="M904.351,244.8a1.812,1.812,0,0,1,.7-.428,1.842,1.842,0,0,1,.814-.116,1.289,1.289,0,0,1,.665.263,2.236,2.236,0,0,1,.5.557,4.22,4.22,0,0,1,.594,1.654,2.221,2.221,0,0,1-.036.752,1.306,1.306,0,0,1-.345.625,2.045,2.045,0,0,1-1.517.543,1.288,1.288,0,0,1-.663-.263,2.214,2.214,0,0,1-.506-.557,3.832,3.832,0,0,1-.383-.8,3.871,3.871,0,0,1-.211-.859,2.206,2.206,0,0,1,.037-.75A1.29,1.29,0,0,1,904.351,244.8Zm1.347.456a.648.648,0,0,0-.315.038.655.655,0,0,0-.267.171.565.565,0,0,0-.131.232.87.87,0,0,0-.014.3,1.875,1.875,0,0,0,.06.33c.028.1.067.223.117.362s.1.257.139.353a2.011,2.011,0,0,0,.164.293.862.862,0,0,0,.2.221.57.57,0,0,0,.249.1.662.662,0,0,0,.315-.038.64.64,0,0,0,.267-.171.549.549,0,0,0,.132-.232.849.849,0,0,0,.013-.3,2,2,0,0,0-.059-.329c-.029-.1-.067-.225-.117-.362s-.1-.256-.14-.353a1.908,1.908,0,0,0-.163-.293.883.883,0,0,0-.2-.221A.575.575,0,0,0,905.7,245.26Z" transform="translate(-903.953 -244.252)" fill="#2e7e7a"/>
      </g>
      <g id="Сгруппировать_646" data-name="Сгруппировать 646" transform="translate(48.142 3.31)">
        <path id="Контур_854" data-name="Контур 854" d="M911.387,246.481l-1.552-3-.657.341-.448-.866,1.621-.838,2,3.861Z" transform="translate(-908.729 -242.123)" fill="#2e7e7a"/>
      </g>
      <g id="Сгруппировать_647" data-name="Сгруппировать 647" transform="translate(53.245 0)">
        <path id="Контур_855" data-name="Контур 855" d="M913.338,241.523a1.124,1.124,0,0,1-.164-.94,1.663,1.663,0,0,1,.732-.953,1.64,1.64,0,0,1,1.145-.357,1.133,1.133,0,0,1,.826.48,1.029,1.029,0,0,1,.081,1.109,1.141,1.141,0,0,1,1.192.519,1.25,1.25,0,0,1,.2,1.11,2.008,2.008,0,0,1-1.937,1.352,1.252,1.252,0,0,1-.975-.566,1.139,1.139,0,0,1-.079-1.3A1.033,1.033,0,0,1,913.338,241.523Zm1.789-1.066a.5.5,0,0,0-.336-.228.515.515,0,0,0-.389.1.534.534,0,0,0-.233.335.5.5,0,0,0,.1.4.508.508,0,0,0,.347.228.524.524,0,0,0,.388-.1.519.519,0,0,0,.222-.335A.51.51,0,0,0,915.127,240.456Zm1.124,1.478a.6.6,0,0,0-.373-.262.585.585,0,0,0-.462.122.664.664,0,0,0-.289.4.554.554,0,0,0,.1.454.608.608,0,0,0,.392.267.627.627,0,0,0,.48-.126.578.578,0,0,0,.271-.4A.627.627,0,0,0,916.251,241.935Z" transform="translate(-913.137 -239.264)" fill="#2e7e7a"/>
      </g>
    </g>
    <g id="Сгруппировать_500" data-name="Сгруппировать 500" transform="translate(1427.726 6219.874)">
      <path id="Контур_856" data-name="Контур 856" d="M922.963,191.39c-.252-.423-.5-.851-.772-1.263a13.983,13.983,0,0,1-2.329-1.9,22.446,22.446,0,0,0-2.319-1.963c.466,0-.321-.851-1.079-1.557l.161.416a26.929,26.929,0,0,0-5-3.667,36.969,36.969,0,0,0-5.492-2.561,3.214,3.214,0,0,1-.986-.58c-.583-.148-1.168-.292-1.766-.394l-.891-.168-.891-.116c.192-.172-.513-.4-1.053-.578s-.927-.263-.033-.264c-1.412.036-2.778-.076-4.158-.069a16.81,16.81,0,0,0-2.05.094,9.888,9.888,0,0,0-1.991.373,29.436,29.436,0,0,0-6.955,1.574,30.078,30.078,0,0,0-6.4,3.258,32.905,32.905,0,0,0-9.549,9.849l.263-.09c-1.63,2.642-2.268,5.239-3.988,8.409-.25,1.176-.541,2.556-.71,3.808a35.289,35.289,0,0,0-1.846,11.146,32.185,32.185,0,0,0,1.141,8.306c-.3.238-.331-1.088-.73-1.191a2.831,2.831,0,0,0,.268,1.772l.031-.144a5.947,5.947,0,0,1,.607,2.225c-.23-.073-.271.227-.461-.15l.241.749c.09.073.184.147.146-.08a1.4,1.4,0,0,1,.316.975,7.829,7.829,0,0,0,1.161,1.78,16.543,16.543,0,0,1,1.241,1.53,1.913,1.913,0,0,1,.2.564c-.3-.4-.74-.982-1.144-1.566-.75-1.03-1.361-2.058-1.195-1.723a4.016,4.016,0,0,0,.546,1.081c.338.536.833,1.18,1.3,1.823.5.626,1.011,1.233,1.372,1.72.4.468.648.815.618.938.251.332.573.718.685.526.339.614-.454.052-.3.555.034-.009.059-.089.153.041l.095.524c.919.689,1.69,2.152,2.829,2.7a3.818,3.818,0,0,1-1.628-.552l-.007-.163c-.12-.041-.6-.457-.746-.322a4.362,4.362,0,0,0,1.512,1.481c.061.133.14.282.179.4.017-.02.026-.043.05-.06.089.256.056.251-.071.241a.193.193,0,0,1-.073-.007c-.047.35.535.807,1.254,1.266a9.715,9.715,0,0,1,2.012,1.442c.378.17.1-.052.571.152a16.242,16.242,0,0,0,1.357,1.291,15.337,15.337,0,0,0,1.537,1.188c.56.013.639-.057.285-.532l.934.578c-.622.047-.249.418.128.789s.779.69.081.752a3.4,3.4,0,0,0,1.506.733c.141-.134.337-.289,1.1-.027.974.572.751.411,1.558.913.131.27-.23.234-.258.4,1.515.16,1.075.789,2.46,1.119.89.118,2.61.465,2.744.08,1.17.182,1.119.444.939.721l.966.175a30.6,30.6,0,0,1-9.342-2.519,25.246,25.246,0,0,0,10.576,3.675c3.806.395,7.6-.328,10.125-2.15.4.653,2.415.761,4.366.471a9.393,9.393,0,0,0,3.759-1.152c.676-.387,1.311-.864,1.964-1.291.322-.222.654-.424.968-.659l.941-.7a48.281,48.281,0,0,0,10.4-10.4,41.1,41.1,0,0,0,6.56-13.4,31.058,31.058,0,0,0,.934-5.6,37.272,37.272,0,0,0-.149-7.368,46.946,46.946,0,0,0-3.391-12.444c-.306-.75-.645-1.481-1.014-2.211.546,1.243.542,1.246,1.028,2.51a51.781,51.781,0,0,0-5.913-7.382A7.836,7.836,0,0,0,922.963,191.39ZM864.376,223.8c.041.146.087.289.131.433a.324.324,0,0,1-.422-.037C863.914,223.522,864.211,223.76,864.376,223.8Z" transform="translate(-863.129 -176.717)" fill="#30e2d9"/>
    </g>
    <g id="Сгруппировать_501" data-name="Сгруппировать 501" transform="translate(1440.002 6235.114)">
      <g id="Сгруппировать_650" data-name="Сгруппировать 650" transform="translate(0 0)">
        <path id="Контур_857" data-name="Контур 857" d="M894.519,189.882h.286c14.489,33.214,15.462,35.1,15.462,35.1,2.06,4.581,4.008,4.639,5.154,4.752v.458H895.378v-.458c4.581,0,1.145-6.7,1.145-6.7l-1.833-3.951H883.467c-1.146,2.634-.115,10.65,6.757,10.65v.458H873.733v-.458c1.717-.113,4.81-.572,9.219-10.65Zm-5.783,15.8-5.1,12.885h10.824Z" transform="translate(-873.733 -189.882)" fill="#fff"/>
      </g>
    </g>
  </g>
</svg>
