<svg xmlns="http://www.w3.org/2000/svg" width="94.038" height="96.665" viewBox="0 0 94.038 96.665">
  <g id="Сгруппировать_897" data-name="Сгруппировать 897" transform="translate(-720.832 -6060.513)">
    <g id="Сгруппировать_492" data-name="Сгруппировать 492" transform="translate(720.832 6060.514)">
      <g id="Сгруппировать_585" data-name="Сгруппировать 585" transform="translate(81.98 95.463)">
        <path id="Контур_801" data-name="Контур 801" d="M323.477,121.716c-.062-.037.093-.108.374-.2C323.337,121.667,323.1,121.755,323.477,121.716Z" transform="translate(-323.294 -121.519)" fill="#30e2d9"/>
      </g>
      <g id="Сгруппировать_586" data-name="Сгруппировать 586" transform="translate(82.537 95.339)">
        <path id="Контур_802" data-name="Контур 802" d="M323.775,121.536c.131-.038.277-.079.439-.123h-.01C324.038,121.456,323.9,121.5,323.775,121.536Z" transform="translate(-323.775 -121.412)" fill="#30e2d9"/>
      </g>
      <g id="Сгруппировать_587" data-name="Сгруппировать 587" transform="translate(82.618 94.479)">
        <path id="Контур_803" data-name="Контур 803" d="M323.845,120.8l.271-.091a.386.386,0,0,1-.09-.043A.391.391,0,0,0,323.845,120.8Z" transform="translate(-323.845 -120.669)" fill="#30e2d9"/>
      </g>
      <g id="Сгруппировать_588" data-name="Сгруппировать 588" transform="translate(0 0)">
        <path id="Контур_804" data-name="Контур 804" d="M346.492,50.458q0-1.005,0-2a18.565,18.565,0,0,0-.073-2.385,8.517,8.517,0,0,0-.506-2.124,7.794,7.794,0,0,0-1.049-1.876,7.615,7.615,0,0,0-3.339-2.509,9.251,9.251,0,0,0-4.03-.468l-2,.182-.733.073-.551.061-2.065.241a19.375,19.375,0,0,1-4.839-.2c-7.179.7-16.348,1.125-24.445,1.931l.4-.008c-4.306.366-7.57.063-11.774.424.03.141-.622.193-.934.288-.774-.617-24.7,3.007-26.208,2.723-.635.081-1.333.132-2.007.226a7.474,7.474,0,0,0-4.985,2.231,7.251,7.251,0,0,0-1.533,2.349,9.018,9.018,0,0,0-.615,2.793l-.068.933c-.022.3-.046.675-.066.823l-.123,1.189q-.123,1.186-.247,2.361c-.157,1.567-.313,3.116-.464,4.635-.282,3.04-.492,5.967-.515,8.7.273,1.667.5,3.541.825,4.948-.32,1.344.229,1.617.112,3.245-1.435,4.1-.934,6.538-.41,4.415.1,3.407-.1,6.818-.127,9.842.071,1.4.142,2.8.214,4.217a4.04,4.04,0,0,1-.463,2.466c.117,3.077-.192,2.164-.4,5.382-.486.767.55,8.1.385,9l-.056-.528a35.281,35.281,0,0,1-.648,4.939c-.139.766-.277,1.532-.388,2.331-.054.4-.1.809-.142,1.232l-.028.319-.027.463-.045,1.153a14.668,14.668,0,0,0,.075,3.216,7.416,7.416,0,0,0,5.984,6.229,15.429,15.429,0,0,0,3.321.215h2.55l3.913-.01c5.2-.024,10.308-.071,15,.01.094-.49-2.067.108-2.176-.541,5.529.086,11.1.693,16.686.774a18.935,18.935,0,0,1,2.7.535c1.783.182,1.053-.235,2.358-.171l.176.442c1.908-.362,2.79.491,4.586.307.095-.177.751-.2,1.389-.188.031.469,1.966-.032,1.873.4l.019-.035a6.109,6.109,0,0,1,1.129.058c.73-.166,7.581-1.45,8.323-1.65l.346.078c1.024-.014,1.462-.362.864-.447l1.264.027-.146.032,1.256.027c.232.041.494.259.137.465a6.79,6.79,0,0,1,2.224-.169c-1.979-.289-4.439-.7-6.51-1.171.851-.161,2.388.088,3.312.037a45.34,45.34,0,0,0,5.127.786c.388-.027.654-.549,1.533-.32.429.362.993-.013,1.724.249a10.015,10.015,0,0,1-2.511.087c.145.426,2.07.289,2.742.41.315-.134,1.956,0,2.988-.113-.294.267.154.3.67.347l.281-.073-.271.074a3.379,3.379,0,0,1,.764.133c.7.049,1.14-.116.858-.26.05-.1-.06-.164-.244-.215a19.607,19.607,0,0,0,3.152-.794c-.221-.041-.232-.105-.184-.176.093-.028.139-.066.115-.124.1-.1.17-.184-.138-.223l-.285.112c-3.06-.11,2.687-2.441-.846-2.576,1.53.53-.515.543-2.12.605a4.2,4.2,0,0,0-2.023-.583c-1,.042-.588.194-.779.329-.555-.119-1.614-.219-1.475-.5-.779.333-1.244-.212-2.179-.1-.824.154.056.145-.529.3-1.235-.035-2.967-.082-3.951-.147-.248-.17-.823-.426-.963-.7h.761c-.086.1-.015.174.743.14a.474.474,0,0,1-.142-.14h14l.466-18.583c.248,2.34.546,4.392,1.064,5.266.022,4.687.485,6.568.632,11.169.533-1.171.5,4.476.941,2.227.779-3.031.185-3.212.817-5.785l-.171.072c1.058-12.049,1.793-24.123,2.334-36.35-.22-8.174.351-17.018.435-25.509C346.519,58.2,346.517,54.279,346.492,50.458Zm-8.432,81.886c.4.01.292.127-.053.289A.172.172,0,0,1,338.06,132.344Zm-2.4,1.131c-.108.035-.208.068-.3.1a9.069,9.069,0,0,0,2.261.079c.006-.171-.24-.193-.222-.273a5.935,5.935,0,0,1,.817-.155c.1-.007.2-.016.292-.027l.179.032c.208-.039.44-.059.648-.08a.972.972,0,0,1,.409.1,2.354,2.354,0,0,1-.728.017c.523.013-.865.4-2.245.769-.586-.142-1.791-.152-1.682-.37-.079.028-.139.05-.184.068l-.428-.093A6.288,6.288,0,0,1,335.664,133.475Z" transform="translate(-252.475 -39.052)" fill="#30e2d9"/>
      </g>
    </g>
    <g id="Сгруппировать_493" data-name="Сгруппировать 493" transform="translate(731.529 6092.365)">
      <g id="Сгруппировать_590" data-name="Сгруппировать 590" transform="translate(0 1.402)">
        <path id="Контур_805" data-name="Контур 805" d="M273.833,67.779H274c8.445,19.358,9.012,20.461,9.012,20.461,1.2,2.669,2.337,2.7,3,2.77v.267H274.333V91.01C277,91.01,275,87.1,275,87.1l-1.067-2.3h-6.543c-.667,1.535-.066,6.208,3.938,6.208v.267h-9.613V91.01c1-.067,2.8-.335,5.375-6.208Zm-3.371,9.212-2.97,7.509H273.8Z" transform="translate(-261.716 -67.779)" fill="#fff"/>
      </g>
      <g id="Сгруппировать_591" data-name="Сгруппировать 591" transform="translate(24 0)">
        <path id="Контур_806" data-name="Контур 806" d="M291.26,91.2v.267h-8.344V91.2c1.269-.367,1.3-1.769,1.3-3.505V70.373c0-1.168-.4-1.636-1.77-2.136V67.97l7.443-1.4V87.7C289.891,89.531,290.058,90.866,291.26,91.2Z" transform="translate(-282.448 -66.568)" fill="#fff"/>
      </g>
      <g id="Сгруппировать_592" data-name="Сгруппировать 592" transform="translate(33.279 1.97)">
        <path id="Контур_807" data-name="Контур 807" d="M299.242,90.932V91.2H290.9v-.267c1.269-.367,1.3-1.8,1.3-3.505V79.284c0-1.168-.367-1.636-1.735-2.136V76.88l7.41-1.4V87.427C297.874,89.263,298.04,90.6,299.242,90.932ZM291.5,71.44a3.187,3.187,0,1,1,3.171,3.172A3.148,3.148,0,0,1,291.5,71.44Z" transform="translate(-290.464 -68.269)" fill="#fff"/>
      </g>
      <g id="Сгруппировать_593" data-name="Сгруппировать 593" transform="translate(43.118 9.179)">
        <path id="Контур_808" data-name="Контур 808" d="M310.152,88.716s-1.269,1.8-5.14,1.8c-4.039,0-5.942-1.134-5.942-1.134V85.01h.3c.668,3.1,3.438,5.208,5.641,5.208,2.37,0,2.9-2.771.367-4.439l-3.371-2.036c-3.137-2.07-3.972-5.374-1.935-7.644,0,0,1.234-1.6,5.039-1.6,3.839,0,5.441.935,5.441.935v3.4h-.3a5.038,5.038,0,0,0-5.141-4.038c-2.169,0-3.2,2.168-.3,4.005l3.371,2.1C311.221,82.741,311.988,86.513,310.152,88.716Z" transform="translate(-298.963 -74.497)" fill="#fff"/>
      </g>
      <g id="Сгруппировать_594" data-name="Сгруппировать 594" transform="translate(56.71 9.175)">
        <path id="Контур_809" data-name="Контур 809" d="M327.7,88.082c-.468,1.469-2.2,2.437-4.306,2.437,0,0-3.7,0-4.005-3-.434,1.735-2.136,3-4.505,3-1.269,0-4.173-.567-4.173-3.4,0-3.339,2.7-3.972,8.645-5.374V79.6c0-3.472-1.969-5.34-4.272-4.14,0,0-.735.434.4.835a2.151,2.151,0,0,1,1.2,1.269,2.365,2.365,0,1,1-4.373,1.8,2.413,2.413,0,0,1,.4-2.47,7.908,7.908,0,0,1,2.236-1.7,6.578,6.578,0,0,1,3.138-.7c4.372,0,6.809,2.738,6.809,6.676v4.973s0,2.4,1.6,2.336c0,0,.833,0,1-.567Zm-8.345-6.008c-2.737.6-2.7,2.637-2.7,4.206,0,0-.034,2.2,1.3,2.2.567,0,1.035-.467,1.4-1.268Z" transform="translate(-310.705 -74.493)" fill="#fff"/>
      </g>
    </g>
    <g id="Сгруппировать_494" data-name="Сгруппировать 494" transform="translate(743.484 6122.273)">
      <g id="Сгруппировать_596" data-name="Сгруппировать 596" transform="translate(-0.001 0.06)">
        <path id="Контур_810" data-name="Контур 810" d="M272.043,92.456h1.814a1.549,1.549,0,0,1,1.013.309.981.981,0,0,1-.449,1.742,1.039,1.039,0,0,1,.673.351,1.019,1.019,0,0,1,.25.684.967.967,0,0,1-.366.793,1.585,1.585,0,0,1-1.02.3h-1.915Zm1.016.772v.9h.667a.529.529,0,0,0,.353-.112.415.415,0,0,0,.134-.336.423.423,0,0,0-.134-.339.52.52,0,0,0-.353-.117Zm0,2.629h.768a.492.492,0,0,0,.345-.125.442.442,0,0,0,.137-.345.474.474,0,0,0-.131-.351.457.457,0,0,0-.339-.131h-.779Z" transform="translate(-272.043 -92.456)" fill="#fff"/>
      </g>
      <g id="Сгруппировать_597" data-name="Сгруппировать 597" transform="translate(6.486 0)">
        <path id="Контур_811" data-name="Контур 811" d="M278.267,96.072a2.2,2.2,0,0,1,0-3.064,2.215,2.215,0,0,1,3.039,0,2.212,2.212,0,0,1,0,3.064,2.2,2.2,0,0,1-3.035,0Zm2.319-.66a1.419,1.419,0,0,0,0-1.748,1.15,1.15,0,0,0-1.606,0,1.424,1.424,0,0,0,0,1.748,1.147,1.147,0,0,0,1.606,0Z" transform="translate(-277.647 -92.405)" fill="#fff"/>
      </g>
      <g id="Сгруппировать_598" data-name="Сгруппировать 598" transform="translate(14.12 0.06)">
        <path id="Контур_812" data-name="Контур 812" d="M284.241,94.947V92.456h1.016v2.491a.829.829,0,0,0,.184.576.694.694,0,0,0,.542.2.711.711,0,0,0,.546-.2.81.81,0,0,0,.191-.576V92.456h1.016v2.491a1.722,1.722,0,0,1-.259.954,1.539,1.539,0,0,1-.654.586,2.007,2.007,0,0,1-.859.184,1.762,1.762,0,0,1-1.225-.451A1.63,1.63,0,0,1,284.241,94.947Z" transform="translate(-284.241 -92.456)" fill="#fff"/>
      </g>
      <g id="Сгруппировать_599" data-name="Сгруппировать 599" transform="translate(20.922 0.06)">
        <path id="Контур_813" data-name="Контур 813" d="M290.117,93.228v-.772h3.293v.772h-1.143v3.4h-1.016v-3.4Z" transform="translate(-290.117 -92.456)" fill="#fff"/>
      </g>
      <g id="Сгруппировать_600" data-name="Сгруппировать 600" transform="translate(27.544 0.06)">
        <path id="Контур_814" data-name="Контур 814" d="M295.838,96.63V92.456h1.016V96.63Z" transform="translate(-295.838 -92.456)" fill="#fff"/>
      </g>
      <g id="Сгруппировать_601" data-name="Сгруппировать 601" transform="translate(31.932 0)">
        <path id="Контур_815" data-name="Контур 815" d="M301.768,96.679a2.089,2.089,0,0,1-1.519-.607,2.2,2.2,0,0,1,0-3.064,2.1,2.1,0,0,1,1.522-.6,2.078,2.078,0,0,1,1.515.6,2.051,2.051,0,0,1,.616,1.53,2.189,2.189,0,0,1-.211.961,2.07,2.07,0,0,1-.58.728l.85,1.094h-1.231l-.506-.69A2.352,2.352,0,0,1,301.768,96.679Zm-.806-3.014a1.424,1.424,0,0,0,0,1.748,1.147,1.147,0,0,0,1.606,0,1.424,1.424,0,0,0,0-1.748,1.15,1.15,0,0,0-1.606,0Z" transform="translate(-299.628 -92.405)" fill="#fff"/>
      </g>
      <g id="Сгруппировать_602" data-name="Сгруппировать 602" transform="translate(39.601 0.06)">
        <path id="Контур_816" data-name="Контур 816" d="M306.253,94.947V92.456h1.018v2.491a.829.829,0,0,0,.184.576.693.693,0,0,0,.541.2.714.714,0,0,0,.548-.2.814.814,0,0,0,.19-.576V92.456h1.016v2.491a1.722,1.722,0,0,1-.258.954,1.545,1.545,0,0,1-.654.586,2.011,2.011,0,0,1-.859.184,1.758,1.758,0,0,1-1.225-.451A1.627,1.627,0,0,1,306.253,94.947Z" transform="translate(-306.253 -92.456)" fill="#fff"/>
      </g>
      <g id="Сгруппировать_603" data-name="Сгруппировать 603" transform="translate(46.689 0.048)">
        <path id="Контур_817" data-name="Контур 817" d="M314.9,92.446v.773h-1.51v.9h1.331v.772h-1.331v.97h1.51v.773h-2.526V92.446Z" transform="translate(-312.376 -92.446)" fill="#fff"/>
      </g>
    </g>
  </g>
</svg>
