<svg xmlns="http://www.w3.org/2000/svg" width="147.798" height="92.198" viewBox="0 0 147.798 92.198">
  <g id="Сгруппировать_898" data-name="Сгруппировать 898" transform="translate(-933.468 -6062.748)">
    <g id="Сгруппировать_502" data-name="Сгруппировать 502" transform="translate(960.986 6062.748)">
      <g id="Сгруппировать_653" data-name="Сгруппировать 653" transform="translate(0 0)">
        <path id="Контур_858" data-name="Контур 858" d="M462.174,102.663l.392,1.174a41.505,41.505,0,0,1-2.634-12.009,41.305,41.305,0,0,0,.669,6.978,33.748,33.748,0,0,0,2.068,6.884,24.442,24.442,0,0,0,7.5,10.136c-.093.559,1.264,2.579,2.889,4.273.4.424.81.839,1.2,1.224l1.119.967a5.517,5.517,0,0,0,1.206.891l2.377,1.418,2.449,1.321c-1.108-.638-2.26-1.2-3.326-1.895,1.066.695,2.218,1.257,3.326,1.895a77.884,77.884,0,0,0,8.195,3.569,72.518,72.518,0,0,0,8.867,2.5,62.26,62.26,0,0,0,9.433,1.146,54.88,54.88,0,0,0,9.769-.554l3.229-.661a17.947,17.947,0,0,0,1.934-.511l2.1-.624c.727-.212,1.441-.535,2.194-.811.74-.306,1.528-.549,2.271-.926a47.106,47.106,0,0,0,4.532-2.34,48.225,48.225,0,0,0,4.3-2.781c.692-.473,1.311-1.028,1.949-1.525.627-.513,1.265-.985,1.811-1.529,1.12-1.052,2.2-2.011,3.051-2.995l1.244-1.345c.39-.416.7-.849,1-1.215a30.736,30.736,0,0,0,2.006-2.673l-.633.909-.479.587L547,115.58a43.391,43.391,0,0,0,5.841-11.524,23.367,23.367,0,0,0-1.342,2.189l.869-1.868c.12-.456.207-1.088.385-1.765.149-.688.4-1.424.536-2.2l.412-2.255A13.909,13.909,0,0,0,553.9,96.3c.064.227.154-.052.255-.563.048-.256.108-.57.151-.906.027-.337.056-.7.084-1.046l-.152.544a42.5,42.5,0,0,0-.138-8.259c-.212-1.367-.345-2.731-.637-4.009q-.191-.965-.374-1.886l-.437-1.762a8.189,8.189,0,0,1-.23-1.426c-.494-1.415-.938-2.843-1.529-4.216.174.12-.1-.771-.3-1.45s-.389-1.126.1-.164a62.61,62.61,0,0,0-4.8-8.742A50.083,50.083,0,0,0,534.37,49.264a39.409,39.409,0,0,0-15.949-7.715,2.868,2.868,0,0,1,.256.162c-1.009-.2-2-.329-2.984-.475s-1.983-.126-2.992-.2l-.763-.049c-.257-.006-.517.007-.779.007l-1.6,0c-1.094-.052-2.236.064-3.472.085-.435.072-.9.113-1.364.208l-1.427.313a25.326,25.326,0,0,0-2.819.691c-.886.278-1.7.546-2.371.8a5.874,5.874,0,0,0-1.464.766c-.943.316-1.74.6-2.461.861-.708.3-1.331.611-1.955.9l-1.926.917-2.248,1.222c.5-.105-.309.375-1.019.8s-1.325.837-.421.458c2.46-.787,2.433-1.168,4.52-1.786l-.094-.054a47.827,47.827,0,0,1,14.476-3.4,37.3,37.3,0,0,1,14.475,1.883A33.379,33.379,0,0,1,529.1,50.1a43.708,43.708,0,0,1,7.829,6.919,53.715,53.715,0,0,1,6.734,9.219,60.422,60.422,0,0,1,4.524,9.7,14.732,14.732,0,0,1,.559,2.006c.12.629.172,1.244.28,1.895A45.425,45.425,0,0,1,550.5,89.5a37.092,37.092,0,0,1-.91,10.145c.029-.119.058-.235.076-.311a7.708,7.708,0,0,1-.333,1.222c-.131.391-.259.772-.384,1.146s-.235.744-.4,1.093-.321.695-.48,1.04c-.586,1.4-1.375,2.693-2.156,4.21.071.022-.212.472-.318.71a4.476,4.476,0,0,0-.614.844l-.558.893-.778,1.085-.906,1.276c-.315.456-.716.882-1.092,1.354s-.774.954-1.19,1.434l-1.337,1.391a42.141,42.141,0,0,1-5.5,4.747,31.317,31.317,0,0,1-3.251,2.05c-.308.194-.646.361-.984.544a38.084,38.084,0,0,1-10.473,3.376,55.7,55.7,0,0,1-10.109.866c-1.359.207-2.9.185-4.071.317a24.3,24.3,0,0,0-2.681-.212c-3.281-1.177-5.234-1.457-3.58-.807a44.323,44.323,0,0,1-7.82-2.3c-1.09-.4-2.195-.765-3.269-1.246a4.54,4.54,0,0,1-1.751-1.09,16.846,16.846,0,0,1-1.911-1.052c-.375-.278-.75-.581-1.859-1.309a8.68,8.68,0,0,0-1.068-.776c-.546-.376-1.291-.773-1.964-1.271s-1.406-.933-1.93-1.366-.932-.751-1.059-.89l.345.265-.8-.764-.674-.78c-.42-.521-.847-.984-1.2-1.516s-.723-1.033-1.114-1.557c-.36-.548-.739-1.112-1.181-1.7a41.256,41.256,0,0,1-3.143-5.4c-.493-.933-.861-1.927-1.286-2.9-.344-1-.752-1.977-1.021-3a38.766,38.766,0,0,1-1.65-12.017c-.244-.078.067,1.682-.257,1.779a38.471,38.471,0,0,1,.538-6.784,56.391,56.391,0,0,1,1.585-6.624,19.211,19.211,0,0,1,.919-2c.592-1.317.189-.837.589-1.816l.255-.051c.452-1.482,1.089-1.975,1.675-3.288a2.905,2.905,0,0,1,.419-1.04c.22.09.774-1.376.923-1.205l-.008-.022a6.651,6.651,0,0,1,.479-.765l.534-1.089.449-.912c.179-.317.368-.652.557-.987.727-1.364,1.626-2.63,1.768-2.908l.208-.191c.55-.625.677-1,.309-.67l.715-.745-.069.1.71-.742c.152-.117.384-.186.247.087a8.874,8.874,0,0,1,1.254-1.307c-1.283.986-2.842,2.283-4.111,3.452a20.09,20.09,0,0,1,1.841-2.021c.355-.288.9-.72,1.5-1.19s1.231-1,1.829-1.412c.233-.214.234-.556.859-.933.373-.095.64-.5,1.2-.761a7.167,7.167,0,0,1-.785.659l-.8.648c.113.044.46-.2.833-.494.39-.272.815-.587,1.052-.727a21.591,21.591,0,0,1,1.961-1.446c-.194.37.639-.262,1.114-.441.478-.3.769-.517.527-.475.022-.319-1.97,1.11-1.435.476a15.479,15.479,0,0,0,1.672-.962c-.056-.109-.405.124-.124-.17A10.464,10.464,0,0,1,486.6,49.4a3.137,3.137,0,0,1-.516.3c.383-.211-.553.552-1.449,1.276-.86.785-1.68,1.534-1.234,1.2a9.105,9.105,0,0,1,1.714-1.555,15.541,15.541,0,0,0,1.653-1.317c-.493.212.232-.383-.271-.146l-.465.434c-.678.335-1.058.306-.866.1.56-.307-.13.321-.829.941-.671.667-1.359,1.321-.943.976l-.4.191a6.46,6.46,0,0,1,1.8-1.171c-.058-.1.456-.446.88-.737l.168-.072c.431-.316,1.088-.658.714-.627-1.347.78-1.058.263-.748-.278s.641-1.106-.727-.367c1.261-.409-.251.448-1.405,1.158a5.4,5.4,0,0,0-1.6.695c-.7.483-.365.354-.462.5-.428.206-1.167.721-1.159.532-.431.534-.921.542-1.516,1.079-.49.512.081.025-.249.409l-1.368,1.111c-.471.38-.882.788-1.2,1.059-.323.126-1.21.648-.825,0,1.19-1.092-.214.661.969-.524-.733.271,1.02-1.08,1.13-1.42a4.857,4.857,0,0,0-.931.649c-.338.3-.695.654-1.012.982l.16-.1c-.271.3-.71.71-1.122,1.158a10.235,10.235,0,0,1-1.211,1.144c.063-.22-.257,0,.13-.446l-.771.8c-.066.131-.133.264.09.034a4.828,4.828,0,0,1-.947,1.1,5.093,5.093,0,0,0-.6.763c-.318.457-.69,1.089-1.07,1.7-.757,1.221-1.354,2.487-1.352,2.382a6.647,6.647,0,0,0-.949,1.481,8.19,8.19,0,0,0,.549-.994c.347-.6.809-1.395,1.256-2.167.954-1.5,1.893-2.893,1.587-2.46a28.516,28.516,0,0,0-2.622,4.069c-.557.969-1.016,1.983-1.43,2.735a8.18,8.18,0,0,1-.734,1.416c-.265.526-.546,1.176-.381,1.1-.447.887-.075-.362-.455.242.009.022.074-.03-.02.176l-.4.568a36.372,36.372,0,0,0-1.695,5.17,9.8,9.8,0,0,1,.2-2.1l.12-.153c.02-.15.286-.975.173-.992a11.831,11.831,0,0,0-.536,1.335c-.133.454-.245.92-.351,1.439-.087.176-.184.384-.259.521.015,0,.031-.012.046,0-.17.309-.17.272-.175.139a.3.3,0,0,1,0-.076,6.861,6.861,0,0,0-.658,2.349c-.168,1.13-.357,2.4-.565,3.295-.032.541.049.059.013.733-.219.912-.342,1.695-.469,2.49-.146.793-.214,1.606-.3,2.587.113.633.169.678.351-.069-.045.491-.073.982-.076,1.475-.389-1.357-.34,2.779-.729,1.3a8.117,8.117,0,0,0,.067,2.181c.115.076.228.2.357,1.246.056,1.471.02,1.124.1,2.344-.074.3-.2-.131-.287-.065.482,1.838-.015,1.683.42,3.433a10.921,10.921,0,0,0,1.152,3.205C462.533,102.692,462.394,102.746,462.174,102.663Z" transform="translate(-459.933 -40.981)" fill="#30e2d9"/>
      </g>
    </g>
    <g id="Сгруппировать_503" data-name="Сгруппировать 503" transform="translate(933.469 6097.766)">
      <g id="Сгруппировать_655" data-name="Сгруппировать 655" transform="translate(0 0)">
        <path id="Контур_859" data-name="Контур 859" d="M452.345,79.344a8.094,8.094,0,0,1-16.183,0,8.092,8.092,0,1,1,16.183,0Zm-5.388,0c0-6.074-.089-7.913-2.7-7.913-2.638,0-2.749,1.839-2.749,7.913,0,6.1.111,7.692,2.749,7.692C446.869,87.037,446.958,85.442,446.958,79.344Z" transform="translate(-436.162 -71.232)" fill="#2e7e7a"/>
      </g>
      <g id="Сгруппировать_656" data-name="Сгруппировать 656" transform="translate(23.679 0.199)">
        <path id="Контур_860" data-name="Контур 860" d="M473.223,86.81v.2h-4.412c-1.574,0-2.062-1-2.594-5.12-.288-2.217-2.947-2.084-2.947-2.084h-1.042v4.7c0,2.173.088,2.306,1.019,2.306v.2h-6.628v-.2c.954,0,1.153-.044,1.153-2.306V73.555c0-1.375-.177-1.974-1.153-1.974V71.4h6.3c4.412,0,8.38.532,8.38,4.234,0,3.325-3.059,4.012-5.187,4.012,2.549,0,3.834.554,4.921,4.544A3.383,3.383,0,0,0,473.223,86.81Zm-7.139-11.172c0-4.234-.577-4.034-3.169-4.034h-.687v8h.687C465.8,79.606,466.084,79.651,466.084,75.638Z" transform="translate(-456.618 -71.404)" fill="#2e7e7a"/>
      </g>
      <g id="Сгруппировать_657" data-name="Сгруппировать 657" transform="translate(47.382 0)">
        <path id="Контур_861" data-name="Контур 861" d="M492.7,81.207v.2c-1.529,0-1.419.133-1.419,4.567a10.913,10.913,0,0,1-5.675,1.264c-4.788,0-8.512-3.3-8.512-8,0-4.722,3.724-8,8.512-8,3.038,0,4.235.332,5.609,1.241l-.421,4.368h-.177c0-5.143-3.569-5.409-5.01-5.409-2.527,0-3.058,1.707-3.058,7.8s.575,7.8,3.058,7.8c1.707,0,2.394-.842,2.394-2.992,0-2.416-.332-2.638-1.551-2.638v-.2Z" transform="translate(-477.094 -71.232)" fill="#2e7e7a"/>
      </g>
      <g id="Сгруппировать_658" data-name="Сгруппировать 658" transform="translate(70.198 0.199)">
        <path id="Контур_862" data-name="Контур 862" d="M504.849,71.4h.111c5.609,12.857,5.985,13.589,5.985,13.589.8,1.773,1.552,1.8,2,1.839v.177h-7.758v-.177c1.773,0,.442-2.593.442-2.593l-.708-1.529h-4.346c-.443,1.019-.044,4.122,2.616,4.122v.177H496.8v-.177c.664-.044,1.861-.221,3.569-4.122Zm-2.239,6.118-1.973,4.988h4.189Z" transform="translate(-496.803 -71.404)" fill="#2e7e7a"/>
      </g>
      <g id="Сгруппировать_659" data-name="Сгруппировать 659" transform="translate(92.969 0.199)">
        <path id="Контур_863" data-name="Контур 863" d="M528.844,87.01l-8.358-11.9v6.917c0,1.773.111,4.788,3.348,4.788v.2h-7.05v-.2c3.058,0,3.5-3.036,3.5-4.788V74.84l-1.042-1.485c-1.331-1.75-2.195-1.728-2.771-1.773V71.4h7.072l7.536,10.884V76.37c0-2.062-.708-4.789-3.17-4.789V71.4h6.718v.177c-2.749,0-3.348,2.727-3.348,4.789V87.01Z" transform="translate(-516.474 -71.404)" fill="#2e7e7a"/>
      </g>
      <g id="Сгруппировать_660" data-name="Сгруппировать 660" transform="translate(118.511 0.199)">
        <path id="Контур_864" data-name="Контур 864" d="M545.854,71.4v.177c-.931,0-1.44.023-1.44,1.974V84.5c0,2.107.509,2.306,1.44,2.306v.2h-7.315v-.2c.931,0,1.44-.2,1.44-2.306V73.555c0-1.951-.487-1.974-1.44-1.974V71.4Z" transform="translate(-538.539 -71.404)" fill="#2e7e7a"/>
      </g>
      <g id="Сгруппировать_661" data-name="Сгруппировать 661" transform="translate(133.655 0)">
        <path id="Контур_865" data-name="Контур 865" d="M565.542,81.718l.221,4.478a12.158,12.158,0,0,1-5.187,1.042c-4.744,0-8.955-2.994-8.955-8s4.211-8,8.955-8c2.86,0,4.656.6,5.187,1.02l-.221,4.478h-.177c-.666-4.589-3.171-5.3-4.789-5.3-2.46,0-3.5,1.729-3.5,7.8,0,6.1,1.108,7.8,3.5,7.8,1.507,0,4.034-.909,4.789-5.319Z" transform="translate(-551.621 -71.232)" fill="#2e7e7a"/>
      </g>
    </g>
    <g id="Сгруппировать_504" data-name="Сгруппировать 504" transform="translate(962.053 6117.605)">
      <g id="Сгруппировать_663" data-name="Сгруппировать 663" transform="translate(0 0.298)">
        <path id="Контур_866" data-name="Контур 866" d="M464.821,88.629v1.389h-.113c-.2-1.329-1.876-1.277-2.169-1.277h-.331v2.441h.368c.1,0,1.089.022,1.187-.759h.112v1.652h-.112c-.1-.788-1.082-.765-1.187-.765h-.368v1.637c0,.8.278.855.608.855v.113h-1.96V93.8c.323,0,.42-.33.42-.84V89.545c0-.465-.089-.8-.42-.8v-.112Z" transform="translate(-460.855 -88.629)" fill="#2e7e7a"/>
      </g>
      <g id="Сгруппировать_664" data-name="Сгруппировать 664" transform="translate(8.82 0.23)">
        <path id="Контур_867" data-name="Контур 867" d="M470.99,93.992a2.434,2.434,0,0,1-2.516-2.673,2.526,2.526,0,1,1,5.032,0A2.435,2.435,0,0,1,470.99,93.992Zm0-5.309c-.894,0-1.442.578-1.442,2.636s.549,2.561,1.442,2.561,1.427-.5,1.427-2.561S471.875,88.683,470.99,88.683Z" transform="translate(-468.474 -88.57)" fill="#2e7e7a"/>
      </g>
      <g id="Сгруппировать_665" data-name="Сгруппировать 665" transform="translate(18.901 0.23)">
        <path id="Контур_868" data-name="Контур 868" d="M479.7,93.992a2.434,2.434,0,0,1-2.515-2.673,2.525,2.525,0,1,1,5.031,0A2.434,2.434,0,0,1,479.7,93.992Zm0-5.309c-.894,0-1.442.578-1.442,2.636s.549,2.561,1.442,2.561,1.427-.5,1.427-2.561S480.583,88.683,479.7,88.683Z" transform="translate(-477.182 -88.57)" fill="#2e7e7a"/>
      </g>
      <g id="Сгруппировать_666" data-name="Сгруппировать 666" transform="translate(28.98 0.298)">
        <path id="Контур_869" data-name="Контур 869" d="M487.691,93.916h-1.8V93.8c.323,0,.534-.338.534-.849V89.59c0-.465-.2-.849-.534-.849v-.112h1.8c1.494,0,3.064.457,3.064,2.658C490.756,93.524,489.186,93.916,487.691,93.916Zm0-5.174h-.33V93.8h.33c.766,0,1.953-.1,1.953-2.515C489.644,88.907,488.473,88.741,487.691,88.741Z" transform="translate(-485.889 -88.629)" fill="#2e7e7a"/>
      </g>
      <g id="Сгруппировать_667" data-name="Сгруппировать 667" transform="translate(39.12 0)">
        <path id="Контур_870" data-name="Контур 870" d="M499.824,93.085a.916.916,0,0,1-.864.939s-.743.068-1.044-.375l-.42-.616a1.533,1.533,0,0,1-2.576.45c-.751-1.029.233-1.854.825-2.2l.376-.225-.4-.6c-.706-.977-.233-1.915.608-2.058a1.1,1.1,0,0,1,1.089.309c.293.345.624,1.231-.517,2.042l.946,1.4a1.265,1.265,0,0,1,.864-.818.6.6,0,0,1,.5.09.414.414,0,0,1,.046.608.438.438,0,0,1-.616.053.407.407,0,0,1-.142-.293c0-.159-.406-.038-.594.45l.594.855a.8.8,0,0,0,.623.346c.263,0,.526-.083.586-.361Zm-2.41-.164-1.224-1.765-.376.241a1.2,1.2,0,0,0-.128,1.772A1.031,1.031,0,0,0,497.413,92.92Zm-1.119-3.072.542.8c.983-.646.81-1.441.48-1.854a.785.785,0,0,0-.8-.218A.833.833,0,0,0,496.294,89.848Z" transform="translate(-494.649 -88.371)" fill="#2e7e7a"/>
      </g>
      <g id="Сгруппировать_668" data-name="Сгруппировать 668" transform="translate(49.403 0.298)">
        <path id="Контур_871" data-name="Контур 871" d="M505.334,93.916h-1.8V93.8c.323,0,.534-.338.534-.849V89.59c0-.465-.2-.849-.534-.849v-.112h1.8c1.5,0,3.064.457,3.064,2.658C508.4,93.524,506.83,93.916,505.334,93.916Zm0-5.174H505V93.8h.33c.766,0,1.953-.1,1.953-2.515C507.287,88.907,506.116,88.741,505.334,88.741Z" transform="translate(-503.532 -88.629)" fill="#2e7e7a"/>
      </g>
      <g id="Сгруппировать_669" data-name="Сгруппировать 669" transform="translate(59.206 0.298)">
        <path id="Контур_872" data-name="Контур 872" d="M516.927,93.916h-.632c-1.156-.008-1-.008-1.479-1.637a1.052,1.052,0,0,0-1.051-.781h-.353v1.57c0,.517.211.735.527.735v.113H512V93.8c.323,0,.5-.21.5-.78V89.365c0-.467-.174-.624-.5-.624v-.112h1.645c1.493,0,2.44.181,2.44,1.434,0,.969-.586,1.292-1.434,1.366.5-.014,1.051.174,1.426,1.675a.931.931,0,0,0,.85.7Zm-3.282-5.174h-.234v2.644h.234c.8,0,1.411,0,1.411-1.322C515.056,88.726,514.41,88.741,513.645,88.741Z" transform="translate(-512 -88.629)" fill="#2e7e7a"/>
      </g>
      <g id="Сгруппировать_670" data-name="Сгруппировать 670" transform="translate(68.948 0.298)">
        <path id="Контур_873" data-name="Контур 873" d="M522.511,88.629v.112a.547.547,0,0,0-.586.631v3.687c0,.512.27.743.586.743v.113h-2.1V93.8c.323,0,.586-.232.586-.743V89.372c0-.465-.255-.631-.586-.631v-.112Z" transform="translate(-520.416 -88.629)" fill="#2e7e7a"/>
      </g>
      <g id="Сгруппировать_671" data-name="Сгруппировать 671" transform="translate(75.801 0.298)">
        <path id="Контур_874" data-name="Контур 874" d="M532.291,88.629v.112c-1.111-.007-1.089,1.427-1.089,1.772v3.4h-.323l-3.235-4.123v2.224c0,.338-.008,1.786,1.006,1.786v.113h-2.223V93.8c1.1,0,1.1-1.448,1.1-1.786V89.673l-.3-.383c-.48-.6-.7-.534-.894-.549v-.112h1.614l3.141,3.958V90.514c0-.345,0-1.779-1.007-1.772v-.112Z" transform="translate(-526.336 -88.629)" fill="#2e7e7a"/>
      </g>
      <g id="Сгруппировать_672" data-name="Сгруппировать 672" transform="translate(86.602 0.298)">
        <path id="Контур_875" data-name="Контур 875" d="M537.716,88.629v.112c-.33,0-.616.083-.616.631v3.687c0,.512.211.743.534.743v.113h-1.968V93.8c.316,0,.5-.232.5-.743V89.372c0-.465-.181-.631-.5-.631v-.112Zm3.35,5.287h-.992c-.8,0-.969-.226-1.764-1.359-.428-.616-.8-1.1-.8-1.1l.991-1.2c.219-.248,1.3-1.494.068-1.518v-.112h2.275v.112c-.526,0-1,.1-2.621,2.177,1.322,1.765,1.817,2.433,1.817,2.433a1.205,1.205,0,0,0,1.022.45Z" transform="translate(-535.666 -88.629)" fill="#2e7e7a"/>
      </g>
    </g>
  </g>
</svg>
