<svg xmlns="http://www.w3.org/2000/svg" width="147.242" height="65.934" viewBox="0 0 147.242 65.934">
  <g id="Сгруппировать_900" data-name="Сгруппировать 900" transform="translate(-1174.375 -6075.879)">
    <g id="Сгруппировать_505" data-name="Сгруппировать 505" transform="translate(1187.852 6090.578)">
      <g id="Сгруппировать_675" data-name="Сгруппировать 675" transform="translate(0 0.001)">
        <path id="Контур_876" data-name="Контур 876" d="M768.006,75.591c-.068-.208-.131-.416-.2-.619l-.274-.6a18.526,18.526,0,0,0-.758-1.924,13.982,13.982,0,0,0-1.141-1.866,7.865,7.865,0,0,0-2.143-2.1,15.988,15.988,0,0,0-2.973-1.364,22.067,22.067,0,0,0-2.943-.739,37.338,37.338,0,0,0-5.547-.531c-1.784-.053-3.429-.024-5.03-.014s-3.152.06-4.635.154c-5.89.236-11.721.264-17.365.4q-4.5.1-8.819.358l-.491-.338a6.979,6.979,0,0,0-2.051.52c-.463.036-.927.069-1.386.11a6.518,6.518,0,0,0-3.481.347c-1.058-.167-.373-.293-.978-.445-1.6.117-3.337.147-5.113.117a12.26,12.26,0,0,0-2.928-.243l-.042.138a66.024,66.024,0,0,1-13.48-1.922c-2.918,1.072-6.584.225-9.957.7-1.991.176-4.171.48-6.242.737-1.042.134-2.014.218-3.078.339-1.037.137-2.027.323-2.943.526a8.706,8.706,0,0,0-3.013,1.441,10.04,10.04,0,0,0-2.175,2.246,17.622,17.622,0,0,0-2.825,8.224c-.024.129-.059.254-.08.382.01.2.029.405.049.6a12.575,12.575,0,0,0,.751,4.438,5.462,5.462,0,0,0,1.172,1.824c.157.174.319.336.48.5,1.1,1.742,2.647,3.614,2.647,4.413,3.176,2.439,7.534,2.434,11.537,2.322l18.259-.514a7.276,7.276,0,0,1,1.628.33l.1-.379,7.144-.2c5,.513,12.026.3,18.007.306,1.29-.019,2.121-.726,3.41-.745l1.828.39a35.384,35.384,0,0,1,3.878-.057,47.38,47.38,0,0,0,9.609.463c3.643-.086,7.357-.192,10.283-.123a31.138,31.138,0,0,0,6.062-.5,33.817,33.817,0,0,0,6.593-1.868,11.288,11.288,0,0,0,1.558-.669c.27-.127.549-.319.831-.49a7.171,7.171,0,0,0,.836-.582,13.767,13.767,0,0,0,3.013-3.178,16.028,16.028,0,0,0,2.1-4.219,14.263,14.263,0,0,0,.661-4.825A8.142,8.142,0,0,0,768.006,75.591Z" transform="translate(-655.912 -65.024)" fill="#30e2d9"/>
      </g>
      <g id="Сгруппировать_676" data-name="Сгруппировать 676" transform="translate(59.613 29.784)">
        <path id="Контур_877" data-name="Контур 877" d="M708.239,90.766c-.279,0-.566-.006-.83-.014C707.749,90.765,708.02,90.768,708.239,90.766Z" transform="translate(-707.409 -90.752)" fill="#30e2d9"/>
      </g>
      <g id="Сгруппировать_677" data-name="Сгруппировать 677" transform="translate(60.056 29.055)">
        <path id="Контур_878" data-name="Контур 878" d="M707.793,90.123c-.051.2,2.3.721.385.742,1.074.013,2.033.036,1.121.4,2.066-.031.143-.558,1.508-.857C709.687,90.761,708.8,90.219,707.793,90.123Z" transform="translate(-707.792 -90.123)" fill="#30e2d9"/>
      </g>
      <g id="Сгруппировать_678" data-name="Сгруппировать 678" transform="translate(65.108 29.252)">
        <path id="Контур_879" data-name="Контур 879" d="M714.984,90.478c-1.034.016-1.952-.416-2.828-.014A8.118,8.118,0,0,0,714.984,90.478Z" transform="translate(-712.156 -90.293)" fill="#30e2d9"/>
      </g>
      <g id="Сгруппировать_679" data-name="Сгруппировать 679" transform="translate(64.631 30.265)">
        <path id="Контур_880" data-name="Контур 880" d="M712.636,91.711l.545-.12-1.437-.423Z" transform="translate(-711.745 -91.168)" fill="#30e2d9"/>
      </g>
      <g id="Сгруппировать_680" data-name="Сгруппировать 680" transform="translate(68.379 30.24)">
        <path id="Контур_881" data-name="Контур 881" d="M717.86,91.146c.391.069.695.161.766.3l-3.644.168,3.286.228C720.254,91.466,719.284,91.3,717.86,91.146Z" transform="translate(-714.982 -91.146)" fill="#30e2d9"/>
      </g>
      <g id="Сгруппировать_681" data-name="Сгруппировать 681" transform="translate(67.03 29.714)">
        <path id="Контур_882" data-name="Контур 882" d="M713.817,90.93a20.341,20.341,0,0,0,3.021.162,4.852,4.852,0,0,1-1.931-.4Z" transform="translate(-713.817 -90.692)" fill="#30e2d9"/>
      </g>
      <g id="Сгруппировать_682" data-name="Сгруппировать 682" transform="translate(70.052 30.115)">
        <path id="Контур_883" data-name="Контур 883" d="M717.632,91.163a10.419,10.419,0,0,0-1.205-.125Z" transform="translate(-716.427 -91.038)" fill="#30e2d9"/>
      </g>
      <g id="Сгруппировать_683" data-name="Сгруппировать 683" transform="translate(74.644 30.55)">
        <path id="Контур_884" data-name="Контур 884" d="M720.456,91.98l.519-.008.14-.558C720.057,91.541,720.484,91.868,720.456,91.98Z" transform="translate(-720.394 -91.414)" fill="#30e2d9"/>
      </g>
      <g id="Сгруппировать_684" data-name="Сгруппировать 684" transform="translate(78.724 31.499)">
        <path id="Контур_885" data-name="Контур 885" d="M723.918,92.234c1.519.089.434.328.375.551.947.318,2.855-.1,3.644-.166A17.461,17.461,0,0,0,723.918,92.234Z" transform="translate(-723.918 -92.234)" fill="#30e2d9"/>
      </g>
      <g id="Сгруппировать_685" data-name="Сгруппировать 685" transform="translate(80.475 32.65)">
        <path id="Контур_886" data-name="Контур 886" d="M728.53,93.228l-3.1.046C726.047,93.876,727.223,93.3,728.53,93.228Z" transform="translate(-725.431 -93.228)" fill="#30e2d9"/>
      </g>
      <g id="Сгруппировать_686" data-name="Сгруппировать 686" transform="translate(86.882 31.819)">
        <path id="Контур_887" data-name="Контур 887" d="M730.966,92.512l1.724.468c.286-.064.057-.222.632-.351A10.565,10.565,0,0,0,730.966,92.512Z" transform="translate(-730.966 -92.51)" fill="#30e2d9"/>
      </g>
    </g>
    <g id="Сгруппировать_899" data-name="Сгруппировать 899">
      <g id="Сгруппировать_506" data-name="Сгруппировать 506" transform="translate(1207.428 6128.037)">
        <g id="Сгруппировать_688" data-name="Сгруппировать 688" transform="translate(22.159 0.244)">
          <path id="Контур_888" data-name="Контур 888" d="M691.965,97.593H693.6a1.456,1.456,0,0,1,.976.3.957.957,0,0,1,.357.764.922.922,0,0,1-.787.909,1,1,0,0,1,.88,1.008.945.945,0,0,1-.359.767,1.492,1.492,0,0,1-.972.292h-1.732Zm.816.626v1.048h.735a.645.645,0,0,0,.432-.135.481.481,0,0,0,.16-.385.49.49,0,0,0-.16-.389.64.64,0,0,0-.432-.138Zm0,2.791h.822a.631.631,0,0,0,.438-.147.587.587,0,0,0,0-.82.635.635,0,0,0-.44-.152h-.817Z" transform="translate(-691.965 -97.593)" fill="#2e7e7a"/>
        </g>
        <g id="Сгруппировать_689" data-name="Сгруппировать 689" transform="translate(29.323 0.232)">
          <path id="Контур_889" data-name="Контур 889" d="M701.113,101.637l-.26-.758h-1.575l-.26.758h-.862l1.43-4.054h.968l1.425,4.054Zm-1.622-1.383h1.153l-.58-1.685Z" transform="translate(-698.154 -97.583)" fill="#2e7e7a"/>
        </g>
        <g id="Сгруппировать_690" data-name="Сгруппировать 690" transform="translate(37.42 0.244)">
          <path id="Контур_890" data-name="Контур 890" d="M705.964,100.025v1.61h-.816V97.593h1.489a1.53,1.53,0,0,1,1.079.351,1.131,1.131,0,0,1,.381.866,1.219,1.219,0,0,1-.233.712,1.2,1.2,0,0,1-.729.453l1.03,1.661H707.2l-.968-1.61Zm0-1.806V99.4h.673a.642.642,0,0,0,.469-.159.66.66,0,0,0,0-.864.647.647,0,0,0-.469-.159Z" transform="translate(-705.148 -97.593)" fill="#2e7e7a"/>
        </g>
        <g id="Сгруппировать_691" data-name="Сгруппировать 691" transform="translate(44.642 0)">
          <path id="Контур_891" data-name="Контур 891" d="M712.649,101.71a1.23,1.23,0,0,1-.895-.362,1.178,1.178,0,0,1-.367-.872,1.271,1.271,0,0,1,.288-.851,1.1,1.1,0,0,1,.707-.4,1.614,1.614,0,0,1-.341-.872.919.919,0,0,1,.3-.671,1.122,1.122,0,0,1,.828-.3,1.2,1.2,0,0,1,.835.278.86.86,0,0,1,.307.654.731.731,0,0,1-.069.331h-.783a.477.477,0,0,0,.053-.235.333.333,0,0,0-.1-.24.327.327,0,0,0-.247-.1.318.318,0,0,0-.243.1.361.361,0,0,0-.093.257.705.705,0,0,0,.174.391l2.137,2.849h-.95l-.446-.614a1.192,1.192,0,0,1-.448.472A1.226,1.226,0,0,1,712.649,101.71Zm-.4-.844a.536.536,0,0,0,.405.177.549.549,0,0,0,.409-.177.589.589,0,0,0,.17-.425.575.575,0,0,0-.17-.42.556.556,0,0,0-.409-.171.543.543,0,0,0-.405.171.578.578,0,0,0-.169.42A.592.592,0,0,0,712.25,100.866Z" transform="translate(-711.387 -97.383)" fill="#2e7e7a"/>
        </g>
        <g id="Сгруппировать_692" data-name="Сгруппировать 692" transform="translate(0 9.693)">
          <path id="Контур_892" data-name="Контур 892" d="M673.64,108.188v1.61h-.817v-4.042h1.489a1.535,1.535,0,0,1,1.08.351,1.134,1.134,0,0,1,.38.866,1.214,1.214,0,0,1-.233.712,1.192,1.192,0,0,1-.729.451l1.031,1.662h-.968l-.968-1.61Zm0-1.807v1.182h.671a.639.639,0,0,0,.469-.16.655.655,0,0,0,0-.862.639.639,0,0,0-.469-.16Z" transform="translate(-672.823 -105.756)" fill="#2e7e7a"/>
        </g>
        <g id="Сгруппировать_693" data-name="Сгруппировать 693" transform="translate(7.466 9.681)">
          <path id="Контур_893" data-name="Контур 893" d="M681.606,105.746v.625h-1.518v1.06h1.344v.625h-1.344v1.118h1.518v.625h-2.334v-4.054Z" transform="translate(-679.272 -105.746)" fill="#2e7e7a"/>
        </g>
        <g id="Сгруппировать_694" data-name="Сгруппировать 694" transform="translate(14.253 9.635)">
          <path id="Контур_894" data-name="Контур 894" d="M686.531,106.36a.611.611,0,0,0-.4.125.42.42,0,0,0-.153.344.5.5,0,0,0,.112.345.717.717,0,0,0,.3.191,3.938,3.938,0,0,0,.405.119c.147.035.294.078.44.127a2.1,2.1,0,0,1,.406.185.8.8,0,0,1,.3.322,1.072,1.072,0,0,1,.113.512,1.118,1.118,0,0,1-.4.858,1.515,1.515,0,0,1-1.055.359,1.7,1.7,0,0,1-1.063-.31,1.033,1.033,0,0,1-.405-.871H686a.532.532,0,0,0,.608.531.632.632,0,0,0,.44-.145.488.488,0,0,0,.163-.384.431.431,0,0,0-.215-.38,1.59,1.59,0,0,0-.519-.208c-.2-.046-.405-.1-.611-.168a1.141,1.141,0,0,1-.52-.345.951.951,0,0,1-.215-.651,1.083,1.083,0,0,1,.4-.881,1.56,1.56,0,0,1,1.027-.33,1.642,1.642,0,0,1,1.012.287,1.105,1.105,0,0,1,.417.871H687.1a.544.544,0,0,0-.174-.367A.56.56,0,0,0,686.531,106.36Z" transform="translate(-685.135 -105.706)" fill="#2e7e7a"/>
        </g>
        <g id="Сгруппировать_695" data-name="Сгруппировать 695" transform="translate(21.423 9.693)">
          <path id="Контур_895" data-name="Контур 895" d="M691.329,106.381v-.625h2.995v.625h-1.1V109.8h-.81v-3.417Z" transform="translate(-691.329 -105.756)" fill="#2e7e7a"/>
        </g>
        <g id="Сгруппировать_696" data-name="Сгруппировать 696" transform="translate(28.443 9.681)">
          <path id="Контур_896" data-name="Контур 896" d="M700.352,109.8l-.26-.758h-1.574l-.262.758h-.862l1.431-4.054h.967l1.425,4.054Zm-1.621-1.384h1.152l-.579-1.685Z" transform="translate(-697.393 -105.746)" fill="#2e7e7a"/>
        </g>
        <g id="Сгруппировать_697" data-name="Сгруппировать 697" transform="translate(36.527 9.693)">
          <path id="Контур_897" data-name="Контур 897" d="M704.377,108.246v-2.49h.817v2.49a.865.865,0,0,0,.211.632.814.814,0,0,0,.605.213.827.827,0,0,0,.609-.213.866.866,0,0,0,.213-.632v-2.49h.812v2.49a1.472,1.472,0,0,1-.48,1.178,1.73,1.73,0,0,1-1.17.414,1.673,1.673,0,0,1-1.153-.411A1.5,1.5,0,0,1,704.377,108.246Z" transform="translate(-704.377 -105.756)" fill="#2e7e7a"/>
        </g>
        <g id="Сгруппировать_698" data-name="Сгруппировать 698" transform="translate(44.353 9.693)">
          <path id="Контур_898" data-name="Контур 898" d="M711.953,108.188v1.61h-.816v-4.042h1.489a1.53,1.53,0,0,1,1.079.351,1.131,1.131,0,0,1,.381.866,1.214,1.214,0,0,1-.233.712,1.2,1.2,0,0,1-.729.451l1.03,1.662h-.967l-.968-1.61Zm0-1.807v1.182h.673a.641.641,0,0,0,.469-.16.655.655,0,0,0,0-.862.641.641,0,0,0-.469-.16Z" transform="translate(-711.137 -105.756)" fill="#2e7e7a"/>
        </g>
        <g id="Сгруппировать_699" data-name="Сгруппировать 699" transform="translate(51.51 9.681)">
          <path id="Контур_899" data-name="Контур 899" d="M720.28,109.8l-.262-.758h-1.574l-.26.758h-.864l1.431-4.054h.968l1.425,4.054Zm-1.622-1.384h1.152l-.579-1.685Z" transform="translate(-717.32 -105.746)" fill="#2e7e7a"/>
        </g>
        <g id="Сгруппировать_700" data-name="Сгруппировать 700" transform="translate(59.607 9.681)">
          <path id="Контур_900" data-name="Контур 900" d="M726.961,105.746h.816V109.8h-.816l-1.83-2.8v2.8h-.816v-4.054h.816l1.83,2.8Z" transform="translate(-724.315 -105.746)" fill="#2e7e7a"/>
        </g>
        <g id="Сгруппировать_701" data-name="Сгруппировать 701" transform="translate(67.409 9.693)">
          <path id="Контур_901" data-name="Контур 901" d="M731.054,106.381v-.625h2.994v.625h-1.1V109.8h-.81v-3.417Z" transform="translate(-731.054 -105.756)" fill="#2e7e7a"/>
        </g>
      </g>
      <g id="Сгруппировать_507" data-name="Сгруппировать 507" transform="translate(1174.376 6075.879)">
        <g id="Сгруппировать_703" data-name="Сгруппировать 703" transform="translate(0 3.029)">
          <path id="Контур_902" data-name="Контур 902" d="M661.255,62.473c.31-.373.62-.807.932-1.242a5.787,5.787,0,0,1,3.291-2.36,1.753,1.753,0,0,1,1.243.249,2.5,2.5,0,0,0,1.8.248c.745-.124,1.242,0,1.428.435,0,.248-.124.683-.061.807a1.71,1.71,0,0,1-.311,1.367c-.124.061-.062.186-.062.311-.061,1.427.311.185-.31,1.615-.31.683-.373,1.3-.622,1.863-2.981,7.516.125,3.79,2.609.5a4.951,4.951,0,0,1,1.243-1.8c.869-1.243,1.925-2.362,2.794-3.665a22.96,22.96,0,0,1,4.97-4.846c.683-.435,1.3-1.118,1.926-.994a3.124,3.124,0,0,1,1.677.684,4.267,4.267,0,0,1,1.056,1.3c.124.063.185.125.248.125.869.186.869,1.056.869,1.864a2.6,2.6,0,0,0-.185.5,20.72,20.72,0,0,0-1.864,5.156c-.124.869-.249,1.8-.311,2.608-.124.808-.186,1.74-.372,2.672a4.191,4.191,0,0,1-.808,2.422c0,.063-.063.125,0,.249.434.373-.186.808-.373,1.242-.063.186-.186.436-.063.622a2.311,2.311,0,0,1-.434,2.111,2.211,2.211,0,0,0-.063.374c-.186.558-.31,1.056-.435,1.552.063,0,.063-.063.31-.186-.185.869-1.241,1.616-.931,2.423.434,0,.373.434.249.993a22.232,22.232,0,0,1-.994,3.727c.063.063,0,.124.063.186.31.62-.435,1.491-.249,2.3.063.5-.31,1.118,0,1.74a2.092,2.092,0,0,1-.684,1.242c-.124.249-.434.434-.682.683-.374.869-.435.932-1.243.994a5.96,5.96,0,0,0-.746.125c-.435.061-.745.061-.932-.25-.061-.124-.248-.185-.5-.248-.807-.186-1.057-.932-.683-1.74a49.122,49.122,0,0,0,1.18-6.336,15.477,15.477,0,0,0,.435-1.615c.249-.745.435-1.615.808-2.485,0,.249-.125.559-.125.871.186-.124.186-.124.249-.124a8.853,8.853,0,0,0,.373-1.367c.186-1.118.746-2.3.622-3.355a.187.187,0,0,1,0-.248c.62-.622.061-1.243.559-1.864.185-.186.123-.435.185-.559a2.89,2.89,0,0,1,.559-2.05v-.31l-.063-.063c-.434.932-.807,1.864-1.18,2.8h-.186c.932-5.466,1.181-6.149-3.043-.249-.062-.063-.125-.124-.125-.186a.273.273,0,0,0-.186.063,2,2,0,0,1-.185.559,2.789,2.789,0,0,1-1.429,1.615.459.459,0,0,0-.311.373,1.954,1.954,0,0,0-.559.745c-.683,1.925-4.721,7.64-5.9,9.565a9.883,9.883,0,0,1-2.111,2.175c0-.373-.063-.622.124-.869h-.124c-.249.434-.559.807-.869,1.241,0-.061-.063-.061-.125-.124a2.187,2.187,0,0,1-1.677,1.3,4.9,4.9,0,0,1-3.23.188,5.138,5.138,0,0,1-1.926-.684c-.434-.31-.5-.249-.061-.994a32.071,32.071,0,0,1,1.864-2.857,3.893,3.893,0,0,0,.994-2.671c1.366-6.9,5.217-15.654.124-7.7a19.1,19.1,0,0,1-2.113,3.043c-1.988,4.285-6.895,10.622-7.64,15.219a4.879,4.879,0,0,1-.435,1.366c-.373.559-.683.622-.993.374-.186-.062-.249-.062-.31-.125-.311-.745-.932-.869-1.74-.993a3.455,3.455,0,0,1-1.181-.56c-.061-.061,0-.372.062-.5a22.787,22.787,0,0,0,2.174-6.149,17.892,17.892,0,0,1,.5-2.36c.188-.932,1.74-4.6,1.988-5.529l.747-2.982c.5-1.925.931-3.851,1.49-5.776A7.3,7.3,0,0,0,651.5,69a14.481,14.481,0,0,1,1.118-4.349c.186-.434.249-.932.5-1.428a12.307,12.307,0,0,1,.5-1.366c.186-.435.435-.622.746-.5.31.31.745.559,1.057.869.186.248.124.622.186.993a26.938,26.938,0,0,1-.871,3.727c-1.429,6.895,3.914-.993,4.659-2.111C659.951,64.027,660.7,63.281,661.255,62.473Zm-3.417,24.785c.063-.124.125-.249.311-.559v-.31a1.4,1.4,0,0,1-.374.434.932.932,0,0,1-.061.435Zm8.511-12.113a17.21,17.21,0,0,0,.932-1.552,6.051,6.051,0,0,1,1.8-2.485,1.747,1.747,0,0,0,.373-.932,20.9,20.9,0,0,0-3.541,5.4A1.458,1.458,0,0,0,666.349,75.146Zm6.088-8.386a.766.766,0,0,1,.248-.5,20.159,20.159,0,0,0,1.988-3.107,22.082,22.082,0,0,0-3.167,4.412A1.548,1.548,0,0,0,672.437,66.76Z" transform="translate(-644.271 -54.942)" fill="#2e7e7a"/>
        </g>
        <g id="Сгруппировать_704" data-name="Сгруппировать 704" transform="translate(37.725 15.72)">
          <path id="Контур_903" data-name="Контур 903" d="M680.468,74.784a9.951,9.951,0,0,1-1.18-3.913,4.512,4.512,0,0,1,.683-3.043.615.615,0,0,1,.434-.311,12.187,12.187,0,0,1,1.865-1.242,2.74,2.74,0,0,1,1.988-.31c.5,0,1.863,1.242,2.174,1.49a8.6,8.6,0,0,0,1.18.933,4.483,4.483,0,0,1,1.243,1.863,8.706,8.706,0,0,0,.559,1.367,15.5,15.5,0,0,1,.372,1.8,10.787,10.787,0,0,0,.188,1.491c.062.063.062.063.062.186-.187-.994.062.435,0,.62a11.875,11.875,0,0,1-.062,2.113c-.187.373.185.808.683.808,3.043-.186,4.223.248,7.2-.249.311-.125.622-.31.994-.5.124-.061.31-.186.435-.248a.594.594,0,0,1,0,.559c-.187.31.434.435.185.683-1.863,1.988-7.578,1.925-9.814,1.925h-.186c-.186,0-.373.063-.373.188s-.062.186-.124.31a15.854,15.854,0,0,1-1.181,3.106,7.933,7.933,0,0,1-1.181,1.864,3.6,3.6,0,0,1-.868,1.056c-.125.063-.249.186-.435.31a.721.721,0,0,0-.373.373A3.638,3.638,0,0,1,683.2,89.2a1.615,1.615,0,0,0-.62.248,5.9,5.9,0,0,1-2.547.063,3.441,3.441,0,0,1-2.485-1.988c-.186-.5-.373-1.118-.559-1.677a15.611,15.611,0,0,1-.061-3.416,9.89,9.89,0,0,1,1.056-3.416,14.005,14.005,0,0,1,2.3-3.666c.185-.061.185-.185.248-.372A.23.23,0,0,0,680.468,74.784Zm7.392-2.484a19.1,19.1,0,0,0-.434-1.988,2.988,2.988,0,0,0-.87-1.491,3.118,3.118,0,0,0-.807-.745,7.3,7.3,0,0,0-1.119-.807c-.744-.622-2.112.683-2.547,1.118-1.677,2.36-.061,5.59,1.491,7.267,1.8,3.541,5.094,2.3,4.349-1.864A2.431,2.431,0,0,0,687.861,72.3Zm-5.529,12.113a5.4,5.4,0,0,0-.061.994c-.125.124,0,.185.061.31a1.337,1.337,0,0,0,.683.744c.063,0,.063,0,.125-.061s.186-.124.248-.186a13.649,13.649,0,0,0,2.423-3.975,9.58,9.58,0,0,0,.622-1.491c-1.43-.62-2.111-.061-2.921.994A8.588,8.588,0,0,0,682.332,84.413Z" transform="translate(-676.86 -65.906)" fill="#2e7e7a"/>
        </g>
        <g id="Сгруппировать_705" data-name="Сгруппировать 705" transform="translate(55.092 17.005)">
          <path id="Контур_904" data-name="Контур 904" d="M713.884,78.275c-.373.5-.747,1.056-1.118,1.552a12.008,12.008,0,0,0-1.119,1.925c0,.063,0,.188-.061.188a21.156,21.156,0,0,1-1.242,1.739c-.684.745-1.3,1.428-1.988,2.111a12.32,12.32,0,0,1-2.113,1.553,15.977,15.977,0,0,1-3.167,1.428,27.038,27.038,0,0,0-3.168,0c-.869.186-2.733-.62-3.541-.932a11.56,11.56,0,0,1-2.422-1.366,5.515,5.515,0,0,1-1.989-4.038,13.55,13.55,0,0,1,0-3.168,9.855,9.855,0,0,1,.374-1.864c.185-.434.309-.869.5-1.3a22.354,22.354,0,0,1,1.8-3.665c.188-.248.311-.5.5-.744a8.254,8.254,0,0,1,1.615-1.926c.745-.62,1.429-1.3,2.237-1.864a2.19,2.19,0,0,1,1.3-.434,1.8,1.8,0,0,0,.559-.125,2.5,2.5,0,0,1,1.428-.31c.061.063.061.063.061,0a3.078,3.078,0,0,1,2.05.622c.063,0,.125.061.186.061a.232.232,0,0,0,.188-.061c.185-.125.31-.186.5-.063a.691.691,0,0,1,.248.683.912.912,0,0,0,.063.808c.063.063,0,.186.063.248-.125.186-.249.374-.373.559a7.17,7.17,0,0,0,.248,1.118,8.231,8.231,0,0,1,.186,1.74,4.772,4.772,0,0,1-.061.932,17.256,17.256,0,0,1-1.057,3.168,1.075,1.075,0,0,1-.807.744c-.124,0-.249.063-.373.063a.524.524,0,0,1-.373-.125,4.13,4.13,0,0,0-1.118-.682c-.062-.063-.124-.063-.186-.125a.552.552,0,0,1-.249-.622c.062-.31.125-.62.188-.869a34.487,34.487,0,0,1,1.18-3.6,1.1,1.1,0,0,1,.061-.373,2.515,2.515,0,0,1-.248.186,12.815,12.815,0,0,1-1.491,2.111,13.263,13.263,0,0,0-1.3,2.236c-.5,1.057-.993,2.05-1.491,3.106a16.2,16.2,0,0,0-1.118,3.044,4.671,4.671,0,0,0-.185.993,2.4,2.4,0,0,0,.185,1.3c.188.373.373.808.559,1.242a5.335,5.335,0,0,0,.5.745c.311.373,1.865-.249,2.3-.31a13.977,13.977,0,0,0,5.466-2.485,39.717,39.717,0,0,0,3.479-2.981l.932-1.118c.559-.745,2.3-1.988,2.858-2.8.309-.435,1.3-.994,1.615-1.428.186-.248,0,.869.31.683A9.738,9.738,0,0,1,713.884,78.275Z" transform="translate(-691.863 -67.015)" fill="#2e7e7a"/>
        </g>
        <g id="Сгруппировать_706" data-name="Сгруппировать 706" transform="translate(73.145 0)">
          <path id="Контур_905" data-name="Контур 905" d="M720.867,89.41a11.679,11.679,0,0,0,1.056,1.74,1.177,1.177,0,0,0,1.056.745,3.07,3.07,0,0,0,1.989-.188c.62-.185,2.857-1.988,3.54-2.3.249-.124,2.8-2.857,3.106-3.043a22.472,22.472,0,0,0,2.547-3.665c.622-.993,1.118-2.111,1.74-3.106.124-.249.248-.5.373-.808.061-.31.124-.5.186-.745.31.869,1.117.188.869.808a2.414,2.414,0,0,0-.186.808,11.467,11.467,0,0,1-1.18,2.3,12.441,12.441,0,0,1-1.057,2.485v.124c-.373.745-.932,1.552-1.3,2.36-.434.5-3.354,3.727-3.85,4.162a3.281,3.281,0,0,1-1.057.62c-.932.5-3.355,2.485-4.287,2.734a10.37,10.37,0,0,1-1.925.31,3.509,3.509,0,0,1-2.671-.993c-.31-.374-.684-.808-.994-1.242-.683-1.181-1.552-2.485-2.174-3.852-.559-.683-.746-1.242-1.3-.434-.124.186-.124.559-.249.745a10.066,10.066,0,0,0-.62,1.118,5.173,5.173,0,0,1-.559,1.18c-.249.249-.435.373-.745.31a1.2,1.2,0,0,0-.932.311c-1.3.559-1.8.559-2.733-.249a4.728,4.728,0,0,1-1.863-3.416.67.67,0,0,1-.063-.373,11.583,11.583,0,0,0-.062-2.919,24.746,24.746,0,0,1,.062-3.727,14.181,14.181,0,0,0,.185-1.615,23.821,23.821,0,0,1,.994-5.093c.311-.994.62-2.05.994-2.982.558-1.739,1.3-3.479,2.05-5.217.434-.747.682-1.553,1.117-2.236a66.833,66.833,0,0,1,3.665-6.584,23.736,23.736,0,0,1,2.858-3.541c.434-.372.869-.807,1.366-1.18a2.674,2.674,0,0,1,1.553-.435c.061,0,.186.186.31.249a5.216,5.216,0,0,0,1.677,1.614,11.954,11.954,0,0,1,2.858,3.168,3.654,3.654,0,0,1,.62,2.05v.559a.8.8,0,0,1-.62.559,1.6,1.6,0,0,0-.435-.249c-.124-.185-.374-.31-.5-.5-.62-.5-1.117-.434-1.8.249-.559.5-1.118,1.181-1.74,1.74a2.063,2.063,0,0,1-.372.62c-.622.993-1.3,1.864-1.926,2.733a1.286,1.286,0,0,1-.186.434,10.741,10.741,0,0,1-.932,1.926c-.434.871-.931,1.74-1.366,2.733-.249.435-.435.808-.683,1.3-.5,1.18-1.118,2.423-1.616,3.665a31.8,31.8,0,0,0-1.739,4.6c-.063.373-.186.62-.249.932a22.021,22.021,0,0,1-.559,2.36c-.248,1.988.311,1.925.745,1.242.932-1.428,1.615-3.106,2.671-4.534a29.026,29.026,0,0,1,3.541-4.224,4.877,4.877,0,0,1,4.038-1.181.842.842,0,0,1,.745.559,1.564,1.564,0,0,0,.249.435,3.72,3.72,0,0,1,.683,2.3,14.631,14.631,0,0,1-.683,4.534c-.063.248-.063.373-.124.622a8.644,8.644,0,0,1-1.181,2.235c-.373.311-.622.683-.932.932a3.355,3.355,0,0,1-1.428,1.118,4.289,4.289,0,0,0-.808.31c-.186,0-.186.249-.373.31A3.783,3.783,0,0,0,720.867,89.41Zm-13.108-5.776v1.3A2.272,2.272,0,0,0,707.759,83.633Zm11.306-3.851a7.9,7.9,0,0,1-.745,1.615c-.249.62-.622,1.056-.808,1.615-.683.994,1.242.373,1.615,0a11.3,11.3,0,0,0,3.355-4.782c.994-3.231-.186-2.921-1.74-.932A9.194,9.194,0,0,0,719.065,79.782Z" transform="translate(-707.458 -52.326)" fill="#2e7e7a"/>
        </g>
        <g id="Сгруппировать_707" data-name="Сгруппировать 707" transform="translate(97.96 14.971)">
          <path id="Контур_906" data-name="Контур 906" d="M736.435,83.4a11.794,11.794,0,0,1-3.106.683,7.671,7.671,0,0,1-2.423-.559c-1.552-.932-1.615-1.366-1.926-3.416a4.627,4.627,0,0,1,.311-2.609c.31-1.428,3.665-6.584,4.224-7.889a14.032,14.032,0,0,1,1.117-2.111,1.558,1.558,0,0,1,.809-.745c.434-.186.868-.186,1.18-.5.932-.5.248-.932.869-.994a1.568,1.568,0,0,1,1.367.684c.249.061.249.373.5.62.186.124.124.373.124.622-.372,1.552-1.74,4.472-2.111,5.963a13.456,13.456,0,0,0-.559,2.547,6.734,6.734,0,0,1-.559,1.8c-.125.5-.435,1.428-.125,1.677.249.31.374,1.367.746,1.242,1.491-.807,3.479-.869,4.287-1.863.5-.684.808-.373,1.3-.994a4.331,4.331,0,0,0,.746-1.118c.373-.807.435-.559.745-1.242a13.548,13.548,0,0,1,1.428-2.236,4.686,4.686,0,0,1,.808-1.428c.62-.186.559-.124.807-.063.932-.061.124,0,.683.31.125.249,0,.5.187.622-.435,1.181-.5,2.423-1.057,3.79-.186.434-.061,0-.434.558a2.874,2.874,0,0,1-.435,1.43c-.249.559-.186,1.241-.559,1.739-.5,2.111-.745,3.23-.745,3.479-.186.808,1.988,1.367,4.162.683a15.5,15.5,0,0,0,5.156-4.968c.435-.747.808-1.491,1.491-2.485.62-1.118,1.118.745.869,1.18a4.1,4.1,0,0,0-.373.747c-.5.372-1.056,2.359-1.49,2.733-.125.124-.062.31-.374.434a26.033,26.033,0,0,1-3.665,3.79c-.558.124-.621.31-1.18.558a3.7,3.7,0,0,1-1.118.808,1.589,1.589,0,0,0-.683.435.759.759,0,0,0-.808.186c-1.181.683-6.212.932-6.584-1.181-.31-1.925-.62-2.981-.061-5.093v-.249A23.646,23.646,0,0,1,736.435,83.4Z" transform="translate(-728.895 -65.258)" fill="#2e7e7a"/>
        </g>
        <g id="Сгруппировать_708" data-name="Сгруппировать 708" transform="translate(117.574 13.17)">
          <path id="Контур_907" data-name="Контур 907" d="M768.114,78.983c.063,1.552.559.993,2.858.62a5.288,5.288,0,0,0,2.981-1.554c.559-.558,1.243.125,1.553.436a6.831,6.831,0,0,1-.932,1.614,12.119,12.119,0,0,1-5.9,1.8c-1.554.372-1.677,1.18-2.235,2.422l-.249.5a7.471,7.471,0,0,1-.932,1.865c-.125.123-.249.31-.373.372l-.622.745a4,4,0,0,1-1.056,1.242l-.434.5-.622.559a.872.872,0,0,1-.559,0,3.216,3.216,0,0,0-.622-.373,1.713,1.713,0,0,1-.062-.559c-.124-.559-.31-1.056-.869-1.118a2.729,2.729,0,0,1-.622-.559,1.933,1.933,0,0,0-.744-.684,1.643,1.643,0,0,1-.186-2.173,2.444,2.444,0,0,1,.931-1.118,5.094,5.094,0,0,1,1.243-.745A13.7,13.7,0,0,1,762.9,81.9a2.4,2.4,0,0,0,.994-1.367,43.428,43.428,0,0,0,1.117-5.653V72.772a.8.8,0,0,0-.061-.374c-.062-.31-.374-.434-.559-.185a.435.435,0,0,0-.249.31,14.1,14.1,0,0,0-1.181,2.111c-.932,1.8-1.8,3.727-2.732,5.466-.684,1.3-1.306,2.485-1.865,3.851-.932,2.236-3.043,4.473-3.85,6.9a2.289,2.289,0,0,1-.684,1.118c-.31.124-.434.62-.434.993a4.422,4.422,0,0,1-.186,1.3,2.729,2.729,0,0,1-.373.622,5.807,5.807,0,0,0-.684,1.056,16.041,16.041,0,0,0-1.242,4.783,13.465,13.465,0,0,1-.249,2.235,1.355,1.355,0,0,1-.744,1.181,1.667,1.667,0,0,0-.745.932c-.063.063-.249.31-.31.31-.187,0-.25.435-.374.622h-.061c-.993.186-1.615-.559-1.988-1.74a14.975,14.975,0,0,1-.559-3.726,52.513,52.513,0,0,1,.435-8.821c.124-1.181.372-2.423.559-3.541a41.371,41.371,0,0,1,1.18-5.653q1.024-4.1,2.236-8.013c.186-.622.434-1.18.62-1.926.746-1.863,1.367-3.85,2.113-5.776a29.2,29.2,0,0,1,1.242-2.919.677.677,0,0,1,.932,0l1.491.932.061.063a7.642,7.642,0,0,1,1.677,4.348,8.558,8.558,0,0,1-.185,3.043c-.374,1.491-.809,3.107-1.368,4.659-.372.993-.744,2.235-1.117,3.354-.994,3.479.993,3.044,1.429,1.988.186-.5,1.118-1.739,1.3-2.359l2.049-4.225a6.892,6.892,0,0,1,1.12-1.988c.434-.5.869-1.118,1.366-1.615a2.216,2.216,0,0,1,1.367-.683h1.056c.559-.124,1.056.373,1.552.808a1.678,1.678,0,0,1,.621,1.18,14.094,14.094,0,0,1,.186,1.491l.249,1.8Zm-7.267,4.907a1.387,1.387,0,0,0-.62,1.366c.061.311.248.559.434.559.124-.124.31-.124.435-.248a2.335,2.335,0,0,0,.807-.747c.683-.931.932-1.925.745-1.552C761.965,83.58,761.405,83.455,760.846,83.89Z" transform="translate(-745.838 -63.702)" fill="#2e7e7a"/>
        </g>
      </g>
    </g>
  </g>
</svg>
