<svg xmlns="http://www.w3.org/2000/svg" width="175.787" height="45.813" viewBox="0 0 175.787 45.813">
  <g id="Сгруппировать_495" data-name="Сгруппировать 495" transform="translate(0)">
    <path id="Контур_818" data-name="Контур 818" d="M991.482,92.108c-6.434-.236-12.895.244-17.679-1.362-1.61-.059,1.693-2.8.131-4.29l-6.441-.235c-1.542-2.2,1.743-4.226.2-6.43s-8.022-1.008-9.588-2.5c-4.789-1.606,3.285-2.025,8.112-1.849-1.564-1.488,3.219.118,3.263-1.312.087-2.858.175-5.717-6.2-8.1-1.588-.774.088-2.858.131-4.287-19.313-.707-40.237-1.474-59.636.678-16.159,1.555-35.535-2.233-51.548-.456-4.852.537-12.809-2.617-16.137.838l4.826.177c-4.891,1.968-9.654-.354-14.5.184-.043,1.431-.065,2.144-1.7,2.8,3.219.118,8.068-.421,11.268.412l-.066,2.142c-3.242.6-8.027-1.007-11.268-.412-.022.717-.066,2.145-.088,2.86s-1.631.655-3.239.6l6.437.235-.088,2.858c-.022.717-1.63.658-3.241.6-.044,1.428-1.7,2.8-.109,3.571l4.828.177c-6.461.48-9.79,3.935-9.855,6.079,1.633-.656,1.567,1.489,3.2.832-4.893,1.967-9.81,4.649-3.394,5.6,56.265,4.208,114.294,3.47,170.67,4.1C993.008,95.025,991.438,93.537,991.482,92.108Z" transform="translate(-816.037 -61.017)" fill="#30e2d9"/>
  </g>
  <g id="Сгруппировать_496" data-name="Сгруппировать 496" transform="translate(15.742 9.933)">
    <g id="Сгруппировать_607" data-name="Сгруппировать 607" transform="translate(0 0.206)">
      <path id="Контур_819" data-name="Контур 819" d="M833.177,78.663v5.655h-3.542V69.775h5.738a5.571,5.571,0,0,1,3.936,1.306,4.138,4.138,0,0,1,1.409,3.149,4.535,4.535,0,0,1-.766,2.466,4.187,4.187,0,0,1-2.506,1.7l3.563,5.925h-4.144l-3.273-5.655Zm0-6.194v3.5h2.2a1.623,1.623,0,0,0,1.74-1.731,1.769,1.769,0,0,0-.476-1.275,1.673,1.673,0,0,0-1.264-.5Z" transform="translate(-829.635 -69.775)" fill="#fff"/>
    </g>
    <g id="Сгруппировать_608" data-name="Сгруппировать 608" transform="translate(19.577 0.164)">
      <path id="Контур_820" data-name="Контур 820" d="M855.351,69.739v2.694h-5.261v3.129h4.641v2.693h-4.641v3.377h5.261v2.693h-8.8V69.739Z" transform="translate(-846.547 -69.739)" fill="#fff"/>
    </g>
    <g id="Сгруппировать_609" data-name="Сгруппировать 609" transform="translate(37.164 0.206)">
      <path id="Контур_821" data-name="Контур 821" d="M861.74,84.318V69.775h9.468v2.694h-5.925V75.6h4.434V78.29h-4.434v6.028Z" transform="translate(-861.74 -69.775)" fill="#fff"/>
    </g>
    <g id="Сгруппировать_610" data-name="Сгруппировать 610" transform="translate(54.815 0.206)">
      <path id="Контур_822" data-name="Контур 822" d="M880.53,78.663v5.655h-3.542V69.775h5.738a5.569,5.569,0,0,1,3.936,1.306,4.134,4.134,0,0,1,1.409,3.149A4.535,4.535,0,0,1,887.3,76.7a4.184,4.184,0,0,1-2.506,1.7l3.563,5.925h-4.143l-3.274-5.655Zm0-6.194v3.5h2.2a1.625,1.625,0,0,0,1.741-1.731,1.77,1.77,0,0,0-.477-1.275,1.673,1.673,0,0,0-1.264-.5Z" transform="translate(-876.988 -69.775)" fill="#fff"/>
    </g>
    <g id="Сгруппировать_611" data-name="Сгруппировать 611" transform="translate(74.393 0.164)">
      <path id="Контур_823" data-name="Контур 823" d="M902.7,69.739v2.694h-5.262v3.129h4.641v2.693h-4.641v3.377H902.7v2.693h-8.8V69.739Z" transform="translate(-893.9 -69.739)" fill="#fff"/>
    </g>
    <g id="Сгруппировать_612" data-name="Сгруппировать 612" transform="translate(91.67 0)">
      <path id="Контур_824" data-name="Контур 824" d="M914.067,72.393a1.648,1.648,0,0,0-1.088.353,1.244,1.244,0,0,0-.424,1.015,1.462,1.462,0,0,0,.393,1.066,2.558,2.558,0,0,0,1.026.622q.63.217,1.408.414a15.8,15.8,0,0,1,1.544.477,6.82,6.82,0,0,1,1.4.693,3.051,3.051,0,0,1,1.026,1.17,3.891,3.891,0,0,1,.393,1.813,4.063,4.063,0,0,1-1.5,3.16,5.79,5.79,0,0,1-3.957,1.315,6.219,6.219,0,0,1-3.957-1.181,4.022,4.022,0,0,1-1.5-3.357H912.6a1.641,1.641,0,0,0,1.782,1.741,1.7,1.7,0,0,0,1.2-.4,1.341,1.341,0,0,0,.434-1.026,1.373,1.373,0,0,0-.394-1.015,2.723,2.723,0,0,0-1.026-.622q-.632-.227-1.409-.425a14.232,14.232,0,0,1-1.543-.486,7.681,7.681,0,0,1-1.4-.695,2.968,2.968,0,0,1-1.026-1.16,3.843,3.843,0,0,1-.394-1.792,3.973,3.973,0,0,1,1.513-3.253A5.953,5.953,0,0,1,914.2,69.6a6.256,6.256,0,0,1,3.8,1.066,4.048,4.048,0,0,1,1.513,3.366h-3.854a1.95,1.95,0,0,0-.507-1.212A1.477,1.477,0,0,0,914.067,72.393Z" transform="translate(-908.825 -69.597)" fill="#fff"/>
    </g>
    <g id="Сгруппировать_613" data-name="Сгруппировать 613" transform="translate(111.123 0.206)">
      <path id="Контур_825" data-name="Контур 825" d="M934.787,69.775h3.542V84.318h-3.542V78.29h-5.614v6.028H925.63V69.775h3.542V75.6h5.614Z" transform="translate(-925.63 -69.775)" fill="#fff"/>
    </g>
  </g>
  <g id="Сгруппировать_497" data-name="Сгруппировать 497" transform="translate(37.781 39.929)">
    <g id="Сгруппировать_615" data-name="Сгруппировать 615" transform="translate(0 0.081)">
      <path id="Контур_826" data-name="Контур 826" d="M855.189,95.58v5.753h-1.4V98.087l-1.337,3.246h-1.041l-1.335-3.246v3.246h-1.4V95.58h1.606l1.657,3.967,1.647-3.967Z" transform="translate(-848.674 -95.58)" fill="#2e7e7a"/>
    </g>
    <g id="Сгруппировать_616" data-name="Сгруппировать 616" transform="translate(12.023 0.065)">
      <path id="Контур_827" data-name="Контур 827" d="M863.256,101.335l-.319-.967h-2.065l-.321.967H859.06l2-5.769h1.705l1.992,5.769ZM861.224,99.3h1.36l-.68-2.049Z" transform="translate(-859.06 -95.566)" fill="#2e7e7a"/>
    </g>
    <g id="Сгруппировать_617" data-name="Сгруппировать 617" transform="translate(22.89 -0.001)">
      <path id="Контур_828" data-name="Контур 828" d="M869.3,100.562a3.03,3.03,0,0,1,0-4.221,2.9,2.9,0,0,1,2.1-.832,2.958,2.958,0,0,1,1.7.508,2.655,2.655,0,0,1,1.041,1.41h-1.672a1.1,1.1,0,0,0-1.049-.631,1.466,1.466,0,0,0-1.136.45,1.962,1.962,0,0,0,0,2.409,1.433,1.433,0,0,0,1.111.451,1.275,1.275,0,0,0,.815-.25,1.205,1.205,0,0,0,.421-.668h-1.622V98.123h3.13v1.066a2.8,2.8,0,0,1-.86,1.468,2.589,2.589,0,0,1-.832.531,2.729,2.729,0,0,1-1.052.206A2.9,2.9,0,0,1,869.3,100.562Z" transform="translate(-868.448 -95.509)" fill="#2e7e7a"/>
    </g>
    <g id="Сгруппировать_618" data-name="Сгруппировать 618" transform="translate(33.766 0.065)">
      <path id="Контур_829" data-name="Контур 829" d="M882.038,101.335l-.32-.967h-2.065l-.319.967h-1.491l2-5.769h1.705l1.991,5.769ZM880.005,99.3h1.361l-.681-2.049Z" transform="translate(-877.843 -95.566)" fill="#2e7e7a"/>
    </g>
    <g id="Сгруппировать_619" data-name="Сгруппировать 619" transform="translate(44.764 0.081)">
      <path id="Контур_830" data-name="Контур 830" d="M891.408,95.58v1.066l-2.451,3.621h2.451v1.066h-4.064v-1.066l2.449-3.621h-2.449V95.58Z" transform="translate(-887.344 -95.58)" fill="#2e7e7a"/>
    </g>
    <g id="Сгруппировать_620" data-name="Сгруппировать 620" transform="translate(54.672 0.081)">
      <path id="Контур_831" data-name="Контур 831" d="M895.9,101.333V95.58h1.4v5.753Z" transform="translate(-895.903 -95.58)" fill="#2e7e7a"/>
    </g>
    <g id="Сгруппировать_621" data-name="Сгруппировать 621" transform="translate(62.123 0.065)">
      <path id="Контур_832" data-name="Контур 832" d="M906.084,95.566h1.4v5.769h-1.4L903.74,97.7v3.631h-1.4V95.566h1.4l2.344,3.63Z" transform="translate(-902.339 -95.566)" fill="#2e7e7a"/>
    </g>
    <g id="Сгруппировать_622" data-name="Сгруппировать 622" transform="translate(73.318 0.065)">
      <path id="Контур_833" data-name="Контур 833" d="M915.493,95.566v1.065h-2.083V97.87h1.836v1.065h-1.836v1.335h2.083v1.066H912.01V95.566Z" transform="translate(-912.01 -95.566)" fill="#2e7e7a"/>
    </g>
  </g>
</svg>
