<svg xmlns="http://www.w3.org/2000/svg" width="101.464" height="96.878" viewBox="0 0 101.464 96.878">
  <g id="Сгруппировать_901" data-name="Сгруппировать 901" transform="translate(-717.119 -6208.192)">
    <path id="Контур_700" data-name="Контур 700" d="M335.5,178.919c-.5-.5-1.5-1.5-2-2,7.043-5.039-.989-7.03-2.74-10.289a28.024,28.024,0,0,1-11.063,7.053l-3.019,3.019c-17.706,17.707-33.384,35.337-51.6,51.674a345.677,345.677,0,0,0,33.649-31.716c.24.408.41,1.055,1.079.919-8.817,13.83-23.4,20.39-33.217,33.217l-1.99-1.99c-4.21,3.762-8.555,7.455-13.094,11.061a9.066,9.066,0,0,0-2.237,6.488c15.5-8.563,28.316-22.075,41.764-33.676-5.283,5.283-10.822,11.824-17.109,16.106-8.551,6.547-14.844,13.843-23.142,19.135-.465.269-.942.532-1.418.8.091,1.056.233,2.062.357,2.955,1,4.012,3.749,8.278,9.276,7.762l2.264-2.263a9.524,9.524,0,0,1,3.027,3.131c5.419-4.346,10.721-8.815,16.059-13.239a138.383,138.383,0,0,1,20.186-15.823c-7,5-13.623,10.381-20.186,15.823-5.112,4.674-10.115,9.568-15.256,14.354,1.024,1.356,2.135,2.38,3.939,2.015,3.013-.008,6.8-6.8,10.317-9.315,10.307-6.3,18.865-15.86,28.673-22.66,7.041-5.036,12.579-11.576,18.119-18.119,7.3-9.3,18.364-16.359,23.153-25.157C353.326,180.134,344.046,175.383,335.5,178.919Z" transform="translate(467.852 6041.566)" fill="#30e2d9"/>
    <g id="Сгруппировать_479" data-name="Сгруппировать 479" transform="translate(728.332 6231.799)">
      <path id="Контур_706" data-name="Контур 706" d="M276.574,209.247l-11.9-16.956v9.851c0,2.527.157,6.821,4.768,6.821v.285H259.4v-.285c4.357,0,4.988-4.326,4.988-6.821v-10.23L262.9,189.8c-1.894-2.493-3.126-2.462-3.946-2.526v-.252h10.072l10.736,15.5v-8.431c0-2.937-1.011-6.821-4.516-6.821v-.252h9.568v.252c-3.915,0-4.767,3.884-4.767,6.821v15.156Z" transform="translate(-258.954 -187.018)" fill="#2e7e7a"/>
    </g>
    <g id="Сгруппировать_480" data-name="Сгруппировать 480" transform="translate(755.578 6231.799)">
      <path id="Контур_707" data-name="Контур 707" d="M300.932,203.058v6.19H282.491v-.285c1.327,0,1.832-1.894,1.832-4.042V191.375c0-1.958-.442-4.1-1.832-4.1v-.252h18.03v6.473h-.284c0-6.157-8.62-6.189-8.62-6.189H290.48V197.88h2.558a3.718,3.718,0,0,0,3.726-3.726h.284v7.736h-.284a3.749,3.749,0,0,0-3.726-3.726H290.48v10.8h1.138s9.029.347,9.029-5.9Z" transform="translate(-282.49 -187.018)" fill="#2e7e7a"/>
    </g>
    <g id="Сгруппировать_481" data-name="Сгруппировать 481" transform="translate(776.732 6231.799)">
      <path id="Контур_708" data-name="Контур 708" d="M335.907,187.018v.252c-1.263,0-3.189.978-5.494,6.536l-5.525,15.441h-1.137c-2.937-6.853-4.831-11.273-6.094-14.146L312.6,209.247h-1.137c-7.956-18.6-8.367-19.419-8.367-19.419-1.073-2.526-1.515-2.495-2.336-2.558v-.252h9.851v.252c-2.021,0-.411,3.663-.411,3.663l4.768,10.831,2.526-7.042c-1.926-4.483-2.115-4.893-2.115-4.893-1.074-2.526-1.515-2.495-2.337-2.558v-.252H322.9v.252c-2.02,0-.41,3.663-.41,3.663l4.737,10.862,2.841-7.989c.79-2.241.095-6.536-3.126-6.536v-.252Z" transform="translate(-300.764 -187.018)" fill="#2e7e7a"/>
    </g>
    <g id="Сгруппировать_482" data-name="Сгруппировать 482" transform="translate(719.982 6259.17)">
      <path id="Контур_709" data-name="Контур 709" d="M286.883,210.664v.252c-1.263,0-3.189.978-5.494,6.536l-5.525,15.441h-1.137c-2.937-6.853-4.831-11.273-6.094-14.146l-5.053,14.146h-1.137c-7.956-18.6-8.367-19.419-8.367-19.419-1.073-2.526-1.515-2.495-2.336-2.558v-.252h9.851v.252c-2.021,0-.411,3.663-.411,3.663l4.768,10.83,2.526-7.042c-1.926-4.483-2.115-4.893-2.115-4.893-1.074-2.526-1.515-2.495-2.337-2.558v-.252h9.851v.252c-2.02,0-.41,3.663-.41,3.663l4.736,10.862,2.842-7.989c.789-2.241.095-6.536-3.126-6.536v-.252Z" transform="translate(-251.742 -210.664)" fill="#2e7e7a"/>
    </g>
    <g id="Сгруппировать_483" data-name="Сгруппировать 483" transform="translate(753.289 6259.17)">
      <path id="Контур_710" data-name="Контур 710" d="M291.975,210.664h.159c7.989,18.313,8.525,19.355,8.525,19.355,1.138,2.526,2.211,2.557,2.842,2.622v.252H292.45v-.252c2.526,0,.631-3.7.631-3.7l-1.011-2.179h-6.189c-.632,1.453-.064,5.874,3.726,5.874v.252h-9.094v-.252c.947-.065,2.652-.316,5.084-5.874Zm-3.189,8.714-2.81,7.1h5.967Z" transform="translate(-280.513 -210.664)" fill="#2e7e7a"/>
    </g>
    <g id="Сгруппировать_484" data-name="Сгруппировать 484" transform="translate(774.158 6259.17)">
      <path id="Контур_711" data-name="Контур 711" d="M322.918,210.664v.252c-1.358,0-3.379.978-5.841,6.536l-6.221,15.441h-.916c-8.462-18.6-8.9-19.419-8.9-19.419-1.136-2.526-1.61-2.495-2.495-2.558v-.252h10.516v.252c-2.18,0-.442,3.663-.442,3.663l4.894,10.893,3.252-8.02c.947-2.336.379-6.536-3.41-6.536v-.252Z" transform="translate(-298.541 -210.664)" fill="#2e7e7a"/>
    </g>
    <g id="Сгруппировать_485" data-name="Сгруппировать 485" transform="translate(800.143 6259.17)">
      <path id="Контур_712" data-name="Контур 712" d="M339.428,226.7v6.19H320.987v-.285c1.327,0,1.833-1.894,1.833-4.042V215.021c0-1.957-.442-4.1-1.833-4.1v-.252h18.031v6.473h-.285c0-6.157-8.621-6.189-8.621-6.189h-1.137v10.577h2.558a3.718,3.718,0,0,0,3.726-3.726h.284v7.736h-.284a3.748,3.748,0,0,0-3.726-3.726h-2.558v10.8h1.137s9.03.347,9.03-5.9Z" transform="translate(-320.987 -210.664)" fill="#2e7e7a"/>
    </g>
  </g>
</svg>
