<svg xmlns="http://www.w3.org/2000/svg" width="122.085" height="72.852" viewBox="0 0 122.085 72.852">
  <g id="Сгруппировать_905" data-name="Сгруппировать 905" transform="translate(-946.324 -6220.206)">
    <g id="Сгруппировать_902" data-name="Сгруппировать 902">
      <g id="Сгруппировать_486" data-name="Сгруппировать 486" transform="translate(947.045 6220.205)">
        <g id="Сгруппировать_489" data-name="Сгруппировать 489" transform="translate(51.691 34.648)">
          <path id="Контур_713" data-name="Контур 713" d="M494.705,211.538c.015-.843.71-2.267,1.335-1.831-.625-.436-.623-.432-.506-1.632.416.292.817-.6,1.11-1.14-.579.233-1,.794-1.851,1.9.243,1.665-2.571,2.958-2.218,4.59C493.27,212.864,494.369,212.577,494.705,211.538Z" transform="translate(-492.545 -206.934)" fill="#30e2d9"/>
        </g>
        <g id="Сгруппировать_490" data-name="Сгруппировать 490" transform="translate(58.799 35.894)">
          <path id="Контур_714" data-name="Контур 714" d="M499.624,208.331l-.155-.321-.784,2.129C498.717,209.626,499.285,208.2,499.624,208.331Z" transform="translate(-498.685 -208.01)" fill="#30e2d9"/>
        </g>
        <g id="Сгруппировать_491" data-name="Сгруппировать 491" transform="translate(61.959 26.451)">
          <path id="Контур_715" data-name="Контур 715" d="M502.352,203.139c.355.468,1.241-.3,1.655,0-.955-.574.769-1.607,1.2-2.482l-.493-.8c-1.049.434-2.146,2.58-3.3,4.241Z" transform="translate(-501.414 -199.853)" fill="#30e2d9"/>
        </g>
        <g id="Сгруппировать_492" data-name="Сгруппировать 492" transform="translate(63.954 27.727)">
          <path id="Контур_716" data-name="Контур 716" d="M503.608,201.791l-.108-.836C503.328,201.481,502.721,202.558,503.608,201.791Z" transform="translate(-503.137 -200.955)" fill="#30e2d9"/>
        </g>
        <g id="Сгруппировать_493" data-name="Сгруппировать 493" transform="translate(60.871 28.003)">
          <path id="Контур_717" data-name="Контур 717" d="M500.753,201.25c-.93,1.3.83-.6.11.84C501.031,201.559,501.342,201.016,500.753,201.25Z" transform="translate(-500.475 -201.194)" fill="#30e2d9"/>
        </g>
        <g id="Сгруппировать_494" data-name="Сгруппировать 494" transform="translate(64.731 23.483)">
          <path id="Контур_718" data-name="Контур 718" d="M505.381,197.289q-.806,1.5-1.572,3.018l1.088-.947Z" transform="translate(-503.809 -197.289)" fill="#30e2d9"/>
        </g>
        <g id="Сгруппировать_495" data-name="Сгруппировать 495" transform="translate(65.977 20.082)">
          <path id="Контур_719" data-name="Контур 719" d="M506.814,198.653c-.253.354-.905.74-.791.057,1.233-.6.9-1.748,2.019-2.318l-.389,1.031c.659.3.714-2.23,1.709-1.422.154-1.682-1.528.228-.9-1.651a17.3,17.3,0,0,1-2.916,3.547,5.981,5.981,0,0,0,1.049-.749c-.589.882-1.087,2.273-1.707,3.34C505.931,200.395,505.84,199.231,506.814,198.653Z" transform="translate(-504.885 -194.351)" fill="#30e2d9"/>
        </g>
        <g id="Сгруппировать_496" data-name="Сгруппировать 496" transform="translate(70.489 17.173)">
          <path id="Контур_720" data-name="Контур 720" d="M509.49,194.867c.752-.847,1.845-2.191,1.313-3.029-1.292.5-.786,1.187-.813,1.851-.34.169-1.094,1.022-1.207.351C509.047,194.033,508.894,195.053,509.49,194.867Z" transform="translate(-508.783 -191.838)" fill="#30e2d9"/>
        </g>
        <g id="Сгруппировать_497" data-name="Сгруппировать 497" transform="translate(73.131 15.689)">
          <path id="Контур_721" data-name="Контур 721" d="M512.051,191.74l-.11-1.184-.237.5-.5-.35a1.781,1.781,0,0,1-.138,2.012C511.8,192.568,511.5,192.059,512.051,191.74Z" transform="translate(-511.065 -190.556)" fill="#30e2d9"/>
        </g>
        <g id="Сгруппировать_498" data-name="Сгруппировать 498" transform="translate(69.986 12.224)">
          <path id="Контур_722" data-name="Контур 722" d="M509.466,189.257c.828-.341.972-.838,1.412-1.694-.822,1-2.017,2.382-1.991,2.9l-.051-.172a8.855,8.855,0,0,0-.487,2.234C508.673,191.131,510.881,189.967,509.466,189.257Z" transform="translate(-508.349 -187.563)" fill="#30e2d9"/>
        </g>
        <g id="Сгруппировать_499" data-name="Сгруппировать 499" transform="translate(69.986 14.089)">
          <path id="Контур_723" data-name="Контур 723" d="M508.349,190.21l.228-1.036Z" transform="translate(-508.349 -189.174)" fill="#30e2d9"/>
        </g>
        <g id="Сгруппировать_500" data-name="Сгруппировать 500" transform="translate(74.918 14.147)">
          <path id="Контур_724" data-name="Контур 724" d="M513.978,189.224c-.468.346-.911.722-1.369,1.085l.476-.139C513.383,189.855,513.667,189.526,513.978,189.224Z" transform="translate(-512.609 -189.224)" fill="#30e2d9"/>
        </g>
        <g id="Сгруппировать_501" data-name="Сгруппировать 501" transform="translate(71.782 13.059)">
          <path id="Контур_725" data-name="Контур 725" d="M511.1,189.185c1.053-.985-1.027.137-.1-.859.171-.34-1.321,1.5-1.065,1.859C510.267,190.015,510.459,188.819,511.1,189.185Z" transform="translate(-509.9 -188.284)" fill="#30e2d9"/>
        </g>
        <g id="Сгруппировать_502" data-name="Сгруппировать 502" transform="translate(77.12 11.931)">
          <path id="Контур_726" data-name="Контур 726" d="M514.511,188.767c.178-.484.348-.984.552-1.457C514.859,187.783,514.689,188.284,514.511,188.767Z" transform="translate(-514.511 -187.31)" fill="#30e2d9"/>
        </g>
        <g id="Сгруппировать_503" data-name="Сгруппировать 503" transform="translate(78.109 7.783)">
          <path id="Контур_727" data-name="Контур 727" d="M517.191,187.187l-.094-.519a11.165,11.165,0,0,0,1.793-1.344,2.624,2.624,0,0,1,1.888-.726c-.518-.307-.233-1.285-1.294-.677.034.357-.309.616-.036.854-.471.229-.64-.153-1.012-.064-.383.935-1.658,1.563-1.893,2.367.185-.314.328-.281.553-.411-.579,1.575-2.077.377-1.659,1.772C515.554,187.789,516.807,187.789,517.191,187.187Z" transform="translate(-515.365 -183.726)" fill="#30e2d9"/>
        </g>
        <g id="Сгруппировать_504" data-name="Сгруппировать 504" transform="translate(74.642 8.096)">
          <path id="Контур_728" data-name="Контур 728" d="M515.494,184.925l-1.041.743c-.128-.715,1.109-1.087.909-1.628-.3-.228-1.367.522-1.185.021.845,1.152-1.226,1.265.344,1.96-1.059,1.257-.987-.291-2.15,1.008l.2.875C513.632,186.254,514.356,186.519,515.494,184.925Z" transform="translate(-512.371 -183.997)" fill="#30e2d9"/>
        </g>
        <g id="Сгруппировать_505" data-name="Сгруппировать 505" transform="translate(79.857 1.167)">
          <path id="Контур_729" data-name="Контур 729" d="M518.717,182.937l.778.027-.662-.35a4.557,4.557,0,0,1,1.785-.807,8.306,8.306,0,0,1,1.8-.1c1.131,0,2.127.193,2.755-.354a2.862,2.862,0,0,1,1.239-.909,6.668,6.668,0,0,1,1.442-.4c.5-.053,1.014-.083,1.513-.146q.373-.047.741-.126a5.019,5.019,0,0,0,.742-.16c.849-.776-1.028-.137-1.218-.4-.019-1.2,1.115.335,1.353-.676-.023-.412-.609-.5-1.332-.519a12.861,12.861,0,0,1-2.081.071c-.755.358-.634.638-.7,1.147-.352-.346-1.178-.154-1.559-.487a4.247,4.247,0,0,1-1.955,1,2.9,2.9,0,0,0-1.828,1.136c-.773-.251,1.021-.763.493-.55l-.78.494.135.035a3.014,3.014,0,0,1-.788.8,6.036,6.036,0,0,1-1.056.661,9.831,9.831,0,0,1-1.966.721c.629-.222,1.272-.073.81.532l-.916-.2c-.2.61-.419,1.19-.588,1.8C517.374,183.866,519.317,184.136,518.717,182.937Z" transform="translate(-516.876 -178.011)" fill="#30e2d9"/>
        </g>
        <g id="Сгруппировать_506" data-name="Сгруппировать 506" transform="translate(78.52 6.159)">
          <path id="Контур_730" data-name="Контур 730" d="M516.7,182.323c-1.76.913.831.668-.982,1.768l.813-.748.851-.708Z" transform="translate(-515.721 -182.323)" fill="#30e2d9"/>
        </g>
        <g id="Сгруппировать_507" data-name="Сгруппировать 507" transform="translate(88.011 2.672)">
          <path id="Контур_731" data-name="Контур 731" d="M524.131,179.4l1.057.094a.777.777,0,0,0-1.088.113C523.878,179.841,523.831,180,524.131,179.4Z" transform="translate(-523.92 -179.311)" fill="#30e2d9"/>
        </g>
        <g id="Сгруппировать_508" data-name="Сгруппировать 508" transform="translate(91.28 1.521)">
          <path id="Контур_732" data-name="Контур 732" d="M526.922,178.317l-.178,1.025.665-.761Z" transform="translate(-526.743 -178.317)" fill="#30e2d9"/>
        </g>
        <g id="Сгруппировать_509" data-name="Сгруппировать 509" transform="translate(93.671 1.156)">
          <path id="Контур_733" data-name="Контур 733" d="M529.875,178.654c.578-.614-.3-.814-1.066-.519C529.529,178.008,529.972,178.317,529.875,178.654Z" transform="translate(-528.809 -178.001)" fill="#30e2d9"/>
        </g>
        <g id="Сгруппировать_510" data-name="Сгруппировать 510" transform="translate(99.307 3.042)">
          <path id="Контур_734" data-name="Контур 734" d="M534.1,179.631c-.713.035-.392.078-.028.219.368.174.76.45.269.85C534.513,180.314,535.248,179.813,534.1,179.631Z" transform="translate(-533.678 -179.631)" fill="#30e2d9"/>
        </g>
        <g id="Сгруппировать_511" data-name="Сгруппировать 511" transform="translate(103.225 5.271)">
          <path id="Контур_735" data-name="Контур 735" d="M537.729,181.892c-.477.061-.637-.107-.667-.336A.87.87,0,0,1,537.729,181.892Z" transform="translate(-537.062 -181.556)" fill="#30e2d9"/>
        </g>
        <g id="Сгруппировать_512" data-name="Сгруппировать 512" transform="translate(86.321 6.002)">
          <path id="Контур_736" data-name="Контур 736" d="M522.918,182.188a2.712,2.712,0,0,1-.458.251Z" transform="translate(-522.46 -182.188)" fill="#30e2d9"/>
        </g>
        <g id="Сгруппировать_513" data-name="Сгруппировать 513" transform="translate(86.78 5.841)">
          <path id="Контур_737" data-name="Контур 737" d="M523.156,182.049l-.3.161A1.983,1.983,0,0,1,523.156,182.049Z" transform="translate(-522.856 -182.049)" fill="#30e2d9"/>
        </g>
        <g id="Сгруппировать_514" data-name="Сгруппировать 514" transform="translate(97.49 4.423)">
          <path id="Контур_738" data-name="Контур 738" d="M532.227,180.895l0,0a1.172,1.172,0,0,1-.115-.073Z" transform="translate(-532.108 -180.824)" fill="#30e2d9"/>
        </g>
        <g id="Сгруппировать_515" data-name="Сгруппировать 515" transform="translate(62.144 32.666)">
          <path id="Контур_739" data-name="Контур 739" d="M501.909,205.222a3.532,3.532,0,0,1-.335.632l.325-.629Z" transform="translate(-501.574 -205.222)" fill="#30e2d9"/>
        </g>
        <g id="Сгруппировать_516" data-name="Сгруппировать 516" transform="translate(60.956 30.341)">
          <path id="Контур_740" data-name="Контур 740" d="M500.548,205.549c.176-1.383,1.893-.391,2.637-2.336-.337.762-.722,1.538-1.124,2.329C500.658,206.034,502.133,204.514,500.548,205.549Z" transform="translate(-500.548 -203.213)" fill="#30e2d9"/>
        </g>
        <g id="Сгруппировать_517" data-name="Сгруппировать 517" transform="translate(69.795 17.809)">
          <path id="Контур_741" data-name="Контур 741" d="M508.184,192.522c.006-.028.019-.045.023-.074C508.26,192.33,508.243,192.4,508.184,192.522Z" transform="translate(-508.184 -192.387)" fill="#30e2d9"/>
        </g>
        <g id="Сгруппировать_518" data-name="Сгруппировать 518" transform="translate(21.259 70.059)">
          <path id="Контур_742" data-name="Контур 742" d="M467.413,237.524l.018.254-1.176-.217Z" transform="translate(-466.255 -237.524)" fill="#30e2d9"/>
        </g>
        <g id="Сгруппировать_519" data-name="Сгруппировать 519" transform="translate(12.775 70.215)">
          <path id="Контур_743" data-name="Контур 743" d="M468.783,237.944c.674.081,1.35.1,2.041.153a26.088,26.088,0,0,1-11.9-.159l.463-.23c0-.064.137-.059.392-.024.259.02.631.072,1.079.147.448.059.965.2,1.533.243l1.775.179C466.592,238.4,468.983,238.113,468.783,237.944Z" transform="translate(-458.927 -237.658)" fill="#30e2d9"/>
        </g>
        <g id="Сгруппировать_520" data-name="Сгруппировать 520" transform="translate(23.131 69.021)">
          <path id="Контур_744" data-name="Контур 744" d="M467.873,237.632c.913-1.234,1.917.094,3.075-1a14.115,14.115,0,0,1-1.041.965,1.7,1.7,0,0,1-1.19.316Z" transform="translate(-467.873 -236.627)" fill="#30e2d9"/>
        </g>
        <g id="Сгруппировать_521" data-name="Сгруппировать 521" transform="translate(26.336 66.707)">
          <path id="Контур_745" data-name="Контур 745" d="M470.641,235.188c.626.082,1.127-.617,1.485-.556C472.195,235.447,471.148,235.2,470.641,235.188Z" transform="translate(-470.641 -234.629)" fill="#30e2d9"/>
        </g>
        <g id="Сгруппировать_522" data-name="Сгруппировать 522" transform="translate(26.809 63.808)">
          <path id="Контур_746" data-name="Контур 746" d="M471.05,232.207a.792.792,0,0,1,.223-.083,1.521,1.521,0,0,0-.182.222Z" transform="translate(-471.05 -232.124)" fill="#30e2d9"/>
        </g>
        <g id="Сгруппировать_523" data-name="Сгруппировать 523" transform="translate(26.787 64.03)">
          <path id="Контур_747" data-name="Контур 747" d="M471.095,232.316l.1.347C470.992,232.586,471,232.462,471.095,232.316Z" transform="translate(-471.031 -232.316)" fill="#30e2d9"/>
        </g>
        <g id="Сгруппировать_524" data-name="Сгруппировать 524" transform="translate(27.033 62.724)">
          <path id="Контур_748" data-name="Контур 748" d="M471.243,232.272a2.212,2.212,0,0,0,.426-.551l-.226.019c.256-.17.617-.666.823-.528-.556.175-.472.417-.306.9l.918-.325C473.175,232.953,472.075,232.1,471.243,232.272Z" transform="translate(-471.243 -231.187)" fill="#30e2d9"/>
        </g>
        <g id="Сгруппировать_525" data-name="Сгруппировать 525" transform="translate(28.939 62.364)">
          <path id="Контур_749" data-name="Контур 749" d="M473.675,230.877c-.184.374-.4.7-.614,1.046C472.536,231.411,473.358,231.068,473.675,230.877Z" transform="translate(-472.89 -230.877)" fill="#30e2d9"/>
        </g>
        <g id="Сгруппировать_526" data-name="Сгруппировать 526" transform="translate(30.598 62.376)">
          <path id="Контур_750" data-name="Контур 750" d="M475.125,230.887c-.112.282-1.033.686-.347.684-.082.2-.27.263-.455.357C474.853,231.465,473.906,231.039,475.125,230.887Z" transform="translate(-474.323 -230.887)" fill="#30e2d9"/>
        </g>
        <g id="Сгруппировать_527" data-name="Сгруппировать 527" transform="translate(30.354 63.417)">
          <path id="Контур_751" data-name="Контур 751" d="M474.356,231.786a1.15,1.15,0,0,1-.244.167A.925.925,0,0,1,474.356,231.786Z" transform="translate(-474.112 -231.786)" fill="#30e2d9"/>
        </g>
        <g id="Сгруппировать_528" data-name="Сгруппировать 528" transform="translate(33.547 61.721)">
          <path id="Контур_752" data-name="Контур 752" d="M476.871,230.535a3.623,3.623,0,0,0,.335-.214c-.094.068-.171.144-.248.207Z" transform="translate(-476.871 -230.321)" fill="#30e2d9"/>
        </g>
        <g id="Сгруппировать_529" data-name="Сгруппировать 529" transform="translate(0 15.657)">
          <path id="Контур_753" data-name="Контур 753" d="M447.891,238.84a24.644,24.644,0,0,0,1.631,2.14,11.113,11.113,0,0,0,1.163.993,7.682,7.682,0,0,0,1.5.94c.468-.727.975.384,1.6-.289-.531-.332-.293-.189.339.185.16.09.337.208.545.313l.693.315c.494.216,1.033.476,1.59.689,2.27.824,4.671,1.093,3.788.671l-.664.222q.42-.349.818-.7a15.128,15.128,0,0,0,1.7.895,1.88,1.88,0,0,0,1.592.186c.022.037-.112.053-.365.052s-.618-.073-1.064-.141-.972-.138-1.522-.284-1.134-.324-1.72-.49-1.134-.439-1.663-.637l-.756-.3-.642-.329c-.788-.4-1.3-.642-1.246-.542-.062-.331.681-.148,1.8.285.561.215,1.27.385,2.006.639a8.677,8.677,0,0,0,1.169.307l1.227.282c.832.157,1.687.24,2.482.354l2.225.076a7.549,7.549,0,0,0,2.307-.3l.182.536a13.3,13.3,0,0,0,2.085-1.165,11.817,11.817,0,0,1,1.756-1.127l.443.579c-1.036-.006-1.215.46-2.217.937a8.178,8.178,0,0,1,1.929-.257,5.037,5.037,0,0,0,1.592-.318c-.277-.82-1.244-.116.293-1.011.291.112.227.467.267.723s.2.44.925.085a1.835,1.835,0,0,0,1.45-.968,2.162,2.162,0,0,1,1.1-1.209l-1.121.133a3.854,3.854,0,0,1,2.166-.707c-.612.262-2.018,1.345-1.66,2.147.576-.463,2.165-.763,2.686-1.129l-.068.717c.877.179.836-.756,1.861-.72.531-.729-.86-.5-.589-.948a2.868,2.868,0,0,0,2.007-1.089c-.52-.427-.851-.11-1.255.258s-.873.8-1.614.472a13.728,13.728,0,0,0,1.367-.538c.057-.774-.431-.467-.943-.107-.527.341-1.109.7-1.136.152.163-.811.783-.786,1.376-.859.595-.056,1.191-.157,1.139-1.108-.728.079-2.459,1.139-2.471.582.853.056.824-1,1.542-1.632.436-.047.87-.135,1.314-.206.182-.62-.159-.384-.627-.367a4.569,4.569,0,0,0,1.411-.641c.465-.328.942-.723,1.439-1.127a14.957,14.957,0,0,1,3.234-2.328c.962-1.18-.254-.528-.079-1.317,1.1-.047,1.6-1.447,2.149-2.076.207-.152-.06-.987-.448-1.014-.338.627-.685,1.251-1.055,1.853a.821.821,0,0,0-1.353,0c.706.333.044.71-.678,1.109-.713.414-1.462.88-.962,1.537l-.491-.582c-.528.684-1.041,1.413-1.609,2.062l.124.032c-.076-.1-.416.338-.906.888a6.093,6.093,0,0,1-1.841,1.415c.192-.442,2.271-1.57.656-1.441.572-.925,2.444-1.56,3.661-3.1l-.624-.134c.971-1.856,3.516-3.072,4.894-4.946l.075.97c.743-.414,1.859-.872,1.893-1.848-.61.791-.587.139-.706-.189.559-1.257,2.111-2.549,2.995-4.209,0,0,.067.161.2.16.278-.6.534-1.224.8-1.832a3.235,3.235,0,0,1,1.859-.921c.117-.34.612-1.037.088-1a1.1,1.1,0,0,0-.308.381c-.071-1.258.587-.439.9-1.749,0,1.169.931.26,1.413.722.586-1.388-.894-.761-1.042-1.083,1.309-1.27,1.9-1.17,3-2.615-.282-.307-.931.927-1.4.806.372-.372.667-.9.59-1.06l-.873.752a13.416,13.416,0,0,0,3.372-4.733l-.262.03.718-1.1.385.8c.215-.7,1.19-.991.882-1.633l-.185.192.271-.881.144,1.171c.875-.78.4-2.945,1.522-4.449,1.07.214-1.428,2.9-.438,3.809.507-.4,1.253-1.173,1.156-1.675-.34-.129-.582.242-.825.614.287-1.742,2.535-3.2,2.144-4.7l-1.033.8c.682-1.279,2.337-1.288,1.98-2.107l.464,1.663c.266-1.567,1.417-3.055,1.808-4.461-.608-.462-1.115,1.65-1.176,1.485l-.088-.853c1.594-1.52.726-.247,2.592-2.117l-.4-.315c1.126-.257,1.324-3.025,1.892-1.507l-.675.385.527.311,1.49-2.664c.175.51.984-.719,1.213-.037l.272-1.213c.991.155-.469,2.247-.012,2.741.336.211.618-.221.733-.454-.313,1.424-1.885,1.033-2.7,2.078l.059.854-.593-.476a2.31,2.31,0,0,0,.061,1.53c-1.6.455-1.378,2.312-2.645,3.791.544-1.584-1.18.454-1.192.116-.507.736-.587,3.3-1.766,3.429-.585.238.132-1.207-.677-.262-.359.725-.321,1.4.264,1.162a58.168,58.168,0,0,1-3.057,4.951l-.177-.658a3.189,3.189,0,0,0-.921,2.988c-.263.031-.188.19-.339-.128-1.534.842-.183,2.221-1.726,4.237.675.271,1.353-.646,1.5-1.506l.567.615a24.564,24.564,0,0,0,2.935-5.766l.068,1.011c1.741-.719-.3-1.493,1.519-2.05.328-1.057-.767.431-.626-.434.6-.515,1.081.912,1.8-.127-2.2,4.222-5.1,8.8-7.831,13,.069.163.264-.024.458-.21-.037,1.02-2.638,4.027-5.243,6.789-2.584,2.785-5.213,5.255-4.62,6.155-.4-.03-.079-.862-.8-.059.04.176-.009.517.388.548a13.468,13.468,0,0,0-3.733,2.831,13.827,13.827,0,0,1-4.125,2.955c.265.25-.226.839-.108,1.048a3.317,3.317,0,0,0-2.011.849,4.608,4.608,0,0,1-1.879.911l.5.2-.766.4-.794.344c-.531.226-1.057.465-1.593.677-.041.182.4.015.675-.05a.686.686,0,0,1-1.152-.22l-1.17,1.344c-2.407-.051-4.769.723-7.438,1.137a14.409,14.409,0,0,1-8.1-.607,3.816,3.816,0,0,1-1.412.394,4.232,4.232,0,0,1-.794-.023,7.825,7.825,0,0,1-.924-.259l.583.464c-1.584,0,.047-.363-1.215-.565-.97.082-.664.879.589.963.6.5.1.563-.467.517-.557-.237-1.107-.475-1.64-.732-.515-.3-1.021-.6-1.512-.912l-.728-.47c-.234-.164-.449-.357-.669-.536q-.653-.547-1.261-1.107a19.682,19.682,0,0,1-2.032-2.459A19.991,19.991,0,0,1,447.891,238.84Z" transform="translate(-447.891 -190.528)" fill="#30e2d9"/>
        </g>
        <g id="Сгруппировать_530" data-name="Сгруппировать 530" transform="translate(85.141 0.001)">
          <path id="Контур_754" data-name="Контур 754" d="M548.515,189.019c.028-.469,1.045.758,1.067-.3a4.452,4.452,0,0,0-.387-1.06,9.313,9.313,0,0,0-.711-.959c-.134-.159-.272-.319-.418-.478l-.5-.41c-.346-.267-.685-.564-1.063-.811-1.523-1-3.241-1.692-4.673-2.68a6.824,6.824,0,0,0-1.728-1.244,1,1,0,0,0-.046.394c-.453-.1-1.067-.116-1.669-.2a7.353,7.353,0,0,1-1.679-.291c-.273.138-.464.683.036.567a2.71,2.71,0,0,1-1.848-.237c-.549-.233-1.05-.484-1.426-.191.726.26-.615.62.232.789-1.423.3-1.628-1.7-2.913-1.628-.039.167-.079.333.176.323a2.527,2.527,0,0,0-1.274-.015,11.178,11.178,0,0,0-1.322.471c-.851.3-1.528.6-1.858-.007l-.3.741c-.732-.163-.741-.553-1.743-.235-.506.5.25.442.124.741-.249-.183-.747-.013-1.322.166a3.514,3.514,0,0,1-1.761.335c-.25-.353.229-.307.794-.3a3.087,3.087,0,0,0,.843-.079.705.705,0,0,0,.564-.454c-.058-.163-.188-.153-.348-.093a13.625,13.625,0,0,1,1.486-.572,10.867,10.867,0,0,1,1.5-.294,16.767,16.767,0,0,1,2.85-.133c.905,0,1.783.108,2.6.041a8.005,8.005,0,0,0,2.44-.318c.77.566,1.27-.032,1.6-.648-.6-.235-2.456-.728-2.348.523l-1.16-.623c-.394.116-.6-1.085-.816-1.255.8.027,1.572-1.281.388-1.553,1.1-.227.99.436.872,1.079s-.249,1.268.625.986l.171-.905c-.291.473,1.316.786,1.889.461l-.253-.159a35.213,35.213,0,0,1,8.1,1.145,22.555,22.555,0,0,1,7.712,3.795,1.631,1.631,0,0,0,.328,1.412,7.385,7.385,0,0,0,1.1.9,5.825,5.825,0,0,1,1.116.9,1.285,1.285,0,0,1,.182,1.28c.576.318.143-1.143,1.014-.35a.475.475,0,0,1-.153.822l.442.335a4.111,4.111,0,0,1-2.808,1.126,6,6,0,0,1-1.717-.222c-.15-.041-.3-.089-.454-.139s-.335-.083-.5-.133A10.662,10.662,0,0,1,548.515,189.019Z" transform="translate(-521.44 -177.004)" fill="#30e2d9"/>
        </g>
      </g>
      <g id="Сгруппировать_487" data-name="Сгруппировать 487" transform="translate(946.324 6239.088)">
        <g id="Сгруппировать_532" data-name="Сгруппировать 532" transform="translate(0 5.735)">
          <path id="Контур_755" data-name="Контур 755" d="M452.841,198.465v2.673a5.949,5.949,0,0,1,5.508-2.868,6.6,6.6,0,0,1,5.068,2.086,8,8,0,0,1,1.939,5.671V216.65h-5.54v-9.875a3.754,3.754,0,0,0-.93-2.722,3.886,3.886,0,0,0-5.117,0,3.759,3.759,0,0,0-.928,2.722v9.875h-5.573V198.465Z" transform="translate(-447.268 -198.269)" fill="#2e7e7a"/>
        </g>
        <g id="Сгруппировать_533" data-name="Сгруппировать 533" transform="translate(21.15 5.735)">
          <path id="Контур_756" data-name="Контур 756" d="M467.951,214.272a10.48,10.48,0,0,1,0-13.378,7.689,7.689,0,0,1,5.883-2.624,6.175,6.175,0,0,1,5.329,2.574v-2.379h5.574V216.65h-5.574v-2.639a6.3,6.3,0,0,1-5.411,2.867A7.62,7.62,0,0,1,467.951,214.272Zm10.005-3.389a4.424,4.424,0,0,0,1.206-3.325,4.37,4.37,0,0,0-1.206-3.308,3.877,3.877,0,0,0-5.54.016,4.429,4.429,0,0,0-1.206,3.325,4.372,4.372,0,0,0,1.206,3.308,3.877,3.877,0,0,0,5.54-.016Z" transform="translate(-465.539 -198.269)" fill="#2e7e7a"/>
        </g>
        <g id="Сгруппировать_534" data-name="Сгруппировать 534" transform="translate(43.671 1.499)">
          <path id="Контур_757" data-name="Контур 757" d="M493.957,212.5h1.988v4.725H493.11a7.381,7.381,0,0,1-4.743-1.352q-1.679-1.353-1.678-4.644V203.67h-1.695v-4.628h1.695v-4.432h5.574v4.432h3.65v4.628h-3.65v7.561Q492.263,212.5,493.957,212.5Z" transform="translate(-484.994 -194.609)" fill="#2e7e7a"/>
        </g>
        <g id="Сгруппировать_535" data-name="Сгруппировать 535" transform="translate(57.947 5.931)">
          <path id="Контур_758" data-name="Контур 758" d="M509.841,198.438h5.573v18.186h-5.573v-2.673a5.949,5.949,0,0,1-5.509,2.869,6.593,6.593,0,0,1-5.067-2.086,8,8,0,0,1-1.939-5.671V198.438h5.54v9.875a3.754,3.754,0,0,0,.928,2.72,3.883,3.883,0,0,0,5.117,0,3.75,3.75,0,0,0,.93-2.72Z" transform="translate(-497.326 -198.438)" fill="#2e7e7a"/>
        </g>
        <g id="Сгруппировать_536" data-name="Сгруппировать 536" transform="translate(80.597 5.735)">
          <path id="Контур_759" data-name="Контур 759" d="M522.465,198.465v3.389q1.957-3.584,5.215-3.585v5.671h-1.368a4.052,4.052,0,0,0-2.885.912,4.3,4.3,0,0,0-.962,3.194v8.6h-5.573V198.465Z" transform="translate(-516.892 -198.269)" fill="#2e7e7a"/>
        </g>
        <g id="Сгруппировать_537" data-name="Сгруппировать 537" transform="translate(92.754 5.735)">
          <path id="Контур_760" data-name="Контур 760" d="M529.805,214.272a10.484,10.484,0,0,1,0-13.378,7.691,7.691,0,0,1,5.883-2.624,6.174,6.174,0,0,1,5.328,2.574v-2.379h5.574V216.65h-5.574v-2.639a6.3,6.3,0,0,1-5.409,2.867A7.624,7.624,0,0,1,529.805,214.272Zm10.005-3.389a4.424,4.424,0,0,0,1.206-3.325,4.37,4.37,0,0,0-1.206-3.308,3.877,3.877,0,0,0-5.54.016,4.428,4.428,0,0,0-1.205,3.325,4.372,4.372,0,0,0,1.205,3.308,3.877,3.877,0,0,0,5.54-.016Z" transform="translate(-527.394 -198.269)" fill="#2e7e7a"/>
        </g>
        <g id="Сгруппировать_538" data-name="Сгруппировать 538" transform="translate(116.512 0)">
          <path id="Контур_761" data-name="Контур 761" d="M547.918,217.431V193.314h5.573v24.117Z" transform="translate(-547.918 -193.314)" fill="#2e7e7a"/>
        </g>
      </g>
      <g id="Сгруппировать_488" data-name="Сгруппировать 488" transform="translate(946.57 6266.379)">
        <g id="Сгруппировать_540" data-name="Сгруппировать 540" transform="translate(0.001 0.01)">
          <path id="Контур_762" data-name="Контур 762" d="M453.24,216.9v5.469h-.9v-3.746l-1.668,3.746h-.622l-1.676-3.746v3.746h-.9V216.9h.968l1.92,4.289,1.912-4.289Z" transform="translate(-447.48 -216.899)" fill="#2e7e7a"/>
        </g>
        <g id="Сгруппировать_541" data-name="Сгруппировать 541" transform="translate(11.978 0.01)">
          <path id="Контур_763" data-name="Контур 763" d="M457.827,222.368V216.9h.9v5.469Z" transform="translate(-457.827 -216.899)" fill="#2e7e7a"/>
        </g>
        <g id="Сгруппировать_542" data-name="Сгруппировать 542" transform="translate(19.093 0)">
          <path id="Контур_764" data-name="Контур 764" d="M467.57,216.891h.9v5.478h-.9l-2.7-4.084v4.084h-.9v-5.478h.9l2.7,4.077Z" transform="translate(-463.973 -216.891)" fill="#2e7e7a"/>
        </g>
        <g id="Сгруппировать_543" data-name="Сгруппировать 543" transform="translate(29.803 0)">
          <path id="Контур_765" data-name="Контур 765" d="M476.249,216.891v.7h-2.125v1.66h1.888v.692h-1.888v1.724h2.125v.7h-3.024v-5.478Z" transform="translate(-473.225 -216.891)" fill="#2e7e7a"/>
        </g>
        <g id="Сгруппировать_544" data-name="Сгруппировать 544" transform="translate(38.964 0.01)">
          <path id="Контур_766" data-name="Контур 766" d="M482.036,220.148v2.219h-.9V216.9h1.889a2.047,2.047,0,0,1,1.432.46,1.516,1.516,0,0,1,.5,1.169,1.546,1.546,0,0,1-1.362,1.565l1.448,2.275h-1.094l-1.369-2.219Zm0-2.55v1.85h.992a1.061,1.061,0,0,0,.764-.244,1.048,1.048,0,0,0,0-1.361,1.066,1.066,0,0,0-.764-.244Z" transform="translate(-481.139 -216.899)" fill="#2e7e7a"/>
        </g>
        <g id="Сгруппировать_545" data-name="Сгруппировать 545" transform="translate(48.653 0)">
          <path id="Контур_767" data-name="Контур 767" d="M493.522,222.369l-.394-1.117h-2.29l-.394,1.117h-.936l1.959-5.478h1.04l1.96,5.478Zm-2.44-1.817h1.8l-.9-2.573Z" transform="translate(-489.509 -216.891)" fill="#2e7e7a"/>
        </g>
        <g id="Сгруппировать_546" data-name="Сгруппировать 546" transform="translate(59.498 0.01)">
          <path id="Контур_768" data-name="Контур 768" d="M498.877,216.9h.9v4.784h1.85v.684h-2.747Z" transform="translate(-498.877 -216.899)" fill="#2e7e7a"/>
        </g>
        <g id="Сгруппировать_547" data-name="Сгруппировать 547" transform="translate(74.985 0.01)">
          <path id="Контур_769" data-name="Контур 769" d="M518.859,216.9h.96l-1.621,5.469h-1.015l-1.15-4.14-1.219,4.14-1.007.008-1.551-5.477h.953l1.133,4.453,1.227-4.453h1.007l1.141,4.43Z" transform="translate(-512.256 -216.899)" fill="#2e7e7a"/>
        </g>
        <g id="Сгруппировать_548" data-name="Сгруппировать 548" transform="translate(88.003 0)">
          <path id="Контур_770" data-name="Контур 770" d="M527.516,222.369l-.393-1.117h-2.291l-.394,1.117H523.5l1.96-5.478H526.5l1.96,5.478Zm-2.44-1.817h1.8l-.9-2.573Z" transform="translate(-523.501 -216.891)" fill="#2e7e7a"/>
        </g>
        <g id="Сгруппировать_549" data-name="Сгруппировать 549" transform="translate(98.565 0.01)">
          <path id="Контур_771" data-name="Контур 771" d="M532.625,217.6v-.7h3.817v.7h-1.455v4.769h-.9V217.6Z" transform="translate(-532.625 -216.899)" fill="#2e7e7a"/>
        </g>
        <g id="Сгруппировать_550" data-name="Сгруппировать 550" transform="translate(108.323 0)">
          <path id="Контур_772" data-name="Контур 772" d="M544.078,216.891v.7h-2.125v1.66h1.889v.692h-1.889v1.724h2.125v.7h-3.022v-5.478Z" transform="translate(-541.055 -216.891)" fill="#2e7e7a"/>
        </g>
        <g id="Сгруппировать_551" data-name="Сгруппировать 551" transform="translate(117.484 0.01)">
          <path id="Контур_773" data-name="Контур 773" d="M549.866,220.148v2.219h-.9V216.9h1.889a2.047,2.047,0,0,1,1.432.46,1.515,1.515,0,0,1,.5,1.169,1.546,1.546,0,0,1-1.361,1.565l1.448,2.275h-1.094l-1.37-2.219Zm0-2.55v1.85h.992a1.056,1.056,0,0,0,.763-.244,1.048,1.048,0,0,0,0-1.361,1.061,1.061,0,0,0-.763-.244Z" transform="translate(-548.969 -216.899)" fill="#2e7e7a"/>
        </g>
      </g>
    </g>
  </g>
</svg>
