<svg xmlns="http://www.w3.org/2000/svg" width="148.166" height="58.067" viewBox="0 0 148.166 58.067">
  <g id="Сгруппировать_904" data-name="Сгруппировать 904" transform="translate(-1173.915 -6227.598)">
    <g id="Сгруппировать_508" data-name="Сгруппировать 508" transform="translate(1198.726 6280.436)">
      <g id="Сгруппировать_711" data-name="Сгруппировать 711" transform="translate(0 0)">
        <path id="Контур_908" data-name="Контур 908" d="M666.059,233.518a2.7,2.7,0,0,1,0-3.746,2.556,2.556,0,0,1,1.853-.739,2.645,2.645,0,0,1,1.482.425,2.328,2.328,0,0,1,.926,1.192h-1.236a1.208,1.208,0,0,0-1.171-.674,1.489,1.489,0,0,0-1.129.457,1.911,1.911,0,0,0,0,2.429,1.489,1.489,0,0,0,1.129.457,1.219,1.219,0,0,0,1.171-.673h1.236a2.308,2.308,0,0,1-.926,1.188,2.652,2.652,0,0,1-1.482.421A2.55,2.55,0,0,1,666.059,233.518Z" transform="translate(-665.305 -229.033)" fill="#2e7e7a"/>
      </g>
      <g id="Сгруппировать_712" data-name="Сгруппировать 712" transform="translate(10.305 0)">
        <path id="Контур_909" data-name="Контур 909" d="M676.819,234.263a2.553,2.553,0,0,1-1.858-.739,2.707,2.707,0,0,1,0-3.753,2.7,2.7,0,0,1,3.711,0,2.713,2.713,0,0,1,0,3.753A2.553,2.553,0,0,1,676.819,234.263Zm1.126-1.4a1.928,1.928,0,0,0,0-2.432,1.625,1.625,0,0,0-2.256,0,1.912,1.912,0,0,0,0,2.429,1.491,1.491,0,0,0,1.13.457A1.476,1.476,0,0,0,677.945,232.862Z" transform="translate(-674.207 -229.033)" fill="#2e7e7a"/>
      </g>
      <g id="Сгруппировать_713" data-name="Сгруппировать 713" transform="translate(21.022 0.072)">
        <path id="Контур_910" data-name="Контур 910" d="M683.465,234.2V229.1h3.16v.791H684.5v1.338h1.623v.791H684.5V234.2Z" transform="translate(-683.465 -229.096)" fill="#2e7e7a"/>
      </g>
      <g id="Сгруппировать_714" data-name="Сгруппировать 714" transform="translate(29.674 0.072)">
        <path id="Контур_911" data-name="Контур 911" d="M690.939,234.2V229.1h3.16v.791H691.97v1.338h1.624v.791H691.97V234.2Z" transform="translate(-690.939 -229.096)" fill="#2e7e7a"/>
      </g>
      <g id="Сгруппировать_715" data-name="Сгруппировать 715" transform="translate(38.327 0.059)">
        <path id="Контур_912" data-name="Контур 912" d="M701.362,229.084v.789h-1.917v1.338h1.7V232h-1.7v1.411h1.917v.791h-2.948v-5.12Z" transform="translate(-698.414 -229.084)" fill="#2e7e7a"/>
      </g>
      <g id="Сгруппировать_716" data-name="Сгруппировать 716" transform="translate(47.009 0.059)">
        <path id="Контур_913" data-name="Контур 913" d="M708.862,229.084v.789h-1.916v1.338h1.7V232h-1.7v1.411h1.916v.791h-2.948v-5.12Z" transform="translate(-705.914 -229.084)" fill="#2e7e7a"/>
      </g>
      <g id="Сгруппировать_717" data-name="Сгруппировать 717" transform="translate(62.457 0)">
        <path id="Контур_914" data-name="Контур 914" d="M721.022,229.86a.775.775,0,0,0-.5.157.53.53,0,0,0-.194.435.619.619,0,0,0,.144.435.9.9,0,0,0,.376.241,4.679,4.679,0,0,0,.513.151q.278.066.556.161a2.754,2.754,0,0,1,.512.234,1.008,1.008,0,0,1,.376.406,1.346,1.346,0,0,1,.143.647,1.408,1.408,0,0,1-.5,1.082,1.9,1.9,0,0,1-1.331.454,2.141,2.141,0,0,1-1.342-.391,1.3,1.3,0,0,1-.513-1.1h1.1a.673.673,0,0,0,.768.673.8.8,0,0,0,.556-.183.616.616,0,0,0,.206-.486.549.549,0,0,0-.271-.479,2.043,2.043,0,0,0-.655-.263c-.256-.058-.513-.13-.771-.212a1.443,1.443,0,0,1-.659-.435,1.208,1.208,0,0,1-.271-.823,1.373,1.373,0,0,1,.5-1.112,1.971,1.971,0,0,1,1.3-.417,2.081,2.081,0,0,1,1.277.362,1.4,1.4,0,0,1,.527,1.1h-1.126a.7.7,0,0,0-.219-.464A.715.715,0,0,0,721.022,229.86Z" transform="translate(-719.259 -229.033)" fill="#2e7e7a"/>
      </g>
      <g id="Сгруппировать_718" data-name="Сгруппировать 718" transform="translate(71.812 0.072)">
        <path id="Контур_915" data-name="Контур 915" d="M730.566,229.1h1.03V234.2h-1.03v-2.187h-2.195V234.2H727.34V229.1h1.031v2.129h2.195Z" transform="translate(-727.34 -229.096)" fill="#2e7e7a"/>
      </g>
      <g id="Сгруппировать_719" data-name="Сгруппировать 719" transform="translate(81.562 0)">
        <path id="Контур_916" data-name="Контур 916" d="M738.375,234.263a2.553,2.553,0,0,1-1.858-.739,2.708,2.708,0,0,1,0-3.753,2.7,2.7,0,0,1,3.712,0,2.713,2.713,0,0,1,0,3.753A2.553,2.553,0,0,1,738.375,234.263Zm1.126-1.4a1.928,1.928,0,0,0,0-2.432,1.625,1.625,0,0,0-2.256,0,1.911,1.911,0,0,0,0,2.429,1.62,1.62,0,0,0,2.256,0Z" transform="translate(-735.763 -229.033)" fill="#2e7e7a"/>
      </g>
      <g id="Сгруппировать_720" data-name="Сгруппировать 720" transform="translate(92.278 0.072)">
        <path id="Контур_917" data-name="Контур 917" d="M748.355,231.643a1.332,1.332,0,0,1-.574.383,2.483,2.483,0,0,1-.881.142h-.849V234.2H745.02V229.1h1.88a1.936,1.936,0,0,1,1.364.443,1.375,1.375,0,0,1,.479,1.042A1.6,1.6,0,0,1,748.355,231.643Zm-2.3-.264h.849a.807.807,0,0,0,.591-.2.823.823,0,0,0,0-1.089.806.806,0,0,0-.591-.2h-.849Z" transform="translate(-745.02 -229.096)" fill="#2e7e7a"/>
      </g>
    </g>
    <g id="Сгруппировать_509" data-name="Сгруппировать 509" transform="translate(1173.915 6243.282)">
      <g id="Сгруппировать_722" data-name="Сгруппировать 722" transform="translate(0 0)">
        <path id="Контур_918" data-name="Контур 918" d="M644.13,222.5a2.5,2.5,0,0,1-.242-1.543,14.324,14.324,0,0,1,.418-2.4q.337-1.334.852-2.8t1.029-2.8q.514-1.334.948-2.4t.627-1.544q.226-.481.6-1.366t.8-1.93q.432-1.044.916-2.2t.917-2.219q.434-1.061.8-1.93t.595-1.382q.707-.224.933.047a1.179,1.179,0,0,1,.129.917,7.686,7.686,0,0,1-.45,1.559q-.354.917-.82,1.962t-.965,2.138q-.5,1.094-.9,2.073a14.314,14.314,0,0,0-.61,1.785,3,3,0,0,0-.113,1.286,6.924,6.924,0,0,0,1.335,0q.755-.064,1.544-.192t1.559-.289q.771-.161,1.35-.258a16.1,16.1,0,0,0,4.679-1.382,9.333,9.333,0,0,0,2.926-2.3,14.052,14.052,0,0,0,2.041-3.361q.87-1.96,1.993-4.566.29-.547.515-.467a.71.71,0,0,1,.369.45,3.629,3.629,0,0,1,.209.82,1.561,1.561,0,0,1,0,.644,4.454,4.454,0,0,1-.193.418c-.107.214-.225.446-.353.691s-.247.472-.354.676a3.871,3.871,0,0,0-.193.4,3.382,3.382,0,0,0-.161.434q-.1.306-.225.659c-.086.236-.16.456-.225.66s-.108.348-.128.434a1.533,1.533,0,0,1,.739.739,1.746,1.746,0,0,1-.353,1.239,12.138,12.138,0,0,1-1.109,1.431q-.66.74-1.286,1.447a4.324,4.324,0,0,0-.853,1.318,66.78,66.78,0,0,0-2.267,6.43,43.4,43.4,0,0,0-1.4,6.656,1.274,1.274,0,0,1-.289.321.338.338,0,0,1-.418.032,8.8,8.8,0,0,1,.112-1.945q.175-1.238.466-2.7t.643-2.975q.354-1.511.66-2.781t.5-2.107a4.021,4.021,0,0,0,.161-.932,6.835,6.835,0,0,0-1.736-.049q-1.061.08-2.315.289t-2.6.5q-1.351.288-2.621.626t-2.364.644q-1.094.306-1.8.53a15.3,15.3,0,0,0-.9,2.684q-.354,1.464-.724,2.943t-.82,2.845a9.368,9.368,0,0,1-1.19,2.428,1.077,1.077,0,0,1-.209-.161A.788.788,0,0,1,644.13,222.5Z" transform="translate(-643.872 -196.938)" fill="#30e2d9"/>
      </g>
      <g id="Сгруппировать_723" data-name="Сгруппировать 723" transform="translate(21.265 13.094)">
        <path id="Контур_919" data-name="Контур 919" d="M664.1,220.713a2.651,2.651,0,0,1-1.688-1.64,4.349,4.349,0,0,1,.016-2.427,10.577,10.577,0,0,1,1.222-2.765,17.844,17.844,0,0,1,1.929-2.621,15.449,15.449,0,0,1,2.139-2.01,4.116,4.116,0,0,1,1.849-.916,5.785,5.785,0,0,1,3.135.273,2.945,2.945,0,0,1,1.559,1.527,4.357,4.357,0,0,1,.226,2.331,9.094,9.094,0,0,1-.852,2.686,13.007,13.007,0,0,1-1.7,2.6,11.033,11.033,0,0,1-2.315,2.107,7.258,7.258,0,0,1-2.686,1.125A5.067,5.067,0,0,1,664.1,220.713Zm-.353-1.833a1.313,1.313,0,0,0,1.093,1.141,3.507,3.507,0,0,0,1.946-.418,11.492,11.492,0,0,0,2.331-1.544,18.092,18.092,0,0,0,2.234-2.2,14.242,14.242,0,0,0,1.673-2.4,4.394,4.394,0,0,0,.644-2.106,1.519,1.519,0,0,0-.868-1.367,4.863,4.863,0,0,0-2.846-.176q-.452.417-1.158,1.012t-1.463,1.3q-.755.708-1.5,1.528a12.24,12.24,0,0,0-1.285,1.688,6.46,6.46,0,0,0-.788,1.769A3.41,3.41,0,0,0,663.742,218.88Z" transform="translate(-662.243 -208.249)" fill="#30e2d9"/>
      </g>
      <g id="Сгруппировать_724" data-name="Сгруппировать 724" transform="translate(33.73 12.178)">
        <path id="Контур_920" data-name="Контур 920" d="M691.9,219.5a3.522,3.522,0,0,1,.064-1.06,5.817,5.817,0,0,1,.321-1.03q.21-.5.4-.916.129-.321.53-1.174t.868-1.784q.467-.934.885-1.753t.579-1.141v-.707q-.321-.161-1.319.434a21.728,21.728,0,0,0-2.314,1.639q-1.32,1.045-2.8,2.331t-2.782,2.46q-1.3,1.174-2.266,2.089T682.85,220.1q-.709.226-.917-.306a3.253,3.253,0,0,1-.113-1.479,15.733,15.733,0,0,1,.385-2.122q.29-1.174.6-2.218t.546-1.785a2.92,2.92,0,0,0,.208-.8,1.616,1.616,0,0,0-1.351.162,6.236,6.236,0,0,0-1.446,1.141,16.112,16.112,0,0,0-1.479,1.768q-.741,1.012-1.479,2.026t-1.415,1.93A11.33,11.33,0,0,1,675.1,219.9a2.379,2.379,0,0,1-1.141.676.884.884,0,0,1-.916-.483.248.248,0,0,1-.033-.161.433.433,0,0,1,.033-.192q.16-.321.5-1.014t.756-1.559q.417-.868.9-1.816t.917-1.8q.434-.853.772-1.528t.53-1q.16-.321.45-.82t.579-.965c.193-.31.439-.691.74-1.141h.771a1.915,1.915,0,0,1-.064,1.383,9.013,9.013,0,0,1-.692,1.254,9.145,9.145,0,0,0-.675,1.206,1.581,1.581,0,0,0-.016,1.27q2.766-2.443,4.261-3.6a7.725,7.725,0,0,1,2.106-1.319c.408-.108.6.053.579.482a11.013,11.013,0,0,1-.273,1.736q-.241,1.094-.483,2.492a8.628,8.628,0,0,0-.048,2.718h.385q.193-.129.642-.483l.982-.772c.353-.278.686-.536,1-.772s.53-.4.659-.482q.354-.29,1.029-.8t1.366-1.044q.693-.531,1.255-.933c.375-.267.616-.434.724-.5q.129-.1.563-.4t.964-.659q.531-.354,1.013-.659t.708-.467a1.439,1.439,0,0,1,.9-.289,1.063,1.063,0,0,1,.691.306,1.254,1.254,0,0,1,.338.739,2.316,2.316,0,0,1-.129,1.045q-.773,1.446-1.527,2.83t-1.383,2.781a19.709,19.709,0,0,0-1.029,2.878,12.992,12.992,0,0,0-.434,3.151.316.316,0,0,1-.337,0,1.441,1.441,0,0,1-.338-.257,3.634,3.634,0,0,1-.387-.483A1.661,1.661,0,0,1,691.9,219.5Z" transform="translate(-673.01 -207.459)" fill="#30e2d9"/>
      </g>
      <g id="Сгруппировать_725" data-name="Сгруппировать 725" transform="translate(58.683 10.561)">
        <path id="Контур_921" data-name="Контур 921" d="M696.783,221.058a2.932,2.932,0,0,1-1.463-.982,3.551,3.551,0,0,1-.66-1.462,5.224,5.224,0,0,1-.047-1.689,9.385,9.385,0,0,1,.37-1.688q.964-1.028,2.169-2.363t2.557-2.621a33.044,33.044,0,0,1,2.813-2.4,12.13,12.13,0,0,1,2.974-1.688.767.767,0,0,1,.821.016,1.352,1.352,0,0,1,.434.756,4.555,4.555,0,0,1,.112,1.19,10.63,10.63,0,0,1-.112,1.317,7.7,7.7,0,0,1-.257,1.158,2.215,2.215,0,0,1-.322.708,5.687,5.687,0,0,1-1.5,1.06q-1.11.611-2.46,1.335t-2.7,1.494a13.945,13.945,0,0,0-2.219,1.528,2.92,2.92,0,0,0-1.029,1.494q-.161.741.9,1.351a10.043,10.043,0,0,0,2.653-.112q1.559-.241,3.183-.644t3.135-.836q1.512-.434,2.476-.691l.385.354a6.248,6.248,0,0,1-2.314,1.7,19.94,19.94,0,0,1-3.474,1.27,20.643,20.643,0,0,1-3.634.644A7.082,7.082,0,0,1,696.783,221.058Zm7.685-12.283q-.033-.031-.483.273t-1.109.8q-.66.5-1.415,1.093t-1.383,1.109q-.627.516-1.045.884c-.278.247-.4.37-.353.37a2.977,2.977,0,0,0,1.335-.145,9.968,9.968,0,0,0,1.7-.692,14.06,14.06,0,0,0,1.688-1.012,6.726,6.726,0,0,0,1.27-1.11,1.7,1.7,0,0,0,.483-.964C705.17,209.108,704.939,208.9,704.468,208.774Z" transform="translate(-694.566 -206.061)" fill="#30e2d9"/>
      </g>
      <g id="Сгруппировать_726" data-name="Сгруппировать 726" transform="translate(71.478 12.178)">
        <path id="Контур_922" data-name="Контур 922" d="M724.51,219.5a3.518,3.518,0,0,1,.064-1.06,5.811,5.811,0,0,1,.322-1.03q.208-.5.4-.916.129-.321.531-1.174t.868-1.784q.465-.934.884-1.753t.579-1.141v-.707c-.214-.108-.655.037-1.318.434a21.834,21.834,0,0,0-2.315,1.639q-1.32,1.045-2.8,2.331t-2.782,2.46q-1.3,1.174-2.267,2.089t-1.222,1.206c-.472.15-.777.049-.917-.306a3.256,3.256,0,0,1-.112-1.479,15.544,15.544,0,0,1,.385-2.122q.29-1.174.6-2.218t.547-1.785a3.023,3.023,0,0,0,.208-.8,1.616,1.616,0,0,0-1.351.162,6.235,6.235,0,0,0-1.446,1.141,15.837,15.837,0,0,0-1.479,1.768q-.741,1.012-1.479,2.026T709,218.41a11.335,11.335,0,0,1-1.286,1.494,2.378,2.378,0,0,1-1.141.676.886.886,0,0,1-.917-.483.258.258,0,0,1-.032-.161.454.454,0,0,1,.032-.192q.16-.321.5-1.014t.756-1.559q.417-.868.9-1.816t.917-1.8q.432-.853.771-1.528t.531-1q.16-.321.449-.82t.58-.965q.288-.465.74-1.141h.771a1.921,1.921,0,0,1-.064,1.383,9.032,9.032,0,0,1-.692,1.254,9.152,9.152,0,0,0-.675,1.206,1.58,1.58,0,0,0-.016,1.27q2.766-2.443,4.26-3.6a7.725,7.725,0,0,1,2.107-1.319q.609-.161.579.482a11.187,11.187,0,0,1-.274,1.736q-.24,1.094-.482,2.492a8.593,8.593,0,0,0-.049,2.718h.387q.193-.129.642-.483l.982-.772q.53-.417,1-.772t.659-.482q.354-.29,1.029-.8t1.366-1.044q.693-.531,1.254-.933c.376-.267.616-.434.724-.5.086-.065.274-.2.564-.4s.61-.423.964-.659.691-.455,1.013-.659.557-.359.707-.467a1.445,1.445,0,0,1,.9-.289,1.066,1.066,0,0,1,.691.306,1.253,1.253,0,0,1,.337.739,2.3,2.3,0,0,1-.129,1.045q-.771,1.446-1.527,2.83t-1.382,2.781a19.448,19.448,0,0,0-1.029,2.878,12.873,12.873,0,0,0-.434,3.151.318.318,0,0,1-.338,0,1.463,1.463,0,0,1-.338-.257,3.633,3.633,0,0,1-.385-.483A1.662,1.662,0,0,1,724.51,219.5Z" transform="translate(-705.619 -207.459)" fill="#30e2d9"/>
      </g>
      <g id="Сгруппировать_727" data-name="Сгруппировать 727" transform="translate(96.884 8.78)">
        <path id="Контур_923" data-name="Контур 923" d="M728.431,220.913a2.549,2.549,0,0,1-.852-1.9,8.634,8.634,0,0,1,.353-2.829,18.655,18.655,0,0,1,1.286-3.3,23.257,23.257,0,0,1,1.978-3.279,19.317,19.317,0,0,1,2.444-2.8,9.816,9.816,0,0,1,2.637-1.832,4.61,4.61,0,0,1,2.572-.418,3.6,3.6,0,0,1,2.283,1.463,3.472,3.472,0,0,1,.771,1.624,4.865,4.865,0,0,1-.032,1.672,9.249,9.249,0,0,1-.514,1.736q-.354.886-.691,1.785a13.993,13.993,0,0,0-.548,1.833,5.375,5.375,0,0,0-.08,1.9,1.5,1.5,0,0,0,1.094,1.447,4.552,4.552,0,0,0,2.234-.128,13.28,13.28,0,0,0,2.749-1.126q1.448-.771,2.686-1.543t2.877-1.929q.9-.194,1.013.112t-.353.9a8.939,8.939,0,0,1-1.4,1.351,17.862,17.862,0,0,1-2.121,1.463,21.733,21.733,0,0,1-2.541,1.286,11.3,11.3,0,0,1-2.637.787,6.553,6.553,0,0,1-2.427-.031,3.234,3.234,0,0,1-1.881-1.141,3.013,3.013,0,0,1-.53-.772,1.762,1.762,0,0,0-.563-.675q-.483.45-1.158,1.174t-1.463,1.446a18.885,18.885,0,0,1-1.672,1.367,6.921,6.921,0,0,1-1.817.964,4.37,4.37,0,0,1-1.881.226A3.3,3.3,0,0,1,728.431,220.913Zm.353-1.093a1.136,1.136,0,0,0,1.286.948,5.011,5.011,0,0,0,2.316-.98,15.854,15.854,0,0,0,2.732-2.459,21.069,21.069,0,0,0,2.541-3.474,16.956,16.956,0,0,0,1.72-4.034,10.125,10.125,0,0,0,.306-4.18,1.712,1.712,0,0,0-1.93-.049,9.774,9.774,0,0,0-2.46,1.832,23.468,23.468,0,0,0-2.572,3.023,31.687,31.687,0,0,0-2.234,3.538,19.442,19.442,0,0,0-1.463,3.359A4.5,4.5,0,0,0,728.784,219.821Z" transform="translate(-727.566 -204.523)" fill="#30e2d9"/>
      </g>
      <g id="Сгруппировать_728" data-name="Сгруппировать 728" transform="translate(117.162 5.557)">
        <path id="Контур_924" data-name="Контур 924" d="M758.853,221.352a4.873,4.873,0,0,1-1.768-2.073,11.73,11.73,0,0,1-.8-2.652h-.353a32.377,32.377,0,0,1-4.518,3.182,11.18,11.18,0,0,1-3.232,1.3,2.919,2.919,0,0,1-2.057-.208,2.031,2.031,0,0,1-.949-1.3,4.2,4.2,0,0,1,.081-2.01,8.52,8.52,0,0,1,1-2.331,10.6,10.6,0,0,1,1.832-2.235,9.609,9.609,0,0,1,2.588-1.736,10.1,10.1,0,0,1,3.247-.852,10.4,10.4,0,0,1,3.843.4l.353-.387,4.341-8.713a1.086,1.086,0,0,1,1.029.771,3.02,3.02,0,0,1-.016,1.415,7.493,7.493,0,0,1-.514,1.5c-.225.483-.392.831-.5,1.045q-.1.193-.369.74t-.644,1.3q-.37.755-.788,1.592t-.787,1.592q-.37.755-.659,1.317c-.193.376-.311.617-.354.725a5.251,5.251,0,0,0-.53,2.524q.049,1.334.145,2.556a1.827,1.827,0,0,0,.514.949,7.2,7.2,0,0,0,.82.675q.436.306.868.6a2.634,2.634,0,0,1,.724.707.536.536,0,0,1-.514.434,2.012,2.012,0,0,1-.8-.145,4.334,4.334,0,0,1-.772-.387C759.067,221.492,758.917,221.4,758.853,221.352Zm-11.994-1.446q.13.547.982.321a7.636,7.636,0,0,0,2.01-.948,27.544,27.544,0,0,0,2.459-1.753,28.561,28.561,0,0,0,2.349-2.058,13.336,13.336,0,0,0,1.639-1.9c.4-.58.52-1.007.369-1.287a4.547,4.547,0,0,0-2.218-.546,7.118,7.118,0,0,0-2.427.434,9.622,9.622,0,0,0-2.315,1.222,8.115,8.115,0,0,0-1.865,1.816,6.41,6.41,0,0,0-1.062,2.235A4.479,4.479,0,0,0,746.859,219.906Z" transform="translate(-745.084 -201.739)" fill="#30e2d9"/>
      </g>
      <g id="Сгруппировать_729" data-name="Сгруппировать 729" transform="translate(133.73 10.561)">
        <path id="Контур_925" data-name="Контур 925" d="M761.613,221.058a2.926,2.926,0,0,1-1.463-.982,3.551,3.551,0,0,1-.66-1.462,5.224,5.224,0,0,1-.047-1.689,9.4,9.4,0,0,1,.37-1.688q.964-1.028,2.169-2.363t2.557-2.621a33.034,33.034,0,0,1,2.813-2.4,12.132,12.132,0,0,1,2.974-1.688.767.767,0,0,1,.821.016,1.353,1.353,0,0,1,.434.756,4.555,4.555,0,0,1,.112,1.19,10.871,10.871,0,0,1-.112,1.317,7.692,7.692,0,0,1-.257,1.158,2.242,2.242,0,0,1-.322.708,5.691,5.691,0,0,1-1.5,1.06q-1.11.611-2.46,1.335t-2.7,1.494a13.934,13.934,0,0,0-2.219,1.528,2.92,2.92,0,0,0-1.029,1.494q-.161.741.9,1.351a10.043,10.043,0,0,0,2.653-.112q1.559-.241,3.183-.644t3.135-.836q1.511-.434,2.476-.691l.385.354a6.249,6.249,0,0,1-2.314,1.7,19.939,19.939,0,0,1-3.474,1.27,20.642,20.642,0,0,1-3.634.644A7.083,7.083,0,0,1,761.613,221.058Zm7.684-12.283q-.031-.031-.482.273t-1.11.8q-.658.5-1.413,1.093t-1.383,1.109q-.627.516-1.045.884c-.278.247-.4.37-.353.37a2.978,2.978,0,0,0,1.335-.145,9.968,9.968,0,0,0,1.7-.692,14.06,14.06,0,0,0,1.688-1.012,6.726,6.726,0,0,0,1.27-1.11,1.7,1.7,0,0,0,.483-.964C770,209.108,769.769,208.9,769.3,208.774Z" transform="translate(-759.396 -206.061)" fill="#30e2d9"/>
      </g>
    </g>
    <g id="Сгруппировать_510" data-name="Сгруппировать 510" transform="translate(1234.141 6227.598)">
      <g id="Сгруппировать_731" data-name="Сгруппировать 731" transform="translate(0 1.935)">
        <path id="Контур_926" data-name="Контур 926" d="M697.764,200.706a.814.814,0,0,1-.023-.257,1.087,1.087,0,0,1,.023-.279c.047-.171.133-.47.257-.9s.257-.879.4-1.353l.4-1.34q.188-.63.257-.887.094-.326.21-.758a1.894,1.894,0,0,0,.047-.828,2.361,2.361,0,0,0-.864.082c-.343.085-.681.155-1.014.21a2.691,2.691,0,0,1-.934,0,.811.811,0,0,1-.617-.549,1.366,1.366,0,0,1,.839-.758,6.374,6.374,0,0,1,1.213-.244,10.27,10.27,0,0,0,1.248-.21,1.565,1.565,0,0,0,.945-.631q.208-.606.5-1.481t.618-1.831q.326-.955.711-1.889a13.844,13.844,0,0,1,.806-1.657c.17-.108.31-.116.42-.022a.851.851,0,0,1,.244.407,2.679,2.679,0,0,1,.105.549,1.445,1.445,0,0,1,0,.373,6.11,6.11,0,0,1-.478,1.294q-.339.689-.63,1.388a9.732,9.732,0,0,0-.468,1.4,2.684,2.684,0,0,0-.011,1.33h5.016c.015,0,.053.05.116.152s.117.183.163.244c.079.218-.008.366-.256.443a4.29,4.29,0,0,1-1,.152c-.419.023-.9.039-1.434.046a12.294,12.294,0,0,0-1.539.117,5.329,5.329,0,0,0-1.317.35,1.4,1.4,0,0,0-.793.735q-.608,1.563-1.121,3.137t-.979,3.183a1.844,1.844,0,0,1-.186.222,1.525,1.525,0,0,1-.3.256.45.45,0,0,1-.315.082C697.909,200.97,697.826,200.877,697.764,200.706Z" transform="translate(-695.899 -185.061)" fill="#30e2d9"/>
      </g>
      <g id="Сгруппировать_732" data-name="Сгруппировать 732" transform="translate(9.003 0)">
        <path id="Контур_927" data-name="Контур 927" d="M703.7,200.689a.273.273,0,0,1-.024-.127.282.282,0,0,1,.024-.128c.061-.125.167-.338.314-.641s.3-.622.468-.956.322-.649.478-.945.264-.506.326-.63c.031-.047.112-.179.244-.4s.3-.486.491-.8.4-.673.63-1.062.45-.77.675-1.143.435-.723.631-1.05.353-.6.478-.816q.467-.769,1.085-1.82t1.271-2.122q.653-1.073,1.294-2.077a17.452,17.452,0,0,1,1.178-1.655,3.668,3.668,0,0,1,.909-.864q.373-.21.513.28v.747c-.108.171-.256.392-.442.664s-.377.56-.572.862-.384.6-.571.875-.327.5-.42.653q-.21.328-.676,1.05t-1.05,1.633q-.583.908-1.19,1.9t-1.1,1.854q-.491.863-.783,1.481c-.194.412-.267.673-.221.781a4.367,4.367,0,0,0,1.2-.6q.643-.431,1.3-.921t1.307-.945a7.835,7.835,0,0,1,1.212-.711,1.855,1.855,0,0,1,.979.419,1.992,1.992,0,0,1,.608.887c-.017.14-.028.4-.036.781s-.012.781-.012,1.2,0,.816.012,1.189.019.63.036.77a1.713,1.713,0,0,0,.233.641q.21.385.454.77c.164.257.311.478.445.666s.19.287.174.3a1.286,1.286,0,0,1-.887.013,1.871,1.871,0,0,1-.734-.491,2.874,2.874,0,0,1-.513-.77,2.773,2.773,0,0,1-.245-.851c-.015-.14-.039-.4-.07-.781s-.059-.781-.082-1.2-.046-.816-.069-1.189-.035-.63-.035-.77l-.537-.28c-.093-.046-.252-.008-.478.117a7.282,7.282,0,0,0-.781.513q-.443.326-.932.747t-.923.793q-.431.373-.734.653c-.2.186-.328.3-.374.35-.124.125-.35.346-.676.666s-.673.661-1.038,1.026-.707.712-1.027,1.038-.539.559-.664.7a2.424,2.424,0,0,1-.618.058A.521.521,0,0,1,703.7,200.689Z" transform="translate(-703.676 -183.39)" fill="#30e2d9"/>
      </g>
      <g id="Сгруппировать_733" data-name="Сгруппировать 733" transform="translate(21.064 6.702)">
        <path id="Контур_928" data-name="Контур 928" d="M715.7,200.057a2.125,2.125,0,0,1-1.062-.711,2.565,2.565,0,0,1-.478-1.062,3.783,3.783,0,0,1-.035-1.225,6.7,6.7,0,0,1,.268-1.225q.7-.747,1.573-1.714t1.856-1.9a23.882,23.882,0,0,1,2.041-1.738,8.786,8.786,0,0,1,2.158-1.225.553.553,0,0,1,.594.012.973.973,0,0,1,.315.549,3.272,3.272,0,0,1,.082.862,8,8,0,0,1-.082.956,5.589,5.589,0,0,1-.186.84,1.654,1.654,0,0,1-.233.513,4.131,4.131,0,0,1-1.086.77q-.8.443-1.784.968t-1.959,1.085a10.083,10.083,0,0,0-1.61,1.108,2.114,2.114,0,0,0-.747,1.085q-.116.537.653.979a7.262,7.262,0,0,0,1.925-.081q1.13-.175,2.309-.466t2.274-.607q1.1-.314,1.8-.5l.28.256a4.528,4.528,0,0,1-1.68,1.236,14.37,14.37,0,0,1-2.519.921,14.929,14.929,0,0,1-2.636.467A5.121,5.121,0,0,1,715.7,200.057Zm5.575-8.91q-.024-.023-.351.2t-.8.583q-.478.363-1.026.793c-.367.288-.7.557-1,.8s-.556.463-.757.642-.289.267-.257.267a2.152,2.152,0,0,0,.968-.1,7.182,7.182,0,0,0,1.235-.5,10.287,10.287,0,0,0,1.226-.734,4.9,4.9,0,0,0,.92-.8,1.232,1.232,0,0,0,.351-.7C721.786,191.389,721.618,191.241,721.278,191.147Z" transform="translate(-714.095 -189.179)" fill="#30e2d9"/>
      </g>
    </g>
  </g>
</svg>
