<svg xmlns="http://www.w3.org/2000/svg" width="81.168" height="97.173"><g data-name="Сгруппировать 903"><g data-name="Сгруппировать 498"><g data-name="Сгруппировать 625"><path data-name="Контур 834" d="M4.495 23.081l-.734-.2-.859 1.281.468.6-.62.926L0 22.047l.71-1.059 4.41 1.163zm-2.108.416l.566-.844-1.555-.429z" fill="#2e7e7a"/></g><g data-name="Сгруппировать 626"><path data-name="Контур 835" d="M5.867 14.699l.715-.763 3.146 2.948-.717.763-3.177-.576 1.98 1.854-.717.765-3.145-2.948.715-.765 3.178.578z" fill="#2e7e7a"/></g><g data-name="Сгруппировать 627"><path data-name="Контур 836" d="M9.987 11.941l-.49-.627 2.674-2.088.49.627-.926.725 2.155 2.76-.824.645-2.157-2.761z" fill="#2e7e7a"/></g><g data-name="Сгруппировать 628"><path data-name="Контур 837" d="M17.805 5.721l.916-.511 2.092 3.756-.916.509-.867-1.556-1.449.807.867 1.557-.915.509-2.093-3.755.916-.511.837 1.5 1.449-.808z" fill="#2e7e7a"/></g><g data-name="Сгруппировать 629"><path data-name="Контур 838" d="M24.218 6.821a2.267 2.267 0 01-1.053-2.977 2.28 2.28 0 012.95-1.044 2.279 2.279 0 011.051 2.977 2.269 2.269 0 01-2.948 1.044zm2.025-1.438a1.467 1.467 0 00-.6-1.7 1.184 1.184 0 00-1.559.552 1.465 1.465 0 00.6 1.7 1.183 1.183 0 001.558-.551z" fill="#2e7e7a"/></g><g data-name="Сгруппировать 630"><path data-name="Контур 839" d="M33.167.579L34.2.401l.734 4.248-1.032.178-2.189-2.375.463 2.674-1.033.178-.734-4.248L31.44.878l2.195 2.379z" fill="#2e7e7a"/></g><g data-name="Сгруппировать 631"><path data-name="Контур 840" d="M40.654 4.324l-1.048.016-.022-1.383L38.049.066l1.188-.02.858 1.927.79-1.954 1.188-.02-1.441 2.939z" fill="#2e7e7a"/></g><g data-name="Сгруппировать 632"><path data-name="Контур 841" d="M52.062 2.182a.485.485 0 00-.337.024.365.365 0 00-.195.26.432.432 0 00.037.335.748.748 0 00.25.251q.165.108.374.219c.14.075.275.157.41.248a1.966 1.966 0 01.351.3.9.9 0 01.212.41 1.151 1.151 0 01-.016.548 1.2 1.2 0 01-.656.8 1.715 1.715 0 01-1.229.1 1.848 1.848 0 01-1.051-.62 1.2 1.2 0 01-.192-1.071l1.082.269a.485.485 0 00.388.626.5.5 0 00.373-.03.393.393 0 00.2-.264.4.4 0 00-.041-.318.821.821 0 00-.25-.252 4.631 4.631 0 00-.374-.222 3.921 3.921 0 01-.407-.25 2.134 2.134 0 01-.352-.3.873.873 0 01-.212-.406 1.126 1.126 0 01.015-.542 1.175 1.175 0 01.664-.827 1.769 1.769 0 011.2-.075 1.86 1.86 0 011.015.576 1.2 1.2 0 01.195 1.074l-1.107-.274a.573.573 0 00-.059-.384.435.435 0 00-.288-.205z" fill="#2e7e7a"/></g><g data-name="Сгруппировать 633"><path data-name="Контур 842" d="M57.179 3.756l.3-.735 3.137 1.292-.3.736-1.087-.448-1.335 3.239-.969-.4 1.336-3.239z" fill="#2e7e7a"/></g><g data-name="Сгруппировать 634"><path data-name="Контур 843" d="M62.79 8.269l1.33-2.195.9.543-1.33 2.195a.848.848 0 00-.145.607.715.715 0 00.368.467.736.736 0 00.59.113.835.835 0 00.476-.406l1.329-2.195.9.542-1.33 2.2a1.78 1.78 0 01-.736.7 1.605 1.605 0 01-.889.167 2.056 2.056 0 01-.855-.3 1.809 1.809 0 01-.838-1.051 1.681 1.681 0 01.23-1.387z" fill="#2e7e7a"/></g><g data-name="Сгруппировать 635"><path data-name="Контур 844" d="M71.773 11.39a2.427 2.427 0 01.9 1.551 2.15 2.15 0 01-2.012 2.361 2.424 2.424 0 01-1.676-.64l-1.151-.982 2.787-3.273zm-2.625 2.364l.353.3a1.231 1.231 0 00.957.332 1.592 1.592 0 001.279-1.5 1.234 1.234 0 00-.48-.892l-.354-.3z" fill="#2e7e7a"/></g><g data-name="Сгруппировать 636"><path data-name="Контур 845" d="M73.073 18.565l3.2-2.875.7.779-3.2 2.875z" fill="#2e7e7a"/></g><g data-name="Сгруппировать 637"><path data-name="Контур 846" d="M76.761 22.104a2.266 2.266 0 012.613-1.771 2.28 2.28 0 011.756 2.591 2.281 2.281 0 01-2.615 1.769 2.267 2.267 0 01-1.754-2.588zm1.9 1.6a1.468 1.468 0 001.491-1.011 1.183 1.183 0 00-.928-1.369 1.468 1.468 0 00-1.49 1.011 1.184 1.184 0 00.927 1.369z" fill="#2e7e7a"/></g></g><g data-name="Сгруппировать 499"><g data-name="Сгруппировать 639"><path data-name="Контур 847" d="M14.658 85.431a.487.487 0 00-.323-.1.369.369 0 00-.276.175.437.437 0 00-.086.324.759.759 0 00.144.324q.115.16.27.34a4.661 4.661 0 01.293.376 2.046 2.046 0 01.221.405.9.9 0 01.05.458 1.142 1.142 0 01-.213.506 1.2 1.2 0 01-.9.509 1.707 1.707 0 01-1.181-.353 1.844 1.844 0 01-.758-.957 1.191 1.191 0 01.206-1.067l.913.64a.485.485 0 00.137.723.5.5 0 00.359.107.4.4 0 00.279-.175.408.408 0 00.078-.313.81.81 0 00-.144-.324 4.57 4.57 0 00-.269-.343 3.942 3.942 0 01-.29-.38 2.211 2.211 0 01-.221-.405.859.859 0 01-.051-.455 1.13 1.13 0 01.208-.5 1.176 1.176 0 01.918-.531 1.754 1.754 0 011.143.36 1.854 1.854 0 01.74.9 1.193 1.193 0 01-.206 1.072l-.932-.654a.575.575 0 00.082-.38.436.436 0 00-.191-.282z" fill="#2e7e7a"/></g><g data-name="Сгруппировать 640"><path data-name="Контур 848" d="M17.449 91.314l2.006-3.8.926.488-2.006 3.8z" fill="#2e7e7a"/></g><g data-name="Сгруппировать 641"><path data-name="Контур 849" d="M26.203 90.466l.984.359-1.479 4.05-.984-.359-.714-3.15-.931 2.548-.984-.359 1.479-4.05.984.36.714 3.149z" fill="#2e7e7a"/></g><g data-name="Сгруппировать 642"><path data-name="Контур 850" d="M30.22 95.473a2.261 2.261 0 01.581-3.1 2.16 2.16 0 011.652-.323 2.2 2.2 0 011.182.609 1.968 1.968 0 01.571 1.178l-1.228-.23a.822.822 0 00-.683-.609 1.1 1.1 0 00-.9.176 1.464 1.464 0 00-.332 1.769 1.1 1.1 0 00.772.487.823.823 0 00.858-.318l1.227.229a1.978 1.978 0 01-.958.893 2.2 2.2 0 01-1.322.138 2.153 2.153 0 01-1.42-.899z" fill="#2e7e7a"/></g><g data-name="Сгруппировать 643"><path data-name="Контур 851" d="M40.308 92.864l-.029.8-1.555-.056-.032.924 1.37.049-.028.8-1.372-.047-.035 1 1.555.056-.029.8-2.6-.094.154-4.309z" fill="#2e7e7a"/></g><g data-name="Сгруппировать 644"><path data-name="Контур 852" d="M48.881 96.421l-.155-.762q.134-.179.376-.49l.376-.486c.088-.116.191-.259.306-.431a3.174 3.174 0 00.25-.428 1.258 1.258 0 00.145-.736c-.069-.34-.254-.479-.554-.419a.433.433 0 00-.311.223.693.693 0 00-.036.467l-.99.2a1.4 1.4 0 01.2-1.174 1.616 1.616 0 011.02-.592 1.437 1.437 0 011.134.171 1.314 1.314 0 01.568.857 1.453 1.453 0 01-.032.763c-.047.135-.089.25-.124.344a2 2 0 01-.195.365l-.209.324c-.045.068-.127.184-.25.351s-.2.274-.231.322l1.56-.317.17.833z" fill="#2e7e7a"/></g><g data-name="Сгруппировать 645"><path data-name="Контур 853" d="M54.862 90.554a1.812 1.812 0 01.7-.428 1.842 1.842 0 01.814-.116 1.289 1.289 0 01.665.263 2.236 2.236 0 01.5.557 4.22 4.22 0 01.594 1.654 2.221 2.221 0 01-.036.752 1.306 1.306 0 01-.345.625 2.045 2.045 0 01-1.517.543 1.288 1.288 0 01-.663-.263 2.214 2.214 0 01-.506-.557 3.832 3.832 0 01-.383-.8 3.871 3.871 0 01-.211-.859 2.206 2.206 0 01.037-.75 1.29 1.29 0 01.351-.621zm1.347.456a.648.648 0 00-.315.038.655.655 0 00-.267.171.565.565 0 00-.131.232.87.87 0 00-.014.3 1.875 1.875 0 00.06.33c.028.1.067.223.117.362s.1.257.139.353a2.011 2.011 0 00.164.293.862.862 0 00.2.221.57.57 0 00.249.1.662.662 0 00.315-.038.64.64 0 00.267-.171.549.549 0 00.132-.232.849.849 0 00.013-.3 2 2 0 00-.059-.329c-.029-.1-.067-.225-.117-.362s-.1-.256-.14-.353a1.908 1.908 0 00-.163-.293.883.883 0 00-.2-.221.575.575 0 00-.248-.097z" fill="#2e7e7a"/></g><g data-name="Сгруппировать 646"><path data-name="Контур 854" d="M62.65 91.9l-1.552-3-.657.341-.448-.866 1.621-.838 2 3.861z" fill="#2e7e7a"/></g><g data-name="Сгруппировать 647"><path data-name="Контур 855" d="M65.296 86.491a1.124 1.124 0 01-.164-.94 1.663 1.663 0 01.732-.953 1.64 1.64 0 011.145-.357 1.133 1.133 0 01.826.48 1.029 1.029 0 01.081 1.109 1.141 1.141 0 011.192.519 1.25 1.25 0 01.2 1.11 2.008 2.008 0 01-1.937 1.352 1.252 1.252 0 01-.975-.566 1.139 1.139 0 01-.079-1.3 1.033 1.033 0 01-1.021-.454zm1.789-1.066a.5.5 0 00-.336-.228.515.515 0 00-.389.1.534.534 0 00-.233.335.5.5 0 00.1.4.508.508 0 00.347.228.524.524 0 00.388-.1.519.519 0 00.222-.335.51.51 0 00-.099-.401zm1.124 1.478a.6.6 0 00-.373-.262.585.585 0 00-.462.122.664.664 0 00-.289.4.554.554 0 00.1.454.608.608 0 00.392.267.627.627 0 00.48-.126.578.578 0 00.271-.4.627.627 0 00-.119-.455z" fill="#2e7e7a"/></g></g><g data-name="Сгруппировать 500"><path data-name="Контур 856" d="M67.039 26.502c-.252-.423-.5-.851-.772-1.263a13.983 13.983 0 01-2.329-1.9 22.446 22.446 0 00-2.319-1.963c.466 0-.321-.851-1.079-1.557l.161.416a26.929 26.929 0 00-5-3.667 36.969 36.969 0 00-5.492-2.561 3.214 3.214 0 01-.986-.58 22.668 22.668 0 00-1.766-.394l-.891-.168-.891-.116c.192-.172-.513-.4-1.053-.578s-.927-.263-.033-.264c-1.412.036-2.778-.076-4.158-.069a16.81 16.81 0 00-2.05.094 9.888 9.888 0 00-1.991.373 29.436 29.436 0 00-6.955 1.574 30.078 30.078 0 00-6.4 3.258 32.905 32.905 0 00-9.549 9.849l.263-.09c-1.63 2.642-2.268 5.239-3.988 8.409-.25 1.176-.541 2.556-.71 3.808a35.289 35.289 0 00-1.846 11.146 32.185 32.185 0 001.141 8.306c-.3.238-.331-1.088-.73-1.191a2.831 2.831 0 00.268 1.772l.031-.144a5.947 5.947 0 01.607 2.225c-.23-.073-.271.227-.461-.15l.241.749c.09.073.184.147.146-.08a1.4 1.4 0 01.316.975 7.829 7.829 0 001.161 1.78 16.543 16.543 0 011.241 1.53 1.913 1.913 0 01.2.564c-.3-.4-.74-.982-1.144-1.566-.75-1.03-1.361-2.058-1.195-1.723a4.016 4.016 0 00.546 1.081c.338.536.833 1.18 1.3 1.823.5.626 1.011 1.233 1.372 1.72.4.468.648.815.618.938.251.332.573.718.685.526.339.614-.454.052-.3.555.034-.009.059-.089.153.041l.095.524c.919.689 1.69 2.152 2.829 2.7a3.818 3.818 0 01-1.628-.552l-.007-.163c-.12-.041-.6-.457-.746-.322a4.362 4.362 0 001.512 1.481c.061.133.14.282.179.4.017-.02.026-.043.05-.06.089.256.056.251-.071.241a.193.193 0 01-.073-.007c-.047.35.535.807 1.254 1.266a9.715 9.715 0 012.012 1.442c.378.17.1-.052.571.152a16.242 16.242 0 001.357 1.291 15.337 15.337 0 001.537 1.188c.56.013.639-.057.285-.532l.934.578c-.622.047-.249.418.128.789s.779.69.081.752a3.4 3.4 0 001.506.733c.141-.134.337-.289 1.1-.027.974.572.751.411 1.558.913.131.27-.23.234-.258.4 1.515.16 1.075.789 2.46 1.119.89.118 2.61.465 2.744.08 1.17.182 1.119.444.939.721l.966.175a30.6 30.6 0 01-9.342-2.519 25.246 25.246 0 0010.576 3.675c3.806.395 7.6-.328 10.125-2.15.4.653 2.415.761 4.366.471a9.393 9.393 0 003.759-1.152c.676-.387 1.311-.864 1.964-1.291.322-.222.654-.424.968-.659l.941-.7a48.281 48.281 0 0010.4-10.4 41.1 41.1 0 006.56-13.4 31.058 31.058 0 00.934-5.6 37.272 37.272 0 00-.149-7.368 46.946 46.946 0 00-3.391-12.444 30.076 30.076 0 00-1.014-2.211c.546 1.243.542 1.246 1.028 2.51a51.781 51.781 0 00-5.913-7.382 7.836 7.836 0 00.512 1.85zM8.452 58.912c.041.146.087.289.131.433a.324.324 0 01-.422-.037c-.171-.674.126-.436.291-.396z" fill="#30e2d9"/></g><g data-name="Сгруппировать 501"><g data-name="Сгруппировать 650"><path data-name="Контур 857" d="M40.267 27.069h.286c14.489 33.214 15.462 35.1 15.462 35.1 2.06 4.581 4.008 4.639 5.154 4.752v.458H41.126v-.458c4.581 0 1.145-6.7 1.145-6.7l-1.833-3.951H29.215c-1.146 2.634-.115 10.65 6.757 10.65v.458H19.481v-.458c1.717-.113 4.81-.572 9.219-10.65zm-5.783 15.8l-5.1 12.885h10.824z" fill="#fff"/></g></g></g></svg>