<svg xmlns="http://www.w3.org/2000/svg" width="94.038" height="96.665"><g data-name="Сгруппировать 897"><g data-name="Сгруппировать 492"><g data-name="Сгруппировать 585"><path data-name="Контур 801" d="M82.163 95.661c-.062-.037.093-.108.374-.2-.514.151-.751.239-.374.2z" fill="#30e2d9"/></g><g data-name="Сгруппировать 586"><path data-name="Контур 802" d="M82.537 95.464c.131-.038.277-.079.439-.123h-.01c-.166.043-.304.087-.429.123z" fill="#30e2d9"/></g><g data-name="Сгруппировать 587"><path data-name="Контур 803" d="M82.618 94.611l.271-.091a.386.386 0 01-.09-.043.391.391 0 00-.181.134z" fill="#30e2d9"/></g><g data-name="Сгруппировать 588"><path data-name="Контур 804" d="M94.017 11.407v-2a18.565 18.565 0 00-.073-2.385 8.517 8.517 0 00-.506-2.124 7.794 7.794 0 00-1.049-1.876A7.615 7.615 0 0089.05.513a9.251 9.251 0 00-4.03-.468l-2 .182-.733.073-.551.061-2.065.241a19.375 19.375 0 01-4.839-.2c-7.179.7-16.348 1.125-24.445 1.931l.4-.008c-4.306.366-7.57.063-11.774.424.03.141-.622.193-.934.288-.774-.617-24.7 3.007-26.208 2.723-.635.081-1.333.132-2.007.226a7.474 7.474 0 00-4.985 2.231 7.251 7.251 0 00-1.533 2.349 9.018 9.018 0 00-.615 2.793l-.068.933c-.022.3-.046.675-.066.823l-.123 1.189q-.123 1.186-.247 2.361c-.157 1.567-.313 3.116-.464 4.635-.282 3.04-.492 5.967-.515 8.7.273 1.667.5 3.541.825 4.948-.32 1.344.229 1.617.112 3.245-1.435 4.1-.934 6.538-.41 4.415.1 3.407-.1 6.818-.127 9.842l.214 4.217a4.04 4.04 0 01-.463 2.466c.117 3.077-.192 2.164-.4 5.382-.486.767.55 8.1.385 9l-.056-.528a35.281 35.281 0 01-.648 4.939 56.341 56.341 0 00-.388 2.331c-.054.4-.1.809-.142 1.232l-.028.319-.027.463-.045 1.153a14.668 14.668 0 00.075 3.216 7.416 7.416 0 005.984 6.229 15.429 15.429 0 003.321.215h2.55l3.913-.01c5.2-.024 10.308-.071 15 .01.094-.49-2.067.108-2.176-.541 5.529.086 11.1.693 16.686.774a18.935 18.935 0 012.7.535c1.783.182 1.053-.235 2.358-.171l.176.442c1.908-.362 2.79.491 4.586.307.095-.177.751-.2 1.389-.188.031.469 1.966-.032 1.873.4l.019-.035a6.109 6.109 0 011.129.058c.73-.166 7.581-1.45 8.323-1.65l.346.078c1.024-.014 1.462-.362.864-.447l1.264.027-.146.032 1.256.027c.232.041.494.259.137.465a6.79 6.79 0 012.224-.169c-1.979-.289-4.439-.7-6.51-1.171.851-.161 2.388.088 3.312.037a45.34 45.34 0 005.127.786c.388-.027.654-.549 1.533-.32.429.362.993-.013 1.724.249a10.015 10.015 0 01-2.511.087c.145.426 2.07.289 2.742.41.315-.134 1.956 0 2.988-.113-.294.267.154.3.67.347l.281-.073-.271.074a3.379 3.379 0 01.764.133c.7.049 1.14-.116.858-.26.05-.1-.06-.164-.244-.215a19.607 19.607 0 003.152-.794c-.221-.041-.232-.105-.184-.176.093-.028.139-.066.115-.124.1-.1.17-.184-.138-.223l-.285.112c-3.06-.11 2.687-2.441-.846-2.576 1.53.53-.515.543-2.12.605a4.2 4.2 0 00-2.023-.583c-1 .042-.588.194-.779.329-.555-.119-1.614-.219-1.475-.5-.779.333-1.244-.212-2.179-.1-.824.154.056.145-.529.3-1.235-.035-2.967-.082-3.951-.147-.248-.17-.823-.426-.963-.7h.761c-.086.1-.015.174.743.14a.474.474 0 01-.142-.14h14l.466-18.583c.248 2.34.546 4.392 1.064 5.266.022 4.687.485 6.568.632 11.169.533-1.171.5 4.476.941 2.227.779-3.031.185-3.212.817-5.785l-.171.072c1.058-12.049 1.793-24.123 2.334-36.35-.22-8.174.351-17.018.435-25.509.005-3.78.003-7.701-.022-11.522zm-8.432 81.886c.4.01.292.127-.053.289a.172.172 0 01.053-.289zm-2.4 1.131c-.108.035-.208.068-.3.1a9.069 9.069 0 002.261.079c.006-.171-.24-.193-.222-.273a5.935 5.935 0 01.817-.155c.1-.007.2-.016.292-.027l.179.032c.208-.039.44-.059.648-.08a.972.972 0 01.409.1 2.354 2.354 0 01-.728.017c.523.013-.865.4-2.245.769-.586-.142-1.791-.152-1.682-.37-.079.028-.139.05-.184.068l-.428-.093a6.288 6.288 0 011.187-.167z" fill="#30e2d9"/></g></g><g data-name="Сгруппировать 493"><g data-name="Сгруппировать 590"><path data-name="Контур 805" d="M22.814 33.254h.167c8.445 19.358 9.012 20.461 9.012 20.461 1.2 2.669 2.337 2.7 3 2.77v.267H23.314v-.267c2.667 0 .667-3.91.667-3.91l-1.067-2.3h-6.543c-.667 1.535-.066 6.208 3.938 6.208v.267h-9.613v-.265c1-.067 2.8-.335 5.375-6.208zm-3.371 9.212l-2.97 7.509h6.308z" fill="#fff"/></g><g data-name="Сгруппировать 591"><path data-name="Контур 806" d="M43.509 56.484v.267h-8.344v-.267c1.269-.367 1.3-1.769 1.3-3.505V35.657c0-1.168-.4-1.636-1.77-2.136v-.267l7.443-1.4v21.13c.002 1.831.169 3.166 1.371 3.5z" fill="#fff"/></g><g data-name="Сгруппировать 592"><path data-name="Контур 807" d="M52.754 56.485v.268h-8.342v-.267c1.269-.367 1.3-1.8 1.3-3.505v-8.144c0-1.168-.367-1.636-1.735-2.136v-.268l7.41-1.4V52.98c-.001 1.836.165 3.173 1.367 3.505zm-7.742-19.492a3.187 3.187 0 113.171 3.172 3.148 3.148 0 01-3.171-3.172z" fill="#fff"/></g><g data-name="Сгруппировать 593"><path data-name="Контур 808" d="M65.004 55.25s-1.269 1.8-5.14 1.8c-4.039 0-5.942-1.134-5.942-1.134v-4.372h.3c.668 3.1 3.438 5.208 5.641 5.208 2.37 0 2.9-2.771.367-4.439l-3.371-2.036c-3.137-2.07-3.972-5.374-1.935-7.644 0 0 1.234-1.6 5.039-1.6 3.839 0 5.441.935 5.441.935v3.4h-.3a5.038 5.038 0 00-5.141-4.038c-2.169 0-3.2 2.168-.3 4.005l3.371 2.1c3.039 1.84 3.806 5.612 1.97 7.815z" fill="#fff"/></g><g data-name="Сгруппировать 594"><path data-name="Контур 809" d="M84.402 54.616c-.468 1.469-2.2 2.437-4.306 2.437 0 0-3.7 0-4.005-3-.434 1.735-2.136 3-4.505 3-1.269 0-4.173-.567-4.173-3.4 0-3.339 2.7-3.972 8.645-5.374v-2.145c0-3.472-1.969-5.34-4.272-4.14 0 0-.735.434.4.835a2.151 2.151 0 011.2 1.269 2.365 2.365 0 11-4.373 1.8 2.413 2.413 0 01.4-2.47 7.908 7.908 0 012.236-1.7 6.578 6.578 0 013.138-.7c4.372 0 6.809 2.738 6.809 6.676v4.973s0 2.4 1.6 2.336c0 0 .833 0 1-.567zm-8.345-6.008c-2.737.6-2.7 2.637-2.7 4.206 0 0-.034 2.2 1.3 2.2.567 0 1.035-.467 1.4-1.268z" fill="#fff"/></g></g><g data-name="Сгруппировать 494"><g data-name="Сгруппировать 596"><path data-name="Контур 810" d="M22.651 61.82h1.814a1.549 1.549 0 011.013.309.981.981 0 01-.449 1.742 1.039 1.039 0 01.673.351 1.019 1.019 0 01.25.684.967.967 0 01-.366.793 1.585 1.585 0 01-1.02.3h-1.915zm1.016.772v.9h.667a.529.529 0 00.353-.112.415.415 0 00.134-.336.423.423 0 00-.134-.339.52.52 0 00-.353-.117zm0 2.629h.768a.492.492 0 00.345-.125.442.442 0 00.137-.345.474.474 0 00-.131-.351.457.457 0 00-.339-.131h-.779z" fill="#fff"/></g><g data-name="Сгруппировать 597"><path data-name="Контур 811" d="M29.758 65.427a2.2 2.2 0 010-3.064 2.215 2.215 0 013.039 0 2.212 2.212 0 010 3.064 2.2 2.2 0 01-3.035 0zm2.319-.66a1.419 1.419 0 000-1.748 1.15 1.15 0 00-1.606 0 1.424 1.424 0 000 1.748 1.147 1.147 0 001.606 0z" fill="#fff"/></g><g data-name="Сгруппировать 598"><path data-name="Контур 812" d="M36.772 64.311V61.82h1.016v2.491a.829.829 0 00.184.576.694.694 0 00.542.2.711.711 0 00.546-.2.81.81 0 00.191-.576V61.82h1.016v2.491a1.722 1.722 0 01-.259.954 1.539 1.539 0 01-.654.586 2.007 2.007 0 01-.859.184 1.762 1.762 0 01-1.225-.451 1.63 1.63 0 01-.498-1.273z" fill="#fff"/></g><g data-name="Сгруппировать 599"><path data-name="Контур 813" d="M43.574 62.592v-.772h3.293v.772h-1.143v3.4h-1.016v-3.4z" fill="#fff"/></g><g data-name="Сгруппировать 600"><path data-name="Контур 814" d="M50.196 65.994V61.82h1.016v4.174z" fill="#fff"/></g><g data-name="Сгруппировать 601"><path data-name="Контур 815" d="M56.724 66.034a2.089 2.089 0 01-1.519-.607 2.2 2.2 0 010-3.064 2.1 2.1 0 011.522-.6 2.078 2.078 0 011.515.6 2.051 2.051 0 01.616 1.53 2.189 2.189 0 01-.211.961 2.07 2.07 0 01-.58.728l.85 1.094h-1.231l-.506-.69a2.352 2.352 0 01-.456.048zm-.806-3.014a1.424 1.424 0 000 1.748 1.147 1.147 0 001.606 0 1.424 1.424 0 000-1.748 1.15 1.15 0 00-1.606 0z" fill="#fff"/></g><g data-name="Сгруппировать 602"><path data-name="Контур 816" d="M62.253 64.311V61.82h1.018v2.491a.829.829 0 00.184.576.693.693 0 00.541.2.714.714 0 00.548-.2.814.814 0 00.19-.576V61.82h1.016v2.491a1.722 1.722 0 01-.258.954 1.545 1.545 0 01-.654.586 2.011 2.011 0 01-.859.184 1.758 1.758 0 01-1.225-.451 1.627 1.627 0 01-.501-1.273z" fill="#fff"/></g><g data-name="Сгруппировать 603"><path data-name="Контур 817" d="M71.865 61.808v.773h-1.51v.9h1.331v.772h-1.331v.97h1.51v.773h-2.526v-4.188z" fill="#fff"/></g></g></g></svg>