<svg xmlns="http://www.w3.org/2000/svg" width="147.242" height="65.934"><g data-name="Сгруппировать 900"><g data-name="Сгруппировать 505"><g data-name="Сгруппировать 675"><path data-name="Контур 876" d="M125.571 25.267c-.068-.208-.131-.416-.2-.619l-.274-.6a18.526 18.526 0 00-.758-1.924 13.982 13.982 0 00-1.141-1.866 7.865 7.865 0 00-2.143-2.1 15.988 15.988 0 00-2.973-1.364 22.067 22.067 0 00-2.943-.739 37.338 37.338 0 00-5.547-.531c-1.784-.053-3.429-.024-5.03-.014s-3.152.06-4.635.154c-5.89.236-11.721.264-17.365.4q-4.5.1-8.819.358l-.491-.338a6.979 6.979 0 00-2.051.52c-.463.036-.927.069-1.386.11a6.518 6.518 0 00-3.481.347c-1.058-.167-.373-.293-.978-.445-1.6.117-3.337.147-5.113.117a12.26 12.26 0 00-2.928-.243l-.042.138a66.024 66.024 0 01-13.48-1.922c-2.918 1.072-6.584.225-9.957.7-1.991.176-4.171.48-6.242.737-1.042.134-2.014.218-3.078.339a34.53 34.53 0 00-2.943.526 8.706 8.706 0 00-3.013 1.441 10.04 10.04 0 00-2.175 2.246 17.622 17.622 0 00-2.825 8.224c-.024.129-.059.254-.08.382.01.2.029.405.049.6a12.575 12.575 0 00.751 4.438 5.462 5.462 0 001.172 1.824c.157.174.319.336.48.5 1.1 1.742 2.647 3.614 2.647 4.413 3.176 2.439 7.534 2.434 11.537 2.322l18.259-.514a7.276 7.276 0 011.628.33l.1-.379 7.144-.2c5 .513 12.026.3 18.007.306 1.29-.019 2.121-.726 3.41-.745l1.828.39a35.384 35.384 0 013.878-.057 47.38 47.38 0 009.609.463c3.643-.086 7.357-.192 10.283-.123a31.138 31.138 0 006.062-.5 33.817 33.817 0 006.593-1.868 11.288 11.288 0 001.558-.669c.27-.127.549-.319.831-.49a7.171 7.171 0 00.836-.582 13.767 13.767 0 003.013-3.178 16.028 16.028 0 002.1-4.219 14.263 14.263 0 00.661-4.825 8.142 8.142 0 00-.345-1.271z" fill="#30e2d9"/></g><g data-name="Сгруппировать 677"><path data-name="Контур 878" d="M73.534 43.754c-.051.2 2.3.721.385.742 1.074.013 2.033.036 1.121.4 2.066-.031.143-.558 1.508-.857-1.12.353-2.007-.189-3.014-.285z" fill="#30e2d9"/></g><g data-name="Сгруппировать 678"><path data-name="Контур 879" d="M81.413 44.136c-1.034.016-1.952-.416-2.828-.014a8.118 8.118 0 002.828.014z" fill="#30e2d9"/></g><g data-name="Сгруппировать 679"><path data-name="Контур 880" d="M78.999 45.507l.545-.12-1.437-.423z" fill="#30e2d9"/></g><g data-name="Сгруппировать 680"><path data-name="Контур 881" d="M84.734 44.939c.391.069.695.161.766.3l-3.644.168 3.286.228c1.986-.376 1.016-.542-.408-.696z" fill="#30e2d9"/></g><g data-name="Сгруппировать 681"><path data-name="Контур 882" d="M80.507 44.651a20.341 20.341 0 003.021.162 4.852 4.852 0 01-1.931-.4z" fill="#30e2d9"/></g><g data-name="Сгруппировать 682"><path data-name="Контур 883" d="M84.734 44.939a10.419 10.419 0 00-1.205-.125z" fill="#30e2d9"/></g><g data-name="Сгруппировать 683"><path data-name="Контур 884" d="M88.183 45.815l.519-.008.14-.558c-1.058.127-.631.454-.659.566z" fill="#30e2d9"/></g><g data-name="Сгруппировать 684"><path data-name="Контур 885" d="M92.201 46.198c1.519.089.434.328.375.551.947.318 2.855-.1 3.644-.166a17.461 17.461 0 00-4.019-.385z" fill="#30e2d9"/></g><g data-name="Сгруппировать 685"><path data-name="Контур 886" d="M97.051 47.349l-3.1.046c.617.602 1.793.026 3.1-.046z" fill="#30e2d9"/></g><g data-name="Сгруппировать 686"><path data-name="Контур 887" d="M100.359 46.52l1.724.468c.286-.064.057-.222.632-.351a10.565 10.565 0 00-2.356-.117z" fill="#30e2d9"/></g></g><g data-name="Сгруппировать 899"><g data-name="Сгруппировать 506"><g data-name="Сгруппировать 688"><path data-name="Контур 888" d="M55.212 52.402h1.635a1.456 1.456 0 01.976.3.957.957 0 01.357.764.922.922 0 01-.787.909 1 1 0 01.88 1.008.945.945 0 01-.359.767 1.492 1.492 0 01-.972.292H55.21zm.816.626v1.048h.735a.645.645 0 00.432-.135.481.481 0 00.16-.385.49.49 0 00-.16-.389.64.64 0 00-.432-.138zm0 2.791h.822a.631.631 0 00.438-.147.587.587 0 000-.82.635.635 0 00-.44-.152h-.817z" fill="#2e7e7a"/></g><g data-name="Сгруппировать 689"><path data-name="Контур 889" d="M65.335 56.444l-.26-.758H63.5l-.26.758h-.862l1.43-4.054h.968l1.425 4.054zm-1.622-1.383h1.153l-.58-1.685z" fill="#2e7e7a"/></g><g data-name="Сгруппировать 690"><path data-name="Контур 890" d="M71.289 54.834v1.61h-.816v-4.042h1.489a1.53 1.53 0 011.079.351 1.131 1.131 0 01.381.866 1.219 1.219 0 01-.233.712 1.2 1.2 0 01-.729.453l1.03 1.661h-.965l-.968-1.61zm0-1.806v1.181h.673a.642.642 0 00.469-.159.66.66 0 000-.864.647.647 0 00-.469-.159z" fill="#2e7e7a"/></g><g data-name="Сгруппировать 691"><path data-name="Контур 891" d="M78.957 56.485a1.23 1.23 0 01-.895-.362 1.178 1.178 0 01-.367-.872 1.271 1.271 0 01.288-.851 1.1 1.1 0 01.707-.4 1.614 1.614 0 01-.341-.872.919.919 0 01.3-.671 1.122 1.122 0 01.828-.3 1.2 1.2 0 01.835.278.86.86 0 01.307.654.731.731 0 01-.069.331h-.783a.477.477 0 00.053-.235.333.333 0 00-.1-.24.327.327 0 00-.247-.1.318.318 0 00-.243.1.361.361 0 00-.093.257.705.705 0 00.174.391l2.137 2.849h-.95l-.446-.614a1.192 1.192 0 01-.448.472 1.226 1.226 0 01-.647.185zm-.4-.844a.536.536 0 00.405.177.549.549 0 00.409-.177.589.589 0 00.17-.425.575.575 0 00-.17-.42.556.556 0 00-.409-.171.543.543 0 00-.405.171.578.578 0 00-.169.42.592.592 0 00.17.425z" fill="#2e7e7a"/></g><g data-name="Сгруппировать 692"><path data-name="Контур 892" d="M33.87 64.283v1.61h-.817v-4.042h1.489a1.535 1.535 0 011.08.351 1.134 1.134 0 01.38.866 1.214 1.214 0 01-.233.712 1.192 1.192 0 01-.729.451l1.031 1.662h-.968l-.968-1.61zm0-1.807v1.182h.671a.639.639 0 00.469-.16.655.655 0 000-.862.639.639 0 00-.469-.16z" fill="#2e7e7a"/></g><g data-name="Сгруппировать 693"><path data-name="Контур 893" d="M42.853 61.839v.625h-1.518v1.06h1.344v.625h-1.344v1.118h1.518v.625h-2.334v-4.054z" fill="#2e7e7a"/></g><g data-name="Сгруппировать 694"><path data-name="Контур 894" d="M48.702 62.447a.611.611 0 00-.4.125.42.42 0 00-.153.344.5.5 0 00.112.345.717.717 0 00.3.191 3.938 3.938 0 00.405.119c.147.035.294.078.44.127a2.1 2.1 0 01.406.185.8.8 0 01.3.322 1.072 1.072 0 01.113.512 1.118 1.118 0 01-.4.858 1.515 1.515 0 01-1.055.359 1.7 1.7 0 01-1.063-.31 1.033 1.033 0 01-.405-.871h.869a.532.532 0 00.608.531.632.632 0 00.44-.145.488.488 0 00.163-.384.431.431 0 00-.215-.38 1.59 1.59 0 00-.519-.208c-.2-.046-.405-.1-.611-.168a1.141 1.141 0 01-.52-.345.951.951 0 01-.215-.651 1.083 1.083 0 01.4-.881 1.56 1.56 0 011.027-.33 1.642 1.642 0 011.012.287 1.105 1.105 0 01.417.871h-.887a.544.544 0 00-.174-.367.56.56 0 00-.395-.136z" fill="#2e7e7a"/></g><g data-name="Сгруппировать 695"><path data-name="Контур 895" d="M54.476 62.476v-.625h2.995v.625h-1.1v3.419h-.81v-3.417z" fill="#2e7e7a"/></g><g data-name="Сгруппировать 696"><path data-name="Контур 896" d="M64.455 65.893l-.26-.758h-1.574l-.262.758h-.862l1.431-4.054h.967l1.425 4.054zm-1.621-1.384h1.152l-.579-1.685z" fill="#2e7e7a"/></g><g data-name="Сгруппировать 697"><path data-name="Контур 897" d="M69.58 64.341v-2.49h.817v2.49a.865.865 0 00.211.632.814.814 0 00.605.213.827.827 0 00.609-.213.866.866 0 00.213-.632v-2.49h.812v2.49a1.472 1.472 0 01-.48 1.178 1.73 1.73 0 01-1.17.414 1.673 1.673 0 01-1.153-.411 1.5 1.5 0 01-.464-1.181z" fill="#2e7e7a"/></g><g data-name="Сгруппировать 698"><path data-name="Контур 898" d="M78.222 64.283v1.61h-.816v-4.042h1.489a1.53 1.53 0 011.079.351 1.131 1.131 0 01.381.866 1.214 1.214 0 01-.233.712 1.2 1.2 0 01-.729.451l1.03 1.662h-.967l-.968-1.61zm0-1.807v1.182h.673a.641.641 0 00.469-.16.655.655 0 000-.862.641.641 0 00-.469-.16z" fill="#2e7e7a"/></g><g data-name="Сгруппировать 699"><path data-name="Контур 899" d="M87.523 65.893l-.262-.758h-1.574l-.26.758h-.864l1.431-4.054h.968l1.425 4.054zm-1.622-1.384h1.152l-.579-1.685z" fill="#2e7e7a"/></g><g data-name="Сгруппировать 700"><path data-name="Контур 900" d="M95.306 61.839h.816v4.054h-.816l-1.83-2.8v2.8h-.816v-4.054h.816l1.83 2.8z" fill="#2e7e7a"/></g><g data-name="Сгруппировать 701"><path data-name="Контур 901" d="M100.462 62.476v-.625h2.994v.625h-1.1v3.419h-.81v-3.417z" fill="#2e7e7a"/></g></g><g data-name="Сгруппировать 507"><g data-name="Сгруппировать 703"><path data-name="Контур 902" d="M16.985 10.56c.31-.373.62-.807.932-1.242a5.787 5.787 0 013.291-2.36 1.753 1.753 0 011.243.249 2.5 2.5 0 001.8.248c.745-.124 1.242 0 1.428.435 0 .248-.124.683-.061.807a1.71 1.71 0 01-.311 1.367c-.124.061-.062.186-.062.311-.061 1.427.311.185-.31 1.615-.31.683-.373 1.3-.622 1.863-2.981 7.516.125 3.79 2.609.5a4.951 4.951 0 011.243-1.8c.869-1.243 1.925-2.362 2.794-3.665a22.96 22.96 0 014.97-4.846c.683-.435 1.3-1.118 1.926-.994a3.124 3.124 0 011.677.684 4.267 4.267 0 011.056 1.3c.124.063.185.125.248.125.869.186.869 1.056.869 1.864a2.6 2.6 0 00-.185.5 20.72 20.72 0 00-1.864 5.156 42.31 42.31 0 00-.311 2.608c-.124.808-.186 1.74-.372 2.672a4.191 4.191 0 01-.808 2.422c0 .063-.063.125 0 .249.434.373-.186.808-.373 1.242-.063.186-.186.436-.063.622a2.311 2.311 0 01-.434 2.111 2.211 2.211 0 00-.063.374c-.186.558-.31 1.056-.435 1.552.063 0 .063-.063.31-.186-.185.869-1.241 1.616-.931 2.423.434 0 .373.434.249.993a22.232 22.232 0 01-.994 3.727c.063.063 0 .124.063.186.31.62-.435 1.491-.249 2.3.063.5-.31 1.118 0 1.74a2.092 2.092 0 01-.684 1.242c-.124.249-.434.434-.682.683-.374.869-.435.932-1.243.994a5.96 5.96 0 00-.746.125c-.435.061-.745.061-.932-.25-.061-.124-.248-.185-.5-.248-.807-.186-1.057-.932-.683-1.74a49.122 49.122 0 001.18-6.336 15.477 15.477 0 00.435-1.615c.249-.745.435-1.615.808-2.485 0 .249-.125.559-.125.871.186-.124.186-.124.249-.124a8.853 8.853 0 00.373-1.367c.186-1.118.746-2.3.622-3.355a.187.187 0 010-.248c.62-.622.061-1.243.559-1.864.185-.186.123-.435.185-.559a2.89 2.89 0 01.559-2.05v-.31l-.063-.063c-.434.932-.807 1.864-1.18 2.8h-.186c.932-5.466 1.181-6.149-3.043-.249-.062-.063-.125-.124-.125-.186a.273.273 0 00-.186.063 2 2 0 01-.185.559 2.789 2.789 0 01-1.429 1.615.459.459 0 00-.311.373 1.954 1.954 0 00-.559.745c-.683 1.925-4.721 7.64-5.9 9.565a9.883 9.883 0 01-2.111 2.175c0-.373-.063-.622.124-.869h-.124c-.249.434-.559.807-.869 1.241 0-.061-.063-.061-.125-.124a2.187 2.187 0 01-1.677 1.3 4.9 4.9 0 01-3.23.188 5.138 5.138 0 01-1.926-.684c-.434-.31-.5-.249-.061-.994a32.071 32.071 0 011.864-2.857 3.893 3.893 0 00.994-2.671c1.366-6.9 5.217-15.654.124-7.7a19.1 19.1 0 01-2.113 3.043c-1.988 4.285-6.895 10.622-7.64 15.219a4.879 4.879 0 01-.435 1.366c-.373.559-.683.622-.993.374-.186-.062-.249-.062-.31-.125-.311-.745-.932-.869-1.74-.993a3.455 3.455 0 01-1.181-.56c-.061-.061 0-.372.062-.5a22.787 22.787 0 002.174-6.149 17.892 17.892 0 01.5-2.36c.188-.932 1.74-4.6 1.988-5.529l.747-2.982c.5-1.925.931-3.851 1.49-5.776a7.3 7.3 0 00.245-1.244 14.481 14.481 0 011.118-4.349c.186-.434.249-.932.5-1.428a12.307 12.307 0 01.5-1.366c.186-.435.435-.622.746-.5.31.31.745.559 1.057.869.186.248.124.622.186.993a26.938 26.938 0 01-.871 3.727c-1.429 6.895 3.914-.993 4.659-2.111.556-.808 1.305-1.554 1.86-2.362zm-3.417 24.785c.063-.124.125-.249.311-.559v-.31a1.4 1.4 0 01-.374.434.932.932 0 01-.061.435zm8.511-12.113a17.21 17.21 0 00.932-1.552 6.051 6.051 0 011.8-2.485 1.747 1.747 0 00.373-.932 20.9 20.9 0 00-3.541 5.4 1.458 1.458 0 00.436-.43zm6.088-8.386a.766.766 0 01.248-.5 20.159 20.159 0 001.988-3.107 22.082 22.082 0 00-3.167 4.412 1.548 1.548 0 00.931-.804z" fill="#2e7e7a"/></g><g data-name="Сгруппировать 704"><path data-name="Контур 903" d="M41.334 24.598a9.951 9.951 0 01-1.18-3.913 4.512 4.512 0 01.683-3.043.615.615 0 01.434-.311 12.187 12.187 0 011.865-1.242 2.74 2.74 0 011.988-.31c.5 0 1.863 1.242 2.174 1.49a8.6 8.6 0 001.18.933 4.483 4.483 0 011.243 1.863 8.706 8.706 0 00.559 1.367 15.5 15.5 0 01.372 1.8 10.787 10.787 0 00.188 1.491c.062.063.062.063.062.186-.187-.994.062.435 0 .62a11.875 11.875 0 01-.062 2.113c-.187.373.185.808.683.808 3.043-.186 4.223.248 7.2-.249.311-.125.622-.31.994-.5.124-.061.31-.186.435-.248a.594.594 0 010 .559c-.187.31.434.435.185.683-1.863 1.988-7.578 1.925-9.814 1.925h-.186c-.186 0-.373.063-.373.188s-.062.186-.124.31a15.854 15.854 0 01-1.181 3.106 7.933 7.933 0 01-1.181 1.864 3.6 3.6 0 01-.868 1.056c-.125.063-.249.186-.435.31a.721.721 0 00-.373.373 3.638 3.638 0 01-1.736 1.187 1.615 1.615 0 00-.62.248 5.9 5.9 0 01-2.547.063 3.441 3.441 0 01-2.485-1.988c-.186-.5-.373-1.118-.559-1.677a15.611 15.611 0 01-.061-3.416 9.89 9.89 0 011.056-3.416 14.005 14.005 0 012.3-3.666c.185-.061.185-.185.248-.372a.23.23 0 00-.064-.192zm7.392-2.484a19.1 19.1 0 00-.434-1.988 2.988 2.988 0 00-.87-1.491 3.118 3.118 0 00-.807-.745 7.3 7.3 0 00-1.119-.807c-.744-.622-2.112.683-2.547 1.118-1.677 2.36-.061 5.59 1.491 7.267 1.8 3.541 5.094 2.3 4.349-1.864a2.431 2.431 0 00-.062-1.49zm-5.529 12.113a5.4 5.4 0 00-.061.994c-.125.124 0 .185.061.31a1.337 1.337 0 00.683.744c.063 0 .063 0 .125-.061s.186-.124.248-.186a13.649 13.649 0 002.423-3.975 9.58 9.58 0 00.622-1.491c-1.43-.62-2.111-.061-2.921.994a8.588 8.588 0 00-1.179 2.671z" fill="#2e7e7a"/></g><g data-name="Сгруппировать 705"><path data-name="Контур 904" d="M77.114 28.265c-.373.5-.747 1.056-1.118 1.552a12.008 12.008 0 00-1.119 1.925c0 .063 0 .188-.061.188a21.156 21.156 0 01-1.242 1.739c-.684.745-1.3 1.428-1.988 2.111a12.32 12.32 0 01-2.113 1.553 15.977 15.977 0 01-3.167 1.428 27.038 27.038 0 00-3.168 0c-.869.186-2.733-.62-3.541-.932a11.56 11.56 0 01-2.422-1.366 5.515 5.515 0 01-1.989-4.038 13.55 13.55 0 010-3.168 9.855 9.855 0 01.374-1.864c.185-.434.309-.869.5-1.3a22.354 22.354 0 011.8-3.665c.188-.248.311-.5.5-.744a8.254 8.254 0 011.615-1.926c.745-.62 1.429-1.3 2.237-1.864a2.19 2.19 0 011.3-.434 1.8 1.8 0 00.559-.125 2.5 2.5 0 011.428-.31c.061.063.061.063.061 0a3.078 3.078 0 012.05.622c.063 0 .125.061.186.061a.232.232 0 00.188-.061c.185-.125.31-.186.5-.063a.691.691 0 01.248.683.912.912 0 00.063.808c.063.063 0 .186.063.248l-.373.559A7.17 7.17 0 0068.733 21a8.231 8.231 0 01.186 1.74 4.772 4.772 0 01-.061.932 17.256 17.256 0 01-1.057 3.168 1.075 1.075 0 01-.807.744c-.124 0-.249.063-.373.063a.524.524 0 01-.373-.125 4.13 4.13 0 00-1.118-.682c-.062-.063-.124-.063-.186-.125a.552.552 0 01-.249-.622c.062-.31.125-.62.188-.869a34.487 34.487 0 011.18-3.6 1.1 1.1 0 01.061-.373 2.515 2.515 0 01-.248.186 12.815 12.815 0 01-1.491 2.111 13.263 13.263 0 00-1.3 2.236c-.5 1.057-.993 2.05-1.491 3.106a16.2 16.2 0 00-1.118 3.044 4.671 4.671 0 00-.185.993 2.4 2.4 0 00.185 1.3c.188.373.373.808.559 1.242a5.335 5.335 0 00.5.745c.311.373 1.865-.249 2.3-.31a13.977 13.977 0 005.466-2.485 39.717 39.717 0 003.479-2.981l.932-1.118c.559-.745 2.3-1.988 2.858-2.8.309-.435 1.3-.994 1.615-1.428.186-.248 0 .869.31.683a9.738 9.738 0 01-1.381 2.49z" fill="#2e7e7a"/></g><g data-name="Сгруппировать 706"><path data-name="Контур 905" d="M86.555 37.084a11.679 11.679 0 001.056 1.74 1.177 1.177 0 001.056.745 3.07 3.07 0 001.989-.188c.62-.185 2.857-1.988 3.54-2.3.249-.124 2.8-2.857 3.106-3.043a22.472 22.472 0 002.547-3.665c.622-.993 1.118-2.111 1.74-3.106.124-.249.248-.5.373-.808.061-.31.124-.5.186-.745.31.869 1.117.188.869.808a2.414 2.414 0 00-.186.808 11.467 11.467 0 01-1.18 2.3 12.441 12.441 0 01-1.057 2.485v.124c-.373.745-.932 1.552-1.3 2.36-.434.5-3.354 3.727-3.85 4.162a3.281 3.281 0 01-1.057.62c-.932.5-3.355 2.485-4.287 2.734a10.37 10.37 0 01-1.925.31 3.509 3.509 0 01-2.671-.993c-.31-.374-.684-.808-.994-1.242-.683-1.181-1.552-2.485-2.174-3.852-.559-.683-.746-1.242-1.3-.434-.124.186-.124.559-.249.745a10.066 10.066 0 00-.62 1.118 5.173 5.173 0 01-.559 1.18c-.249.249-.435.373-.745.31a1.2 1.2 0 00-.932.311c-1.3.559-1.8.559-2.733-.249a4.728 4.728 0 01-1.863-3.416.67.67 0 01-.063-.373 11.583 11.583 0 00-.062-2.919 24.746 24.746 0 01.062-3.727 14.181 14.181 0 00.185-1.615 23.821 23.821 0 01.994-5.093c.311-.994.62-2.05.994-2.982.558-1.739 1.3-3.479 2.05-5.217.434-.747.682-1.553 1.117-2.236a66.833 66.833 0 013.665-6.584 23.736 23.736 0 012.858-3.541c.434-.372.869-.807 1.366-1.18a2.674 2.674 0 011.553-.435c.061 0 .186.186.31.249a5.216 5.216 0 001.677 1.614 11.954 11.954 0 012.858 3.168 3.654 3.654 0 01.62 2.05v.559a.8.8 0 01-.62.559 1.6 1.6 0 00-.435-.249c-.124-.185-.374-.31-.5-.5-.62-.5-1.117-.434-1.8.249-.559.5-1.118 1.181-1.74 1.74a2.063 2.063 0 01-.372.62c-.622.993-1.3 1.864-1.926 2.733a1.286 1.286 0 01-.186.434 10.741 10.741 0 01-.932 1.926c-.434.871-.931 1.74-1.366 2.733-.249.435-.435.808-.683 1.3-.5 1.18-1.118 2.423-1.616 3.665a31.8 31.8 0 00-1.739 4.6c-.063.373-.186.62-.249.932a22.021 22.021 0 01-.559 2.36c-.248 1.988.311 1.925.745 1.242.932-1.428 1.615-3.106 2.671-4.534a29.026 29.026 0 013.541-4.224 4.877 4.877 0 014.038-1.181.842.842 0 01.745.559 1.564 1.564 0 00.249.435 3.72 3.72 0 01.683 2.3 14.631 14.631 0 01-.683 4.534c-.063.248-.063.373-.124.622a8.644 8.644 0 01-1.181 2.235c-.373.311-.622.683-.932.932a3.355 3.355 0 01-1.428 1.118 4.289 4.289 0 00-.808.31c-.186 0-.186.249-.373.31a3.783 3.783 0 00.616 1.683zm-13.108-5.776v1.3a2.272 2.272 0 000-1.301zm11.306-3.851a7.9 7.9 0 01-.745 1.615c-.249.62-.622 1.056-.808 1.615-.683.994 1.242.373 1.615 0a11.3 11.3 0 003.355-4.782c.994-3.231-.186-2.921-1.74-.932a9.194 9.194 0 00-1.677 2.483z" fill="#2e7e7a"/></g><g data-name="Сгруппировать 707"><path data-name="Контур 906" d="M105.501 33.113a11.794 11.794 0 01-3.106.683 7.671 7.671 0 01-2.423-.559c-1.552-.932-1.615-1.366-1.926-3.416a4.627 4.627 0 01.311-2.609c.31-1.428 3.665-6.584 4.224-7.889a14.032 14.032 0 011.117-2.111 1.558 1.558 0 01.809-.745c.434-.186.868-.186 1.18-.5.932-.5.248-.932.869-.994a1.568 1.568 0 011.367.684c.249.061.249.373.5.62.186.124.124.373.124.622-.372 1.552-1.74 4.472-2.111 5.963a13.456 13.456 0 00-.559 2.547 6.734 6.734 0 01-.559 1.8c-.125.5-.435 1.428-.125 1.677.249.31.374 1.367.746 1.242 1.491-.807 3.479-.869 4.287-1.863.5-.684.808-.373 1.3-.994a4.331 4.331 0 00.746-1.118c.373-.807.435-.559.745-1.242a13.548 13.548 0 011.428-2.236 4.686 4.686 0 01.808-1.428c.62-.186.559-.124.807-.063.932-.061.124 0 .683.31.125.249 0 .5.187.622-.435 1.181-.5 2.423-1.057 3.79-.186.434-.061 0-.434.558a2.874 2.874 0 01-.435 1.43c-.249.559-.186 1.241-.559 1.739-.5 2.111-.745 3.23-.745 3.479-.186.808 1.988 1.367 4.162.683a15.5 15.5 0 005.156-4.968c.435-.747.808-1.491 1.491-2.485.62-1.118 1.118.745.869 1.18a4.1 4.1 0 00-.373.747c-.5.372-1.056 2.359-1.49 2.733-.125.124-.062.31-.374.434a26.033 26.033 0 01-3.665 3.79c-.558.124-.621.31-1.18.558a3.7 3.7 0 01-1.118.808 1.589 1.589 0 00-.683.435.759.759 0 00-.808.186c-1.181.683-6.212.932-6.584-1.181-.31-1.925-.62-2.981-.061-5.093v-.249a23.646 23.646 0 01-3.541 2.423z" fill="#2e7e7a"/></g><g data-name="Сгруппировать 708"><path data-name="Контур 907" d="M139.851 28.451c.063 1.552.559.993 2.858.62a5.288 5.288 0 002.981-1.554c.559-.558 1.243.125 1.553.436a6.831 6.831 0 01-.932 1.614 12.119 12.119 0 01-5.9 1.8c-1.554.372-1.677 1.18-2.235 2.422l-.249.5a7.471 7.471 0 01-.932 1.865c-.125.123-.249.31-.373.372l-.622.745a4 4 0 01-1.056 1.242l-.434.5-.622.559a.872.872 0 01-.559 0 3.216 3.216 0 00-.622-.373 1.713 1.713 0 01-.062-.559c-.124-.559-.31-1.056-.869-1.118a2.729 2.729 0 01-.622-.559 1.933 1.933 0 00-.744-.684 1.643 1.643 0 01-.186-2.173 2.444 2.444 0 01.931-1.118 5.094 5.094 0 011.243-.745 13.7 13.7 0 012.239-.875 2.4 2.4 0 00.994-1.367 43.428 43.428 0 001.117-5.653V22.24a.8.8 0 00-.061-.374c-.062-.31-.374-.434-.559-.185a.435.435 0 00-.249.31 14.1 14.1 0 00-1.181 2.111c-.932 1.8-1.8 3.727-2.732 5.466-.684 1.3-1.306 2.485-1.865 3.851-.932 2.236-3.043 4.473-3.85 6.9a2.289 2.289 0 01-.684 1.118c-.31.124-.434.62-.434.993a4.422 4.422 0 01-.186 1.3 2.729 2.729 0 01-.373.622 5.807 5.807 0 00-.684 1.056 16.041 16.041 0 00-1.242 4.783 13.465 13.465 0 01-.249 2.235 1.355 1.355 0 01-.744 1.181 1.667 1.667 0 00-.745.932c-.063.063-.249.31-.31.31-.187 0-.25.435-.374.622h-.061c-.993.186-1.615-.559-1.988-1.74a14.975 14.975 0 01-.559-3.726 52.513 52.513 0 01.435-8.821c.124-1.181.372-2.423.559-3.541a41.371 41.371 0 011.18-5.653q1.024-4.1 2.236-8.013c.186-.622.434-1.18.62-1.926.746-1.863 1.367-3.85 2.113-5.776a29.2 29.2 0 011.242-2.919.677.677 0 01.932 0l1.491.932.061.063a7.642 7.642 0 011.677 4.348 8.558 8.558 0 01-.185 3.043c-.374 1.491-.809 3.107-1.368 4.659-.372.993-.744 2.235-1.117 3.354-.994 3.479.993 3.044 1.429 1.988.186-.5 1.118-1.739 1.3-2.359l2.049-4.225a6.892 6.892 0 011.12-1.988c.434-.5.869-1.118 1.366-1.615a2.216 2.216 0 011.367-.683h1.056c.559-.124 1.056.373 1.552.808a1.678 1.678 0 01.621 1.18 14.094 14.094 0 01.186 1.491l.249 1.8zm-7.267 4.907a1.387 1.387 0 00-.62 1.366c.061.311.248.559.434.559.124-.124.31-.124.435-.248a2.335 2.335 0 00.807-.747c.683-.931.932-1.925.745-1.552-.683.312-1.243.187-1.802.622z" fill="#2e7e7a"/></g></g></g></g></svg>