<svg xmlns="http://www.w3.org/2000/svg" width="175.787" height="45.813"><g data-name="Сгруппировать 495"><path data-name="Контур 818" d="M175.445 31.091c-6.434-.236-12.895.244-17.679-1.362-1.61-.059 1.693-2.8.131-4.29l-6.441-.235c-1.542-2.2 1.743-4.226.2-6.43s-8.022-1.008-9.588-2.5c-4.789-1.606 3.285-2.025 8.112-1.849-1.564-1.488 3.219.118 3.263-1.312.087-2.858.175-5.717-6.2-8.1-1.588-.774.088-2.858.131-4.287-19.313-.707-40.237-1.474-59.636.678C71.579 2.959 52.203-.829 36.19.948c-4.852.537-12.809-2.617-16.137.838l4.826.177c-4.891 1.968-9.654-.354-14.5.184-.043 1.431-.065 2.144-1.7 2.8 3.219.118 8.068-.421 11.268.412l-.066 2.142c-3.242.6-8.027-1.007-11.268-.412l-.088 2.86c-.022.715-1.631.655-3.239.6l6.437.235-.088 2.858c-.022.717-1.63.658-3.241.6-.044 1.428-1.7 2.8-.109 3.571l4.828.177c-6.461.48-9.79 3.935-9.855 6.079 1.633-.656 1.567 1.489 3.2.832-4.893 1.967-9.81 4.649-3.394 5.6 56.265 4.208 114.294 3.47 170.67 4.1 3.237-.593 1.667-2.081 1.711-3.51z" fill="#30e2d9"/></g><g data-name="Сгруппировать 496"><g data-name="Сгруппировать 607"><path data-name="Контур 819" d="M19.284 19.027v5.655h-3.542V10.139h5.738a5.571 5.571 0 013.936 1.306 4.138 4.138 0 011.409 3.149 4.535 4.535 0 01-.766 2.466 4.187 4.187 0 01-2.506 1.7l3.563 5.925h-4.144l-3.273-5.655zm0-6.194v3.5h2.2a1.623 1.623 0 001.74-1.731 1.769 1.769 0 00-.476-1.275 1.673 1.673 0 00-1.264-.5z" fill="#fff"/></g><g data-name="Сгруппировать 608"><path data-name="Контур 820" d="M44.123 10.097v2.694h-5.261v3.129h4.641v2.693h-4.641v3.377h5.261v2.693h-8.8V10.097z" fill="#fff"/></g><g data-name="Сгруппировать 609"><path data-name="Контур 821" d="M52.906 24.682V10.139h9.468v2.694h-5.925v3.131h4.434v2.69h-4.434v6.028z" fill="#fff"/></g><g data-name="Сгруппировать 610"><path data-name="Контур 822" d="M74.099 19.027v5.655h-3.542V10.139h5.738a5.569 5.569 0 013.936 1.306 4.134 4.134 0 011.409 3.149 4.535 4.535 0 01-.771 2.47 4.184 4.184 0 01-2.506 1.7l3.563 5.925h-4.143l-3.274-5.655zm0-6.194v3.5h2.2a1.625 1.625 0 001.741-1.731 1.77 1.77 0 00-.477-1.275 1.673 1.673 0 00-1.264-.5z" fill="#fff"/></g><g data-name="Сгруппировать 611"><path data-name="Контур 823" d="M98.935 10.097v2.694h-5.262v3.129h4.641v2.693h-4.641v3.377h5.262v2.693h-8.8V10.097z" fill="#fff"/></g><g data-name="Сгруппировать 612"><path data-name="Контур 824" d="M112.654 12.729a1.648 1.648 0 00-1.088.353 1.244 1.244 0 00-.424 1.015 1.462 1.462 0 00.393 1.066 2.558 2.558 0 001.026.622q.63.217 1.408.414a15.8 15.8 0 011.544.477 6.82 6.82 0 011.4.693 3.051 3.051 0 011.026 1.17 3.891 3.891 0 01.393 1.813 4.063 4.063 0 01-1.5 3.16 5.79 5.79 0 01-3.957 1.315 6.219 6.219 0 01-3.957-1.181 4.022 4.022 0 01-1.5-3.357h3.769a1.641 1.641 0 001.782 1.741 1.7 1.7 0 001.2-.4 1.341 1.341 0 00.434-1.026 1.373 1.373 0 00-.394-1.015 2.723 2.723 0 00-1.026-.622q-.632-.227-1.409-.425a14.232 14.232 0 01-1.543-.486 7.681 7.681 0 01-1.4-.695 2.968 2.968 0 01-1.026-1.16 3.843 3.843 0 01-.394-1.792 3.973 3.973 0 011.513-3.253 5.953 5.953 0 013.863-1.22 6.256 6.256 0 013.8 1.066 4.048 4.048 0 011.513 3.366h-3.854a1.95 1.95 0 00-.507-1.212 1.477 1.477 0 00-1.085-.427z" fill="#fff"/></g><g data-name="Сгруппировать 613"><path data-name="Контур 825" d="M136.022 10.139h3.542v14.543h-3.542v-6.028h-5.614v6.028h-3.543V10.139h3.542v5.825h5.614z" fill="#fff"/></g></g><g data-name="Сгруппировать 497"><g data-name="Сгруппировать 615"><path data-name="Контур 826" d="M44.296 40.01v5.753h-1.4v-3.246l-1.337 3.246h-1.041l-1.335-3.246v3.246h-1.4V40.01h1.606l1.657 3.967 1.647-3.967z" fill="#2e7e7a"/></g><g data-name="Сгруппировать 616"><path data-name="Контур 827" d="M54 45.763l-.319-.967h-2.065l-.321.967h-1.491l2-5.769h1.705l1.992 5.769zm-2.032-2.035h1.36l-.68-2.049z" fill="#2e7e7a"/></g><g data-name="Сгруппировать 617"><path data-name="Контур 828" d="M61.523 44.981a3.03 3.03 0 010-4.221 2.9 2.9 0 012.1-.832 2.958 2.958 0 011.7.508 2.655 2.655 0 011.041 1.41h-1.672a1.1 1.1 0 00-1.049-.631 1.466 1.466 0 00-1.136.45 1.962 1.962 0 000 2.409 1.433 1.433 0 001.111.451 1.275 1.275 0 00.815-.25 1.205 1.205 0 00.421-.668h-1.622v-1.065h3.13v1.066a2.8 2.8 0 01-.86 1.468 2.589 2.589 0 01-.832.531 2.729 2.729 0 01-1.052.206 2.9 2.9 0 01-2.095-.832z" fill="#2e7e7a"/></g><g data-name="Сгруппировать 618"><path data-name="Контур 829" d="M75.742 45.763l-.32-.967h-2.065l-.319.967h-1.491l2-5.769h1.705l1.991 5.769zm-2.033-2.035h1.361l-.681-2.049z" fill="#2e7e7a"/></g><g data-name="Сгруппировать 619"><path data-name="Контур 830" d="M86.609 40.01v1.066l-2.451 3.621h2.451v1.066h-4.064v-1.066l2.449-3.621h-2.449V40.01z" fill="#2e7e7a"/></g><g data-name="Сгруппировать 620"><path data-name="Контур 831" d="M92.45 45.763V40.01h1.4v5.753z" fill="#2e7e7a"/></g><g data-name="Сгруппировать 621"><path data-name="Контур 832" d="M103.649 39.994h1.4v5.769h-1.4l-2.344-3.635v3.631h-1.4v-5.765h1.4l2.344 3.63z" fill="#2e7e7a"/></g><g data-name="Сгруппировать 622"><path data-name="Контур 833" d="M114.582 39.994v1.065h-2.083v1.239h1.836v1.065h-1.836v1.335h2.083v1.066h-3.483v-5.77z" fill="#2e7e7a"/></g></g></svg>