<svg xmlns="http://www.w3.org/2000/svg" width="150.401" height="77.378"><g data-name="Сгруппировать 489"><g data-name="Сгруппировать 554"><path data-name="Контур 774" d="M104.346 41.491a19.212 19.212 0 00-1.242 2.537l-.175.325c.044-.1.09-.191.133-.288a1.542 1.542 0 01-.094.178l-.044.118c-.539 1.006-1.09 2.062-1.569 2.762-.377.381-.605.639-.992 1.075-.612.689.387-1.188.622-1.679-.539.614-1.162 1.534-1.927 2.6-.071.086-.144.181-.215.269a30.768 30.768 0 002.6-4.7l.064.106c.335-.747.571-1.171.754-1.645a18.939 18.939 0 00.688-1.822l.019-.056a6.172 6.172 0 00-.7 1.424l-.192.471a30.509 30.509 0 00-.433-22.926 30.636 30.636 0 00-1.613-3.229 35.361 35.361 0 011.91 3.1 3.115 3.115 0 00.05-1.745 9.5 9.5 0 00-.605-1.91 33.23 33.23 0 00-.689-1.342l-.441-.8a6.037 6.037 0 00-.551-.862 23.568 23.568 0 00-1.535-2c-.085-.119-.166-.237-.255-.358l-1.183-1.425-.636-.752c-.229-.241-.477-.471-.722-.712a44.771 44.771 0 00-5.263-3.533l-1.174-.646-.476-.339-1.916-.784-.939-.412c-.458-.183-.9-.31-1.3-.447a30.725 30.725 0 00-22.845.324 16.681 16.681 0 00-2.014.92 21.424 21.424 0 00-1.96 1.041l-1.866 1.2-.462.3-.432.346-.859.693a30.478 30.478 0 00-3.187 2.97c-.494.519-.917 1.1-1.371 1.64-.291.352-.568.708-.832 1.073a6.934 6.934 0 00-.42.608c-.314.294-.726.7-1.217 1.248a13.744 13.744 0 00-1.515 2.22 30.239 30.239 0 00-3.432 8.92l-.138.589-.081.595-.149 1.169c-.049.385-.089.762-.133 1.133s-.021.741-.03 1.1c0 .715.006 1.4.027 2.027a16.718 16.718 0 00.249 1.736c-.023.475-.034.965-.034 1.452.02.483.093.957.148 1.409A13.081 13.081 0 0042.179 39a43.143 43.143 0 001.566 4.487l.032.094a28.783 28.783 0 005.4 9.3c-.051-.081-.162-.241-.229-.347.1.125.2.245.306.368a7.332 7.332 0 00.477.576 29.654 29.654 0 004.189 4.033l1.33.934a13.372 13.372 0 001.361.908l1.405.827.695.41c.237.123.48.229.718.344a28.337 28.337 0 005.321 2.034c.949.188 1.845.38 2.708.57l2.539.343c.242.038.484.06.725.078l.061.007.183.023.16.019c.161.017.323.035.493.05l.073.007c.363.03.741.056 1.13.075a35.198 35.198 0 01-1.122-.084l.039-.049c.233.008.465.016.7.032.359.012.718.03 1.077.035.11.006.214.019.326.021l2.2-.032a18.128 18.128 0 001.912-.134 9.727 9.727 0 011.205-.057c.955-.367-.941-.043-2.615.169.876-.105 1.828-.282 2.8-.433s1.937-.479 2.881-.695l.341-.085c-.2.059-.387.118-.563.175a8.593 8.593 0 01-1.687.41c-.445.185-.266.2.323.1a26.193 26.193 0 005.294-1.749l.017-.006c.343-.112.646-.234.923-.317l.8-.542.376-.141c-.1.024-.213.057-.33.091a24.508 24.508 0 005.688-3.717c.133-.159.228-.279.3-.374.585-.345-.244.3-.395.513.335-.258.658-.491.938-.727l.721-.689a6.6 6.6 0 00.872-.981l-1.163 1.043-.58.52-.346.256c.1-.142.123-.207.109-.235.134-.133.262-.265.376-.4a11.756 11.756 0 011.041-1.088 43.773 43.773 0 003.9-3.812c-.021.05-.044.1-.067.149l-.336.436c-.658.839-1.548 1.74-1.886 2.136l1.453-1.374a5.08 5.08 0 00.373-.6 2.068 2.068 0 01.33-.369c.012 0 .032 0 .068-.025a.045.045 0 01.021.031l.068-.1c.039-.034.086-.074.144-.128l.013-.1.512-.749c.014-.036.013-.05 0-.051.223-.226.446-.448.689-.718a22.476 22.476 0 001.425-2.085l.039-.112a24.777 24.777 0 001.463-2.637 8.345 8.345 0 00.551-1.764l.054-.153a5.9 5.9 0 00.213-1.086 1.859 1.859 0 00.039-.368zm-4.968 9.477v-.035l.088-.1.1-.109c-.056.074-.117.155-.188.244z" fill="#30e2d9"/></g><g data-name="Сгруппировать 555"><path data-name="Контур 775" d="M103.66 21.009l-.208-.592-.03-.044c.067.182.145.391.228.642.001.002.002-.005.01-.006z" fill="#30e2d9"/></g><g data-name="Сгруппировать 556"><path data-name="Контур 776" d="M103.421 20.374a2.6 2.6 0 01-.168-.552c-.272-.433-.022.357.32 1.35.453 1.006-.614-1.495-.152-.798z" fill="#30e2d9"/></g><g data-name="Сгруппировать 557"><path data-name="Контур 777" d="M103.597 20.096c.243.614.587 1.619.406 1.383l.421.852-1.027-2.835c.115.566.4 1.5.258 1.513l.424 1.21a16.14 16.14 0 01-.482-2.123z" fill="#30e2d9"/></g><g data-name="Сгруппировать 558"><path data-name="Контур 778" d="M105.368 26.675a1.574 1.574 0 00-.009.534 1.866 1.866 0 00.009-.534z" fill="#30e2d9"/></g><g data-name="Сгруппировать 559"><path data-name="Контур 779" d="M105.359 27.208c-.08.232-.373-.992-.163 1.125-.032-.6-.066-1.195.063-.934l.073.62c.078.161.048-.37.027-.811z" fill="#30e2d9"/></g><g data-name="Сгруппировать 560"><path data-name="Контур 780" d="M104.026 22.866c-.054-.247-.135-.486-.2-.73-.069.162.078.492.175.953a11.525 11.525 0 01.294 1.589l.144.425-.272-1.489z" fill="#30e2d9"/></g><g data-name="Сгруппировать 561"><path data-name="Контур 781" d="M97.413 53.965l-.113.069-.176.244z" fill="#30e2d9"/></g><g data-name="Сгруппировать 562"><path data-name="Контур 782" d="M96.262 55.041a8.4 8.4 0 00-.989.9c.523-.428 1.067-.843 1.579-1.292.1-.141.182-.251.272-.374a4.369 4.369 0 01-.862.766z" fill="#30e2d9"/></g><g data-name="Сгруппировать 563"><path data-name="Контур 783" d="M97.1 54.155l.2-.12a15.985 15.985 0 011.486-1.67 27.169 27.169 0 001.684-2.24 63.616 63.616 0 00-1.707 2.158z" fill="#30e2d9"/></g></g><g data-name="Сгруппировать 490"><g data-name="Сгруппировать 565"><path data-name="Контур 784" d="M4.36 29.079v.174a.939.939 0 00-.963 1.067v4.811c0 2.737-1.461 3.768-3.35 4.047l-.046-.175c1-.359 1.936-1.287 1.936-3.8v-3.466c0-2.181-.012-2.482-.9-2.482v-.174z" fill="#2e7e7a"/></g><g data-name="Сгруппировать 566"><path data-name="Контур 785" d="M19.143 37.241h-2.98v-.174c.765 0 .406-.95.266-1.276l-.37-.927h-2.876c-.162.463-.777 2.272.95 2.2v.174H11.41v-.174c.37-.012.66 0 1.727-2.7l1.983-5.287h.15c2.133 5.113 2.91 7.1 2.91 7.1.382.927.649.869.962.893zm-3.153-2.55l-1.438-3.617-1.334 3.617z" fill="#2e7e7a"/></g><g data-name="Сгруппировать 567"><path data-name="Контур 786" d="M36.905 37.068v.174h-3.234v-.174c.486 0 .835-.336.835-1.206v-6.283l-2.933 7.767h-.174l-3.247-7.025v4.011c0 .673.093 2.737 1.542 2.737v.174h-3.4v-.174c1.577 0 1.681-2.076 1.681-2.737v-4.29a1.4 1.4 0 00-1.3-.788v-.174h2.621l2.9 6.226 2.307-6.226h2.319v.174c-.5 0-.893.278-.893 1.02v5.589c.003.869.477 1.205.976 1.205z" fill="#2e7e7a"/></g><g data-name="Сгруппировать 568"><path data-name="Контур 787" d="M47.739 29.079v.174c-.5 0-.9.255-.9.974v5.693c0 .789.417 1.148.9 1.148v.174H44.5v-.174c.5 0 .9-.359.9-1.148v-5.693c0-.719-.395-.974-.9-.974v-.174z" fill="#2e7e7a"/></g><g data-name="Сгруппировать 569"><path data-name="Контур 788" d="M61.496 34.772v2.469h-6.18v-.174c.487 0 .649-.51.649-1.3v-5.275c0-.719-.139-1.241-.649-1.241v-.174h6.03v2.145h-.175c-.2-1.96-2.77-1.971-3.246-1.971h-.522v3.78h.58c.162 0 1.658 0 1.75-1.182h.178v2.55h-.174c-.093-1.193-1.6-1.193-1.75-1.193h-.58v3.861h.476c.51 0 3.072.023 3.443-2.3z" fill="#2e7e7a"/></g><g data-name="Сгруппировать 570"><path data-name="Контур 789" d="M77.833 35.896a1.414 1.414 0 01-1.334 1.449s-1.147.105-1.611-.58l-.649-.95c-.441 1.322-2.818 2.307-3.976.7-1.16-1.588.359-2.864 1.276-3.4l.579-.347-.615-.927c-1.089-1.507-.359-2.957.94-3.178a1.7 1.7 0 011.681.476c.453.534.962 1.9-.8 3.153l1.461 2.168a1.949 1.949 0 011.334-1.263.931.931 0 01.777.139.642.642 0 01.069.939.677.677 0 01-.95.081.624.624 0 01-.221-.451c0-.244-.626-.059-.916.695l.916 1.322a1.245 1.245 0 00.963.534c.405 0 .811-.127.9-.557zm-3.722-.255l-1.89-2.725-.579.372a1.846 1.846 0 00-.2 2.735 1.59 1.59 0 002.669-.382zm-1.727-4.742l.835 1.228c1.519-1 1.251-2.226.742-2.864a1.212 1.212 0 00-1.241-.336 1.287 1.287 0 00-.336 1.973z" fill="#2e7e7a"/></g><g data-name="Сгруппировать 571"><path data-name="Контур 790" d="M93.173 37.241h-2.98v-.174c.765 0 .406-.95.266-1.276l-.37-.927h-2.876c-.162.463-.777 2.272.95 2.2v.174h-2.724v-.174c.37-.012.66 0 1.727-2.7l1.983-5.287h.15c2.133 5.113 2.91 7.1 2.91 7.1.382.927.649.869.962.893zm-3.153-2.55l-1.438-3.617-1.334 3.617z" fill="#2e7e7a"/></g><g data-name="Сгруппировать 572"><path data-name="Контур 791" d="M109.462 29.079v.174c-1.716-.012-1.681 2.2-1.681 2.737v5.252h-.5l-5-6.366v3.435c0 .522-.013 2.76 1.554 2.76v.174h-3.432v-.174c1.7 0 1.7-2.238 1.7-2.76v-3.617l-.463-.592c-.742-.927-1.079-.823-1.38-.846v-.174h2.492l4.847 6.11v-3.2c0-.534 0-2.748-1.555-2.737v-.174z" fill="#2e7e7a"/></g><g data-name="Сгруппировать 573"><path data-name="Контур 792" d="M125.811 29.079v.174c-1.717-.012-1.682 2.2-1.682 2.737v5.252h-.5l-5-6.366v3.435c0 .522-.012 2.76 1.553 2.76v.174h-3.425v-.174c1.7 0 1.7-2.238 1.7-2.76v-3.617l-.463-.592c-.742-.927-1.079-.823-1.38-.846v-.174h2.492l4.847 6.11v-3.2c0-.534 0-2.748-1.553-2.737v-.174z" fill="#2e7e7a"/></g><g data-name="Сгруппировать 574"><path data-name="Контур 793" d="M136.643 29.079v.174a.844.844 0 00-.9.974v5.693c0 .789.418 1.148.9 1.148v.174h-3.234v-.174c.5 0 .9-.359.9-1.148v-5.693c0-.719-.394-.974-.9-.974v-.174z" fill="#2e7e7a"/></g><g data-name="Сгруппировать 575"><path data-name="Контур 794" d="M150.402 34.772v2.469h-6.179v-.174c.486 0 .648-.51.648-1.3v-5.275c0-.719-.139-1.241-.648-1.241v-.174h6.029v2.145h-.174c-.2-1.96-2.771-1.971-3.247-1.971h-.521v3.78h.579c.163 0 1.659 0 1.751-1.182h.174v2.55h-.174c-.093-1.193-1.6-1.193-1.751-1.193h-.579v3.861h.475c.51 0 3.072.023 3.444-2.3z" fill="#2e7e7a"/></g></g><g data-name="Сгруппировать 491"><g data-name="Сгруппировать 577"><path data-name="Контур 795" d="M54.31 77.379a2.913 2.913 0 01-1.665-.382v-1.249h.1a1.607 1.607 0 001.567 1.534c.838 0 1.013-1.021.233-1.58l-1.033-.663c-.774-.493-1.242-1.111-.721-1.852a1.479 1.479 0 011.286-.5A3.394 3.394 0 0155.65 73v1.092h-.1a1.448 1.448 0 00-1.476-1.306c-.7 0-1.1.884-.188 1.476l1.04.682c.865.572 1.118 1.28.7 1.9.003.004-.289.535-1.316.535z" fill="#2e7e7a"/></g><g data-name="Сгруппировать 578"><path data-name="Контур 796" d="M64.222 72.745v1.228h-.1c-.039-1.111-1.275-1.131-1.32-1.131h-.254v3.77c0 .435.241.611.514.611v.1h-1.82v-.1c.272 0 .513-.176.513-.611v-3.77h-.254c-.1 0-1.275.02-1.313 1.131h-.1v-1.228z" fill="#2e7e7a"/></g><g data-name="Сгруппировать 579"><path data-name="Контур 797" d="M68.777 75.741v-2.333c0-.417-.2-.566-.487-.566v-.1h1.846v.1c-.279 0-.565.084-.565.572v2.38a1.125 1.125 0 001.144 1.248 1.149 1.149 0 001.118-1.269v-1.845c0-.313 0-1.092-.827-1.086v-.1h1.827v.1c-.916-.006-.9.773-.9 1.086v1.845a1.468 1.468 0 01-1.593 1.606 1.512 1.512 0 01-1.563-1.638z" fill="#2e7e7a"/></g><g data-name="Сгруппировать 580"><path data-name="Контур 798" d="M78.604 77.321h-1.56v-.1c.279 0 .462-.293.462-.735v-2.911c0-.4-.176-.735-.462-.735v-.1h1.56c1.293 0 2.652.4 2.652 2.3.001 1.943-1.359 2.281-2.652 2.281zm0-4.479h-.286v4.381h.286c.662 0 1.69-.085 1.69-2.177.001-2.06-1.013-2.204-1.69-2.204z" fill="#2e7e7a"/></g><g data-name="Сгруппировать 581"><path data-name="Контур 799" d="M87.488 72.745v.1c-.279 0-.506.144-.506.546v3.191c0 .441.234.644.506.644v.1h-1.813v-.1c.28 0 .507-.2.507-.644v-3.191c0-.4-.221-.546-.507-.546v-.1z" fill="#2e7e7a"/></g><g data-name="Сгруппировать 582"><path data-name="Контур 800" d="M93.989 77.379a2.107 2.107 0 01-2.177-2.313 2.186 2.186 0 114.355 0 2.106 2.106 0 01-2.178 2.313zm0-4.594c-.773 0-1.248.5-1.248 2.282s.475 2.217 1.248 2.217 1.235-.429 1.235-2.217-.467-2.283-1.235-2.283z" fill="#2e7e7a"/></g></g></svg>