<svg xmlns="http://www.w3.org/2000/svg" width="101.464" height="96.878"><g data-name="Сгруппировать 901"><path data-name="Контур 700" d="M86.233 12.293l-2-2c7.043-5.039-.989-7.03-2.74-10.289A28.024 28.024 0 0170.43 7.057l-3.019 3.019c-17.706 17.707-33.384 35.337-51.6 51.674A345.677 345.677 0 0049.46 30.034c.24.408.41 1.055 1.079.919-8.817 13.83-23.4 20.39-33.217 33.217l-1.99-1.99A295.491 295.491 0 012.238 73.241a9.066 9.066 0 00-2.237 6.488c15.5-8.563 28.316-22.075 41.764-33.676-5.283 5.283-10.822 11.824-17.109 16.106-8.551 6.547-14.844 13.843-23.142 19.135-.465.269-.942.532-1.418.8.091 1.056.233 2.062.357 2.955 1 4.012 3.749 8.278 9.276 7.762l2.264-2.263a9.524 9.524 0 013.027 3.131c5.419-4.346 10.721-8.815 16.059-13.239a138.383 138.383 0 0120.186-15.823c-7 5-13.623 10.381-20.186 15.823-5.112 4.674-10.115 9.568-15.256 14.354 1.024 1.356 2.135 2.38 3.939 2.015 3.013-.008 6.8-6.8 10.317-9.315 10.307-6.3 18.865-15.86 28.673-22.66 7.041-5.036 12.579-11.576 18.119-18.119 7.3-9.3 18.364-16.359 23.153-25.157 4.035-8.05-5.245-12.801-13.791-9.265z" fill="#30e2d9"/><g data-name="Сгруппировать 479"><path data-name="Контур 706" d="M28.833 45.836l-11.9-16.956v9.851c0 2.527.157 6.821 4.768 6.821v.285H11.659v-.285c4.357 0 4.988-4.326 4.988-6.821v-10.23l-1.488-2.112c-1.894-2.493-3.126-2.462-3.946-2.526v-.252h10.072l10.736 15.5V30.68c0-2.937-1.011-6.821-4.516-6.821v-.252h9.568v.252c-3.915 0-4.767 3.884-4.767 6.821v15.156z" fill="#2e7e7a"/></g><g data-name="Сгруппировать 480"><path data-name="Контур 707" d="M56.901 39.647v6.19H38.46v-.285c1.327 0 1.832-1.894 1.832-4.042V27.964c0-1.958-.442-4.1-1.832-4.1v-.252h18.03v6.473h-.284c0-6.157-8.62-6.189-8.62-6.189h-1.137v10.573h2.558a3.718 3.718 0 003.726-3.726h.284v7.736h-.284a3.749 3.749 0 00-3.726-3.726h-2.558v10.8h1.138s9.029.347 9.029-5.9z" fill="#2e7e7a"/></g><g data-name="Сгруппировать 481"><path data-name="Контур 708" d="M94.756 23.607v.252c-1.263 0-3.189.978-5.494 6.536l-5.525 15.441H82.6c-2.937-6.853-4.831-11.273-6.094-14.146l-5.057 14.146h-1.137c-7.956-18.6-8.367-19.419-8.367-19.419-1.073-2.526-1.515-2.495-2.336-2.558v-.252h9.851v.252c-2.021 0-.411 3.663-.411 3.663l4.768 10.831 2.526-7.042c-1.926-4.483-2.115-4.893-2.115-4.893-1.074-2.526-1.515-2.495-2.337-2.558v-.252h9.858v.252c-2.02 0-.41 3.663-.41 3.663l4.737 10.862 2.841-7.989c.79-2.241.095-6.536-3.126-6.536v-.252z" fill="#2e7e7a"/></g><g data-name="Сгруппировать 482"><path data-name="Контур 709" d="M38.004 50.978v.252c-1.263 0-3.189.978-5.494 6.536l-5.525 15.441h-1.137c-2.937-6.853-4.831-11.273-6.094-14.146l-5.053 14.146h-1.137c-7.956-18.6-8.367-19.419-8.367-19.419-1.073-2.526-1.515-2.495-2.336-2.558v-.252h9.851v.252c-2.021 0-.411 3.663-.411 3.663l4.768 10.83 2.526-7.042c-1.926-4.483-2.115-4.893-2.115-4.893-1.074-2.526-1.515-2.495-2.337-2.558v-.252h9.851v.252c-2.02 0-.41 3.663-.41 3.663l4.736 10.862 2.842-7.989c.789-2.241.095-6.536-3.126-6.536v-.252z" fill="#2e7e7a"/></g><g data-name="Сгруппировать 483"><path data-name="Контур 710" d="M47.632 50.978h.159c7.989 18.313 8.525 19.355 8.525 19.355 1.138 2.526 2.211 2.557 2.842 2.622v.252H48.107v-.252c2.526 0 .631-3.7.631-3.7l-1.011-2.179h-6.189c-.632 1.453-.064 5.874 3.726 5.874v.252H36.17v-.252c.947-.065 2.652-.316 5.084-5.874zm-3.189 8.714l-2.81 7.1H47.6z" fill="#2e7e7a"/></g><g data-name="Сгруппировать 484"><path data-name="Контур 711" d="M81.416 50.978v.252c-1.358 0-3.379.978-5.841 6.536l-6.221 15.441h-.916c-8.462-18.6-8.9-19.419-8.9-19.419-1.136-2.526-1.61-2.495-2.495-2.558v-.252h10.516v.252c-2.18 0-.442 3.663-.442 3.663l4.894 10.893 3.252-8.02c.947-2.336.379-6.536-3.41-6.536v-.252z" fill="#2e7e7a"/></g><g data-name="Сгруппировать 485"><path data-name="Контур 712" d="M101.465 67.014v6.19H83.024v-.285c1.327 0 1.833-1.894 1.833-4.042V55.335c0-1.957-.442-4.1-1.833-4.1v-.252h18.031v6.473h-.285c0-6.157-8.621-6.189-8.621-6.189h-1.137v10.577h2.558a3.718 3.718 0 003.726-3.726h.284v7.736h-.284a3.748 3.748 0 00-3.726-3.726h-2.558v10.8h1.137s9.03.347 9.03-5.9z" fill="#2e7e7a"/></g></g></svg>