<svg xmlns="http://www.w3.org/2000/svg" width="122.085" height="72.852"><g data-name="Сгруппировать 905"><g data-name="Сгруппировать 902"><g data-name="Сгруппировать 486"><g data-name="Сгруппировать 489"><path data-name="Контур 713" d="M54.572 39.251c.015-.843.71-2.267 1.335-1.831-.625-.436-.623-.432-.506-1.632.416.292.817-.6 1.11-1.14-.579.233-1 .794-1.851 1.9.243 1.665-2.571 2.958-2.218 4.59.695-.561 1.794-.848 2.13-1.887z" fill="#30e2d9"/></g><g data-name="Сгруппировать 490"><path data-name="Контур 714" d="M60.459 36.214l-.155-.321-.784 2.129c.032-.513.6-1.939.939-1.808z" fill="#30e2d9"/></g><g data-name="Сгруппировать 491"><path data-name="Контур 715" d="M63.618 29.736c.355.468 1.241-.3 1.655 0-.955-.574.769-1.607 1.2-2.482l-.493-.8c-1.049.434-2.146 2.58-3.3 4.241z" fill="#30e2d9"/></g><g data-name="Сгруппировать 492"><path data-name="Контур 716" d="M65.146 28.562l-.108-.836c-.172.526-.779 1.603.108.836z" fill="#30e2d9"/></g><g data-name="Сгруппировать 493"><path data-name="Контур 717" d="M61.87 28.058c-.93 1.3.83-.6.11.84.168-.531.479-1.074-.11-.84z" fill="#30e2d9"/></g><g data-name="Сгруппировать 494"><path data-name="Контур 718" d="M67.024 23.482q-.806 1.5-1.572 3.018l1.088-.947z" fill="#30e2d9"/></g><g data-name="Сгруппировать 495"><path data-name="Контур 719" d="M68.627 24.383c-.253.354-.905.74-.791.057 1.233-.6.9-1.748 2.019-2.318l-.389 1.031c.659.3.714-2.23 1.709-1.422.154-1.682-1.528.228-.9-1.651a17.3 17.3 0 01-2.916 3.547 5.981 5.981 0 001.049-.749c-.589.882-1.087 2.273-1.707 3.34 1.043-.093.952-1.257 1.926-1.835z" fill="#30e2d9"/></g><g data-name="Сгруппировать 496"><path data-name="Контур 720" d="M71.917 20.201c.752-.847 1.845-2.191 1.313-3.029-1.292.5-.786 1.187-.813 1.851-.34.169-1.094 1.022-1.207.351.264-.007.111 1.013.707.827z" fill="#30e2d9"/></g><g data-name="Сгруппировать 497"><path data-name="Контур 721" d="M74.838 16.872l-.11-1.184-.237.5-.5-.35a1.781 1.781 0 01-.138 2.012c.734-.15.434-.659.985-.978z" fill="#30e2d9"/></g><g data-name="Сгруппировать 498"><path data-name="Контур 722" d="M71.824 13.917c.828-.341.972-.838 1.412-1.694-.822 1-2.017 2.382-1.991 2.9l-.051-.172a8.855 8.855 0 00-.487 2.234c.324-1.394 2.532-2.558 1.117-3.268z" fill="#30e2d9"/></g><g data-name="Сгруппировать 499"><path data-name="Контур 723" d="M70.707 15.124l.228-1.036z" fill="#30e2d9"/></g><g data-name="Сгруппировать 500"><path data-name="Контур 724" d="M77.008 14.146c-.468.346-.911.722-1.369 1.085l.476-.139c.298-.315.582-.644.893-.946z" fill="#30e2d9"/></g><g data-name="Сгруппировать 501"><path data-name="Контур 725" d="M73.703 13.959c1.053-.985-1.027.137-.1-.859.171-.34-1.321 1.5-1.065 1.859.332-.17.524-1.366 1.165-1z" fill="#30e2d9"/></g><g data-name="Сгруппировать 502"><path data-name="Контур 726" d="M77.841 13.387c.178-.484.348-.984.552-1.457-.204.473-.374.974-.552 1.457z" fill="#30e2d9"/></g><g data-name="Сгруппировать 503"><path data-name="Контур 727" d="M80.656 11.243l-.094-.519a11.165 11.165 0 001.793-1.344 2.624 2.624 0 011.888-.726c-.518-.307-.233-1.285-1.294-.677.034.357-.309.616-.036.854-.471.229-.64-.153-1.012-.064-.383.935-1.658 1.563-1.893 2.367.185-.314.328-.281.553-.411-.579 1.575-2.077.377-1.659 1.772.117-.65 1.37-.65 1.754-1.252z" fill="#30e2d9"/></g><g data-name="Сгруппировать 504"><path data-name="Контур 728" d="M78.486 9.023l-1.041.743c-.128-.715 1.109-1.087.909-1.628-.3-.228-1.367.522-1.185.021.845 1.152-1.226 1.265.344 1.96-1.059 1.257-.987-.291-2.15 1.008l.2.875c1.061-1.65 1.785-1.385 2.923-2.979z" fill="#30e2d9"/></g><g data-name="Сгруппировать 505"><path data-name="Контур 729" d="M82.419 6.092l.778.027-.662-.35a4.557 4.557 0 011.785-.807 8.306 8.306 0 011.8-.1c1.131 0 2.127.193 2.755-.354a2.862 2.862 0 011.239-.909 6.668 6.668 0 011.442-.4c.5-.053 1.014-.083 1.513-.146q.373-.047.741-.126a5.019 5.019 0 00.742-.16c.849-.776-1.028-.137-1.218-.4-.019-1.2 1.115.335 1.353-.676-.023-.412-.609-.5-1.332-.519a12.861 12.861 0 01-2.081.071c-.755.358-.634.638-.7 1.147-.352-.346-1.178-.154-1.559-.487a4.247 4.247 0 01-1.955 1 2.9 2.9 0 00-1.828 1.136c-.773-.251 1.021-.763.493-.55l-.78.494.135.035a3.014 3.014 0 01-.788.8 6.036 6.036 0 01-1.056.661 9.831 9.831 0 01-1.966.721c.629-.222 1.272-.073.81.532l-.916-.2c-.2.61-.419 1.19-.588 1.8.5-1.311 2.443-1.041 1.843-2.24z" fill="#30e2d9"/></g><g data-name="Сгруппировать 506"><path data-name="Контур 730" d="M80.22 6.158c-1.76.913.831.668-.982 1.768l.813-.748.851-.708z" fill="#30e2d9"/></g><g data-name="Сгруппировать 507"><path data-name="Контур 731" d="M88.943 2.76L90 2.854a.777.777 0 00-1.088.113c-.222.234-.269.393.031-.207z" fill="#30e2d9"/></g><g data-name="Сгруппировать 508"><path data-name="Контур 732" d="M92.18 1.52l-.178 1.025.665-.761z" fill="#30e2d9"/></g><g data-name="Сгруппировать 509"><path data-name="Контур 733" d="M95.458 1.808c.578-.614-.3-.814-1.066-.519.72-.127 1.163.182 1.066.519z" fill="#30e2d9"/></g><g data-name="Сгруппировать 510"><path data-name="Контур 734" d="M100.45 3.041c-.713.035-.392.078-.028.219.368.174.76.45.269.85.172-.386.907-.887-.241-1.069z" fill="#30e2d9"/></g><g data-name="Сгруппировать 511"><path data-name="Контур 735" d="M104.613 5.606c-.477.061-.637-.107-.667-.336a.87.87 0 01.667.336z" fill="#30e2d9"/></g><g data-name="Сгруппировать 512"><path data-name="Контур 736" d="M87.5 6.001a2.712 2.712 0 01-.458.251z" fill="#30e2d9"/></g><g data-name="Сгруппировать 513"><path data-name="Контур 737" d="M87.801 5.84l-.3.161a1.983 1.983 0 01.3-.161z" fill="#30e2d9"/></g><g data-name="Сгруппировать 514"><path data-name="Контур 738" d="M98.33 4.493a1.172 1.172 0 01-.115-.073z" fill="#30e2d9"/></g><g data-name="Сгруппировать 515"><path data-name="Контур 739" d="M63.2 32.665a3.532 3.532 0 01-.335.632l.325-.629z" fill="#30e2d9"/></g><g data-name="Сгруппировать 516"><path data-name="Контур 740" d="M61.677 32.676c.176-1.383 1.893-.391 2.637-2.336a48.526 48.526 0 01-1.124 2.329c-1.403.492.072-1.028-1.513.007z" fill="#30e2d9"/></g><g data-name="Сгруппировать 517"><path data-name="Контур 741" d="M70.516 17.943c.006-.028.019-.045.023-.074.053-.118.036-.048-.023.074z" fill="#30e2d9"/></g><g data-name="Сгруппировать 518"><path data-name="Контур 742" d="M23.138 70.058l.018.254-1.176-.217z" fill="#30e2d9"/></g><g data-name="Сгруппировать 519"><path data-name="Контур 743" d="M23.352 70.5c.674.081 1.35.1 2.041.153a26.088 26.088 0 01-11.9-.159l.463-.23c0-.064.137-.059.392-.024.259.02.631.072 1.079.147.448.059.965.2 1.533.243l1.775.179c2.426.147 4.817-.14 4.617-.309z" fill="#30e2d9"/></g><g data-name="Сгруппировать 520"><path data-name="Контур 744" d="M23.852 70.025c.913-1.234 1.917.094 3.075-1a14.115 14.115 0 01-1.041.965 1.7 1.7 0 01-1.19.316z" fill="#30e2d9"/></g><g data-name="Сгруппировать 521"><path data-name="Контур 745" d="M27.057 67.265c.626.082 1.127-.617 1.485-.556.069.815-.978.568-1.485.556z" fill="#30e2d9"/></g><g data-name="Сгруппировать 522"><path data-name="Контур 746" d="M27.53 63.89a.792.792 0 01.223-.083 1.521 1.521 0 00-.182.222z" fill="#30e2d9"/></g><g data-name="Сгруппировать 523"><path data-name="Контур 747" d="M27.572 64.029l.1.347c-.203-.077-.195-.201-.1-.347z" fill="#30e2d9"/></g><g data-name="Сгруппировать 524"><path data-name="Контур 748" d="M27.754 63.808a2.212 2.212 0 00.426-.551l-.226.019c.256-.17.617-.666.823-.528-.556.175-.472.417-.306.9l.918-.325c.297 1.166-.803.313-1.635.485z" fill="#30e2d9"/></g><g data-name="Сгруппировать 525"><path data-name="Контур 749" d="M30.445 62.363c-.184.374-.4.7-.614 1.046-.525-.512.297-.855.614-1.046z" fill="#30e2d9"/></g><g data-name="Сгруппировать 526"><path data-name="Контур 750" d="M32.121 62.375c-.112.282-1.033.686-.347.684-.082.2-.27.263-.455.357.53-.463-.417-.889.802-1.041z" fill="#30e2d9"/></g><g data-name="Сгруппировать 527"><path data-name="Контур 751" d="M31.319 63.416a1.15 1.15 0 01-.244.167.925.925 0 01.244-.167z" fill="#30e2d9"/></g><g data-name="Сгруппировать 528"><path data-name="Контур 752" d="M34.268 61.934a3.623 3.623 0 00.335-.214c-.094.068-.171.144-.248.207z" fill="#30e2d9"/></g><g data-name="Сгруппировать 529"><path data-name="Контур 753" d="M.721 63.968a24.644 24.644 0 001.631 2.14 11.113 11.113 0 001.163.993 7.682 7.682 0 001.5.94c.468-.727.975.384 1.6-.289-.531-.332-.293-.189.339.185.16.09.337.208.545.313l.693.315c.494.216 1.033.476 1.59.689 2.27.824 4.671 1.093 3.788.671l-.664.222q.42-.349.818-.7a15.128 15.128 0 001.7.895 1.88 1.88 0 001.592.186c.022.037-.112.053-.365.052s-.618-.073-1.064-.141-.972-.138-1.522-.284-1.134-.324-1.72-.49-1.134-.439-1.663-.637l-.756-.3-.642-.329c-.788-.4-1.3-.642-1.246-.542-.062-.331.681-.148 1.8.285.561.215 1.27.385 2.006.639a8.677 8.677 0 001.169.307l1.227.282c.832.157 1.687.24 2.482.354l2.225.076a7.549 7.549 0 002.307-.3l.182.536a13.3 13.3 0 002.085-1.165 11.817 11.817 0 011.756-1.127l.443.579c-1.036-.006-1.215.46-2.217.937a8.178 8.178 0 011.929-.257 5.037 5.037 0 001.592-.318c-.277-.82-1.244-.116.293-1.011.291.112.227.467.267.723s.2.44.925.085a1.835 1.835 0 001.45-.968 2.162 2.162 0 011.1-1.209l-1.121.133a3.854 3.854 0 012.166-.707c-.612.262-2.018 1.345-1.66 2.147.576-.463 2.165-.763 2.686-1.129l-.068.717c.877.179.836-.756 1.861-.72.531-.729-.86-.5-.589-.948a2.868 2.868 0 002.007-1.089c-.52-.427-.851-.11-1.255.258s-.873.8-1.614.472a13.728 13.728 0 001.367-.538c.057-.774-.431-.467-.943-.107-.527.341-1.109.7-1.136.152.163-.811.783-.786 1.376-.859.595-.056 1.191-.157 1.139-1.108-.728.079-2.459 1.139-2.471.582.853.056.824-1 1.542-1.632.436-.047.87-.135 1.314-.206.182-.62-.159-.384-.627-.367a4.569 4.569 0 001.411-.641c.465-.328.942-.723 1.439-1.127a14.957 14.957 0 013.234-2.328c.962-1.18-.254-.528-.079-1.317 1.1-.047 1.6-1.447 2.149-2.076.207-.152-.06-.987-.448-1.014a37.728 37.728 0 01-1.055 1.853.821.821 0 00-1.353 0c.706.333.044.71-.678 1.109-.713.414-1.462.88-.962 1.537l-.491-.582c-.528.684-1.041 1.413-1.609 2.062l.124.032c-.076-.1-.416.338-.906.888a6.093 6.093 0 01-1.841 1.415c.192-.442 2.271-1.57.656-1.441.572-.925 2.444-1.56 3.661-3.1l-.624-.134c.971-1.856 3.516-3.072 4.894-4.946l.075.97c.743-.414 1.859-.872 1.893-1.848-.61.791-.587.139-.706-.189.559-1.257 2.111-2.549 2.995-4.209 0 0 .067.161.2.16.278-.6.534-1.224.8-1.832a3.235 3.235 0 011.859-.921c.117-.34.612-1.037.088-1a1.1 1.1 0 00-.308.381c-.071-1.258.587-.439.9-1.749 0 1.169.931.26 1.413.722.586-1.388-.894-.761-1.042-1.083 1.309-1.27 1.9-1.17 3-2.615-.282-.307-.931.927-1.4.806.372-.372.667-.9.59-1.06l-.873.752a13.416 13.416 0 003.372-4.733l-.262.03.718-1.1.385.8c.215-.7 1.19-.991.882-1.633l-.185.192.271-.881.144 1.171c.875-.78.4-2.945 1.522-4.449 1.07.214-1.428 2.9-.438 3.809.507-.4 1.253-1.173 1.156-1.675-.34-.129-.582.242-.825.614.287-1.742 2.535-3.2 2.144-4.7l-1.033.8c.682-1.279 2.337-1.288 1.98-2.107l.464 1.663c.266-1.567 1.417-3.055 1.808-4.461-.608-.462-1.115 1.65-1.176 1.485l-.088-.853c1.594-1.52.726-.247 2.592-2.117l-.4-.315c1.126-.257 1.324-3.025 1.892-1.507l-.675.385.527.311 1.49-2.664c.175.51.984-.719 1.213-.037l.272-1.213c.991.155-.469 2.247-.012 2.741.336.211.618-.221.733-.454-.313 1.424-1.885 1.033-2.7 2.078l.059.854-.593-.476a2.31 2.31 0 00.061 1.53c-1.6.455-1.378 2.312-2.645 3.791.544-1.584-1.18.454-1.192.116-.507.736-.587 3.3-1.766 3.429-.585.238.132-1.207-.677-.262-.359.725-.321 1.4.264 1.162a58.168 58.168 0 01-3.057 4.951l-.177-.658a3.189 3.189 0 00-.921 2.988c-.263.031-.188.19-.339-.128-1.534.842-.183 2.221-1.726 4.237.675.271 1.353-.646 1.5-1.506l.567.615a24.564 24.564 0 002.935-5.766l.068 1.011c1.741-.719-.3-1.493 1.519-2.05.328-1.057-.767.431-.626-.434.6-.515 1.081.912 1.8-.127-2.2 4.222-5.1 8.8-7.831 13 .069.163.264-.024.458-.21-.037 1.02-2.638 4.027-5.243 6.789-2.584 2.785-5.213 5.255-4.62 6.155-.4-.03-.079-.862-.8-.059.04.176-.009.517.388.548a13.468 13.468 0 00-3.733 2.831 13.827 13.827 0 01-4.125 2.955c.265.25-.226.839-.108 1.048a3.317 3.317 0 00-2.011.849 4.608 4.608 0 01-1.879.911l.5.2-.766.4-.794.344c-.531.226-1.057.465-1.593.677-.041.182.4.015.675-.05a.686.686 0 01-1.152-.22L29.06 70.8c-2.407-.051-4.769.723-7.438 1.137a14.409 14.409 0 01-8.1-.607 3.816 3.816 0 01-1.412.394 4.232 4.232 0 01-.794-.023 7.825 7.825 0 01-.924-.259l.583.464c-1.584 0 .047-.363-1.215-.565-.97.082-.664.879.589.963.6.5.1.563-.467.517a38.34 38.34 0 01-1.64-.732c-.515-.3-1.021-.6-1.512-.912l-.728-.47c-.234-.164-.449-.357-.669-.536q-.653-.547-1.261-1.107a19.682 19.682 0 01-2.032-2.459 19.991 19.991 0 01-1.319-2.637z" fill="#30e2d9"/></g><g data-name="Сгруппировать 530"><path data-name="Контур 754" d="M112.937 12.015c.028-.469 1.045.758 1.067-.3a4.452 4.452 0 00-.387-1.06 9.313 9.313 0 00-.711-.959 14.879 14.879 0 00-.418-.478l-.5-.41c-.346-.267-.685-.564-1.063-.811-1.523-1-3.241-1.692-4.673-2.68a6.824 6.824 0 00-1.728-1.244 1 1 0 00-.046.394c-.453-.1-1.067-.116-1.669-.2a7.353 7.353 0 01-1.679-.291c-.273.138-.464.683.036.567a2.71 2.71 0 01-1.848-.237c-.549-.233-1.05-.484-1.426-.191.726.26-.615.62.232.789-1.423.3-1.628-1.7-2.913-1.628-.039.167-.079.333.176.323a2.527 2.527 0 00-1.274-.015 11.178 11.178 0 00-1.322.471c-.851.3-1.528.6-1.858-.007l-.3.741c-.732-.163-.741-.553-1.743-.235-.506.5.25.442.124.741-.249-.183-.747-.013-1.322.166a3.514 3.514 0 01-1.761.335c-.25-.353.229-.307.794-.3a3.087 3.087 0 00.843-.079.705.705 0 00.564-.454c-.058-.163-.188-.153-.348-.093a13.625 13.625 0 011.486-.572 10.867 10.867 0 011.5-.294 16.767 16.767 0 012.85-.133c.905 0 1.783.108 2.6.041a8.005 8.005 0 002.44-.318c.77.566 1.27-.032 1.6-.648-.6-.235-2.456-.728-2.348.523l-1.16-.623c-.394.116-.6-1.085-.816-1.255.8.027 1.572-1.281.388-1.553 1.1-.227.99.436.872 1.079s-.249 1.268.625.986l.171-.905c-.291.473 1.316.786 1.889.461l-.253-.159a35.213 35.213 0 018.1 1.145 22.555 22.555 0 017.712 3.795 1.631 1.631 0 00.328 1.412 7.385 7.385 0 001.1.9 5.825 5.825 0 011.116.9 1.285 1.285 0 01.182 1.28c.576.318.143-1.143 1.014-.35a.475.475 0 01-.153.822l.442.335a4.111 4.111 0 01-2.808 1.126 6 6 0 01-1.717-.222c-.15-.041-.3-.089-.454-.139s-.335-.083-.5-.133a10.662 10.662 0 01-1.053-.356z" fill="#30e2d9"/></g></g><g data-name="Сгруппировать 487"><g data-name="Сгруппировать 532"><path data-name="Контур 755" d="M5.573 24.813v2.673a5.949 5.949 0 015.508-2.868 6.6 6.6 0 015.068 2.086 8 8 0 011.939 5.671v10.623h-5.54v-9.875a3.754 3.754 0 00-.93-2.722 3.886 3.886 0 00-5.117 0 3.759 3.759 0 00-.928 2.722v9.875H0V24.813z" fill="#2e7e7a"/></g><g data-name="Сгруппировать 533"><path data-name="Контур 756" d="M23.562 40.62a10.48 10.48 0 010-13.378 7.689 7.689 0 015.883-2.624 6.175 6.175 0 015.329 2.574v-2.379h5.574v18.185h-5.574v-2.639a6.3 6.3 0 01-5.411 2.867 7.62 7.62 0 01-5.801-2.606zm10.005-3.389a4.424 4.424 0 001.206-3.325 4.37 4.37 0 00-1.206-3.308 3.877 3.877 0 00-5.54.016 4.429 4.429 0 00-1.206 3.325 4.372 4.372 0 001.206 3.308 3.877 3.877 0 005.54-.016z" fill="#2e7e7a"/></g><g data-name="Сгруппировать 534"><path data-name="Контур 757" d="M52.634 38.272h1.988v4.725h-2.835a7.381 7.381 0 01-4.743-1.352q-1.679-1.353-1.678-4.644v-7.559h-1.695v-4.628h1.695v-4.432h5.574v4.432h3.65v4.628h-3.65v7.561q0 1.269 1.694 1.269z" fill="#2e7e7a"/></g><g data-name="Сгруппировать 535"><path data-name="Контур 758" d="M70.462 24.813h5.573v18.186h-5.573v-2.673a5.949 5.949 0 01-5.509 2.869 6.593 6.593 0 01-5.067-2.086 8 8 0 01-1.939-5.671V24.813h5.54v9.875a3.754 3.754 0 00.928 2.72 3.883 3.883 0 005.117 0 3.75 3.75 0 00.93-2.72z" fill="#2e7e7a"/></g><g data-name="Сгруппировать 536"><path data-name="Контур 759" d="M86.17 24.813v3.389q1.957-3.584 5.215-3.585v5.671h-1.368a4.052 4.052 0 00-2.885.912 4.3 4.3 0 00-.962 3.194v8.6h-5.573V24.813z" fill="#2e7e7a"/></g><g data-name="Сгруппировать 537"><path data-name="Контур 760" d="M95.165 40.62a10.484 10.484 0 010-13.378 7.691 7.691 0 015.883-2.624 6.174 6.174 0 015.328 2.574v-2.379h5.574v18.185h-5.574v-2.639a6.3 6.3 0 01-5.409 2.867 7.624 7.624 0 01-5.802-2.606zm10.005-3.389a4.424 4.424 0 001.206-3.325 4.37 4.37 0 00-1.206-3.308 3.877 3.877 0 00-5.54.016 4.428 4.428 0 00-1.205 3.325 4.372 4.372 0 001.205 3.308 3.877 3.877 0 005.54-.016z" fill="#2e7e7a"/></g><g data-name="Сгруппировать 538"><path data-name="Контур 761" d="M116.512 42.999V18.882h5.573v24.117z" fill="#2e7e7a"/></g></g><g data-name="Сгруппировать 488"><g data-name="Сгруппировать 540"><path data-name="Контур 762" d="M6.007 46.184v5.469h-.9v-3.746l-1.668 3.746h-.622l-1.676-3.746v3.746h-.9v-5.469h.968l1.92 4.289 1.912-4.289z" fill="#2e7e7a"/></g><g data-name="Сгруппировать 541"><path data-name="Контур 763" d="M12.224 51.652v-5.468h.9v5.469z" fill="#2e7e7a"/></g><g data-name="Сгруппировать 542"><path data-name="Контур 764" d="M22.936 46.173h.9v5.478h-.9l-2.7-4.084v4.084h-.9v-5.478h.9l2.7 4.077z" fill="#2e7e7a"/></g><g data-name="Сгруппировать 543"><path data-name="Контур 765" d="M33.073 46.173v.7h-2.125v1.66h1.888v.692h-1.888v1.724h2.125v.7h-3.024v-5.478z" fill="#2e7e7a"/></g><g data-name="Сгруппировать 544"><path data-name="Контур 766" d="M40.107 49.432v2.219h-.9v-5.467h1.889a2.047 2.047 0 011.432.46 1.516 1.516 0 01.5 1.169 1.546 1.546 0 01-1.362 1.565l1.448 2.275H42.02l-1.369-2.219zm0-2.55v1.85h.992a1.061 1.061 0 00.764-.244 1.048 1.048 0 000-1.361 1.066 1.066 0 00-.764-.244z" fill="#2e7e7a"/></g><g data-name="Сгруппировать 545"><path data-name="Контур 767" d="M52.912 51.651l-.394-1.117h-2.29l-.394 1.117h-.936l1.959-5.478h1.04l1.96 5.478zm-2.44-1.817h1.8l-.9-2.573z" fill="#2e7e7a"/></g><g data-name="Сгруппировать 546"><path data-name="Контур 768" d="M59.744 46.184h.9v4.784h1.85v.684h-2.747z" fill="#2e7e7a"/></g><g data-name="Сгруппировать 547"><path data-name="Контур 769" d="M81.834 46.184h.96l-1.621 5.469h-1.015l-1.15-4.14-1.219 4.14-1.007.008-1.551-5.477h.953l1.133 4.453 1.227-4.453h1.007l1.141 4.43z" fill="#2e7e7a"/></g><g data-name="Сгруппировать 548"><path data-name="Контур 770" d="M92.264 51.651l-.393-1.117H89.58l-.394 1.117h-.938l1.96-5.478h1.04l1.96 5.478zm-2.44-1.817h1.8l-.9-2.573z" fill="#2e7e7a"/></g><g data-name="Сгруппировать 549"><path data-name="Контур 771" d="M98.811 46.884v-.7h3.817v.7h-1.455v4.769h-.9v-4.769z" fill="#2e7e7a"/></g><g data-name="Сгруппировать 550"><path data-name="Контур 772" d="M111.592 46.173v.7h-2.125v1.66h1.889v.692h-1.889v1.724h2.125v.7h-3.022v-5.478z" fill="#2e7e7a"/></g><g data-name="Сгруппировать 551"><path data-name="Контур 773" d="M118.627 49.432v2.219h-.9v-5.467h1.889a2.047 2.047 0 011.432.46 1.515 1.515 0 01.5 1.169 1.546 1.546 0 01-1.361 1.565l1.448 2.275h-1.094l-1.37-2.219zm0-2.55v1.85h.992a1.056 1.056 0 00.763-.244 1.048 1.048 0 000-1.361 1.061 1.061 0 00-.763-.244z" fill="#2e7e7a"/></g></g></g></g></svg>