<svg width="20" height="20" viewBox="0 0 20 20" fill="none" xmlns="http://www.w3.org/2000/svg">
    <path d="M0.833008 3.75H19.1663V16.25H0.833008V3.75Z" fill="#00BCD4"/>
    <path d="M11.0456 7.20583C10.5927 7.20583 10.1584 7.38516 9.83819 7.70436C9.51797 8.02356 9.33807 8.4565 9.33807 8.90792C9.33807 9.35934 9.51797 9.79227 9.83819 10.1115C10.1584 10.4307 10.5927 10.61 11.0456 10.61C11.4984 10.61 11.9327 10.4307 12.253 10.1115C12.5732 9.79227 12.7531 9.35934 12.7531 8.90792C12.7531 8.4565 12.5732 8.02356 12.253 7.70436C11.9327 7.38516 11.4984 7.20583 11.0456 7.20583ZM11.0456 6.97375C11.1472 6.9725 11.1852 6.90917 11.1852 6.83333C11.1852 6.73208 11.0456 6.25 11.0456 6.25C11.0456 6.25 10.906 6.73208 10.906 6.83333C10.906 6.90917 10.9439 6.97375 11.0456 6.97375ZM12.986 8.90792C12.9872 9.00917 13.0506 9.04708 13.1268 9.04708C13.2285 9.04708 13.7118 8.90792 13.7118 8.90792C13.7118 8.90792 13.2281 8.76875 13.1268 8.76875C13.0506 8.76875 12.986 8.80667 12.986 8.90792ZM11.0456 10.8425C10.9439 10.8437 10.906 10.9071 10.906 10.9829C10.906 11.0842 11.0456 11.5662 11.0456 11.5662C11.0456 11.5662 11.1852 11.0842 11.1852 10.9829C11.1852 10.9071 11.1468 10.8425 11.0456 10.8425ZM9.10474 8.90792C9.10349 8.80667 9.04016 8.76875 8.96391 8.76875C8.86224 8.76875 8.37891 8.90792 8.37891 8.90792C8.37891 8.90792 8.86266 9.04708 8.96391 9.04708C9.04016 9.04708 9.10474 9.00917 9.10474 8.90792ZM11.7881 7.12083C11.8822 7.15833 11.9418 7.11458 11.971 7.04417C12.0097 6.95083 12.066 6.45208 12.066 6.45208C12.066 6.45208 11.7518 6.84417 11.7131 6.9375C11.6839 7.00792 11.6943 7.08208 11.7881 7.12083ZM12.8385 9.64833C12.801 9.7425 12.8447 9.80167 12.9152 9.83083C13.0089 9.86958 13.5093 9.92542 13.5093 9.92542C13.5093 9.92542 13.116 9.6125 13.0222 9.57375C12.9514 9.54458 12.8772 9.55458 12.8385 9.64833ZM10.3031 10.695C10.2089 10.6575 10.1493 10.7012 10.1202 10.7717C10.0814 10.865 10.0252 11.3637 10.0252 11.3637C10.0252 11.3637 10.3393 10.9717 10.3781 10.8783C10.4072 10.8079 10.3968 10.7337 10.3031 10.695ZM9.25266 8.16792C9.29016 8.07375 9.24641 8.01458 9.17599 7.98542C9.08224 7.94667 8.58182 7.89083 8.58182 7.89083C8.58182 7.89083 8.97516 8.20375 9.06891 8.2425C9.13932 8.27167 9.21391 8.26125 9.25266 8.16792ZM12.4177 7.54042C12.4902 7.61125 12.5622 7.59333 12.616 7.53958C12.6877 7.46792 12.931 7.02875 12.931 7.02875C12.931 7.02875 12.4902 7.27125 12.4185 7.34292C12.3647 7.39625 12.346 7.46875 12.4177 7.54042ZM12.4177 10.2758C12.3468 10.3483 12.3647 10.42 12.4185 10.4733C12.4902 10.545 12.931 10.7875 12.931 10.7875C12.931 10.7875 12.6877 10.3483 12.616 10.2767C12.5622 10.2229 12.4893 10.2042 12.4177 10.2758ZM9.67349 10.2758C9.60099 10.205 9.52891 10.2229 9.47516 10.2767C9.40349 10.3483 9.16016 10.7875 9.16016 10.7875C9.16016 10.7875 9.60099 10.545 9.67266 10.4733C9.72641 10.42 9.74516 10.3475 9.67349 10.2758ZM9.67349 7.54042C9.74432 7.46792 9.72641 7.39625 9.67266 7.34292C9.60099 7.27125 9.16016 7.02875 9.16016 7.02875C9.16016 7.02875 9.40349 7.46792 9.47516 7.53958C9.52891 7.59292 9.60141 7.61167 9.67349 7.54042ZM12.8385 8.16792C12.8785 8.26083 12.9518 8.27167 13.0222 8.24292C13.116 8.20417 13.5093 7.89125 13.5093 7.89125C13.5093 7.89125 13.0093 7.94708 12.9152 7.98583C12.8447 8.01458 12.7993 8.07417 12.8385 8.16792ZM11.7881 10.695C11.6947 10.735 11.6839 10.8079 11.7131 10.8779C11.7518 10.9712 12.066 11.3633 12.066 11.3633C12.066 11.3633 12.0097 10.8646 11.971 10.7712C11.9418 10.7017 11.8818 10.6562 11.7881 10.695ZM9.25266 9.64833C9.21266 9.55542 9.13932 9.54458 9.06891 9.57333C8.97516 9.61208 8.58182 9.925 8.58182 9.925C8.58182 9.925 9.08182 9.86917 9.17599 9.83042C9.24641 9.80167 9.29141 9.74167 9.25266 9.64833ZM10.3031 7.12083C10.3964 7.08083 10.4072 7.00792 10.3781 6.93792C10.3393 6.84458 10.0252 6.4525 10.0252 6.4525C10.0252 6.4525 10.0814 6.95125 10.1202 7.04458C10.1493 7.11458 10.2089 7.15958 10.3031 7.12083ZM11.4239 7.01083C11.5239 7.02917 11.5735 6.97458 11.5885 6.90042C11.6085 6.80125 11.5656 6.30125 11.5656 6.30125C11.5656 6.30125 11.3343 6.74667 11.3143 6.84625C11.2997 6.92042 11.3243 6.99125 11.4239 7.01083ZM12.9489 9.28542C12.9302 9.385 12.9852 9.43458 13.0597 9.44917C13.1593 9.46875 13.661 9.42625 13.661 9.42625C13.661 9.42625 13.2139 9.19583 13.1143 9.17583C13.0393 9.16167 12.9685 9.18625 12.9489 9.28542ZM10.6668 10.8054C10.5668 10.7871 10.5172 10.8417 10.5022 10.9158C10.4822 11.015 10.5252 11.515 10.5252 11.515C10.5252 11.515 10.7564 11.0696 10.7764 10.97C10.7914 10.8958 10.7664 10.825 10.6668 10.8054ZM9.14224 8.53083C9.16099 8.43125 9.10599 8.38167 9.03141 8.36708C8.93182 8.3475 8.43016 8.39 8.43016 8.39C8.43016 8.39 8.87724 8.62042 8.97682 8.64042C9.05141 8.65458 9.12224 8.63 9.14224 8.53083ZM12.1235 7.29958C12.2085 7.35458 12.2756 7.32333 12.3177 7.26C12.3739 7.17583 12.5268 6.69792 12.5268 6.69792C12.5268 6.69792 12.1422 7.02125 12.0856 7.10542C12.0435 7.16875 12.0393 7.24333 12.1235 7.29958Z" fill="#FFEE58"/>
    <path d="M12.6594 9.98257C12.604 10.0676 12.6357 10.1342 12.699 10.1763C12.7836 10.2326 13.2632 10.3847 13.2632 10.3847C13.2632 10.3847 12.9386 10.0013 12.8544 9.94507C12.7911 9.90299 12.7161 9.89882 12.6594 9.98257ZM9.96775 10.5163C9.88275 10.4613 9.81566 10.4926 9.77358 10.5559C9.71733 10.6401 9.56441 11.118 9.56441 11.118C9.56441 11.118 9.949 10.7947 10.0057 10.7105C10.0482 10.6476 10.0523 10.5726 9.96775 10.5163ZM9.43233 7.8334C9.48775 7.7484 9.45608 7.68174 9.39275 7.63965C9.30816 7.5834 8.82858 7.43132 8.82858 7.43132C8.82858 7.43132 9.15316 7.81465 9.23733 7.8709C9.30108 7.9134 9.37608 7.91757 9.43233 7.8334ZM12.6594 7.8334C12.7169 7.91674 12.7907 7.9134 12.854 7.8709C12.9386 7.81465 13.2627 7.43132 13.2627 7.43132C13.2627 7.43132 12.7832 7.5834 12.6986 7.63965C12.6357 7.68174 12.6032 7.74924 12.6594 7.8334ZM12.124 10.5163C12.0402 10.5734 12.044 10.6472 12.0861 10.7105C12.1423 10.7947 12.5273 11.118 12.5273 11.118C12.5273 11.118 12.3748 10.6401 12.3182 10.5559C12.2761 10.493 12.2086 10.4601 12.124 10.5163ZM9.43233 9.98257C9.37483 9.89924 9.30108 9.90257 9.23775 9.94507C9.15316 10.0013 8.829 10.3847 8.829 10.3847C8.829 10.3847 9.30858 10.2326 9.39316 10.1763C9.45608 10.1342 9.489 10.0667 9.43233 9.98257ZM9.96775 7.29965C10.0515 7.24257 10.0477 7.16882 10.0057 7.10549C9.94941 7.02132 9.56441 6.69799 9.56441 6.69799C9.56441 6.69799 9.71691 7.1759 9.77358 7.26007C9.81566 7.3234 9.88358 7.3559 9.96775 7.29965ZM12.9494 8.5309C12.9707 8.63007 13.0402 8.65465 13.1148 8.64007C13.2144 8.62049 13.6615 8.38965 13.6615 8.38965C13.6615 8.38965 13.1598 8.34715 13.0602 8.36674C12.9857 8.38174 12.9294 8.43132 12.9494 8.5309ZM11.4244 10.8055C11.3252 10.8263 11.3002 10.8959 11.3148 10.9705C11.3348 11.0697 11.5661 11.5155 11.5661 11.5155C11.5661 11.5155 11.6086 11.0155 11.589 10.9163C11.574 10.8413 11.524 10.7855 11.4244 10.8055ZM9.14275 9.28549C9.1215 9.18632 9.05191 9.16174 8.97733 9.17632C8.87775 9.1959 8.43066 9.42674 8.43066 9.42674C8.43066 9.42674 8.93233 9.46924 9.03191 9.44965C9.1065 9.43465 9.16275 9.38465 9.14275 9.28549ZM10.6673 7.0109C10.7665 6.99007 10.7915 6.92049 10.7769 6.8459C10.7569 6.74674 10.5257 6.3009 10.5257 6.3009C10.5257 6.3009 10.4832 6.8009 10.5027 6.90007C10.5177 6.97465 10.5677 7.03049 10.6673 7.0109ZM10.7415 12.5955C10.6957 12.598 10.6515 12.6038 10.6077 12.618C10.5482 12.6259 10.4911 12.6467 10.4319 12.6563L10.4082 12.6601L10.3686 12.6638C10.3711 12.6747 10.3727 12.6859 10.3727 12.6967C10.3727 12.708 10.3715 12.7192 10.3686 12.7284C10.3661 12.7372 10.3582 12.7484 10.3515 12.7551C10.3432 12.7642 10.334 12.7722 10.3236 12.7776C10.3136 12.7826 10.3019 12.7847 10.2907 12.7855C10.2794 12.7859 10.2673 12.7855 10.2565 12.7813C10.2452 12.7776 10.2344 12.7705 10.2248 12.7617C10.2132 12.7647 10.2007 12.7667 10.1894 12.768C10.1777 12.7692 10.1665 12.7692 10.1561 12.768C10.1444 12.7647 10.1319 12.7609 10.1207 12.7563C10.1094 12.7517 10.0982 12.7459 10.0877 12.7392C10.0444 12.7647 9.9965 12.7884 9.97025 12.833C9.95525 12.8534 9.95233 12.8763 9.949 12.9005C9.94691 12.9301 9.95441 12.9613 9.96733 12.9888C9.97191 12.9967 9.97566 12.9597 9.99025 12.9547C10.0144 12.9347 10.0444 12.9205 10.0748 12.9126C10.1007 12.8997 10.0973 12.9134 10.0865 12.9338C10.084 12.9442 10.0694 12.9842 10.089 12.9642C10.1748 12.9263 10.2702 12.9188 10.3627 12.9113C10.4973 12.8976 10.6323 12.8947 10.7673 12.8926C10.8944 12.8942 11.0211 12.8959 11.1482 12.9005C11.2086 12.9022 11.2694 12.9155 11.3294 12.9055C11.344 12.9017 11.3661 12.9009 11.3748 12.8926C11.3477 12.8772 11.3161 12.8767 11.2861 12.8726H11.044C10.9769 12.8659 10.9065 12.8651 10.8432 12.8397C10.8261 12.833 10.8107 12.8167 10.7944 12.8342C10.7702 12.8426 10.7444 12.8484 10.719 12.8501C10.6744 12.8534 10.6302 12.8442 10.589 12.8276C10.6186 12.7867 10.654 12.7509 10.6869 12.713C10.6607 12.7088 10.6352 12.7034 10.609 12.6972C10.6536 12.6651 10.6965 12.6292 10.7415 12.5955Z" fill="#FFEE58"/>
    <path d="M12.7171 13.0325C12.625 13.0875 12.555 12.99 12.4779 12.9608C12.4229 12.9904 12.4179 13.09 12.3667 13.1371C12.3054 13.2067 12.23 13.1175 12.2359 13.0492C12.1625 13.1108 12.1254 13.2504 12.0067 13.2321C11.9504 13.1862 11.9088 13.0904 11.8659 13.1996C11.8309 13.2529 11.7375 13.3292 11.6892 13.2483C11.6742 13.1771 11.6384 13.0933 11.5996 13.2067C11.5729 13.2867 11.4871 13.3454 11.4046 13.3104C11.3592 13.2733 11.4409 13.1367 11.3834 13.1467C11.2971 13.2037 11.2467 13.3446 11.1263 13.3333C11.0796 13.2808 11.1546 13.1925 11.1034 13.1342C11.0429 13.2117 10.9754 13.325 10.8709 13.3333C10.8204 13.2925 10.8729 13.175 10.8404 13.1579C10.7329 13.2221 10.6196 13.3367 10.4846 13.3008C10.5371 13.1 10.7575 13.0296 10.9425 13.0137C11.2609 12.9746 11.5959 13.0467 11.9025 12.9321C11.9521 12.9021 12.0721 12.8596 12.0292 12.79C11.9913 12.735 12.1275 12.7567 12.1409 12.6921C12.1329 12.6108 12.2034 12.6221 12.2725 12.615C12.5817 12.6017 12.8875 12.6667 13.1959 12.6775C13.2192 12.8275 13.0525 12.9325 12.9184 12.8862C12.8542 12.8967 12.7579 12.7392 12.7771 12.8537C12.7634 12.9129 12.7721 12.9925 12.7171 13.0325ZM10.085 12.7258C10.1567 12.7912 10.2067 12.7133 10.2738 12.685C10.4984 12.6079 10.6942 12.4733 10.8875 12.3392C11.0046 12.2425 11.1059 12.1175 11.2634 12.0862C11.57 11.9937 11.8959 12.005 12.2038 11.92C12.4379 11.6 12.8363 11.4862 13.1696 11.3021C13.2446 11.2787 13.2734 11.2175 13.2971 11.1496C13.4242 10.9492 13.5979 10.7717 13.8029 10.6508C13.9 10.5979 14.0159 10.5675 14.1254 10.5917C14.1175 10.7221 14.0425 10.8375 13.9521 10.9279C14.0263 10.9262 14.09 10.8796 14.165 10.8821C14.1909 11.0158 14.0459 11.0858 13.9688 11.1692C14.0117 11.1792 14.1763 11.1917 14.0867 11.2346C13.9725 11.3137 13.8417 11.3679 13.7363 11.4596C13.8338 11.4771 13.8446 11.4975 13.7459 11.5329C13.6921 11.5692 13.5892 11.5817 13.5792 11.6525C13.6525 11.6975 13.5454 11.7421 13.5038 11.7571C13.4246 11.7754 13.3413 11.8096 13.4467 11.8696C13.4067 11.9296 13.3217 11.9425 13.2517 11.9362C13.2729 12.0042 13.3034 12.08 13.215 12.11C13.0167 12.2596 12.7842 12.3679 12.5346 12.3929C12.8459 12.4167 13.1667 12.3592 13.4329 12.1904C13.4679 12.1492 13.6521 12.1046 13.5492 12.0696C13.5009 12.0496 13.3967 12.0271 13.3896 11.9904C13.5338 11.9017 13.7154 11.9333 13.8704 11.8808C13.8746 11.8308 13.7525 11.8446 13.7071 11.8333C13.5988 11.8246 13.605 11.7971 13.7096 11.7867C13.8417 11.7517 13.9917 11.745 14.1029 11.6587C14.0125 11.6171 13.8984 11.6537 13.8017 11.6196C13.9654 11.5479 14.1588 11.5408 14.3059 11.4337C14.3729 11.3596 14.22 11.3825 14.1754 11.3846C14.0846 11.4004 14.0429 11.3571 14.1459 11.3196C14.3221 11.19 14.5446 11.1062 14.6684 10.9187C14.6975 10.8767 14.7371 10.7504 14.6438 10.7958C14.5209 10.8367 14.4129 10.9742 14.2729 10.9317C14.5488 10.7187 14.8113 10.4758 14.9996 10.1812C15.0092 10.0962 14.8754 10.0871 14.8404 10.1537C14.6634 10.3242 14.5029 10.525 14.2759 10.6317C14.4934 10.4225 14.6729 10.175 14.8296 9.91833C14.8634 9.84208 14.9534 9.75042 14.9046 9.66542C14.8254 9.60042 14.7267 9.66 14.6859 9.73792C14.5479 9.91708 14.4434 10.1262 14.2663 10.2725C14.4213 9.9775 14.5821 9.66333 14.5859 9.32292C14.5854 9.25292 14.5713 9.14958 14.4759 9.16292C14.4 9.17625 14.4184 9.28917 14.3871 9.34625C14.3184 9.57875 14.2863 9.83042 14.1454 10.0342C14.1771 9.84542 14.2325 9.64833 14.19 9.4575C14.17 9.37208 14.0321 9.40875 14.0496 9.49333C13.8846 10.3267 13.3238 11.0554 12.59 11.4767C12.2542 11.6662 11.8792 11.7883 11.4975 11.8437C11.395 11.8662 11.2838 11.8529 11.1859 11.8879C10.9479 12.0696 10.8042 12.3737 10.5029 12.4692C10.3679 12.5358 10.1921 12.5496 10.0954 12.6746C10.0863 12.6896 10.0846 12.7079 10.085 12.7258Z" fill="#FFEE58"/>
    <path d="M10.9862 11.8804C10.9416 11.9608 10.9158 12.0533 10.8587 12.125C10.687 11.9691 10.4378 11.9741 10.2195 11.9637C10.0395 11.9541 9.8441 11.9375 9.70452 11.8095C9.55827 11.69 9.43868 11.5345 9.27493 11.4379C9.12577 11.3975 8.97493 11.3466 8.85493 11.2445C8.59827 11.0362 8.45118 10.7266 8.20077 10.5116C8.15285 10.4645 8.0966 10.4283 8.04285 10.3887C7.99202 10.4012 8.01493 10.5104 7.95285 10.4545C7.9191 10.4304 7.8341 10.4283 7.8266 10.4616C7.90327 10.5625 7.97993 10.6775 7.99077 10.8062C7.93868 10.8116 7.84535 10.7954 7.81952 10.8145C7.8891 10.9183 7.97785 11.0104 8.0791 11.0837C8.03077 11.0916 7.93493 11.087 7.9166 11.1066C8.01702 11.1883 8.12452 11.2716 8.25618 11.2925C8.28327 11.3279 8.21702 11.3962 8.27243 11.4262C8.30493 11.4395 8.41118 11.4612 8.33785 11.4979C8.28743 11.5316 8.30618 11.6108 8.37077 11.6087C8.4116 11.6295 8.50285 11.6345 8.51035 11.6704C8.4741 11.707 8.36202 11.7504 8.45743 11.785C8.5466 11.8345 8.64868 11.8662 8.75077 11.87C8.69952 11.9129 8.6366 11.9375 8.58368 11.9775C8.8191 12.115 9.07993 12.2054 9.33785 12.2929C9.44035 12.327 9.54452 12.3591 9.65077 12.3791C9.3416 12.3612 9.04243 12.27 8.76077 12.145C8.61493 12.0812 8.46785 12.0195 8.31827 11.9645C8.38368 11.9304 8.45993 11.922 8.52785 11.8929C8.3866 11.8645 8.23243 11.8554 8.10827 11.7779C8.12743 11.7441 8.19952 11.7425 8.23952 11.7254C8.31452 11.7075 8.36118 11.6858 8.25535 11.6791C8.14868 11.6504 8.02618 11.6633 7.93243 11.5991C7.93868 11.5608 8.03702 11.5741 8.07702 11.5575C8.12743 11.5487 8.18368 11.5416 8.2241 11.5079C8.0591 11.4395 7.84368 11.4879 7.7141 11.3429C7.6841 11.2875 7.8066 11.332 7.8416 11.3229C7.92993 11.3229 8.02535 11.3508 8.10952 11.3154C7.8691 11.2104 7.61202 11.1116 7.42868 10.917C7.40827 10.8858 7.34743 10.8004 7.3966 10.79C7.5391 10.8087 7.64243 10.9641 7.79493 10.94C7.81535 10.9129 7.70618 10.8683 7.6791 10.8291C7.4566 10.6387 7.24077 10.4325 7.08493 10.1829C7.0741 10.0995 7.20535 10.087 7.23993 10.1516C7.40993 10.315 7.56368 10.5054 7.77577 10.617C7.85077 10.6533 7.73243 10.5741 7.71702 10.5454C7.52118 10.3187 7.33493 10.0795 7.19785 9.81246C7.17327 9.76454 7.13285 9.67746 7.20618 9.65163C7.27952 9.61496 7.35202 9.66496 7.3891 9.72746C7.53285 9.90829 7.6391 10.1237 7.81827 10.2741C7.66535 9.97871 7.50243 9.66746 7.49827 9.32746C7.50202 9.26163 7.50618 9.16163 7.59577 9.16454C7.67118 9.15329 7.6591 9.24913 7.68368 9.29496C7.75785 9.54496 7.79035 9.81538 7.9391 10.0358C7.90618 9.85038 7.85785 9.65954 7.88993 9.47121C7.89743 9.40954 7.96702 9.39079 8.01285 9.42788C8.04952 9.51788 8.05743 9.62871 8.09118 9.72496C8.28243 10.3766 8.7116 10.95 9.27077 11.3345C9.73118 11.6495 10.2779 11.8375 10.8358 11.8704C10.8849 11.8758 10.9358 11.877 10.9862 11.8804ZM10.2779 12.6845C10.2699 12.6845 10.2623 12.6877 10.2566 12.6933C10.251 12.699 10.2479 12.7066 10.2479 12.7145C10.2479 12.7225 10.251 12.7301 10.2566 12.7358C10.2623 12.7414 10.2699 12.7445 10.2779 12.7445C10.2858 12.7445 10.2934 12.7414 10.2991 12.7358C10.3047 12.7301 10.3078 12.7225 10.3078 12.7145C10.3078 12.7066 10.3047 12.699 10.2991 12.6933C10.2934 12.6877 10.2858 12.6845 10.2779 12.6845ZM2.49952 4.40163C2.49952 4.40163 2.36618 4.29579 2.32077 4.34871C2.24785 4.43413 2.54493 4.85954 2.54493 5.00913C2.54493 5.25496 2.37118 5.32204 2.1566 5.35704C2.01243 5.38079 1.77785 5.34704 1.77785 5.34704C1.82202 5.29121 1.85077 5.27454 1.92535 5.26996C1.84244 5.22996 1.75785 5.14163 1.75785 5.00454C1.75785 4.79288 1.84993 4.70579 1.84993 4.46746C1.85035 4.33496 1.73535 4.16663 1.73535 4.16663C1.93868 4.18579 2.0391 4.36329 1.98202 4.50538C2.01452 4.50996 2.04368 4.50288 2.0691 4.48038C2.0841 4.51954 2.06035 4.56538 2.0291 4.60454C2.05452 4.61746 2.07285 4.60954 2.11327 4.60163C2.10952 4.64204 2.08368 4.68538 2.02077 4.72579C2.20327 4.68121 2.31577 4.80121 2.31577 4.92704C2.31577 5.02204 2.24535 5.08996 2.17618 5.08996C2.1541 5.08996 2.12118 5.08121 2.10285 5.06829C2.08993 5.09454 2.0966 5.12954 2.10993 5.15579C2.05952 5.14329 2.02743 5.11496 2.05035 5.05579C2.0116 5.05246 1.98077 5.03996 1.95952 5.01663C1.98077 4.99079 2.01327 4.97621 2.05035 4.97746C2.02202 4.92246 2.05368 4.89163 2.09952 4.86663C2.09952 4.86663 2.07035 4.97746 2.14493 4.97746C2.17827 4.97746 2.2091 4.96704 2.2091 4.92038C2.2091 4.87996 2.1716 4.82371 2.08452 4.82704C1.99743 4.83079 1.92702 4.88371 1.92702 5.01454C1.92702 5.13538 2.03035 5.19538 2.16618 5.19913C2.28868 5.20288 2.3816 5.13996 2.3816 5.02038C2.3816 4.86121 2.13827 4.49913 2.13827 4.35746C2.13827 4.25121 2.23952 4.19163 2.33868 4.19163C2.46702 4.19163 2.57577 4.31163 2.57577 4.31163L2.49952 4.40163Z" fill="#FFEE58"/>
    <path d="M2.52824 7.27541C2.52824 7.54124 2.27533 7.67749 2.07699 7.67749C1.80949 7.67749 1.66699 7.52666 1.66699 7.32874C1.66699 7.21666 1.68866 7.14624 1.74366 7.03916C1.74366 7.03916 2.18491 6.17291 2.35699 5.83791C2.37824 5.79624 2.38533 5.74874 2.38533 5.67874C2.38533 5.57082 2.27449 5.48291 2.15866 5.48041C2.05283 5.47791 1.93741 5.57332 1.93741 5.68249C1.93741 5.81499 2.01033 5.87374 2.08491 5.87374C2.17699 5.87374 2.21324 5.83791 2.21324 5.77707C2.21324 5.73457 2.19158 5.71624 2.16033 5.71624C2.08158 5.71624 2.10366 5.81624 2.10366 5.81624C2.06449 5.80832 2.03241 5.77041 2.05074 5.72332C2.02199 5.71749 1.99533 5.70332 1.97408 5.68041C1.99533 5.66124 2.01949 5.64624 2.05074 5.64124C2.03241 5.58374 2.05699 5.55582 2.11033 5.54374C2.09949 5.56582 2.09908 5.58624 2.10283 5.60541C2.18658 5.58291 2.31533 5.61874 2.31533 5.75541C2.31533 5.89124 2.21533 6.00582 2.02824 5.97707C2.07283 5.99707 2.09533 6.03832 2.09991 6.08416C2.06574 6.07166 2.02824 6.06999 2.02824 6.06999C2.05033 6.10624 2.08074 6.13791 2.07908 6.20957C2.04449 6.19457 2.01199 6.16707 1.96741 6.18457C2.03741 6.31416 1.95158 6.49291 1.73324 6.53499C1.81324 6.44666 1.85241 6.35124 1.85241 6.25624C1.85241 5.94832 1.76158 5.89666 1.76158 5.68249C1.76158 5.59291 1.81033 5.49624 1.90699 5.43041V5.43416C1.84324 5.41791 1.80199 5.38832 1.77866 5.34791C1.92449 5.30874 2.13699 5.30957 2.25074 5.35207C2.38199 5.36582 2.47324 5.46082 2.50033 5.50874C2.52741 5.55666 2.57949 5.73082 2.50033 5.88791C2.41366 6.05957 2.00449 6.87832 1.87658 7.13582C1.84949 7.19041 1.83324 7.24832 1.83324 7.31124C1.83324 7.46874 1.98616 7.52416 2.07324 7.52416C2.17699 7.52416 2.28283 7.44957 2.28283 7.35624C2.28283 7.29707 2.24866 7.26166 2.19949 7.26166C2.08199 7.26166 2.08908 7.35582 2.11241 7.41541C2.03949 7.38457 1.99699 7.32916 2.00866 7.27041C1.96741 7.26499 1.92783 7.24666 1.89158 7.20791C1.92033 7.17374 1.95491 7.14791 2.00866 7.14707C1.98533 7.05666 2.04949 7.01832 2.11241 6.99707C2.09241 7.06374 2.07949 7.13999 2.19949 7.13999C2.28699 7.13999 2.35574 7.15416 2.39616 7.20791C2.39866 7.13624 2.40574 6.85374 2.40574 6.85374C2.41074 6.74749 2.25533 6.75082 2.15616 6.78207C2.19366 6.65999 2.26991 6.59374 2.44699 6.61041C2.40449 6.59332 2.35866 6.55499 2.35866 6.48124C2.35866 6.38166 2.44408 6.27124 2.50033 6.23874L2.52824 7.27541Z" fill="#FFEE58"/>
    <path d="M2.52824 8.07204C2.52824 7.80621 2.27533 7.66996 2.07699 7.66996C1.80949 7.66996 1.66699 7.82079 1.66699 8.01871C1.66699 8.13079 1.68866 8.20121 1.74366 8.30829C1.74366 8.30829 2.18491 9.17454 2.35699 9.50954C2.37824 9.55121 2.38533 9.59871 2.38533 9.66871C2.38533 9.77663 2.27449 9.86454 2.15866 9.86704C2.05283 9.86954 1.93741 9.77413 1.93741 9.66496C1.93741 9.53246 2.01033 9.47371 2.08491 9.47371C2.17699 9.47371 2.21324 9.50954 2.21324 9.57038C2.21324 9.61288 2.19158 9.63121 2.16033 9.63121C2.08158 9.63121 2.10366 9.53121 2.10366 9.53121C2.06449 9.53913 2.03241 9.57704 2.05074 9.62413C2.02199 9.62996 1.99533 9.64413 1.97408 9.66704C1.99533 9.68621 2.01949 9.70121 2.05074 9.70621C2.03241 9.76371 2.05699 9.79163 2.11033 9.80371C2.09949 9.78163 2.09908 9.76121 2.10283 9.74204C2.18658 9.76454 2.31533 9.72871 2.31533 9.59204C2.31533 9.45621 2.21533 9.34163 2.02824 9.37038C2.07283 9.35038 2.09533 9.30913 2.09991 9.26329C2.06574 9.27579 2.02824 9.27746 2.02824 9.27746C2.05033 9.24121 2.08074 9.20954 2.07908 9.13788C2.04449 9.15288 2.01199 9.18038 1.96741 9.16288C2.03741 9.03329 1.95158 8.85454 1.73324 8.81246C1.81324 8.90079 1.85241 8.99621 1.85241 9.09121C1.85241 9.39913 1.76158 9.45079 1.76158 9.66496C1.76158 9.75454 1.81033 9.85121 1.90699 9.91704V9.91329C1.84324 9.92996 1.80199 9.95954 1.77866 9.99996C1.92449 10.0391 2.13699 10.0383 2.25074 9.99579C2.38199 9.98163 2.47324 9.88663 2.50033 9.83871C2.52741 9.79079 2.57949 9.61663 2.50033 9.45954C2.41366 9.28788 2.00449 8.46913 1.87658 8.21163C1.84949 8.15704 1.83324 8.09913 1.83324 8.03621C1.83324 7.87871 1.98616 7.82329 2.07324 7.82329C2.17699 7.82329 2.28283 7.89788 2.28283 7.99121C2.28283 8.05038 2.24866 8.08579 2.19949 8.08579C2.08199 8.08579 2.08908 7.99163 2.11241 7.93204C2.03949 7.96288 1.99699 8.01829 2.00866 8.07704C1.96741 8.08246 1.92783 8.10079 1.89158 8.13954C1.92033 8.17371 1.95491 8.19954 2.00866 8.20038C1.98533 8.29079 2.04949 8.32913 2.11241 8.35038C2.09283 8.28454 2.07991 8.20829 2.19991 8.20829C2.28741 8.20829 2.35616 8.19413 2.39658 8.14038C2.39908 8.21204 2.40616 8.49454 2.40616 8.49454C2.41116 8.60079 2.25574 8.59746 2.15658 8.56621C2.19408 8.68829 2.27033 8.75454 2.44741 8.73788C2.40449 8.75413 2.35866 8.79246 2.35866 8.86621C2.35866 8.96579 2.44408 9.07621 2.50033 9.10871L2.52824 8.07204ZM2.50033 4.40163C2.50033 4.40163 2.63366 4.29579 2.67908 4.34871C2.75199 4.43413 2.45491 4.85954 2.45491 5.00913C2.45491 5.25496 2.62866 5.32204 2.84324 5.35704C2.98741 5.38079 3.22199 5.34704 3.22199 5.34704C3.17783 5.29163 3.14908 5.27496 3.07491 5.27038C3.15783 5.22996 3.24199 5.14163 3.24199 5.00454C3.24199 4.79288 3.14991 4.70579 3.14991 4.46746C3.14949 4.33496 3.26449 4.16663 3.26449 4.16663C3.06116 4.18579 2.96074 4.36329 3.01783 4.50538C2.98533 4.50996 2.95616 4.50288 2.93074 4.48038C2.91574 4.51954 2.93949 4.56538 2.97074 4.60454C2.94533 4.61746 2.92699 4.60954 2.88658 4.60163C2.89033 4.64204 2.91616 4.68538 2.97908 4.72579C2.79658 4.68121 2.68408 4.80121 2.68408 4.92704C2.68408 5.02204 2.75449 5.08996 2.82366 5.08996C2.84574 5.08996 2.87866 5.08121 2.89699 5.06829C2.90991 5.09454 2.90324 5.12954 2.88991 5.15579C2.94033 5.14329 2.97241 5.11496 2.94949 5.05579C2.98824 5.05246 3.01908 5.03996 3.04033 5.01663C3.01908 4.99079 2.98658 4.97621 2.94949 4.97746C2.97783 4.92246 2.94616 4.89163 2.90033 4.86663C2.90033 4.86663 2.92949 4.97746 2.85491 4.97746C2.82158 4.97746 2.79074 4.96704 2.79074 4.92038C2.79074 4.87996 2.82824 4.82371 2.91533 4.82704C3.00241 4.83079 3.07283 4.88371 3.07283 5.01454C3.07283 5.13538 2.96949 5.19538 2.83366 5.19913C2.71116 5.20288 2.61824 5.13996 2.61824 5.02038C2.61824 4.86121 2.86158 4.49913 2.86158 4.35746C2.86158 4.25121 2.76033 4.19163 2.66116 4.19163C2.53283 4.19163 2.42408 4.31163 2.42408 4.31163L2.50033 4.40163Z" fill="#FFEE58"/>
    <path d="M2.4721 7.27541C2.4721 7.54124 2.72502 7.67749 2.92335 7.67749C3.19085 7.67749 3.33335 7.52666 3.33335 7.32874C3.33335 7.21666 3.31168 7.14624 3.25668 7.03916C3.25668 7.03916 2.81543 6.17291 2.64335 5.83791C2.6221 5.79624 2.61502 5.74874 2.61502 5.67874C2.61502 5.57082 2.72585 5.48291 2.84168 5.48041C2.94752 5.47791 3.06293 5.57332 3.06293 5.68249C3.06293 5.81499 2.99002 5.87374 2.91543 5.87374C2.82335 5.87374 2.7871 5.83791 2.7871 5.77707C2.7871 5.73457 2.80877 5.71624 2.84002 5.71624C2.91877 5.71624 2.89668 5.81624 2.89668 5.81624C2.93585 5.80832 2.96793 5.77041 2.9496 5.72332C2.97835 5.71749 3.00502 5.70332 3.02627 5.68041C3.00502 5.66124 2.98085 5.64624 2.9496 5.64124C2.96793 5.58374 2.94335 5.55582 2.89002 5.54374C2.90085 5.56582 2.90127 5.58624 2.89752 5.60541C2.81377 5.58291 2.68502 5.61874 2.68502 5.75541C2.68502 5.89124 2.78502 6.00582 2.9721 5.97707C2.92752 5.99707 2.90502 6.03832 2.90043 6.08416C2.9346 6.07166 2.9721 6.06999 2.9721 6.06999C2.95002 6.10624 2.9196 6.13791 2.92127 6.20957C2.95585 6.19457 2.98835 6.16707 3.03293 6.18457C2.96293 6.31416 3.04877 6.49291 3.2671 6.53499C3.1871 6.44666 3.14793 6.35124 3.14793 6.25624C3.14793 5.94832 3.23877 5.89666 3.23877 5.68249C3.23877 5.59291 3.19002 5.49624 3.09335 5.43041V5.43416C3.1571 5.41791 3.19835 5.38832 3.22168 5.34791C3.07585 5.30874 2.86335 5.30957 2.7496 5.35207C2.61835 5.36582 2.5271 5.46082 2.50002 5.50874C2.47293 5.55666 2.42085 5.73082 2.50002 5.88791C2.58668 6.05957 2.99585 6.87832 3.12377 7.13582C3.15085 7.19041 3.1671 7.24832 3.1671 7.31124C3.1671 7.46874 3.01418 7.52416 2.9271 7.52416C2.82335 7.52416 2.71752 7.44957 2.71752 7.35624C2.71752 7.29707 2.75168 7.26166 2.80085 7.26166C2.91835 7.26166 2.91127 7.35582 2.88793 7.41541C2.96085 7.38457 3.00335 7.32916 2.99168 7.27041C3.03293 7.26499 3.07252 7.24666 3.10877 7.20791C3.08002 7.17374 3.04543 7.14791 2.99168 7.14707C3.01502 7.05666 2.95085 7.01832 2.88793 6.99707C2.90793 7.06374 2.92085 7.13999 2.80085 7.13999C2.71335 7.13999 2.6446 7.15416 2.60418 7.20791C2.60168 7.13624 2.5946 6.85374 2.5946 6.85374C2.5896 6.74749 2.74502 6.75082 2.84418 6.78207C2.80668 6.65999 2.73043 6.59374 2.55335 6.61041C2.59627 6.59332 2.6421 6.55541 2.6421 6.48166C2.6421 6.38207 2.55668 6.27166 2.50043 6.23916L2.4721 7.27541Z" fill="#FFEE58"/>
    <path d="M2.4716 8.07213C2.4716 7.80629 2.72452 7.67004 2.92285 7.67004C3.19035 7.67004 3.33285 7.82088 3.33285 8.01879C3.33285 8.13088 3.31118 8.20129 3.25618 8.30838C3.25618 8.30838 2.81493 9.17463 2.64285 9.50963C2.6216 9.55129 2.61452 9.59879 2.61452 9.66879C2.61452 9.77671 2.72535 9.86463 2.84118 9.86713C2.94702 9.86963 3.06243 9.77421 3.06243 9.66504C3.06243 9.53254 2.98952 9.47379 2.91493 9.47379C2.82285 9.47379 2.7866 9.50963 2.7866 9.57046C2.7866 9.61296 2.80827 9.63129 2.83952 9.63129C2.91827 9.63129 2.89618 9.53129 2.89618 9.53129C2.93535 9.53921 2.96743 9.57713 2.9491 9.62421C2.97785 9.63004 3.00452 9.64421 3.02577 9.66713C3.00452 9.68629 2.98035 9.70129 2.9491 9.70629C2.96743 9.76379 2.94285 9.79171 2.88952 9.80379C2.90035 9.78171 2.90077 9.76129 2.89702 9.74213C2.81327 9.76463 2.68452 9.72879 2.68452 9.59213C2.68452 9.45629 2.78452 9.34171 2.9716 9.37046C2.92702 9.35046 2.90452 9.30921 2.89993 9.26338C2.9341 9.27588 2.9716 9.27754 2.9716 9.27754C2.94952 9.24129 2.9191 9.20963 2.92077 9.13796C2.95535 9.15296 2.98785 9.18046 3.03243 9.16296C2.96243 9.03338 3.04827 8.85463 3.2666 8.81254C3.1866 8.90088 3.14743 8.99629 3.14743 9.09129C3.14743 9.39921 3.23827 9.45088 3.23827 9.66504C3.23827 9.75463 3.18952 9.85129 3.09285 9.91713V9.91338C3.1566 9.92963 3.19785 9.95921 3.22118 9.99963C3.07535 10.0388 2.86285 10.038 2.7491 9.99546C2.61785 9.98171 2.5266 9.88671 2.49952 9.83879C2.47243 9.79088 2.42035 9.61671 2.49952 9.45963C2.58618 9.28796 2.99535 8.46921 3.12327 8.21171C3.15035 8.15713 3.1666 8.09921 3.1666 8.03629C3.1666 7.87879 3.01368 7.82338 2.9266 7.82338C2.82285 7.82338 2.71702 7.89796 2.71702 7.99129C2.71702 8.05046 2.75118 8.08588 2.80035 8.08588C2.91785 8.08588 2.91077 7.99171 2.88743 7.93213C2.96035 7.96296 3.00285 8.01838 2.99118 8.07713C3.03243 8.08254 3.07202 8.10088 3.10827 8.13963C3.07952 8.17379 3.04493 8.19963 2.99118 8.20046C3.01452 8.29088 2.95035 8.32921 2.88743 8.35046C2.90743 8.28379 2.92035 8.20754 2.80035 8.20754C2.71285 8.20754 2.6441 8.19338 2.60368 8.13963C2.60118 8.21129 2.5941 8.49379 2.5941 8.49379C2.5891 8.60004 2.74452 8.59671 2.84368 8.56546C2.80618 8.68754 2.72993 8.75379 2.55285 8.73713C2.59535 8.75421 2.64118 8.79254 2.64118 8.86629C2.64118 8.96588 2.55577 9.07629 2.49952 9.10879L2.4716 8.07213ZM2.49952 15.5984C2.49952 15.5984 2.36618 15.7042 2.32077 15.6513C2.24785 15.5659 2.54493 15.1405 2.54493 14.9909C2.54493 14.745 2.37118 14.678 2.1566 14.643C2.01243 14.6192 1.77785 14.653 1.77785 14.653C1.82202 14.7088 1.85077 14.7255 1.92535 14.73C1.84244 14.77 1.75785 14.8584 1.75785 14.9955C1.75785 15.2071 1.84993 15.2942 1.84993 15.5325C1.85035 15.665 1.73535 15.8334 1.73535 15.8334C1.93868 15.8142 2.0391 15.6367 1.98202 15.4946C2.01452 15.49 2.04368 15.4971 2.0691 15.5196C2.0841 15.4805 2.06035 15.4346 2.0291 15.3955C2.05452 15.3825 2.07285 15.3905 2.11327 15.3984C2.10952 15.358 2.08368 15.3146 2.02077 15.2742C2.20327 15.3188 2.31577 15.1988 2.31577 15.073C2.31577 14.978 2.24535 14.91 2.17618 14.91C2.1541 14.91 2.12118 14.9188 2.10285 14.9317C2.08993 14.9055 2.0966 14.8705 2.10993 14.8442C2.05952 14.8567 2.02743 14.885 2.05035 14.9442C2.0116 14.9475 1.98077 14.96 1.95952 14.9834C1.98077 15.0092 2.01327 15.0238 2.05035 15.0225C2.02202 15.0775 2.05368 15.1084 2.09952 15.1334C2.09952 15.1334 2.07035 15.0225 2.14493 15.0225C2.17827 15.0225 2.2091 15.033 2.2091 15.0796C2.2091 15.12 2.1716 15.1763 2.08452 15.173C1.99743 15.1692 1.92702 15.1163 1.92702 14.9855C1.92702 14.8646 2.03035 14.8046 2.16618 14.8009C2.28868 14.7971 2.3816 14.86 2.3816 14.9796C2.3816 15.1388 2.13827 15.5009 2.13827 15.6425C2.13827 15.7488 2.23952 15.8084 2.33868 15.8084C2.46702 15.8084 2.57577 15.6884 2.57577 15.6884L2.49952 15.5984Z" fill="#FFEE58"/>
    <path d="M2.52824 12.7246C2.52824 12.4588 2.27533 12.3225 2.07699 12.3225C1.80949 12.3225 1.66699 12.4733 1.66699 12.6713C1.66699 12.7833 1.68866 12.8538 1.74366 12.9608C1.74366 12.9608 2.18491 13.8271 2.35699 14.1621C2.37824 14.2038 2.38533 14.2513 2.38533 14.3213C2.38533 14.4292 2.27449 14.5171 2.15866 14.5196C2.05283 14.5221 1.93741 14.4267 1.93741 14.3175C1.93741 14.185 2.01033 14.1263 2.08491 14.1263C2.17699 14.1263 2.21324 14.1621 2.21324 14.2229C2.21324 14.2654 2.19158 14.2838 2.16033 14.2838C2.08158 14.2838 2.10366 14.1838 2.10366 14.1838C2.06449 14.1917 2.03241 14.2296 2.05074 14.2767C2.02199 14.2825 1.99533 14.2967 1.97408 14.3196C1.99533 14.3388 2.01949 14.3538 2.05074 14.3588C2.03241 14.4163 2.05699 14.4442 2.11033 14.4563C2.09949 14.4342 2.09908 14.4138 2.10283 14.3946C2.18658 14.4171 2.31533 14.3813 2.31533 14.2446C2.31533 14.1088 2.21533 13.9942 2.02824 14.0229C2.07283 14.0029 2.09533 13.9617 2.09991 13.9158C2.06574 13.9283 2.02824 13.93 2.02824 13.93C2.05033 13.8938 2.08074 13.8621 2.07908 13.7904C2.04449 13.8054 2.01199 13.8329 1.96741 13.8154C2.03741 13.6858 1.95158 13.5071 1.73324 13.465C1.81324 13.5533 1.85241 13.6488 1.85241 13.7438C1.85241 14.0517 1.76158 14.1033 1.76158 14.3175C1.76158 14.4071 1.81033 14.5038 1.90699 14.5696V14.5658C1.84324 14.5821 1.80199 14.6117 1.77866 14.6521C1.92449 14.6913 2.13699 14.6904 2.25074 14.6483C2.38199 14.6342 2.47324 14.5392 2.50033 14.4913C2.52741 14.4433 2.57949 14.2692 2.50033 14.1121C2.41366 13.9404 2.00449 13.1217 1.87658 12.8642C1.84949 12.8096 1.83324 12.7517 1.83324 12.6888C1.83324 12.5313 1.98616 12.4758 2.07324 12.4758C2.17699 12.4758 2.28283 12.5504 2.28283 12.6438C2.28283 12.7029 2.24866 12.7383 2.19949 12.7383C2.08199 12.7383 2.08908 12.6442 2.11241 12.5846C2.03949 12.6154 1.99699 12.6708 2.00866 12.7296C1.96741 12.735 1.92783 12.7533 1.89158 12.7921C1.92033 12.8263 1.95491 12.8521 2.00866 12.8529C1.98533 12.9433 2.04949 12.9817 2.11241 13.0029C2.09241 12.9363 2.07949 12.86 2.19949 12.86C2.28699 12.86 2.35574 12.8458 2.39616 12.7921C2.39866 12.8638 2.40574 13.1463 2.40574 13.1463C2.41074 13.2525 2.25533 13.2492 2.15616 13.2179C2.19366 13.34 2.26991 13.4063 2.44699 13.3896C2.40449 13.4067 2.35866 13.445 2.35866 13.5188C2.35866 13.6183 2.44408 13.7288 2.50033 13.7613L2.52824 12.7246Z" fill="#FFEE58"/>
    <path d="M2.52824 11.9279C2.52824 12.1938 2.27533 12.33 2.07699 12.33C1.80949 12.33 1.66699 12.1792 1.66699 11.9813C1.66699 11.8692 1.68866 11.7988 1.74366 11.6917C1.74366 11.6917 2.18491 10.8254 2.35699 10.4904C2.37824 10.4488 2.38533 10.4013 2.38533 10.3313C2.38533 10.2233 2.27449 10.1354 2.15866 10.1329C2.05283 10.1304 1.93741 10.2258 1.93741 10.335C1.93741 10.4675 2.01033 10.5263 2.08491 10.5263C2.17699 10.5263 2.21324 10.4904 2.21324 10.4296C2.21324 10.3871 2.19158 10.3688 2.16033 10.3688C2.08158 10.3688 2.10366 10.4688 2.10366 10.4688C2.06449 10.4608 2.03241 10.4229 2.05074 10.3758C2.02199 10.37 1.99533 10.3558 1.97408 10.3329C1.99533 10.3138 2.01949 10.2988 2.05074 10.2938C2.03241 10.2363 2.05699 10.2083 2.11033 10.1963C2.09949 10.2183 2.09908 10.2388 2.10283 10.2579C2.18658 10.2354 2.31533 10.2713 2.31533 10.4079C2.31533 10.5438 2.21533 10.6583 2.02824 10.6296C2.07283 10.6496 2.09533 10.6908 2.09991 10.7367C2.06574 10.7242 2.02824 10.7225 2.02824 10.7225C2.05033 10.7588 2.08074 10.7904 2.07908 10.8621C2.04449 10.8471 2.01199 10.8196 1.96741 10.8371C2.03741 10.9667 1.95158 11.1454 1.73324 11.1875C1.81324 11.0992 1.85241 11.0038 1.85241 10.9088C1.85241 10.6008 1.76158 10.5492 1.76158 10.335C1.76158 10.2454 1.81033 10.1488 1.90699 10.0829V10.0867C1.84324 10.07 1.80199 10.0404 1.77866 10C1.92449 9.96084 2.13699 9.96167 2.25074 10.0042C2.38199 10.0183 2.47324 10.1133 2.50033 10.1613C2.52741 10.2092 2.57949 10.3833 2.50033 10.5404C2.41366 10.7121 2.00449 11.5308 1.87658 11.7883C1.84949 11.8429 1.83324 11.9008 1.83324 11.9638C1.83324 12.1213 1.98616 12.1767 2.07324 12.1767C2.17699 12.1767 2.28283 12.1021 2.28283 12.0088C2.28283 11.9496 2.24866 11.9142 2.19949 11.9142C2.08199 11.9142 2.08908 12.0083 2.11241 12.0679C2.03949 12.0371 1.99699 11.9817 2.00866 11.9229C1.96741 11.9175 1.92783 11.8992 1.89158 11.8604C1.92033 11.8263 1.95491 11.8004 2.00866 11.7996C1.98533 11.7092 2.04949 11.6708 2.11241 11.6496C2.09283 11.7154 2.07991 11.7917 2.19991 11.7917C2.28741 11.7917 2.35616 11.8058 2.39658 11.8596C2.39908 11.7879 2.40616 11.5054 2.40616 11.5054C2.41116 11.3992 2.25574 11.4025 2.15658 11.4338C2.19408 11.3117 2.27033 11.2454 2.44741 11.2621C2.40449 11.2458 2.35866 11.2075 2.35866 11.1338C2.35866 11.0342 2.44408 10.9238 2.50033 10.8913L2.52824 11.9279ZM2.50033 15.5983C2.50033 15.5983 2.63366 15.7042 2.67908 15.6513C2.75199 15.5658 2.45491 15.1404 2.45491 14.9908C2.45491 14.745 2.62866 14.6779 2.84324 14.6429C2.98741 14.6192 3.22199 14.6529 3.22199 14.6529C3.17783 14.7083 3.14908 14.725 3.07491 14.7296C3.15783 14.77 3.24199 14.8583 3.24199 14.9954C3.24199 15.2071 3.14991 15.2942 3.14991 15.5325C3.14949 15.665 3.26449 15.8333 3.26449 15.8333C3.06116 15.8142 2.96074 15.6367 3.01783 15.4946C2.98533 15.49 2.95616 15.4971 2.93074 15.5196C2.91574 15.4804 2.93949 15.4346 2.97074 15.3954C2.94533 15.3825 2.92699 15.3904 2.88658 15.3983C2.89033 15.3579 2.91616 15.3146 2.97908 15.2742C2.79658 15.3188 2.68408 15.1988 2.68408 15.0729C2.68408 14.9779 2.75449 14.91 2.82366 14.91C2.84574 14.91 2.87866 14.9188 2.89699 14.9317C2.90991 14.9054 2.90324 14.8704 2.88991 14.8442C2.94033 14.8567 2.97241 14.885 2.94949 14.9442C2.98824 14.9475 3.01908 14.96 3.04033 14.9833C3.01908 15.0092 2.98658 15.0238 2.94949 15.0225C2.97783 15.0775 2.94616 15.1083 2.90033 15.1333C2.90033 15.1333 2.92949 15.0225 2.85491 15.0225C2.82158 15.0225 2.79074 15.0329 2.79074 15.0796C2.79074 15.12 2.82824 15.1763 2.91533 15.1729C3.00241 15.1692 3.07283 15.1163 3.07283 14.9854C3.07283 14.8646 2.96949 14.8046 2.83366 14.8008C2.71116 14.7971 2.61824 14.86 2.61824 14.9796C2.61824 15.1388 2.86158 15.5008 2.86158 15.6425C2.86158 15.7488 2.76033 15.8083 2.66116 15.8083C2.53283 15.8083 2.42408 15.6883 2.42408 15.6883L2.50033 15.5983Z" fill="#FFEE58"/>
    <path d="M2.4721 12.7246C2.4721 12.4588 2.72502 12.3225 2.92335 12.3225C3.19085 12.3225 3.33335 12.4733 3.33335 12.6713C3.33335 12.7833 3.31168 12.8538 3.25668 12.9608C3.25668 12.9608 2.81543 13.8271 2.64335 14.1621C2.6221 14.2038 2.61502 14.2513 2.61502 14.3213C2.61502 14.4292 2.72585 14.5171 2.84168 14.5196C2.94752 14.5221 3.06293 14.4267 3.06293 14.3175C3.06293 14.185 2.99002 14.1263 2.91543 14.1263C2.82335 14.1263 2.7871 14.1621 2.7871 14.2229C2.7871 14.2654 2.80877 14.2838 2.84002 14.2838C2.91877 14.2838 2.89668 14.1838 2.89668 14.1838C2.93585 14.1917 2.96793 14.2296 2.9496 14.2767C2.97835 14.2825 3.00502 14.2967 3.02627 14.3196C3.00502 14.3388 2.98085 14.3538 2.9496 14.3588C2.96793 14.4163 2.94335 14.4442 2.89002 14.4563C2.90085 14.4342 2.90127 14.4138 2.89752 14.3946C2.81377 14.4171 2.68502 14.3813 2.68502 14.2446C2.68502 14.1088 2.78502 13.9942 2.9721 14.0229C2.92752 14.0029 2.90502 13.9617 2.90043 13.9158C2.9346 13.9283 2.9721 13.93 2.9721 13.93C2.95002 13.8938 2.9196 13.8621 2.92127 13.7904C2.95585 13.8054 2.98835 13.8329 3.03293 13.8154C2.96293 13.6858 3.04877 13.5071 3.2671 13.465C3.1871 13.5533 3.14793 13.6488 3.14793 13.7438C3.14793 14.0517 3.23877 14.1033 3.23877 14.3175C3.23877 14.4071 3.19002 14.5038 3.09335 14.5696V14.5658C3.1571 14.5821 3.19835 14.6117 3.22168 14.6521C3.07585 14.6913 2.86335 14.6904 2.7496 14.6483C2.61835 14.6342 2.5271 14.5392 2.50002 14.4913C2.47293 14.4433 2.42085 14.2692 2.50002 14.1121C2.58668 13.9404 2.99585 13.1217 3.12377 12.8642C3.15085 12.8096 3.1671 12.7517 3.1671 12.6888C3.1671 12.5313 3.01418 12.4758 2.9271 12.4758C2.82335 12.4758 2.71752 12.5504 2.71752 12.6438C2.71752 12.7029 2.75168 12.7383 2.80085 12.7383C2.91835 12.7383 2.91127 12.6442 2.88793 12.5846C2.96085 12.6154 3.00335 12.6708 2.99168 12.7296C3.03293 12.735 3.07252 12.7533 3.10877 12.7921C3.08002 12.8263 3.04543 12.8521 2.99168 12.8529C3.01502 12.9433 2.95085 12.9817 2.88793 13.0029C2.90793 12.9363 2.92085 12.86 2.80085 12.86C2.71335 12.86 2.6446 12.8458 2.60418 12.7921C2.60168 12.8638 2.5946 13.1463 2.5946 13.1463C2.5896 13.2525 2.74502 13.2492 2.84418 13.2179C2.80668 13.34 2.73043 13.4063 2.55335 13.3896C2.59627 13.4067 2.6421 13.4446 2.6421 13.5183C2.6421 13.6179 2.55668 13.7283 2.50043 13.7608L2.4721 12.7246Z" fill="#FFEE58"/>
    <path d="M2.4721 11.928C2.4721 12.1938 2.72502 12.3301 2.92335 12.3301C3.19085 12.3301 3.33335 12.1792 3.33335 11.9813C3.33335 11.8692 3.31168 11.7988 3.25668 11.6917C3.25668 11.6917 2.81543 10.8255 2.64335 10.4905C2.6221 10.4488 2.61502 10.4013 2.61502 10.3313C2.61502 10.2234 2.72585 10.1355 2.84168 10.133C2.94752 10.1305 3.06293 10.2259 3.06293 10.3351C3.06293 10.4676 2.99002 10.5263 2.91543 10.5263C2.82335 10.5263 2.7871 10.4905 2.7871 10.4297C2.7871 10.3872 2.80877 10.3688 2.84002 10.3688C2.91877 10.3688 2.89668 10.4688 2.89668 10.4688C2.93585 10.4609 2.96793 10.423 2.9496 10.3759C2.97835 10.3701 3.00502 10.3559 3.02627 10.333C3.00502 10.3138 2.98085 10.2988 2.9496 10.2938C2.96793 10.2363 2.94335 10.2084 2.89002 10.1963C2.90085 10.2184 2.90127 10.2388 2.89752 10.258C2.81377 10.2355 2.68502 10.2713 2.68502 10.408C2.68502 10.5438 2.78502 10.6584 2.9721 10.6297C2.92752 10.6497 2.90502 10.6909 2.90043 10.7367C2.9346 10.7242 2.9721 10.7226 2.9721 10.7226C2.95002 10.7588 2.9196 10.7905 2.92127 10.8622C2.95585 10.8472 2.98835 10.8197 3.03293 10.8372C2.96293 10.9667 3.04877 11.1455 3.2671 11.1876C3.1871 11.0992 3.14793 11.0038 3.14793 10.9088C3.14793 10.6009 3.23877 10.5492 3.23877 10.3351C3.23877 10.2455 3.19002 10.1488 3.09335 10.083V10.0867C3.1571 10.0705 3.19835 10.0409 3.22168 10.0005C3.07585 9.96133 2.86335 9.96216 2.7496 10.0047C2.61835 10.0184 2.5271 10.1134 2.50002 10.1613C2.47293 10.2092 2.42085 10.3834 2.50002 10.5405C2.58668 10.7122 2.99585 11.5309 3.12377 11.7884C3.15085 11.843 3.1671 11.9009 3.1671 11.9638C3.1671 12.1213 3.01418 12.1767 2.9271 12.1767C2.82335 12.1767 2.71752 12.1022 2.71752 12.0088C2.71752 11.9497 2.75168 11.9142 2.80085 11.9142C2.91835 11.9142 2.91127 12.0084 2.88793 12.068C2.96085 12.0372 3.00335 11.9817 2.99168 11.923C3.03293 11.9176 3.07252 11.8992 3.10877 11.8605C3.08002 11.8263 3.04543 11.8005 2.99168 11.7997C3.01502 11.7092 2.95085 11.6709 2.88793 11.6497C2.90793 11.7163 2.92085 11.7926 2.80085 11.7926C2.71335 11.7926 2.6446 11.8067 2.60418 11.8605C2.60168 11.7888 2.5946 11.5063 2.5946 11.5063C2.5896 11.4001 2.74502 11.4034 2.84418 11.4347C2.80668 11.3126 2.73043 11.2463 2.55335 11.263C2.59585 11.2459 2.64168 11.2076 2.64168 11.1338C2.64168 11.0342 2.55627 10.9238 2.50002 10.8913L2.4721 11.928Z" fill="#FFEE58"/>
    </svg>
    