<svg width="20" height="20" viewBox="0 0 20 20" fill="none" xmlns="http://www.w3.org/2000/svg">
    <path d="M4.16699 12.0834H19.167V16.25H4.16699V12.0834Z" fill="#7CB342"/>
    <path d="M0.833008 3.75H4.16634V16.25H0.833008V3.75Z" fill="#ECEFF1"/>
    <path d="M0.833008 3.75H1.66634V4.58333H0.833008V3.75ZM1.66634 4.58333H2.49967V5.41667H1.66634V4.58333ZM2.49967 3.75H3.33301V4.58333H2.49967V3.75ZM3.33301 4.58333H4.16634V5.41667H3.33301V4.58333ZM0.833008 5.41667H1.66634V6.25H0.833008V5.41667ZM1.66634 6.25H2.49967V7.08333H1.66634V6.25ZM2.49967 5.41667H3.33301V6.25H2.49967V5.41667ZM3.33301 6.25H4.16634V7.08333H3.33301V6.25ZM0.833008 7.08333H1.66634V7.91667H0.833008V7.08333ZM1.66634 7.91667H2.49967V8.75H1.66634V7.91667ZM2.49967 7.08333H3.33301V7.91667H2.49967V7.08333ZM3.33301 7.91667H4.16634V8.75H3.33301V7.91667ZM0.833008 8.75H1.66634V9.58333H0.833008V8.75ZM1.66634 9.58333H2.49967V10.4167H1.66634V9.58333ZM2.49967 8.75H3.33301V9.58333H2.49967V8.75ZM3.33301 9.58333H4.16634V10.4167H3.33301V9.58333ZM0.833008 10.4167H1.66634V11.25H0.833008V10.4167ZM1.66634 11.25H2.49967V12.0833H1.66634V11.25ZM2.49967 10.4167H3.33301V11.25H2.49967V10.4167ZM3.33301 11.25H4.16634V12.0833H3.33301V11.25ZM0.833008 12.0833H1.66634V12.9167H0.833008V12.0833ZM1.66634 12.9167H2.49967V13.75H1.66634V12.9167ZM2.49967 12.0833H3.33301V12.9167H2.49967V12.0833ZM3.33301 12.9167H4.16634V13.75H3.33301V12.9167ZM0.833008 13.75H1.66634V14.5833H0.833008V13.75ZM1.66634 14.5833H2.49967V15.4167H1.66634V14.5833ZM2.49967 13.75H3.33301V14.5833H2.49967V13.75ZM3.33301 14.5833H4.16634V15.4167H3.33301V14.5833ZM0.833008 15.4167H1.66634V16.25H0.833008V15.4167ZM2.49967 15.4167H3.33301V16.25H2.49967V15.4167ZM4.16634 3.75H19.1663V12.0833H4.16634V3.75Z" fill="#FF3D00"/>
    </svg>
    