<svg width="20" height="20" viewBox="0 0 20 20" fill="none" xmlns="http://www.w3.org/2000/svg">
    <path d="M0.833008 3.75H19.1663V16.25H0.833008V3.75Z" fill="#43A047"/>
    <path d="M0.833008 3.75H19.1663V12.0833H0.833008V3.75Z" fill="#FF3D00"/>
    <path d="M0.833008 3.75H19.1663V7.91667H0.833008V3.75Z" fill="#03A9F4"/>
    <path d="M9.59733 8.33337C9.1553 8.33337 8.73138 8.50897 8.41882 8.82153C8.10626 9.13409 7.93066 9.55801 7.93066 10C7.93066 10.4421 8.10626 10.866 8.41882 11.1786C8.73138 11.4911 9.1553 11.6667 9.59733 11.6667C10.0394 11.6667 10.4633 11.4911 10.7758 11.1786C11.0884 10.866 11.264 10.4421 11.264 10C11.264 9.55801 11.0884 9.13409 10.7758 8.82153C10.4633 8.50897 10.0394 8.33337 9.59733 8.33337Z" fill="white"/>
    <path d="M9.96785 8.61121C9.78548 8.61121 9.60489 8.64713 9.4364 8.71692C9.26791 8.78671 9.11481 8.889 8.98586 9.01796C8.8569 9.14692 8.7546 9.30001 8.68481 9.4685C8.61502 9.637 8.5791 9.81758 8.5791 9.99996C8.5791 10.1823 8.61502 10.3629 8.68481 10.5314C8.7546 10.6999 8.8569 10.853 8.98586 10.9819C9.11481 11.1109 9.26791 11.2132 9.4364 11.283C9.60489 11.3528 9.78548 11.3887 9.96785 11.3887C10.1502 11.3887 10.3308 11.3528 10.4993 11.283C10.6678 11.2132 10.8209 11.1109 10.9498 10.9819C11.0788 10.853 11.1811 10.6999 11.2509 10.5314C11.3207 10.3629 11.3566 10.1823 11.3566 9.99996C11.3566 9.81758 11.3207 9.637 11.2509 9.4685C11.1811 9.30001 11.0788 9.14692 10.9498 9.01796C10.8209 8.889 10.6678 8.78671 10.4993 8.71692C10.3308 8.64713 10.1502 8.61121 9.96785 8.61121Z" fill="#FF3D00"/>
    <path d="M11.5743 9.07422L11.7514 9.57255L12.2289 9.34547L12.0018 9.82297L12.5001 10.0001L12.0018 10.1771L12.2289 10.6546L11.7514 10.4276L11.5743 10.9259L11.3972 10.4276L10.9197 10.6546L11.1468 10.1771L10.6484 10.0001L11.1468 9.82297L10.9197 9.34547L11.3972 9.57255L11.5743 9.07422Z" fill="white"/>
    </svg>
    