<svg width="181" height="313" viewBox="0 0 181 313" fill="none" xmlns="http://www.w3.org/2000/svg">
    <path d="M44.932 77.9328C43.3711 77.9328 42.0703 77.4125 40.7695 76.632L23.3391 65.4453C9.03047 56.3398 0.445312 40.7305 0.445312 23.8203V8.21094C0.445312 3.78828 3.82734 0.40625 8.25 0.40625C12.6727 0.40625 16.0547 3.78828 16.0547 8.21094V23.8203C16.0547 35.5273 21.7781 46.1937 31.6641 52.4375L49.0945 63.6242C52.7367 65.9656 53.7773 70.6484 51.4359 74.2906C50.1351 76.632 47.5336 77.9328 44.932 77.9328Z" fill="#EAF1F6"/>
    <path d="M23.339 198.125L40.7695 209.312C42.0703 210.092 43.6312 210.613 44.932 210.613C47.5336 210.613 50.1351 209.312 51.4359 206.97C53.7773 203.328 52.7367 198.385 49.0945 196.304L31.664 185.117C22.8187 179.394 17.0953 170.288 16.3148 159.882C15.2742 149.476 18.9164 139.33 26.4609 132.045C28.5422 129.964 31.4039 128.143 34.7859 126.322L151.336 67.7867C156.279 65.4453 160.181 62.5836 163.563 59.4617C173.189 50.0961 178.652 37.6086 178.652 23.8203V8.21094C178.652 3.78828 175.27 0.40625 170.848 0.40625C166.425 0.40625 163.043 3.78828 163.043 8.21094V16.0156H49.875C45.4523 16.0156 42.0703 19.3977 42.0703 23.8203C42.0703 28.243 45.4523 31.625 49.875 31.625H162.002C160.702 37.6086 157.84 42.8117 153.417 47.2344H75.8906C71.4679 47.2344 68.0859 50.6164 68.0859 55.0391C68.0859 59.4617 71.4679 62.8438 75.8906 62.8438H126.361L27.7617 112.534C22.8187 114.875 18.9164 117.737 15.5344 120.859C4.60779 131.265 -0.855484 146.094 0.705453 161.443C2.26639 176.532 10.3312 190.06 23.339 198.125Z" fill="#EAF1F6"/>
    <path d="M163.563 192.141C173.189 183.036 178.652 170.028 178.652 156.5C178.652 139.59 170.067 123.981 155.759 114.875L138.328 103.688C134.686 101.347 129.743 102.388 127.662 106.03C125.32 109.672 126.361 114.615 130.003 116.696L147.434 127.883C149.775 129.444 151.856 131.005 153.677 133.086H75.8906C71.468 133.086 68.0859 136.468 68.0859 140.891C68.0859 145.313 71.468 148.695 75.8906 148.695H162.002C162.523 151.297 163.043 153.898 163.043 156.5C163.043 159.102 162.783 161.703 162.002 164.305H49.875C45.4523 164.305 42.0703 167.687 42.0703 172.109C42.0703 176.532 45.4523 179.914 49.875 179.914H153.417C153.157 180.174 152.897 180.434 152.637 180.955C150.555 183.036 147.694 184.857 144.312 186.678L27.7617 245.213C22.8188 247.555 18.9164 250.416 15.5344 253.538C5.90859 262.904 0.445312 275.391 0.445312 289.18V289.44L0.965627 305.049C1.22578 309.212 4.60781 312.594 8.77031 312.594H9.03047C13.4531 312.334 16.575 308.691 16.575 304.529L16.0547 289.18C16.0547 279.814 19.6969 271.229 26.4609 264.985C28.5422 262.904 31.4039 261.083 34.7859 259.262L151.336 200.466C156.279 197.865 160.181 195.263 163.563 192.141Z" fill="#EAF1F6"/>
    <path d="M179.953 288.659C180.734 270.969 172.148 254.579 157.059 244.953L139.629 233.766C135.987 231.425 131.044 232.466 128.963 236.108C126.621 239.75 127.662 244.693 131.304 246.774L136.507 250.156H101.906C97.4836 250.156 94.1016 253.538 94.1016 257.961C94.1016 262.384 97.4836 265.766 101.906 265.766H156.539C156.799 265.766 157.059 265.766 157.059 265.766C160.702 270.188 163.043 275.652 163.823 281.375H49.875C45.4523 281.375 42.0703 284.757 42.0703 289.18C42.0703 293.602 45.4523 296.984 49.875 296.984H164.344V304.789C164.344 309.212 167.726 312.594 172.148 312.594C176.571 312.594 179.953 308.952 179.953 304.789V289.96C179.953 289.7 179.953 289.44 179.953 289.18C179.953 288.92 179.953 288.92 179.953 288.659Z" fill="#EAF1F6"/>
    </svg>
    