<svg version="1.0" xmlns="http://www.w3.org/2000/svg" width="444" height="444" viewBox="0 0 333 333"><path d="M131.9 5.1c-.4 4.6 2.5 10.8 7.5 16.1 2.5 2.6 3.5 4.4 1.8 3.4-1.3-.8-6-1.6-13.6-2.2-5.4-.5-8.7-1.6-15-4.8C96 9 77 5.9 77 11.8c0 2.2 5.3 7.4 9.8 9.6 3.2 1.7 3.5 3.6.6 3.6-.9 0-4.9 1.4-8.9 3.1-6.9 2.8-8 3-14.2 2.3C44.6 28.1 29 32 27.5 39.7c-.5 3.1 4.3 6.9 11.3 8.9 3.1.8 6.3 1.7 7 2 2.9.9.2 3-6.9 5.5C20 62.7 7.9 70.5 6.5 77.2c-1.3 5.6 2.6 7 14.8 5.4 3.1-.4 5.7-.5 5.7-.3 0 .3-1.1 2.9-2.4 6-1.4 3-3.2 7.9-4 10.9-.9 2.9-2.8 6.6-4.2 8.2-8.2 8.7-14.6 25.3-15.9 41.1-.4 4.6-.2 5.3 1.5 5.8 1.1.3 4-.5 6.5-1.8l4.5-2.2.1 2.1c.1 1.1.3 3.9.4 6.1.4 8.2 1.6 20.9 2.1 21.7.3.5-.1 3.2-1 6.1-4.7 16.3-3.6 40.1 2.2 46.9 3.1 3.7 6.9 1.2 8.6-5.7.8-2.9.9-2.8 4.8 4.8 3.8 7.7 3.9 8 3 14-.8 5.3-.9 10.2-.3 16.8.2 2.2 4.7 6.9 6.6 6.9 1.8 0 3.5-3.8 3.9-9.4.2-2.3.4-4.5.5-5.1.1-.5 3.4 2.5 7.4 6.6 6.2 6.4 7.5 8.2 8.1 12 .9 5.6 4.7 12.1 8.7 15 2.8 1.9 3.6 2.1 6.2 1.1 2.5-.9 3.5-.9 5.2.2 3.1 2 8.9 11.4 9.1 14.7.5 6.1 8.2 16.9 12.1 16.9.8 0 2.5 1.2 3.9 2.8 2.2 2.5 2.5 2.6 3.7 1 .9-1.1 2.6-1.7 4.8-1.6 4.9.2 7.4-.9 8.7-3.7 2.3-5.1-2.2-10.4-10.6-12.5l-4.7-1.3-2.9-10.1c-5.2-18.3-9.9-29-15.1-34.8-8.1-9-10.7-17.5-7.5-24.6 1-2.2 2.8-4.7 4.1-5.6 2.4-1.6 2.4-1.6 3.2 1.6 2.7 10.3 6.2 13.1 16.8 13.1 10.1-.1 15.1-3.9 14-10.8-.7-4.3-5.1-5.2-13.8-2.6-3.3 1-5.2-.2-6.6-4.2-1-2.6 1.9-3.2 19.9-4.3 6-.3 12.6-.7 14.6-.8 3.5-.3 3.6-.2 2.7 2.1-3 7.9.8 13.7 10.6 15.9 9.9 2.3 16.9.9 17.1-3.4.1-2.4-4.7-7.2-7.2-7.2-1.7 0-6.4-4.4-6.4-5.9 0-.5 3.7.8 8.3 2.9 15.7 7.4 37.5 13.5 65.7 18.5 1.9.4 10 .8 18 1 20.2.5 29.5-1.4 44.3-9.2 8.8-4.6 21.3-16.7 25.1-24.1 5.3-10.4 6.4-21.4 3.2-30.7-1.3-3.7-1.3-4 .8-5.4 10.4-7.3 16.6-22.9 17.1-43.2.3-11.1 0-14.2-3-25.4-2.4-9.2-9.7-20.7-17.8-28.1-7.2-6.6-11.1-8.5-14.8-7.2-4.5 1.6-4.3 4.1 1.4 15.8 3.9 7.9 4.2 9 4.2 17s-.3 9.2-3.8 16.3c-3 6.1-6 9.9-13.3 17.3l-9.4 9.5-3.8-2.9c-17.4-13.9-30.4-36.6-39.6-69.2-1.5-5.2-3-10.2-3.3-11-.3-.8-.7-1.7-.7-2-.9-4-4.6-11.8-6.9-14.5-3.4-4.2-5.9-4.4-9.3-.8-2.4 2.6-2.6 3.3-2 9.8.3 3.8 1.2 11 2.1 16 2.1 12.7 1.8 14-1.4 6-1.5-3.9-4.2-9.6-6-12.8-2.1-3.8-3.4-7.7-3.7-11-1.3-14.9-4.9-26.2-9.5-30.2-4.4-3.7-6.5-3.3-7.2 1.3-.4 2-.4 6.2-.1 9.2.6 6.2.6 6.2-6.1-3.8-6.7-10.1-18-20.4-28-25.3-8.7-4.3-18.4-6.3-18.6-3.8z"/></svg>