<svg data-bbox="0 0 25.929 30.251" xmlns="http://www.w3.org/2000/svg" viewBox="0 0 25.929 30.251" height="31" width="26" data-type="color" aria-hidden="true" aria-labelledby="svgcid-h8tv5augvk4a"><path fill="#002360" d="M20.167 2.881h-4.581C14.981 1.21 13.396 0 11.524 0 9.65 0 8.067 1.21 7.462 2.881H2.88A2.89 2.89 0 000 5.76v21.61a2.89 2.89 0 002.881 2.881h8.801a9.714 9.714 0 01-2.045-2.881H2.88V5.762h2.88v1.44a2.89 2.89 0 002.882 2.881h5.762a2.89 2.89 0 002.88-2.88V5.761h2.882v7.317a10.13 10.13 0 012.88.865V5.762a2.89 2.89 0 00-2.88-2.881zm-8.643 2.88c-.792 0-1.44-.647-1.44-1.44 0-.792.648-1.44 1.44-1.44.792 0 1.44.648 1.44 1.44 0 .793-.648 1.44-1.44 1.44zm7.202 10.084a7.205 7.205 0 00-7.202 7.203 7.205 7.205 0 007.202 7.202 7.205 7.205 0 007.203-7.202 7.205 7.205 0 00-7.203-7.203zm1.858 10.084l-2.376-2.377a.734.734 0 01-.216-.504V19.46c0-.403.316-.72.72-.72.403 0 .72.317.72.72v3.299l2.16 2.16a.713.713 0 010 1.023.709.709 0 01-1.008-.014z" data-color="1"/></svg>