<svg data-bbox="0 0 26 28.641" xmlns="http://www.w3.org/2000/svg" viewBox="0 0 26 28.641" height="29" width="26" data-type="color" aria-hidden="true" aria-labelledby="svgcid-ax0led-ptb6y4"><path fill="#002360" d="M15.623 0H2.603A2.611 2.611 0 000 2.604v23.433a2.611 2.611 0 002.604 2.604h13.018a2.611 2.611 0 002.604-2.604V2.604A2.611 2.611 0 0015.623 0zm0 24.736H2.603V3.906h13.02v20.83zm8.63-15.284a.91.91 0 00-1.353-.079l-.04.04c-.325.325-.338.846-.064 1.21 1.64 2.135 1.627 5.039-.026 7.252a.927.927 0 00.065 1.197l.065.066a.914.914 0 001.34-.066c2.344-2.773 2.344-6.756.014-9.62zm-4.178 2.746l-.078.079a.902.902 0 00-.195.99 2.49 2.49 0 010 1.978.902.902 0 00.195.99l.104.104a.9.9 0 001.419-.196c.638-1.159.638-2.525-.013-3.723a.894.894 0 00-1.432-.222z" data-color="1"/></svg>