<svg data-bbox="0 0 28 28" xmlns="http://www.w3.org/2000/svg" height="28" width="28" data-type="color" aria-hidden="true" aria-labelledby="svgcid--2s0e44-k41gtf"><path fill="#002360" d="M14 7c-.77 0-1.4.63-1.4 1.4v4.2H8.4c-.77 0-1.4.63-1.4 1.4 0 .77.63 1.4 1.4 1.4h4.2v4.2c0 .77.63 1.4 1.4 1.4.77 0 1.4-.63 1.4-1.4v-4.2h4.2c.77 0 1.4-.63 1.4-1.4 0-.77-.63-1.4-1.4-1.4h-4.2V8.4c0-.77-.63-1.4-1.4-1.4zm0-7C6.272 0 0 6.272 0 14s6.272 14 14 14 14-6.272 14-14S21.728 0 14 0zm0 25.2C7.826 25.2 2.8 20.174 2.8 14 2.8 7.826 7.826 2.8 14 2.8c6.174 0 11.2 5.026 11.2 11.2 0 6.174-5.026 11.2-11.2 11.2z" data-color="1"/></svg>