<svg width="126" height="100" viewBox="0 0 126 100" fill="none" xmlns="http://www.w3.org/2000/svg">
    <path d="M94.8299 0L84.11 10.3373C83.5822 10.2737 83.0214 10.21 82.4937 10.1782C78.6345 8.68326 71.8068 7.63365 63.7916 13.5816L63.5937 13.7406L60.9549 16.2852C51.0596 9.79654 43.1764 13.8042 40.9665 15.2037L31.1042 5.69338L0 35.6875L11.8083 47.0743C11.9073 52.1635 13.7874 57.4116 17.4157 62.6916C18.933 64.8545 20.6811 66.8583 22.5942 68.7349C25.035 71.1204 27.4759 73.4424 29.9497 75.8279C27.278 79.5493 28.4324 82.6346 31.2031 85.4336C34.0728 88.328 36.7115 88.6461 40.6037 87.5647C40.6367 87.5647 40.6696 87.5646 40.7026 87.5964C43.5063 91.6359 46.0791 93.5762 48.8498 93.7988C50.0042 94.8803 51.1586 95.9617 52.3131 97.0431C55.7434 100.224 60.988 100.955 65.111 98.6653C66.8921 97.6793 67.189 96.8523 68.1126 95.4528C75.1053 101.114 79.789 101.21 85.2974 93.2581C85.3304 93.2263 85.3633 93.2263 85.3963 93.2263C89.2885 94.3078 91.9272 93.9897 94.7969 91.0952C97.7325 88.169 98.821 84.8929 95.5555 80.8534C95.5226 80.8216 94.698 79.7719 94.7309 79.7719C97.0728 79.8355 98.9199 78.4043 99.9094 77.132C102.614 73.7605 102.449 70.1981 99.5466 66.6993C100.833 65.4588 102.086 64.2501 103.373 63.0097C105.286 61.1649 107.034 59.1609 108.551 56.9663C112.213 51.6863 114.093 46.47 114.192 41.3491L126 29.9621L94.8299 0ZM24.4743 64.3773C20.879 60.7195 18.2073 56.7118 17.0528 52.1316C16.789 51.1138 16.5911 50.0642 16.4922 48.9828C16.3932 48.0922 16.3932 47.2016 16.3932 46.311L4.41989 34.765L30.1476 9.95551L38.3937 17.9073L38.9214 18.4162L38.8884 18.5116L42.8796 18.8297L43.1434 18.1936C44.7267 17.1758 51.2246 13.677 59.9324 20.0702L71.444 31.2344C72.0048 31.8069 72.3346 32.5385 72.3346 33.3337C72.3346 34.1289 72.0048 34.8922 71.444 35.433L70.6853 36.1646C69.4649 37.3096 67.5188 37.3096 66.3314 36.1646L54.556 24.7458L51.6864 26.686L54.8858 30.2802L56.2712 31.6161C54.9189 32.9202 53.5665 34.2243 52.2141 35.5284C51.8843 35.8464 51.6864 36.1964 51.5874 36.5781C51.5214 36.6417 51.4555 36.7053 51.3895 36.7689C43.4733 44.4026 35.524 52.0362 27.6408 59.7017C26.0245 61.2603 25.0021 62.8188 24.4743 64.3773ZM62.6702 95.2938C61.7466 96.1208 60.8231 96.6296 59.4707 96.5342C57.5906 96.407 56.2712 95.0075 55.3806 94.1487C54.8199 93.6079 54.2591 93.099 53.7314 92.5583C55.0507 91.8904 56.4031 90.9362 57.8874 89.7594C58.811 91.1589 59.1079 91.9858 60.889 92.9718C61.6806 93.4171 62.5383 93.7352 63.3958 93.9578C63.2309 94.4986 63 95.0075 62.6702 95.2938ZM79.6571 93.767C77.8759 95.7708 75.8639 95.9298 73.2911 93.6397C72.8953 93.2899 72.4995 92.9082 72.1037 92.5583C72.6644 92.2084 73.1921 91.795 73.7198 91.3179C75.2041 89.9502 76.6555 88.5507 78.1398 87.1512C78.3048 87.3102 78.4366 87.4374 78.6016 87.5964C81.0094 89.982 81.3063 91.8586 79.6571 93.767ZM91.9602 87.5647C90.179 89.9184 87.4414 89.9502 85.0005 87.6283C83.7801 86.4514 82.5927 85.2745 81.3722 84.1295C83.3843 82.2529 85.3963 80.3763 87.3754 78.4678C88.4969 79.5493 89.6183 80.6307 90.7728 81.7439C92.9168 83.8114 93.2795 85.8153 91.9602 87.5647ZM96.9408 73.6649C96.0503 75.8596 93.3456 76.8775 91.2016 75.7642C91.0037 75.6688 90.8058 75.5416 90.6079 75.3826C92.521 73.5377 94.4341 71.6929 96.3802 69.8163C97.1718 70.866 97.6005 72.0428 96.9408 73.6649ZM109.574 40.6175C109.607 41.5399 109.574 42.4305 109.475 43.2893C109.376 44.3707 109.178 45.4203 108.914 46.4382C107.727 51.0184 105.022 55.0579 101.427 58.7157C96.5451 63.6776 91.4324 68.4169 86.4188 73.2515C81.1413 78.3407 75.8969 83.4298 70.6194 88.4553C69.6959 89.3141 68.4094 90.7136 66.5293 90.8408C65.1769 90.9362 64.2204 90.4273 63.3298 89.6003C62.5052 88.8369 62.2414 86.9604 62.5712 85.7835C62.9011 84.5112 64.0885 83.3661 65.111 82.3483C67.5189 79.9946 69.9597 77.6409 72.3676 75.319C73.555 74.1739 74.7094 73.0288 75.8968 71.8838C77.1502 70.6433 80.7456 68.0351 78.7335 66.2221C76.8534 64.5363 74.2147 67.7807 73.0932 68.8622C71.9058 70.0072 70.7183 71.1523 69.5309 72.2655C63.9565 77.5137 58.4811 82.8254 52.7419 87.9464C50.1691 90.2683 48.1241 90.0774 46.3759 88.0735C44.6937 86.1651 45.0235 84.2885 47.4644 81.9348C53.7644 75.8278 60.0973 69.7527 66.3973 63.6458C67.2879 62.787 68.0466 62.2463 68.2115 60.9104C68.3435 59.9562 67.9806 59.0974 66.9251 58.9384C65.1769 58.6839 64.4183 59.32 63.3298 60.4015C55.9083 67.5581 48.4869 74.7465 41.0325 81.903C38.5916 84.2568 35.8539 84.1931 34.0727 81.8394C32.7534 80.09 33.1162 78.0862 35.2932 75.9869C42.8466 68.6713 50.3999 61.3875 57.9534 54.1355C59.1738 52.9586 60.1634 51.6227 58.6461 50.255C57.1948 48.9509 55.9413 50.096 54.8528 51.1775C49.0476 56.8073 43.2094 62.4053 37.3712 68.0033C36.5796 68.7349 35.788 69.4982 34.8314 70.0072C32.6874 71.1522 29.9827 70.1026 29.0921 67.9079C28.1685 65.6814 29.356 64.2502 30.8402 62.8188C40.5047 53.5312 50.1691 44.2436 59.7345 34.8923L63.6927 38.7409C65.0451 40.045 66.8261 40.7129 68.5743 40.7129C70.3225 40.7129 72.1037 40.0767 73.456 38.7727L74.2147 38.0412C75.5341 36.8007 76.2267 35.1149 76.2597 33.3337C76.2597 31.6479 75.6 30.0894 74.4785 28.8807L65.7047 20.3246L63.9895 18.6707L66.3314 16.4123C69.9597 13.7405 73.1922 12.8182 75.8639 12.691C80.7456 12.2775 85.0665 14.7266 85.0665 14.7266L87.6722 12.2139L95.9183 4.26213L121.646 29.0716L109.574 40.6175Z" fill="#356F7C"/>
    </svg>
    