<svg width="100" height="100" viewBox="0 0 100 100" fill="none" xmlns="http://www.w3.org/2000/svg">
    <path d="M47.3003 100H52.1136C78.988 98.8577 100 76.9683 100 50.0155C100 23.0627 78.988 1.14236 52.1136 0.0309039L47.362 0L47.3311 0.0309039C20.7653 1.4511 0.000136978 23.3406 0.000136978 50.0155C-0.0615723 76.6905 20.7344 98.5798 47.3003 100ZM17.0936 82.3712C20.2716 80.0557 23.6965 78.0796 27.3373 76.4742C30.7622 83.6678 35.5447 90.0278 41.5922 95.3998C32.3049 93.7018 23.7273 89.1326 17.0936 82.3712ZM48.0408 95.7396C40.7283 90.2441 34.835 83.1122 30.9165 75.0541C36.4086 73.0473 42.1476 71.9049 48.0408 71.6579V95.7396ZM48.0408 67.768C41.623 68.0458 35.3287 69.2807 29.3429 71.5036C27.0596 65.8228 25.7329 59.8024 25.3626 53.5968H48.0408V67.768ZM48.0408 49.7067H25.2392C25.2701 43.3467 26.3191 37.1102 28.3555 31.1824C34.6499 33.6523 41.2528 35.0726 48.0408 35.3505V49.7067ZM57.7292 95.5235C64.0235 89.9353 68.9602 83.2974 72.4468 75.7951C76.3345 77.3696 80.037 79.3764 83.4619 81.7846C76.5505 89.0399 67.5101 93.8563 57.7292 95.5235ZM85.992 78.8515C82.2586 76.1964 78.1858 73.9734 73.9278 72.2445C76.2111 66.3167 77.5687 60.0494 77.9081 53.5968H95.958C95.2792 62.859 91.8235 71.5653 85.992 78.8515ZM87.4422 23.0935C93.0577 30.9046 96.0506 40.0741 96.1123 49.6758H78.0315C78.0006 43.0997 76.9207 36.6162 74.8535 30.4106C79.3274 28.5273 83.5545 26.0574 87.4422 23.0935ZM85.0664 20.068C81.4872 22.754 77.6304 25.0386 73.5576 26.8293C70.1019 18.339 64.6714 10.6822 57.7292 4.50745C68.374 6.29813 77.9698 11.7629 85.0664 20.068ZM51.8976 4.72359C59.9507 10.9292 66.1833 19.0181 69.9476 28.2494C64.1469 30.3179 58.0994 31.4603 51.8976 31.5838V4.72359ZM51.8976 35.443C58.5314 35.3195 65.0417 34.1155 71.2743 31.8618C73.1565 37.6043 74.1438 43.5937 74.1747 49.7067H51.8976V35.443ZM51.8976 53.5968H74.0513C73.681 59.5863 72.4468 65.3906 70.287 70.917C64.3629 68.941 58.192 67.8915 51.8976 67.768V53.5968ZM51.8976 71.5963C57.6674 71.7198 63.3447 72.6768 68.7751 74.4675C64.98 82.5564 59.1485 89.7501 51.8976 95.3382V71.5963ZM48.0408 4.29131V31.4913C41.7465 31.2134 35.6064 29.8858 29.744 27.5703C33.6008 18.4316 39.926 10.4043 48.0408 4.29131ZM41.5613 4.63107C34.8967 10.5897 29.6206 17.9377 26.1957 26.0575C22.4006 24.2359 18.7906 22.0129 15.4583 19.3886C22.3389 11.6702 31.5027 6.48349 41.5613 4.63107ZM13.0208 22.3835C16.6616 25.2547 20.611 27.6937 24.7764 29.6696C22.524 36.0914 21.3824 42.8219 21.3515 49.7376H3.79524C3.88781 39.7962 7.06583 30.3489 13.0208 22.3835ZM3.94953 53.5968H21.475C21.8452 60.2964 23.2954 66.8109 25.7638 72.9547C21.7527 74.7145 17.9575 76.9374 14.4709 79.5C8.33087 72.0903 4.69004 63.1677 3.94953 53.5968Z" fill="#356F7C"/>
    </svg>
    