<svg width="181" height="313" fill="none" xmlns="http://www.w3.org/2000/svg"><path d="M44.932 77.933c-1.56 0-2.862-.52-4.163-1.301L23.34 65.445C9.03 56.34.445 40.731.445 23.82V8.21C.445 3.789 3.827.407 8.25.407s7.805 3.382 7.805 7.805v15.61c0 11.706 5.723 22.373 15.61 28.616l17.43 11.187c3.642 2.342 4.682 7.024 2.34 10.667-1.3 2.341-3.901 3.642-6.503 3.642z" fill="#EAF1F6"/><path d="M23.339 198.125l17.43 11.187c1.301.78 2.862 1.301 4.163 1.301 2.602 0 5.203-1.301 6.504-3.643 2.341-3.642 1.3-8.585-2.342-10.666l-17.43-11.187c-8.845-5.723-14.569-14.829-15.35-25.235-1.04-10.406 2.602-20.552 10.147-27.837 2.081-2.081 4.943-3.902 8.325-5.723l116.55-58.535c4.943-2.342 8.845-5.203 12.227-8.325 9.626-9.366 15.089-21.853 15.089-35.642V8.21c0-4.422-3.382-7.804-7.804-7.804-4.423 0-7.805 3.382-7.805 7.805v7.805H49.875c-4.423 0-7.805 3.382-7.805 7.804 0 4.423 3.382 7.805 7.805 7.805h112.127c-1.3 5.984-4.162 11.187-8.585 15.61H75.891c-4.423 0-7.805 3.381-7.805 7.804s3.382 7.805 7.805 7.805h50.47l-98.6 49.69c-4.942 2.341-8.845 5.203-12.227 8.325C4.608 131.265-.856 146.094.705 161.443c1.561 15.089 9.626 28.617 22.634 36.682z" fill="#EAF1F6"/><path d="M163.563 192.141c9.626-9.105 15.089-22.113 15.089-35.641 0-16.91-8.585-32.519-22.893-41.625l-17.431-11.187c-3.642-2.341-8.585-1.3-10.666 2.342-2.342 3.642-1.301 8.585 2.341 10.666l17.431 11.187c2.341 1.561 4.422 3.122 6.243 5.203H75.891c-4.423 0-7.805 3.382-7.805 7.805 0 4.422 3.382 7.804 7.805 7.804h86.111c.521 2.602 1.041 5.203 1.041 7.805 0 2.602-.26 5.203-1.041 7.805H49.875c-4.423 0-7.805 3.382-7.805 7.804 0 4.423 3.382 7.805 7.805 7.805h103.542c-.26.26-.52.52-.78 1.041-2.082 2.081-4.943 3.902-8.325 5.723l-116.55 58.535c-4.943 2.342-8.846 5.203-12.228 8.325C5.91 262.904.445 275.391.445 289.18v.26l.52 15.609c.26 4.163 3.643 7.545 7.805 7.545h.26c4.423-.26 7.545-3.903 7.545-8.065l-.52-15.349c0-9.366 3.642-17.951 10.406-24.195 2.081-2.081 4.943-3.902 8.325-5.723l116.55-58.796c4.943-2.601 8.845-5.203 12.227-8.325z" fill="#EAF1F6"/><path d="M179.953 288.659c.781-17.69-7.805-34.08-22.894-43.706l-17.43-11.187c-3.642-2.341-8.585-1.3-10.666 2.342-2.342 3.642-1.301 8.585 2.341 10.666l5.203 3.382h-34.601c-4.422 0-7.804 3.382-7.804 7.805s3.382 7.805 7.804 7.805h55.153c3.643 4.422 5.984 9.886 6.764 15.609H49.875c-4.423 0-7.805 3.382-7.805 7.805 0 4.422 3.382 7.804 7.805 7.804h114.469v7.805c0 4.423 3.382 7.805 7.804 7.805 4.423 0 7.805-3.642 7.805-7.805v-16.13z" fill="#EAF1F6"/></svg>