<svg width="39" height="30" viewBox="0 0 39 30" fill="none" xmlns="http://www.w3.org/2000/svg">
<path d="M36.2222 0.333008H2.77777C2.1442 0.333008 1.53658 0.590547 1.08857 1.04897C0.640571 1.50739 0.388885 2.12915 0.388885 2.77745V27.2219C0.388885 27.8702 0.640571 28.492 1.08857 28.9504C1.53658 29.4088 2.1442 29.6663 2.77777 29.6663H36.2222C36.8558 29.6663 37.4634 29.4088 37.9114 28.9504C38.3594 28.492 38.6111 27.8702 38.6111 27.2219V2.77745C38.6111 2.12915 38.3594 1.50739 37.9114 1.04897C37.4634 0.590547 36.8558 0.333008 36.2222 0.333008ZM34.3828 27.2219H4.76055L13.1217 18.373L11.4017 16.6741L2.77777 25.8041V4.63523L17.6247 19.7541C18.0723 20.2094 18.6778 20.4649 19.3089 20.4649C19.94 20.4649 20.5455 20.2094 20.9931 19.7541L36.2222 4.25634V25.6452L27.4311 16.6497L25.7469 18.373L34.3828 27.2219ZM4.3425 2.77745H34.2872L19.3089 18.0186L4.3425 2.77745Z" fill="#2F354C"/>
</svg>
