<svg width="43" height="43" viewBox="0 0 43 43" fill="none" xmlns="http://www.w3.org/2000/svg">
<path d="M0.254242 21.5044C0.255439 26.5647 2.06149 31.4587 5.34779 35.3066C8.63408 39.1546 13.1851 41.7043 18.1829 42.4973V27.6457H12.7917V21.5044H18.1892V16.8295C18.0701 15.7353 18.1933 14.6283 18.5501 13.5871C18.907 12.5458 19.4887 11.596 20.254 10.8049C21.0193 10.0139 21.9494 9.40103 22.9782 9.00992C24.007 8.61882 25.1093 8.45905 26.2069 8.54195C27.8006 8.56745 29.3944 8.70983 30.9669 8.96695V14.1923H28.2809C27.8244 14.1325 27.3602 14.1761 26.9228 14.3198C26.4854 14.4635 26.0859 14.7036 25.7538 15.0225C25.4216 15.3414 25.1654 15.7308 25.004 16.162C24.8426 16.5932 24.7802 17.0551 24.8214 17.5137V21.5044H30.7097L29.7684 27.6478H24.8214V42.4973C28.8326 41.8634 32.5781 40.0934 35.6146 37.3968C38.651 34.7003 40.8513 31.1901 41.9547 27.2819C43.0582 23.3738 43.0187 19.2312 41.8409 15.3448C40.6631 11.4584 38.3964 7.99079 35.309 5.35263C32.2217 2.71447 28.4431 1.0162 24.4205 0.458886C20.398 -0.098428 16.2999 0.508555 12.6117 2.20797C8.92336 3.90739 5.79925 6.62806 3.6092 10.0479C1.41915 13.4677 0.254887 17.4435 0.254242 21.5044Z" fill="#2F354C"/>
</svg>
