<svg width="57" height="57" viewBox="0 0 57 57" fill="none" xmlns="http://www.w3.org/2000/svg">
    <path d="M39.9107 19.6544C41.3273 19.6544 42.4757 18.506 42.4757 17.0894C42.4757 15.6728 41.3273 14.5244 39.9107 14.5244C38.4941 14.5244 37.3457 15.6728 37.3457 17.0894C37.3457 18.506 38.4941 19.6544 39.9107 19.6544Z" fill="#2F354C"/>
    <path d="M28.5 17.5234C26.3291 17.5234 24.207 18.1672 22.402 19.3732C20.597 20.5793 19.1902 22.2935 18.3594 24.2991C17.5287 26.3048 17.3113 28.5117 17.7348 30.6408C18.1583 32.77 19.2037 34.7257 20.7387 36.2607C22.2738 37.7958 24.2295 38.8411 26.3587 39.2647C28.4878 39.6882 30.6947 39.4708 32.7003 38.6401C34.706 37.8093 36.4202 36.4025 37.6263 34.5975C38.8323 32.7925 39.4761 30.6704 39.4761 28.4995C39.4761 25.5885 38.3197 22.7967 36.2612 20.7383C34.2028 18.6798 31.411 17.5234 28.5 17.5234ZM28.5 35.6245C27.0908 35.6245 25.7133 35.2066 24.5416 34.4237C23.3699 33.6408 22.4566 32.528 21.9174 31.2261C21.3781 29.9242 21.237 28.4916 21.5119 27.1095C21.7868 25.7274 22.4654 24.4578 23.4619 23.4614C24.4583 22.4649 25.7279 21.7863 27.11 21.5114C28.4921 21.2365 29.9247 21.3776 31.2266 21.9169C32.5285 22.4561 33.6413 23.3694 34.4242 24.5411C35.2071 25.7128 35.625 27.0903 35.625 28.4995C35.625 30.3892 34.8743 32.2014 33.5381 33.5376C32.2019 34.8738 30.3897 35.6245 28.5 35.6245Z" fill="#2F354C"/>
    <path d="M28.5 10.9761C34.2071 10.9761 34.884 10.9974 37.1373 11.1007C38.4925 11.1168 39.8349 11.3657 41.1059 11.8364C42.028 12.1921 42.8654 12.7369 43.5642 13.4358C44.2631 14.1346 44.8079 14.972 45.1636 15.8941C45.6343 17.1651 45.8832 18.5075 45.8993 19.8627C46.0026 22.116 46.0239 22.7929 46.0239 28.5018C46.0239 34.2107 46.0026 34.884 45.8993 37.1373C45.8832 38.4925 45.6343 39.8349 45.1636 41.1059C44.8079 42.028 44.2631 42.8654 43.5642 43.5642C42.8654 44.2631 42.028 44.8079 41.1059 45.1636C39.8349 45.6343 38.4925 45.8832 37.1373 45.8993C34.884 46.0026 34.2071 46.0239 28.5 46.0239C22.7929 46.0239 22.116 46.0026 19.8627 45.8993C18.5075 45.8832 17.1651 45.6343 15.8941 45.1636C14.972 44.8079 14.1346 44.2631 13.4358 43.5642C12.7369 42.8654 12.1921 42.028 11.8364 41.1059C11.3657 39.8349 11.1168 38.4925 11.1007 37.1373C10.9974 34.884 10.9761 34.2071 10.9761 28.5C10.9761 22.7929 10.9974 22.116 11.1007 19.8627C11.1168 18.5075 11.3657 17.1651 11.8364 15.8941C12.1921 14.972 12.7369 14.1346 13.4358 13.4358C14.1346 12.7369 14.972 12.1921 15.8941 11.8364C17.1651 11.3657 18.5075 11.1168 19.8627 11.1007C22.116 10.9974 22.7929 10.9761 28.5 10.9761ZM28.5 7.125C22.6949 7.125 21.9664 7.14994 19.6864 7.25325C17.9136 7.28905 16.1598 7.62512 14.4994 8.24719C13.0792 8.79634 11.7895 9.63617 10.7128 10.7128C9.63617 11.7895 8.79634 13.0792 8.24719 14.4994C7.62492 16.1603 7.28885 17.9148 7.25325 19.6882C7.14994 21.9682 7.125 22.6931 7.125 28.5C7.125 34.3069 7.14994 35.0336 7.25325 37.3136C7.28905 39.0864 7.62512 40.8402 8.24719 42.5006C8.79634 43.9208 9.63617 45.2105 10.7128 46.2872C11.7895 47.3638 13.0792 48.2037 14.4994 48.7528C16.1603 49.3751 17.9148 49.7112 19.6882 49.7467C21.9682 49.8501 22.6949 49.875 28.5 49.875C34.3051 49.875 35.0336 49.8501 37.3136 49.7467C39.087 49.7112 40.8414 49.3751 42.5024 48.7528C43.9226 48.2037 45.2123 47.3638 46.289 46.2872C47.3656 45.2105 48.2054 43.9208 48.7546 42.5006C49.3763 40.8396 49.7117 39.0851 49.7467 37.3118C49.8501 35.0318 49.875 34.3069 49.875 28.5C49.875 22.6931 49.8501 21.9664 49.7467 19.6864C49.711 17.9136 49.3749 16.1598 48.7528 14.4994C48.2037 13.0792 47.3638 11.7895 46.2872 10.7128C45.2105 9.63617 43.9208 8.79634 42.5006 8.24719C40.8396 7.62553 39.0851 7.29006 37.3118 7.25503C35.0318 7.14816 34.3069 7.125 28.5 7.125Z" fill="#2F354C"/>
    </svg>
    