<svg width="26" height="45" viewBox="0 0 26 45" fill="none" xmlns="http://www.w3.org/2000/svg">
<path d="M21.0253 0C22.4019 0 23.5752 0.510638 24.5451 1.53191C25.515 2.55319 26 3.76596 26 5.17021V39.8298C26 41.234 25.515 42.4468 24.5451 43.4681C23.5752 44.4894 22.4019 45 21.0253 45H4.97473C3.59807 45 2.42479 44.4894 1.45487 43.4681C0.484958 42.4468 0 41.234 0 39.8298V5.17021C0 3.76596 0.484958 2.55319 1.45487 1.53191C2.42479 0.510638 3.59807 0 4.97473 0H21.0253ZM13 42.8936C13.8448 42.8936 14.5644 42.6064 15.1588 42.0319C15.7533 41.4574 16.0505 40.7394 16.0505 39.8777C16.0505 39.016 15.7533 38.2819 15.1588 37.6755C14.5644 37.0692 13.8448 36.766 13 36.766C12.1552 36.766 11.4513 37.0692 10.8881 37.6755C10.3249 38.2819 10.0433 39.016 10.0433 39.8777C10.0433 40.7394 10.3249 41.4574 10.8881 42.0319C11.4513 42.6064 12.1552 42.8936 13 42.8936ZM22.0578 34.7553V6.12766H4.0361V34.7553H22.0578Z" fill="#2F354C"/>
</svg>
