<svg width="289" height="503" viewBox="0 0 289 503" fill="none" xmlns="http://www.w3.org/2000/svg">
    <path d="M71.6836 125.273C69.1758 125.273 67.0859 124.438 64.9961 123.184L36.9922 105.211C14.0039 90.582 0.210938 65.5039 0.210938 38.3359V13.2578C0.210938 6.15234 5.64453 0.71875 12.75 0.71875C19.8555 0.71875 25.2891 6.15234 25.2891 13.2578V38.3359C25.2891 57.1445 34.4844 74.2812 50.3672 84.3125L78.3711 102.285C84.2227 106.047 85.8945 113.57 82.1328 119.422C80.043 123.184 75.8633 125.273 71.6836 125.273Z" fill="#EAF1F6"/>
    <path d="M36.9923 318.375L64.9962 336.348C67.086 337.602 69.5938 338.438 71.6837 338.438C75.8634 338.438 80.043 336.348 82.1329 332.586C85.8946 326.734 84.2227 318.793 78.3712 315.449L50.3673 297.477C36.1563 288.281 26.961 273.652 25.7071 256.934C24.0352 240.215 29.8868 223.914 42.0079 212.211C45.3516 208.867 49.9493 205.941 55.3829 203.016L242.633 108.973C250.574 105.211 256.844 100.613 262.277 95.5977C277.742 80.5508 286.52 60.4883 286.52 38.3359V13.2578C286.52 6.15234 281.086 0.71875 273.981 0.71875C266.875 0.71875 261.441 6.15234 261.441 13.2578V25.7969H79.6251C72.5196 25.7969 67.086 31.2305 67.086 38.3359C67.086 45.4414 72.5196 50.875 79.6251 50.875H259.77C257.68 60.4883 253.082 68.8477 245.977 75.9531H121.422C114.316 75.9531 108.883 81.3867 108.883 88.4922C108.883 95.5977 114.316 101.031 121.422 101.031H202.508L44.0977 180.863C36.1563 184.625 29.8868 189.223 24.4532 194.238C6.89852 210.957 -1.87882 234.781 0.628994 259.441C3.13681 283.684 16.0938 305.418 36.9923 318.375Z" fill="#EAF1F6"/>
    <path d="M262.277 308.762C277.742 294.133 286.52 273.234 286.52 251.5C286.52 224.332 272.727 199.254 249.738 184.625L221.734 166.652C215.883 162.891 207.941 164.563 204.598 170.414C200.836 176.266 202.508 184.207 208.359 187.551L236.363 205.523C240.125 208.031 243.469 210.539 246.395 213.883H121.422C114.316 213.883 108.883 219.316 108.883 226.422C108.883 233.527 114.316 238.961 121.422 238.961H259.77C260.605 243.141 261.441 247.32 261.441 251.5C261.441 255.68 261.023 259.859 259.77 264.039H79.625C72.5195 264.039 67.0859 269.473 67.0859 276.578C67.0859 283.684 72.5195 289.117 79.625 289.117H245.977C245.559 289.535 245.141 289.953 244.723 290.789C241.379 294.133 236.781 297.059 231.348 299.984L44.0977 394.027C36.1562 397.789 29.8867 402.387 24.4531 407.402C8.98828 422.449 0.210938 442.512 0.210938 464.664V465.082L1.04688 490.16C1.46485 496.848 6.89844 502.281 13.5859 502.281H14.0039C21.1094 501.863 26.125 496.012 26.125 489.324L25.2891 464.664C25.2891 449.617 31.1406 435.824 42.0078 425.793C45.3516 422.449 49.9492 419.524 55.3828 416.598L242.633 322.137C250.574 317.957 256.844 313.777 262.277 308.762Z" fill="#EAF1F6"/>
    <path d="M288.609 463.828C289.863 435.406 276.07 409.074 251.828 393.609L223.824 375.637C217.973 371.875 210.031 373.547 206.688 379.398C202.926 385.25 204.598 393.191 210.449 396.535L218.809 401.969H163.219C156.113 401.969 150.68 407.402 150.68 414.508C150.68 421.613 156.113 427.047 163.219 427.047H250.992C251.41 427.047 251.828 427.047 251.828 427.047C257.68 434.152 261.441 442.93 262.695 452.125H79.625C72.5195 452.125 67.0859 457.559 67.0859 464.664C67.0859 471.77 72.5195 477.203 79.625 477.203H263.531V489.742C263.531 496.848 268.965 502.281 276.07 502.281C283.176 502.281 288.609 496.43 288.609 489.742V465.918C288.609 465.5 288.609 465.082 288.609 464.664C288.609 464.246 288.609 464.246 288.609 463.828Z" fill="#EAF1F6"/>
    </svg>
    