<svg width="1440" height="178" viewBox="0 0 1440 178" fill="none" xmlns="http://www.w3.org/2000/svg">
    <rect width="1440" height="178" fill="#EAF1F6"/>
    <path d="M1380.88 124.516C1380.88 126.515 1380.7 128.325 1380.32 129.946C1379.94 131.567 1379.37 133.08 1378.62 134.485C1377.91 135.944 1377.02 137.322 1375.94 138.619C1374.91 139.97 1373.7 141.348 1372.29 142.753L1366.29 139.997C1366.67 139.565 1367.05 139.051 1367.43 138.457C1367.75 137.917 1368.11 137.268 1368.48 136.512C1368.86 135.809 1369.19 134.972 1369.46 133.999C1367.19 133.567 1365.32 132.486 1363.86 130.757C1362.4 129.028 1361.67 126.947 1361.67 124.516C1361.67 123.219 1361.92 121.976 1362.4 120.787C1362.94 119.598 1363.65 118.572 1364.51 117.707C1365.38 116.842 1366.38 116.167 1367.51 115.681C1368.7 115.14 1369.97 114.87 1371.32 114.87C1372.62 114.87 1373.83 115.14 1374.97 115.681C1376.16 116.167 1377.18 116.842 1378.05 117.707C1378.91 118.572 1379.59 119.598 1380.07 120.787C1380.61 121.976 1380.88 123.219 1380.88 124.516ZM1405.69 124.516C1405.69 126.515 1405.5 128.325 1405.12 129.946C1404.74 131.567 1404.17 133.08 1403.42 134.485C1402.72 135.944 1401.82 137.322 1400.74 138.619C1399.72 139.97 1398.5 141.348 1397.1 142.753L1391.1 139.997C1391.48 139.565 1391.85 139.051 1392.23 138.457C1392.56 137.917 1392.91 137.268 1393.29 136.512C1393.66 135.809 1393.99 134.972 1394.26 133.999C1391.99 133.567 1390.12 132.486 1388.67 130.757C1387.21 129.028 1386.48 126.947 1386.48 124.516C1386.48 123.219 1386.72 121.976 1387.21 120.787C1387.75 119.598 1388.45 118.572 1389.31 117.707C1390.18 116.842 1391.18 116.167 1392.31 115.681C1393.5 115.14 1394.77 114.87 1396.12 114.87C1397.42 114.87 1398.64 115.14 1399.77 115.681C1400.96 116.167 1401.99 116.842 1402.85 117.707C1403.72 118.572 1404.39 119.598 1404.88 120.787C1405.42 121.976 1405.69 123.219 1405.69 124.516Z" fill="#CFDEE9"/>
    </svg>
    