		<svg id="Сгруппировать_356" data-name="Сгруппировать 356" xmlns="http://www.w3.org/2000/svg" width="22.03" height="53.305" viewBox="0 0 22.03 53.305">
										<path id="Контур_287" data-name="Контур 287" d="M1809.857,187.547l-9.156-4.578-9.156,4.578,9.156,4.578Z" transform="translate(-1789.687 -147.975)" fill="#9bb2b0"/>
										<path id="Контур_288" data-name="Контур 288" d="M1791.546,195.87v-9.156l9.156,4.578,9.156-4.578v9.156l-9.156,4.578Z" transform="translate(-1789.687 -147.143)" fill="#ff9b2e"/>
										<path id="Контур_289" data-name="Контур 289" d="M1809.857,168.553l-9.156-4.578-9.156,4.578,9.156,4.578Z" transform="translate(-1789.687 -152.204)" fill="#9bb2b0"/>
										<path id="Контур_290" data-name="Контур 290" d="M1809.857,178.186l-9.156-4.578-9.156,4.578,9.156,4.578Z" transform="translate(-1789.687 -150.059)" fill="#9bb2b0"/>
										<path id="Контур_291" data-name="Контур 291" d="M1791.546,167.247v-9.156l9.156,4.578,9.156-4.578v9.156l-9.156,4.578Z" transform="translate(-1789.687 -153.512)" fill="#ff9b2e"/>
										<path id="Контур_292" data-name="Контур 292" d="M1809.857,158.924l-9.156-4.578-9.156,4.578,9.156,4.578Z" transform="translate(-1789.687 -154.346)" fill="#9bb2b0"/>
										<path id="Контур_293" data-name="Контур 293" d="M1791.546,176.875V167.72l9.156,4.578,9.156-4.578v9.156l-9.156,4.578Z" transform="translate(-1789.687 -151.37)" fill="#ff9b2e"/>
										<path id="Контур_294" data-name="Контур 294" d="M1791.546,186.508v-9.156l9.156,4.578,9.156-4.578v9.156l-9.156,4.578Z" transform="translate(-1789.687 -149.225)" fill="#ff9b2e"/>
										<path id="Контур_295" data-name="Контур 295" d="M1810.76,179.394l-.563-.271v.553l-9.156,4.584-9.155-4.583h0v-.554l-.564.272-1.3.648,11.015,5.5,11.015-5.5Z" transform="translate(-1790.025 -148.833)" fill="#f28519"/>
										<path id="Контур_296" data-name="Контур 296" d="M1812.055,179.875v2.683l-11.015,5.8-11.016-5.592v-2.894l11.015,5.5Z" transform="translate(-1790.025 -148.665)" fill="#ffac6e"/>
									  </svg>
									  