<svg width="39" height="30" fill="none" xmlns="http://www.w3.org/2000/svg"><path d="M36.222.333H2.778c-.634 0-1.241.258-1.69.716-.447.458-.7 1.08-.7 1.728v24.445c0 .648.253 1.27.7 1.728a2.362 2.362 0 001.69.716h33.444c.634 0 1.241-.257 1.69-.716.447-.458.7-1.08.7-1.728V2.777c0-.648-.253-1.27-.7-1.728a2.362 2.362 0 00-1.69-.716zm-1.84 26.889H4.762l8.36-8.849-1.72-1.699-8.623 9.13V4.635l14.847 15.12c.447.454 1.053.71 1.684.71s1.236-.256 1.684-.71l15.23-15.499v21.39L27.43 16.65l-1.684 1.723 8.636 8.849zM4.343 2.777h29.945L19.31 18.02 4.343 2.777z" fill="#2F354C"/></svg>