<svg width="57" height="57" fill="none" xmlns="http://www.w3.org/2000/svg"><path d="M39.91 19.654a2.565 2.565 0 100-5.13 2.565 2.565 0 000 5.13zM28.5 17.523a10.977 10.977 0 100 21.954 10.977 10.977 0 000-21.954zm0 18.101a7.125 7.125 0 110-14.25 7.125 7.125 0 010 14.25z" fill="#2F354C"/><path d="M28.5 10.976c5.707 0 6.384.021 8.637.125a11.85 11.85 0 013.969.735 7.08 7.08 0 014.058 4.058c.47 1.271.72 2.614.735 3.969.104 2.253.125 2.93.125 8.639s-.021 6.382-.125 8.635a11.832 11.832 0 01-.735 3.969 7.08 7.08 0 01-4.058 4.058c-1.271.47-2.614.72-3.969.735-2.253.104-2.93.125-8.637.125-5.707 0-6.384-.021-8.637-.125a11.832 11.832 0 01-3.969-.735 7.08 7.08 0 01-4.058-4.058 11.832 11.832 0 01-.735-3.969c-.104-2.253-.125-2.93-.125-8.637 0-5.707.021-6.384.125-8.637a11.85 11.85 0 01.735-3.969 7.08 7.08 0 014.058-4.058c1.271-.47 2.614-.72 3.969-.735 2.253-.104 2.93-.125 8.637-.125zm0-3.851c-5.805 0-6.534.025-8.814.128a15.687 15.687 0 00-5.187.994A10.93 10.93 0 008.247 14.5a15.687 15.687 0 00-.994 5.19c-.103 2.28-.128 3.004-.128 8.811s.025 6.534.128 8.814c.036 1.772.372 3.526.994 5.187a10.93 10.93 0 006.252 6.252c1.661.622 3.416.958 5.19.994 2.28.103 3.006.128 8.811.128s6.534-.025 8.814-.128a15.684 15.684 0 005.188-.994 10.93 10.93 0 006.253-6.252c.621-1.661.957-3.416.992-5.19.103-2.28.128-3.004.128-8.811s-.025-6.534-.128-8.814a15.684 15.684 0 00-.994-5.187A10.93 10.93 0 0042.5 8.247a15.687 15.687 0 00-5.19-.992c-2.28-.107-3.004-.13-8.811-.13z" fill="#2F354C"/></svg>