<svg width="90" height="130" viewBox="0 0 90 130" fill="none" xmlns="http://www.w3.org/2000/svg">
<path d="M66.1683 69.7297C71.4398 63.7542 78.3587 52.0093 77.4801 42.7369C75.9425 27.1799 62.4342 10.5927 40.4694 10.5927H38.9319C25.753 11.1078 8.84012 20.4832 2.68998 30.6828C-4.66823 42.9429 4.33742 60.4573 14.4412 69.9357C2.47041 77.7657 2.79985 92.1894 4.11774 101.153C6.53387 117.328 15.3198 123.509 28.9379 128.352C32.6719 129.691 43.3249 130 47.0589 130C64.8504 130 78.2488 114.237 80.7748 98.9892C82.9713 85.9048 77.3703 74.984 66.1683 69.7297ZM51.0125 59.6331C49.3652 60.3543 47.4982 60.6634 45.741 60.6634C37.7239 60.6634 28.1691 56.8514 25.753 49.8456C24.8744 47.2699 25.9727 43.149 28.279 40.8824C32.2327 36.8644 39.1516 34.3917 45.741 34.3917C49.6947 34.3917 59.0296 35.422 60.4573 44.7974L60.5673 45.5186C60.8968 51.288 57.0528 56.9544 51.0125 59.6331ZM32.5622 85.1836C36.0765 83.8443 40.7989 83.0201 44.9722 83.0201C50.3536 83.0201 54.7465 84.2564 57.1626 86.626C60.0181 89.3047 61.4459 93.1167 61.1164 96.9286C60.7869 100.329 59.1395 103.213 56.3939 105.068C53.4287 107.025 50.2438 108.055 46.9491 108.055C37.614 108.055 29.3773 105.068 27.071 98.371C25.4236 93.4258 28.4987 86.729 32.5622 85.1836Z" fill="#6CB4B8"/>
<path d="M83.5208 58.7059C81.8734 57.2636 80.7752 54.5848 79.6769 52.7304C78.7983 51.391 77.9198 49.8457 77.1511 48.4033C76.3823 52.8334 74.5153 57.3666 72.209 61.3846C75.6135 61.2816 79.018 61.1785 82.4225 61.1785C83.7404 61.0754 84.3994 59.5301 83.5208 58.7059Z" fill="#122528"/>
<path d="M81.5439 70.2448C81.5439 69.4206 80.8849 68.9054 80.0064 68.8024C76.3822 68.5963 73.307 70.2448 70.3418 72.0993C73.5267 74.3659 76.0527 77.1475 77.9197 80.4444C78.359 79.105 78.7983 77.7657 79.2376 76.5293C80.1162 74.3658 81.5439 72.7174 81.5439 70.2448Z" fill="#122528"/>
<path d="M77.4804 42.7369C77.5902 43.5611 77.4804 44.4883 77.4804 45.4155C77.7 45.3125 77.9197 45.3124 78.0295 45.2094C79.3474 44.6943 80.4457 44.0762 81.6537 43.458C83.5207 42.4278 85.827 41.0885 86.8154 39.131C87.035 38.7189 87.1449 38.1007 86.8154 37.6886C85.4975 36.0402 82.8617 36.3492 80.7751 36.2462C79.2375 36.2462 77.7001 36.2462 76.0527 36.1432C76.7117 38.3067 77.2607 40.5733 77.4804 42.7369Z" fill="#122528"/>
<path d="M74.5152 32.0221C75.284 31.0949 76.0528 30.1676 77.0413 29.2404C78.5788 27.9011 81.1047 25.8405 78.6886 23.986C75.5037 21.6164 71.0008 20.8953 66.498 20.5862C69.9026 23.986 72.5384 27.9011 74.5152 32.0221Z" fill="#122528"/>
<path d="M38.6023 10.6957C38.3826 10.2836 38.1629 9.76844 37.9432 9.35634C36.5155 6.57463 36.9548 3.79289 36.1861 1.01118C35.8566 -0.0190804 34.5388 -0.328134 33.6602 0.393049C31.4637 2.45357 30.4752 5.64735 28.6082 8.01695C27.1805 9.87142 26.1921 11.7259 25.3135 13.7865C29.9261 11.932 34.429 10.9017 38.6023 10.6957Z" fill="#122528"/>
<path d="M76.6019 110.94C74.4054 115.061 71.4401 118.77 67.9258 121.964C71.2205 123.406 75.5037 123.509 78.7984 123.509C79.5671 123.509 80.3359 122.891 80.3359 122.067C80.1163 119.388 79.2377 116.401 78.2493 113.928C77.7001 112.898 77.151 111.867 76.6019 110.94Z" fill="#122528"/>
<path d="M59.799 15.7439C60.3481 13.2713 60.7875 10.9017 61.2268 8.42906C61.3366 7.3988 60.5678 6.47155 59.3597 6.67761C54.7471 7.60484 49.8051 8.84119 45.4121 10.9017C50.9033 11.6229 55.6257 13.2713 59.799 15.7439Z" fill="#122528"/>
<path d="M83.0816 99.9164C82.3128 98.7831 81.6539 97.6498 80.9949 96.5165C80.8851 97.3407 80.885 98.2679 80.7752 99.0921C80.2261 102.492 79.1278 105.892 77.4805 109.189C80.2261 109.189 82.9718 109.086 85.8272 109.189C86.8156 109.189 87.5843 108.261 87.2548 107.437C86.2664 104.759 84.6191 102.286 83.0816 99.9164Z" fill="#122528"/>
<path d="M88.7924 84.7715C88.0236 84.4624 87.2548 83.8443 86.5959 83.5352C85.3878 82.9171 83.6306 82.711 82.3127 82.505C81.2145 82.2989 80.0064 82.2988 78.9082 82.2988C80.3359 85.3896 81.1047 88.8925 81.2145 92.6014C81.544 92.3954 81.8735 92.1893 82.0931 92.0863C83.7405 91.1591 85.2779 90.1288 86.8155 88.9955C88.0235 88.1713 89.7807 87.5533 90.0004 86.0079C90.0004 85.4927 89.3415 84.9775 88.7924 84.7715Z" fill="#122528"/>
<path d="M23.6661 18.7317C22.6777 19.2469 21.4698 20.2771 20.4814 21.4104C19.0537 22.8528 17.7357 24.6042 16.8571 25.8406C15.2098 28.0041 15.9786 31.61 19.4929 30.6827C21.3599 30.1676 23.1171 28.5192 24.6546 27.386C26.302 26.1496 29.3771 24.5012 29.9262 22.5437C30.695 19.0408 26.7412 16.8773 23.6661 18.7317Z" fill="#F2FBFD"/>
<path d="M13.343 35.9371C11.4759 37.2764 9.60891 39.0279 10.158 41.3975C10.2679 42.1187 11.0367 42.4278 11.6956 42.5308C14.0019 42.7368 15.5394 39.8521 15.759 37.9976C15.759 37.9976 15.759 37.9976 15.759 37.8946C17.0769 36.7613 14.8805 34.7008 13.343 35.9371Z" fill="#F2FBFD"/>
<path d="M41.0187 18.3196C39.591 19.1438 36.9552 21.5134 37.3945 23.4709C37.3945 25.5314 40.3598 25.7375 41.8973 25.1193C43.6545 24.3981 48.5966 21.4104 47.6081 19.0408C46.5099 16.156 43.2152 16.8772 41.0187 18.3196Z" fill="#F2FBFD"/>
<path d="M54.1977 70.554C53.5388 70.554 52.77 70.863 52.0012 71.3781C49.6949 72.2023 48.4868 74.675 48.9261 76.9415C49.4752 80.2384 53.9781 76.8385 54.7468 75.8083C55.9549 74.4689 57.7121 70.554 54.1977 70.554Z" fill="#F2FBFD"/>
<path d="M63.7519 66.1237C65.2895 65.5056 67.2663 63.7541 66.2779 62.1057C65.7288 61.2815 65.0699 61.0754 64.411 61.1784C59.6885 60.4573 58.9197 67.9782 63.7519 66.1237Z" fill="#F2FBFD"/>
<path d="M35.8569 71.1721C35.5274 71.4812 34.8684 72.3053 34.2095 73.3356C32.3425 75.0871 31.2442 78.0748 31.5737 80.0323C32.2326 84.8745 41.1284 76.2204 42.007 74.675C42.5561 73.5417 43.7642 70.5539 41.8972 69.7297C39.7007 68.9055 37.5042 69.8327 35.8569 71.1721Z" fill="#F2FBFD"/>
<path d="M65.3988 108.571C63.422 108.364 61.6649 109.601 60.6765 111.352C59.5783 112.795 58.8094 114.649 59.2487 116.194C59.9077 119.491 63.8614 116.401 64.9597 115.267C66.2775 113.825 69.4623 109.086 65.3988 108.571Z" fill="#F2FBFD"/>
<path d="M73.4165 101.359C71.22 100.844 68.6941 103.213 68.9138 105.274C69.0236 105.995 69.353 106.51 70.1218 106.716C71.879 107.231 74.2952 105.995 74.8443 104.346C75.0639 103.522 74.8442 102.904 74.5148 102.389C74.4049 101.977 74.0755 101.565 73.4165 101.359Z" fill="#F2FBFD"/>
</svg>
