<svg width="172" height="136" viewBox="0 0 172 136" fill="none" xmlns="http://www.w3.org/2000/svg">
<path d="M32.6274 90.7715C33.07 90.8453 33.5126 90.8453 33.9553 90.7715C34.6931 89.8861 35.3571 88.8533 35.9473 87.8204C37.718 84.5742 38.7508 81.0328 39.5624 77.4915C41.4068 69.6711 42.366 61.408 46.0548 54.104C50.5553 45.2507 55.7197 35.9547 65.0156 31.5281C70.4014 28.9459 76.5249 27.5441 82.3534 26.585C87.8129 25.6259 93.7889 24.8881 99.3222 25.8472C108.028 27.3228 114.963 33.4463 120.201 40.2338C125.661 47.3903 129.719 55.5796 132.965 63.9164C135.547 70.7778 137.392 77.9342 139.974 84.7955C141.449 88.7057 143.072 92.5421 145.138 96.231C146.983 99.4772 149.048 102.65 151.926 105.084C152.442 105.527 153.032 106.043 153.623 106.486C153.77 106.339 153.844 106.191 153.991 105.97C156.5 102.576 157.828 98.1492 155.91 94.239C153.991 90.3288 150.303 88.8533 146.171 89.0008C145.286 89.0008 144.4 89.1484 143.515 89.2959C143.736 89.0008 143.958 88.7057 144.179 88.3368C146.983 84.1315 149.048 78.8933 148.532 73.8026C148.089 68.6382 144.105 64.2115 139.236 62.5884C140.195 61.0391 141.007 59.416 141.597 57.7191C144.327 49.7512 140.416 40.3814 132.817 36.9138C130.309 35.8072 127.579 35.217 124.849 35.1432C128.464 29.3885 130.899 22.601 127.727 16.1086C125.882 12.3459 122.267 9.0997 118.431 7.55037C114.889 6.07482 110.905 6.14858 107.29 7.25524C101.462 9.09968 96.4449 13.305 92.6085 18.1743C90.764 12.1246 87.4441 6.00104 82.1321 2.38594C76.3774 -1.52427 68.8521 -0.343828 63.5401 3.86149C57.4903 8.58326 55.7935 17.5841 56.0886 24.8143C56.1623 26.9539 56.4575 29.3147 57.0477 31.6018C55.3508 31.6018 53.5801 31.8232 51.957 32.2659C45.5384 33.9627 38.7508 38.9058 37.6442 45.8409C36.9064 50.3414 38.3082 55.2107 40.3001 59.2684C40.669 60.08 41.1118 60.8916 41.5544 61.6293C41.3331 61.7031 41.1117 61.7031 40.8904 61.7769C36.8326 62.6622 33.07 65.1707 30.1927 67.9742C26.7989 71.2942 24.3643 75.9422 24.8807 80.7377C24.9545 84.943 27.9056 90.255 32.6274 90.7715Z" fill="#FFCE33"/>
<path d="M45.1694 47.8329C46.276 48.4231 47.3089 49.0134 48.4155 49.6036C48.5631 49.3085 48.7107 49.0872 48.8583 48.792C47.6778 48.128 46.4974 47.5378 45.2431 46.9476C42.8823 45.6934 40.4476 44.5867 37.9391 43.5538C37.8654 43.7752 37.7916 43.9965 37.7178 44.2178C40.3 45.2507 42.7347 46.5049 45.1694 47.8329Z" fill="#122528"/>
<path d="M36.5378 86.6398C33.1441 86.3446 29.6765 86.1233 26.209 85.902C26.5041 86.4184 26.7993 86.8611 27.0944 87.3037C30.0455 87.4513 32.9966 87.5251 35.9477 87.7464C36.169 87.3775 36.3165 87.0086 36.5378 86.6398Z" fill="#122528"/>
<path d="M47.088 44.439C48.0471 45.2505 49.0062 46.0621 49.8915 46.9474C50.1128 46.6523 50.2604 46.2834 50.4818 45.9883C49.5964 45.2505 48.7111 44.439 47.8258 43.7012C45.6862 41.8568 43.3991 40.1599 41.2596 38.3154C41.0382 38.5368 40.8907 38.7581 40.7432 38.9057C42.7352 40.8239 44.9485 42.5945 47.088 44.439Z" fill="#122528"/>
<path d="M50.7765 37.3564C52.0307 38.3155 53.2112 39.2746 54.4654 40.2337C54.6867 39.9386 54.9818 39.5697 55.2769 39.2746C54.1703 38.3893 52.9899 37.5039 51.8094 36.6924C50.4076 35.6595 49.0796 34.7004 47.6778 33.6675C47.3827 33.815 47.0139 33.9626 46.7188 34.1839C48.0467 35.2168 49.3747 36.3235 50.7765 37.3564Z" fill="#122528"/>
<path d="M55.7198 31.8968C55.5722 31.7493 55.4247 31.6017 55.2771 31.528C54.9082 31.528 54.4656 31.6017 54.0967 31.6755C54.6869 32.2657 55.3509 32.8559 55.9411 33.5199C56.7527 34.3315 57.5642 35.2168 58.302 36.1022C58.5233 35.8808 58.8184 35.6595 59.0397 35.4382C58.0069 34.1839 56.9002 33.0035 55.7198 31.8968Z" fill="#122528"/>
<path d="M86.4853 25.9209C86.7066 23.56 86.9279 21.2729 87.1492 18.912C87.5181 15.4445 87.8132 11.9031 87.887 8.4356C87.5919 7.99294 87.2968 7.55028 86.9279 7.1814C86.7066 10.9441 86.3376 14.7805 85.9688 18.5431C85.6737 21.0516 85.3786 23.56 85.1572 26.0684C85.5999 26.0684 86.0426 25.9947 86.4853 25.9209Z" fill="#122528"/>
<path d="M95.8551 23.2648C96.5929 19.5759 97.3307 15.8133 98.1422 12.1244C97.7733 12.4195 97.3307 12.7884 96.9618 13.1573C96.1502 16.4035 95.3387 19.6497 94.6747 22.9697C94.5271 23.7813 94.3795 24.5928 94.1582 25.4044C94.6009 25.4044 94.9698 25.4044 95.3387 25.4781C95.6338 24.7404 95.7076 24.0026 95.8551 23.2648Z" fill="#122528"/>
<path d="M24.5117 80.4426C24.5117 80.5164 24.5117 80.5902 24.5117 80.664C24.5117 80.9591 24.5855 81.2542 24.6592 81.5493C26.3561 82.0657 28.053 82.4346 29.7499 82.8035C32.3321 83.32 34.9881 83.6888 37.6441 83.9102C37.7916 83.6151 37.8654 83.32 37.9392 83.0248C35.357 82.8035 32.8485 82.4346 30.2663 81.9182C28.4219 81.5493 26.4299 81.0328 24.5117 80.4426Z" fill="#122528"/>
<path d="M78.4433 11.5343C77.6318 7.8454 77.7793 4.15652 77.0415 0.393861C77.0415 0.320083 76.5251 0.172532 76.1562 0.0987549C76.1562 0.320088 76.3775 0.541416 76.3775 0.762749C76.5251 4.30407 76.8202 7.91917 77.4842 11.4605C78.5171 16.6249 80.4353 21.568 81.9846 26.5849C82.0584 26.5849 82.206 26.5849 82.2797 26.5111C82.5011 26.5111 82.501 26.4373 82.7224 26.4373C81.3944 21.4942 79.4762 16.6249 78.4433 11.5343Z" fill="#122528"/>
<path d="M43.5465 60.0799C42.2185 59.4897 40.8905 58.8257 39.5625 58.2355C39.7101 58.5306 39.8577 58.8995 40.0052 59.1946C40.079 59.3422 40.1527 59.4897 40.2265 59.711C41.2594 60.1537 42.2185 60.5964 43.2514 61.039C43.3989 60.6701 43.4727 60.375 43.5465 60.0799Z" fill="#122528"/>
<path d="M35.136 65.6132C37.3494 66.0559 39.4889 66.6461 41.7023 67.3101C41.776 66.9412 41.8498 66.4986 41.9974 66.1297C39.8578 65.5394 37.6445 65.023 35.5049 64.5803C35.136 64.5066 34.7671 64.4328 34.3983 64.359C33.9556 64.6541 33.513 64.9492 33.0703 65.2443C33.7343 65.3181 34.472 65.4657 35.136 65.6132Z" fill="#122528"/>
<path d="M61.1055 5.77956C62.7286 8.50933 63.9828 11.3867 65.237 14.264C66.7125 17.6578 68.3356 21.0515 69.7374 24.5191C70.3276 25.9946 70.9179 27.544 71.5081 29.0933C71.877 28.9457 72.2459 28.872 72.6148 28.7982C71.877 26.9537 71.213 25.1093 70.4014 23.2649C68.9997 20.0186 67.3765 16.7724 65.9748 13.5262C64.7206 10.7227 63.3925 7.84535 61.6219 5.33691C61.4743 5.41069 61.253 5.63201 61.1055 5.77956Z" fill="#122528"/>
<path d="M57.4167 13.895C59.0398 16.7724 60.3679 19.7235 61.7696 22.6746C63.1714 25.5519 65.0158 28.1341 66.8602 30.7164C67.2291 30.5688 67.6718 30.4212 68.0407 30.1999C65.975 27.4701 64.0567 24.6666 62.5074 21.5679C60.9581 18.5431 59.4825 15.1493 57.4905 12.1244C57.3429 12.5671 57.1954 12.936 57.0479 13.3786C57.2692 13.5262 57.343 13.7475 57.4167 13.895Z" fill="#122528"/>
<path d="M68.7051 1.79552C69.074 5.85328 69.7381 9.91105 70.7709 13.895C72.0252 18.7644 73.8696 23.4124 76.0091 27.839C76.3042 27.7652 76.6732 27.6914 76.9683 27.6177C74.8287 23.1172 73.1318 18.3955 71.8776 13.5261C70.8447 9.3946 70.2545 5.26307 69.8856 0.98397C69.8856 0.836415 69.8856 0.615084 69.8118 0.467529C69.3691 0.541307 69.0003 0.688862 68.5576 0.836417C68.6314 1.20531 68.6314 1.50041 68.7051 1.79552Z" fill="#122528"/>
<path d="M58.45 28.6506C59.9993 29.9786 61.5486 31.3066 63.1717 32.5609C63.5406 32.3395 63.9833 32.1182 64.3522 31.8969C62.434 30.3475 60.5895 28.872 58.6713 27.3226C57.7122 26.5111 56.7531 25.6995 55.7939 24.8142C55.7939 25.3307 55.8678 25.8471 55.8678 26.3635C56.7531 27.1013 57.5647 27.9129 58.45 28.6506Z" fill="#122528"/>
<path d="M30.9298 76.0158C28.9378 75.8682 26.9458 75.7944 24.9538 75.7944C24.88 76.0895 24.8062 76.4584 24.7324 76.7535C26.6506 76.7535 28.4951 76.8273 30.4134 76.9749C32.7742 77.1224 35.0613 77.1962 37.4222 77.1224C38.16 77.1224 38.8978 77.1224 39.6355 77.1224C39.7093 76.7535 39.783 76.3846 39.8568 75.942C36.9057 76.0158 33.9546 76.2371 30.9298 76.0158Z" fill="#122528"/>
<path d="M100.429 26.0684C100.871 26.1421 101.24 26.2897 101.683 26.3635C102.273 23.7813 102.863 21.1991 103.527 18.6169C104.487 14.7066 105.888 10.8702 107.216 7.10754C107.143 7.10754 107.142 7.10755 107.069 7.18133C106.774 7.2551 106.405 7.40266 106.11 7.55021C104.708 11.0915 103.38 14.7066 102.347 18.3955C101.683 20.9039 101.093 23.4862 100.429 26.0684Z" fill="#122528"/>
<path d="M30.7833 67.0149C30.4882 67.2362 30.193 67.5313 29.9717 67.8265C31.0783 68.3429 32.185 68.9331 33.2179 69.5233C35.6526 70.7038 38.0872 71.8842 40.5957 72.8433C40.6694 72.5482 40.7433 72.2531 40.817 71.8842C38.4562 70.9251 36.0953 69.7447 33.8082 68.5642C32.7015 68.0478 31.7424 67.5313 30.7833 67.0149Z" fill="#122528"/>
<path d="M37.2754 50.1937C37.3492 50.6364 37.423 51.0791 37.4968 51.5955C40.079 52.9235 42.6612 54.2515 45.2434 55.6533C45.391 55.3582 45.5385 55.0631 45.6861 54.6942C43.2514 53.2924 40.8167 51.9644 38.3083 50.7102C38.0132 50.5626 37.6443 50.4151 37.2754 50.1937Z" fill="#122528"/>
<path d="M113.561 24.9617C112.528 26.8061 111.422 28.6506 110.241 30.495C110.61 30.7901 110.979 31.0115 111.422 31.3066C112.602 29.3146 113.856 27.3226 114.963 25.2568C117.693 20.3137 120.422 15.4444 123.226 10.5013C122.931 10.28 122.71 10.0586 122.415 9.83728C119.39 14.9279 116.439 19.9448 113.561 24.9617Z" fill="#122528"/>
<path d="M117.988 37.6516C121.308 34.7742 124.554 31.8969 127.8 28.9458C127.948 28.5031 128.095 28.0605 128.243 27.6178C124.701 30.7902 121.013 33.8889 117.397 37.0613C117.619 37.2089 117.84 37.4302 117.988 37.6516Z" fill="#122528"/>
<path d="M128.39 40.5288C126.472 41.5617 124.554 42.5946 122.562 43.6275C122.709 43.8488 122.93 44.1439 123.078 44.3653C125.218 43.2586 127.431 42.0781 129.57 40.9715C131.415 40.0124 133.259 39.127 135.178 38.3155C134.809 38.0942 134.514 37.8728 134.145 37.6515C132.226 38.6106 130.308 39.5697 128.39 40.5288Z" fill="#122528"/>
<path d="M144.991 78.7456C146.097 78.4504 147.13 78.0815 148.237 77.8602C148.311 77.4175 148.311 76.9749 148.384 76.5322C147.13 76.9011 145.95 77.27 144.695 77.6389C142.482 78.3029 140.343 79.1144 138.203 79.9998C138.277 80.2949 138.424 80.6638 138.498 80.9589C140.638 80.1473 142.851 79.4096 144.991 78.7456Z" fill="#122528"/>
<path d="M120.201 27.175C118.283 29.3883 116.291 31.6016 114.446 33.8887C114.668 34.1101 114.889 34.3314 115.184 34.5527C117.25 32.1181 119.316 29.6834 121.455 27.2487C123.816 24.519 126.325 21.863 128.685 19.0594C128.612 18.6905 128.464 18.3216 128.39 17.9528C125.66 21.1252 122.931 24.1501 120.201 27.175Z" fill="#122528"/>
<path d="M150.155 103.535C152.294 102.502 154.434 101.469 156.5 100.363C156.573 99.9936 156.647 99.6247 156.647 99.2559C154.286 100.51 151.852 101.691 149.417 102.723C149.638 102.945 149.86 103.24 150.155 103.535Z" fill="#122528"/>
<path d="M146.393 98.5918C146.54 98.8869 146.761 99.1082 146.909 99.4033C150.008 98.0016 153.106 96.6736 156.205 95.3456C156.131 95.0505 155.984 94.8291 155.91 94.6078C152.737 95.862 149.565 97.19 146.393 98.5918Z" fill="#122528"/>
<path d="M143.589 85.0905C142.482 85.4594 141.449 85.8282 140.343 86.1971C140.49 86.4922 140.564 86.7874 140.712 87.1563C141.597 86.8611 142.556 86.566 143.441 86.2709C144.105 86.0496 144.843 85.8283 145.581 85.6069C145.802 85.1643 146.024 84.7216 146.245 84.2789C145.433 84.5003 144.548 84.7954 143.589 85.0905Z" fill="#122528"/>
<path d="M151.557 91.5091C152.073 91.2878 152.59 91.1402 153.106 90.9189C152.737 90.6976 152.368 90.4024 152 90.2549C149.196 91.3615 146.392 92.4682 143.589 93.5749C143.736 93.87 143.884 94.0913 144.032 94.3864C146.54 93.4273 149.048 92.4682 151.557 91.5091Z" fill="#122528"/>
<path d="M113.635 6.36975C112.012 10.28 110.463 14.1902 108.84 18.1004C107.512 21.2728 106.036 24.2977 104.708 27.4701C105.151 27.6915 105.593 27.839 106.036 28.0604C107.29 24.8141 108.84 21.7155 110.094 18.4693C111.717 14.4853 113.192 10.5013 114.668 6.51729C114.373 6.44352 114.004 6.44353 113.635 6.36975Z" fill="#122528"/>
<path d="M133.407 65.4656C133.481 65.7608 133.629 66.0558 133.702 66.2772C135.473 65.687 137.317 65.1705 139.162 64.6541C140.121 64.4328 141.08 64.1376 142.039 63.9163C141.67 63.695 141.228 63.3999 140.785 63.2523C139.973 63.4737 139.088 63.695 138.277 63.9163C136.653 64.359 135.03 64.8754 133.407 65.4656Z" fill="#122528"/>
<path d="M130.677 58.6043C134.514 56.6123 138.35 54.6941 142.334 52.8496C142.334 52.5545 142.334 52.3332 142.334 52.0381C138.277 53.8087 134.293 55.727 130.309 57.719C130.456 58.0879 130.604 58.3092 130.677 58.6043Z" fill="#122528"/>
<path d="M140.269 47.4639C136.949 48.7919 133.629 50.0462 130.382 51.4479C129.571 51.8168 128.686 52.1857 127.874 52.6284C128.022 52.9235 128.169 53.1448 128.317 53.4399C128.981 53.1448 129.571 52.8497 130.235 52.5546C133.481 51.0791 136.875 49.8986 140.269 48.6444C140.785 48.4231 141.302 48.2755 141.818 48.0542C141.744 47.6853 141.597 47.3164 141.523 46.9475C141.08 47.1688 140.711 47.3164 140.269 47.4639Z" fill="#122528"/>
<path d="M120.128 40.2337C120.275 40.4551 120.423 40.6764 120.644 40.8977C123.521 39.0533 126.472 37.2826 129.571 35.8071C129.202 35.7333 128.833 35.6595 128.464 35.512C125.587 36.9137 122.784 38.4631 120.128 40.1599C120.054 40.1599 120.128 40.2337 120.128 40.2337Z" fill="#122528"/>
<path d="M126.251 49.6035C130.383 47.0213 134.588 44.3653 138.572 41.488C138.425 41.2667 138.203 41.0453 138.056 40.824C134.072 43.6275 129.94 46.136 125.809 48.7182C125.956 49.0133 126.104 49.3084 126.251 49.6035Z" fill="#122528"/>
<path d="M140.048 70.5563C142.114 69.6709 144.179 68.7856 146.319 68.1216C146.098 67.8265 145.95 67.5314 145.729 67.3101C143.958 67.9003 142.261 68.6381 140.564 69.4496C138.867 70.1874 137.244 71.0727 135.621 71.8843C135.695 72.1056 135.769 72.4007 135.842 72.622C137.17 71.8843 138.572 71.1465 140.048 70.5563Z" fill="#122528"/>
<path d="M131.415 60.3013C131.489 60.5226 131.636 60.8177 131.71 61.039C134.145 59.9324 136.579 58.8995 139.088 58.0141C139.973 57.6453 140.859 57.3501 141.67 57.055C141.744 56.6861 141.891 56.3173 141.965 55.9484C140.932 56.3173 139.9 56.7599 138.867 57.1288C136.358 58.0879 133.85 59.1208 131.415 60.3013Z" fill="#122528"/>
<path d="M148.089 72.1057C148.016 71.8106 147.942 71.5154 147.868 71.2203C146.171 71.663 144.548 72.1057 142.925 72.6221C140.785 73.2861 138.646 74.0239 136.58 74.7617C136.654 74.983 136.728 75.2781 136.801 75.4994C138.867 74.7617 141.007 74.0239 143.146 73.4337C144.769 72.9172 146.393 72.4746 148.089 72.1057Z" fill="#122528"/>
<path d="M170.444 107.445C169.189 107.445 165.132 110.175 161 109.732C157.533 109.29 154.286 106.929 151.704 104.715C148.901 102.281 146.761 99.1084 144.917 95.8621C142.851 92.247 141.228 88.3368 139.752 84.4266C137.17 77.5653 135.325 70.4089 132.743 63.5476C129.571 55.2107 125.513 46.9476 119.98 39.865C114.741 33.0774 107.806 26.9539 99.1007 25.4783C93.5674 24.5192 87.5914 25.257 82.1319 26.2161C76.3034 27.249 70.1799 28.6508 64.7941 31.1592C55.4981 35.5859 50.2599 44.9556 45.8332 53.7351C42.1443 60.9653 41.1853 69.2284 39.3409 77.1226C38.5293 80.664 37.7915 82.9511 36.0209 86.1235C34.2502 89.3697 31.4467 92.5421 28.2742 94.3128C24.2164 96.5999 18.9045 98.5919 14.5516 96.895C11.2316 95.567 8.7969 92.911 8.1329 89.5173C7.69023 87.3039 6.73111 86.64 5.25556 87.2302C2.67334 88.2631 0.976511 96.0835 0.607623 97.559C-0.0563752 99.9199 -0.130135 104.42 0.164976 106.781C0.312531 108.109 0.533827 109.363 1.05027 110.618C2.08316 113.274 3.70625 114.159 4.44402 114.159C5.55068 114.233 6.43607 114.011 7.17385 113.347C8.57562 112.167 9.23958 110.249 10.2725 108.773C10.9365 107.814 12.1169 106.781 13.4449 107.003C14.5516 107.15 15.1418 108.109 15.2155 109.216C15.2155 110.47 14.6991 111.577 13.8876 112.462C12.1169 114.38 11.4529 114.675 8.94444 115.413C8.20666 115.635 7.17383 116.741 7.61649 117.258C9.38715 119.545 15.5845 122.201 20.6013 122.57C25.6182 123.012 30.7826 122.57 35.7995 122.939C40.3737 123.307 45.0217 123.603 49.596 123.898C49.0795 125.373 48.3417 126.923 46.7186 127.144C46.1284 127.218 45.6119 126.923 45.0955 126.701C44.3577 126.406 43.6199 126.037 42.8084 125.816C41.6279 125.447 40.2262 125.299 39.7097 126.701C39.1195 128.398 40.5951 129.874 41.8493 130.685C43.3986 131.718 45.3906 132.456 47.3088 132.677C48.8581 132.825 50.2599 131.939 51.219 130.759C52.8421 128.841 53.7274 126.48 54.6865 124.193C57.6376 124.267 60.515 124.414 63.4661 124.488C63.4661 124.488 63.4661 124.488 63.4661 124.562C63.6874 125.742 64.7941 127.513 63.9087 128.546C63.171 129.357 61.6217 128.841 60.6626 129.062C59.7035 129.21 58.8919 129.874 58.3017 130.685C57.3425 132.087 58.6705 133.341 59.851 133.858C61.3265 134.595 63.0972 134.817 64.7941 134.595C66.3434 134.374 67.8928 133.858 68.483 132.235C69.0732 130.685 68.483 128.693 68.2616 127.07C68.1879 126.259 68.0403 125.373 67.8927 124.562C68.483 124.562 69.0732 124.562 69.6634 124.635C83.5336 125.004 97.4038 125.299 111.2 124.783C112.75 124.709 114.299 124.635 115.922 124.562V124.635C115.332 126.185 115.184 128.251 114.151 129.579C112.602 128.546 109.872 126.627 108.397 128.029C107.511 128.915 107.733 130.611 108.249 131.644C108.913 132.898 110.241 133.636 111.495 134.153C112.823 134.669 114.151 135.038 115.553 135.186C115.996 135.259 116.438 135.333 116.881 135.333C117.545 135.333 117.914 134.669 118.283 134.226C120.496 131.349 120.865 127.734 121.529 124.193C124.48 123.971 127.431 123.75 130.382 123.529C130.382 124.635 130.53 125.521 130.604 126.037C130.677 126.554 130.825 127.144 130.899 127.66C130.899 127.808 130.899 127.955 130.899 128.177C130.825 128.177 130.825 128.177 130.751 128.177C129.497 128.177 128.317 127.808 127.062 128.029C125.513 128.324 124.111 130.021 124.48 131.644C124.923 133.71 127.21 134.153 129.054 134.3C130.973 134.374 133.038 134.153 134.957 133.636C138.867 132.677 136.58 127.218 135.768 124.857C135.621 124.267 135.399 123.75 135.252 123.16C135.547 123.16 135.916 123.086 136.211 123.086C142.777 122.57 149.417 121.906 155.909 120.356C156.795 120.135 162.549 118.807 165.574 117.11C169.189 114.971 170.886 113.569 171.55 111.577C172.214 109.29 172.362 107.445 170.444 107.445Z" fill="#6CB4B8"/>
<path d="M26.8727 103.24C26.8727 102.723 26.5775 102.355 26.2824 102.059C26.1349 101.986 26.0611 101.838 25.9135 101.838C25.766 101.764 25.5447 101.691 25.3234 101.691C23.5527 101.469 22.8887 104.051 24.2167 104.937C24.6594 105.232 25.1758 105.158 25.6185 105.011C26.4301 104.789 26.9465 104.051 26.8727 103.24Z" fill="#122528"/>
<path d="M7.0267 101.248C10.0516 100.141 11.4534 97.559 12.1911 95.4194C10.2729 93.9439 8.87118 91.8781 8.35473 89.5172C7.91207 87.3039 6.95294 86.6399 5.47739 87.2301C2.89517 88.263 1.19825 96.0834 0.829366 97.559C0.608033 98.3706 0.460496 99.4772 0.386719 100.658C2.52627 101.543 4.88715 102.059 7.0267 101.248Z" fill="#122528"/>
<path d="M44.2103 86.0496C43.6201 87.4514 43.7676 89.1483 43.9152 90.6238C44.1365 92.6896 44.8743 94.534 45.7596 96.3785C46.9401 98.8131 48.3418 101.1 48.7107 103.83C49.0796 106.338 48.7108 108.994 49.6699 111.355C50.4814 113.274 52.1045 114.602 53.1374 116.372C54.0965 118.069 54.3916 120.061 54.9081 121.906C55.1294 122.643 55.3507 123.307 55.5721 123.971C56.9738 124.045 58.4493 124.045 59.8511 124.119C60.2938 120.578 58.7445 117.258 57.1214 114.011C56.0885 112.019 55.2032 110.101 54.7605 107.888C54.3179 105.601 54.0965 103.24 53.9489 100.879C53.8014 98.5918 53.58 96.2309 53.2111 93.9438C52.916 91.9518 52.4734 89.886 51.4405 88.1154C50.4814 86.4923 49.0058 84.7954 47.1614 84.279C45.8334 83.9839 44.7267 84.7954 44.2103 86.0496Z" fill="#DEF2F7"/>
<path d="M57.1949 71.368C58.3015 75.5733 60.4411 79.4835 62.2855 83.3937C63.2446 85.3857 64.13 87.3777 64.9415 89.4435C65.8268 91.8044 66.0481 94.239 66.1219 96.7474C66.1957 99.4772 66.122 102.207 66.3433 105.011C66.5646 107.593 67.2287 110.175 68.0402 112.683C68.8518 115.192 69.8108 117.7 70.4011 120.282C70.6962 121.463 70.8437 122.57 70.8437 123.824C70.8437 124.045 70.8437 124.34 70.8437 124.562C72.393 124.635 73.9424 124.635 75.5655 124.709C75.6393 120.799 75.7131 116.963 76.2295 113.052C76.5984 110.396 76.8935 107.814 76.2295 105.158C75.6393 102.723 74.0899 100.584 72.7619 98.5181C72.0979 97.4852 71.5078 96.4523 70.9913 95.3457C70.4011 94.0915 70.106 92.6159 69.8847 91.2141C69.442 88.4844 69.2944 85.7546 69.1469 83.0248C68.9993 81.0328 68.7042 79.0408 68.5566 77.0488C68.4828 75.647 68.409 74.2453 68.3353 72.8435C68.1139 69.5973 67.9664 66.2773 66.9336 63.1786C66.6384 62.2195 66.1957 61.1867 65.3104 60.6702C64.2037 60.0062 62.6544 59.6373 61.3264 59.9324C58.9655 60.3751 57.8589 63.0311 57.4162 65.0969C56.826 67.0151 56.6046 69.3022 57.1949 71.368Z" fill="#DEF2F7"/>
<path d="M29.3069 122.717C29.5282 121.537 29.7496 120.282 29.6758 119.102C29.5282 116.667 27.2411 116.446 25.2491 116.962C24.3638 117.184 23.626 117.848 23.626 118.807C23.626 119.84 24.3638 120.725 24.954 121.537C25.2491 121.906 25.4704 122.274 25.7655 122.717C26.946 122.717 28.1265 122.717 29.3069 122.717Z" fill="#DEF2F7"/>
<path d="M88.6241 119.397C89.2143 114.675 90.0997 110.027 90.9112 105.306C91.5752 101.1 92.3129 96.895 92.3129 92.6896C92.3867 87.8203 91.2063 83.1723 90.2472 78.4506C89.7308 75.8683 89.3619 73.2861 89.4357 70.6301C89.5095 68.0479 89.7308 65.4657 89.8046 62.8835C89.8783 60.4488 89.5094 58.1617 88.8454 55.7271C88.1814 53.1449 87.8864 50.5626 87.9601 47.9804C87.9601 45.472 88.1815 43.1849 87.2224 40.824C86.5584 39.2747 85.4516 37.8729 83.7548 37.504C82.1316 37.1351 80.5085 38.2418 79.4019 39.3484C78.1476 40.6027 77.4099 42.2996 77.041 43.9964C76.1557 48.2755 77.1886 52.9235 78.5166 56.9813C80.0659 61.7768 82.7957 66.4248 83.3121 71.5155C83.8285 76.3848 81.7628 81.0328 80.7299 85.6808C80.2134 87.9679 79.9922 90.255 80.2135 92.6159C80.361 94.8292 80.8775 96.9687 81.3201 99.1083C82.0579 102.354 82.8694 105.527 83.3859 108.773C83.9761 112.61 83.2384 116.298 82.7957 120.061C82.6481 121.537 82.4268 123.16 82.5006 124.783C84.345 124.783 86.2632 124.857 88.1076 124.857C88.2552 123.012 88.4027 121.242 88.6241 119.397Z" fill="#DEF2F7"/>
<path d="M44.9475 123.529C44.7999 121.611 44.1359 119.84 43.4719 117.995C42.9555 116.667 42.5866 115.266 42.0701 113.938C41.6275 112.757 41.0372 111.355 39.9306 110.765C38.8239 110.175 37.791 110.913 37.2008 111.798C36.2417 113.052 36.0204 114.823 36.6844 116.225C37.3484 117.7 38.7502 118.659 39.783 119.914C40.3733 120.578 40.7422 121.315 40.7422 122.201C40.7422 122.57 40.6683 122.865 40.6683 123.234C42.0701 123.307 43.4719 123.455 44.9475 123.529Z" fill="#DEF2F7"/>
<path d="M148.9 121.537C149.195 120.799 149.342 120.061 149.416 119.25C149.564 117.995 149.564 116.815 149.49 115.561C149.49 115.044 149.342 114.528 149.49 114.011C149.638 113.495 150.006 113.052 150.228 112.61C151.113 111.134 150.892 109.216 149.195 108.404C145.949 106.855 144.768 112.241 144.326 114.233C144.03 115.93 143.957 117.553 144.03 119.25C144.104 120.282 143.957 121.315 143.735 122.201C145.506 122.053 147.203 121.832 148.9 121.537Z" fill="#DEF2F7"/>
<path d="M97.4778 124.857C97.9205 124.193 98.3632 123.529 98.8058 122.791C100.208 120.578 101.167 117.995 102.052 115.634C103.085 112.978 103.97 110.249 104.708 107.519C105.372 105.158 105.225 102.65 104.929 100.215C104.782 98.9607 104.561 97.6327 104.561 96.3785C104.561 94.9767 104.929 93.575 105.298 92.3208C106.11 89.8123 107.438 87.4514 108.249 84.943C109.873 80.2212 109.651 75.4995 108.544 70.7039C107.954 68.1217 107.069 65.6133 106.848 63.031C106.626 60.7439 106.7 58.1617 105.372 56.1697C104.561 54.9155 103.232 54.104 101.757 54.5466C99.9863 55.0631 99.2485 57.1288 98.8796 58.6782C98.3632 60.9653 99.6174 63.2524 100.281 65.3182C101.167 68.0479 101.462 70.7777 101.462 73.655C101.462 76.311 101.241 78.8932 100.503 81.5492C99.8388 83.9101 98.8796 86.271 97.9943 88.6319C97.3303 90.4763 96.7401 92.3945 96.445 94.3865C96.0761 96.4523 96.1499 98.5918 96.1499 100.731C96.0761 105.232 96.076 109.806 95.2645 114.306C94.748 117.405 93.4939 120.282 93.1988 123.455C93.125 123.971 93.125 124.488 93.125 125.004C94.6006 124.857 96.0023 124.857 97.4778 124.857Z" fill="#DEF2F7"/>
<path d="M160.336 113.274C159.746 113.716 159.156 114.233 158.861 114.971C158.565 115.856 158.861 116.594 158.934 117.479C159.008 118.291 157.828 118.955 157.385 119.471C157.237 119.619 157.09 119.84 156.942 120.061C158.27 119.766 160.557 119.176 162.623 118.364C162.918 117.479 163.066 116.667 163.14 115.856C163.213 114.971 163.213 113.938 162.623 113.274C162.033 112.315 161 112.757 160.336 113.274Z" fill="#DEF2F7"/>
<path d="M128.833 98.4443C127.21 99.3296 126.694 101.1 126.399 102.797C126.103 104.789 126.251 106.855 126.472 108.847C126.546 110.027 126.694 111.134 126.62 112.314C126.546 113.864 126.03 115.339 125.513 116.815C124.628 119.176 123.89 121.537 123.3 123.971C124.259 123.898 125.218 123.824 126.177 123.75C127.579 120.43 130.456 117.7 130.899 114.085C131.12 112.093 130.899 110.175 131.415 108.257C131.858 106.707 132.448 105.158 132.891 103.609C133.112 102.945 133.26 102.281 133.334 101.617C133.407 100.805 133.112 100.289 132.67 99.5509C131.858 98.0754 130.309 97.6327 128.833 98.4443Z" fill="#DEF2F7"/>
<path d="M115.332 90.9928C114.299 92.5421 113.119 94.0176 112.455 95.7883C111.643 97.7065 111.791 99.6985 111.643 101.764C111.496 103.461 111.2 105.158 110.61 106.781C109.725 109.068 108.028 110.913 106.774 112.978C104.56 116.667 104.413 120.799 103.232 124.783C105.298 124.783 107.364 124.709 109.43 124.635C109.799 124.34 110.094 124.045 110.463 123.676C113.488 120.799 116.807 117.479 117.767 113.274C118.283 110.986 117.84 108.699 117.84 106.412C117.914 104.051 119.021 102.059 120.349 100.215C121.529 98.5181 122.784 96.8212 123.374 94.8292C123.964 92.9848 124.333 91.1403 124.702 89.2221C125.439 85.4594 126.251 81.3279 125.735 77.4177C125.513 75.647 124.333 73.9502 122.562 73.4337C120.939 72.9173 118.873 74.0977 118.209 75.647C117.619 77.1226 117.767 78.8932 117.767 80.4426C117.84 82.2132 117.988 83.9839 117.84 85.7546C117.619 87.599 116.365 89.4434 115.332 90.9928Z" fill="#DEF2F7"/>
<path d="M93.1989 49.0872C92.7563 48.2756 92.0184 48.0543 91.2069 48.3494C90.4691 48.3494 89.8052 48.7183 89.4363 49.3085C89.0674 49.9725 89.1412 50.8578 89.4363 51.5956C89.5101 51.817 89.6576 52.1121 89.8789 52.3334C90.174 52.7761 90.5429 53.145 90.9856 53.2925C91.7972 53.5876 92.5349 52.9974 92.9776 52.4072C93.4202 51.7432 93.6416 50.7841 93.4941 49.9725C93.4203 49.6774 93.3465 49.3823 93.1989 49.0872Z" fill="#DEF2F7"/>
<path d="M90.3952 45.6196C90.8379 45.3982 91.2068 44.8818 91.0592 44.3654C91.0592 44.2916 91.0593 44.2916 90.9855 44.2178C90.9855 44.0702 90.9855 43.9227 90.9117 43.7751C90.6904 43.1111 89.9525 42.9636 89.3623 43.2587C88.8459 43.5538 88.5508 44.2178 88.5508 44.808C88.5508 45.2507 88.8459 45.6196 89.141 45.7671C89.6575 45.9885 90.1001 45.9147 90.3952 45.6196Z" fill="#DEF2F7"/>
<path d="M80.4355 70.999C79.3288 70.8515 78.6648 71.8106 78.2222 72.6959C77.9271 73.3599 77.7057 74.2452 78.2959 74.7617C78.4435 74.9092 78.6649 74.983 78.8862 75.0568C79.4764 75.647 80.288 75.4994 81.0258 75.1305C81.9111 74.6141 82.4275 73.655 82.2062 72.6221C82.0586 71.8106 81.2471 71.0728 80.4355 70.999Z" fill="#DEF2F7"/>
<path d="M79.1074 83.2461C79.8452 82.287 79.3286 80.0737 77.9269 79.9999C77.0415 79.9999 76.8203 81.0328 76.894 81.6968C76.9678 81.9919 77.0416 82.287 77.2629 82.5083C77.2629 82.6559 77.3367 82.8772 77.4105 83.0248C77.7056 83.615 78.6647 83.7625 79.1074 83.2461Z" fill="#DEF2F7"/>
<path d="M76.5995 76.3849C76.3043 76.0897 75.7879 75.9422 75.419 76.0897C74.9026 76.2373 74.8287 76.68 74.9763 77.1964C74.8287 77.6391 75.0501 78.0817 75.419 78.3031C76.083 78.7457 76.8946 78.0817 76.9683 77.4177C76.9683 76.9751 76.8946 76.6062 76.5995 76.3849Z" fill="#DEF2F7"/>
<path d="M63.7614 93.3537C63.4663 93.1324 63.1712 92.9848 62.8761 92.911C62.6548 92.7635 62.3596 92.6897 62.0645 92.6897C61.6218 92.6897 61.253 92.8372 61.0317 93.2061C60.7366 93.4275 60.4414 93.6488 60.2201 94.0177C59.4823 95.2719 60.0725 96.5999 61.1792 97.4115C61.3268 97.7066 61.5481 98.0017 61.917 98.223C63.0236 99.0346 64.2041 98.0017 64.573 96.9688C65.0894 95.7146 64.8681 94.1652 63.7614 93.3537Z" fill="#DEF2F7"/>
<path d="M60.6632 102.871C60.073 103.092 59.8516 103.756 59.8516 104.347C59.8516 104.937 60.2205 105.601 60.8107 105.822C60.8845 105.896 60.9583 105.97 61.1058 106.043C61.6961 106.339 62.1387 105.896 62.36 105.379C62.5814 104.863 62.5076 104.199 62.2125 103.756C61.9912 103.166 61.2534 102.65 60.6632 102.871Z" fill="#DEF2F7"/>
<path d="M78.8859 115.708C78.5908 115.782 78.3694 115.856 78.1481 116.077C77.853 116.225 77.6316 116.52 77.5578 116.889C77.4103 117.184 77.4103 117.479 77.3366 117.774C77.2628 118.217 77.4841 118.733 77.7792 119.028C77.9268 119.25 78.0743 119.471 78.2956 119.618C79.0334 119.987 79.9188 119.692 80.3614 119.028C80.7303 118.438 80.8041 117.553 80.5828 116.889C80.2877 116.077 79.6237 115.561 78.8859 115.708Z" fill="#DEF2F7"/>
<path d="M51.7367 77.7866C50.7776 77.3439 49.5972 78.2292 49.2283 79.1146C49.0807 79.4835 49.0807 79.8523 49.0807 80.295C49.0069 80.5901 49.0807 80.8852 49.2283 81.1803C49.671 82.2132 50.7039 82.7297 51.8105 82.3608C53.8763 81.6968 53.5811 78.5243 51.7367 77.7866Z" fill="#DEF2F7"/>
<path d="M48.7852 114.897C47.8261 114.602 47.0884 115.413 46.7933 116.225C46.4982 117.184 46.8671 118.143 47.5311 118.659C47.8262 119.25 48.3426 119.766 48.7115 119.987C49.523 120.43 50.3346 120.061 50.851 119.323C51.3675 118.512 51.0724 117.405 50.7035 116.667C50.3346 115.93 49.6706 115.192 48.7852 114.897Z" fill="#DEF2F7"/>
<path d="M47.3094 108.847C47.3831 108.478 47.3094 108.035 47.0143 107.74L46.9405 107.667C46.7929 107.519 46.5717 107.371 46.2765 107.371C46.129 107.371 45.9814 107.371 45.8338 107.445C45.6125 107.519 45.3174 107.667 45.1699 107.814C44.9485 108.035 44.8009 108.404 44.7271 108.773C44.6534 109.068 44.6534 109.363 44.801 109.659C45.0961 110.323 45.8338 110.544 46.4978 110.249C47.0143 109.954 47.3094 109.437 47.3094 108.847Z" fill="#DEF2F7"/>
<path d="M41.1859 105.011C40.8908 104.789 40.5219 104.715 40.153 104.789C39.7841 104.715 39.489 104.789 39.1939 104.937C37.6445 105.675 38.0872 108.183 39.7841 108.257C40.5957 108.331 41.3334 107.888 41.7023 107.224C42.2188 106.412 41.9237 105.453 41.1859 105.011Z" fill="#DEF2F7"/>
<path d="M76.8939 37.7253C78.1482 37.4302 79.0335 36.3235 79.2548 35.1431C79.4761 33.8889 78.5908 32.7084 77.2628 32.7822C76.0086 32.856 74.7544 33.9627 74.4593 35.1431C74.3117 35.7333 74.4593 36.3235 74.7544 36.7662C74.7544 36.84 74.7544 36.84 74.8281 36.9138C75.197 37.6515 76.0824 37.8729 76.8939 37.7253Z" fill="#DEF2F7"/>
<path d="M96.9614 44.8819C96.9614 44.1441 96.3711 43.6277 95.6333 43.5539C94.1578 43.4063 93.7151 45.2508 94.5267 46.2099C94.748 46.6525 95.1907 46.7263 95.6333 46.6525C95.9285 46.5788 96.2236 46.4312 96.445 46.2837C96.8139 45.9886 97.0352 45.5459 96.8876 45.1032C96.9614 44.9557 96.9614 44.8819 96.9614 44.8819Z" fill="#DEF2F7"/>
<path d="M98.8062 69.3022C97.1831 69.5236 96.9617 73.2125 98.4373 73.7289C98.5111 73.7289 98.6586 73.8027 98.7324 73.8027C99.2489 73.9502 99.9128 73.7289 100.282 73.36C101.462 72.032 100.798 69.0071 98.8062 69.3022Z" fill="#DEF2F7"/>
<path d="M109.43 62.2932C109.282 62.2932 109.061 62.367 108.987 62.5146C108.84 62.8097 108.766 63.1786 108.766 63.5475C108.471 64.2852 109.061 65.5394 110.168 65.1706C111.791 64.6541 110.979 62.1457 109.43 62.2932Z" fill="#DEF2F7"/>
<path d="M114.005 55.5058C113.046 54.3254 110.759 54.6942 109.873 55.7271C109.283 56.4649 109.283 57.4978 109.947 58.2356C110.168 58.5307 110.464 58.6782 110.832 58.8258C111.054 59.1209 111.349 59.2685 111.644 59.416C113.562 60.2276 115.112 56.9076 114.005 55.5058Z" fill="#DEF2F7"/>
<path d="M113.267 85.9021L113.34 85.9758C113.119 86.7874 113.414 87.5252 114.447 87.6727C116.513 88.0416 117.251 85.3118 116.07 83.9838C114.816 82.6558 112.16 84.3527 113.267 85.9021Z" fill="#DEF2F7"/>
<path d="M121.973 108.257C121.087 108.404 120.718 109.437 120.645 110.249C120.571 110.913 120.792 111.503 121.382 111.798C121.456 111.872 121.604 111.946 121.677 112.019C122.341 112.315 123.079 112.167 123.522 111.651C124.112 110.987 124.112 110.027 123.817 109.216C123.448 108.478 122.71 108.109 121.973 108.257Z" fill="#DEF2F7"/>
<path d="M136.802 102.945C135.548 102.207 134.294 103.24 134.294 104.568C134.294 104.715 134.22 104.937 134.294 105.084C134.441 105.896 135.4 106.117 136.064 105.97C137.318 105.601 138.204 103.683 136.802 102.945Z" fill="#DEF2F7"/>
<path d="M135.917 97.7065C136.728 97.4114 136.876 96.3785 136.949 95.6407C136.949 95.5669 136.949 95.5669 136.949 95.4932C136.949 95.2718 136.949 95.0505 136.876 94.8292C136.802 94.3865 136.581 94.0176 136.212 93.7225C135.843 93.5012 135.474 93.4274 135.031 93.5012C134.589 93.5012 134.146 93.575 133.851 93.7963C133.629 93.9438 133.408 94.1652 133.261 94.3865C132.744 94.9029 132.449 95.4932 132.597 96.2309C132.744 96.8212 133.261 97.19 133.851 97.3376C133.925 97.4114 133.998 97.4852 134.146 97.5589C134.662 97.8541 135.326 97.9278 135.917 97.7065Z" fill="#DEF2F7"/>
<path d="M153.254 114.528C153.107 113.716 152.295 113.126 151.557 113.274C150.229 113.495 150.008 116.225 151.41 116.52H151.483C151.852 116.667 152.221 116.667 152.59 116.446C153.254 116.151 153.328 115.192 153.254 114.528Z" fill="#DEF2F7"/>
<path d="M128.834 77.9342C127.58 77.8604 127.211 78.967 127.285 80.0737C126.99 81.0328 127.285 82.3608 128.096 82.951C128.76 84.0577 129.867 85.0906 130.678 83.615C130.752 83.5412 130.752 83.3937 130.826 83.3199C131.711 82.5084 131.564 80.7377 131.269 79.7048C130.9 78.5982 130.014 78.0079 128.834 77.9342Z" fill="#DEF2F7"/>
<path d="M126.989 85.6808C126.841 85.9759 126.842 86.3448 126.842 86.7137C126.768 86.8612 126.768 86.935 126.694 87.0825C126.62 87.3039 126.62 87.5252 126.694 87.6728C126.694 88.0416 126.842 88.4105 127.284 88.5581C127.874 88.7057 128.538 88.263 128.76 87.8203C129.129 87.0825 128.76 86.271 128.243 85.7546C127.948 85.3119 127.284 85.0906 126.989 85.6808Z" fill="#DEF2F7"/>
</svg>
