<svg width="165" height="165" viewBox="0 0 165 165" fill="none" xmlns="http://www.w3.org/2000/svg">
<path d="M9.29548 54.7367C9.03505 56.5597 11.813 57.0806 12.5943 55.6048C14.1569 52.6532 14.6778 49.3544 16.5008 46.5764C17.1953 45.5347 15.7195 44.5798 14.8514 45.3611C12.0734 47.6182 9.81635 51.1774 9.29548 54.7367Z" fill="#BEDCE3"/>
<path d="M19.0187 60.2059C18.8451 59.1642 17.4561 59.251 17.0221 59.9455C15.199 62.8103 11.8134 65.9355 12.8551 69.6684C13.376 71.4914 15.9803 71.8386 16.8485 70.1892C17.7166 68.6266 18.0638 66.8036 18.6715 65.0673C19.1056 63.4179 19.2792 61.9421 19.0187 60.2059Z" fill="#BEDCE3"/>
<path d="M1.30928 50.917C1.65652 51.0038 1.91696 51.0038 2.17739 50.917C2.69826 50.7434 3.21913 50.3094 3.39275 49.7017C4.17405 46.5765 5.04217 43.8853 7.12564 41.3678C7.82014 40.4997 6.86521 38.8502 5.82347 39.6315C2.87189 41.8886 -0.166518 45.1875 0.00710528 49.1808C0.0939167 50.0489 0.527974 50.6566 1.30928 50.917Z" fill="#BEDCE3"/>
<path d="M4.43493 62.7235C2.43827 64.9806 0.702046 67.9322 0.615234 71.0574C0.615234 72.7068 2.69871 72.7068 3.21958 71.4047C4.26131 68.9739 4.52175 66.2828 5.82392 63.8521C6.34479 62.8971 5.12942 61.8554 4.43493 62.7235Z" fill="#BEDCE3"/>
<path d="M22.2303 78.7836C22.6644 77.6551 23.2721 76.5265 23.793 75.398C23.9666 75.0507 23.4457 74.7035 23.1853 74.8771C22.3172 75.398 21.6227 76.3529 21.1018 77.221C20.5809 78.0023 19.7996 79.3045 20.4941 80.0858C21.1886 81.1275 21.9699 79.3045 22.2303 78.7836Z" fill="#BEDCE3"/>
<path d="M14.5912 77.0475C12.1605 79.8255 9.90339 83.0375 9.64295 86.8572C9.55614 87.4649 9.9902 88.1594 10.5111 88.4198C10.7715 88.5934 11.0319 88.6802 11.3792 88.6802C12.2473 88.5934 12.855 88.1593 13.1154 87.378C14.1571 84.2528 14.9384 81.1276 16.1538 78.0024C16.5011 77.1343 15.1989 76.353 14.5912 77.0475Z" fill="#BEDCE3"/>
<path d="M13.1158 104.74C12.4213 106.824 11.8136 108.907 11.2928 111.078C10.8587 112.901 10.251 114.811 11.5532 116.373C11.9873 116.894 12.8554 116.807 13.2894 116.373C14.5916 115.158 14.3312 113.161 14.5048 111.512C14.7652 109.428 15.1993 107.432 15.6333 105.348C15.807 103.872 13.6367 103.178 13.1158 104.74Z" fill="#BEDCE3"/>
<path d="M33.516 69.5817C31.9534 70.9707 30.4776 72.4465 29.0886 74.0092C27.9601 75.3113 25.9634 77.308 26.6579 79.131C26.8315 79.6519 27.3524 79.9991 27.9601 79.8255C29.5227 79.3914 30.2172 77.4816 30.9985 76.1794C32.2138 74.3564 33.6028 72.7938 35.0786 71.1443C36.0335 70.1026 34.5577 68.6268 33.516 69.5817Z" fill="#BEDCE3"/>
<path d="M25.3566 86.9439C23.9676 89.201 22.6654 91.6317 21.7973 94.1492C21.2765 95.7118 19.627 99.1843 21.6237 100.4C23.7072 101.615 24.5753 97.448 24.8357 96.3195C25.5302 93.4547 26.2247 90.5031 27.2665 87.7252C27.6137 86.5966 25.9643 85.9889 25.3566 86.9439Z" fill="#BEDCE3"/>
<path d="M32.1274 117.501C31.0857 119.845 29.1758 123.231 30.478 125.835C30.9989 126.79 32.4747 126.356 32.4747 125.314C32.4747 124.099 32.3879 122.884 32.5615 121.668C32.7351 120.366 32.9087 119.151 33.1692 117.935C33.256 117.328 32.3879 116.894 32.1274 117.501Z" fill="#BEDCE3"/>
<path d="M47.5796 92.2395C45.9302 93.5417 44.5412 95.1043 43.4127 97.0141C42.5446 98.5767 40.8083 101.355 41.9369 103.091C42.2841 103.612 42.8918 103.699 43.4127 103.438C44.8885 102.744 45.2357 100.4 45.8434 99.0108C46.6247 97.1877 47.4928 95.3647 48.795 93.8889C49.7499 93.1076 48.6214 91.4582 47.5796 92.2395Z" fill="#BEDCE3"/>
<path d="M21.0154 117.849C19.8868 119.411 19.4528 121.495 19.1923 123.405C18.9319 125.054 18.2374 127.658 19.6264 128.961C20.0604 129.395 20.7549 129.395 21.189 128.961C22.4043 127.832 22.0571 125.401 22.1439 123.839C22.2307 122.016 22.578 120.106 22.4044 118.283C22.4044 117.415 21.5362 117.241 21.0154 117.849Z" fill="#BEDCE3"/>
<path d="M53.4834 111.425C53.9175 109.081 54.2647 106.737 54.4383 104.393C54.612 103.091 52.6153 102.917 52.2681 104.132C51.5736 106.476 50.6186 108.82 50.0978 111.251C49.6637 112.987 48.7956 115.765 50.445 117.067C50.9659 117.501 51.4867 117.501 52.0076 117.067C53.4834 115.852 53.1362 113.074 53.4834 111.425Z" fill="#BEDCE3"/>
<path d="M36.5547 131.218C34.3844 132.78 33.6899 135.385 33.3427 137.815C32.9954 140.333 32.5614 144.5 34.9053 146.149C35.513 146.583 36.5547 146.236 36.9019 145.629C37.7701 143.805 36.9888 141.114 36.8151 139.204C36.6415 137.034 36.4679 134.256 37.5964 132.346C38.1173 131.652 37.2492 130.697 36.5547 131.218Z" fill="#BEDCE3"/>
<path d="M74.231 108.56C72.9288 110.73 71.8003 112.901 70.7585 115.245C69.9772 116.981 68.6751 119.585 69.7168 121.408C69.9772 121.929 70.5849 122.016 71.1058 121.755C72.842 120.887 73.3629 118.196 73.8837 116.547C74.5782 114.29 75.4464 112.033 76.4013 109.862C77.0958 108.386 75.0991 107.171 74.231 108.56Z" fill="#BEDCE3"/>
<path d="M59.9067 120.714C58.7781 121.669 58.3441 123.318 57.91 124.707C57.3891 126.356 56.8683 128.44 57.3023 130.176C57.5628 131.218 58.9517 131.044 59.299 130.176C59.8198 128.7 59.8198 126.877 59.9935 125.315C60.1671 123.839 60.6011 122.45 60.8616 121.061C60.8616 120.54 60.1671 120.453 59.9067 120.714Z" fill="#BEDCE3"/>
<path d="M72.0609 126.009C71.0192 128.787 69.9775 131.565 69.5434 134.43C69.1962 136.687 68.5885 139.986 70.3247 141.809C70.8456 142.33 71.7137 142.243 72.0609 141.548C73.1027 139.639 72.495 136.947 72.7554 134.864C73.0158 132.086 73.5367 129.308 74.2312 126.53C74.5785 125.141 72.5818 124.62 72.0609 126.009Z" fill="#BEDCE3"/>
<path d="M94.8923 121.669C93.7638 123.318 92.8957 124.967 92.1144 126.79C91.5067 128.266 90.8122 130.871 92.3748 131.999C92.6352 132.173 93.0693 132.086 93.3297 131.825C94.3715 130.871 94.111 128.7 94.3715 127.398C94.8055 125.749 95.5868 124.099 96.4549 122.623C97.0626 121.582 95.5 120.714 94.8923 121.669Z" fill="#BEDCE3"/>
<path d="M89.075 142.85C88.9882 141.027 89.075 139.118 89.1618 137.294C89.1618 135.905 87.1652 135.992 87.0784 137.294C86.9047 139.465 86.6443 141.635 86.7311 143.805C86.8179 145.455 87.0784 147.799 88.7278 148.493C89.075 148.667 89.5959 148.32 89.6827 147.972C89.9431 147.191 89.5959 146.583 89.4223 145.802C89.3355 144.76 89.1618 143.805 89.075 142.85Z" fill="#BEDCE3"/>
<path d="M110.257 121.321C106.785 123.578 103.92 127.659 103.833 131.912C103.833 132.433 104.093 132.954 104.614 133.214C106.785 134.43 107.132 131.044 107.566 129.742C108.347 127.311 109.649 124.707 111.472 122.797C112.167 122.103 111.212 120.714 110.257 121.321Z" fill="#BEDCE3"/>
<path d="M100.448 137.294C100.361 136.34 99.1459 136.166 98.7986 137.034C97.4964 140.246 95.7602 147.365 99.1459 149.882C99.5799 150.229 100.274 149.882 100.448 149.361C100.969 147.712 100.361 145.628 100.274 143.892C100.274 141.635 100.622 139.465 100.448 137.294Z" fill="#BEDCE3"/>
<path d="M118.591 136.774C117.115 138.857 116.334 141.288 116.073 143.805C115.9 145.715 115.292 149.882 117.462 150.924C117.897 151.098 118.417 151.098 118.678 150.75C119.893 149.275 119.112 146.67 119.112 144.934C119.112 142.503 119.372 139.812 120.327 137.555C120.761 136.426 119.112 135.992 118.591 136.774Z" fill="#BEDCE3"/>
<path d="M131.613 146.931C130.485 148.754 129.964 150.837 129.79 152.92C129.617 154.744 129.79 157.869 131.527 158.91C132.047 159.171 132.655 158.997 132.916 158.476C133.697 157.087 132.916 155.351 132.742 153.962C132.481 151.879 132.481 149.795 133.263 147.885C133.697 146.67 132.221 145.802 131.613 146.931Z" fill="#BEDCE3"/>
<path d="M141.596 146.844C140.641 149.448 138.644 154.83 141.336 156.914C141.856 157.261 142.551 157.001 142.898 156.48C143.679 155.351 143.332 153.702 143.245 152.313C143.159 150.663 143.419 149.014 143.679 147.365C143.853 146.062 142.03 145.541 141.596 146.844Z" fill="#BEDCE3"/>
<path d="M164.688 162.991C164.167 162.036 163.473 161.341 163.039 160.3C162.605 159.258 162.257 158.129 161.65 157.174C161.303 156.567 160.261 156.653 160.087 157.348C159.653 159.865 160.521 163.425 162.865 164.814C164.081 165.508 165.47 164.119 164.688 162.991Z" fill="#BEDCE3"/>
<path d="M4.8684 34.6832C5.38927 34.2492 5.38927 33.6415 5.56289 33.0338C5.73652 32.3394 6.08376 31.6449 6.3442 31.0372C6.95188 29.8218 7.99361 28.7801 8.94854 27.7383C9.3826 27.3043 8.86173 26.4362 8.25405 26.6966C6.77825 27.3043 5.6497 28.4328 4.78159 29.8218C4.0871 30.9504 2.95855 33.2943 3.82667 34.5964C4.0871 35.0305 4.52115 35.0305 4.8684 34.6832Z" fill="#BEDCE3"/>
<path d="M6.86521 8.46637C7.82014 7.33783 8.08057 5.68838 8.94869 4.47302C9.90361 3.17085 11.3794 2.30276 12.8552 1.78189C13.9837 1.43464 13.4629 -0.301586 12.3343 0.0456594C10.4245 0.653339 8.86187 1.60826 7.47289 3.08406C6.34434 4.29942 5.04217 6.46969 5.64985 8.11911C5.82348 8.72679 6.43116 8.90043 6.86521 8.46637Z" fill="#BEDCE3"/>
<path d="M50.4446 130.523C49.316 132.78 48.7084 134.951 48.5347 137.468C48.3611 139.552 48.2743 143.198 50.0105 144.674C50.4446 145.021 51.3127 145.108 51.5731 144.5C52.3544 142.764 51.5731 140.68 51.3995 138.77C51.2259 136.253 51.4863 133.648 52.094 131.218C52.3544 130.263 50.9655 129.568 50.4446 130.523Z" fill="#BEDCE3"/>
<path d="M61.3823 142.503C61.4691 141.461 59.6461 141.201 59.5593 142.243C59.1252 145.107 59.0384 147.972 59.2988 150.837C59.5593 153.094 60.0801 156.48 62.1636 157.782C62.7713 158.129 63.379 157.695 63.379 157.087C63.6394 155.004 62.3372 152.573 61.9032 150.577C61.3823 147.885 61.2087 145.194 61.3823 142.503Z" fill="#BEDCE3"/>
<path d="M79.4398 147.451C79.1793 144.847 79.3529 142.156 79.787 139.638C79.8738 139.118 79.3529 138.77 78.9189 139.118C76.8354 141.114 76.4014 144.066 76.4014 146.931C76.4014 149.361 76.4014 154.136 78.7453 155.525C79.1793 155.785 79.9606 155.699 80.2211 155.178C80.6551 154.136 80.4815 153.181 80.2211 152.139C79.8738 150.577 79.6134 149.014 79.4398 147.451Z" fill="#BEDCE3"/>
<path d="M109.303 151.792C109.043 149.188 108.956 146.583 108.695 143.979C108.609 142.85 107.046 142.85 106.959 143.979C106.699 146.757 106.265 149.535 106.438 152.4C106.525 154.483 106.699 158.303 108.956 159.345C109.477 159.605 110.084 159.431 110.258 158.824C110.518 157.869 110.258 157.001 109.998 156.046C109.737 154.57 109.477 153.181 109.303 151.792Z" fill="#BEDCE3"/>
<path d="M28.6551 99.0108C27.0057 99.7053 26.8321 103.004 26.5716 104.48C26.2244 106.997 25.6167 109.689 26.7453 112.033C27.0057 112.64 27.9606 112.553 28.2211 112.033C29.2628 109.949 29.176 107.605 29.4364 105.348C29.61 104.219 29.7837 103.091 29.8705 101.962C29.9573 101.181 30.3045 100.226 29.8705 99.5317C29.61 99.0976 29.0892 98.8372 28.6551 99.0108Z" fill="#BEDCE3"/>
<path d="M3.13172 82.3429C1.39549 84.0791 0.701 86.9439 0.353754 89.2878C0.00650848 91.7185 -0.340738 94.7569 0.874621 96.9272C1.22187 97.6217 2.17679 97.4481 2.43723 96.7536C3.13172 94.6701 2.69766 92.413 2.9581 90.2427C3.21853 87.812 4.17346 85.6417 4.69432 83.211C4.86795 82.3429 3.7394 81.6484 3.13172 82.3429Z" fill="#BEDCE3"/>
</svg>
