<svg width="100" height="100" fill="none" xmlns="http://www.w3.org/2000/svg"><path d="M93.129 18.589H70.353V3.555C70.354 1.568 68.558 0 66.267 0c-.234 0-.468.028-.702.056A5.101 5.101 0 0064.914 0H33.68c-2.29 0-4.086 1.568-4.086 3.555V18.59H6.819C3.071 18.589 0 21.864 0 25.924v33.035c0 3.89 2.837 7.082 6.403 7.306v26.4c0 4.031 2.733 7.335 6.117 7.335h74.96c3.358 0 6.117-3.275 6.117-7.335v-26.4C97.163 66.041 100 62.85 100 58.96V25.924c-.052-4.06-3.123-7.335-6.871-7.335zM32.952 3.807c.156-.084.494-.168.833-.14h31.077c.078 0 .182 0 .26.028.235.056.495.056.73 0 .442-.112.884 0 1.066.112v18.058c-.13.084-.364.168-.677.168-.312 0-.546-.085-.676-.169V8.034c0-1.007-.755-1.819-1.692-1.819h-27.85c-.937 0-1.692.812-1.692 1.82v13.83c-.13.084-.364.168-.677.168-.312 0-.546-.085-.676-.169V3.808h-.026zm29.23 6.047v8.735H37.714V9.854H62.18zm27.953 82.783c0 2.016-1.223 3.668-2.707 3.668h-74.96c-1.484 0-2.707-1.652-2.707-3.668V66.265h26.678v3.332c0 4.031 3.046 7.335 6.82 7.335h12.155c3.748 0 6.82-3.276 6.82-7.335v-3.332h27.953v26.372h-.052zm-50.338-23.04v-10.33c0-2.016 1.536-3.668 3.41-3.668h12.155c1.874 0 3.41 1.652 3.41 3.668v10.33c0 2.016-1.536 3.667-3.41 3.667H43.207c-1.874 0-3.41-1.651-3.41-3.667zM96.538 58.93c0 2.015-1.535 3.667-3.41 3.667h-30.92v-3.331c0-4.032-3.046-7.335-6.82-7.335H43.233c-3.748 0-6.82 3.275-6.82 7.334v3.332H6.767c-1.874 0-3.41-1.652-3.41-3.667V25.896c0-2.016 1.536-3.668 3.41-3.668h22.801c.052 1.932 1.822 3.444 4.06 3.444 2.239 0 4.009-1.512 4.06-3.444h24.493c.078 1.932 1.822 3.444 4.06 3.444 2.239 0 4.009-1.512 4.06-3.444h22.802c1.874 0 3.41 1.652 3.41 3.668V58.93h.025z" fill="#356F7C"/><path d="M49.298 70.858c3.28 0 5.96-2.883 5.96-6.41 0-3.528-2.68-6.412-5.96-6.412s-5.96 2.884-5.96 6.411c0 3.528 2.68 6.411 5.96 6.411zm0-11.002c2.343 0 4.269 2.072 4.269 4.591 0 2.52-1.926 4.591-4.269 4.591-2.342 0-4.268-2.071-4.268-4.59 0-2.548 1.926-4.592 4.268-4.592z" fill="#356F7C"/></svg>