<svg width="126" height="100" fill="none" xmlns="http://www.w3.org/2000/svg"><path d="M94.83 0L84.11 10.337a27.797 27.797 0 00-1.616-.159c-3.86-1.495-10.687-2.544-18.702 3.404l-.198.159-2.64 2.544c-9.894-6.488-17.778-2.48-19.987-1.081l-9.863-9.51L0 35.687l11.808 11.386c.1 5.09 1.98 10.338 5.608 15.618 1.517 2.163 3.265 4.166 5.178 6.043 2.441 2.385 4.882 4.707 7.356 7.093-2.672 3.721-1.518 6.807 1.253 9.606 2.87 2.894 5.509 3.212 9.4 2.13.034 0 .067 0 .1.032 2.803 4.04 5.376 5.98 8.147 6.203l3.463 3.244c3.43 3.181 8.675 3.912 12.798 1.622 1.781-.986 2.078-1.813 3.002-3.212 6.992 5.661 11.676 5.757 17.184-2.195.033-.032.066-.032.1-.032 3.891 1.082 6.53.764 9.4-2.13 2.936-2.927 4.024-6.203.758-10.243-.032-.031-.857-1.081-.824-1.081 2.342.063 4.189-1.368 5.178-2.64 2.705-3.372 2.54-6.934-.362-10.433l3.826-3.69c1.913-1.844 3.661-3.848 5.178-6.043 3.662-5.28 5.542-10.496 5.641-15.617L126 29.962 94.83 0zM24.474 64.377c-3.595-3.657-6.267-7.665-7.421-12.245a19.685 19.685 0 01-.56-3.15c-.1-.89-.1-1.78-.1-2.671L4.42 34.765l25.728-24.81 8.246 7.952.527.51-.033.095 3.992.318.263-.636c1.584-1.018 8.082-4.517 16.79 1.876l11.511 11.164c.56.573.89 1.304.89 2.1 0 .795-.33 1.558-.89 2.099l-.759.732c-1.22 1.145-3.166 1.145-4.354 0l-11.775-11.42-2.87 1.941 3.2 3.594 1.385 1.336-4.057 3.912c-.33.318-.528.668-.627 1.05l-.198.19c-7.916 7.635-15.865 15.268-23.748 22.934-1.616 1.558-2.639 3.117-3.167 4.675zM62.67 95.294c-.923.827-1.847 1.336-3.2 1.24-1.88-.127-3.199-1.527-4.09-2.385-.56-.541-1.12-1.05-1.649-1.59 1.32-.669 2.672-1.623 4.156-2.8.924 1.4 1.22 2.227 3.002 3.213.792.445 1.65.763 2.507.986-.165.54-.396 1.05-.726 1.336zm16.987-1.527c-1.781 2.004-3.793 2.163-6.366-.127-.396-.35-.791-.732-1.187-1.082a11.52 11.52 0 001.616-1.24c1.484-1.368 2.936-2.767 4.42-4.167l.462.445c2.407 2.386 2.704 4.263 1.055 6.171zm12.303-6.202c-1.781 2.353-4.519 2.385-6.96.063-1.22-1.177-2.407-2.353-3.628-3.499a495.065 495.065 0 006.003-5.661l3.398 3.276c2.144 2.067 2.507 4.071 1.187 5.82zm4.98-13.9c-.89 2.195-3.594 3.212-5.738 2.1a3.11 3.11 0 01-.594-.382l5.772-5.567c.792 1.05 1.22 2.227.56 3.849zm12.634-33.048c.033.923 0 1.814-.099 2.672a19.677 19.677 0 01-.561 3.15c-1.187 4.58-3.892 8.619-7.487 12.277-4.882 4.962-9.995 9.7-15.008 14.535-5.278 5.09-10.522 10.179-15.8 15.204-.923.86-2.21 2.259-4.09 2.386-1.352.095-2.309-.414-3.2-1.24-.824-.764-1.088-2.64-.758-3.817.33-1.273 1.517-2.418 2.54-3.436 2.408-2.353 4.849-4.707 7.257-7.029 1.187-1.145 2.341-2.29 3.529-3.435 1.253-1.24 4.849-3.849 2.837-5.662-1.88-1.686-4.52 1.559-5.64 2.64a372.587 372.587 0 01-3.563 3.404c-5.575 5.248-11.05 10.56-16.79 15.68-2.572 2.322-4.617 2.131-6.365.127-1.682-1.908-1.352-3.784 1.088-6.138 6.3-6.107 12.633-12.182 18.933-18.29.89-.858 1.65-1.399 1.814-2.735.133-.954-.23-1.813-1.286-1.972-1.748-.254-2.507.382-3.595 1.463-7.422 7.157-14.843 14.345-22.297 21.502-2.441 2.354-5.18 2.29-6.96-.064-1.32-1.749-.957-3.753 1.22-5.852a7165.87 7165.87 0 0122.66-21.851c1.22-1.177 2.21-2.513.693-3.881-1.451-1.304-2.705-.159-3.793.922-5.805 5.63-11.644 11.228-17.482 16.826-.791.732-1.583 1.495-2.54 2.004-2.144 1.145-4.848.096-5.739-2.1-.923-2.226.264-3.657 1.748-5.088 9.665-9.288 19.33-18.575 28.894-27.927l3.959 3.849a7.06 7.06 0 004.881 1.972c1.749 0 3.53-.636 4.882-1.94l.759-.732c1.32-1.24 2.012-2.926 2.045-4.707 0-1.686-.66-3.245-1.782-4.453l-8.773-8.556-1.715-1.654 2.341-2.259c3.629-2.671 6.861-3.594 9.533-3.721 4.882-.414 9.203 2.036 9.203 2.036l2.605-2.513 8.246-7.952 25.728 24.81-12.072 11.546z" fill="#356F7C"/></svg>