<svg width="100" height="100" fill="none" xmlns="http://www.w3.org/2000/svg"><path d="M47.3 100h4.814C78.988 98.858 100 76.968 100 50.016 100 23.063 78.988 1.142 52.114.03L47.362 0l-.03.03C20.764 1.452 0 23.34 0 50.017-.062 76.69 20.734 98.58 47.3 100zM17.094 82.371a55.185 55.185 0 0110.243-5.897c3.425 7.194 8.208 13.554 14.255 18.926-9.287-1.698-17.865-6.267-24.498-13.029zM48.04 95.74c-7.313-5.496-13.206-12.628-17.124-20.686a56.646 56.646 0 0117.124-3.396V95.74zm0-27.972c-6.418.278-12.712 1.513-18.698 3.736-2.283-5.681-3.61-11.702-3.98-17.907H48.04v14.171zm0-18.061H25.239a57.776 57.776 0 013.116-18.525c6.295 2.47 12.898 3.89 19.686 4.168v14.357zm9.688 45.816c6.294-5.588 11.231-12.226 14.718-19.728a55.136 55.136 0 0111.015 5.99C76.55 89.04 67.51 93.856 57.729 95.524zm28.263-16.671a59.453 59.453 0 00-12.064-6.608 60.652 60.652 0 003.98-18.647h18.05c-.679 9.262-4.135 17.968-9.966 25.255zm1.45-55.759c5.616 7.812 8.609 16.981 8.67 26.583h-18.08a61.797 61.797 0 00-3.178-19.265 57.742 57.742 0 0012.588-7.318zm-2.376-3.025c-3.579 2.686-7.436 4.97-11.508 6.761-3.456-8.49-8.887-16.147-15.829-22.322 10.645 1.791 20.24 7.256 27.337 15.561zM51.898 4.724c8.053 6.205 14.285 14.294 18.05 23.525-5.801 2.069-11.849 3.211-18.05 3.335V4.724zm0 30.719a60.115 60.115 0 0019.376-3.581 58.098 58.098 0 012.9 17.845H51.899V35.443zm0 18.154H74.05c-.37 5.99-1.604 11.794-3.764 17.32a61.796 61.796 0 00-18.39-3.149V53.597zm0 18a57.77 57.77 0 0116.877 2.87c-3.795 8.09-9.627 15.283-16.877 20.871V71.596zM48.04 4.29v27.2a56.427 56.427 0 01-18.297-3.92C33.6 18.43 39.925 10.403 48.04 4.29zm-6.48.34c-6.664 5.959-11.94 13.307-15.365 21.427a57.68 57.68 0 01-10.738-6.67C22.337 11.669 31.502 6.482 41.56 4.63zM13.02 22.383a61.659 61.659 0 0011.755 7.286c-2.252 6.421-3.394 13.152-3.424 20.068H3.795c.093-9.942 3.27-19.39 9.226-27.354zM3.95 53.597h17.525c.37 6.7 1.82 13.214 4.289 19.358A59.485 59.485 0 0014.47 79.5C8.33 72.09 4.69 63.168 3.95 53.597z" fill="#356F7C"/></svg>