<svg width="100" height="100" fill="none" xmlns="http://www.w3.org/2000/svg"><path d="M94.172 59.873H70.718V50.48a8.076 8.076 0 00-.995-3.888c.379-.12.687-.386.876-.748a1.642 1.642 0 00-.07-1.618l-17.674-27.21V12.67l10.921-4.588a1.582 1.582 0 000-2.897L51.717.116a1.54 1.54 0 00-1.445.145 1.57 1.57 0 00-.687 1.304V11.68c0 .241.071.483.166.7v4.78L32.15 44.252a1.642 1.642 0 00-.071 1.618c.19.362.52.628.876.748-.64 1.111-.995 2.439-.995 3.888v9.392H5.852C2.63 59.897 0 62.577 0 65.86v28.176C0 97.32 2.63 100 5.852 100h88.296c3.222 0 5.852-2.68 5.852-5.964V65.86c.024-3.307-2.606-5.987-5.828-5.987zM52.665 3.93l6.444 2.704-6.444 2.704V3.93zm-1.327 16.49l15.02 23.106h-30.04l15.02-23.106zm3.602 76.2h-8.624V79.14h8.623v17.48zm42.004-2.584c0 1.57-1.256 2.825-2.772 2.825H58.043v-19.29c0-.87-.687-1.57-1.54-1.57H44.776c-.853 0-1.54.7-1.54 1.57v19.29H5.876c-1.517 0-2.772-1.255-2.772-2.825V65.86c0-1.57 1.231-2.825 2.771-2.825h27.671c.427 0 .83-.193 1.138-.507.284-.313.45-.748.402-1.183 0-.12-.023-.265-.023-.386V50.48c0-2.052 1.28-3.814 2.772-3.814h27.031c1.493 0 2.772 1.738 2.772 3.815v10.478c0 .12 0 .266-.024.386-.024.435.119.87.403 1.183.284.314.71.507 1.137.507h25.018c1.54 0 2.772 1.256 2.772 2.825v28.176z" fill="#356F7C"/><path d="M48.614 53.282H40.89a.796.796 0 00-.782.797v7.871c0 .435.356.797.782.797h7.724a.796.796 0 00.781-.797v-7.871a.78.78 0 00-.782-.797zm-.759 7.871h-6.183v-6.301h6.183v6.301zm13.15-7.871h-7.723a.796.796 0 00-.782.797v7.871c0 .435.355.797.782.797h7.723a.796.796 0 00.782-.797v-7.871a.781.781 0 00-.782-.797zm-.782 7.871H54.04v-6.301h6.183v6.301zM19.64 75.519h-7.723a.796.796 0 00-.782.796v7.871c0 .435.355.797.782.797h7.723a.796.796 0 00.782-.797v-7.87a.796.796 0 00-.782-.797zm-.758 7.87h-6.184v-6.301h6.184v6.302zm13.148-7.87h-7.724a.796.796 0 00-.782.796v7.871c0 .435.356.797.782.797h7.724a.796.796 0 00.781-.797v-7.87a.796.796 0 00-.781-.797zm-.782 7.87h-6.184v-6.301h6.184v6.302zm45.842-7.87h-7.722a.796.796 0 00-.782.796v7.871c0 .435.355.797.782.797h7.723a.796.796 0 00.782-.797v-7.87a.796.796 0 00-.782-.797zm-.78 7.87h-6.184v-6.301h6.183v6.302zm13.17-7.87h-7.723a.796.796 0 00-.781.796v7.871c0 .435.355.797.781.797h7.724a.797.797 0 00.782-.797v-7.87c-.024-.435-.356-.797-.782-.797zm-.781 7.87h-6.183v-6.301h6.183v6.302z" fill="#356F7C"/></svg>