<?xml version="1.0" standalone="no"?>
<!DOCTYPE svg PUBLIC "-//W3C//DTD SVG 20010904//EN"
 "http://www.w3.org/TR/2001/REC-SVG-20010904/DTD/svg10.dtd">
<svg version="1.0" xmlns="http://www.w3.org/2000/svg"
 width="333.000000pt" height="333.000000pt" viewBox="0 0 333.000000 333.000000"
 preserveAspectRatio="xMidYMid meet">
<metadata>
Created by potrace 1.14, written by Peter Selinger 2001-2017
</metadata>
<g transform="translate(0.000000,333.000000) scale(0.100000,-0.100000)"
fill="#000000" stroke="none">
<path d="M1319 3279 c-4 -46 25 -108 75 -161 25 -26 35 -44 18 -34 -13 8 -60
16 -136 22 -54 5 -87 16 -150 48 -166 86 -356 117 -356 58 0 -22 53 -74 98
-96 32 -17 35 -36 6 -36 -9 0 -49 -14 -89 -31 -69 -28 -80 -30 -142 -23 -197
23 -353 -16 -368 -93 -5 -31 43 -69 113 -89 31 -8 63 -17 70 -20 29 -9 2 -30
-69 -55 -189 -66 -310 -144 -324 -211 -13 -56 26 -70 148 -54 31 4 57 5 57 3
0 -3 -11 -29 -24 -60 -14 -30 -32 -79 -40 -109 -9 -29 -28 -66 -42 -82 -82
-87 -146 -253 -159 -411 -4 -46 -2 -53 15 -58 11 -3 40 5 65 18 l45 22 1 -21
c1 -11 3 -39 4 -61 4 -82 16 -209 21 -217 3 -5 -1 -32 -10 -61 -47 -163 -36
-401 22 -469 31 -37 69 -12 86 57 8 29 9 28 48 -48 38 -77 39 -80 30 -140 -8
-53 -9 -102 -3 -168 2 -22 47 -69 66 -69 18 0 35 38 39 94 2 23 4 45 5 51 1 5
34 -25 74 -66 62 -64 75 -82 81 -120 9 -56 47 -121 87 -150 28 -19 36 -21 62
-11 25 9 35 9 52 -2 31 -20 89 -114 91 -147 5 -61 82 -169 121 -169 8 0 25
-12 39 -28 22 -25 25 -26 37 -10 9 11 26 17 48 16 49 -2 74 9 87 37 23 51 -22
104 -106 125 l-47 13 -29 101 c-52 183 -99 290 -151 348 -81 90 -107 175 -75
246 10 22 28 47 41 56 24 16 24 16 32 -16 27 -103 62 -131 168 -131 101 1 151
39 140 108 -7 43 -51 52 -138 26 -33 -10 -52 2 -66 42 -10 26 19 32 199 43 60
3 126 7 146 8 35 3 36 2 27 -21 -30 -79 8 -137 106 -159 99 -23 169 -9 171 34
1 24 -47 72 -72 72 -17 0 -64 44 -64 59 0 5 37 -8 83 -29 157 -74 375 -135
657 -185 19 -4 100 -8 180 -10 202 -5 295 14 443 92 88 46 213 167 251 241 53
104 64 214 32 307 -13 37 -13 40 8 54 104 73 166 229 171 432 3 111 0 142 -30
254 -24 92 -97 207 -178 281 -72 66 -111 85 -148 72 -45 -16 -43 -41 14 -158
39 -79 42 -90 42 -170 0 -80 -3 -92 -38 -163 -30 -61 -60 -99 -133 -173 l-94
-95 -38 29 c-174 139 -304 366 -396 692 -15 52 -30 102 -33 110 -3 8 -7 17 -7
20 -9 40 -46 118 -69 145 -34 42 -59 44 -93 8 -24 -26 -26 -33 -20 -98 3 -38
12 -110 21 -160 21 -127 18 -140 -14 -60 -15 39 -42 96 -60 128 -21 38 -34 77
-37 110 -13 149 -49 262 -95 302 -44 37 -65 33 -72 -13 -4 -20 -4 -62 -1 -92
6 -62 6 -62 -61 38 -67 101 -180 204 -280 253 -87 43 -184 63 -186 38z"/>
</g>
</svg>
