<svg width="289" height="503" fill="none" xmlns="http://www.w3.org/2000/svg"><path d="M71.684 125.273c-2.508 0-4.598-.835-6.688-2.089l-28.004-17.973C14.004 90.582.211 65.504.211 38.336V13.258C.21 6.152 5.645.718 12.75.718c7.105 0 12.54 5.434 12.54 12.54v25.078c0 18.809 9.194 35.945 25.077 45.977l28.004 17.972c5.852 3.762 7.523 11.285 3.762 17.137-2.09 3.762-6.27 5.851-10.45 5.851z" fill="#EAF1F6"/><path d="M36.992 318.375l28.004 17.973c2.09 1.254 4.598 2.09 6.688 2.09 4.18 0 8.359-2.09 10.449-5.852 3.762-5.852 2.09-13.793-3.762-17.137l-28.004-17.972c-14.21-9.196-23.406-23.825-24.66-40.543-1.672-16.719 4.18-33.02 16.3-44.723 3.345-3.344 7.942-6.27 13.376-9.195l187.25-94.043c7.941-3.762 14.211-8.36 19.644-13.375 15.465-15.047 24.243-35.11 24.243-57.262V13.258c0-7.106-5.434-12.54-12.539-12.54-7.106 0-12.54 5.434-12.54 12.54v12.539H79.625c-7.105 0-12.539 5.433-12.539 12.539 0 7.105 5.434 12.539 12.54 12.539H259.77c-2.09 9.613-6.688 17.973-13.793 25.078H121.422c-7.106 0-12.539 5.434-12.539 12.54 0 7.105 5.433 12.538 12.539 12.538h81.086l-158.41 79.832c-7.942 3.762-14.211 8.36-19.645 13.375C6.9 210.957-1.879 234.781.63 259.441c2.508 24.243 15.465 45.977 36.363 58.934z" fill="#EAF1F6"/><path d="M262.277 308.762c15.465-14.629 24.243-35.528 24.243-57.262 0-27.168-13.793-52.246-36.782-66.875l-28.004-17.973c-5.851-3.761-13.793-2.089-17.136 3.762-3.762 5.852-2.09 13.793 3.761 17.137l28.004 17.972c3.762 2.508 7.106 5.016 10.032 8.36H121.422c-7.106 0-12.539 5.433-12.539 12.539 0 7.105 5.433 12.539 12.539 12.539H259.77c.835 4.18 1.671 8.359 1.671 12.539s-.418 8.359-1.671 12.539H79.625c-7.106 0-12.54 5.434-12.54 12.539 0 7.106 5.434 12.539 12.54 12.539h166.352c-.418.418-.836.836-1.254 1.672-3.344 3.344-7.942 6.27-13.375 9.195l-187.25 94.043c-7.942 3.762-14.211 8.36-19.645 13.375C8.988 422.449.211 442.512.211 464.664v.418l.836 25.078c.418 6.688 5.851 12.121 12.539 12.121h.418c7.105-.418 12.121-6.269 12.121-12.957l-.836-24.66c0-15.047 5.852-28.84 16.719-38.871 3.344-3.344 7.941-6.269 13.375-9.195l187.25-94.461c7.941-4.18 14.211-8.36 19.644-13.375z" fill="#EAF1F6"/><path d="M288.609 463.828c1.254-28.422-12.539-54.754-36.781-70.219l-28.004-17.972c-5.851-3.762-13.793-2.09-17.136 3.761-3.762 5.852-2.09 13.793 3.761 17.137l8.36 5.434h-55.59c-7.106 0-12.539 5.433-12.539 12.539 0 7.105 5.433 12.539 12.539 12.539h88.609c5.852 7.105 9.613 15.883 10.867 25.078H79.625c-7.106 0-12.54 5.434-12.54 12.539 0 7.106 5.434 12.539 12.54 12.539h183.906v12.539c0 7.106 5.434 12.539 12.539 12.539 7.106 0 12.539-5.851 12.539-12.539v-25.914z" fill="#EAF1F6"/></svg>