<svg width="1440" height="178" fill="none" xmlns="http://www.w3.org/2000/svg"><path fill="#EAF1F6" d="M0 0h1440v178H0z"/><path d="M1380.88 124.516c0 1.999-.18 3.809-.56 5.43a18.622 18.622 0 01-1.7 4.539 20.371 20.371 0 01-2.68 4.134 40.676 40.676 0 01-3.65 4.134l-6-2.756c.38-.432.76-.946 1.14-1.54.32-.54.68-1.189 1.05-1.945.38-.703.71-1.54.98-2.513-2.27-.432-4.14-1.513-5.6-3.242s-2.19-3.81-2.19-6.241c0-1.297.25-2.54.73-3.729a10.472 10.472 0 012.11-3.08 9.59 9.59 0 013-2.026 9.097 9.097 0 013.81-.811c1.3 0 2.51.27 3.65.811a9.29 9.29 0 013.08 2.026 9.22 9.22 0 012.02 3.08c.54 1.189.81 2.432.81 3.729zm24.81 0c0 1.999-.19 3.809-.57 5.43a18.622 18.622 0 01-1.7 4.539c-.7 1.459-1.6 2.837-2.68 4.134-1.02 1.351-2.24 2.729-3.64 4.134l-6-2.756c.38-.432.75-.946 1.13-1.54.33-.54.68-1.189 1.06-1.945.37-.703.7-1.54.97-2.513-2.27-.432-4.14-1.513-5.59-3.242-1.46-1.729-2.19-3.81-2.19-6.241 0-1.297.24-2.54.73-3.729a10.445 10.445 0 012.1-3.08 9.59 9.59 0 013-2.026 9.097 9.097 0 013.81-.811c1.3 0 2.52.27 3.65.811 1.19.486 2.22 1.161 3.08 2.026.87.865 1.54 1.891 2.03 3.08.54 1.189.81 2.432.81 3.729z" fill="#CFDEE9"/></svg>