<svg width="20" height="20" fill="none" xmlns="http://www.w3.org/2000/svg"><path d="M.833 3.75h18.333v12.5H.833V3.75z" fill="#00BCD4"/><path d="M11.046 7.206c-.453 0-.888.18-1.208.498a1.7 1.7 0 001.208 2.906c.452 0 .887-.18 1.207-.498a1.7 1.7 0 00-1.207-2.906zm0-.232c.101-.002.14-.065.14-.14 0-.102-.14-.584-.14-.584s-.14.482-.14.583c0 .076.038.14.14.14zm1.94 1.934c.001.101.065.14.14.14.103 0 .586-.14.586-.14s-.484-.14-.585-.14c-.076 0-.141.039-.141.14zm-1.94 1.934c-.102.002-.14.065-.14.14 0 .102.14.584.14.584s.14-.482.14-.583c0-.076-.04-.14-.14-.14zM9.105 8.909c-.002-.101-.065-.14-.141-.14-.102 0-.585.14-.585.14s.484.14.585.14c.076 0 .14-.039.14-.14zm2.683-1.787c.094.037.154-.006.183-.077.039-.093.095-.592.095-.592s-.314.392-.353.486c-.03.07-.019.144.075.183zm1.05 2.527c-.037.095.007.154.077.183.094.039.594.094.594.094s-.393-.313-.487-.351c-.07-.03-.145-.02-.184.074zm-2.535 1.047c-.094-.037-.154.006-.183.077-.039.093-.095.592-.095.592s.314-.392.353-.486c.03-.07.019-.144-.075-.183zm-1.05-2.527c.037-.094-.007-.153-.077-.183-.094-.038-.594-.094-.594-.094s.393.313.487.351c.07.03.145.02.184-.074zm3.165-.628c.072.071.144.053.198 0 .072-.072.315-.511.315-.511s-.44.242-.512.314c-.054.053-.073.126-.001.197zm0 2.736c-.071.072-.053.144 0 .197.072.072.513.314.513.314s-.243-.439-.315-.51c-.054-.054-.127-.073-.198-.001zm-2.745 0c-.072-.071-.144-.053-.198 0-.072.072-.315.511-.315.511s.441-.242.513-.314c.053-.053.072-.126 0-.197zm0-2.736c.071-.072.053-.144 0-.197-.072-.072-.513-.314-.513-.314s.243.439.315.51c.054.054.126.073.198.001zm3.165.628c.04.093.114.104.184.075.094-.039.487-.352.487-.352s-.5.056-.594.095c-.07.029-.116.088-.076.182zm-1.05 2.527c-.093.04-.104.113-.075.183.039.093.353.485.353.485s-.056-.498-.095-.592c-.03-.07-.09-.115-.183-.076zM9.253 9.648c-.04-.093-.114-.103-.184-.075-.094.04-.487.352-.487.352s.5-.056.594-.095c.07-.028.115-.088.077-.182zm1.05-2.527c.093-.04.104-.113.075-.183-.039-.093-.353-.486-.353-.486s.056.5.095.593c.03.07.089.115.183.076zm1.12-.11c.1.018.15-.036.165-.11.02-.1-.022-.6-.022-.6s-.232.446-.252.545c-.014.074.01.145.11.165zm1.526 2.274c-.019.1.036.15.11.164.1.02.602-.023.602-.023s-.447-.23-.547-.25c-.075-.014-.146.01-.165.11zm-2.282 1.52c-.1-.018-.15.037-.165.11-.02.1.023.6.023.6s.231-.445.251-.545c.015-.074-.01-.145-.11-.165zM9.142 8.531c.019-.1-.036-.15-.11-.164-.1-.02-.602.023-.602.023s.447.23.547.25c.074.015.145-.01.165-.11zM12.124 7.3c.085.055.152.023.194-.04.056-.084.209-.562.209-.562s-.385.323-.441.407c-.043.064-.047.138.037.195z" fill="#FFEE58"/><path d="M12.66 9.983c-.056.085-.024.151.039.193.085.057.564.209.564.209s-.324-.384-.409-.44c-.063-.042-.138-.046-.195.038zm-2.692.533c-.085-.055-.152-.023-.194.04-.057.084-.21.562-.21.562s.385-.323.442-.408c.042-.062.046-.137-.038-.194zm-.536-2.683c.056-.085.024-.151-.04-.193-.084-.057-.563-.209-.563-.209s.324.384.408.44c.064.042.14.047.195-.038zm3.227 0c.058.084.132.08.195.038.085-.056.409-.44.409-.44s-.48.152-.564.209c-.063.042-.096.11-.04.193zm-.535 2.683c-.084.057-.08.131-.038.194.056.085.441.408.441.408s-.152-.478-.209-.562c-.042-.063-.11-.096-.194-.04zm-2.692-.533c-.057-.084-.13-.08-.194-.038-.085.056-.409.44-.409.44s.48-.152.564-.209c.063-.042.096-.11.04-.193zM9.968 7.3c.084-.057.08-.131.038-.195-.057-.084-.442-.407-.442-.407s.153.478.21.562c.042.063.11.096.194.04zm2.981 1.23c.022.1.091.125.166.11.1-.02.546-.25.546-.25s-.501-.043-.6-.023c-.075.015-.132.064-.112.164zm-1.525 2.276c-.099.02-.124.09-.11.165.02.099.252.544.252.544s.043-.5.023-.599c-.015-.075-.065-.13-.165-.11zm-2.281-1.52c-.022-.1-.091-.124-.166-.11-.1.02-.546.25-.546.25s.501.043.6.024c.075-.015.132-.065.112-.165zm1.524-2.275c.1-.02.124-.09.11-.165-.02-.1-.251-.545-.251-.545s-.043.5-.023.6c.015.074.065.13.164.11zm.075 5.584a.52.52 0 00-.134.023c-.06.008-.117.029-.176.038l-.024.004-.04.004a.12.12 0 01.005.033.109.109 0 01-.004.031.073.073 0 01-.018.027.103.103 0 01-.027.023.088.088 0 01-.033.008c-.012 0-.024 0-.034-.005a.09.09 0 01-.032-.02.266.266 0 01-.036.007.154.154 0 01-.033 0 .207.207 0 01-.068-.029c-.044.026-.092.05-.118.094a.132.132 0 00-.021.067.185.185 0 00.018.089c.005.008.009-.03.023-.034a.22.22 0 01.085-.042c.026-.013.022 0 .011.02-.002.011-.017.051.003.031.086-.038.181-.045.274-.053.134-.013.27-.016.404-.018.127.001.254.003.381.007.06.002.121.015.181.005.015-.003.037-.004.046-.012-.027-.016-.059-.016-.089-.02h-.242c-.067-.007-.138-.008-.2-.033-.018-.007-.033-.023-.05-.006a.291.291 0 01-.205-.007c.03-.04.065-.076.098-.114a1.075 1.075 0 01-.078-.016c.045-.032.088-.068.133-.101z" fill="#FFEE58"/><path d="M12.717 13.033c-.092.055-.162-.043-.24-.072-.054.03-.06.129-.11.176-.062.07-.137-.02-.131-.088-.074.062-.11.201-.23.183-.056-.046-.097-.142-.14-.032-.035.053-.128.13-.177.048-.015-.07-.05-.155-.09-.041-.026.08-.112.138-.194.103-.046-.037.036-.173-.022-.163-.086.057-.136.198-.257.186-.046-.052.029-.14-.023-.199-.06.078-.128.191-.232.2-.05-.041.002-.159-.03-.176-.108.064-.221.179-.356.143.052-.201.273-.271.458-.287.318-.04.653.033.96-.082.05-.03.17-.072.126-.142-.038-.055.098-.033.112-.098-.008-.081.062-.07.132-.077.309-.013.614.052.923.063.023.15-.143.254-.278.208-.064.01-.16-.147-.14-.032-.015.059-.006.139-.06.179zm-2.632-.307c.072.065.122-.013.189-.041.224-.077.42-.212.614-.346.117-.097.218-.222.375-.253.307-.092.633-.081.94-.166.235-.32.633-.434.967-.618.075-.023.103-.085.127-.152.127-.2.3-.378.506-.5a.474.474 0 01.322-.058.537.537 0 01-.173.336c.074-.002.138-.048.213-.046.026.134-.12.204-.196.287.043.01.207.023.118.066-.114.079-.245.133-.35.225.097.017.108.037.009.073-.054.036-.157.049-.167.12.073.044-.034.09-.075.104-.08.018-.163.053-.057.113-.04.06-.125.073-.195.066.02.068.051.144-.037.174-.198.15-.43.258-.68.283.31.024.632-.034.898-.203.035-.04.22-.085.116-.12-.048-.02-.152-.043-.16-.08.145-.088.326-.057.481-.11.005-.05-.117-.035-.163-.047-.108-.008-.102-.036.003-.046.132-.035.282-.042.393-.128-.09-.042-.205-.005-.301-.04.163-.071.357-.078.504-.185.067-.074-.086-.051-.13-.05-.091.016-.133-.027-.03-.064.176-.13.399-.214.522-.401.03-.042.07-.169-.024-.123-.123.04-.231.178-.371.136.276-.213.538-.456.727-.75.01-.086-.125-.095-.16-.028-.177.17-.337.371-.564.478.217-.21.397-.457.554-.714.033-.076.123-.168.075-.253-.08-.065-.178-.005-.22.073-.137.18-.242.388-.419.535.155-.296.316-.61.32-.95 0-.07-.015-.173-.11-.16-.076.013-.058.126-.089.183-.069.233-.1.484-.242.688.032-.189.088-.386.045-.577-.02-.085-.158-.048-.14.036-.165.834-.726 1.562-1.46 1.984a3.15 3.15 0 01-1.092.367c-.103.022-.214.009-.312.044-.238.182-.382.486-.683.581-.135.067-.31.08-.408.206a.094.094 0 00-.01.05z" fill="#FFEE58"/><path d="M10.986 11.88c-.044.08-.07.173-.127.245-.172-.156-.421-.15-.64-.161-.18-.01-.375-.027-.514-.155-.147-.119-.266-.274-.43-.371-.15-.04-.3-.091-.42-.194-.257-.208-.404-.517-.654-.732-.048-.048-.104-.084-.158-.123-.051.012-.028.121-.09.066-.034-.025-.119-.027-.126.007.076.1.153.216.164.344-.052.006-.146-.01-.171.009.07.103.158.195.26.269-.05.008-.145.003-.163.023.1.081.208.165.34.186.026.035-.04.103.015.133.033.014.14.035.066.072-.05.034-.032.113.033.11.04.021.132.026.14.062-.037.037-.149.08-.054.115.09.05.192.081.294.085-.051.043-.114.068-.167.107.235.138.496.228.754.316.102.034.207.066.313.086a2.574 2.574 0 01-.89-.234 7.964 7.964 0 00-.443-.18c.066-.035.142-.043.21-.072-.141-.029-.296-.038-.42-.115.02-.034.092-.036.132-.053.075-.018.121-.04.015-.046-.106-.029-.229-.016-.323-.08.007-.038.105-.025.145-.042.05-.008.107-.015.147-.05-.165-.067-.38-.02-.51-.164-.03-.056.093-.011.128-.02.088 0 .183.028.268-.008-.24-.105-.498-.203-.681-.398-.02-.031-.082-.117-.032-.127.142.019.245.174.398.15.02-.027-.089-.072-.116-.11-.222-.191-.438-.398-.594-.647-.01-.083.12-.096.155-.031.17.163.324.353.536.465.075.036-.044-.043-.059-.072a3.787 3.787 0 01-.52-.733c-.024-.047-.064-.135.01-.16.073-.037.145.013.182.075.144.181.25.397.43.547-.154-.295-.317-.607-.32-.947.003-.065.007-.165.097-.162.075-.012.063.084.088.13.074.25.106.52.255.74-.033-.185-.081-.375-.05-.564.008-.061.078-.08.124-.043.037.09.044.2.078.297.191.652.62 1.225 1.18 1.61a3.12 3.12 0 001.565.535c.049.006.1.007.15.01zm-.708.804a.03.03 0 00-.021.01.03.03 0 000 .042.03.03 0 00.042 0 .03.03 0 000-.043.03.03 0 00-.021-.008zM2.5 4.402s-.134-.106-.18-.053c-.072.085.225.51.225.66 0 .246-.174.313-.388.348a1.603 1.603 0 01-.38-.01c.045-.056.074-.072.148-.077a.29.29 0 01-.167-.265c0-.212.092-.3.092-.538 0-.132-.115-.3-.115-.3.204.019.304.196.247.338a.103.103 0 00.087-.025c.015.04-.009.085-.04.125.026.012.044.005.084-.003-.003.04-.03.083-.092.124.182-.045.295.075.295.201 0 .095-.07.163-.14.163a.147.147 0 01-.073-.022c-.013.027-.006.062.007.088-.05-.013-.083-.041-.06-.1a.133.133 0 01-.09-.04.11.11 0 01.09-.039c-.028-.055.004-.085.05-.11 0 0-.03.11.045.11.033 0 .064-.01.064-.057 0-.04-.037-.096-.124-.093-.088.004-.158.057-.158.188 0 .12.103.18.24.184.122.004.215-.059.215-.179 0-.159-.244-.52-.244-.663 0-.106.102-.165.2-.165.129 0 .238.12.238.12l-.076.09z" fill="#FFEE58"/><path d="M2.528 7.275c0 .266-.253.402-.451.402-.268 0-.41-.15-.41-.348a.56.56 0 01.077-.29s.44-.866.613-1.201a.337.337 0 00.028-.16c0-.107-.11-.195-.226-.198-.106-.002-.222.093-.222.202 0 .133.073.192.148.192.092 0 .128-.036.128-.097 0-.042-.021-.06-.053-.06-.078 0-.056.1-.056.1-.04-.009-.072-.047-.053-.094a.142.142 0 01-.077-.043.147.147 0 01.077-.039c-.019-.057.006-.085.06-.097a.093.093 0 00-.008.061c.084-.022.212.014.212.15 0 .136-.1.25-.287.222.045.02.067.061.072.107-.034-.012-.072-.014-.072-.014.022.036.053.068.051.14-.035-.015-.067-.043-.112-.025.07.13-.015.308-.234.35a.415.415 0 00.12-.279c0-.308-.091-.36-.091-.574a.31.31 0 01.145-.252v.004c-.064-.016-.105-.046-.128-.086a.92.92 0 01.472.004.35.35 0 01.25.157.452.452 0 010 .379c-.087.172-.497.99-.624 1.248a.39.39 0 00-.044.175c0 .158.153.213.24.213.104 0 .21-.074.21-.168 0-.059-.034-.094-.084-.094-.117 0-.11.094-.087.153-.073-.03-.115-.086-.103-.145a.19.19 0 01-.117-.062.149.149 0 01.117-.06c-.024-.091.04-.13.103-.15-.02.066-.033.142.087.142.088 0 .157.014.197.068l.01-.354c.005-.107-.15-.103-.25-.072.038-.122.114-.188.291-.172a.133.133 0 01-.088-.129c0-.1.085-.21.141-.242l.028 1.036z" fill="#FFEE58"/><path d="M2.528 8.072c0-.266-.253-.402-.451-.402-.268 0-.41.15-.41.349a.56.56 0 00.077.29s.44.866.613 1.2c.021.042.028.09.028.16 0 .108-.11.196-.226.198-.106.003-.222-.093-.222-.202 0-.133.073-.191.148-.191.092 0 .128.036.128.096 0 .043-.021.061-.053.061-.078 0-.056-.1-.056-.1-.04.008-.072.046-.053.093a.142.142 0 00-.077.043c.021.02.045.034.077.04-.019.057.006.085.06.097a.093.093 0 01-.008-.062c.084.023.212-.013.212-.15 0-.136-.1-.25-.287-.222a.125.125 0 00.072-.107.274.274 0 01-.072.014c.022-.036.053-.067.051-.14-.035.016-.067.043-.112.026.07-.13-.015-.308-.234-.35.08.088.12.183.12.278 0 .308-.091.36-.091.574 0 .09.048.186.145.252v-.004c-.064.017-.105.047-.128.087a.92.92 0 00.472-.004.35.35 0 00.25-.157.452.452 0 000-.38c-.087-.171-.497-.99-.624-1.247a.39.39 0 01-.044-.176c0-.157.153-.213.24-.213.104 0 .21.075.21.168 0 .06-.034.095-.084.095-.117 0-.11-.094-.087-.154-.073.03-.115.086-.103.145a.19.19 0 00-.117.063c.028.034.063.06.117.06-.024.09.04.13.103.15-.02-.065-.032-.142.088-.142.087 0 .156-.014.197-.068l.01.355c.004.106-.151.102-.25.071.037.122.113.189.29.172a.13.13 0 00-.088.128c0 .1.085.21.141.243l.028-1.037zM2.5 4.402s.134-.106.18-.053c.072.085-.225.51-.225.66 0 .246.174.313.388.348.144.024.379-.01.379-.01-.044-.055-.073-.072-.147-.077a.291.291 0 00.167-.265c0-.212-.092-.3-.092-.538 0-.132.114-.3.114-.3-.203.019-.303.196-.246.338a.103.103 0 01-.087-.025c-.015.04.008.085.04.125-.026.012-.044.005-.084-.003.003.04.03.083.092.124-.182-.045-.295.075-.295.201 0 .095.07.163.14.163a.147.147 0 00.073-.022c.013.027.006.062-.007.088.05-.013.082-.041.06-.1a.133.133 0 00.09-.04.11.11 0 00-.09-.039c.028-.055-.004-.085-.05-.11 0 0 .03.11-.045.11-.033 0-.064-.01-.064-.057 0-.04.037-.096.124-.093.087.004.158.057.158.188 0 .12-.104.18-.24.184-.122.004-.215-.059-.215-.179 0-.159.244-.52.244-.663 0-.106-.102-.165-.2-.165-.13 0-.238.12-.238.12l.076.09z" fill="#FFEE58"/><path d="M2.472 7.275c0 .266.253.402.451.402.268 0 .41-.15.41-.348a.56.56 0 00-.076-.29l-.614-1.201a.337.337 0 01-.028-.16c0-.107.11-.195.227-.198.106-.002.22.093.22.202 0 .133-.072.192-.147.192-.092 0-.128-.036-.128-.097 0-.042.022-.06.053-.06.079 0 .057.1.057.1.039-.009.07-.047.053-.094a.142.142 0 00.076-.043.147.147 0 00-.076-.039c.018-.057-.007-.085-.06-.097.01.022.011.042.008.061-.084-.022-.213.014-.213.15 0 .136.1.25.287.222a.125.125 0 00-.072.107.274.274 0 01.072-.014c-.022.036-.052.068-.05.14.034-.015.066-.043.11-.025-.07.13.017.308.235.35a.415.415 0 01-.12-.279c0-.308.092-.36.092-.574a.312.312 0 00-.146-.252v.004a.196.196 0 00.129-.086.92.92 0 00-.472.004.35.35 0 00-.25.157.452.452 0 000 .379l.624 1.248a.39.39 0 01.043.175c0 .158-.153.213-.24.213-.104 0-.21-.074-.21-.168 0-.059.035-.094.084-.094.117 0 .11.094.087.153.073-.03.115-.086.104-.145a.19.19 0 00.117-.062.149.149 0 00-.117-.06c.023-.091-.041-.13-.104-.15.02.066.033.142-.087.142-.088 0-.156.014-.197.068l-.01-.354c-.004-.107.151-.103.25-.072-.037-.122-.114-.188-.29-.172a.132.132 0 00.088-.128c0-.1-.085-.21-.142-.243l-.028 1.036z" fill="#FFEE58"/><path d="M2.472 8.072c0-.266.253-.402.45-.402.268 0 .41.15.41.349a.56.56 0 01-.076.29s-.441.866-.613 1.2a.337.337 0 00-.028.16c0 .108.11.196.226.198.106.003.221-.093.221-.202 0-.132-.072-.191-.147-.191-.092 0-.128.036-.128.096 0 .043.021.061.053.061.078 0 .056-.1.056-.1.04.008.071.046.053.093.029.006.056.02.077.043a.147.147 0 01-.077.04c.018.057-.006.085-.06.097a.093.093 0 00.008-.062c-.084.023-.212-.013-.212-.15 0-.136.1-.25.287-.222a.125.125 0 01-.072-.107.274.274 0 00.072.015c-.022-.037-.053-.068-.051-.14.034.015.067.042.111.025-.07-.13.016-.308.235-.35a.415.415 0 00-.12.278c0 .308.091.36.091.574a.31.31 0 01-.145.252v-.004c.064.017.105.046.128.087a.92.92 0 01-.472-.005.35.35 0 01-.25-.156.452.452 0 010-.38c.087-.171.496-.99.624-1.247a.39.39 0 00.044-.176c0-.157-.153-.213-.24-.213-.104 0-.21.075-.21.168 0 .06.034.095.083.095.118 0 .11-.094.087-.154.073.031.116.086.104.145a.19.19 0 01.117.063.149.149 0 01-.117.06c.024.09-.04.13-.104.15.02-.066.033-.142-.087-.142-.087 0-.156-.015-.196-.068l-.01.354c-.005.106.15.103.25.071-.038.123-.114.189-.291.172a.133.133 0 01.088.13c0 .099-.085.21-.141.242l-.028-1.037zm.028 7.526s-.134.106-.18.053c-.072-.085.225-.51.225-.66 0-.246-.174-.313-.388-.348a1.6 1.6 0 00-.38.01c.045.056.074.072.148.077a.29.29 0 00-.167.265c0 .212.092.3.092.538 0 .132-.115.3-.115.3.204-.019.304-.196.247-.338a.103.103 0 01.087.025c.015-.04-.009-.085-.04-.124.026-.014.044-.006.084.002-.003-.04-.03-.083-.092-.124.182.045.295-.075.295-.201 0-.095-.07-.163-.14-.163a.148.148 0 00-.073.022c-.013-.027-.006-.062.007-.088-.05.013-.083.041-.06.1a.133.133 0 00-.09.04.11.11 0 00.09.039c-.028.055.004.085.05.11 0 0-.03-.11.045-.11.033 0 .064.01.064.057 0 .04-.037.096-.124.093-.088-.004-.158-.057-.158-.188 0-.12.103-.18.24-.184.122-.004.215.059.215.179 0 .159-.244.52-.244.662 0 .107.102.166.2.166.129 0 .238-.12.238-.12l-.076-.09z" fill="#FFEE58"/><path d="M2.528 12.725c0-.266-.253-.402-.451-.402-.268 0-.41.15-.41.348 0 .112.022.183.077.29 0 0 .44.866.613 1.201.021.042.028.09.028.16 0 .107-.11.195-.226.198-.106.002-.222-.093-.222-.202 0-.133.073-.192.148-.192.092 0 .128.036.128.097 0 .042-.021.06-.053.06-.078 0-.056-.1-.056-.1-.04.009-.072.047-.053.094a.142.142 0 00-.077.043.145.145 0 00.077.039c-.019.057.006.085.06.097a.093.093 0 01-.008-.061c.084.022.212-.014.212-.15 0-.136-.1-.25-.287-.222a.125.125 0 00.072-.107c-.034.012-.072.014-.072.014.022-.036.053-.068.051-.14-.035.015-.067.043-.112.025.07-.13-.015-.308-.234-.35.08.088.12.184.12.279 0 .308-.091.36-.091.574 0 .09.048.186.145.252v-.004c-.064.016-.105.046-.128.086.145.04.358.038.472-.004a.35.35 0 00.25-.157.452.452 0 000-.379c-.087-.172-.497-.99-.624-1.248a.39.39 0 01-.044-.175c0-.158.153-.213.24-.213.104 0 .21.074.21.168 0 .059-.034.094-.084.094-.117 0-.11-.094-.087-.153-.073.03-.115.086-.103.145a.19.19 0 00-.117.062c.028.034.063.06.117.06-.024.091.04.13.103.15-.02-.066-.033-.142.087-.142.088 0 .157-.014.197-.068l.01.354c.005.106-.15.103-.25.072.038.122.114.188.291.172a.133.133 0 00-.088.129c0 .1.085.21.141.242l.028-1.036z" fill="#FFEE58"/><path d="M2.528 11.928c0 .266-.253.402-.451.402-.268 0-.41-.15-.41-.349a.56.56 0 01.077-.29s.44-.866.613-1.2a.337.337 0 00.028-.16c0-.108-.11-.196-.226-.198-.106-.003-.222.093-.222.202 0 .132.073.191.148.191.092 0 .128-.036.128-.096 0-.043-.021-.061-.053-.061-.078 0-.056.1-.056.1-.04-.008-.072-.046-.053-.093a.142.142 0 01-.077-.043.147.147 0 01.077-.04c-.019-.057.006-.085.06-.097a.093.093 0 00-.008.062c.084-.023.212.013.212.15 0 .136-.1.25-.287.222.045.02.067.06.072.107-.034-.013-.072-.014-.072-.014.022.036.053.067.051.14-.035-.016-.067-.043-.112-.026.07.13-.015.308-.234.35a.415.415 0 00.12-.278c0-.308-.091-.36-.091-.574a.31.31 0 01.145-.252v.004c-.064-.017-.105-.047-.128-.087a.92.92 0 01.472.004.35.35 0 01.25.157.452.452 0 010 .38c-.087.171-.497.99-.624 1.247a.39.39 0 00-.044.176c0 .157.153.213.24.213.104 0 .21-.075.21-.168 0-.06-.034-.095-.084-.095-.117 0-.11.094-.087.154-.073-.03-.115-.086-.103-.145a.19.19 0 01-.117-.063.149.149 0 01.117-.06c-.024-.09.04-.13.103-.15-.02.065-.032.142.088.142.087 0 .156.014.197.068l.01-.355c.004-.106-.151-.103-.25-.071.037-.122.113-.189.29-.172a.131.131 0 01-.088-.128c0-.1.085-.21.141-.243l.028 1.037zm-.028 3.67s.134.106.18.053c.072-.085-.225-.51-.225-.66 0-.246.174-.313.388-.348.144-.024.379.01.379.01-.044.055-.073.072-.147.077a.29.29 0 01.167.265c0 .212-.092.3-.092.538 0 .132.114.3.114.3-.203-.019-.303-.196-.246-.338a.103.103 0 00-.087.025c-.015-.04.008-.085.04-.125-.026-.012-.044-.005-.084.003.003-.04.03-.083.092-.124-.182.045-.295-.075-.295-.201 0-.095.07-.163.14-.163.022 0 .055.009.073.022.013-.027.006-.062-.007-.088.05.013.082.041.06.1.038.003.07.016.09.04a.11.11 0 01-.09.039c.028.055-.004.085-.05.11 0 0 .03-.11-.045-.11-.033 0-.064.01-.064.057 0 .04.037.096.124.093.087-.004.158-.057.158-.188 0-.12-.104-.18-.24-.184-.122-.004-.215.059-.215.179 0 .159.244.52.244.662 0 .107-.102.166-.2.166-.13 0-.238-.12-.238-.12l.076-.09z" fill="#FFEE58"/><path d="M2.472 12.725c0-.266.253-.402.451-.402.268 0 .41.15.41.348a.559.559 0 01-.076.29l-.614 1.201a.338.338 0 00-.028.16c0 .107.11.195.227.198.106.002.22-.093.22-.202 0-.133-.072-.192-.147-.192-.092 0-.128.036-.128.097 0 .042.022.06.053.06.079 0 .057-.1.057-.1.039.009.07.047.053.094.028.006.055.02.076.043a.147.147 0 01-.076.039c.018.057-.007.085-.06.097a.094.094 0 00.008-.061c-.084.022-.213-.014-.213-.15 0-.136.1-.25.287-.222a.125.125 0 01-.072-.107.304.304 0 00.072.014c-.022-.036-.052-.068-.05-.14.034.015.066.043.11.025-.07-.13.017-.308.235-.35a.415.415 0 00-.12.279c0 .308.092.36.092.574 0 .09-.049.186-.146.252v-.004a.196.196 0 01.129.086.924.924 0 01-.472-.004.35.35 0 01-.25-.157.452.452 0 010-.379l.624-1.248a.39.39 0 00.043-.175c0-.158-.153-.213-.24-.213-.104 0-.21.074-.21.168 0 .059.035.094.084.094.117 0 .11-.094.087-.153.073.03.115.086.104.145a.19.19 0 01.117.062.148.148 0 01-.117.06c.023.091-.041.13-.104.15.02-.066.033-.142-.087-.142-.088 0-.156-.014-.197-.068l-.01.354c-.004.106.151.103.25.072-.037.122-.114.188-.29.172a.132.132 0 01.088.128c0 .1-.085.21-.142.243l-.028-1.036z" fill="#FFEE58"/><path d="M2.472 11.928c0 .266.253.402.451.402.268 0 .41-.15.41-.349a.56.56 0 00-.076-.29l-.614-1.2a.338.338 0 01-.028-.16c0-.108.11-.195.227-.198.106-.002.22.093.22.202 0 .133-.072.191-.147.191-.092 0-.128-.035-.128-.096 0-.043.022-.061.053-.061.079 0 .057.1.057.1.039-.008.07-.046.053-.093a.142.142 0 00.076-.043.147.147 0 00-.076-.04c.018-.057-.007-.085-.06-.097.01.022.011.043.008.062-.084-.022-.213.013-.213.15 0 .136.1.25.287.222a.125.125 0 00-.072.107.255.255 0 01.072-.014c-.022.036-.052.067-.05.14.034-.016.066-.043.11-.026-.07.13.017.309.235.35a.415.415 0 01-.12-.278c0-.308.092-.36.092-.574a.312.312 0 00-.146-.252v.004c.064-.017.105-.046.129-.086a.92.92 0 00-.472.004.349.349 0 00-.25.156.452.452 0 000 .38c.087.171.496.99.624 1.247a.39.39 0 01.043.176c0 .157-.153.213-.24.213-.104 0-.21-.075-.21-.168 0-.06.035-.095.084-.095.117 0 .11.094.087.154.073-.03.115-.086.104-.145a.19.19 0 00.117-.063.148.148 0 00-.117-.06c.023-.09-.041-.13-.104-.15.02.066.033.143-.087.143-.088 0-.156.014-.197.068l-.01-.355c-.004-.106.151-.103.25-.071-.037-.122-.114-.189-.29-.172a.133.133 0 00.088-.13c0-.099-.086-.21-.142-.242l-.028 1.037z" fill="#FFEE58"/></svg>