<svg width="20" height="20" fill="none" xmlns="http://www.w3.org/2000/svg"><path d="M4.167 12.083h15v4.167h-15v-4.167z" fill="#7CB342"/><path d="M.833 3.75h3.333v12.5H.833V3.75z" fill="#ECEFF1"/><path d="M.833 3.75h.833v.833H.833V3.75zm.833.833H2.5v.834h-.834v-.834zM2.5 3.75h.833v.833H2.5V3.75zm.833.833h.833v.834h-.833v-.834zm-2.5.834h.833v.833H.833v-.833zm.833.833H2.5v.833h-.834V6.25zm.834-.833h.833v.833H2.5v-.833zm.833.833h.833v.833h-.833V6.25zm-2.5.833h.833v.834H.833v-.834zm.833.834H2.5v.833h-.834v-.833zm.834-.834h.833v.834H2.5v-.834zm.833.834h.833v.833h-.833v-.833zm-2.5.833h.833v.833H.833V8.75zm.833.833H2.5v.834h-.834v-.834zM2.5 8.75h.833v.833H2.5V8.75zm.833.833h.833v.834h-.833v-.834zm-2.5.834h.833v.833H.833v-.833zm.833.833H2.5v.833h-.834v-.833zm.834-.833h.833v.833H2.5v-.833zm.833.833h.833v.833h-.833v-.833zm-2.5.833h.833v.834H.833v-.834zm.833.834H2.5v.833h-.834v-.833zm.834-.834h.833v.834H2.5v-.834zm.833.834h.833v.833h-.833v-.833zm-2.5.833h.833v.833H.833v-.833zm.833.833H2.5v.834h-.834v-.834zm.834-.833h.833v.833H2.5v-.833zm.833.833h.833v.834h-.833v-.834zm-2.5.834h.833v.833H.833v-.833zm1.667 0h.833v.833H2.5v-.833zM4.166 3.75h15v8.333h-15V3.75z" fill="#FF3D00"/></svg>