<svg width="20" height="20" fill="none" xmlns="http://www.w3.org/2000/svg"><path d="M.833 7.917L10 7.5l9.166.417v4.166L10 12.5l-9.167-.417V7.917z" fill="#ECEFF1"/><path d="M.833 4.167h18.333v3.75H.833v-3.75z" fill="#B71C1C"/><path d="M.833 4.167h7.5v7.916h-7.5V4.167z" fill="#1A237E"/><path fill-rule="evenodd" clip-rule="evenodd" d="M4.824 5.315l.272-.192-.333-.004-.098-.319-.107.316-.333-.005.266.2-.107.315.272-.192.267.2-.099-.319zm-1.309.235l.152-.297-.297.15-.235-.235.052.33-.297.15.328.052.052.33.152-.297.328.053-.235-.236zm-1.055.821l-.002-.333-.194.272-.318-.1.199.268-.193.27.316-.106.198.268-.003-.333.315-.106-.317-.1zm-.542 1.216l-.157-.294-.045.33-.328.06.3.144-.045.33.23-.24.3.144-.157-.293.23-.24-.328.059zm.077 1.325l-.276-.187.114.313-.263.205.333-.01.114.312.092-.32.333-.012-.276-.186.092-.32-.263.205zm.686 1.145l-.33-.037.245.225-.137.303.29-.165.245.225-.067-.326.29-.165-.331-.037-.068-.327-.137.304zm1.144.688l-.31.121.322.085.02.332.179-.28.322.085-.211-.259.18-.28-.31.121-.212-.258.02.333zm1.323.082l-.218.25.324-.074.172.285.029-.331.324-.075-.306-.13.028-.332-.218.251-.307-.13.172.286zm1.218-.542l-.076.324.252-.217.285.173-.129-.307.253-.218-.332.028-.13-.307-.076.324-.332.027.285.173zm.823-1.052l.083.323.122-.31.333.021-.257-.212.123-.31-.282.179-.256-.212.083.322-.282.178.333.021zm-.151-2.578l.312.115-.185-.276.206-.262-.32.09-.185-.276-.013.333-.32.09.311.116-.013.332.207-.262zm-.944-.945l.33-.043-.292-.16.06-.327-.241.23-.293-.16.144.301-.241.23.33-.044.143.3.06-.327zm1.334 2.218l.222.247-.035-.332.304-.135-.326-.07-.035-.33-.167.289-.326-.069.223.247-.166.289.306-.136z" fill="#ECEFF1"/><path fill-rule="evenodd" clip-rule="evenodd" d="M3.27 9.815h-.096v-.011l.011-.001c.005 0 .01 0 .011-.002.004-.001.006-.003.007-.005.002-.003.002-.006.002-.01v-.155a.02.02 0 00-.001-.009c-.002-.002-.004-.005-.008-.006a.05.05 0 00-.012-.004l-.011-.002V9.6h.096v.01l-.011.002a.045.045 0 00-.011.003.012.012 0 00-.008.005.023.023 0 00-.002.01v.155c0 .003 0 .006.002.008a.019.019 0 00.008.007l.01.002.012.002v.01z" fill="#FFD600"/><path d="M3.279 9.823h-.114v-.027l.02-.002.008-.001a.009.009 0 00.003-.002l.001-.005v-.16l-.004-.002-.01-.003-.01-.001h-.008v-.028h.114v.028H3.27l-.01.001a.046.046 0 00-.01.002l-.002.002a.011.011 0 00-.001.005v.155l.001.005.003.002.009.002.01.001h.01v.028h-.001zm-.074-.017h.036a.022.022 0 01-.008-.008.03.03 0 01-.004-.013v-.156a.03.03 0 01.003-.013.02.02 0 01.007-.008h-.038a.023.023 0 01.011.01.028.028 0 01.003.012v.156c0 .006-.002.01-.004.014a.024.024 0 01-.006.006z" fill="#FFD600"/><path fill-rule="evenodd" clip-rule="evenodd" d="M3.535 9.61l-.013.003a.05.05 0 00-.013.005c-.004.002-.006.007-.007.014a.165.165 0 00-.002.028v.157h-.013l-.13-.176v.11c0 .013 0 .023.002.03a.03.03 0 00.007.014.042.042 0 00.014.006.063.063 0 00.015.003v.01h-.088v-.01a.142.142 0 00.014-.003.03.03 0 00.012-.005.023.023 0 00.007-.013.157.157 0 00.002-.03v-.105c0-.005 0-.01-.002-.014a.025.025 0 00-.007-.01.045.045 0 00-.014-.009.043.043 0 00-.015-.004V9.6h.061l.12.163v-.102c0-.012 0-.022-.002-.029a.032.032 0 00-.007-.013.044.044 0 00-.014-.005.068.068 0 00-.015-.003V9.6h.088v.01z" fill="#FFD600"/><path d="M3.508 9.825h-.026l-.117-.158v.084l.002.027.005.01s.002.002.01.004l.013.003h.009v.028h-.106v-.027h.008l.012-.003.009-.003.004-.008a.112.112 0 00.002-.029v-.105c0-.004 0-.008-.002-.011-.001-.004-.002-.006-.004-.007a.04.04 0 00-.012-.007.042.042 0 00-.013-.003h-.008v-.028h.074l.108.146v-.076l-.002-.027c-.002-.007-.004-.008-.004-.008l-.011-.004-.013-.003h-.008v-.028h.105v.028h-.009s-.004 0-.01.003a.03.03 0 00-.01.002c-.001 0-.003.002-.005.009a.146.146 0 00-.001.026v.165zm-.017-.017v-.022L3.36 9.61h-.034l.013.008a.034.034 0 01.008.014v-.016l.144.193zm-.158-.002h.035a.036.036 0 01-.009-.005.036.036 0 01-.01-.018v-.005l-.001.007a.03.03 0 01-.01.018l-.005.003zm.14-.197l.007.003c.005.004.009.01.01.019l.002.006V9.63c.002-.01.006-.016.012-.02l.003-.002h-.033z" fill="#FFD600"/><path fill-rule="evenodd" clip-rule="evenodd" d="M3.85 9.729l-.01.001a.028.028 0 00-.01.003.017.017 0 00-.007.007.023.023 0 00-.001.01v.05a.19.19 0 01-.08.019.1.1 0 01-.096-.065.117.117 0 01-.007-.045c0-.017.002-.032.008-.046a.102.102 0 01.057-.06.105.105 0 01.042-.008.104.104 0 01.056.015l.006-.01h.013l.001.075H3.81a.165.165 0 00-.008-.024.078.078 0 00-.012-.022.053.053 0 00-.043-.02.058.058 0 00-.03.006.061.061 0 00-.022.02.09.09 0 00-.014.03.161.161 0 000 .08.098.098 0 00.014.032.066.066 0 00.055.029.064.064 0 00.04-.013.077.077 0 00.002-.017v-.025c0-.004 0-.008-.002-.011a.01.01 0 00-.007-.007.047.047 0 00-.014-.004l-.013-.001v-.011h.094v.01z" fill="#FFD600"/><path d="M3.743 9.828A.118.118 0 013.7 9.82a.108.108 0 01-.06-.062.132.132 0 010-.098.11.11 0 01.062-.065.113.113 0 01.045-.008.106.106 0 01.052.012l.005-.008h.025l.002.092h-.028L3.8 9.677a.22.22 0 00-.007-.024.099.099 0 00-.011-.02.046.046 0 00-.015-.012.055.055 0 00-.046.001.057.057 0 00-.02.017.085.085 0 00-.013.029.164.164 0 000 .075c.003.011.008.02.013.029a.062.062 0 00.02.018.055.055 0 00.028.007.067.067 0 00.021-.003.048.048 0 00.01-.005l.002-.011v-.026c0-.003 0-.006-.002-.008 0-.001 0-.002-.002-.003a.046.046 0 00-.011-.003l-.013-.001h-.009v-.029h.112v.028l-.007.002a.05.05 0 00-.01 0 .016.016 0 00-.007.003.005.005 0 00-.003.002v.063l-.005.002a.236.236 0 01-.041.015.177.177 0 01-.042.005zm-.04-.214a.096.096 0 00-.048.053.116.116 0 00-.007.042.106.106 0 00.029.074.088.088 0 00.04.024l-.002-.002a.08.08 0 01-.027-.023.105.105 0 01-.015-.034.164.164 0 01.016-.12.074.074 0 01.013-.014zm.085.112a.022.022 0 01.01.012.035.035 0 01.002.014v.042l-.001.003-.002.002a.044.044 0 01-.005.004l.022-.008V9.75c0-.005 0-.01.002-.014a.023.023 0 01.008-.01h-.036v.001zm-.006-.116c.006.004.01.008.015.014.005.007.01.015.013.024l.003.008V9.61l-.008.011-.007-.005a.19.19 0 00-.016-.007z" fill="#FFD600"/><path fill-rule="evenodd" clip-rule="evenodd" d="M4.061 9.625a.117.117 0 01.03.082.125.125 0 01-.008.047.103.103 0 01-.055.058.103.103 0 01-.08 0 .101.101 0 01-.055-.06.132.132 0 01.001-.091.107.107 0 01.023-.036.099.099 0 01.072-.03.1.1 0 01.072.03zm-.022.152a.11.11 0 00.012-.03.185.185 0 00-.001-.08.102.102 0 00-.013-.031.06.06 0 00-.02-.02.055.055 0 00-.03-.007.056.056 0 00-.03.008.066.066 0 00-.02.022.106.106 0 00-.012.031.185.185 0 000 .077.095.095 0 00.012.031.061.061 0 00.02.021.056.056 0 00.03.008c.011 0 .02-.003.03-.008a.065.065 0 00.022-.022z" fill="#FFD600"/><path d="M3.988 9.828a.109.109 0 01-.104-.073.141.141 0 010-.097.125.125 0 01.025-.038.112.112 0 01.123-.025.106.106 0 01.035.025.122.122 0 01.033.088.136.136 0 01-.009.05.11.11 0 01-.103.07zm-.04-.215a.099.099 0 00-.047.052.127.127 0 000 .085.094.094 0 00.048.053.073.073 0 01-.018-.02.1.1 0 01-.014-.034.198.198 0 010-.08.112.112 0 01.012-.034.074.074 0 01.02-.022zm.098.169a.063.063 0 01-.02.02.094.094 0 00.049-.052.12.12 0 00.007-.043.12.12 0 00-.007-.043.098.098 0 00-.02-.033.085.085 0 00-.028-.02.066.066 0 01.018.02c.006.01.01.02.013.034a.193.193 0 010 .083.097.097 0 01-.012.034zm-.058-.165a.05.05 0 00-.026.007.057.057 0 00-.018.02.101.101 0 00-.01.028.198.198 0 000 .073c.003.011.007.02.012.029.004.007.01.014.017.018a.047.047 0 00.025.006.048.048 0 00.043-.024.1.1 0 00.01-.029.16.16 0 00.005-.037.156.156 0 00-.004-.039.09.09 0 00-.011-.029.047.047 0 00-.018-.017.045.045 0 00-.025-.006z" fill="#FFD600"/><path fill-rule="evenodd" clip-rule="evenodd" d="M4.328 9.708a.1.1 0 01-.074.1.146.146 0 01-.043.006h-.088v-.01l.011-.002a.024.024 0 00.01-.002.015.015 0 00.006-.005.021.021 0 00.002-.01v-.154l-.001-.01a.013.013 0 00-.007-.006.02.02 0 00-.01-.003.043.043 0 00-.01-.002V9.6h.094a.127.127 0 01.071.022c.012.01.022.02.03.035.006.015.01.032.01.051zm-.036 0a.127.127 0 00-.006-.039.094.094 0 00-.017-.03.076.076 0 00-.06-.027h-.025v.166c0 .01.002.015.008.02a.047.047 0 00.024.004.076.076 0 00.034-.006.061.061 0 00.023-.019.086.086 0 00.014-.03.147.147 0 00.005-.039z" fill="#FFD600"/><path d="M4.21 9.823h-.097v-.028h.019a.098.098 0 00.007-.002c.002 0 .002-.001.002-.002a.01.01 0 00.001-.005v-.162l-.003-.002a.025.025 0 00-.008-.002.034.034 0 00-.009-.001h-.007v-.028h.102a.137.137 0 01.075.023.11.11 0 01.033.038.127.127 0 010 .107.103.103 0 01-.03.035.131.131 0 01-.084.028zm-.059-.017h.039c-.002 0-.003-.001-.003-.002-.008-.005-.012-.014-.012-.026v-.17h-.027a.021.021 0 01.01.01.03.03 0 01.002.013v.155c0 .005-.001.01-.003.013a.02.02 0 01-.006.007zm.041-.185v.157c0 .005.001.01.004.011.003.002.009.004.02.004a.076.076 0 00.03-.006.048.048 0 00.02-.016.076.076 0 00.012-.026.139.139 0 00-.001-.073.07.07 0 00-.037-.045.069.069 0 00-.03-.006.16.16 0 00-.014 0h-.004zm.06-.007a.085.085 0 01.023.02c.008.009.014.02.018.033a.17.17 0 01.002.082.084.084 0 01-.024.043.09.09 0 00.04-.04.094.094 0 00.008-.043.105.105 0 00-.01-.048.088.088 0 00-.027-.032.107.107 0 00-.03-.015z" fill="#FFD600"/><path fill-rule="evenodd" clip-rule="evenodd" d="M4.737 9.61l-.008.002-.01.005a.038.038 0 00-.008.007.033.033 0 00-.006.012l-.025.082-.03.1h-.014l-.054-.166-.057.165h-.013l-.03-.11a3.84 3.84 0 01-.026-.084.027.027 0 00-.016-.01l-.01-.002V9.6h.088v.01a.205.205 0 00-.02.003c-.005.001-.007.003-.007.005v.008l.013.044.026.092.054-.16h.014l.054.163.019-.065.013-.048.004-.02.001-.008c0-.003-.003-.006-.007-.009a.061.061 0 00-.023-.004V9.6h.078v.01z" fill="#FFD600"/><path d="M4.655 9.826H4.63l-.05-.146-.05.146h-.026l-.055-.193-.002-.005a.018.018 0 00-.005-.005.014.014 0 00-.006-.002.028.028 0 00-.008-.001H4.42v-.028h.104v.027h-.008a.176.176 0 00-.018.003h-.001l.002.003.012.043.018.065.047-.138h.027l.047.142.011-.039a.444.444 0 00.013-.048l.005-.018v-.007l-.002-.001a.056.056 0 00-.02-.004H4.65v-.028h.095v.028h-.008l-.007.001a.031.031 0 00-.007.004.026.026 0 00-.006.005.039.039 0 00-.005.01l-.025.08-.03.1-.003.006zm-.014-.018h.002l.006-.021-.058-.175H4.59l-.006.018.058.178zm-.123 0l.009-.024-.006-.02-.026-.091a1.275 1.275 0 01-.012-.045l-.001-.004v-.006c0-.003 0-.007.004-.01h-.033a.03.03 0 01.01.01.03.03 0 01.005.01l.05.18zm.17-.2c.007.005.01.012.01.016l-.002.009a.04.04 0 01.007-.013.05.05 0 01.01-.01h.002-.028v-.001z" fill="#FFD600"/><path fill-rule="evenodd" clip-rule="evenodd" d="M4.945 9.751l-.004.064h-.178v-.011c.003 0 .007 0 .012-.002.005 0 .008 0 .01-.002a.01.01 0 00.006-.005.02.02 0 00.003-.01v-.154a.02.02 0 00-.002-.009.013.013 0 00-.007-.006.048.048 0 00-.011-.003l-.01-.002V9.6h.165v.052h-.011a.064.064 0 00-.014-.025c-.006-.008-.013-.013-.019-.014h-.059v.084h.024c.008 0 .013 0 .017-.002a.027.027 0 00.01-.007.034.034 0 00.005-.012l.003-.014h.011v.084h-.01a.073.073 0 00-.01-.027.02.02 0 00-.01-.007.054.054 0 00-.016-.002h-.024v.08c.002.003.003.006.006.008a.02.02 0 00.011.004h.046a.113.113 0 00.012-.002.02.02 0 00.009-.005.096.096 0 00.014-.022.24.24 0 00.01-.021h.01z" fill="#FFD600"/><path d="M4.95 9.823h-.195v-.028h.008l.011-.001.008-.002a.004.004 0 00.002-.002v-.165l-.002-.002a.047.047 0 00-.01-.003l-.01-.001h-.007V9.59h.183v.069H4.91l-.002-.006a.054.054 0 00-.011-.022c-.007-.008-.011-.01-.014-.01l-.01-.001h-.04v.067h.016l.014-.001a.015.015 0 00.005-.005.029.029 0 00.005-.009l.003-.012v-.008h.028v.102h-.028v-.008a.055.055 0 00-.008-.023c-.002-.002-.004-.004-.006-.004a.056.056 0 00-.014-.002h-.015v.056l.001.013c0 .003.002.003.002.004l.007.002h.045c.003 0 .007 0 .01-.002.004 0 .005-.002.005-.002a.079.079 0 00.013-.02.108.108 0 00.01-.02v-.007h.027l-.005.08zm-.041-.017h.024l.002-.035-.003.006a.111.111 0 01-.016.024.018.018 0 01-.007.005zm-.116 0h.036l-.002-.001a.025.025 0 01-.008-.014.067.067 0 01-.002-.017v-.165h-.028a.021.021 0 01.01.01.027.027 0 01.003.012v.154c0 .005 0 .01-.003.014a.02.02 0 01-.006.007zm.076-.103c.005.002.01.006.014.01a.031.031 0 01.005.009v-.037l-.005.008a.033.033 0 01-.013.01zm.029-.094l.014.013.008.013V9.61h-.022z" fill="#FFD600"/><path fill-rule="evenodd" clip-rule="evenodd" d="M5.26 9.658h-.01a.154.154 0 00-.013-.027.057.057 0 00-.01-.012.023.023 0 00-.01-.006h-.012l-.013-.001h-.01v.171c0 .004.002.007.003.01a.014.014 0 00.007.006l.012.003.013.002v.01h-.1v-.01l.012-.001c.006 0 .01-.002.012-.003a.014.014 0 00.007-.005.018.018 0 00.003-.01v-.173H5.13l-.013.001c-.003 0-.007.003-.01.007a.102.102 0 00-.01.012l-.008.014c-.003.005-.004.01-.005.013h-.01V9.6h.186v.058z" fill="#FFD600"/><path d="M5.226 9.823h-.119v-.028h.008a.09.09 0 00.013-.001l.01-.002a.011.011 0 00.003-.002.01.01 0 000-.005V9.62h-.01l-.013.002s-.002 0-.005.003a.082.082 0 00-.009.011l-.007.014a.048.048 0 00-.005.01l-.002.007h-.026V9.59h.204v.076h-.026l-.001-.007a.08.08 0 00-.012-.025.043.043 0 00-.009-.01l-.006-.004H5.19v.163l.001.005c0 .001.001.002.003.002l.01.003.012.002h.008v.028zm-.077-.017h.038a.025.025 0 01-.01-.01.028.028 0 01-.003-.013V9.61h-.015v.176c0 .005-.001.01-.004.014a.02.02 0 01-.006.007zm-.067-.197v.03a.085.085 0 01.018-.026l.005-.004h-.023zm.146 0l.005.004a.126.126 0 01.011.013.352.352 0 01.008.013v-.03h-.024z" fill="#FFD600"/><path fill-rule="evenodd" clip-rule="evenodd" d="M5.503 9.815h-.057l-.035-.053a1.224 1.224 0 00-.033-.045h-.022v.068l.001.01a.013.013 0 00.007.006l.01.002a.37.37 0 01.012.001v.011h-.09v-.01l.01-.002a.03.03 0 00.01-.002.015.015 0 00.006-.006.022.022 0 00.002-.01V9.63c0-.003 0-.006-.002-.009 0-.003-.003-.004-.007-.006a.084.084 0 00-.01-.003l-.01-.001V9.6h.099a.1.1 0 01.025.003.066.066 0 01.022.009.054.054 0 01.015.015.045.045 0 01.005.024.05.05 0 01-.015.039.08.08 0 01-.016.01.103.103 0 01-.02.009l.025.035.026.035a.066.066 0 00.023.02.028.028 0 00.01.003l.01.002v.01zm-.08-.16a.042.042 0 00-.01-.031.043.043 0 00-.032-.012h-.026v.092h.02a.049.049 0 00.034-.013.046.046 0 00.015-.036z" fill="#FFD600"/><path d="M5.512 9.823h-.071l-.003-.004a1.004 1.004 0 00-.034-.052l-.03-.042h-.01v.066l.003.001.007.001.01.001h.01v.029h-.109v-.027l.008-.001h.01l.008-.002.002-.002.001-.006v-.161l-.003-.001-.008-.002a.043.043 0 00-.01-.001h-.007v-.028h.107c.01 0 .019 0 .028.003a.078.078 0 01.024.01.06.06 0 01.018.018.054.054 0 01.006.028.066.066 0 01-.004.025.053.053 0 01-.014.02.076.076 0 01-.029.017l.02.026.025.035.01.012.01.006.007.002.01.001h.007v.028h.001zm-.061-.017h.026a.063.063 0 01-.023-.021l-.026-.035-.026-.036-.004-.005a.048.048 0 01-.014.003 1.117 1.117 0 01.067.094zm-.128 0h.033a.017.017 0 01-.006-.008.031.031 0 01-.003-.013v-.177h-.024a.02.02 0 01.008.01.04.04 0 01.002.012v.155c0 .005-.002.01-.004.014a.024.024 0 01-.006.007zm.085-.196a.051.051 0 01.011.008.05.05 0 01.014.036.056.056 0 01-.017.043l.01-.004a.061.061 0 00.015-.01.036.036 0 00.009-.014.052.052 0 00.003-.019.036.036 0 00-.017-.032.058.058 0 00-.018-.008h-.01zm-.044.085h.012a.04.04 0 00.028-.01.04.04 0 00.012-.03c0-.011-.003-.02-.01-.025-.005-.006-.013-.009-.025-.009h-.017v.074z" fill="#FFD600"/><path fill-rule="evenodd" clip-rule="evenodd" d="M5.727 9.61l-.012.002a.044.044 0 00-.014.005.035.035 0 00-.007.015.157.157 0 00-.002.026v.094a.06.06 0 01-.007.03.065.065 0 01-.02.022.091.091 0 01-.05.015.112.112 0 01-.034-.004.078.078 0 01-.026-.014.063.063 0 01-.015-.02.057.057 0 01-.005-.023V9.63a.02.02 0 00-.002-.009.016.016 0 00-.007-.006.042.042 0 00-.01-.004l-.01-.001V9.6h.09v.01l-.01.002a.185.185 0 00-.01.002.012.012 0 00-.007.006.022.022 0 00-.002.01v.118c0 .006 0 .012.002.018a.047.047 0 00.007.018.05.05 0 00.016.013.063.063 0 00.028.006.06.06 0 00.028-.006.05.05 0 00.018-.013.051.051 0 00.009-.017.066.066 0 00.002-.018V9.66c0-.011 0-.02-.002-.028a.03.03 0 00-.007-.014.037.037 0 00-.015-.006.217.217 0 00-.014-.002V9.6h.088v.01z" fill="#FFD600"/><path d="M5.615 9.828a.126.126 0 01-.037-.005.096.096 0 01-.028-.015.064.064 0 01-.024-.05v-.131l-.004-.003a.044.044 0 00-.007-.003l-.009-.001-.008-.001V9.59h.107v.028h-.009a.05.05 0 00-.01.002.036.036 0 00-.007.002l-.002.001v.124l.001.017c0 .005.003.01.006.014a.037.037 0 00.013.01.052.052 0 00.024.005c.01 0 .018-.002.024-.004a.037.037 0 00.015-.012.058.058 0 00.007-.014.049.049 0 00.002-.015V9.66c0-.01 0-.02-.002-.026-.001-.007-.004-.008-.004-.008a.059.059 0 00-.024-.007h-.007v-.028h.105v.028h-.009a.061.061 0 00-.02.006s-.003.001-.004.009a.141.141 0 00-.002.025v.093a.075.075 0 01-.008.035.074.074 0 01-.022.025.085.085 0 01-.028.013l-.029.002zm-.084-.22a.024.024 0 01.01.01.028.028 0 01.002.013v.127a.05.05 0 00.005.02.049.049 0 00.013.016c.005.005.013.01.022.012a.102.102 0 00.026.005.056.056 0 01-.04-.022.05.05 0 01-.008-.021.117.117 0 01-.003-.02V9.63c0-.005.001-.01.003-.013a.022.022 0 01.007-.009H5.53zm.136 0l.006.004c.005.003.008.01.01.02l.002.006.001-.008c.002-.01.005-.016.01-.02H5.7h-.033z" fill="#FFD600"/><path fill-rule="evenodd" clip-rule="evenodd" d="M5.886 9.716c.005.005.008.01.01.017a.062.062 0 01.003.02.06.06 0 01-.02.047.077.077 0 01-.052.018.104.104 0 01-.053-.015l-.007.01h-.013l-.002-.073h.012c.003.01.005.018.009.025a.09.09 0 00.013.02.056.056 0 00.043.02c.007 0 .013 0 .018-.003a.03.03 0 00.012-.007.03.03 0 00.008-.012.045.045 0 00-.005-.04.047.047 0 00-.022-.016 1.126 1.126 0 01-.022-.01.093.093 0 01-.022-.008.072.072 0 01-.029-.021.056.056 0 01-.01-.035.056.056 0 01.02-.042.072.072 0 01.072-.012.125.125 0 01.02.01l.007-.01h.012l.001.071h-.012a.19.19 0 00-.007-.023.087.087 0 00-.011-.02.048.048 0 00-.039-.02.035.035 0 00-.024.01.03.03 0 00-.01.022c0 .01.002.017.006.023.005.006.01.01.02.015l.02.01a.315.315 0 01.04.016.12.12 0 01.014.013z" fill="#FFD600"/><path d="M5.826 9.828a.116.116 0 01-.05-.013l-.005.008h-.025l-.003-.09h.028l.002.006a.138.138 0 00.008.023.082.082 0 00.012.018.045.045 0 00.036.016l.016-.001a.024.024 0 00.009-.006.017.017 0 00.005-.008.04.04 0 00.002-.013.035.035 0 00-.006-.02.037.037 0 00-.017-.013l-.022-.008a.353.353 0 01-.023-.01.085.085 0 01-.032-.023.064.064 0 01-.011-.04.064.064 0 01.022-.049.07.07 0 01.023-.013.085.085 0 01.073.007l.004-.007h.026l.001.088h-.027l-.002-.006a.288.288 0 00-.007-.023.085.085 0 00-.01-.018.037.037 0 00-.031-.015.026.026 0 00-.019.007.02.02 0 00-.007.016.03.03 0 00.005.018.042.042 0 00.015.012.28.28 0 00.043.017.154.154 0 01.018.01.087.087 0 01.017.013.049.049 0 01.011.02.068.068 0 01.004.023.07.07 0 01-.024.054.094.094 0 01-.059.02zm-.056-.036l.007.004c.005.003.01.006.017.008a.075.075 0 01-.014-.012.094.094 0 01-.014-.022l-.004-.01.001.044.007-.012zm.016-.176l-.003.002a.046.046 0 00-.016.036.05.05 0 00.008.03.066.066 0 00.025.018.22.22 0 00.022.009.322.322 0 01.022.009.053.053 0 01.032.067l-.005.009.002-.001a.051.051 0 00.018-.04.046.046 0 00-.012-.032.06.06 0 00-.012-.01c-.005-.004-.01-.006-.016-.009l-.02-.008-.023-.01a.047.047 0 01-.03-.046c0-.01.003-.017.008-.024zm.072-.003a.087.087 0 01.009.01.097.097 0 01.012.022l.002.007v-.041l-.008.012-.007-.005-.008-.005z" fill="#FFD600"/><path fill-rule="evenodd" clip-rule="evenodd" d="M6.117 9.658h-.01a.156.156 0 00-.013-.027.057.057 0 00-.01-.012.023.023 0 00-.01-.006h-.012l-.013-.001h-.01v.171c0 .004.002.007.003.01a.014.014 0 00.007.006l.012.003.013.002v.01h-.1v-.01l.012-.001c.006 0 .01-.002.012-.003a.014.014 0 00.007-.005.018.018 0 00.003-.01v-.173h-.02l-.014.001c-.003 0-.006.003-.01.007a.102.102 0 00-.01.012l-.008.014-.005.013h-.01V9.6h.186v.058z" fill="#FFD600"/><path d="M6.084 9.823h-.119v-.028h.008a.09.09 0 00.013-.001l.01-.002a.011.011 0 00.003-.002v-.17h-.01l-.013.002s-.002 0-.005.003a.082.082 0 00-.016.025.048.048 0 00-.005.01l-.001.007h-.026V9.59h.204v.076H6.1l-.002-.007a.078.078 0 00-.012-.025.043.043 0 00-.014-.014H6.05v.168l.004.002.01.003.011.002h.009v.028zm-.077-.017h.038a.025.025 0 01-.01-.01.03.03 0 01-.003-.013V9.61h-.015v.176c0 .005-.001.01-.004.014a.02.02 0 01-.006.007zm-.067-.197v.03a.085.085 0 01.018-.026l.005-.004H5.94zm.146 0l.005.004a.09.09 0 01.019.026v-.03h-.024zM4.66 7.099s.028.009.028.05c.023-.004.032.008.028.037 0 0-.028-.007-.033.009-.006.018-.001.033.016.045 0 0 .029.022.047-.02l.024-.06c.005-.015.035-.053.063-.058a.051.051 0 01.032 0s.023.004.024.024c.001.02-.007.029-.02.035-.016.006-.034-.008-.034-.008-.006-.001-.008.001-.012.004a.064.064 0 00-.014.019s-.014.028-.02.05c-.005.016-.016.067-.068.075H4.6c-.052-.007-.063-.059-.068-.076l-.02-.05a.072.072 0 00-.014-.018c-.003-.003-.005-.005-.012-.004 0 0-.018.014-.033.008-.014-.006-.022-.015-.021-.035 0-.02.024-.025.024-.025a.051.051 0 01.032.001c.027.005.057.043.062.059l.025.058c.018.043.047.02.047.02.017-.011.023-.026.016-.044-.005-.016-.033-.009-.033-.009-.005-.029.005-.041.028-.037 0-.041.027-.05.027-.05z" fill="#FFD600"/><path fill-rule="evenodd" clip-rule="evenodd" d="M4.812 8.493h-.295l.035-1.153h.227l.033 1.153z" fill="#FFD600"/><path d="M4.859 8.538h-.388l.037-1.243h.315l.036 1.243zm-.295-.09h.203l-.031-1.063h-.14l-.032 1.063z" fill="#002D56"/><path fill-rule="evenodd" clip-rule="evenodd" d="M4.81 9.135h-.313V8.61h.314v.524z" fill="#FFD600"/><path d="M4.857 9.18h-.404v-.614h.404v.614zm-.314-.09h.224v-.434h-.224v.434z" fill="#002D56"/><path d="M4.492 8.551h.318c.022 0 .04.014.04.03 0 .017-.018.03-.04.03h-.318c-.022 0-.04-.013-.04-.03 0-.016.018-.03.04-.03z" fill="#FFD600"/><path d="M4.81 8.657h-.318c-.048 0-.085-.033-.085-.075 0-.042.038-.075.085-.075h.318c.048 0 .085.033.085.075 0 .041-.037.075-.085.075z" fill="#002D56"/><path fill-rule="evenodd" clip-rule="evenodd" d="M4.516 8.495h.278c.02 0 .036.012.036.028s-.016.028-.036.028h-.278c-.02 0-.036-.012-.036-.028s.016-.028.036-.028z" fill="#FFD600"/><path d="M4.794 8.596h-.278c-.044 0-.08-.033-.08-.073 0-.04.036-.073.08-.073h.278c.044 0 .08.033.08.073 0 .04-.036.073-.08.073zM4.78 9.1h-.258v-.436h.258v.435zm-.167-.09h.077v-.256h-.077v.255z" fill="#002D56"/><path d="M4.565 7.3h.192c.016 0 .03.01.03.02 0 .013-.014.022-.03.022h-.192c-.016 0-.029-.01-.029-.021 0-.011.013-.021.029-.021z" fill="#FFD600"/><path d="M4.757 7.368h-.193c-.03 0-.054-.02-.054-.047 0-.026.024-.046.054-.046h.193c.03 0 .054.02.054.046s-.023.047-.054.047z" fill="#002D56"/><path fill-rule="evenodd" clip-rule="evenodd" d="M3.081 9.197h3.198v.108H3.081v-.108z" fill="#FFD600"/><path d="M6.333 9.358H3.03v-.214h3.304v.214zm-3.197-.106h3.092V9.25H3.136v.002z" fill="#002D56"/><path d="M2.945 9.304H6.42v.114H2.945v-.114z" fill="#FFD600"/><path d="M6.45 9.45H2.913v-.178H6.45v.178zm-3.473-.064h3.41v-.05h-3.41v.05z" fill="#002D56"/><path fill-rule="evenodd" clip-rule="evenodd" d="M3.176 6.855h2.986v.067H3.176v-.067z" fill="#FFD600"/><path d="M6.213 6.805H3.126v.167h3.087v-.167z" fill="#002D56"/><path fill-rule="evenodd" clip-rule="evenodd" d="M5.6 6.853a1.013 1.013 0 00-.932-.63c-.418 0-.777.26-.932.63h-.37c.17-.57.69-.987 1.302-.987a1.37 1.37 0 011.303.987h-.37z" fill="#FFD600"/><path d="M5.6 6.88a.026.026 0 01-.024-.016.986.986 0 00-.908-.614.987.987 0 00-.908.614.026.026 0 01-.024.016h-.371a.026.026 0 01-.021-.01.026.026 0 01-.004-.024c.086-.284.262-.54.495-.72a1.353 1.353 0 011.666 0c.233.18.41.435.495.72a.025.025 0 01-.004.023.026.026 0 01-.02.01H5.6zm-2.2-.052h.319c.167-.383.538-.63.949-.63.411 0 .782.247.949.63h.319a1.352 1.352 0 00-1.268-.935c-.57 0-1.086.382-1.268.935z" fill="#002D56"/><path fill-rule="evenodd" clip-rule="evenodd" d="M3.257 6.922s.051.031.094.123h2.657s.043-.103.103-.123H3.257z" fill="#FFD600"/><path d="M3.33 7.077l-.008-.018c-.038-.08-.082-.109-.083-.11l-.093-.058H6.11l.01.062c-.038.012-.075.082-.085.105l-.008.02H3.331zm.003-.123a.42.42 0 01.038.06h2.617a.4.4 0 01.036-.06h-2.69z" fill="#002D56"/><path fill-rule="evenodd" clip-rule="evenodd" d="M3.916 7.07s.246.422.746.416a.945.945 0 00.746-.403l.132.196s.049.066-.046.149c-.334.294-.598.352-.832.35-.346-.018-.624-.135-.836-.35a.098.098 0 01-.034-.108l.124-.25z" fill="#FFD600"/><path d="M4.673 7.805h-.012c-.35-.02-.636-.14-.852-.357a.123.123 0 01-.04-.136V7.31l.124-.251a.026.026 0 01.045-.002c.003.004.245.409.724.404.474-.005.723-.386.725-.39a.026.026 0 01.022-.012c.01 0 .017.004.022.011l.132.195c.021.03.038.106-.05.184-.357.313-.635.357-.84.357zm-.01-.052c.196.001.466-.037.815-.345.076-.066.043-.114.042-.114v-.001l-.111-.164a.96.96 0 01-.746.383h-.01c-.412 0-.657-.285-.733-.391l-.103.209c-.009.028.001.057.027.078l.002.002c.206.209.48.324.817.343z" fill="#002D56"/><path d="M3.939 7.402l-.047-.024c-.047-.024-.066-.024-.071-.023v.004l-.067.011a.071.071 0 01.026-.07c.026-.019.062-.014.095-.003l.008-.227.068.002-.012.33zm1.463.021l-.028-.335.068-.005.014.17a.09.09 0 01.056-.016c.02.001.049.013.068.056l-.061.028c-.006-.013-.011-.017-.012-.017-.01 0-.035.02-.051.043l-.054.076z" fill="#002D56"/><path d="M3.336 7.05h2.671c.01 0 .017.008.017.018v.006c0 .01-.007.018-.017.018h-2.67a.017.017 0 01-.018-.018v-.006c0-.01.008-.018.017-.018z" fill="#FFD600"/><path d="M6.008 7.118H3.337a.044.044 0 01-.044-.044v-.006c0-.025.02-.045.044-.045h2.67c.025 0 .044.02.044.045v.006c0 .025-.02.044-.043.044z" fill="#002D56"/><path d="M3.573 7.095h.001s.027.01.027.05c.023-.003.033.01.028.038 0 0-.028-.007-.033.009-.006.018-.001.033.016.045 0 0 .029.023.047-.02l.025-.06c.005-.015.035-.052.062-.058a.051.051 0 01.032 0s.023.004.024.024c.001.02-.007.029-.02.035-.016.006-.034-.008-.034-.008a.016.016 0 00-.012.004.064.064 0 00-.014.019s-.013.028-.02.05c-.005.017-.016.067-.068.075h-.121c-.052-.007-.063-.058-.068-.076a.477.477 0 00-.02-.05.072.072 0 00-.014-.018c-.003-.003-.005-.005-.012-.004 0 0-.018.014-.033.008-.014-.006-.022-.015-.021-.035 0-.02.024-.025.024-.025a.051.051 0 01.032.001c.028.006.058.043.063.059l.024.058c.018.044.047.02.047.02.017-.011.023-.026.016-.044-.005-.016-.033-.009-.033-.009-.004-.029.005-.041.028-.037 0-.041.027-.05.027-.05h.001z" fill="#FFD600"/><path fill-rule="evenodd" clip-rule="evenodd" d="M3.721 8.493h-.295l.039-1.153h.218l.038 1.153z" fill="#FFD600"/><path d="M3.768 8.538h-.39l.043-1.243h.306l.04 1.243zm-.296-.09h.203L3.64 7.385h-.132l-.036 1.063z" fill="#002D56"/><path fill-rule="evenodd" clip-rule="evenodd" d="M3.73 9.135h-.313V8.61h.314v.524z" fill="#FFD600"/><path d="M3.776 9.18h-.404v-.614h.404v.614zm-.314-.09h.224v-.434h-.224v.434z" fill="#002D56"/><path fill-rule="evenodd" clip-rule="evenodd" d="M3.415 8.551h.318c.022 0 .04.014.04.03 0 .017-.018.03-.04.03h-.318c-.022 0-.04-.013-.04-.03 0-.016.018-.03.04-.03z" fill="#FFD600"/><path d="M3.732 8.657h-.318c-.048 0-.085-.033-.085-.075 0-.022.01-.043.03-.058a.092.092 0 01.055-.018h.318c.048 0 .085.033.085.075 0 .042-.037.076-.085.076z" fill="#002D56"/><path fill-rule="evenodd" clip-rule="evenodd" d="M3.435 8.495h.278c.02 0 .036.012.036.028s-.016.028-.036.028h-.278c-.02 0-.036-.012-.036-.028s.016-.028.036-.028z" fill="#FFD600"/><path d="M3.713 8.596h-.278c-.044 0-.08-.033-.08-.073 0-.04.036-.073.08-.073h.278c.044 0 .08.033.08.073 0 .04-.036.073-.08.073zm-.01.504h-.258v-.436h.258v.435zm-.168-.09h.078v-.256h-.078v.255z" fill="#002D56"/><path d="M3.477 7.305h.192c.016 0 .03.009.03.02 0 .012-.014.021-.03.021h-.192c-.016 0-.029-.009-.029-.02 0-.012.013-.021.029-.021z" fill="#FFD600"/><path d="M3.67 7.372h-.193c-.03 0-.054-.02-.054-.047 0-.026.024-.046.054-.046h.193c.03 0 .055.02.055.046 0 .027-.024.047-.055.047z" fill="#002D56"/><path fill-rule="evenodd" clip-rule="evenodd" d="M3.35 9.136h.447v.06H3.35v-.06z" fill="#FFD600"/><path d="M3.819 9.218h-.49v-.104h.49v.104zm-.448-.043h.404v-.018h-.404v.018z" fill="#002D56"/><path d="M5.764 7.099s.027.009.027.05c.024-.004.033.008.029.037 0 0-.028-.007-.033.009-.006.018-.001.033.016.045 0 0 .028.022.047-.02l.024-.06c.005-.015.035-.053.063-.058a.051.051 0 01.032 0s.023.004.024.024c.001.02-.007.029-.02.035-.016.006-.034-.008-.034-.008-.006-.001-.008.001-.013.004a.064.064 0 00-.013.019s-.014.028-.02.05c-.005.016-.016.067-.068.075h-.122c-.052-.007-.063-.059-.068-.076a.477.477 0 00-.02-.05.072.072 0 00-.013-.018c-.004-.003-.006-.005-.013-.004 0 0-.018.014-.033.008-.013-.006-.022-.015-.02-.035 0-.02.024-.025.024-.025a.051.051 0 01.031.001c.028.005.058.043.063.059l.025.058c.018.043.047.02.047.02.017-.011.022-.026.015-.044-.005-.016-.032-.009-.032-.009-.005-.029.005-.041.028-.037 0-.041.027-.05.027-.05z" fill="#FFD600"/><path fill-rule="evenodd" clip-rule="evenodd" d="M5.918 8.493h-.295l.04-1.153h.218l.037 1.153z" fill="#FFD600"/><path d="M5.965 8.538h-.389l.043-1.243h.305l.04 1.243zm-.295-.09h.202l-.035-1.063h-.131L5.67 8.448z" fill="#002D56"/><path fill-rule="evenodd" clip-rule="evenodd" d="M5.934 9.135h-.313l-.004-.524h.317v.524z" fill="#FFD600"/><path d="M5.98 9.18h-.404l-.004-.614h.408v.614zm-.314-.09h.224v-.434h-.227l.003.434z" fill="#002D56"/><path d="M5.618 8.551h.318c.022 0 .04.014.04.03 0 .017-.018.03-.04.03h-.318c-.022 0-.04-.013-.04-.03 0-.016.018-.03.04-.03z" fill="#FFD600"/><path d="M5.936 8.657h-.318c-.048 0-.085-.033-.085-.075 0-.042.038-.075.085-.075h.318c.048 0 .085.033.085.075 0 .041-.037.075-.085.075z" fill="#002D56"/><path fill-rule="evenodd" clip-rule="evenodd" d="M5.634 8.495h.278c.02 0 .036.012.036.028s-.016.028-.036.028h-.278c-.02 0-.035-.012-.035-.028s.015-.028.035-.028z" fill="#FFD600"/><path d="M5.912 8.596h-.277c-.045 0-.081-.033-.081-.073 0-.04.036-.073.08-.073h.278c.045 0 .08.033.08.073 0 .04-.035.073-.08.073zm-.009.504h-.257v-.436h.257v.435zm-.167-.09h.077v-.256h-.077v.255z" fill="#002D56"/><path d="M5.673 7.3h.193c.016 0 .029.01.029.02 0 .013-.013.022-.03.022h-.192c-.016 0-.028-.01-.028-.021 0-.012.012-.021.028-.021z" fill="#FFD600"/><path d="M5.865 7.368h-.192c-.031 0-.055-.02-.055-.047 0-.026.024-.046.055-.046h.192c.031 0 .055.02.055.046s-.024.047-.055.047z" fill="#002D56"/><path fill-rule="evenodd" clip-rule="evenodd" d="M4.423 9.136h.447v.06h-.447v-.06z" fill="#FFD600"/><path d="M4.892 9.218h-.49v-.104h.49v.104zm-.447-.043h.403v-.018h-.403v.018z" fill="#002D56"/><path fill-rule="evenodd" clip-rule="evenodd" d="M2.764 8.318c-.076-.054-.157-.04-.157-.04s.058-.077.15-.039c.06.025.11.115.259.02.149-.095.206-.142.338-.187.135-.045.24-.054.272-.066.032-.011.081-.03.106-.18.006-.035.143.286.143.286s-.02.107-.152.167c-.131.06-.36.096-.487.198-.043.035-.125.095-.175.168-.118.172-.24.192-.24.192s.111-.097.141-.229c.006-.024-.003-.134.04-.178-.046.047-.164-.045-.149-.033.001 0-.013-.024-.09-.079z" fill="#FFD600"/><path d="M2.693 8.897l.102-.09s.102-.09.13-.208l.001-.024c.002-.028.003-.063.01-.096a.311.311 0 01-.103-.049h-.001l.005-.009-.008.007a.45.45 0 00-.088-.078c-.06-.043-.124-.033-.127-.033l-.096.016.058-.078a.167.167 0 01.197-.052.268.268 0 01.047.027c.043.03.081.056.175-.004.03-.018.055-.035.078-.05.099-.065.158-.104.269-.14.09-.031.168-.046.22-.055a.628.628 0 00.051-.011c.024-.009.06-.022.08-.15a.042.042 0 01.037-.036c.033-.004.048.027.068.066.013.024.03.058.05.101l.064.147.005.01-.002.012a.293.293 0 01-.175.195c-.05.022-.11.042-.174.061a.99.99 0 00-.304.132l-.02.015a.694.694 0 00-.148.144c-.126.184-.26.207-.266.208l-.135.022zm.282-.495l.056.056c-.022.022-.025.086-.026.12L3 8.618a.383.383 0 01-.024.07.651.651 0 00.051-.065.764.764 0 01.165-.161l.019-.015c.087-.07.216-.11.33-.145.062-.02.12-.037.165-.058a.232.232 0 00.127-.128 5.58 5.58 0 00-.086-.19c-.03.082-.07.104-.108.118-.014.005-.034.009-.064.015-.05.009-.124.023-.21.052-.1.034-.154.069-.25.131a4.89 4.89 0 01-.08.051c-.083.054-.143.056-.19.042a.268.268 0 01.034.034c.06.037.09.038.095.033z" fill="#002D56"/><path fill-rule="evenodd" clip-rule="evenodd" d="M5.607 7.828s.023.131.28.197.297.15.338.17c.042.02.15.097.265.058a.781.781 0 01.183-.042.332.332 0 01-.041.08c-.085.1-.118.116-.15.132-.068.035-.073.039-.123.042 0 0 .046.057.053.15.007.094.132.189.132.189s-.166-.043-.24-.142a.804.804 0 00-.237-.206c-.045-.021-.27-.099-.318-.118-.047-.018-.195-.096-.215-.22-.02-.126.073-.29.073-.29z" fill="#FFD600"/><path d="M6.536 8.842c-.008-.002-.181-.048-.262-.157a.778.778 0 00-.223-.194 4 4 0 00-.21-.078 3.482 3.482 0 01-.105-.038c-.01-.004-.213-.086-.24-.252-.022-.137.074-.307.078-.315l.055-.095.018.107c.002.005.031.11.25.167.204.052.278.115.322.153l.024.019.024.013c.049.026.13.071.212.044a1.82 1.82 0 01.107-.03c.077-.02.095-.02.112-.007l.006.005.004.006c.013.023.003.045-.017.08 0 0-.02.036-.028.046-.089.106-.125.124-.16.141l-.014.007c-.03.015-.048.024-.066.03.013.03.026.07.03.118.005.062.086.136.116.16l-.033.07zm-.925-.927a.402.402 0 00-.037.196c.016.102.143.172.19.191l.103.037c.106.038.19.068.218.082.05.024.176.113.253.217a.23.23 0 00.06.056.189.189 0 01-.024-.075.26.26 0 00-.044-.13l-.048-.059.076-.004c.038-.002.04-.003.096-.031l.013-.007c.028-.014.057-.029.135-.121 0-.002.002-.003.003-.004-.035.008-.075.02-.101.028-.116.039-.22-.019-.275-.05a.262.262 0 00-.02-.01.188.188 0 01-.041-.03c-.039-.034-.104-.09-.29-.137a.489.489 0 01-.267-.15zm.992.35z" fill="#002D56"/><path d="M3.176 7.929c-.174-.069-.12-.114-.12-.114.043-.077.098-.173.31-.255.285-.109.574-.06.496.066l-.128.212s-.034-.09-.188-.033c-.155.057-.203.081-.212.112-.014.047-.009.077.103.06-.073.025-.154-.001-.245-.042l-.016-.006z" fill="#FFD600"/><path d="M3.377 8.026a.517.517 0 01-.2-.054l-.015-.006c-.096-.038-.145-.076-.152-.12a.067.067 0 01.014-.054c.043-.078.104-.182.33-.268.22-.085.467-.084.54.003.027.034.029.078.003.12l-.129.211-.045.076-.025-.082c-.01-.02-.049-.043-.138-.01-.049.018-.18.066-.187.086l-.004.014a.228.228 0 00.063-.004l.019.077a.239.239 0 01-.074.01zm-.287-.191c.006.008.029.03.1.057l.018.008a.853.853 0 00.083.032.164.164 0 01.006-.026c.014-.049.069-.076.236-.138.1-.037.16-.02.195.005l.101-.166c.012-.019.006-.025.003-.029-.039-.046-.238-.062-.45.02-.202.077-.252.166-.291.237H3.09z" fill="#002D56"/><path d="M5.83 7.8a.446.446 0 01.119.058c.158.114.128.212.085.215-.05.003.309-.007.352-.03.043-.023.057-.049.031-.103-.025-.055-.22-.388-.538-.451-.318-.064-.445.07-.417.116.025.043.143.187.147.245.033-.061.106-.079.22-.05z" fill="#FFD600"/><path d="M6.046 8.107c-.029 0-.032-.002-.039-.008a.035.035 0 01-.01-.037c.005-.014.016-.022.033-.023.002-.001.005-.006.005-.015 0-.015-.008-.068-.106-.138a.406.406 0 00-.108-.053c-.096-.024-.157-.013-.182.033a.033.033 0 01-.037.017.033.033 0 01-.026-.03.7.7 0 00-.104-.175.843.843 0 01-.039-.056c-.014-.023-.01-.053.01-.082.05-.07.194-.134.443-.085.307.061.514.367.562.47.032.067.017.114-.046.147-.01.005-.032.018-.207.028-.08.005-.124.007-.149.007zm-.311-.354a.42.42 0 01.103.014.49.49 0 01.13.063c.128.092.138.17.133.207a1.78 1.78 0 00.27-.025c.026-.014.034-.02.016-.059-.002-.003-.187-.367-.515-.432-.23-.046-.33.018-.356.038-.018.014-.023.026-.024.03l.034.048c.04.055.075.105.096.147a.19.19 0 01.113-.031z" fill="#002D56"/><path fill-rule="evenodd" clip-rule="evenodd" d="M5.677 7.738l-.061-.088.016.096-.025.004-.028-.167.026-.004.08.111.04-.131.023-.004.028.167-.032.006-.016-.096-.033.104-.018.002zm.253-.063c-.005.026-.015.045-.03.056a.06.06 0 01-.05.01.06.06 0 01-.043-.03c-.009-.016-.01-.036-.005-.062l.002-.01a.102.102 0 01.028-.055c.014-.013.032-.017.053-.013a.055.055 0 01.043.033.09.09 0 01.004.061l-.001.01zm-.035-.01l.001-.005a.158.158 0 00.004-.046c0-.01-.008-.017-.02-.02-.012-.002-.02 0-.026.009a.14.14 0 00-.015.045l-.001.005a.15.15 0 00-.005.047c.002.01.009.015.022.018.01.002.018 0 .024-.01a.102.102 0 00.016-.043zm.171.083c-.013.024-.027.04-.043.046a.054.054 0 01-.05-.004l-.051-.029.08-.148.047.025c.02.012.032.026.035.044a.1.1 0 01-.015.06l-.003.006zm-.031-.019l.002-.004a.08.08 0 00.012-.042.028.028 0 00-.015-.025l-.012-.006-.056.104.014.008c.01.005.018.005.026.001.009-.004.018-.016.029-.036zm.123.026l-.031.032.034.034-.018.018-.034-.034-.033.035.047.046-.018.018-.073-.072.119-.12.07.068-.018.018-.045-.043zm.018.268l-.019-.031a.184.184 0 00.047-.037c.008-.01.009-.019.004-.027l-.004-.008-.066.039-.018-.031.146-.086.032.054c.008.014.01.025.007.034a.039.039 0 01-.017.022l-.008.004a.032.032 0 01-.024.005.04.04 0 01-.022-.017.046.046 0 01-.008.038.169.169 0 01-.05.04zm.082-.096l.004-.003c.006-.004.01-.008.011-.013 0-.004 0-.01-.004-.016l-.006-.01-.038.023.005.008c.004.007.008.012.013.013.005.002.01.001.015-.002zm-.54.304l-.03-.021.014-.04-.043-.032-.034.026-.023-.017.142-.105.028.02-.054.17zm-.008-.086l.02-.062-.05.04.03.022zm.196.015l-.031-.015-.063.13-.033-.016.063-.13-.032-.015.011-.023.096.047-.011.023zm.077.004l-.066.156-.033-.014.066-.156.033.014zm.129.156c-.011.024-.025.04-.042.047a.059.059 0 01-.052 0 .06.06 0 01-.035-.039.09.09 0 01.008-.063l.004-.008a.099.099 0 01.04-.048.057.057 0 01.055-.001c.02.009.03.022.034.041.004.019 0 .04-.009.061l-.003.01zm-.033-.018l.002-.004a.154.154 0 00.014-.045c0-.01-.005-.018-.016-.023-.011-.005-.02-.004-.027.002a.134.134 0 00-.025.042l-.002.004a.146.146 0 00-.014.045c0 .01.005.017.016.022.01.004.019.003.027-.004a.1.1 0 00.025-.039zm.145.088l.05-.086.022.013-.085.146-.013-.008-.017-.132-.052.092-.023-.013.085-.147.017.01.016.125zM3.34 7.83l-.023.013-.125-.122.032-.019.079.078-.028-.109.022-.013.082.075-.032-.105.025-.015.049.168-.023.013-.085-.077.027.113zm.124-.24l.05.162-.035.01-.05-.161.035-.01zm.196.086c.002.018-.002.032-.012.042a.078.078 0 01-.045.02.124.124 0 01-.05 0l-.004-.03c.004.002.01.004.02.004h.026c.012-.002.02-.005.023-.008.004-.004.006-.01.004-.017a.02.02 0 00-.006-.013.085.085 0 00-.03-.011.068.068 0 01-.03-.016.05.05 0 01-.014-.03.042.042 0 01.011-.035.066.066 0 01.041-.02c.01-.001.018-.002.025-.001l.015.002.004.025-.019-.001a.1.1 0 00-.02 0 .046.046 0 00-.02.008c-.003.004-.005.008-.004.012.001.006.003.01.007.013a.111.111 0 00.03.01c.015.003.026.01.033.017a.052.052 0 01.014.03zm.522-.115a.042.042 0 01-.023.021c-.01.004-.021.002-.035-.005a.1.1 0 01-.017-.01.04.04 0 01-.01-.01l.012-.023a.07.07 0 00.02.015.017.017 0 00.012.002c.004-.001.007-.004.01-.01l.057-.112.033.016-.06.116zm.183.068a.05.05 0 01-.027.03c-.012.005-.027.004-.045-.003-.02-.008-.031-.018-.037-.03-.005-.012-.004-.027.003-.045l.04-.106.034.013-.042.11a.034.034 0 00-.002.022c.002.006.007.01.016.014.009.003.016.003.021.001.006-.002.01-.008.014-.018l.043-.11.025.01-.043.112zm.178.036a.052.052 0 01-.021.038c-.013.007-.029.01-.049.007a.139.139 0 01-.047-.014l.004-.028.017.01a.091.091 0 00.025.005c.012.002.02.001.025-.002.005-.003.008-.008.009-.015 0-.005 0-.01-.004-.014a.083.083 0 00-.025-.018.074.074 0 01-.025-.023.05.05 0 01-.005-.033.041.041 0 01.02-.03.065.065 0 01.044-.009.125.125 0 01.039.011l-.004.026a.148.148 0 00-.036-.01c-.01-.002-.017-.001-.021.002a.015.015 0 00-.008.01.019.019 0 00.003.015.123.123 0 00.026.017.064.064 0 01.028.024c.005.01.007.02.005.031zm.167-.084h-.035l-.003.144h-.036l.002-.145h-.035v-.026l.107.001v.026zm.098-.034l.02.168-.035.004-.02-.168.035-.004zm.202.117a.038.038 0 01-.01.009.108.108 0 01-.022.01.072.072 0 01-.056-.006.088.088 0 01-.038-.053l-.002-.007a.088.088 0 01.002-.064.068.068 0 01.043-.038.158.158 0 01.023-.005h.014l.008.026H4.96a.079.079 0 00-.018.003.035.035 0 00-.025.024.079.079 0 00.003.045v.002c.006.02.014.033.023.04.01.007.02.01.032.006a.072.072 0 00.03-.017l.007.025zm.05-.179l.02.04.043-.021.012.023-.043.021.022.043.059-.03.011.022-.09.046-.077-.15.087-.045.01.023-.054.028zm-1.78.806c.014.024.02.044.017.061a.057.057 0 01-.03.04l-.052.028-.082-.148.046-.025c.021-.012.04-.014.056-.006s.03.023.042.045l.004.005zm-.032.017l-.002-.004a.082.082 0 00-.029-.033c-.01-.006-.02-.006-.028-.001l-.012.007.057.103.015-.008a.026.026 0 00.015-.021.093.093 0 00-.016-.043zm.185-.08c.01.024.013.045.007.063a.06.06 0 01-.035.038.06.06 0 01-.053-.001.092.092 0 01-.04-.049l-.003-.009a.101.101 0 01-.008-.062.058.058 0 01.036-.04.055.055 0 01.054.002.1.1 0 01.039.049l.003.009zM3.4 8.24l-.002-.005a.162.162 0 00-.023-.04c-.007-.008-.017-.01-.028-.005s-.016.012-.017.022c0 .01.005.025.013.046l.002.004c.01.021.017.036.023.042.007.007.016.008.028.003a.023.023 0 00.015-.022.11.11 0 00-.011-.045zm.166.03l-.077-.075.034.091-.024.009-.058-.16.025-.008.1.095.015-.137.022-.008.058.159-.032.011-.033-.091-.013.108-.017.006zm.223-1.675a.055.055 0 01-.005.016.11.11 0 01-.013.023.086.086 0 01-.054.038c-.022.004-.046-.003-.07-.02l-.007-.005a.095.095 0 01-.042-.058.081.081 0 01.015-.065.164.164 0 01.016-.02.066.066 0 01.014-.012l.024.017a.094.094 0 00-.027.025.041.041 0 00-.005.04.085.085 0 00.033.039l.002.002c.018.012.034.019.047.018a.038.038 0 00.032-.018.09.09 0 00.012-.02l.004-.017.024.017zm.091-.227c.02.02.032.042.034.063a.072.072 0 01-.022.056.07.07 0 01-.056.024c-.021 0-.042-.011-.063-.031l-.008-.008a.107.107 0 01-.034-.06.068.068 0 01.022-.06c.018-.018.037-.026.059-.023a.111.111 0 01.06.032l.008.007zm-.032.03l-.003-.004a.164.164 0 00-.042-.032c-.01-.005-.021-.002-.032.009-.01.01-.012.02-.008.03.004.01.015.024.034.042l.003.004a.16.16 0 00.042.032c.01.004.02 0 .03-.01a.029.029 0 00.008-.03.114.114 0 00-.032-.041zm.199-.145l-.065-.09.025-.018.11.152-.015.01-.145-.04.07.096-.025.018-.11-.152.018-.013.137.037zm.235-.095c.009.018.009.034.001.048a.095.095 0 01-.044.036.192.192 0 01-.032.013.12.12 0 01-.024.004L4.17 6.23c.005 0 .013 0 .023-.002a.165.165 0 00.03-.01c.012-.005.02-.01.023-.016.003-.006.002-.012 0-.02a.022.022 0 00-.012-.01.1.1 0 00-.036-.002.084.084 0 01-.038-.006.052.052 0 01-.026-.028.044.044 0 01.002-.04.08.08 0 01.04-.036.139.139 0 01.044-.013l.012.026a.197.197 0 00-.042.013.042.042 0 00-.02.015.015.015 0 00-.002.015c.003.006.007.01.012.011a.127.127 0 00.036 0 .077.077 0 01.042.006c.01.004.019.013.024.025zm.162-.156l-.04.01.042.155-.04.01-.042-.154-.04.011-.008-.027.121-.032.007.027zm.111-.042l.042-.002.013.187-.042.003-.013-.188zm.267.033l-.04-.003-.011.16-.042-.003.01-.16-.04-.002.001-.028.125.008-.003.028zm.206.161A.053.053 0 015 6.19c-.013.006-.03.006-.053 0-.023-.007-.039-.018-.046-.031-.007-.013-.007-.03-.001-.05l.037-.121.04.012-.038.126c-.003.01-.003.018 0 .024.003.006.01.011.02.014.01.003.02.004.025 0 .007-.002.012-.01.015-.02l.038-.125.03.009-.04.127zm.236-.011l-.036-.02-.073.143-.038-.019.073-.142-.037-.02.013-.025.11.057-.012.026zm.104.033l.034.025-.11.151-.034-.025.11-.151zm.164.274a.093.093 0 01-.063.034.072.072 0 01-.055-.023.072.072 0 01-.023-.056c0-.021.011-.042.032-.062l.008-.008c.019-.02.04-.03.06-.033.023-.003.042.005.06.023.018.018.026.037.022.059a.108.108 0 01-.033.06l-.008.007zm-.028-.031l.004-.004a.16.16 0 00.032-.04c.005-.012.002-.022-.008-.033-.01-.01-.02-.013-.03-.01a.141.141 0 00-.043.034l-.003.003a.156.156 0 00-.034.042c-.003.01 0 .02.01.03.009.009.018.012.03.008a.102.102 0 00.042-.03zm.146.195l.09-.065.017.024-.152.11-.01-.014.04-.145-.096.07-.018-.025.153-.11.013.018-.038.137z" fill="#002D56"/><path fill-rule="evenodd" clip-rule="evenodd" d="M5.27 7.981s.011-.011.015-.003c.003.009.004.016 0 .019l-.006.01c-.004.005-.002.008-.006.01-.004.003-.006.002-.01.002l-.002.013-.003.01.002.011.008.017-.006-.013.008.014c.005.016.062.031.083.04.043.02.036.11.04.12.005.009.023.13.023.15 0 .02-.023.129-.025.152l-.006.065c0 .005-.009-.002-.011.003a.078.078 0 00-.002.031l-.006.03c-.002.025-.025.028-.025.028s-.001.084-.006.105c-.004.02-.007.024 0 .08.006.056-.01.126-.01.126l-.027.119c-.005.015.002.03.005.041.002.011.002.03.002.03h-.198c-.005 0 .003-.019.01-.031a.038.038 0 01.026-.017c.013-.002.015-.017.022-.035.008-.018.005-.056-.002-.08a.583.583 0 01-.015-.101.4.4 0 00-.023-.098.526.526 0 01-.017-.107.04.04 0 00-.004-.013c-.003-.008-.004-.02-.01-.037-.011-.032-.01-.07-.011-.102a.193.193 0 00-.02-.077l-.003-.014-.034.01-.034.027c-.007.007-.015.008-.03.009-.025.002-.052-.028-.058-.073-.006-.05.003-.07.058-.07h.056s.006.013-.003.017l-.013.005.012.014.027-.016.008-.018c0-.011.001-.014-.001-.026a.676.676 0 01-.005-.157c.002-.018.002-.057.01-.074.011-.02.069-.03.069-.03s.025-.003.028-.01a.24.24 0 01.01-.017c-.016-.006-.02-.025-.023-.03-.003-.005-.007-.029-.008-.03a.21.21 0 00-.009-.033c-.002-.009 0-.024 0-.024l-.018-.002-.022-.001-.016-.003a.15.15 0 00-.014-.004s-.017-.015 0-.027a.518.518 0 01.042-.025.012.012 0 00.004-.006v-.004a.11.11 0 01-.013-.032c-.005-.019.042-.026.042-.026.014-.001.06.005.056.004.01.002.016.001.034.001.019 0 .043.007.056.01a.058.058 0 01.034.028c.008.013.035.03.044.037a.251.251 0 01.033.047c.01.017-.001.013-.004.015-.016.009-.103-.01-.095-.01.006 0 .004-.001-.003-.005v.006l-.005.02-.004.005z" fill="#FFD600"/><path d="M5.315 9.199H5.11a.01.01 0 01-.01-.005c-.002-.005-.003-.01.012-.039a.045.045 0 01.032-.02c.005-.002.006-.005.011-.018l.005-.012c.007-.015.004-.052-.002-.075a.573.573 0 01-.017-.103.388.388 0 00-.022-.095.536.536 0 01-.017-.11l-.003-.01-.004-.014a.17.17 0 00-.006-.023.285.285 0 01-.011-.09V8.57a.19.19 0 00-.018-.073h-.001l-.002-.007-.024.007L5 8.522c-.009.008-.019.01-.034.011-.032.003-.061-.031-.068-.08-.003-.022-.004-.047.01-.063.01-.012.028-.018.057-.017h.061l.002.005c.001.002.005.01.002.019l-.002.004a.101.101 0 01.01-.005l.005-.014v-.023a1.286 1.286 0 01-.005-.159l.001-.015a.203.203 0 01.01-.063c.012-.023.065-.032.075-.034a.088.088 0 00.023-.006l.005-.01a.058.058 0 01-.018-.026l-.001-.003a.154.154 0 01-.007-.028v-.004l-.001-.001a.663.663 0 00-.008-.03.046.046 0 01-.002-.019l-.01-.001-.023-.002-.018-.003c-.001 0-.007-.003-.012-.003H5.05l-.002-.002c-.002 0-.012-.01-.011-.023 0-.005.002-.012.011-.018a.498.498 0 01.04-.024l.002-.002a.136.136 0 01-.012-.032.02.02 0 01.002-.015c.01-.015.04-.02.047-.022l.05.003.007.001v.009l.001-.009c.008.002.013.002.027.002h.006c.016 0 .035.004.049.007l.008.003c.018.003.033.019.04.032a.113.113 0 00.028.024.24.24 0 01.014.011.254.254 0 01.033.045l.002.003c.003.007.007.014.004.02s-.009.007-.012.007c-.016.008-.071-.001-.095-.007v.003l.005.007c.005.012.005.022 0 .027l-.002.003-.004.007a.012.012 0 00-.002.004c-.001.002-.002.006-.007.009a.02.02 0 01-.007.003v.005l-.003.01.001.007.002.004.008.013c.003.008.04.022.055.028l.023.008c.037.017.042.077.044.11l.001.014c.005.01.023.133.023.153a.967.967 0 01-.014.093c-.005.026-.01.05-.01.06l-.004.037-.003.028c0 .005-.003.007-.004.008-.003.002-.006.002-.008.002v.024l-.005.021-.001.01a.036.036 0 01-.025.032.79.79 0 01-.006.1v.006c-.004.015-.006.023 0 .072a.45.45 0 01-.01.13l-.027.118c-.003.01 0 .019.003.028a.186.186 0 01.005.04v.01zm-.197-.018h.18l-.002-.019a.08.08 0 00-.002-.008c-.003-.01-.007-.023-.003-.037C5.296 9.102 5.32 9 5.32 9s.015-.069.008-.123c-.006-.053-.004-.061 0-.078l.001-.006a.965.965 0 00.005-.103v-.008h.008a.02.02 0 00.018-.02c0-.003 0-.007.002-.011a.172.172 0 00.003-.018.088.088 0 01.003-.035.012.012 0 01.01-.007l.002-.022.004-.037.01-.061a.949.949 0 00.015-.09 1.326 1.326 0 00-.024-.168c-.002-.026-.006-.08-.034-.093l-.021-.01c-.035-.012-.06-.023-.066-.036l-.001-.002H5.26l-.006-.012-.002-.007-.002-.012.003-.012.003-.02h.012a.03.03 0 01.005-.008.016.016 0 00.003-.005l.003-.005v-.005h-.001l-.013-.011.004-.005.004-.016v-.02l.013.007a.024.024 0 01.008.006.257.257 0 00.08.008h.002v-.002l-.003-.003a.24.24 0 00-.03-.042.415.415 0 00-.012-.01C5.32 7.89 5.304 7.88 5.3 7.87c-.006-.012-.018-.022-.028-.024-.003 0-.006 0-.01-.002-.013-.003-.03-.007-.044-.007H5.21l-.03-.001h-.008a.493.493 0 00-.046-.004c-.01.001-.03.007-.034.014a.115.115 0 00.011.031l.001.002v.01c0 .002-.003.007-.008.01l-.003.002c-.007.004-.024.013-.038.023-.002.002-.004.003-.004.005 0 .003.002.006.003.007.004.001.01.002.013.004l.014.002.022.002.027.003-.001.009a.059.059 0 000 .02l.008.03v.002l.001.005a.222.222 0 00.006.024l.002.004c.002.006.007.018.017.022l.01.003-.005.01a.079.079 0 00-.01.016c-.005.01-.022.013-.035.014-.022.004-.056.014-.062.025-.006.012-.007.038-.008.056v.015a.727.727 0 00.004.154c.002.012.001.016.001.023v.007l-.01.022-.002.002a.296.296 0 00-.026.015l-.004-.006-.008.004-.022-.024L5 8.396l.01-.005h-.049c-.023 0-.036.003-.043.011-.007.009-.01.023-.006.049.006.038.028.067.05.066.012-.001.018-.002.024-.007l.035-.027.045-.015.005.022a.208.208 0 01.02.08v.016c.002.029.002.059.011.084.004.011.006.02.007.026a.05.05 0 00.003.01.042.042 0 01.004.017c0 .006.006.074.017.104.01.03.023.079.023.1 0 .02.008.076.015.1a.154.154 0 01.002.085.225.225 0 00-.005.012c-.005.013-.01.026-.024.028a.028.028 0 00-.02.013 1.037 1.037 0 01-.007.017z" fill="#FFD600"/><path d="M5.2 8.226l-.043-.002a.794.794 0 01.012-.109.06.06 0 01-.025-.02l.032-.027c.007.007.008.007.017.007h.013l.006.013a.042.042 0 01.002.028.628.628 0 00-.013.11zm-.071.506l-.052-.007.003-.025.002-.003c0-.002.002-.007.001-.017a.595.595 0 01.006-.12.494.494 0 01.031-.082.586.586 0 00.024-.06.871.871 0 00.003-.124l.052.002v.027l.001.006c0 .001 0 .075-.005.1a.429.429 0 01-.027.07.581.581 0 00-.028.071c-.005.03-.007.086-.005.105a.098.098 0 01-.005.042l-.001.015z" fill="#002D56"/><path d="M5.079 8.385l-.058-.003v-.019a1.278 1.278 0 01-.007-.106s0-.116.015-.143c.01-.02.045-.038.104-.052l.004-.006.007.004h.001l.042.025-.01.017a.029.029 0 01-.02.014.296.296 0 00-.077.026.84.84 0 00-.003.21c.003.014.003.02.002.029v.004zm.253.334l-.005-.016c-.02-.013-.02-.04-.02-.058-.001-.014-.002-.03-.007-.045l-.004-.002c-.005-.003-.012-.006-.018-.013a.615.615 0 01-.044-.075 1.185 1.185 0 00-.023-.04c-.024-.038-.025-.088-.026-.11v-.005l.051-.007v.01c.001.017.003.058.019.083l.024.044c.012.02.03.055.037.065l.003.001c.008.004.02.01.026.024.011.025.012.05.012.068l.001.017.01.002.013.04-.05.017zm-.1-.443l-.043-.001v-.018l.001-.002a.965.965 0 01.001-.134l.001-.014c0-.028.015-.034.027-.034.01 0 .032-.013.038-.018v.002l.034.025a.123.123 0 01-.055.032c0 .004 0 .01-.002.015a1.15 1.15 0 000 .12v.013l-.002.014z" fill="#002D56"/><path d="M5.385 8.624a.026.026 0 01-.017-.006c-.008-.007-.02-.014-.047-.008a.026.026 0 01-.032-.028l.01-.081v-.003l.006-.024.004-.024.002-.036-.002-.044-.005-.048-.016-.082-.01-.045a.026.026 0 01.018-.031.026.026 0 01.032.018l.011.045v.002l.017.083v.003l.006.05v.002l.001.045v.002l-.001.038v.003l-.005.027v.002l-.006.023-.006.048c.021 0 .04.008.056.021.012.01.013.026.004.037a.025.025 0 01-.02.01z" fill="#002D56"/><path d="M5.321 8.479l-.01-.006c-.157-.096-.224-.276-.247-.349v-.002l.007-.002-.008.001-.002-.008-.002-.018.023-.007c.002 0 .019-.004.028.012h.002l.001.005.001.004c.016.053.078.23.225.32l.01.005-.028.045z" fill="#002D56"/><path d="M5.321 8.417a.562.562 0 01-.222-.312l.05-.016c.023.075.08.211.2.284l.01.006.003.023-.035.006-.006.01zm-.126.08a.241.241 0 01-.049-.006l.011-.05a.14.14 0 00.076-.001l.013.05a.191.191 0 01-.05.007zm.038.695l-.052-.002a.094.094 0 01.03-.069v-.1l-.005-.173a1.032 1.032 0 00-.008-.088 1.119 1.119 0 01-.018-.115l.05-.008.018.109c.005.017.009.08.01.1l.002.077.002.097v.127l-.011.008c-.007.005-.017.015-.018.037zm-.243-.649h-.003c-.02-.003-.068-.019-.063-.11.004-.054.053-.052.07-.05h.012s-.004 0-.006.005l.04.026c-.012.018-.033.017-.049.016h-.018v.006c-.001.012-.002.047.013.057l.016-.01.005-.005.034.033-.007.007-.004.003-.027.018a.034.034 0 01-.013.004z" fill="#002D56"/><path fill-rule="evenodd" clip-rule="evenodd" d="M4.986 8.38a2.138 2.138 0 01.032-.62c-.11.158-.064.62-.064.62h.032z" fill="#FFD600"/><path d="M5.02 8.442l-.009-.057H5.01s.003 0 .01-.004l.004-.01.054.02-.008.02a.029.029 0 01-.014.016.142.142 0 01-.036.015z" fill="#002D56"/><path d="M5.04 8.51l-.045-.018c.01-.026 0-.064-.004-.076l.045-.017c.002.007.023.064.003.111z" fill="#002D56"/><path d="M5 8.421v-.02h-.014l.001-.038h.032a.02.02 0 01.017.01.033.033 0 01.002.027.029.029 0 01-.014.015.064.064 0 01-.024.006zm-.039.122c-.035 0-.067-.037-.074-.089-.004-.03-.004-.054.01-.072.015-.017.04-.02.057-.02l.001.037c-.015 0-.025.003-.029.008-.006.007-.003.028-.002.043.005.035.025.058.039.057.013-.002.015-.002.018-.005l.025.028c-.012.011-.026.012-.04.014h-.005z" fill="#002D56"/><path d="M4.953 8.518l-.012-.013c-.011-.014-.015-.04-.013-.084.002-.022.022-.033.034-.037h.04v.037H4.97c-.002 0-.004.002-.004.003-.003.043.002.055.004.058l.01.01-.027.026zm.18-.538L5.1 7.978h-.023l-.02-.004-.01-.002-.01-.002-.005-.007c-.015-.019-.018-.047.005-.064a.313.313 0 01.036-.024l.003-.001c.01-.007.02-.006.024-.004l-.014.04a.016.016 0 00.014 0l-.006.003a.306.306 0 00-.028.018l.005.001.01.001.022.001.04-.007.004.026-.014.027z" fill="#002D56"/><path d="M5.13 7.935h-.018v.02h.018v-.02z" fill="#002D56"/><path d="M5.18 8.09c-.006 0-.014 0-.021-.003-.023-.006-.032-.03-.036-.038v-.002a.15.15 0 01-.009-.03V8.01a.34.34 0 00-.009-.029.068.068 0 01.002-.036l.034.01-.017-.005.017.005a.055.055 0 00-.003.016c.003.006.006.021.009.031v.007a.14.14 0 00.006.023l.002.004c.002.005.006.015.013.017a.046.046 0 00.034-.003l.02.028a.075.075 0 01-.041.011z" fill="#002D56"/><path d="M5.181 8.043H5.18a.258.258 0 01-.012-.003l-.005.002-.009-.025c.014-.005.02-.002.021-.002l.006.001a.053.053 0 01.018 0h.006l.003.026a.05.05 0 01-.015 0h-.01zm.01-.002z" fill="#002D56"/><path d="M5.184 8.055l-.02-.002.004-.025a.07.07 0 00.022.001l.01.024a.046.046 0 01-.016.002zm.038-.088c-.01-.007-.023-.002-.023-.002l-.01-.025a.05.05 0 01.048.006l-.015.021zm-.053.05c-.003 0-.006 0-.01-.002h-.001c-.005-.004-.01-.006-.01-.015 0-.007.004-.016.005-.017V7.98l.004-.012a.046.046 0 00.003-.012l.02-.007c.003.009-.002.024-.004.028l-.003.007c0 .003 0 .006-.002.009l-.002.004.004-.001a.048.048 0 01.008-.002.078.078 0 00-.003-.002l.011-.018.009.007c.006.005.007.015.007.018 0 .005-.002.01-.007.012-.004.003-.01.005-.015.003l-.005.002h-.002s-.003.002-.007.002z" fill="#002D56"/><path d="M5.138 7.967l-.004-.026.002.013-.003-.013h.001c.007-.003.027-.01.045.002l-.015.021c-.006-.004-.014-.002-.021 0a.017.017 0 01-.005.003z" fill="#002D56"/><path d="M5.164 7.966c0-.001-.005-.003-.012-.003s-.012.001-.012.003.005.003.012.003c.006 0 .012 0 .012-.003z" fill="#002D56"/><path d="M5.153 7.978h-.001a.035.035 0 01-.018-.005L5.13 7.97v-.004a.01.01 0 01.003-.007c.003-.003.009-.004.018-.004h.01c.01.003.01.01.01.012v.003l-.002.004c-.004.003-.011.004-.017.004zm.028.112c-.007 0-.014 0-.021-.003l-.004-.001.012-.033a.048.048 0 00.035-.003l.02.028a.07.07 0 01-.042.012z" fill="#002D56"/><path d="M5.363 7.984a.29.29 0 01-.091-.015l-.01-.008c-.03-.011-.1-.027-.136-.01-.01.005-.017.004-.021.001-.01-.005-.012-.015-.014-.02v-.003a.094.094 0 00-.003-.006l-.01-.026a.133.133 0 01-.017-.037.026.026 0 01.002-.022c.01-.018.04-.029.05-.031h.003c.01-.002.033 0 .055.002h.005v.018l.002-.017.01.001h.02c.017 0 .036.004.05.006l.01.002a.08.08 0 01.05.033c.004.007.018.017.027.024.004.004.009.006.011.009a.297.297 0 01.04.047c.008.011.01.02.01.03a.025.025 0 01-.013.017.065.065 0 01-.03.005zm-.064-.043a.449.449 0 00.068.009.283.283 0 00-.034-.04l-.01-.007c-.012-.01-.027-.021-.034-.033a.046.046 0 00-.027-.017l-.01-.002a.192.192 0 00-.043-.005.097.097 0 01-.033-.002h-.008a.375.375 0 00-.047-.004.096.096 0 00-.026.013l.01.024a.176.176 0 01.016.033l.002.005a.261.261 0 01.176.026zm-.017.893a.131.131 0 01-.066-.017l.027-.044c.002 0 .037.021.08-.002l.01-.005.01-.005a.044.044 0 00.007-.004c.014-.005.027-.006.035.01.005.008.008.023-.01.036l-.003.001-.003.002-.02.011a.139.139 0 01-.067.017z" fill="#002D56"/><path d="M5.167 8.838a.152.152 0 01-.063-.013l.022-.047a.1.1 0 00.086-.003l.024.047a.148.148 0 01-.069.016zm.056-.869c0-.002-.005-.004-.012-.005-.007 0-.013 0-.013.002s.005.004.012.005c.007 0 .013 0 .013-.002z" fill="#002D56"/><path d="M5.216 7.98h-.007c-.017-.003-.02-.01-.02-.015 0-.005.005-.011.023-.01.017.002.02.01.02.015 0 .004-.004.01-.016.01zm-.024.55a.177.177 0 01-.061-.009l.018-.049a.18.18 0 00.098-.001l.016.05a.242.242 0 01-.071.01z" fill="#002D56"/><path fill-rule="evenodd" clip-rule="evenodd" d="M5.554 9.136H6v.06h-.447v-.06z" fill="#FFD600"/><path d="M6.005 9.2h-.454v-.068h.454V9.2zm-.447-.007h.44V9.14h-.44v.053z" fill="#002D56"/><path d="M.833 12.083h18.333v3.75H.833v-3.75z" fill="#B71C1C"/></svg>