<svg width="20" height="20" fill="none" xmlns="http://www.w3.org/2000/svg"><path d="M.833 3.75h18.333v12.5H.833V3.75z" fill="#43A047"/><path d="M.833 3.75h18.333v8.333H.833V3.75z" fill="#FF3D00"/><path d="M.833 3.75h18.333v4.167H.833V3.75z" fill="#03A9F4"/><path d="M9.597 8.333a1.667 1.667 0 100 3.334 1.667 1.667 0 000-3.334z" fill="#fff"/><path d="M9.968 8.611a1.389 1.389 0 100 2.778 1.389 1.389 0 000-2.778z" fill="#FF3D00"/><path d="M11.574 9.074l.177.499.478-.228-.227.478.498.177-.498.177.227.478-.478-.227-.177.498-.177-.498-.477.227.227-.478-.499-.177.499-.177-.227-.478.477.228.177-.499z" fill="#fff"/></svg>