<svg xmlns="http://www.w3.org/2000/svg" xmlns:xlink="http://www.w3.org/1999/xlink" width="40.529" height="43.982"><defs><linearGradient id="a" x1="-46.09" y1="-100.135" x2="-46.2" y2="-101.134" gradientUnits="objectBoundingBox"><stop offset="0" stop-color="#ffb34a"/><stop offset=".433" stop-color="#ff8b4a"/><stop offset=".628" stop-color="#fc884a"/><stop offset=".754" stop-color="#f47f4c"/><stop offset=".86" stop-color="#e57050"/><stop offset=".955" stop-color="#d15c55"/><stop offset="1" stop-color="#c54f59"/></linearGradient><linearGradient id="c" x1="-252.288" y1="-76.337" x2="-252.398" y2="-77.336" xlink:href="#a"/><linearGradient id="d" x1="-234.383" y1="129.809" x2="-234.492" y2="128.81" xlink:href="#a"/><linearGradient id="b" x1="-31.549" y1="107.421" x2="-30.793" y2="106.759" gradientUnits="objectBoundingBox"><stop offset="0" stop-color="#ffb34a"/><stop offset=".198" stop-color="#ff8b4a"/><stop offset=".474" stop-color="#fc884a"/><stop offset=".651" stop-color="#f47f4c"/><stop offset=".802" stop-color="#e57050"/><stop offset=".936" stop-color="#d15c55"/><stop offset="1" stop-color="#c54f59"/></linearGradient><linearGradient id="e" x1=".091" y1=".25" x2="1.05" y2=".836" xlink:href="#b"/><linearGradient id="f" x1=".263" y1="-.481" x2=".514" y2=".557" xlink:href="#b"/><linearGradient id="g" x1=".153" y1=".804" x2="1.008" y2=".056" xlink:href="#b"/><linearGradient id="h" x1=".136" y1=".278" x2=".989" y2=".799" gradientUnits="objectBoundingBox"><stop offset="0" stop-color="#ffb34a"/><stop offset=".198" stop-color="#ff8b4a"/><stop offset=".449" stop-color="#fc884a"/><stop offset=".611" stop-color="#f47f4c"/><stop offset=".747" stop-color="#e57050"/><stop offset=".869" stop-color="#d15c55"/><stop offset=".928" stop-color="#c54f59"/></linearGradient><linearGradient id="i" x1="-135.063" y1="14.125" x2="-134.209" y2="14.647" gradientUnits="objectBoundingBox"><stop offset="0" stop-color="#ffb34a"/><stop offset=".226" stop-color="#ff8b4a"/><stop offset=".406" stop-color="#f8844b"/><stop offset=".667" stop-color="#e57150"/><stop offset=".975" stop-color="#c75158"/><stop offset="1" stop-color="#c54f59"/></linearGradient><linearGradient id="j" y1=".5" x2="1" y2=".5" gradientUnits="objectBoundingBox"><stop offset=".08" stop-color="#ff8b4a"/><stop offset=".397" stop-color="#fc884a"/><stop offset=".6" stop-color="#f47f4c"/><stop offset=".773" stop-color="#e57050"/><stop offset=".926" stop-color="#d15c55"/><stop offset="1" stop-color="#c54f59"/></linearGradient></defs><g data-name="Сгруппировать 898"><g data-name="Сгруппировать 228" transform="translate(.05 -.001)"><path data-name="Контур 133" d="M1790.66 116.544l-1.78-5.34-5.34-1.78 5.728-5.728 7.12 7.12z" transform="translate(-1782.385 -78.392)" fill="url(#a)"/><path data-name="Контур 134" d="M8.274 38.152l-1.78-5.34 3.549-3.872 3.96 3.484z" fill="#c0545b" opacity=".51"/><path data-name="Контур 135" d="M1784.113 91.76l5.34-1.78 1.78-5.34 5.728 5.728-7.12 7.12z" transform="translate(-1782.258 -82.633)" fill="url(#c)"/><path data-name="Контур 136" d="M8.974 2.007l-1.78 5.34 3.43 3.609 4.265-3.051z" fill="#c0545b" opacity=".44"/><path data-name="Контур 137" d="M1809.413 84.64l1.78 5.34 5.34 1.78-5.729 5.728-7.12-7.12z" transform="translate(-1777.903 -82.633)" fill="url(#d)"/><path data-name="Контур 138" d="M33.29 7.347l-3.487 3.609 2.4 4.591 6.424-6.419z" fill="#c0545b" opacity=".49"/><path data-name="Контур 139" d="M1816.533 109.424l-5.34 1.78-1.78 5.34-5.729-5.728 7.12-7.12z" transform="translate(-1777.903 -78.392)" fill="url(#b)"/><path data-name="Контур 140" d="M33.29 32.812l-3.983-3.914 3.342-3.831 5.981 5.965z" fill="#c0545b" opacity=".48"/><rect data-name="Прямоугольник 42" width="10.043" height="10.043" rx="2.753" transform="translate(0 14.644)" fill="url(#e)"/><rect data-name="Прямоугольник 43" width="10.043" height="10.043" rx="2.753" transform="translate(30.436 14.644)" fill="url(#e)"/><rect data-name="Прямоугольник 44" width="10.043" height="10.043" rx="2.753" transform="translate(15.192 .001)" fill="url(#f)"/><rect data-name="Прямоугольник 45" width="10.043" height="10.043" rx="2.753" transform="translate(15.192 30.11)" fill="url(#g)"/><circle data-name="Эллипс 26" cx="16.508" cy="16.508" transform="translate(3.707 3.798)" fill="url(#h)" r="16.508"/><circle data-name="Эллипс 27" cx="13.767" cy="13.767" transform="translate(6.447 6.538)" fill="url(#i)" r="13.767"/><ellipse data-name="Эллипс 28" cx="7.032" cy="5.94" rx="7.032" ry="5.94" transform="translate(11.969 20.084)" fill="#c0545b" opacity=".79"/><g data-name="Сгруппировать 61"><path data-name="Контур 141" d="M20.388 30.113c-4.275 0-9.268-2.565-9.268-9.791 0-6.781 4.656-9.818 9.268-9.818 4.663 0 7.964 2.681 8.831 7.171l.088.461-5.907.973-.094-.421a2.959 2.959 0 00-2.917-2.63c-1.9 0-3.083 1.635-3.083 4.263s1.181 4.236 3.083 4.236a3 3 0 002.943-2.7l.093-.425 5.88 1-.086.456c-.848 4.525-4.149 7.225-8.831 7.225z" fill="#f4b44d"/><path data-name="Контур 142" d="M1801.008 92.126c3.514 0 7.405 1.731 8.383 6.8l-5.02.828a3.4 3.4 0 00-3.363-2.987c-2.083 0-3.538 1.732-3.538 4.719 0 2.961 1.455 4.693 3.538 4.693a3.431 3.431 0 003.389-3.062l4.994.853c-.953 5.094-4.844 6.851-8.383 6.851-4.467 0-8.809-2.71-8.809-9.335 0-6.451 4.342-9.362 8.809-9.362m0-.912c-4.839 0-9.721 3.177-9.721 10.274 0 7.564 5.237 10.249 9.721 10.249 4.921 0 8.389-2.84 9.279-7.6l.171-.911-.913-.156-4.994-.853-.858-.147-.187.851a2.551 2.551 0 01-2.5 2.345c-1.62 0-2.626-1.449-2.626-3.78 0-2.348 1.006-3.807 2.626-3.807a2.478 2.478 0 012.473 2.274l.188.841.851-.141 5.019-.828.925-.153-.177-.919c-.911-4.723-4.379-7.542-9.279-7.542z" transform="translate(-1780.662 -81.17)" fill="url(#j)"/><path data-name="Контур 143" d="M24.052 22.517l4.169.719a7.483 7.483 0 01-7.41 5.9c-8.011.357-8.665-7.4-8.665-7.4l4.23-1.429s-.378 4.929 3.826 5.166a3.69 3.69 0 003.85-2.956z" fill="#ffc878"/><path data-name="Контур 144" d="M23.844 17.601l3.982-1.582a10.352 10.352 0 01.4 1.249l-4.259.716z" fill="#ffc878"/><path data-name="Контур 145" d="M12.518 17.591l10.154-5.559s-2.606-1.152-6.665.818c-2.479 1.202-3.489 4.741-3.489 4.741z" fill="#ffc878"/></g><path data-name="Контур 146" d="M27.717 24.749a7.441 7.441 0 01-6.9 4.416 8.456 8.456 0 01-4.744-1.022z" fill="#ffddb0"/></g></g></svg>