<svg data-name="Сгруппировать 356" xmlns="http://www.w3.org/2000/svg" width="22.03" height="53.305"><path data-name="Контур 287" d="M20.17 39.572l-9.156-4.578-9.156 4.578 9.156 4.578z" fill="#9bb2b0"/><path data-name="Контур 288" d="M1.859 48.727v-9.156l9.156 4.578 9.156-4.578v9.156l-9.156 4.578z" fill="#ff9b2e"/><path data-name="Контур 289" d="M20.17 16.349l-9.156-4.578-9.156 4.578 9.156 4.578z" fill="#9bb2b0"/><path data-name="Контур 290" d="M20.17 28.127l-9.156-4.578-9.156 4.578 9.156 4.578z" fill="#9bb2b0"/><path data-name="Контур 291" d="M1.859 13.735V4.579l9.156 4.578 9.156-4.578v9.156l-9.156 4.578z" fill="#ff9b2e"/><path data-name="Контур 292" d="M20.17 4.578L11.014 0 1.858 4.578l9.156 4.578z" fill="#9bb2b0"/><path data-name="Контур 293" d="M1.859 25.505V16.35l9.156 4.578 9.156-4.578v9.156l-9.156 4.578z" fill="#ff9b2e"/><path data-name="Контур 294" d="M1.859 37.283v-9.156l9.156 4.578 9.156-4.578v9.156l-9.156 4.578z" fill="#ff9b2e"/><path data-name="Контур 295" d="M20.735 30.561l-.563-.271v.553l-9.156 4.584-9.155-4.583v-.554l-.564.272-1.3.648 11.015 5.5 11.015-5.5z" fill="#f28519"/><path data-name="Контур 296" d="M22.03 31.21v2.683l-11.015 5.8-11.016-5.592v-2.894l11.015 5.5z" fill="#ffac6e"/></svg>