<svg width="90" height="130" fill="none" xmlns="http://www.w3.org/2000/svg"><path d="M66.168 69.73c5.272-5.976 12.19-17.72 11.312-26.993-1.538-15.557-15.046-32.144-37.01-32.144h-1.538c-13.179.515-30.092 9.89-36.242 20.09-7.358 12.26 1.647 29.774 11.751 39.253C2.471 77.766 2.8 92.189 4.118 101.153c2.416 16.175 11.202 22.356 24.82 27.199 3.734 1.339 14.387 1.648 18.12 1.648 17.792 0 31.19-15.763 33.717-31.01 2.196-13.085-3.405-24.006-14.607-29.26zM51.012 59.633c-1.647.721-3.514 1.03-5.271 1.03-8.017 0-17.572-3.812-19.988-10.817-.879-2.576.22-6.697 2.526-8.964 3.954-4.018 10.873-6.49 17.462-6.49 3.954 0 13.289 1.03 14.716 10.405l.11.722c.33 5.769-3.514 11.435-9.554 14.114zm-18.45 25.55c3.515-1.339 8.237-2.163 12.41-2.163 5.382 0 9.774 1.236 12.19 3.606a12.644 12.644 0 013.954 10.303c-.33 3.4-1.977 6.284-4.722 8.139-2.965 1.957-6.15 2.987-9.445 2.987-9.335 0-17.572-2.987-19.878-9.684-1.647-4.945 1.428-11.642 5.491-13.187z" fill="#6CB4B8"/><path d="M83.52 58.706c-1.647-1.442-2.745-4.121-3.843-5.976-.879-1.339-1.757-2.884-2.526-4.327-.769 4.43-2.636 8.964-4.942 12.982 3.404-.103 6.809-.206 10.213-.206 1.318-.104 1.977-1.649 1.099-2.473zm-1.976 11.539c0-.824-.66-1.34-1.538-1.443-3.624-.206-6.699 1.443-9.664 3.297 3.185 2.267 5.71 5.048 7.578 8.345.439-1.339.878-2.678 1.318-3.915.878-2.163 2.306-3.812 2.306-6.284zM77.48 42.737c.11.824 0 1.751 0 2.678.22-.102.44-.103.55-.206 1.317-.515 2.416-1.133 3.624-1.751 1.867-1.03 4.173-2.37 5.161-4.327.22-.412.33-1.03 0-1.442-1.317-1.649-3.953-1.34-6.04-1.443-1.538 0-3.075 0-4.722-.103.659 2.164 1.208 4.43 1.427 6.594zm-2.965-10.715c.769-.927 1.538-1.854 2.526-2.782 1.538-1.339 4.064-3.4 1.648-5.254-3.185-2.37-7.688-3.09-12.191-3.4 3.405 3.4 6.04 7.315 8.017 11.436zM38.602 10.696c-.22-.412-.44-.928-.659-1.34-1.427-2.781-.988-5.563-1.757-8.345-.33-1.03-1.647-1.34-2.526-.618-2.196 2.06-3.185 5.254-5.052 7.624-1.428 1.854-2.416 3.709-3.294 5.77 4.612-1.855 9.115-2.885 13.288-3.091zm38 100.244c-2.197 4.121-5.162 7.83-8.676 11.024 3.294 1.442 7.578 1.545 10.872 1.545.77 0 1.538-.618 1.538-1.442-.22-2.679-1.098-5.666-2.087-8.139-.549-1.03-1.098-2.061-1.647-2.988zM59.799 15.744c.55-2.473.989-4.842 1.428-7.315.11-1.03-.66-1.957-1.867-1.751-4.613.927-9.555 2.163-13.948 4.224 5.491.72 10.214 2.37 14.387 4.842zm23.283 84.172c-.77-1.133-1.428-2.266-2.087-3.4-.11.825-.11 1.752-.22 2.576-.549 3.4-1.647 6.8-3.294 10.097 2.745 0 5.49-.103 8.346 0 .989 0 1.757-.928 1.428-1.752-.989-2.678-2.636-5.151-4.173-7.52zm5.71-15.144c-.768-.31-1.537-.928-2.196-1.237-1.208-.618-2.965-.824-4.283-1.03-1.099-.206-2.307-.206-3.405-.206 1.428 3.09 2.197 6.593 2.306 10.302.33-.206.66-.412.88-.515 1.647-.927 3.184-1.957 4.722-3.09 1.207-.825 2.965-1.443 3.184-2.988 0-.515-.659-1.03-1.208-1.236z" fill="#122528"/><path d="M23.666 18.732c-.988.515-2.196 1.545-3.185 2.678-1.427 1.443-2.745 3.194-3.624 4.43-1.647 2.164-.878 5.77 2.636 4.843 1.867-.515 3.624-2.164 5.162-3.297 1.647-1.236 4.722-2.885 5.271-4.842.769-3.503-3.185-5.667-6.26-3.812zM13.343 35.937c-1.867 1.34-3.734 3.09-3.185 5.46.11.722.879 1.03 1.538 1.134 2.306.206 3.843-2.679 4.063-4.533v-.103c1.318-1.134-.879-3.194-2.416-1.958zM41.019 18.32c-1.428.824-4.064 3.193-3.624 5.15 0 2.061 2.965 2.268 4.502 1.65 1.758-.722 6.7-3.71 5.711-6.08-1.098-2.884-4.393-2.163-6.59-.72zm13.179 52.234c-.66 0-1.428.309-2.197.824-2.306.824-3.514 3.297-3.075 5.564.55 3.296 5.052-.103 5.82-1.134 1.209-1.34 2.966-5.254-.548-5.254zm9.554-4.43c1.538-.618 3.514-2.37 2.526-4.018-.55-.825-1.208-1.03-1.867-.928-4.723-.72-5.491 6.8-.66 4.946zm-27.895 5.048c-.33.31-.989 1.133-1.648 2.164-1.867 1.751-2.965 4.739-2.635 6.696.659 4.843 9.554-3.812 10.433-5.357.55-1.133 1.757-4.121-.11-4.945-2.196-.825-4.393.103-6.04 1.442zm29.542 37.399c-1.977-.207-3.734 1.03-4.723 2.781-1.098 1.443-1.867 3.297-1.427 4.842.659 3.297 4.612.207 5.71-.927 1.319-1.442 4.503-6.181.44-6.696zm8.017-7.212c-2.196-.515-4.722 1.854-4.502 3.915.11.721.439 1.236 1.208 1.442 1.757.515 4.173-.721 4.722-2.37.22-.824 0-1.442-.33-1.957-.11-.412-.438-.824-1.097-1.03z" fill="#F2FBFD"/></svg>