<svg width="276" height="124" fill="none" xmlns="http://www.w3.org/2000/svg"><path d="M274.314 80.208c-6.49-17.421-26.723-23.615-42.947-26.712-3.054-.58-6.299-.774-9.353-.387 3.436-8.13 4.199-15.485 4.772-24.196.573-7.742-4.963-15.678-10.689-20.324-6.681-5.42-14.506-7.549-22.714-8.323-16.606-1.162-31.494 7.742-40.656 21.485-.955 1.355-1.718 3.097-2.482 4.84-4.008-.968-7.825-1.743-12.025-2.13-4.962-.58-10.116 2.71-14.506 4.646-7.635 3.29-15.079 14.517-17.752 22.26-1.336 3.677-1.717 8.13-1.336 12.194-8.589.194-17.56 3.097-23.477 7.55-6.49 4.838-9.735 12-10.307 19.936-.764 8.904 7.253 15.873 14.506 18.97 17.56 7.742 37.03 3.484 55.354 3.677 7.444.194 14.506-1.161 21.759-1.548 9.735-.387 19.47.193 29.204.58 9.162.388 18.133.194 27.104.775 9.926.387 18.324-.968 27.868-3.291 7.635-1.936 16.415-2.903 22.714-7.936 6.872-5.613 8.017-13.937 4.963-22.066zM.645 110.965c2.507-6.508 10.136-8.856 16.325-9.976 1.173-.213 2.4-.267 3.574-.16-1.334-3.04-1.6-5.761-1.867-9.07-.214-2.933 1.867-5.867 4.054-7.628 2.508-1.974 5.495-2.88 8.643-3.094 6.295-.427 11.95 2.88 15.47 8.055.374.534.64 1.12.907 1.814a30.946 30.946 0 014.535-.8c1.867-.213 3.841 1.014 5.548 1.707 2.934 1.227 5.709 5.442 6.722 8.376.48 1.387.64 3.041.534 4.588 3.254.053 6.668 1.174 8.909 2.827 2.507 1.814 3.68 4.482 3.948 7.469.266 3.308-2.775 5.975-5.495 7.149-6.669 2.881-14.084 1.333-21.02 1.387-2.827.053-5.494-.427-8.268-.587-3.735-.16-7.363.053-11.097.267-3.468.16-6.882.106-10.35.266-3.734.161-6.988-.373-10.616-1.227-2.88-.693-6.241-1.067-8.642-2.987-2.56-2.187-3.041-5.282-1.814-8.376z" fill="#BEDCE3"/><path d="M73.145 115.126c-.16.321-.693.321-.8-.053-1.014-3.254-5.175-5.495-7.682-1.814-.213.32-.8.267-.8-.16-.267-5.441-5.548-4.854-8.643-2.561-.907.694-1.867 1.708-3.04 1.921-.16.053-.427-.107-.427-.32-.694-3.574-1.6-11.577-6.829-6.882-1.654 1.494-1.547 4.428-2.187 6.402-.107.32-.587.48-.8.16-2.561-4.001-4.962-2.988-7.896-.427-.267.213-.747.16-.747-.267-.053-.693-1.44-2.027-1.76-2.4-1.494-1.707-3.201-2.774-5.549-2.134-3.04.8-3.627 4.001-4.748 6.455-.16.373-.693.267-.8-.053-.96-2.561-4.694-2.615-6.135-.481-.16.267-.587.374-.747.054-1.333-2.561-3.68-2.027-4.908.053-.16.267-.587.374-.747.053-.8-1.547-1.92-2.614-3.147-3.787-.8-.801-1.654-.961-2.454-.747.213-.267.427-.534.693-.8 1.12 0 1.974.533 2.988 1.547.64.64 1.28 1.227 1.867 1.92.427.534.373.907.32 1.014.053-.053.107-.16.267-.32 1.067-1.174 1.494-1.921 3.2-1.707.48.053 1.174.48 1.495.8 1.173 1.067.533 1.494 1.493-.16 1.494-2.508 4.855-.48 6.242 1.494 1.44-3.308 2.507-5.762 6.562-6.456 2.24-.373 5.815 2.508 6.615 4.855 3.148-2.614 5.708-3.094 8.162.267.96-3.148 1.014-5.282 4.055-7.469 2.347-1.654 4.588 1.334 5.441 3.254.64 1.387.107 5.655 2.24 4.055 1.601-1.174 2.882-2.508 4.856-2.668 3.147-.266 5.281 1.441 5.868 4.215 2.72-2.828 6.722-1.387 8.269 1.974.907-1.121 2.294-1.921 3.734-1.387.48.16.8.427 1.12.693.107.374.16.747.214 1.174-1.227-1.067-3.894-1.067-4.855.693z" fill="#fff"/><path d="M.325 116.193c1.174-.8 2.508-1.28 3.895-1.227 1.28.054 2.507.534 3.627 1.067.8.374 1.067 1.654 1.387 1.441 1.867-1.174 5.389-.64 7.096.64 1.44 1.12.747.587 2.614-.587 1.12-.693 2.934-.427 4.054 0 .747.267.96.8 1.227.534 1.174-1.174 2.721-2.294 4.055-3.148 2.507-1.654 5.441-.427 7.842.854 1.6.853 1.387 2.454 2.934 1.013 1.174-1.067 2.88-1.28 4.375-1.333 1.76-.107 4.16.32 4.64 2.027 1.175-.854 2.295-1.334 3.895-1.494 1.28-.107 4.268 0 5.122 1.28 0 .054 3.894-1.013 4.694-.586 1.654.907 2.721 1.974 3.201 3.627 2.24-2.134 4.428-3.627 7.682-3.041 1.067.214 2.934 1.388 3.521 2.294-.106.107-.213.267-.373.374-1.174-1.707-6.775-1.601-6.829-1.547-1.28.853-2.774 1.92-3.894 3.041-.267.266-.694.106-.747-.267-.48-2.614-2.134-3.788-4.961-3.681.213-.054-2.188 1.067-2.134 1.013-.16.107-.427-.053-.48-.16-1.868-2.774-6.669-1.44-8.643.267-.32.32-.8.054-.747-.373.214-2.188-3.627-1.867-4.908-1.814-2.72.16-2.72 1.334-4.108 2.294-.16.107-.426.107-.533-.053-1.867-2.134-4.641-4.215-7.736-3.521-1.813.426-4.32 2.827-5.601 4.054a.456.456 0 01-.694-.053c-1.653-2.134-4.64-.48-6.348.64-.16.107-.373.053-.534.053-.16 0-.266-.16-.32-.267-.853-2.4-6.188-1.653-7.522-.8-.213.107-.48.107-.587-.106-1.867-3.255-5.228-3.148-7.682-1.441a5.695 5.695 0 01-.48-1.014zm59.323-23.366c-1.867-.107-3.787.747-5.281 2.4-.267.267-.587.107-.747-.16-1.28-2.667-5.495-1.973-6.989 0-.266.32-.693.054-.746-.266-.427-2.614-2.508-6.349-5.655-4.802-1.44.747-2.028 2.401-2.561 3.842-.107.32-.587.32-.747.053-.8-1.494-1.547-2.934-3.521-3.094-1.494-.107-2.614 1.707-3.734 2.56-.267.214-.64-.053-.694-.32-.213-4.16-4.588-1.92-6.455-.426-.213.16-.587 0-.64-.214-.747-2.027-1.814-2.667-3.041-2.667.107-.427.267-.907.48-1.334.107 0 .213 0 .373.053.694.16 1.548 1.12 1.974 1.547.214.214.374.534.534.8.48 1.121.107.854.427.587 1.6-1.28 3.2-2.507 5.334-1.973.747.16 1.067.746 1.44 1.28.908 1.334.054 1.707 1.761.107.854-.8 2.614-1.227 3.681-.694.694.374 1.067.64 1.494 1.334.587.96.587 1.814.96.853.32-.8.534-1.013 1.014-1.707.96-1.28 3.574-2.614 5.175-1.653 1.867 1.173 2.667 2.987 3.094 5.014 1.974-1.707 5.922-2.187 7.469.16-.054-.106 2.667-2.187 3.414-2.187h.48c.587.107 1.174.48 1.707.907zm5.389 9.016c-2.027-1.12-5.655.747-6.775 1.974-.267.32-.854.053-.747-.374.213-.64.267-1.333.213-1.974.214-4.107-7.629-5.388-7.468-.853 0 .48-.694.64-.854.16-1.174-3.148-5.442-1.6-7.255-.694-1.548.747-2.615 3.201-3.308 4.695-.16.32-.694.267-.8-.053-.48-1.708-1.014-3.255-1.867-4.855-1.12-2.08-4.322-4.961-6.829-.747-.427.747-.747 1.654-1.12 2.401-.214.427-.747.213-.8-.16-.747-5.068-4.855-4.108-7.736-2.828a5.583 5.583 0 01-.213-.907c1.013-.48 2.08-.8 3.2-.853 2.294-.16 4.482 1.334 5.335 3.414 1.067-2.134 2.828-5.388 5.495-4.001 2.88 1.494 4.268 4.268 5.175 7.202 1.28-2.614 2.88-4.215 5.975-5.068 1.867-.534 3.841-.267 5.015 1.067.64-2.294 3.2-3.201 5.601-2.774 2.454.427 3.468 3.574 3.361 5.921 1.707-1.28 4.321-2.134 6.242-1.547.053.16.107.48.16.854zM38.31 87.172c-.107.213-.48.32-.694.107-2.027-2.08-4.374-4.108-6.082-.747-.16.373-.693.267-.8-.053-.48-1.28-1.013-3.041-1.92-4.055-.32-.373-.694-.587-1.12-.8.426-.107.853-.214 1.333-.32 1.12.907 1.707 2.454 2.187 3.84.32-.8.64-1.333 1.92-1.386 1.921-.107 3.309-.107 4.429 1.6.213.32.32.534.32.694.107-.16.32-.374.8-.64 1.12-.587 2.027-.907 3.308-1.067.106 0 .213 0 .373-.054.427.32.8.64 1.174.96-2.027-.32-4.268.107-5.228 1.921z" fill="#fff"/><path d="M34.532 46.726c2.07-5.37 8.364-7.308 13.47-8.232a11.07 11.07 0 012.95-.132c-1.1-2.51-1.32-4.754-1.541-7.484-.176-2.42 1.54-4.842 3.346-6.294 2.069-1.63 4.534-2.377 7.13-2.553 5.195-.353 9.861 2.377 12.767 6.646.308.44.528.925.748 1.497a25.516 25.516 0 013.742-.66c1.54-.176 3.17.836 4.578 1.409 2.42 1.012 4.71 4.49 5.546 6.91.397 1.145.528 2.51.44 3.786 2.686.044 5.503.969 7.352 2.334 2.069 1.496 3.037 3.697 3.257 6.162.22 2.73-2.289 4.93-4.534 5.899-5.502 2.377-11.621 1.1-17.344 1.144-2.333.044-4.534-.352-6.823-.484-3.081-.132-6.075.044-9.156.22-2.861.132-5.678.088-8.54.22-3.081.133-5.766-.308-8.76-1.012-2.377-.572-5.15-.88-7.131-2.465-2.113-1.805-2.51-4.358-1.497-6.911z" fill="#BEDCE3"/><path d="M94.355 50.16c-.132.264-.572.264-.66-.045-.837-2.685-4.27-4.534-6.34-1.496-.175.264-.66.22-.66-.132-.22-4.49-4.577-4.006-7.13-2.113-.749.572-1.541 1.408-2.51 1.584-.132.044-.352-.088-.352-.264-.572-2.949-1.32-9.552-5.635-5.678-1.364 1.232-1.276 3.653-1.804 5.282-.088.264-.485.396-.66.132-2.114-3.301-4.094-2.465-6.516-.352-.22.176-.616.132-.616-.22-.044-.572-1.188-1.673-1.453-1.981-1.232-1.409-2.64-2.289-4.578-1.76-2.509.66-2.993 3.3-3.917 5.326-.133.308-.573.22-.66-.044-.793-2.113-3.874-2.157-5.063-.397-.132.22-.484.309-.616.044-1.1-2.112-3.038-1.672-4.05.044-.132.22-.484.309-.616.044-.66-1.276-1.585-2.157-2.598-3.125-.66-.66-1.364-.792-2.024-.616.176-.22.352-.44.572-.66.924 0 1.628.44 2.465 1.276.528.528 1.056 1.013 1.54 1.585.353.44.309.748.265.836.044-.044.088-.132.22-.264.88-.968 1.232-1.585 2.641-1.409.396.044.968.397 1.233.66.968.881.44 1.233 1.232-.131 1.233-2.07 4.006-.397 5.15 1.232 1.189-2.729 2.07-4.754 5.415-5.326 1.849-.308 4.798 2.069 5.458 4.006 2.598-2.157 4.71-2.553 6.735.22.793-2.597.837-4.358 3.346-6.163 1.937-1.365 3.786 1.1 4.49 2.685.528 1.145.088 4.666 1.849 3.346 1.32-.969 2.377-2.07 4.006-2.201 2.597-.22 4.358 1.188 4.842 3.477 2.245-2.333 5.546-1.144 6.823 1.629.748-.924 1.893-1.585 3.081-1.145.397.133.66.353.925.573.088.308.132.616.176.968-1.013-.88-3.214-.88-4.006.572zm-60.087.88c.968-.66 2.069-1.057 3.213-1.013 1.056.044 2.069.44 2.993.88.66.309.88 1.365 1.145 1.19 1.54-.97 4.446-.529 5.855.527 1.188.925.616.485 2.157-.484.924-.572 2.42-.352 3.345 0 .616.22.793.66 1.013.44.968-.968 2.245-1.892 3.345-2.597 2.069-1.364 4.49-.352 6.471.705 1.32.704 1.145 2.024 2.421.836.969-.88 2.377-1.056 3.61-1.1 1.452-.089 3.433.264 3.83 1.672.968-.704 1.892-1.1 3.213-1.232 1.056-.088 3.522 0 4.226 1.056 0 .044 3.213-.836 3.874-.484 1.364.748 2.245 1.629 2.64 2.993 1.85-1.76 3.654-2.993 6.34-2.509.88.176 2.42 1.145 2.905 1.893-.088.088-.176.22-.308.308-.968-1.409-5.59-1.32-5.635-1.277-1.056.705-2.289 1.585-3.213 2.51-.22.22-.572.088-.616-.22-.397-2.157-1.761-3.126-4.094-3.038.176-.044-1.805.88-1.761.837-.132.088-.352-.044-.396-.133-1.54-2.288-5.503-1.188-7.131.22-.265.265-.66.045-.617-.308.176-1.804-2.993-1.54-4.05-1.496-2.245.132-2.245 1.1-3.39 1.893-.131.088-.351.088-.44-.044-1.54-1.761-3.83-3.478-6.382-2.906-1.497.352-3.566 2.333-4.622 3.346a.376.376 0 01-.573-.044c-1.364-1.761-3.83-.396-5.238.528-.132.088-.308.044-.44.044s-.22-.132-.264-.22c-.705-1.98-5.107-1.365-6.207-.66-.176.088-.396.088-.484-.088-1.541-2.686-4.314-2.597-6.34-1.189a4.69 4.69 0 01-.395-.836zm48.949-19.281c-1.54-.088-3.125.616-4.358 1.98-.22.22-.484.089-.616-.131-1.056-2.201-4.534-1.629-5.767 0-.22.264-.572.044-.616-.22-.352-2.157-2.069-5.239-4.666-3.962-1.189.616-1.673 1.98-2.113 3.17-.088.263-.484.263-.616.043-.66-1.232-1.277-2.42-2.906-2.553-1.232-.088-2.156 1.409-3.08 2.113-.221.176-.53-.044-.573-.264-.176-3.434-3.786-1.585-5.327-.352-.176.132-.484 0-.528-.176-.616-1.673-1.497-2.201-2.509-2.201.088-.352.22-.749.396-1.1a.86.86 0 01.308.043c.573.132 1.277.925 1.629 1.277.176.176.308.44.44.66.396.925.088.704.352.484 1.321-1.056 2.642-2.069 4.402-1.628.617.132.88.616 1.189 1.056.748 1.1.044 1.409 1.453.088.704-.66 2.157-1.012 3.037-.572.572.308.88.528 1.233 1.1.484.793.484 1.497.792.705.264-.66.44-.837.836-1.409.793-1.056 2.95-2.157 4.27-1.365 1.541.969 2.201 2.465 2.553 4.138 1.63-1.408 4.887-1.805 6.163.132-.044-.088 2.201-1.804 2.817-1.804h.397c.484.088.968.396 1.408.748z" fill="#fff"/><path d="M87.664 39.198c-1.672-.924-4.666.617-5.59 1.63-.22.263-.704.043-.616-.31.176-.527.22-1.1.176-1.628.176-3.39-6.295-4.446-6.163-.704 0 .396-.572.528-.705.132-.968-2.597-4.49-1.32-5.986-.572-1.277.616-2.157 2.64-2.73 3.873-.132.265-.572.22-.66-.044-.396-1.408-.836-2.685-1.54-4.005-.925-1.717-3.566-4.094-5.635-.617-.352.617-.616 1.365-.924 1.981-.176.352-.617.176-.66-.132-.617-4.182-4.007-3.39-6.384-2.333a4.595 4.595 0 01-.176-.748c.837-.396 1.717-.66 2.642-.705 1.892-.132 3.697 1.1 4.401 2.818.88-1.761 2.334-4.446 4.535-3.302 2.377 1.233 3.521 3.522 4.27 5.943 1.056-2.157 2.377-3.478 4.93-4.182 1.54-.44 3.17-.22 4.138.88.528-1.892 2.64-2.64 4.622-2.289 2.025.352 2.861 2.95 2.773 4.887 1.409-1.057 3.566-1.761 5.15-1.277.044.132.088.396.132.704zM65.61 27.093c-.088.176-.397.264-.573.088-1.672-1.717-3.61-3.39-5.018-.616-.132.308-.572.22-.66-.044-.396-1.057-.837-2.51-1.585-3.346-.264-.308-.572-.484-.924-.66.352-.088.704-.176 1.1-.264.924.748 1.409 2.024 1.805 3.17.264-.661.528-1.101 1.585-1.145 1.584-.088 2.729-.088 3.653 1.32.176.264.264.44.264.572.088-.132.265-.308.66-.528.925-.484 1.674-.748 2.73-.88.088 0 .176 0 .308-.044.352.264.66.528.969.792-1.673-.264-3.522.088-4.314 1.585z" fill="#fff"/></svg>