<svg width="172" height="136" fill="none" xmlns="http://www.w3.org/2000/svg"><path d="M32.627 90.772a4.01 4.01 0 001.328 0c.738-.886 1.402-1.919 1.992-2.952 1.771-3.246 2.804-6.787 3.615-10.328 1.845-7.82 2.804-16.084 6.493-23.388 4.5-8.853 9.665-18.15 18.96-22.576 5.386-2.582 11.51-3.984 17.338-4.943 5.46-.96 11.436-1.697 16.97-.738 8.705 1.476 15.64 7.6 20.878 14.387 5.46 7.156 9.518 15.346 12.764 23.682 2.582 6.862 4.427 14.018 7.009 20.88 1.475 3.91 3.098 7.746 5.164 11.435 1.845 3.246 3.91 6.419 6.788 8.853.516.443 1.106.959 1.697 1.402.147-.147.221-.295.368-.516 2.509-3.394 3.837-7.82 1.919-11.731-1.919-3.91-5.607-5.386-9.739-5.238-.885 0-1.771.147-2.656.295.221-.295.443-.59.664-.96 2.804-4.204 4.869-9.443 4.353-14.533-.443-5.165-4.427-9.591-9.296-11.215.959-1.549 1.771-3.172 2.361-4.869 2.73-7.968-1.181-17.338-8.78-20.805a21.221 21.221 0 00-7.968-1.77c3.615-5.755 6.05-12.543 2.878-19.035-1.845-3.763-5.46-7.01-9.296-8.559-3.542-1.475-7.526-1.401-11.141-.295-5.828 1.845-10.845 6.05-14.681 10.92C90.764 12.124 87.444 6 82.132 2.384 76.377-1.526 68.852-.345 63.54 3.86c-6.05 4.722-7.746 13.723-7.451 20.953.073 2.14.369 4.5.959 6.788a19.66 19.66 0 00-5.091.664c-6.419 1.697-13.206 6.64-14.313 13.575-.738 4.5.664 9.37 2.656 13.427.369.812.812 1.624 1.254 2.361-.22.074-.442.074-.664.148-4.057.885-7.82 3.394-10.697 6.197-3.394 3.32-5.829 7.968-5.312 12.764.073 4.205 3.025 9.517 7.746 10.034z" fill="#FFCE33"/><path d="M45.17 47.833c1.106.59 2.139 1.18 3.245 1.77.148-.294.296-.516.443-.811a55.321 55.321 0 00-3.615-1.844c-2.36-1.255-4.795-2.361-7.304-3.394l-.221.664c2.582 1.033 5.017 2.287 7.451 3.615zM36.538 86.64c-3.394-.295-6.861-.517-10.329-.738.295.516.59.96.885 1.402 2.951.147 5.903.221 8.854.442.221-.368.368-.737.59-1.106zm10.55-42.201c.96.812 1.918 1.623 2.803 2.508.222-.295.37-.664.59-.959-.885-.737-1.77-1.549-2.655-2.287-2.14-1.844-4.427-3.541-6.566-5.386-.222.222-.37.443-.517.59 1.992 1.919 4.206 3.69 6.345 5.534zm3.688-7.083c1.255.96 2.435 1.919 3.69 2.878.22-.295.516-.664.81-.96a60.316 60.316 0 00-3.467-2.582c-1.401-1.032-2.73-1.992-4.131-3.025-.295.148-.664.296-.96.517 1.329 1.033 2.657 2.14 4.058 3.172zm4.944-5.459c-.148-.148-.295-.295-.443-.369-.369 0-.811.074-1.18.148.59.59 1.254 1.18 1.844 1.844a39.158 39.158 0 012.361 2.582c.221-.221.516-.442.738-.664a37.687 37.687 0 00-3.32-3.541zm30.765-5.977c.222-2.36.443-4.647.664-7.008.37-3.467.664-7.009.738-10.476-.295-.443-.59-.886-.96-1.255-.22 3.763-.59 7.6-.958 11.362-.295 2.509-.59 5.017-.812 7.525.443 0 .886-.073 1.328-.147zm9.37-2.655c.738-3.69 1.476-7.452 2.287-11.14-.369.294-.811.663-1.18 1.032-.812 3.247-1.623 6.493-2.287 9.813-.148.811-.296 1.623-.517 2.434.443 0 .812 0 1.18.074.296-.738.37-1.475.517-2.213zM24.512 80.443v.221c0 .295.073.59.147.885 1.697.517 3.394.886 5.09 1.254 2.583.517 5.24.886 7.895 1.107.148-.295.221-.59.295-.885a68.64 68.64 0 01-7.673-1.107 60.033 60.033 0 01-5.754-1.475zm53.931-68.909c-.811-3.689-.664-7.377-1.401-11.14 0-.074-.517-.221-.886-.295 0 .221.221.442.221.664.148 3.541.443 7.156 1.107 10.697 1.033 5.165 2.951 10.108 4.5 15.125.074 0 .222 0 .296-.074.221 0 .221-.074.442-.074-1.328-4.943-3.246-9.812-4.279-14.903zM43.547 60.08c-1.328-.59-2.656-1.254-3.984-1.844.147.295.295.664.442.959a3.6 3.6 0 01.221.516c1.033.443 1.992.885 3.025 1.328.148-.369.222-.664.296-.96zm-8.411 5.533c2.213.443 4.353 1.033 6.566 1.697.074-.369.148-.811.295-1.18a103.468 103.468 0 00-7.599-1.771l-1.328.885c.664.074 1.402.222 2.066.37zM61.105 5.78c1.624 2.73 2.878 5.607 4.132 8.484 1.476 3.394 3.099 6.788 4.5 10.255.59 1.476 1.18 3.025 1.771 4.574.369-.147.738-.221 1.107-.295-.738-1.844-1.402-3.689-2.214-5.533-1.401-3.246-3.025-6.493-4.426-9.739-1.254-2.803-2.582-5.68-4.353-8.19-.148.075-.369.296-.517.444zm-3.688 8.115c1.623 2.877 2.95 5.829 4.353 8.78 1.401 2.877 3.246 5.46 5.09 8.041.37-.147.812-.295 1.18-.516-2.065-2.73-3.983-5.533-5.533-8.632-1.549-3.025-3.024-6.419-5.017-9.444-.147.443-.295.812-.442 1.255.221.147.295.369.369.516zM68.705 1.796c.369 4.057 1.033 8.115 2.066 12.099 1.254 4.87 3.099 9.517 5.238 13.944.295-.074.664-.148.96-.221a78.284 78.284 0 01-5.091-14.092C70.845 9.395 70.254 5.263 69.886.984c0-.148 0-.369-.074-.516-.443.073-.812.22-1.254.368.073.37.073.664.147.96zM58.45 28.65c1.55 1.329 3.099 2.657 4.722 3.91.369-.22.811-.442 1.18-.663-1.918-1.55-3.763-3.025-5.68-4.574a87.419 87.419 0 01-2.878-2.509c0 .517.074 1.033.074 1.55.885.737 1.697 1.549 2.582 2.287zM30.93 76.016a80.845 80.845 0 00-5.976-.222c-.074.296-.148.664-.222.96 1.919 0 3.763.073 5.681.22 2.361.148 4.648.222 7.01.148h2.212c.074-.368.148-.737.222-1.18-2.951.074-5.902.295-8.927.074zm69.499-49.948c.442.074.811.222 1.254.295.59-2.582 1.18-5.164 1.844-7.746.96-3.91 2.361-7.747 3.689-11.51-.073 0-.074 0-.147.074a5.122 5.122 0 00-.959.37c-1.402 3.54-2.73 7.156-3.763 10.844-.664 2.509-1.254 5.091-1.918 7.673zM30.783 67.015a4.21 4.21 0 00-.811.811 44.945 44.945 0 013.246 1.697c2.435 1.18 4.87 2.361 7.378 3.32.073-.295.147-.59.221-.959-2.36-.959-4.722-2.14-7.009-3.32-1.106-.516-2.066-1.033-3.025-1.55zm6.492-16.821c.074.442.148.885.222 1.401 2.582 1.328 5.164 2.657 7.746 4.058.148-.295.295-.59.443-.959a142.152 142.152 0 00-7.378-3.984c-.295-.147-.664-.295-1.033-.516zm76.286-25.232a109.385 109.385 0 01-3.32 5.533c.369.295.738.517 1.181.812 1.18-1.992 2.434-3.984 3.541-6.05 2.73-4.943 5.459-9.813 8.263-14.756-.295-.221-.516-.442-.811-.664a1142.403 1142.403 0 00-8.854 15.125zm4.427 12.69a550.238 550.238 0 009.812-8.706l.443-1.328c-3.542 3.172-7.23 6.27-10.846 9.443.222.148.443.37.591.59zm10.402 2.877a418.018 418.018 0 01-5.828 3.098c.147.222.368.517.516.738 2.14-1.106 4.353-2.287 6.492-3.394a77.784 77.784 0 015.608-2.655c-.369-.222-.664-.443-1.033-.665l-5.755 2.878zm16.601 38.217c1.106-.296 2.139-.664 3.246-.886.074-.442.074-.885.147-1.328-1.254.37-2.434.738-3.689 1.107-2.213.664-4.352 1.475-6.492 2.36.074.296.221.665.295.96a112.3 112.3 0 016.493-2.213zm-24.79-51.571c-1.918 2.213-3.91 4.427-5.755 6.714.222.221.443.442.738.664 2.066-2.435 4.132-4.87 6.271-7.304 2.361-2.73 4.87-5.386 7.23-8.19-.073-.369-.221-.737-.295-1.106-2.73 3.172-5.459 6.197-8.189 9.222zm29.954 76.36c2.139-1.033 4.279-2.066 6.345-3.172.073-.37.147-.738.147-1.107a92.315 92.315 0 01-7.23 3.467c.221.222.443.517.738.812zm-3.762-4.943c.147.295.368.516.516.811 3.099-1.401 6.197-2.73 9.296-4.057-.074-.296-.221-.517-.295-.738a259.89 259.89 0 00-9.517 3.984zm-2.804-13.502c-1.107.37-2.14.738-3.246 1.107.147.295.221.59.369.96.885-.296 1.844-.591 2.729-.886a76.274 76.274 0 012.14-.664l.664-1.328c-.812.221-1.697.516-2.656.812zm7.968 6.42c.516-.222 1.033-.37 1.549-.591-.369-.221-.738-.517-1.106-.664l-8.411 3.32c.147.295.295.516.443.811l7.525-2.877zM113.635 6.37c-1.623 3.91-3.172 7.82-4.795 11.73-1.328 3.173-2.804 6.198-4.132 9.37.443.222.885.369 1.328.59 1.254-3.246 2.804-6.345 4.058-9.59 1.623-3.985 3.098-7.969 4.574-11.953-.295-.073-.664-.073-1.033-.147zm19.772 59.096c.074.295.222.59.295.811 1.771-.59 3.615-1.106 5.46-1.623.959-.221 1.918-.516 2.877-.738-.369-.221-.811-.516-1.254-.664-.812.222-1.697.443-2.508.664-1.624.443-3.247.96-4.87 1.55zm-2.73-6.862c3.837-1.992 7.673-3.91 11.657-5.754v-.812c-4.057 1.77-8.041 3.689-12.025 5.681.147.369.295.59.368.885zm9.592-11.14c-3.32 1.328-6.64 2.582-9.887 3.984-.811.369-1.696.738-2.508 1.18.148.295.295.517.443.812.664-.295 1.254-.59 1.918-.885 3.246-1.476 6.64-2.656 10.034-3.91.516-.222 1.033-.37 1.549-.59-.074-.37-.221-.739-.295-1.108a9.045 9.045 0 01-1.254.517zm-20.141-7.23c.147.221.295.442.516.664 2.877-1.845 5.828-3.615 8.927-5.09-.369-.075-.738-.148-1.107-.296a83.173 83.173 0 00-8.336 4.648c-.074 0 0 .074 0 .074zm6.123 9.369c4.132-2.582 8.337-5.238 12.321-8.115-.147-.221-.369-.443-.516-.664-3.984 2.803-8.116 5.312-12.247 7.894l.442.885zm13.797 20.953c2.066-.885 4.131-1.77 6.271-2.434-.221-.296-.369-.59-.59-.812-1.771.59-3.468 1.328-5.165 2.14-1.697.737-3.32 1.623-4.943 2.434.074.222.148.517.221.738 1.328-.738 2.73-1.475 4.206-2.066zm-8.633-10.255c.074.222.221.517.295.738 2.435-1.107 4.869-2.14 7.378-3.025.885-.369 1.771-.664 2.582-.959.074-.369.221-.738.295-1.107-1.033.37-2.065.812-3.098 1.18-2.509.96-5.017 1.993-7.452 3.173zm16.674 11.805l-.221-.886c-1.697.443-3.32.886-4.943 1.402-2.14.664-4.279 1.402-6.345 2.14.074.221.148.516.221.737 2.066-.737 4.206-1.475 6.345-2.065a54.104 54.104 0 014.943-1.328z" fill="#122528"/><path d="M170.444 107.445c-1.255 0-5.312 2.73-9.444 2.287-3.467-.442-6.714-2.803-9.296-5.017-2.803-2.434-4.943-5.607-6.787-8.853-2.066-3.615-3.689-7.525-5.165-11.435-2.582-6.862-4.427-14.018-7.009-20.88-3.172-8.336-7.23-16.6-12.763-23.682-5.239-6.788-12.174-12.911-20.88-14.387-5.533-.959-11.509-.221-16.968.738-5.829 1.033-11.952 2.435-17.338 4.943-9.296 4.427-14.534 13.797-18.96 22.576-3.69 7.23-4.649 15.493-6.493 23.388-.812 3.541-1.55 5.828-3.32 9-1.77 3.247-4.574 6.42-7.747 8.19-4.058 2.287-9.37 4.279-13.722 2.582-3.32-1.328-5.755-3.984-6.42-7.378-.442-2.213-1.4-2.877-2.876-2.287C2.673 88.263.976 96.083.608 97.56c-.664 2.36-.738 6.861-.443 9.222.148 1.328.369 2.582.885 3.837 1.033 2.656 2.656 3.541 3.394 3.541 1.107.074 1.992-.148 2.73-.812 1.402-1.18 2.066-3.098 3.099-4.574.664-.959 1.844-1.992 3.172-1.77 1.107.147 1.697 1.106 1.77 2.213 0 1.254-.516 2.361-1.327 3.246-1.771 1.918-2.435 2.213-4.944 2.951-.737.222-1.77 1.328-1.328 1.845 1.771 2.287 7.969 4.943 12.985 5.312 5.017.442 10.182 0 15.199.369 4.574.368 9.222.664 13.796.959-.516 1.475-1.254 3.025-2.877 3.246-.59.074-1.107-.221-1.623-.443-.738-.295-1.476-.664-2.288-.885-1.18-.369-2.582-.517-3.098.885-.59 1.697.885 3.173 2.14 3.984 1.549 1.033 3.54 1.771 5.459 1.992 1.55.148 2.95-.738 3.91-1.918 1.623-1.918 2.508-4.279 3.468-6.566 2.95.074 5.828.221 8.78.295v.074c.22 1.18 1.327 2.951.442 3.984-.738.811-2.287.295-3.246.516-.96.148-1.771.812-2.361 1.623-.96 1.402.368 2.656 1.549 3.173 1.476.737 3.246.959 4.943.737 1.55-.221 3.099-.737 3.689-2.36.59-1.55 0-3.542-.221-5.165-.074-.811-.222-1.697-.37-2.508.591 0 1.181 0 1.771.073 13.87.369 27.74.664 41.537.148 1.55-.074 3.099-.148 4.722-.221v.073c-.59 1.55-.738 3.616-1.771 4.944-1.549-1.033-4.279-2.952-5.754-1.55-.886.886-.664 2.582-.148 3.615.664 1.254 1.992 1.992 3.246 2.509 1.328.516 2.656.885 4.058 1.033.443.073.885.147 1.328.147.664 0 1.033-.664 1.402-1.107 2.213-2.877 2.582-6.492 3.246-10.033l8.853-.664c0 1.106.148 1.992.222 2.508.073.517.221 1.107.295 1.623v.517h-.148c-1.254 0-2.434-.369-3.689-.148-1.549.295-2.951 1.992-2.582 3.615.443 2.066 2.73 2.509 4.574 2.656a20.136 20.136 0 005.903-.664c3.91-.959 1.623-6.418.811-8.779-.147-.59-.369-1.107-.516-1.697.295 0 .664-.074.959-.074 6.566-.516 13.206-1.18 19.698-2.73.886-.221 6.64-1.549 9.665-3.246 3.615-2.139 5.312-3.541 5.976-5.533.664-2.287.812-4.132-1.106-4.132z" fill="#6CB4B8"/><path d="M26.873 103.24c0-.517-.296-.885-.59-1.181-.148-.073-.222-.221-.37-.221a1.386 1.386 0 00-.59-.147c-1.77-.222-2.434 2.36-1.106 3.246.442.295.959.221 1.402.074.811-.222 1.328-.96 1.254-1.771zm-19.846-1.992c3.025-1.107 4.426-3.689 5.164-5.829-1.918-1.475-3.32-3.54-3.836-5.902-.443-2.213-1.402-2.877-2.878-2.287C2.895 88.263 1.198 96.083.83 97.56c-.221.812-.369 1.918-.442 3.099 2.14.885 4.5 1.401 6.64.59z" fill="#122528"/><path d="M44.21 86.05c-.59 1.401-.442 3.098-.295 4.574.221 2.066.96 3.91 1.845 5.755 1.18 2.434 2.582 4.721 2.95 7.451.37 2.508 0 5.164.96 7.525.811 1.919 2.434 3.247 3.467 5.017.96 1.697 1.255 3.689 1.771 5.534.221.737.443 1.401.664 2.065 1.402.074 2.877.074 4.28.148.442-3.541-1.107-6.861-2.73-10.108-1.033-1.992-1.919-3.91-2.361-6.123-.443-2.287-.665-4.648-.812-7.009-.148-2.287-.369-4.648-.738-6.935-.295-1.992-.738-4.058-1.77-5.829-.96-1.623-2.435-3.32-4.28-3.836-1.328-.295-2.434.516-2.95 1.77zm12.985-14.682c1.106 4.205 3.246 8.116 5.09 12.026a88.32 88.32 0 012.657 6.05c.885 2.36 1.106 4.795 1.18 7.303.074 2.73 0 5.46.221 8.264.222 2.582.886 5.164 1.697 7.672.812 2.509 1.77 5.017 2.361 7.599a14.13 14.13 0 01.443 3.542v.738c1.549.073 3.098.073 4.722.147.073-3.91.147-7.746.663-11.657.37-2.656.665-5.238 0-7.894-.59-2.435-2.14-4.574-3.467-6.64a26.742 26.742 0 01-1.77-3.172c-.59-1.255-.886-2.73-1.107-4.132-.443-2.73-.59-5.46-.738-8.19-.148-1.991-.443-3.983-.59-5.975l-.222-4.206c-.221-3.246-.369-6.566-1.401-9.664-.296-.96-.738-1.992-1.624-2.509-1.106-.664-2.656-1.033-3.984-.738-2.36.443-3.467 3.1-3.91 5.165-.59 1.918-.811 4.205-.221 6.271zm-27.888 51.349c.221-1.18.443-2.435.369-3.615-.148-2.435-2.435-2.656-4.427-2.14-.885.222-1.623.886-1.623 1.845 0 1.033.738 1.918 1.328 2.73.295.369.516.737.811 1.18h3.542zm59.317-3.32c.59-4.722 1.476-9.37 2.287-14.091.664-4.206 1.402-8.411 1.402-12.616.074-4.87-1.107-9.518-2.066-14.24-.516-2.582-.885-5.164-.811-7.82.073-2.582.295-5.164.369-7.746.073-2.435-.296-4.722-.96-7.157a27.785 27.785 0 01-.885-7.747c0-2.508.222-4.795-.738-7.156-.664-1.55-1.77-2.951-3.467-3.32-1.623-.369-3.246.738-4.353 1.844-1.254 1.255-1.992 2.952-2.361 4.648-.885 4.28.148 8.927 1.476 12.985 1.549 4.796 4.279 9.444 4.795 14.535.517 4.869-1.55 9.517-2.582 14.165-.517 2.287-.738 4.574-.517 6.935.148 2.213.665 4.353 1.107 6.492.738 3.246 1.55 6.419 2.066 9.665.59 3.837-.148 7.525-.59 11.288-.148 1.476-.37 3.099-.295 4.722 1.844 0 3.762.074 5.607.074.147-1.845.295-3.615.516-5.46zm-43.677 4.132c-.147-1.918-.811-3.689-1.475-5.534-.517-1.328-.885-2.729-1.402-4.057-.443-1.181-1.033-2.583-2.14-3.173-1.106-.59-2.139.148-2.73 1.033-.958 1.254-1.18 3.025-.516 4.427.664 1.475 2.066 2.434 3.099 3.689.59.664.96 1.401.96 2.287 0 .369-.075.664-.075 1.033 1.402.073 2.804.221 4.28.295zm103.953-1.992c.295-.738.442-1.476.516-2.287.148-1.255.148-2.435.074-3.689 0-.517-.148-1.033 0-1.55.148-.516.516-.959.738-1.401.885-1.476.664-3.394-1.033-4.206-3.246-1.549-4.427 3.837-4.869 5.829-.296 1.697-.369 3.32-.296 5.017.074 1.032-.073 2.065-.295 2.951a58.255 58.255 0 005.165-.664zm-51.422 3.32a50.24 50.24 0 001.328-2.066c1.402-2.213 2.361-4.796 3.246-7.157a80.162 80.162 0 002.656-8.115c.664-2.361.517-4.869.221-7.304-.147-1.254-.368-2.582-.368-3.837 0-1.401.368-2.803.737-4.057.812-2.509 2.14-4.87 2.951-7.378 1.624-4.722 1.402-9.444.295-14.24-.59-2.581-1.475-5.09-1.696-7.672-.222-2.287-.148-4.87-1.476-6.861-.811-1.255-2.14-2.066-3.615-1.623-1.77.516-2.508 2.582-2.877 4.131-.517 2.287.737 4.574 1.401 6.64.886 2.73 1.181 5.46 1.181 8.337 0 2.656-.221 5.238-.959 7.894-.664 2.361-1.623 4.722-2.509 7.083-.664 1.844-1.254 3.762-1.549 5.754-.369 2.066-.295 4.206-.295 6.345-.074 4.501-.074 9.075-.886 13.575-.516 3.099-1.77 5.976-2.065 9.149-.074.516-.074 1.033-.074 1.549 1.476-.147 2.877-.147 4.353-.147zm62.858-11.583c-.59.442-1.18.959-1.475 1.697-.296.885 0 1.623.073 2.508.074.812-1.106 1.476-1.549 1.992-.148.148-.295.369-.443.59 1.328-.295 3.615-.885 5.681-1.697.295-.885.443-1.697.517-2.508.073-.885.073-1.918-.517-2.582-.59-.959-1.623-.517-2.287 0zm-31.503-14.83c-1.623.886-2.139 2.656-2.434 4.353-.296 1.992-.148 4.058.073 6.05.074 1.18.222 2.287.148 3.467-.074 1.55-.59 3.025-1.107 4.501a61.698 61.698 0 00-2.213 7.156l2.877-.221c1.402-3.32 4.279-6.05 4.722-9.665.221-1.992 0-3.91.516-5.828.443-1.55 1.033-3.099 1.476-4.648a9.7 9.7 0 00.443-1.992c.073-.812-.222-1.328-.664-2.066-.812-1.476-2.361-1.918-3.837-1.107zm-13.501-7.451c-1.033 1.55-2.213 3.025-2.877 4.795-.812 1.919-.664 3.91-.812 5.976-.147 1.697-.443 3.394-1.033 5.017-.885 2.287-2.582 4.132-3.836 6.197-2.214 3.689-2.361 7.821-3.542 11.805 2.066 0 4.132-.074 6.198-.148.369-.295.664-.59 1.033-.959 3.025-2.877 6.344-6.197 7.304-10.402.516-2.288.073-4.575.073-6.862.074-2.361 1.181-4.353 2.509-6.197 1.18-1.697 2.435-3.394 3.025-5.386.59-1.844.959-3.689 1.328-5.607.737-3.763 1.549-7.894 1.033-11.804-.222-1.771-1.402-3.468-3.173-3.984-1.623-.517-3.689.664-4.353 2.213-.59 1.476-.442 3.246-.442 4.796.073 1.77.221 3.54.073 5.312-.221 1.844-1.475 3.688-2.508 5.238zM93.199 49.087c-.443-.811-1.18-1.033-1.992-.738-.738 0-1.402.37-1.77.96-.37.663-.296 1.549 0 2.287.073.221.22.516.442.737.295.443.664.812 1.107.96.811.295 1.549-.296 1.992-.886.442-.664.664-1.623.516-2.434-.074-.296-.147-.59-.295-.886zm-2.804-3.467c.443-.222.812-.738.664-1.255 0-.073 0-.073-.073-.147 0-.148 0-.295-.074-.443-.222-.664-.96-.811-1.55-.516-.516.295-.811.959-.811 1.549 0 .443.295.812.59.96.516.22.96.147 1.254-.148z" fill="#DEF2F7"/><path d="M80.436 70.999c-1.107-.147-1.771.812-2.214 1.697-.295.664-.516 1.55.074 2.066.147.147.369.221.59.295.59.59 1.402.442 2.14.073.885-.516 1.401-1.475 1.18-2.508-.147-.811-.959-1.55-1.77-1.623zm-1.329 12.247c.738-.959.222-3.172-1.18-3.246-.886 0-1.107 1.033-1.033 1.697.074.295.148.59.369.811 0 .148.074.37.147.517.296.59 1.255.737 1.697.221zM76.6 76.385c-.296-.295-.812-.443-1.181-.295-.516.147-.59.59-.443 1.106-.147.443.074.886.443 1.107.664.443 1.476-.221 1.55-.885 0-.443-.074-.812-.37-1.033zM63.761 93.354a2.494 2.494 0 00-.885-.443 1.488 1.488 0 00-.811-.221c-.443 0-.812.147-1.033.516-.295.221-.59.443-.812.812-.738 1.254-.148 2.582.96 3.394.147.295.368.59.737.811 1.107.812 2.287-.221 2.656-1.254.516-1.254.295-2.804-.812-3.615zm-3.098 9.517c-.59.221-.811.885-.811 1.476 0 .59.369 1.254.959 1.475.074.074.147.148.295.221.59.296 1.033-.147 1.254-.664a1.797 1.797 0 00-.148-1.623c-.22-.59-.959-1.106-1.549-.885zm18.223 12.837c-.295.074-.517.148-.738.369a1.144 1.144 0 00-.59.812c-.148.295-.148.59-.221.885-.074.443.147.959.442 1.254.148.222.295.443.517.59.737.369 1.623.074 2.065-.59.37-.59.443-1.475.222-2.139-.295-.812-.96-1.328-1.697-1.181zM51.737 77.787c-.96-.443-2.14.442-2.509 1.328-.147.369-.147.737-.147 1.18-.074.295 0 .59.147.885.443 1.033 1.476 1.55 2.582 1.18 2.066-.663 1.771-3.836-.073-4.573zm-2.952 37.11c-.959-.295-1.697.516-1.992 1.328-.295.959.074 1.918.738 2.434.295.591.812 1.107 1.18 1.328.812.443 1.624.074 2.14-.664.517-.811.221-1.918-.148-2.656-.368-.737-1.032-1.475-1.918-1.77zm-1.475-6.05c.073-.369 0-.812-.296-1.107l-.074-.073a.934.934 0 00-.663-.296c-.148 0-.296 0-.443.074-.222.074-.517.222-.664.369-.221.221-.37.59-.443.959-.074.295-.074.59.074.886.295.664 1.033.885 1.697.59.516-.295.811-.812.811-1.402zm-6.124-3.836a1.277 1.277 0 00-1.033-.222c-.369-.074-.664 0-.96.148-1.548.738-1.106 3.246.591 3.32a2 2 0 001.918-1.033 1.563 1.563 0 00-.516-2.213zm35.708-67.286c1.254-.295 2.14-1.401 2.36-2.582.222-1.254-.663-2.435-1.991-2.36-1.254.073-2.509 1.18-2.804 2.36-.147.59 0 1.18.295 1.623 0 .074 0 .074.074.148.369.737 1.254.959 2.066.811zm20.067 7.157c0-.738-.59-1.254-1.328-1.328-1.475-.148-1.918 1.697-1.106 2.656.221.443.664.516 1.106.443.296-.074.59-.222.812-.37.369-.294.59-.737.443-1.18.073-.147.073-.221.073-.221zm1.845 24.42c-1.623.222-1.844 3.91-.369 4.427.074 0 .222.074.295.074.517.147 1.18-.074 1.55-.443 1.18-1.328.516-4.353-1.476-4.058zm10.624-7.009c-.148 0-.369.074-.443.222a2.364 2.364 0 00-.221 1.032c-.295.738.295 1.992 1.402 1.624 1.623-.517.811-3.025-.738-2.878zm4.575-6.787c-.959-1.18-3.246-.812-4.132.221a1.91 1.91 0 00.074 2.509c.221.295.517.442.885.59.222.295.517.443.812.59 1.918.812 3.468-2.508 2.361-3.91zm-.738 30.396l.073.074c-.221.811.074 1.55 1.107 1.697 2.066.369 2.804-2.361 1.623-3.69-1.254-1.327-3.91.37-2.803 1.92zm8.706 22.355c-.886.147-1.255 1.18-1.328 1.992-.074.664.147 1.254.737 1.549.074.074.222.148.295.221.664.296 1.402.148 1.845-.368.59-.664.59-1.624.295-2.435-.369-.738-1.107-1.107-1.844-.959zm14.829-5.312c-1.254-.738-2.508.295-2.508 1.623 0 .147-.074.369 0 .516.147.812 1.106 1.033 1.77.886 1.254-.369 2.14-2.287.738-3.025zm-.885-5.238c.811-.296.959-1.328 1.032-2.066v-.148c0-.221 0-.442-.073-.664a1.75 1.75 0 00-.664-1.106 1.641 1.641 0 00-1.181-.222c-.442 0-.885.074-1.18.295a2.226 2.226 0 00-.59.59c-.517.517-.812 1.107-.664 1.845.147.59.664.959 1.254 1.107.074.073.147.147.295.22.516.296 1.18.37 1.771.148zm17.337 16.821c-.147-.812-.959-1.402-1.697-1.254-1.328.221-1.549 2.951-.147 3.246h.073c.369.147.738.147 1.107-.074.664-.295.738-1.254.664-1.918zm-24.42-36.594c-1.254-.074-1.623 1.033-1.549 2.14-.295.959 0 2.287.811 2.877.664 1.107 1.771 2.14 2.582.664.074-.074.074-.221.148-.295.885-.812.738-2.582.443-3.615-.369-1.107-1.255-1.697-2.435-1.77zm-1.845 7.746c-.148.296-.147.665-.147 1.034-.074.147-.074.221-.148.368-.074.222-.074.443 0 .59 0 .37.148.739.59.886.59.148 1.254-.295 1.476-.738.369-.737 0-1.549-.517-2.065-.295-.443-.959-.664-1.254-.074z" fill="#DEF2F7"/></svg>