<svg width="165" height="165" fill="none" xmlns="http://www.w3.org/2000/svg"><path d="M9.295 54.737c-.26 1.823 2.518 2.344 3.3.868 1.562-2.952 2.083-6.25 3.906-9.029.694-1.041-.782-1.996-1.65-1.215-2.778 2.257-5.035 5.816-5.556 9.376zm9.724 5.469c-.174-1.042-1.563-.955-1.997-.26-1.823 2.864-5.209 5.99-4.167 9.722.521 1.823 3.125 2.17 3.994.521.868-1.562 1.215-3.385 1.823-5.122.434-1.65.607-3.125.347-4.861zM1.31 50.917c.347.087.607.087.867 0 .521-.174 1.042-.608 1.216-1.215.781-3.125 1.65-5.817 3.733-8.334.694-.868-.26-2.518-1.303-1.736-2.951 2.257-5.99 5.556-5.816 9.549.087.868.521 1.476 1.302 1.736zm3.125 11.807C2.438 64.98.702 67.931.615 71.056c0 1.65 2.084 1.65 2.605.348 1.041-2.431 1.302-5.122 2.604-7.553.52-.955-.695-1.997-1.39-1.128zm17.795 16.06c.434-1.129 1.042-2.258 1.563-3.386.174-.347-.347-.694-.608-.52-.868.52-1.562 1.475-2.083 2.343-.521.781-1.302 2.084-.608 2.865.695 1.041 1.476-.781 1.736-1.302zm-7.639-1.737c-2.43 2.779-4.688 5.99-4.948 9.81-.087.608.347 1.302.868 1.563.26.173.52.26.868.26.868-.087 1.476-.52 1.736-1.302 1.042-3.125 1.823-6.25 3.039-9.376.347-.868-.955-1.649-1.563-.954zm-1.475 27.693a75.947 75.947 0 00-1.823 6.338c-.434 1.823-1.042 3.733.26 5.295.434.521 1.302.434 1.736 0 1.303-1.215 1.042-3.212 1.216-4.861.26-2.084.694-4.08 1.128-6.164.174-1.476-1.996-2.17-2.517-.608zm20.4-35.158a53.26 53.26 0 00-4.427 4.427c-1.129 1.302-3.126 3.299-2.431 5.122.173.52.694.868 1.302.695 1.563-.435 2.257-2.344 3.038-3.647 1.216-1.823 2.605-3.385 4.08-5.035.955-1.041-.52-2.517-1.562-1.562zm-8.159 17.362c-1.39 2.257-2.692 4.688-3.56 7.205-.52 1.563-2.17 5.035-.173 6.251 2.083 1.215 2.951-2.952 3.212-4.08.694-2.865 1.389-5.817 2.43-8.595.348-1.128-1.302-1.736-1.91-.781zm6.77 30.557c-1.041 2.344-2.951 5.73-1.649 8.334.52.955 1.997.521 1.997-.521 0-1.215-.087-2.43.087-3.646.173-1.302.347-2.517.607-3.733.087-.607-.781-1.041-1.042-.434zM47.58 92.24a17.048 17.048 0 00-4.167 4.774c-.868 1.563-2.605 4.341-1.476 6.077.347.521.955.608 1.476.347 1.476-.694 1.823-3.038 2.43-4.427.782-1.823 1.65-3.646 2.952-5.122.955-.781-.174-2.43-1.215-1.65zm-26.565 25.609c-1.128 1.562-1.562 3.646-1.823 5.556-.26 1.649-.955 4.253.434 5.556a1.1 1.1 0 001.563 0c1.215-1.129.868-3.56.955-5.122.087-1.823.434-3.733.26-5.556 0-.868-.868-1.042-1.389-.434zm32.468-6.424c.434-2.344.782-4.688.955-7.032.174-1.302-1.823-1.476-2.17-.261-.694 2.344-1.65 4.688-2.17 7.119-.434 1.736-1.302 4.514.347 5.816.52.434 1.042.434 1.563 0 1.475-1.215 1.128-3.993 1.475-5.642zm-16.928 19.793c-2.17 1.562-2.865 4.167-3.212 6.597-.348 2.518-.782 6.685 1.562 8.334.608.434 1.65.087 1.997-.52.868-1.824.087-4.515-.087-6.425-.173-2.17-.347-4.948.781-6.858.521-.694-.347-1.649-1.041-1.128zm37.676-22.658a60.823 60.823 0 00-3.472 6.685c-.782 1.736-2.084 4.34-1.042 6.163.26.521.868.608 1.389.347 1.736-.868 2.257-3.559 2.778-5.208.694-2.257 1.562-4.514 2.517-6.685.695-1.476-1.302-2.691-2.17-1.302zm-14.324 12.154c-1.129.955-1.563 2.604-1.997 3.993-.52 1.649-1.042 3.733-.608 5.469.26 1.042 1.65.868 1.997 0 .52-1.476.52-3.299.694-4.861.174-1.476.608-2.865.869-4.254 0-.521-.695-.608-.955-.347zm12.153 5.295c-1.04 2.778-2.082 5.556-2.517 8.421-.347 2.257-.955 5.556.782 7.379.52.521 1.389.434 1.736-.261 1.042-1.909.434-4.601.694-6.684.26-2.778.782-5.556 1.476-8.334.348-1.389-1.65-1.91-2.17-.521zm22.832-4.34c-1.128 1.649-1.996 3.298-2.778 5.121-.607 1.476-1.302 4.081.26 5.209.261.174.695.087.956-.174 1.041-.954.781-3.125 1.041-4.427.434-1.649 1.216-3.299 2.084-4.775.608-1.041-.955-1.909-1.563-.954zm-5.817 21.181c-.087-1.823 0-3.732.087-5.556 0-1.389-1.997-1.302-2.084 0-.173 2.171-.434 4.341-.347 6.511.087 1.65.347 3.994 1.997 4.688.347.174.868-.173.955-.521.26-.781-.087-1.389-.26-2.17-.088-1.042-.261-1.997-.348-2.952zm21.182-21.529c-3.472 2.257-6.337 6.338-6.424 10.591 0 .521.26 1.042.781 1.302 2.171 1.216 2.518-2.17 2.952-3.472.781-2.431 2.083-5.035 3.906-6.945.695-.694-.26-2.083-1.215-1.476zm-9.809 15.973c-.087-.954-1.302-1.128-1.65-.26-1.302 3.212-3.038 10.331.348 12.848.434.347 1.128 0 1.302-.521.521-1.649-.087-3.733-.174-5.469 0-2.257.348-4.427.174-6.598zm18.143-.52c-1.476 2.083-2.257 4.514-2.518 7.031-.173 1.91-.781 6.077 1.389 7.119.435.174.955.174 1.216-.174 1.215-1.475.434-4.08.434-5.816 0-2.431.26-5.122 1.215-7.379.434-1.129-1.215-1.563-1.736-.781zm13.022 10.157c-1.128 1.823-1.649 3.906-1.823 5.989-.173 1.824 0 4.949 1.737 5.99.52.261 1.128.087 1.389-.434.781-1.389 0-3.125-.174-4.514-.261-2.083-.261-4.167.521-6.077.434-1.215-1.042-2.083-1.65-.954zm9.983-.087c-.955 2.604-2.952 7.986-.26 10.07.52.347 1.215.087 1.562-.434.781-1.129.434-2.778.347-4.167-.086-1.65.174-3.299.434-4.948.174-1.303-1.649-1.824-2.083-.521zm23.092 16.147c-.521-.955-1.215-1.65-1.649-2.691-.434-1.042-.782-2.171-1.389-3.126-.347-.607-1.389-.521-1.563.174-.434 2.517.434 6.077 2.778 7.466 1.216.694 2.605-.695 1.823-1.823zM4.868 34.683c.521-.434.521-1.041.695-1.65.174-.694.52-1.388.781-1.996.608-1.215 1.65-2.257 2.605-3.299.434-.434-.087-1.302-.695-1.041-1.476.607-2.604 1.736-3.472 3.125-.695 1.128-1.823 3.472-.955 4.774.26.435.694.435 1.041.087zM6.865 8.466C7.82 7.338 8.081 5.688 8.95 4.473c.955-1.302 2.43-2.17 3.906-2.691 1.129-.347.608-2.084-.52-1.736-1.91.607-3.473 1.562-4.862 3.038C6.344 4.3 5.043 6.47 5.65 8.12c.173.608.781.781 1.215.347zm43.58 122.057c-1.129 2.257-1.737 4.428-1.91 6.945-.174 2.084-.26 5.73 1.476 7.206.434.347 1.302.434 1.562-.174.781-1.736 0-3.82-.173-5.73-.174-2.517.086-5.122.694-7.552.26-.955-1.129-1.65-1.65-.695zm10.937 11.98c.087-1.042-1.736-1.302-1.823-.26a35.626 35.626 0 00-.26 8.594c.26 2.257.781 5.643 2.865 6.945.607.347 1.215-.087 1.215-.695.26-2.083-1.042-4.514-1.476-6.51a31.638 31.638 0 01-.52-8.074zm18.058 4.948c-.26-2.604-.087-5.295.347-7.813.087-.52-.434-.868-.868-.52-2.084 1.996-2.518 4.948-2.518 7.813 0 2.43 0 7.205 2.344 8.594.434.26 1.216.174 1.476-.347.434-1.042.26-1.997 0-3.039a43.933 43.933 0 01-.781-4.688zm29.863 4.341c-.26-2.604-.347-5.209-.608-7.813-.086-1.129-1.649-1.129-1.736 0-.26 2.778-.694 5.556-.521 8.421.087 2.083.261 5.903 2.518 6.945.521.26 1.128.086 1.302-.521.26-.955 0-1.823-.26-2.778-.261-1.476-.521-2.865-.695-4.254zM28.655 99.01c-1.65.695-1.823 3.994-2.083 5.47-.348 2.517-.955 5.209.173 7.553.26.607 1.216.52 1.476 0 1.042-2.084.955-4.428 1.215-6.685.174-1.129.348-2.257.434-3.386.087-.781.434-1.736 0-2.43-.26-.434-.78-.695-1.215-.521zM3.132 82.343C1.395 84.079.7 86.943.354 89.288c-.347 2.43-.695 5.469.52 7.64.348.694 1.303.52 1.563-.174.695-2.084.26-4.341.521-6.511.26-2.431 1.215-4.601 1.736-7.032.174-.868-.955-1.563-1.562-.868z" fill="#BEDCE3"/></svg>