<svg xmlns="http://www.w3.org/2000/svg" width="50.678" height="50.678"><g data-name="Сгруппировать 7" fill="#30e2d9"><path data-name="Контур 29" d="M47.708 20.885H41.67v-9.007H38.7v9.877l-.258.258a19.388 19.388 0 00-5.681 13.716v11.98H17.915v-11.98a19.387 19.387 0 00-5.681-13.716l-.258-.258v-9.877h-2.97v9.008H2.97V10.393a7.482 7.482 0 017.522-7.424h7.573a7.425 7.425 0 0014.549 0h7.573a7.482 7.482 0 017.522 7.424v10.492zM38.7 47.708h-2.969v-11.98A16.31 16.31 0 0138.7 26.3v21.408zm-23.755 0h-2.969V26.3a16.309 16.309 0 012.969 9.427v11.98zM40.186 0H29.793v1.485a4.454 4.454 0 01-8.908 0V0H10.492A10.455 10.455 0 000 10.393v13.46h9.007v26.824H41.67V23.854h9.007V10.393A10.455 10.455 0 0040.186 0z"/><path data-name="Контур 30" d="M31.277 17.817a1.485 1.485 0 111.485-1.486 1.486 1.486 0 01-1.485 1.485zm0-5.939a4.454 4.454 0 104.453 4.453 4.459 4.459 0 00-4.454-4.454z"/></g></svg>