<svg xmlns="http://www.w3.org/2000/svg" width="50.68" height="50.678"><g data-name="Сгруппировать 10" fill="#30e2d9"><path data-name="Контур 35" d="M14.848 23.848h-2.97v2.97h-2.97v2.97h2.97v2.969h2.97v-2.969h2.97v-2.97h-2.97v-2.97z"/><path data-name="Контур 36" d="M37.317 29.792a1.485 1.485 0 111.485-1.485 1.486 1.486 0 01-1.485 1.485zm0-5.939a4.454 4.454 0 104.454 4.454 4.459 4.459 0 00-4.454-4.454z"/><rect data-name="Прямоугольник 1" transform="translate(10.393 50.678)"/><path data-name="Контур 37" d="M45.28 43.654c-1.394 2.577-3.214 4.055-4.994 4.055-2.745 0-5.427-3.417-6.674-8.5a4.545 4.545 0 00-4.408-3.376h-7.729a4.546 4.546 0 00-4.408 3.376c-1.247 5.085-3.929 8.5-6.674 8.5-1.779 0-3.6-1.478-4.993-4.055a23.359 23.359 0 01-2.43-10.892c0-5.928 2.524-14.847 7.423-14.847h29.893c5.071 0 7.424 9.317 7.424 14.847a23.359 23.359 0 01-2.43 10.892zm-4.994-28.709H28.033A13.533 13.533 0 0026.039-.002l-2.218 1.974a10.6 10.6 0 01.772 12.971h-14.2C4.565 14.943 0 22.769 0 32.76a26.35 26.35 0 002.788 12.3c1.957 3.619 4.658 5.611 7.605 5.611 5.163 0 8.328-5.745 9.558-10.764a1.589 1.589 0 011.524-1.114H29.2a1.59 1.59 0 011.524 1.114c1.23 5.017 4.394 10.764 9.558 10.764 2.947 0 5.648-1.993 7.605-5.611a26.348 26.348 0 002.788-12.3c0-9.99-4.565-17.816-10.393-17.816z"/></g></svg>