<svg xmlns="http://www.w3.org/2000/svg" width="50.84" height="50.84"><g data-name="Сгруппировать 3" fill="#30e2d9"><path data-name="Контур 11" d="M4.468 44.882a1.489 1.489 0 11-1.489 1.489 1.491 1.491 0 011.489-1.489zm41.9 0a1.489 1.489 0 11-1.489 1.489 1.491 1.491 0 011.489-1.489zm-11.916 2.979a1.489 1.489 0 111.489-1.489 1.491 1.491 0 01-1.489 1.489zM16.38 44.882a1.489 1.489 0 11-1.489 1.489 1.491 1.491 0 011.489-1.489zM4.464 50.84a4.468 4.468 0 001.489-8.681v-3.334h8.937v3.334a4.468 4.468 0 102.979 0v-6.313h-5.958v-2.979H38.92v2.979h-5.958v6.313a4.468 4.468 0 102.979 0v-3.334h8.937v3.334a4.468 4.468 0 102.979 0v-6.313H41.9v-5.958H8.937v5.958H2.979v6.313a4.468 4.468 0 001.489 8.681z"/><path data-name="Контур 12" d="M20.948 2.979h8.937v7.546a4.468 4.468 0 01-2.354 3.938 6.562 6.562 0 00-2.114 1.816 6.567 6.567 0 00-2.114-1.816 4.467 4.467 0 01-2.354-3.938V2.979zm-2.979 7.546a7.443 7.443 0 003.922 6.562 4.222 4.222 0 012.036 3.745v3.1h-2.979v2.979h8.937v-2.979h-2.979v-3.1a4.222 4.222 0 012.036-3.745 7.443 7.443 0 003.922-6.562V5.957h2.984V2.978h-2.98V0H17.973v2.979h-2.979v2.979h2.979v4.568z"/></g></svg>