<svg xmlns="http://www.w3.org/2000/svg" width="51.285" height="51.285"><g data-name="Сгруппировать 14" fill="#30e2d9"><path data-name="Контур 44" d="M48.28 48.28h-3.1v-7.612a4.508 4.508 0 10-9.015 0v7.612h-3v-7.612a7.513 7.513 0 00-15.025 0v7.612h-3.015v-7.612a4.508 4.508 0 10-9.015 0v7.612h-3.1V18.13h45.27v30.15zm-6.11 0h-3.005v-7.612a1.502 1.502 0 113.005 0v7.612zm-12.02 0h-9.015v-7.612a4.508 4.508 0 119.015 0v7.612zm-18.03 0H9.115v-7.612a1.502 1.502 0 113.005 0v7.612zM6.01 3.005h6.11v3H6.01v-3zm18.13 0h6.01v3h-6.01v-3zm18.03 0h6.11v3h-6.11v-3zm9.115 12.12H42.17v-6.11h9.115V0h-12.12v15.125H24.14v-6.11h9.015V0h-12.02v15.125H6.01v-6.11h9.115V0H3.005v15.125H0v36.16h51.285v-36.16z"/><path data-name="Контур 45" d="M12.124 27.145H9.115v-1.5a1.502 1.502 0 013.005 0v1.5zm3-1.5a4.508 4.508 0 00-9.015 0v4.507h9.015v-4.507z"/><path data-name="Контур 46" d="M27.145 27.145h-3v-1.5a1.5 1.5 0 113 0v1.5zm3.005-1.5a4.508 4.508 0 10-9.015 0v4.507h9.015v-4.507z"/><path data-name="Контур 47" d="M42.17 27.145h-3.005v-1.5a1.502 1.502 0 013.005 0v1.5zm3.005-1.5a4.508 4.508 0 00-9.015 0v4.507h9.015v-4.507z"/></g></svg>