<svg width="278" height="262" viewBox="0 0 278 262" fill="none" xmlns="http://www.w3.org/2000/svg">
    <path d="M144.613 172.485C144.347 172.485 144.08 172.352 143.814 172.352C143.681 170.623 143.547 168.762 143.414 167.033C142.881 159.189 142.881 151.078 144.747 143.367C147.945 143.101 151.143 142.702 154.341 141.771C155.807 141.372 157.406 140.84 158.739 140.308C160.072 139.644 161.404 138.979 162.737 138.181C165.135 136.719 167.268 135.123 169.533 133.528C171.665 132.065 173.264 130.204 175.663 129.14C177.395 128.342 179.128 128.741 180.727 129.672C182.726 130.735 184.458 132.065 186.057 133.528C189.655 136.586 192.72 139.91 196.052 143.234C197.784 144.962 199.517 146.425 201.382 148.02C203.381 149.616 205.38 151.078 207.246 152.807C209.378 154.801 210.977 157.061 212.443 159.588C213.109 160.784 213.642 162.114 214.042 163.443C214.308 164.241 214.442 165.039 214.308 165.837C213.775 169.028 209.111 167.698 207.112 167.299C202.848 166.236 198.584 164.64 194.186 165.438C191.521 165.97 189.122 167.299 186.857 168.762C184.325 170.357 181.926 172.352 179.394 174.08C176.996 175.676 174.33 177.005 171.532 177.67C168.6 178.335 165.669 177.936 162.87 177.404C159.938 176.872 156.873 175.942 153.942 175.144C150.61 174.08 147.678 173.016 144.613 172.485Z" fill="#DA7015"/>
    <path d="M37.0729 110.26C39.4716 109.329 42.27 108.93 44.802 108.664C48.1335 108.266 51.5983 108 54.9298 107.468C58.5278 107.069 62.1258 106.404 65.7238 105.872C68.5222 105.473 71.454 104.942 74.3857 104.676C75.3185 104.543 76.2513 104.543 77.1841 104.543C77.7171 104.543 78.3835 104.676 78.9165 104.942C79.8494 105.606 80.5156 106.803 81.1819 107.734C82.248 109.462 83.3141 111.324 84.3802 113.185C87.4451 118.37 90.7767 123.29 94.9077 127.545C97.3064 129.938 99.9715 132.198 102.77 134.193C101.97 137.517 101.038 140.841 99.8383 144.032C97.9726 149.483 94.9077 154.535 90.9099 158.657C89.8438 158.125 88.911 157.726 87.8449 157.328C86.1125 156.663 84.2469 155.998 82.3813 155.466C80.9154 155.067 79.3163 154.668 77.7172 154.402C74.7854 153.738 71.7205 153.073 68.9221 151.743C66.9232 150.68 64.9242 149.217 63.7249 147.09C63.0586 145.893 62.7921 144.563 62.3923 143.367C61.8592 141.638 61.1929 139.91 60.5266 138.314C58.2612 133.661 54.53 130.204 50.2657 127.678C46.4011 125.284 42.27 123.423 38.5387 120.897C36.2733 119.434 32.5421 116.775 33.4749 113.584C34.1412 111.855 35.6071 110.792 37.0729 110.26Z" fill="#DA7015"/>
    <path d="M151.81 174.346C154.741 169.294 157.007 163.843 158.872 158.391C160.738 153.073 162.87 147.887 165.535 142.835C167.534 139.112 169.533 135.522 171.665 131.799C172.731 130.869 173.931 129.938 175.13 129.273C175.263 133.528 174.597 137.783 173.797 141.904C172.731 147.622 171.399 153.206 170.333 158.923C169.133 165.039 167.401 171.022 165.269 176.873C165.136 177.138 165.136 177.271 165.002 177.537C164.203 177.404 163.403 177.271 162.604 177.138C162.737 176.873 162.87 176.474 163.003 176.208C165.136 170.623 166.868 164.906 168.067 159.056C170.199 149.483 172.598 140.176 173.931 130.47C172.065 134.725 169.933 138.846 167.801 142.968C165.136 148.419 162.87 154.137 160.871 159.854C159.006 165.039 157.007 170.225 154.208 175.011C153.942 174.878 153.675 174.878 153.542 174.745C153.009 174.745 152.476 174.612 151.81 174.346Z" fill="#FFCE33"/>
    <path d="M178.328 163.843C178.461 167.167 178.728 170.624 178.861 173.948C178.195 174.347 177.529 174.746 176.862 175.144C176.729 171.289 176.463 167.566 176.329 163.71C176.063 157.594 176.463 151.478 176.729 145.362C176.996 140.442 176.996 135.39 175.93 130.603C175.796 130.071 175.53 129.672 175.396 129.141C176.463 128.609 177.529 128.609 178.461 128.875C184.591 133.528 189.122 140.442 193.92 146.425C197.118 150.547 200.05 154.669 202.715 159.189C204.047 161.45 205.247 163.843 206.313 166.236C206.446 166.502 206.579 166.768 206.713 167.034H206.579C205.913 166.901 205.247 166.635 204.58 166.502C203.514 164.242 202.182 161.981 200.982 159.987C198.45 155.599 195.519 151.478 192.454 147.622C187.523 141.24 182.859 134.193 176.463 129.274C180.993 138.315 186.057 146.957 188.989 156.663C189.922 159.721 190.855 162.779 191.654 165.837C191.121 166.103 190.455 166.236 189.922 166.502C189.122 163.311 188.189 160.12 187.257 157.062C185.658 151.611 183.392 146.558 180.86 141.373C179.927 139.511 178.995 137.783 178.195 135.921C178.462 138.714 178.595 141.373 178.461 144.165C178.461 150.813 178.062 157.328 178.328 163.843Z" fill="#FFCE33"/>
    <path d="M35.7402 118.503C40.0046 117.041 44.5354 116.11 49.0662 115.046C59.0607 112.919 69.455 110.393 77.9836 104.543C78.3834 104.543 78.6499 104.676 79.0497 104.942C79.4495 105.208 79.8492 105.606 80.1158 106.005C81.9814 111.324 83.5805 116.775 84.3801 122.359C85.4462 128.874 85.3129 135.389 84.6466 141.904C84.1136 146.425 83.1808 150.813 81.9814 155.2C81.1819 154.934 80.249 154.801 79.4495 154.535C80.6488 150.015 81.7149 145.627 82.248 140.974C83.0475 134.99 83.1807 128.741 82.5144 122.758C81.9814 117.839 80.7821 113.052 79.5828 108.133C78.9165 118.238 76.651 128.475 73.1862 138.048C71.5871 142.436 69.5882 146.558 67.4561 150.68C66.6565 150.148 65.9902 149.616 65.3239 148.951C67.3228 144.829 69.3218 140.708 70.9209 136.453C74.3856 127.412 76.9176 117.573 78.2502 107.867C77.0508 110.526 74.7854 112.653 72.9198 114.914C69.7215 118.902 66.39 122.891 62.9253 126.614C60.9264 128.741 58.9274 130.736 56.7953 132.597C56.2622 132.065 55.8625 131.533 55.3295 131.135C56.9286 129.672 58.5277 128.209 60.1268 126.747C63.4583 123.423 66.5233 119.833 69.5883 116.376C71.1874 114.648 72.6532 112.919 74.3856 111.191C75.8515 109.595 77.3173 108 77.9836 106.005C74.7854 108.93 70.521 110.792 66.5232 112.254C61.7259 114.116 56.6621 115.445 51.5982 116.642C46.9341 117.706 42.27 118.636 37.7391 120.099C37.0728 119.567 36.4065 119.035 35.7402 118.503Z" fill="#FFCE33"/>
    <path d="M160.606 136.453C163.138 135.39 165.536 133.927 167.802 132.464C169.534 131.401 171.533 129.406 173.665 128.742C174.065 127.412 174.731 126.082 175.264 124.753C175.664 123.689 175.797 122.094 177.13 121.695C177.396 121.562 177.663 121.695 177.796 121.961C178.729 123.024 177.796 124.886 177.396 125.949C177.13 126.614 176.863 127.279 176.464 127.944C176.863 127.678 177.13 127.412 177.53 127.146C178.596 126.215 179.529 125.152 180.461 124.221C181.261 123.423 182.727 124.487 182.327 125.418C181.927 126.747 180.861 128.077 179.529 129.14C180.461 129.14 181.261 129.273 182.06 129.539C183.393 129.805 183.26 131.933 181.927 132.199C180.461 132.464 178.996 132.199 177.53 131.933C176.597 131.8 175.797 131.667 174.998 131.401C173.532 132.996 171.133 134.06 169.401 135.124C166.869 136.719 164.204 138.182 161.538 139.378C157.008 141.373 151.544 144.564 146.48 143.5C145.814 143.367 146.08 142.569 146.48 142.436C151.144 140.708 155.808 138.581 160.606 136.453Z" fill="#122528"/>
    <path d="M73.1865 101.884C73.9861 102.017 74.9189 102.149 75.7185 102.548C74.9189 101.618 73.9861 100.554 73.453 99.3573C72.7867 97.8948 74.6524 96.6981 75.7185 97.7618C76.6513 98.6925 77.3176 100.022 77.9839 101.086C78.1172 101.219 78.1172 101.352 78.2505 101.485C78.1172 100.288 78.1172 99.0914 78.2505 97.7618C78.3837 97.23 78.6502 96.5652 79.3165 96.5652C79.583 96.5652 79.7163 96.5652 79.9828 96.5652C80.3826 96.6981 80.7824 97.097 80.9157 97.6289C81.1822 99.8892 80.3826 102.017 79.9828 104.144C81.5819 106.537 82.7813 109.196 84.2471 111.723C85.8463 114.781 87.5786 117.706 89.4442 120.631C92.5092 125.284 95.8408 129.938 100.905 132.597C101.438 132.863 101.038 133.661 100.638 133.528C95.3077 133.129 91.0434 127.545 88.2449 123.423C86.3793 120.631 84.5137 117.839 82.9145 114.914C81.1822 111.855 79.3165 108.797 77.8506 105.606C76.1182 105.075 74.2526 104.942 72.5202 104.41C71.3209 104.144 71.7207 101.751 73.1865 101.884Z" fill="#122528"/>
    <path d="M112.766 249.867C113.165 248.272 113.832 246.942 114.631 245.612C115.564 244.017 116.497 242.554 117.43 241.092C118.096 239.895 118.895 238.698 119.162 237.369C119.962 237.236 120.894 237.103 121.694 236.97C122.094 236.837 122.494 236.837 122.893 236.704C122.627 238.964 121.561 241.225 120.761 243.219C119.562 246.144 118.096 249.202 117.696 252.26C122.094 253.723 126.625 251.861 131.155 252.925C132.488 253.191 133.954 253.856 135.153 254.654C135.686 255.052 136.219 255.584 135.953 256.382C135.82 257.047 135.02 257.446 134.487 257.579C133.554 257.978 132.488 258.111 131.422 258.376C129.023 258.775 126.491 258.908 124.093 258.908C121.561 258.908 119.029 258.509 116.63 257.978C114.498 257.579 112.766 256.515 112.366 254.255C111.966 252.792 112.366 251.33 112.766 249.867Z" fill="#122528"/>
    <path d="M26.6793 211.442C28.5449 211.309 30.4105 212.505 31.4766 213.968C34.5416 217.558 35.7409 222.211 37.8731 226.333C38.8059 225.668 39.4722 224.738 40.1385 223.94C41.3378 222.344 42.4039 220.616 43.47 218.887C44.4028 217.292 45.3357 215.696 46.002 213.968C46.002 213.835 46.1352 213.835 46.1352 213.702C46.2685 213.835 46.4017 214.101 46.4017 214.234C46.9348 215.165 47.6011 216.095 48.2674 217.026C47.6011 218.755 46.8015 220.483 46.1352 222.211C45.2024 224.339 44.4028 226.466 43.2035 228.328C42.2706 229.923 41.2046 231.386 39.6055 232.316C35.3412 234.843 31.7432 228.992 30.0108 226.067C28.9447 224.073 27.7453 222.078 26.8125 220.084C25.8797 218.09 24.8136 215.829 24.8136 213.702C24.6803 212.505 25.3467 211.575 26.6793 211.442Z" fill="#122528"/>
    <path d="M214.575 97.3629C212.709 94.0389 211.377 90.449 208.845 87.5239C207.912 86.4603 206.979 85.5295 206.047 84.4659C209.645 76.6213 211.377 66.3834 205.38 57.2092C191.788 36.8665 187.657 24.3683 162.604 12.0031C131.954 -3.28718 68.389 -4.08494 53.5972 10.2746C42.9364 20.6455 70.7877 23.9694 90.91 79.0145C95.7073 92.0445 101.171 119.966 98.7722 133.262C96.6401 144.696 86.2458 159.987 77.7172 167.831C73.5861 171.687 68.6555 174.878 63.4584 177.271C57.5949 179.798 50.6654 182.59 44.4022 181.127C23.2139 176.341 25.346 158.657 22.8141 159.721C21.215 160.386 17.617 168.23 20.2822 184.318C21.7481 193.226 26.812 202.534 34.9408 211.309C39.6049 216.361 47.6004 222.212 54.1302 226.2C58.3945 228.86 62.7921 231.253 67.0564 232.848C77.1842 236.837 87.7117 239.762 98.5057 241.092C108.367 242.288 119.428 243.485 128.223 237.768C133.153 234.577 137.018 230.189 139.417 224.738C142.082 218.755 143.414 212.373 144.48 205.991C146.879 192.163 146.213 177.936 146.879 163.975C147.545 150.015 148.478 135.256 156.207 123.423C168.334 104.543 176.996 98.1607 186.057 97.4959C195.386 96.6981 206.446 100.554 212.71 98.6925C213.642 99.7562 215.375 98.6925 214.575 97.3629Z" fill="#FFCE33"/>
    <path d="M98.372 241.358C87.578 240.028 77.0505 236.97 66.9227 233.114C63.5912 231.785 60.1264 230.056 56.7949 228.062C57.0614 226.865 57.328 225.536 57.5945 224.472C59.1936 217.691 61.7255 211.176 64.524 204.927C71.0537 190.701 79.8489 176.873 92.2421 167.034C97.7058 162.779 103.436 158.126 110.365 156.264C113.43 155.466 116.495 155.466 119.56 156.264C123.158 157.195 126.357 159.322 129.155 161.848C134.485 166.502 137.417 173.15 139.016 179.931C140.615 186.978 140.749 194.423 139.683 201.603C137.417 216.761 129.422 230.189 119.427 241.624C112.764 243.086 105.302 242.156 98.372 241.358Z" fill="#E3DCD5"/>
    <path d="M152.876 52.423C155.275 53.2207 159.006 56.4118 156.607 59.0709C156.208 59.4698 155.674 59.7357 155.141 60.0016C152.343 61.7301 148.345 60.0016 147.945 56.8106C147.412 53.7526 149.944 51.3593 152.876 52.423Z" fill="#122528"/>
    <path d="M251.354 102.282C247.49 92.1774 240.56 83.4021 233.364 75.9564C229.1 71.5687 224.303 67.7129 219.905 63.5911C217.773 61.7297 215.774 59.6024 213.642 57.8739C211.243 56.0125 207.512 50.0293 200.449 52.5555C197.651 53.4863 192.454 55.8795 189.788 57.0762C185.257 59.0705 180.593 61.0649 176.462 63.8571C173.397 65.9844 169.933 69.1754 170.332 73.5631C170.732 78.2167 174.197 81.9395 177.129 84.8646C184.325 92.1774 193.52 98.1605 202.848 101.617C220.305 108.132 237.762 106.803 244.958 105.739C246.824 105.473 248.556 105.074 250.422 104.676C251.354 104.41 251.621 103.213 251.354 102.282Z" fill="#DA7015"/>
    <path d="M76.6507 12.1361C76.5175 11.8702 76.5175 11.7372 76.6507 11.4713C77.9833 6.81771 85.8456 6.28587 89.7102 6.95067C90.2432 7.08363 90.643 7.34955 90.643 8.01435C90.643 8.28026 90.643 8.41322 90.643 8.67914C90.7763 8.94506 90.7763 9.21098 90.643 9.4769C90.3765 10.1417 89.8435 10.8065 89.3104 11.2054C86.6452 13.8646 80.915 13.9975 77.7168 13.7316C76.784 13.4657 76.3842 12.8009 76.6507 12.1361Z" fill="white"/>
    <path d="M103.57 10.4074C102.504 10.6733 101.438 10.5404 100.371 10.2744C99.9717 10.1415 99.7051 9.74261 99.8384 9.34373C99.9716 8.1471 100.638 7.08343 101.704 6.68455C102.903 6.15271 104.236 6.41863 105.435 6.81751C105.968 6.95046 106.235 7.4823 106.102 8.01414C105.835 8.8119 105.435 9.47669 104.769 9.87557C104.369 10.1415 103.836 10.2744 103.57 10.4074Z" fill="white"/>
    <path d="M117.828 4.02552C118.361 4.15848 118.761 4.69032 118.494 5.22216C117.561 6.68471 116.096 7.34949 114.496 7.08358C113.697 7.21653 112.764 7.08358 111.965 6.95062C111.698 6.81766 111.431 6.41878 111.565 6.15287C112.631 3.62664 115.562 3.49368 117.828 4.02552Z" fill="white"/>
    <path d="M113.831 12.1361C113.697 12.535 113.964 12.9338 114.364 13.0668C116.096 13.5986 117.962 13.8646 119.827 13.8646C121.693 14.1305 123.559 13.9975 124.758 12.8009C124.758 12.8009 124.891 12.8009 124.891 12.6679C125.291 12.535 125.424 12.0031 125.424 11.6043C125.557 11.3383 125.557 11.0724 125.691 10.8065C125.691 10.4076 125.424 10.0087 125.024 9.87579C121.959 9.34395 115.296 8.41323 113.831 12.1361ZM115.829 12.0031C115.963 11.8702 115.963 11.8702 116.096 11.7372C116.096 11.8702 116.096 11.8702 116.096 12.0031C115.963 12.0031 115.829 12.0031 115.829 12.0031Z" fill="white"/>
    <path d="M133.287 6.9507C134.486 6.55183 135.552 6.41887 136.752 6.81775C137.818 6.9507 139.15 7.34958 139.284 8.28029C139.55 9.60989 137.951 10.0088 136.885 10.1417C136.618 10.1417 136.485 10.1417 136.219 10.1417C135.286 10.2747 134.22 10.1417 133.42 9.60989C133.154 9.47693 133.02 9.21101 132.887 8.94509C132.887 8.94509 132.754 8.94509 132.754 8.81213C132.221 8.14734 132.487 7.21662 133.287 6.9507Z" fill="white"/>
    <path d="M64.7908 8.54621C65.3238 7.6155 66.1234 7.08366 67.0562 6.81774C67.456 6.55182 67.7226 6.41886 68.2556 6.41886C69.1884 6.2859 70.1212 6.41886 70.9208 6.68478C71.4538 6.9507 71.7203 7.6155 71.4538 8.14733C70.1212 10.2747 67.5893 10.6736 65.3239 10.0088C64.6576 9.8758 64.5243 9.21101 64.7908 8.54621Z" fill="white"/>
    <path d="M76.5177 16.3907C76.9175 16.5237 77.184 16.9225 77.184 17.3214C76.9175 18.9169 76.118 19.9806 74.5188 19.9806C73.9858 19.9806 73.3195 19.9806 72.7865 19.5817C72.52 19.5817 72.2534 19.4488 72.1202 19.4488C71.5871 19.3158 71.3206 18.9169 71.4539 18.5181C71.9869 16.1248 74.5188 15.593 76.5177 16.3907Z" fill="white"/>
    <path d="M94.3745 22.6402C94.5078 21.8424 94.9076 21.1776 95.7071 20.7787C97.173 20.1139 98.9054 20.6458 100.238 21.1776C100.771 21.3106 101.038 21.9754 100.904 22.3742C100.371 23.5709 99.4384 24.2357 98.2391 24.6346C97.173 25.1664 95.9736 25.2994 95.1741 24.6346C95.0408 24.6346 94.9076 24.6346 94.9076 24.5016C94.1081 24.2357 93.9748 23.4379 94.3745 22.9061C94.3745 22.9061 94.3745 22.7731 94.3745 22.6402Z" fill="white"/>
    <path d="M164.602 19.0498C167.134 19.4487 170.332 20.3794 170.998 23.1715C170.998 23.3045 170.998 23.4375 170.998 23.5704C170.998 23.7034 170.998 23.8363 171.132 23.9693C171.265 24.5011 170.865 24.9 170.332 24.9C167.933 24.7671 165.268 23.5704 164.202 21.3101C164.069 21.1772 164.069 21.0442 163.936 21.0442C163.669 20.7783 163.669 20.5124 163.802 20.2464C163.669 19.5816 164.069 19.0498 164.602 19.0498Z" fill="white"/>
    <path d="M174.996 30.4844C175.263 30.4844 175.529 30.6173 175.929 30.7503C176.729 30.8833 177.262 31.1492 177.795 31.681C179.66 33.0106 180.86 35.138 180.993 37.2653C180.993 37.7971 180.46 38.196 179.927 38.196C179.394 38.196 178.994 38.196 178.594 38.0631C178.461 38.196 178.194 38.329 178.061 38.329C176.729 38.7279 175.396 37.5312 174.596 36.6005C173.53 35.4039 172.198 33.5425 172.464 31.814C172.731 30.7503 173.93 30.3514 174.996 30.4844Z" fill="white"/>
    <path d="M85.0469 196.817C91.9764 183.255 99.8387 170.092 107.834 157.062C108.234 156.929 108.634 156.796 109.034 156.663C101.305 169.56 93.7088 182.59 86.9125 196.152C82.5149 204.927 78.5171 213.969 74.9191 223.143C73.4533 226.866 72.1206 230.721 70.788 234.577C70.255 234.311 69.5887 234.178 69.0557 233.912C70.5215 230.057 71.9874 226.334 73.4532 222.611C77.0512 213.836 80.7825 205.193 85.0469 196.817Z" fill="white"/>
    <path d="M77.9836 192.163C81.9814 183.92 86.1124 175.543 91.1763 167.832C91.576 167.566 91.9759 167.167 92.2424 166.901C93.042 166.236 93.8415 165.704 94.6411 165.04C88.5111 173.549 83.9803 183.255 79.4494 192.695C75.1851 201.603 71.1873 210.645 67.456 219.686C65.8569 223.542 64.2578 227.397 62.7919 231.253C62.2589 230.987 61.5926 230.721 61.0596 230.323C62.3922 226.733 64.1245 223.143 65.4571 219.819C69.4549 210.512 73.586 201.204 77.9836 192.163Z" fill="white"/>
    <path d="M128.623 205.858C131.288 198.811 133.553 191.498 135.153 184.053C135.952 180.33 136.618 176.607 136.752 172.884C137.151 173.815 137.551 174.878 137.818 175.809C137.551 178.202 137.285 180.596 136.752 182.989C135.153 190.834 132.621 198.678 129.955 206.257C127.29 213.703 123.959 220.882 120.361 227.929C117.962 232.716 115.297 237.635 112.365 242.156C111.832 242.156 111.299 242.156 110.633 242.156C113.298 237.635 115.963 233.115 118.362 228.461C122.36 221.281 125.824 213.703 128.623 205.858Z" fill="white"/>
    <path d="M88.5111 220.749C91.8426 212.373 95.3074 204.129 98.6389 195.753C101.571 188.041 104.902 180.596 108.633 173.15C111.432 167.433 114.364 161.715 116.895 155.865C117.295 155.865 117.562 155.998 117.962 155.998C115.696 161.582 113.164 166.901 110.499 172.219C106.634 180.064 103.17 188.041 99.9715 196.152C96.9065 204.262 93.575 212.373 90.2435 220.483C88.5111 224.605 86.912 228.86 85.3129 232.982C84.6466 234.843 83.9803 236.704 83.314 238.433C82.7809 238.3 82.2479 238.167 81.7148 238.034C82.3811 236.438 82.9142 234.843 83.5805 233.247C85.1796 228.993 86.9119 224.871 88.5111 220.749Z" fill="white"/>
    <path d="M99.0393 222.079C102.904 214.899 105.836 207.32 108.367 199.609C113.032 185.515 117.829 171.289 121.693 156.929C121.96 157.062 122.36 157.195 122.626 157.328C118.895 171.953 113.964 186.313 109.3 200.673C106.902 208.251 103.837 215.697 100.105 222.744C97.0404 228.594 93.3091 234.843 88.5117 239.63C87.9787 239.497 87.4457 239.364 87.0459 239.231C89.0448 236.837 90.9104 234.577 92.7761 232.051C95.1747 228.993 97.1737 225.536 99.0393 222.079Z" fill="white"/>
    <path d="M108.233 224.605C113.164 216.893 117.295 208.517 120.36 199.875C123.025 192.429 125.823 184.983 127.956 177.272C129.288 172.751 130.354 168.097 130.887 163.444C131.287 163.843 131.554 164.242 131.953 164.64C130.754 176.607 125.69 188.44 121.959 199.742C119.027 208.251 115.029 216.495 110.232 224.073C107.7 228.195 104.902 232.184 101.97 235.907C100.637 237.635 99.1714 239.496 97.7056 241.225C97.1725 241.092 96.6395 241.092 96.1064 240.959C97.5723 239.231 99.0381 237.502 100.504 235.641C103.169 232.184 105.834 228.461 108.233 224.605Z" fill="white"/>
    <path d="M122.226 169.427C121.959 167.432 122.759 165.039 123.292 163.178C123.425 162.646 124.225 162.779 124.225 163.311C124.091 164.241 123.825 165.305 123.692 166.236C123.558 167.299 123.425 168.363 123.025 169.294C122.892 169.826 122.226 169.959 122.226 169.427Z" fill="white"/>
    <path d="M118.495 180.463C118.628 178.335 119.828 176.075 120.627 174.081C120.761 173.549 121.56 173.815 121.427 174.347C120.761 176.341 120.361 179 119.295 180.729C119.028 181.128 118.495 180.862 118.495 180.463Z" fill="white"/>
    <path d="M114.631 193.227C114.764 191.897 115.297 190.701 115.83 189.371C116.363 188.041 116.763 186.712 117.029 185.249C117.163 184.717 118.095 184.85 117.962 185.382C117.562 187.908 116.896 191.232 115.43 193.36C115.164 193.892 114.497 193.759 114.631 193.227Z" fill="white"/>
    <path d="M109.166 208.65C109.299 207.453 109.832 206.257 110.232 205.193C110.765 203.863 111.298 202.667 111.831 201.337C112.098 200.805 112.897 201.071 112.764 201.603C112.098 203.996 111.698 207.055 109.966 209.049C109.699 209.182 109.166 208.916 109.166 208.65Z" fill="white"/>
    <path d="M104.502 220.883C104.769 219.42 105.435 218.09 105.968 216.628C106.368 215.298 106.901 214.102 107.567 212.905C107.834 212.506 108.5 212.772 108.5 213.171C108.1 215.963 107.434 219.287 105.568 221.414C104.902 221.946 104.369 221.414 104.502 220.883Z" fill="white"/>
    <path d="M101.038 224.871C101.437 224.472 102.104 225.004 101.704 225.536C100.904 226.732 100.105 227.929 99.4386 229.258C98.9055 230.322 98.3725 231.785 97.3064 232.449C97.0399 232.582 96.5068 232.316 96.5068 231.918C96.6401 230.721 97.573 229.524 98.2393 228.461C99.0388 227.131 99.8384 225.934 101.038 224.871Z" fill="white"/>
    <path d="M104.102 171.953C102.903 173.549 101.837 175.144 100.904 176.873C100.105 178.468 99.5715 180.197 98.3722 181.526C97.9724 181.925 97.4394 181.393 97.5726 180.994C98.3722 177.537 101.037 173.948 103.436 171.421C103.836 170.889 104.369 171.554 104.102 171.953Z" fill="white"/>
    <path d="M90.5101 195.62C90.5101 194.157 91.3097 193.094 91.976 191.764C92.9089 190.036 93.8417 188.44 94.6412 186.712C94.9078 186.18 95.7073 186.446 95.5741 186.978C95.1743 188.706 94.5079 190.302 93.8416 191.897C93.3086 193.36 92.5091 195.088 91.3097 196.019C90.91 196.285 90.3769 196.019 90.5101 195.62Z" fill="white"/>
    <path d="M84.2465 212.107C83.9799 212.373 83.4469 212.24 83.3136 211.841C83.1804 209.98 84.1131 207.985 84.7794 206.257C85.579 204.262 86.5119 202.401 87.9777 200.672C88.3775 200.141 89.1771 200.672 88.9106 201.337C87.8445 203.332 87.0449 205.459 86.2454 207.586C85.7123 209.182 85.4458 210.91 84.2465 212.107Z" fill="white"/>
    <path d="M81.5815 216.229C81.848 215.697 82.7807 216.096 82.5142 216.628C81.8479 218.356 81.3149 220.217 80.7819 222.079C80.2488 223.674 79.9824 225.536 78.9163 226.865C78.5165 227.264 77.9834 227.131 77.9834 226.6C77.8502 224.871 78.6497 223.276 79.316 221.547C79.8491 219.686 80.6487 217.957 81.5815 216.229Z" fill="white"/>
    <path d="M130.888 209.581C131.154 206.656 132.487 203.598 133.553 200.806C133.819 200.141 134.619 200.54 134.485 201.071C133.686 203.864 133.286 207.188 131.687 209.714C131.421 210.113 130.754 209.98 130.888 209.581Z" fill="white"/>
    <path d="M129.422 215.032C129.022 216.628 128.622 218.09 128.089 219.553C127.689 220.883 127.29 222.345 126.49 223.409C126.223 223.808 125.69 223.542 125.69 223.143C125.69 221.68 126.357 220.484 126.89 219.154C127.423 217.692 128.089 216.229 128.755 214.766C128.889 214.235 129.555 214.501 129.422 215.032Z" fill="white"/>
    <path d="M124.092 228.86C124.625 228.461 125.158 229.125 124.758 229.524C122.626 231.785 121.826 235.375 119.294 237.236C118.761 237.635 118.228 237.103 118.495 236.438C119.294 234.976 120.36 233.513 121.293 232.184C122.093 230.987 123.026 229.79 124.092 228.86Z" fill="white"/>
    <path d="M70.9209 201.869C71.0542 200.806 71.5872 199.742 71.987 198.811C72.52 197.482 72.9197 196.152 73.4528 194.955C73.7193 194.291 74.6521 194.689 74.3856 195.221C73.9858 196.551 73.5861 197.881 73.053 199.21C72.6532 200.274 72.3868 201.337 71.5872 202.268C71.4539 202.534 70.9209 202.268 70.9209 201.869Z" fill="white"/>
    <path d="M65.057 211.442C65.8565 209.979 66.6561 208.517 67.589 207.054C67.8555 206.523 68.655 206.921 68.5217 207.453C67.9887 208.783 67.3224 210.112 66.7894 211.442C66.2563 212.639 65.9898 214.101 65.057 215.165C64.7905 215.431 64.2574 215.298 64.1242 214.899C63.8576 213.569 64.5239 212.506 65.057 211.442Z" fill="white"/>
    <path d="M226.989 254.227C227.134 252.921 227.497 251.471 228.512 250.601C228.73 250.455 229.092 250.383 229.237 250.601C230.253 251.833 231.05 253.284 231.703 254.734C233.009 254.299 234.386 253.864 235.692 253.501C237.215 253.066 238.738 252.704 240.261 252.341C240.768 250.528 241.131 248.715 241.059 246.829C241.059 246.322 241.856 246.104 242.074 246.539C242.799 248.135 243.234 249.875 243.96 251.543C247.441 250.891 250.994 250.31 254.548 249.658C259.915 248.642 265.644 247.627 270.503 245.089C271.156 244.799 271.808 244.363 272.461 243.928C271.446 242.623 270.358 241.463 269.778 239.867C269.633 239.432 270.213 238.997 270.576 239.287C272.099 240.23 273.767 240.737 275.29 241.608C276.305 240.52 276.958 239.287 277.103 237.836C277.465 233.92 271.736 232.107 268.835 231.744C268.182 231.672 267.602 231.599 266.949 231.599C266.587 233.05 266.079 234.428 264.991 235.371C264.701 235.588 264.339 235.588 264.194 235.298C263.686 234.428 263.106 232.977 262.235 232.035C259.407 232.542 256.651 233.34 253.968 234.21C254.04 234.718 254.113 235.298 254.113 235.733C254.185 236.749 254.185 237.836 253.968 238.779C253.895 239.069 253.605 239.214 253.315 239.142C252.082 238.779 251.357 237.836 250.414 237.039C249.906 236.603 249.326 236.241 248.819 235.878C244.757 237.256 240.769 238.707 236.852 240.302C233.154 241.825 229.455 243.421 225.756 245.089C227.062 244.001 228.295 242.913 229.527 241.825C231.703 239.867 233.879 237.836 235.982 235.878C235.257 234.428 234.822 232.687 234.967 231.164C235.039 230.802 235.402 230.512 235.764 230.729C236.707 231.309 237.94 232.18 238.738 233.195C241.059 230.947 243.234 228.698 245.483 226.378C247.223 224.565 248.891 222.679 250.559 220.793C250.197 220.503 249.906 220.213 249.616 219.923C248.093 218.328 246.063 215.789 246.353 213.469C246.425 213.106 246.788 212.816 247.151 213.033C248.746 213.904 250.197 214.846 251.865 215.499C252.59 215.789 253.315 216.152 253.968 216.66C255.708 214.339 257.304 211.946 258.609 209.407C259.407 207.884 260.205 206.071 260.712 204.331C258.972 204.041 257.086 203.098 255.998 201.937C255.781 201.72 255.781 201.285 256.071 201.14C257.521 200.269 259.479 200.269 261.293 200.414C261.293 198.094 260.64 195.845 258.754 193.96C256.796 192.074 254.33 191.131 251.647 191.567C249.109 192.002 246.788 193.452 244.757 195.048C245.192 195.628 245.555 196.208 245.773 196.571C246.715 198.021 248.093 200.052 247.586 201.865C247.513 202.227 247.006 202.372 246.715 202.082C245.192 200.487 243.524 198.964 241.639 197.658C238.23 200.85 235.184 204.548 232.356 208.392C232.718 208.827 233.009 209.407 233.226 209.697C234.024 211.003 234.459 212.381 234.169 213.976C234.096 214.194 233.879 214.339 233.661 214.339C231.993 214.339 230.76 213.033 229.237 212.671C229.092 212.888 228.947 213.106 228.802 213.324C228.585 213.614 228.367 213.976 228.077 214.266C228.367 215.427 229.02 216.515 229.31 217.675C229.6 218.908 229.31 220.286 229.237 221.519C229.237 221.809 229.02 222.099 228.73 222.026C226.844 221.881 225.031 220.938 223.145 220.938C221.767 222.679 220.172 224.275 218.721 225.943C217.706 227.103 216.546 228.844 215.385 231.019C216.618 232.905 218.721 234.573 218.576 236.966C218.576 237.329 218.214 237.546 217.924 237.474C216.328 237.111 214.805 235.951 213.572 234.645C212.122 237.764 210.744 241.318 209.656 245.016C210.309 242.188 211.904 229.931 211.977 227.03C212.049 225.87 211.977 224.565 211.759 223.187C211.324 223.404 210.816 223.622 210.381 223.767C209.438 224.129 208.278 224.565 207.263 224.275C206.973 224.202 206.828 223.912 206.9 223.622C207.408 221.664 208.641 219.706 210.019 218.11C209.076 216.732 207.843 215.644 206.03 215.427C202.839 214.992 199.14 216.877 196.747 218.908C194.934 220.431 194.281 222.752 194.064 225.145C195.949 225.435 197.907 225.507 199.72 226.378C200.083 226.523 200.01 226.958 199.793 227.175C199.068 228.118 197.835 228.263 196.747 228.481C195.804 228.698 194.934 228.989 194.064 229.279C194.064 229.424 194.064 229.496 194.064 229.641C194.281 232.47 194.789 235.226 194.861 238.054C194.934 241.1 194.789 244.146 194.934 247.119C194.934 247.264 194.934 247.482 194.934 247.627C193.411 245.306 191.888 242.986 190.22 240.737C189.277 241.535 188.262 242.26 187.246 242.623C186.884 242.768 186.449 242.333 186.594 241.97C187.029 240.665 187.826 239.649 188.624 238.634C187.826 237.619 186.956 236.603 186.086 235.661C184.635 234.065 183.112 232.542 181.444 231.237C181.009 231.454 180.574 231.672 180.212 231.889C179.124 232.542 178.108 233.05 176.876 232.905C176.585 232.832 176.44 232.542 176.513 232.252C176.876 231.019 177.601 229.931 178.471 228.989C177.528 228.336 176.513 227.683 175.425 227.175C174.265 226.523 173.032 226.015 171.799 225.58C171.001 226.958 169.768 228.553 168.39 229.134C168.028 229.279 167.738 228.916 167.738 228.626C167.592 227.175 167.738 225.798 167.955 224.42C166.07 223.984 164.039 223.622 162.081 223.912C158.455 224.347 154.683 226.233 153.741 229.714C153.16 231.889 153.668 234.138 154.683 236.241C156.786 235.371 158.89 234.645 161.065 233.993C161.646 233.848 161.863 234.5 161.573 234.863C160.123 236.676 158.019 237.546 156.134 238.634C156.786 239.504 157.512 240.375 158.237 241.027C160.268 242.986 162.733 244.436 165.272 245.596C165.924 244.726 166.505 243.783 167.157 242.841C167.738 242.043 168.608 240.955 169.623 240.81C169.986 240.737 170.276 240.955 170.276 241.318C170.348 243.348 170.131 245.306 169.986 247.337C170.493 247.482 171.074 247.7 171.581 247.845C172.887 246.467 173.902 244.871 174.99 243.348C175.28 242.986 175.788 243.058 175.933 243.493C176.368 244.654 176.44 246.032 176.368 247.264C176.368 247.917 176.295 248.57 176.223 249.223C177.963 249.73 179.704 250.238 181.444 250.891C184.563 252.051 187.609 253.356 190.51 254.952C192.613 256.112 194.426 257.78 196.529 259.086C198.27 260.174 200.155 260.899 202.186 261.116C205.232 263.075 212.049 261.261 214.588 260.609C218.721 259.593 222.71 258.143 226.699 256.692C226.844 255.677 226.844 254.952 226.989 254.227Z" fill="#E3DCD5"/>
    <path d="M276.885 235.951C270.068 236.313 263.831 239.287 257.376 241.317C253.822 242.405 250.051 242.333 246.425 242.623C243.016 242.913 239.608 244.146 236.417 245.234C233.008 246.394 229.527 247.047 226.264 248.497C223.073 249.948 220.172 252.051 217.126 253.791C213.935 255.604 210.236 256.547 206.755 257.563C205.087 258.07 203.491 258.795 202.258 259.956C203.129 258.143 204.579 256.547 205.957 255.242C208.205 253.066 210.381 250.745 212.702 248.57C214.877 246.467 217.633 245.016 219.882 242.985C221.985 241.1 223.58 238.707 224.596 236.096C225.248 234.573 225.683 232.832 226.844 231.599C227.787 230.584 229.092 230.221 230.107 229.351C231.195 228.408 232.065 227.32 232.863 226.087C233.879 224.71 235.039 223.477 236.127 222.099C237.07 221.011 237.867 219.85 238.375 218.545C239.1 216.877 239.39 215.136 240.406 213.613C242.219 210.93 245.047 209.262 247.585 207.376C250.269 205.346 252.009 203.098 252.952 199.834C253.822 197.006 254.765 194.105 257.086 192.292C256.723 192.074 256.288 191.856 255.853 191.711C254.62 192.799 253.677 194.25 253.025 195.845C251.937 198.529 251.574 201.502 249.689 203.75C247.875 205.926 245.337 207.449 243.089 209.117C240.623 211.003 238.81 213.323 237.867 216.297C237.36 218.037 236.634 219.488 235.547 220.938C234.604 222.171 233.443 223.259 232.501 224.492C231.558 225.797 230.76 227.103 229.6 228.191C228.584 229.133 227.279 229.569 226.264 230.511C225.248 231.382 224.741 232.615 224.233 233.847C223.58 235.515 222.927 237.184 221.985 238.707C220.389 241.245 218.141 243.058 215.675 244.653C211.977 247.119 209.293 250.6 206.102 253.574C204.362 255.169 202.331 257.127 201.316 259.448C201.316 259.303 201.243 259.158 201.243 258.941C200.808 256.547 200.59 254.009 200.88 251.543C201.461 247.192 203.854 243.058 203.781 238.561C203.781 236.458 202.911 234.428 202.766 232.324C202.621 230.004 203.201 227.683 203.346 225.435C203.491 222.026 202.984 218.835 201.461 215.862C201.098 216.007 200.735 216.152 200.373 216.369C202.041 219.56 202.331 223.042 202.113 226.668C201.968 228.843 201.461 231.019 201.678 233.195C201.896 235.298 202.694 237.329 202.621 239.432C202.548 241.607 201.678 243.783 201.098 245.814C200.445 247.917 199.865 250.02 199.647 252.268C199.43 254.299 199.647 256.402 199.938 258.433C199.938 258.65 200.01 258.795 200.01 259.013C199.865 258.795 199.72 258.578 199.575 258.36C198.052 256.33 196.457 254.227 194.643 252.413C192.323 250.093 189.639 248.207 187.101 246.249C184.708 244.363 181.879 242.985 179.994 240.52C179.268 239.649 178.616 238.779 177.745 238.054C176.585 237.184 175.207 236.676 173.829 236.168C172.306 235.588 170.928 234.79 169.768 233.63C168.68 232.615 167.882 231.382 166.722 230.366C165.417 229.278 163.748 228.916 162.153 228.481C160.267 227.973 158.382 227.538 156.496 226.885C156.206 226.813 155.916 226.668 155.626 226.523C155.336 226.813 155.046 227.175 154.828 227.538C156.641 228.481 159.542 229.061 160.267 229.278C161.79 229.714 163.386 229.931 164.836 230.584C166.142 231.164 167.012 232.325 167.882 233.34C168.898 234.5 170.058 235.516 171.436 236.313C172.741 237.038 174.119 237.474 175.425 238.054C176.73 238.634 177.673 239.504 178.616 240.592C179.413 241.607 180.139 242.623 181.227 243.421C182.605 244.436 184.128 245.234 185.433 246.321C187.971 248.352 190.582 250.238 192.975 252.413C195.006 254.227 196.747 256.475 198.415 258.65C198.705 259.013 199.067 259.448 199.357 259.956C200.373 260.318 201.388 260.609 202.548 260.754C202.693 260.826 202.839 260.899 202.984 260.971C203.926 259.956 205.522 259.158 206.465 258.868C209.801 257.78 213.209 256.837 216.473 255.459C219.736 254.081 222.565 251.833 225.611 250.165C228.947 248.352 232.573 247.627 236.127 246.539C239.608 245.524 243.016 244.146 246.643 243.711C250.124 243.276 253.605 243.421 257.086 242.55C260.495 241.68 263.758 240.23 267.094 239.142C270.43 237.981 273.911 237.184 277.465 237.038C277.175 236.676 277.03 236.313 276.885 235.951Z" fill="#DA7015"/>
    <path d="M173.54 212.091C173.395 212.236 173.25 212.453 173.177 212.743C172.742 214.049 174.41 214.846 175.933 215.137C175.28 216.369 177.746 217.747 179.124 218.038C178.036 219.343 180.429 221.446 181.735 222.099L181.662 222.171C180.575 223.259 182.968 225 184.491 225.798C184.418 225.87 184.346 226.015 184.346 226.16C184.201 227.973 186.159 229.424 187.682 230.149C187.464 230.149 187.247 230.439 187.247 230.657C187.174 232.18 188.915 234.718 190.655 234.5C190.873 234.5 191.09 234.355 191.09 234.065C191.09 233.92 191.018 233.775 191.018 233.63C191.163 232.107 191.671 228.698 189.93 228.481C189.785 228.481 189.712 228.481 189.567 228.481C189.567 226.74 189.35 224.855 187.972 224.202C187.682 224.057 187.392 224.057 187.247 224.202C186.957 223.042 186.521 221.809 185.289 221.591C185.144 221.591 185.071 221.591 184.998 221.591C184.781 220.431 184.636 219.125 183.62 218.473C183.185 218.183 182.75 218.183 182.46 218.4C182.388 218.255 182.388 218.11 182.315 218.038C181.952 216.805 181.517 215.354 180.575 214.484C180.357 214.266 179.994 214.121 179.632 214.194C179.124 212.888 178.326 211.655 177.383 211.075C176.948 210.785 176.151 210.785 175.715 211.148C174.555 209.77 173.395 208.827 171.727 208.029C171.437 207.884 171.074 208.029 170.929 208.319C170.276 210.06 171.872 211.22 173.54 212.091Z" fill="#DA7015"/>
    <path d="M215.313 223.622C216.763 224.202 217.924 222.679 218.576 221.374C219.084 220.576 219.519 219.851 219.592 219.561C219.664 219.27 219.519 219.053 219.229 218.908C219.011 218.835 218.721 218.835 218.504 218.835C219.737 217.457 220.825 215.717 219.664 214.339C219.374 214.049 219.084 213.976 218.866 214.049C219.011 213.759 219.156 213.541 219.374 213.251C219.809 212.526 220.389 211.365 219.882 210.568C219.447 209.842 218.649 209.842 218.069 210.277C218.141 209.842 218.141 209.48 218.069 209.045C217.996 208.319 217.416 207.014 216.473 207.304C215.458 207.594 215.748 209.697 216.111 211.438C216.038 211.438 215.965 211.438 215.893 211.438C214.442 211.438 215.313 214.339 216.038 215.934C215.748 215.717 215.313 215.572 214.805 215.499C214.515 215.499 214.37 215.717 214.297 216.007C214.225 217.312 214.588 218.473 215.313 219.488C215.023 219.343 214.587 219.415 214.152 219.851C213.137 220.866 214.152 223.114 215.313 223.622Z" fill="#DA7015"/>
    <path d="M257.739 226.668C258.102 226.015 257.594 225.725 256.941 225.507C257.086 225.435 257.304 225.29 257.449 225.217C259.117 225.145 261.003 224.855 261.728 223.187C261.873 222.897 261.728 222.607 261.438 222.534H261.365C262.743 222.244 264.049 221.519 264.846 220.358C265.064 220.068 264.846 219.706 264.556 219.633C264.194 219.488 263.831 219.488 263.468 219.488C265.354 218.835 267.747 218.255 267.457 216.224C267.24 214.774 265.282 215.789 264.121 216.587C264.049 216.442 263.904 216.297 263.686 216.224C262.236 215.282 261.365 217.893 261.148 219.27C261.003 219.053 260.858 218.835 260.567 218.763C259.625 218.545 259.19 220.213 258.972 221.301C258.102 220.503 257.014 222.534 256.361 223.767C256.289 223.694 256.216 223.622 256.144 223.622C254.911 222.824 252.953 225.145 252.372 226.305C252.3 226.378 252.155 226.45 252.155 226.523C251.937 226.813 252.155 227.103 252.445 227.248C253.678 227.683 256.869 228.118 257.739 226.668Z" fill="#DA7015"/>
    <path fill-rule="evenodd" clip-rule="evenodd" d="M42.8706 51.1328C42.8706 51.6405 43.3058 51.7855 43.5233 52.0031C44.3211 52.8008 45.1188 53.6711 45.699 54.6139C46.4243 55.7743 46.4967 57.0072 45.6264 58.095C44.8287 59.1829 43.6684 59.473 42.4355 59.1829C40.7674 58.8203 39.3894 57.8775 38.0115 56.8621C37.7214 56.6446 37.5039 56.282 36.9962 56.282C36.5611 56.6446 36.6335 57.2248 36.561 57.7324C36.2709 59.1829 35.9809 60.6333 35.2557 61.9388C34.5304 63.2442 33.515 63.7518 32.2096 63.6068C31.0493 63.4617 30.324 62.8091 29.9614 61.6487C29.5988 60.4158 29.8164 59.1829 30.179 57.95C30.3966 57.1522 30.7592 56.3545 31.1218 55.5567C31.5569 54.6139 31.9921 53.6711 32.3547 52.6558C32.8624 51.0603 33.8051 50.5526 35.4732 50.8427C35.9808 50.9152 36.416 50.9153 36.7061 50.4076C36.8512 50.1175 37.1413 49.8999 37.3588 49.6824C37.939 49.1022 38.2291 48.0868 37.939 47.3616C37.8665 47.0715 37.6489 46.999 37.4314 46.999C36.4886 46.8539 35.7633 46.4188 35.0381 45.5485C34.6029 46.2012 34.3129 46.8539 33.7327 47.289C33.2975 47.5791 33.4426 48.0868 33.4426 48.4494C33.5876 49.6098 33.1525 50.4801 32.3547 51.2778C31.1218 52.3657 29.7438 53.236 28.2208 53.8161C27.5681 54.0337 26.9155 54.1063 26.2627 54.0338C24.3046 53.8162 23.2167 52.0031 23.8694 50.1175C24.2321 49.1021 24.9574 48.4494 25.7551 47.7967C26.6254 47.0715 27.5681 46.5638 28.511 45.9836C28.2209 45.3309 27.6407 45.1133 27.2781 44.7507C26.4803 43.953 25.6825 43.2277 25.2474 42.2124C24.7397 41.052 24.8848 40.0368 25.7551 39.1665C26.5529 38.2962 27.6407 38.0061 28.7286 38.4412C30.5416 39.239 32.1371 40.3268 33.225 42.0674C33.5151 42.5751 33.7327 43.0827 34.4579 43.3003C34.4579 42.0674 34.4579 40.907 34.4579 39.7466C34.4579 38.6588 34.5304 37.6435 34.7479 36.6282C35.1106 35.0326 36.1259 34.1624 37.5039 34.0898C39.0268 34.0173 40.1147 34.9601 40.6224 36.5556C40.9125 37.5709 40.9124 38.6588 40.8399 39.6741C40.6949 41.3421 40.5499 43.0827 39.8972 44.8958C41.3476 44.3881 42.653 44.098 44.031 44.1706C44.8287 44.1706 45.699 44.2431 46.4243 44.6057C47.5121 45.1859 48.2373 46.0562 48.3099 47.289C48.3824 48.5219 47.7296 49.3922 46.7143 49.9724C45.9165 50.4801 44.9738 50.7702 44.031 50.9152C43.5233 50.9877 43.1607 50.9153 42.8706 51.1328Z" fill="#122528"/>
    <path fill-rule="evenodd" clip-rule="evenodd" d="M42.7258 46.4188C43.2335 49.1747 43.0885 51.8581 41.5655 54.2513C39.2447 58.0226 35.546 58.8928 31.8473 56.5721C29.5266 55.1216 28.0036 53.0184 28.0036 50.1175C28.0036 49.1022 27.786 48.1594 27.8585 47.1441C28.1486 43.1553 30.5419 40.4719 34.3131 40.1818C38.1569 39.8192 41.7105 42.285 42.6533 45.9112C42.6533 46.0562 42.6533 46.2738 42.7258 46.4188Z" fill="#6CB4B8"/>
    <path fill-rule="evenodd" clip-rule="evenodd" d="M13.4655 89.5609C13.4655 89.9047 13.7601 90.0029 13.9075 90.1502C14.4476 90.6903 14.9878 91.2796 15.3806 91.9179C15.8716 92.7036 15.9207 93.5384 15.3314 94.2749C14.7913 95.0115 14.0057 95.2079 13.1709 95.0115C12.0415 94.766 11.1085 94.1276 10.1755 93.4402C9.97907 93.2928 9.83181 93.0473 9.48808 93.0473C9.19345 93.2929 9.24251 93.6857 9.1934 94.0294C8.99699 95.0115 8.80061 95.9936 8.30956 96.8775C7.81852 97.7613 7.13102 98.1051 6.24715 98.0068C5.46148 97.9086 4.97045 97.4667 4.72493 96.6811C4.47941 95.8463 4.62674 95.0115 4.87227 94.1767C5.01958 93.6366 5.26506 93.0964 5.51058 92.5563C5.80521 91.9179 6.09987 91.2796 6.34539 90.5921C6.68912 89.5118 7.32744 89.1681 8.45684 89.3645C8.80057 89.4136 9.09523 89.4136 9.29165 89.0699C9.38986 88.8735 9.58629 88.7262 9.7336 88.5789C10.1264 88.186 10.3228 87.4986 10.1264 87.0075C10.0773 86.8111 9.93 86.762 9.78269 86.762C9.14433 86.6638 8.65327 86.3692 8.16223 85.7799C7.8676 86.2218 7.67122 86.6638 7.27839 86.9584C6.98376 87.1548 7.08196 87.4986 7.08196 87.7441C7.18017 88.5297 6.88554 89.119 6.34539 89.6591C5.51062 90.3957 4.5776 90.9849 3.54641 91.3778C3.10448 91.5251 2.66256 91.5742 2.22062 91.5251C0.894808 91.3778 0.15822 90.1502 0.600159 88.8735C0.84568 88.186 1.33677 87.7441 1.87692 87.3021C2.46617 86.8111 3.10449 86.4674 3.74284 86.0745C3.54643 85.6326 3.15362 85.4853 2.90809 85.2397C2.36795 84.6996 1.82778 84.2086 1.53315 83.5211C1.18942 82.7354 1.28767 82.048 1.87692 81.4587C2.41706 80.8695 3.15362 80.6731 3.89018 80.9677C5.11779 81.5078 6.19806 82.2444 6.93462 83.4229C7.13104 83.7666 7.27839 84.1103 7.76943 84.2577C7.76943 83.4229 7.76943 82.6372 7.76943 81.8516C7.76943 81.115 7.81848 80.4275 7.9658 79.7401C8.21132 78.6598 8.8988 78.0705 9.83178 78.0214C10.863 77.9723 11.5996 78.6107 11.9433 79.691C12.1397 80.3784 12.1397 81.115 12.0906 81.8024C11.9924 82.9318 11.8942 84.1104 11.4522 85.338C12.4343 84.9942 13.3182 84.7978 14.2512 84.8469C14.7913 84.8469 15.3806 84.896 15.8716 85.1416C16.6082 85.5344 17.0992 86.1236 17.1483 86.9584C17.1974 87.7932 16.7555 88.3824 16.068 88.7753C15.5279 89.119 14.8895 89.3154 14.2512 89.4136C13.9074 89.4627 13.6619 89.4136 13.4655 89.5609Z" fill="#122528"/>
    <path fill-rule="evenodd" clip-rule="evenodd" d="M13.3674 86.3692C13.7111 88.2352 13.6129 90.052 12.5818 91.6725C11.0104 94.2259 8.50609 94.8151 6.00177 93.2438C4.43043 92.2617 3.39928 90.8377 3.39928 88.8735C3.39928 88.1861 3.25193 87.5477 3.30103 86.8603C3.49745 84.1595 5.1179 82.3426 7.67133 82.1462C10.2739 81.9007 12.68 83.5703 13.3183 86.0255C13.3183 86.1237 13.3183 86.271 13.3674 86.3692Z" fill="#6CB4B8"/>
    </svg>
    