<svg width="189" height="90" viewBox="0 0 189 90" fill="none" xmlns="http://www.w3.org/2000/svg">
    <path d="M91.888 39.568C87.28 36.592 79.216 32.656 71.728 29.392C77.872 23.632 82.864 16.912 86.416 9.13599L78.352 4.912L76.24 5.392H38.704V15.76H68.752C60.496 26.128 46.576 34.384 32.272 38.608C34.576 41.008 37.648 45.424 39.088 48.4C47.44 45.424 55.504 41.584 62.8 36.496C71.056 40.432 80.464 45.328 85.168 48.784L91.888 39.568ZM20.752 50.8C27.472 43.504 33.904 34.864 39.184 26.416L29.2 19.984C27.568 23.248 25.552 26.608 23.44 29.776L14.416 30.448C19.696 22.96 24.976 13.936 28.72 5.296L17.968 0.303999C14.512 11.248 7.888 23.056 5.776 26.128C3.664 29.296 1.936 31.216 0.0160002 31.792C1.264 34.672 3.088 40.24 3.664 42.352C5.296 41.584 7.696 41.008 16.336 39.952C13.072 44.176 10.192 47.536 8.752 48.976C5.488 52.432 3.28 54.448 0.592 55.024C1.936 58 3.76 63.472 4.336 65.68C6.928 64.24 10.96 63.088 34.672 58.384C34.48 55.984 34.672 51.472 35.056 48.4L20.752 50.8ZM33.808 67.12C21.712 70 9.424 73.072 1.072 74.512L3.28 85.936C12.4 83.44 24.112 80.272 35.056 77.008L33.808 67.12ZM68.272 60.016H85.936V49.648H39.568V60.016H56.752V77.68H33.808V88.24H90.736V77.68H68.272V60.016ZM123.664 13.168C120.208 10.096 113.488 5.776 108.784 2.89599L101.584 10.384C106.48 13.648 113.008 18.448 116.176 21.616L123.664 13.168ZM119.344 37.744C116.08 34.672 109.36 29.872 104.464 26.992L97.36 34.288C102.16 37.744 108.784 42.832 111.76 46.192L119.344 37.744ZM113.68 51.568C109.072 62.512 103.024 74.224 98.8 81.424L108.976 88.432C113.68 79.312 118.576 68.464 122.608 58.576L113.68 51.568ZM162.544 89.008H173.68V50.8H162.544V89.008ZM163.696 20.848C161.488 25.264 158.512 28.72 154.768 31.696C150.256 28.72 146.512 25.168 143.632 20.848H163.696ZM185.68 20.848V10.864H159.856C158.704 7.504 156.88 3.568 155.056 0.303999L144.688 3.184C145.84 5.488 146.992 8.272 147.952 10.864H123.76V20.848H132.592C135.952 27.376 140.08 32.848 145.168 37.168C138.352 40.144 130.288 41.968 120.976 43.216C122.704 45.52 125.008 50.608 125.776 53.296C129.04 52.72 132.112 52.048 135.088 51.28V62.512C135.088 68.752 132.976 77.392 117.808 82.48C120.208 83.92 124.144 87.472 125.968 89.488C143.248 83.44 146.224 71.92 146.224 62.704V50.8H136.816C143.536 48.976 149.584 46.672 154.864 43.792C162.16 47.536 170.992 50.032 181.552 51.472C182.992 48.4 185.968 43.792 188.176 41.296C179.152 40.528 171.472 38.992 164.848 36.496C169.36 32.368 173.104 27.184 175.888 20.848H185.68Z" fill="white"/>
    </svg>
    