<svg width="376" height="91" viewBox="0 0 376 91" fill="none" xmlns="http://www.w3.org/2000/svg">
    <path d="M10.44 22.96C11.976 21.136 13.512 19.024 14.856 16.72H19.656V20.848C19.656 21.52 19.656 22.192 19.56 22.96H10.44ZM45.48 41.104C42.984 39.472 33.384 34 29.352 31.888H45.192V22.96H30.408C30.504 22.288 30.504 21.712 30.504 21.04V16.72H42.984V7.888H19.176C19.944 5.96799 20.52 4.048 21.096 2.224L11.016 0.111996C9.096 7.216 5.352 14.224 0.456 18.832C2.376 19.792 5.448 21.52 7.752 22.96H1.32V31.888H17.256C14.856 36.688 9.96 41.392 0.168 45.232C2.664 47.056 5.832 50.608 7.368 52.912C16.008 48.88 21.576 43.984 25.032 39.088C29.352 42.064 34.728 46 37.416 48.4L45.48 41.104ZM64.968 58.768V64.144H25.32V58.768H64.968ZM25.32 78.064V72.4H64.968V78.064H25.32ZM14.088 90.352H25.32V87.184H64.968V90.256H76.68V49.84H14.088V90.352ZM73.608 34H59.016V17.776H73.608V34ZM48.456 7.696V44.08H84.936V7.696H48.456ZM155.304 34.576H165.864V30.832H182.76V24.112H165.864V20.944H179.208V14.32H165.864V11.344H180.84V4.71999H165.864V0.783998H155.304V4.71999H141.672V11.344H155.304V14.32H143.592V20.944H155.304V24.112H140.904V30.832H155.304V34.576ZM175.176 35.92H106.344V43.024H164.04V46.384H109.608V53.008H164.04V56.56H105.768V63.76H133.704L131.688 65.488C136.488 68.176 142.152 72.592 144.744 75.856L152.424 69.04C150.984 67.408 148.776 65.488 146.28 63.76H175.176V35.92ZM99.24 32.368C103.656 32.176 108.744 31.888 114.312 31.6V34.576H124.776V31.12L138.312 30.352L138.408 23.44L124.776 24.016V20.944H136.776V14.32H124.776V11.344H137.928V4.71999H124.776V0.783998H114.312V4.71999H100.2V11.344H114.312V14.32H102.504V20.944H114.312V24.4C108.552 24.688 103.272 24.88 98.952 24.976L99.24 32.368ZM105.288 88.816C111.72 84.304 115.56 77.2 118.056 70.096L108.168 66.544C106.056 72.784 101.832 78.736 96.168 82.384L105.288 88.816ZM137.64 79.6C133.128 79.6 132.456 79.216 132.456 76.72V66.544H121.128V76.816C121.128 86.416 124.008 89.296 136.296 89.296H151.848C160.776 89.296 163.944 86.704 165.192 76.144C162.216 75.472 157.512 73.936 155.304 72.304C154.824 78.64 154.152 79.6 150.696 79.6H137.64ZM161.064 70.768C167.208 75.952 173.544 83.152 176.04 88.336L185.928 82.672C183.144 77.2 176.424 70.384 170.184 65.68L161.064 70.768ZM226.152 57.424C230.184 63.184 235.464 71.056 237.96 75.664L247.56 69.904C244.872 65.392 239.208 57.904 235.272 52.528L226.152 57.424ZM268.68 29.488H257.448V38.704H223.176V49.072H257.448V77.392C257.448 78.928 256.872 79.312 255.048 79.408C253.224 79.504 246.888 79.408 241.224 79.216C242.664 82.288 244.296 86.992 244.872 90.256C253.128 90.256 259.368 90.064 263.304 88.336C267.432 86.608 268.68 83.728 268.68 77.584V49.072H279.624V38.704H268.68V29.488ZM253.032 8.848C253.896 6.832 254.664 4.816 255.336 2.89599L244.488 0.207994C242.568 6.544 239.304 12.88 235.368 17.968V8.848H214.344C215.208 6.92799 215.976 4.912 216.648 3.088L205.704 0.207994C202.632 9.328 197.448 18.832 191.496 24.592C194.088 26.032 198.792 29.104 201 30.928C203.88 27.568 206.856 23.248 209.544 18.448H211.272C213.192 22.384 215.4 26.8 216.744 29.872L212.808 28.528C208.104 38.608 199.944 48.688 191.784 55.024C193.896 57.328 197.64 62.512 199.08 64.912C201.672 62.704 204.168 60.304 206.664 57.424V90.256H217.608V43.024C219.912 39.472 221.928 35.824 223.656 32.272L217.896 30.256L227.208 26.992C226.056 24.688 224.328 21.616 222.6 18.448H234.984C233.352 20.464 231.72 22.384 229.896 23.824C232.584 25.264 237.288 28.432 239.4 30.256C242.472 27.088 245.448 23.056 248.232 18.448H252.552C254.952 22.096 257.736 26.32 259.08 29.104L269.064 24.976C268.008 23.344 266.376 20.848 264.648 18.448H279.816V8.848H253.032ZM352.872 24.304H313.224V13.936H352.872V24.304ZM364.776 3.952H302.088V34.288H364.776V3.952ZM375.816 49.552V39.184H289.896V49.552H308.04C305.832 56.464 303.24 63.568 301.032 68.656L313.512 70.576C314.088 69.04 314.76 67.408 315.336 65.584H351.528C350.184 73.36 348.648 77.488 346.824 78.928C345.48 79.792 344.232 79.888 342.024 79.888C339.144 79.888 332.136 79.792 325.704 79.12C327.912 82.288 329.448 86.8 329.64 90.064C336.36 90.352 342.6 90.448 346.248 90.16C350.76 89.872 353.832 89.104 356.808 86.416C360.264 83.248 362.568 75.664 364.488 59.92C364.872 58.384 365.064 55.216 365.064 55.216H318.888L320.712 49.552H375.816Z" fill="white"/>
    </svg>
    