<svg width="185" height="90" viewBox="0 0 185 90" fill="none" xmlns="http://www.w3.org/2000/svg">
    <path d="M51.664 63.088V57.136H40.048V63.088H26.224C28.72 60.592 31.12 57.904 33.04 55.12H60.112C62.128 57.904 64.432 60.592 67.024 63.088H51.664ZM31.12 41.488H61.168V45.808H31.12V41.488ZM61.168 17.2V21.424H31.12V17.2H61.168ZM31.12 29.296H61.168V33.52H31.12V29.296ZM90.64 55.12V45.808H72.88V17.2H86.032V7.984H72.88V0.783998H61.168V7.984H31.12V0.783998H19.696V7.984H6.448V17.2H19.696V45.808H1.456V55.12H19.888C14.608 60.208 7.504 64.624 0.496 67.216C2.896 69.328 6.16 73.264 7.792 75.952C13.168 73.552 18.352 70.192 23.056 66.16V72.112H40.048V78.352H9.904V87.76H83.056V78.352H51.664V72.112H69.136V65.008C73.84 69.232 79.024 72.688 84.208 75.088C85.84 72.304 89.296 68.368 91.792 66.256C84.88 63.856 78.16 59.728 73.072 55.12H90.64ZM121.072 68.752H113.584V44.656H121.072V68.752ZM98.416 15.28H108.688C106.192 27.952 102.256 39.664 96.304 47.632C97.84 50.896 99.856 58.192 100.24 61.264C101.584 59.632 102.928 57.808 104.176 55.984V85.84H113.584V78.736H130.48V34.672H114.064C116.272 28.432 117.904 21.808 119.248 15.28H132.4V4.912H98.416V15.28ZM173.2 47.824V73.936H164.848V43.312H182.128V10.192H171.376V33.328H164.848V1.16799H153.52V33.328H146.32V10.192H136.048V43.312H153.52V73.936H145.456V47.728H134.032V84.976H173.2V89.968H184.336V47.824H173.2Z" fill="white"/>
    </svg>
    