<svg width="1463" height="698" viewBox="0 0 1463 698" fill="none" xmlns="http://www.w3.org/2000/svg">
    <path d="M1219.2 462.517C1151.38 461.285 1083.44 462.372 1015.74 464.547C947.568 466.794 879.747 471.795 811.462 471.288C746.081 470.78 680.815 468.171 615.317 469.548C550.4 470.925 485.483 474.332 420.565 474.332C381.081 474.332 341.48 473.318 301.996 472.955C259.143 472.593 216.407 471.868 173.787 469.258C170.071 469.041 170.071 472.665 173.787 472.883C249.156 477.522 325.106 476.579 400.707 477.812C465.508 478.827 530.309 475.492 594.994 473.68C660.26 471.868 725.293 473.608 790.559 474.695C823.656 475.275 856.753 475.13 889.851 473.752C924.109 472.375 958.368 470.273 992.743 468.968C1068.11 466.141 1143.71 464.764 1219.31 466.069C1222.91 466.214 1222.91 462.589 1219.2 462.517Z" fill="#FFCE33"/>
    <path d="M1219.2 132.517C1151.38 131.285 1083.44 132.372 1015.74 134.547C947.568 136.794 879.747 141.795 811.462 141.288C746.081 140.78 680.815 138.171 615.317 139.548C550.4 140.925 485.483 144.332 420.565 144.332C381.081 144.332 341.48 143.318 301.996 142.955C259.143 142.593 216.407 141.868 173.787 139.258C170.071 139.041 170.071 142.665 173.787 142.883C249.156 147.522 325.106 146.579 400.707 147.812C465.508 148.827 530.309 145.492 594.994 143.68C660.26 141.868 725.293 143.608 790.559 144.695C823.656 145.275 856.753 145.13 889.851 143.752C924.109 142.375 958.368 140.273 992.743 138.968C1068.11 136.141 1143.71 134.764 1219.31 136.069C1222.91 136.214 1222.91 132.589 1219.2 132.517Z" fill="#FFCE33"/>
    <path d="M197.213 95.4826C194.345 132.959 195.394 170.497 196.304 208.035C196.793 227.538 195.534 246.796 193.926 266.237C192.317 285.495 191.058 304.876 192.946 324.134C193.786 332.448 195.255 340.702 196.164 349.016C197.003 357.27 197.563 365.584 198.052 373.838C198.962 390.528 199.381 407.218 200.36 423.909C201.34 440.538 201.689 457.228 202.808 473.857C203.928 490.242 205.816 506.626 208.474 522.889C208.754 524.845 212.181 523.989 211.831 522.094C208.614 502.163 206.655 482.172 205.606 462.119C205.047 452.215 205.117 442.311 204.417 432.407C203.648 422.441 203.228 412.415 202.808 402.45C201.969 382.641 201.34 362.894 199.032 343.147C197.843 333.304 196.234 323.522 195.744 313.618C195.255 303.958 195.604 294.299 196.164 284.639C197.073 268.927 198.822 253.215 199.661 237.503C200.57 221.118 199.801 204.795 199.381 188.41C198.612 157.414 198.472 126.479 200.78 95.5437C200.85 93.4651 197.353 93.5262 197.213 95.4826Z" fill="#FFCE33"/>
    <path d="M1203.21 95.4826C1200.35 132.959 1201.39 170.497 1202.3 208.035C1202.79 227.538 1201.53 246.796 1199.93 266.237C1198.32 285.495 1197.06 304.876 1198.95 324.134C1199.79 332.448 1201.25 340.702 1202.16 349.016C1203 357.27 1203.56 365.584 1204.05 373.838C1204.96 390.528 1205.38 407.218 1206.36 423.909C1207.34 440.538 1207.69 457.228 1208.81 473.857C1209.93 490.242 1211.82 506.626 1214.47 522.889C1214.75 524.845 1218.18 523.989 1217.83 522.094C1214.61 502.163 1212.66 482.172 1211.61 462.119C1211.05 452.215 1211.12 442.311 1210.42 432.407C1209.65 422.441 1209.23 412.415 1208.81 402.45C1207.97 382.641 1207.34 362.894 1205.03 343.147C1203.84 333.304 1202.23 323.522 1201.74 313.618C1201.25 303.958 1201.6 294.299 1202.16 284.639C1203.07 268.927 1204.82 253.215 1205.66 237.503C1206.57 221.118 1205.8 204.795 1205.38 188.41C1204.61 157.414 1204.47 126.479 1206.78 95.5437C1206.85 93.4651 1203.35 93.5262 1203.21 95.4826Z" fill="#FFCE33"/>
    <path fill-rule="evenodd" clip-rule="evenodd" d="M19.882 556.6C19.082 556.8 18.7819 557.5 18.2819 558C14.6819 562.2 11.1819 566.5 7.58194 570.7C6.38194 572.1 5.88192 572.1 4.68192 570.8C3.78192 569.9 4.28199 569.3 4.88199 568.6C8.78199 564 12.7819 559.5 16.5819 554.8C20.6819 549.8 19.882 552 19.982 545.7C20.082 542.8 20.0819 539.9 20.0819 537C20.0819 536.3 20.282 535.6 19.882 534.9C19.182 534.6 18.8819 535.2 18.5819 535.5C14.4819 540 9.88194 544 5.58194 548.4C4.68194 549.3 3.78199 550.3 2.88199 551.3C2.38199 551.8 1.88194 552.4 1.08194 551.7C0.0819449 550.8 -0.318104 549.9 0.281896 549.1C0.881896 548.3 1.5819 547.5 2.2819 546.8C6.8819 542.3 11.4819 537.8 16.1819 533.2C19.8819 529.5 19.982 529.5 19.882 524.3C19.782 520.1 19.6819 515.9 19.7819 511.7C19.7819 511.3 19.6819 511 19.6819 510.6C18.8819 510.5 18.5819 511.1 18.1819 511.4C14.4819 515 10.7819 518.6 7.08194 522.2C6.28194 523 5.68192 523.3 4.68192 522.5C3.48192 521.6 3.38199 521.2 4.38199 520.1C7.18199 517 10.1819 514.2 13.2819 511.4C14.9819 509.8 16.682 508.2 18.382 506.6C19.282 505.7 20.0819 504.8 19.7819 503.4C19.5819 502.4 20.1819 502 21.1819 502C22.8819 502 24.682 502.1 26.382 502.1C27.382 502.1 27.882 502.6 27.982 503.5C27.982 504.8 28.7819 505.4 29.7819 505.9C34.5819 508.7 39.3819 511.6 44.1819 514.4C44.4819 514.6 44.7819 514.8 45.0819 515C46.0819 515.9 46.182 516.4 45.382 517.6C44.682 518.6 43.9819 518.4 43.1819 517.9C39.0819 515.3 34.8819 512.7 30.7819 510.2C30.0819 509.8 29.4819 509.3 28.7819 509.1C28.6819 512.4 28.5819 515.5 28.6819 518.7C28.7819 521.3 28.8819 523.9 28.7819 526.5C28.7819 527.9 29.282 528.8 30.482 529.5C34.982 532.4 39.4819 535.3 43.7819 538.6C44.5819 539.2 45.282 539.8 45.982 540.4C46.982 541.3 46.8819 541.8 45.7819 543C44.9819 543.9 44.6819 543.9 43.5819 543C39.5819 539.7 35.2819 536.9 31.0819 533.9C30.7819 533.7 30.4819 533.5 30.1819 533.3C29.4819 532.9 29.0819 533.2 29.0819 533.9C29.0819 534.3 29.0819 534.8 29.0819 535.2C29.0819 540.1 29.082 545.1 28.882 550C28.882 551.6 29.3819 552.7 30.6819 553.7C34.9819 557 39.5819 560 44.1819 562.8C44.6819 563.1 45.1819 563.4 45.6819 563.7C47.0819 564.6 47.1819 565.1 46.2819 566.5C45.6819 567.4 44.9819 567.3 44.1819 566.9C42.5819 565.9 40.8819 565 39.2819 564C36.1819 562 33.1819 559.9 30.1819 557.6C29.9819 557.4 29.682 557.3 29.482 557.1C28.782 557.5 28.982 558.2 28.982 558.7C28.982 567.1 29.1819 575.5 29.5819 584C29.6819 586.1 29.6819 586.2 27.5819 586.4C25.8819 586.6 24.2819 586.6 22.5819 586.8C21.4819 586.9 20.882 586.5 20.882 585.4C20.682 582.4 20.482 579.5 20.382 576.5C20.282 570.4 20.1819 564.3 20.1819 558.2C20.1819 557.7 20.382 557.1 19.882 556.6Z" fill="#122528"/>
    <path fill-rule="evenodd" clip-rule="evenodd" d="M36.5523 357.804C35.1523 359.004 33.8523 360.104 32.6523 361.404C29.8523 364.304 27.1524 367.204 24.3524 370.104C23.0524 371.404 22.7523 371.304 21.5523 370.104C20.7523 369.304 20.8523 368.704 21.6523 367.904C23.6523 365.704 25.7524 363.604 27.8524 361.504C30.3524 359.004 32.7523 356.504 35.2523 354.104C36.0523 353.304 36.5523 352.504 36.5523 351.304C36.6523 345.504 36.7524 339.704 36.8524 333.904C36.8524 333.504 36.9524 333.004 36.4524 332.604C35.6524 332.704 35.1523 333.404 34.6523 333.904C31.8523 336.504 29.0523 339.204 26.2523 341.904C25.0523 343.004 24.6523 342.904 23.6523 341.704C22.9523 340.804 23.0524 340.204 23.8524 339.504C25.9524 337.604 27.9523 335.604 30.0523 333.704C32.1523 331.804 34.2524 329.904 36.4524 328.104C37.1524 327.504 37.4523 326.704 37.5523 325.804C37.5523 325.004 37.9524 324.404 38.8524 324.304C40.5524 324.004 42.3523 323.904 44.0523 324.104C45.0523 324.204 45.7523 324.704 45.5523 325.804C45.2523 327.904 46.3523 329.204 47.6523 330.504C51.0523 334.104 54.9523 337.204 58.7523 340.304C59.3523 340.804 59.8524 341.304 60.4524 341.704C61.2524 342.304 61.2523 342.904 60.7523 343.804C59.8523 345.204 59.3523 345.304 58.0523 344.204C54.1523 341.104 50.5524 337.804 46.9524 334.404C46.6524 334.204 46.4524 333.904 45.9524 333.504C45.5524 334.504 45.8524 335.504 45.8524 336.304C45.7524 341.504 45.8523 346.804 45.6523 352.004C45.5523 354.104 46.2523 355.504 48.0523 356.704C52.2523 359.604 56.4523 362.504 60.7523 365.104C61.3523 365.504 61.9524 365.904 62.5523 366.304C63.9524 367.204 63.9523 368.604 62.6523 369.604C62.3523 369.804 61.9523 369.904 61.6523 369.704C61.1523 369.404 60.6523 369.204 60.1523 368.904C56.1523 366.404 52.1524 363.804 48.3524 361.104C47.7524 360.604 47.0523 360.204 46.5523 359.904C46.0523 360.004 45.9524 360.204 45.9524 360.404C45.7524 365.604 45.7524 370.904 45.9524 376.104C45.9524 377.204 46.6523 377.804 47.5523 378.204C50.0523 379.504 52.6523 380.704 55.1523 382.004C55.4523 382.204 55.8523 382.304 56.1523 382.404C57.9523 383.204 58.1523 383.504 57.6523 384.504C56.9523 386.104 56.3523 386.304 54.5523 385.504C52.5523 384.604 50.6523 383.604 48.6523 382.604C48.2523 382.404 47.8524 382.204 47.4524 382.004C46.0524 381.304 45.8524 381.404 45.8524 383.104C45.9524 386.304 46.1523 389.504 46.0523 392.704C45.9523 395.004 45.8523 395.104 43.5523 395.204C42.3523 395.204 41.0524 395.304 39.8524 395.404C37.5524 395.504 37.2523 395.204 37.1523 392.904C37.0523 389.104 36.9524 385.404 36.8524 381.604C36.8524 381.204 36.8523 380.904 36.7523 380.404C35.7523 380.404 35.1523 381.204 34.5523 381.704C32.1523 383.704 29.7524 385.704 27.3524 387.704C25.9524 388.904 25.3524 388.804 24.4524 387.404C23.8524 386.504 24.1524 385.904 24.8524 385.304C26.4524 384.004 27.9523 382.704 29.5523 381.404C31.4523 379.904 33.3523 378.504 35.2523 377.104C36.1523 376.504 36.6523 375.704 36.6523 374.604C36.6523 369.304 36.7523 364.004 36.7523 358.704C36.7523 358.204 36.6523 358.104 36.5523 357.804Z" fill="#122528"/>
    <path fill-rule="evenodd" clip-rule="evenodd" d="M178.608 432.515C175.808 434.615 173.307 436.815 170.807 439.015C168.507 441.015 166.308 443.215 164.108 445.215C163.108 446.215 162.807 446.215 161.907 445.315C160.807 444.215 160.708 443.715 161.608 442.715C164.208 439.915 167.208 437.415 170.108 434.915C172.408 432.915 174.808 431.015 177.208 429.115C178.508 428.115 179.108 426.915 179.208 425.215C179.508 421.115 179.407 417.115 179.807 413.015C179.807 412.815 179.807 412.615 179.407 412.315C177.907 413.515 176.407 414.815 174.907 416.115C173.107 417.715 171.308 419.315 169.508 420.815C168.808 421.415 168.207 421.915 167.307 420.915C166.307 419.715 166.108 419.115 167.208 418.215C170.208 415.615 173.307 413.015 176.307 410.415C177.307 409.615 178.307 408.715 179.307 407.815C180.007 407.215 180.608 406.515 180.708 405.415C180.808 404.315 181.508 403.915 182.508 404.015C184.208 404.115 185.808 404.315 187.508 404.415C188.508 404.515 188.908 405.215 188.708 406.115C188.508 407.815 189.408 408.515 190.708 409.315C195.308 412.115 199.807 415.015 204.407 417.915C205.207 418.415 206.108 418.915 205.508 420.115C204.708 421.715 204.208 421.915 202.708 420.915C199.008 418.515 195.308 416.115 191.608 413.615C191.008 413.215 190.408 412.815 189.708 412.515C189.108 412.215 188.708 412.415 188.608 413.015C188.508 413.515 188.508 414.015 188.508 414.515C188.408 418.415 188.408 422.415 188.208 426.315C188.108 427.915 188.608 429.015 190.008 430.015C193.508 432.515 197.107 435.115 200.407 437.915C201.107 438.515 201.708 439.115 201.108 440.115C200.208 441.715 199.807 441.815 198.307 440.715C195.407 438.415 192.608 436.215 189.708 434.015C189.308 433.715 188.907 433.215 188.407 433.515C188.007 433.715 188.108 434.315 188.108 434.715C188.008 439.615 187.607 444.415 187.807 449.315C187.907 450.615 188.308 451.315 189.608 451.715C193.108 452.815 196.508 454.315 200.008 455.715C200.608 455.915 201.207 456.215 201.807 456.515C202.907 457.115 203.008 457.415 202.508 458.615C202.008 459.915 201.607 460.215 200.407 459.715C197.807 458.615 195.208 457.515 192.608 456.415C191.708 456.015 190.708 455.615 189.708 455.315C188.208 454.815 187.807 455.015 187.807 456.615C187.807 459.315 187.607 462.015 187.907 464.715C188.007 465.715 188.108 466.715 188.008 467.715C188.008 469.215 187.708 469.515 186.208 469.615C184.508 469.715 182.708 469.715 181.008 469.715C179.508 469.715 179.308 469.515 179.208 467.915C179.108 465.015 178.807 462.115 178.907 459.215C178.907 458.515 178.907 457.815 178.907 457.115C178.207 456.715 177.807 457.115 177.407 457.415C175.307 458.915 173.108 460.415 171.008 461.915C169.308 463.115 169.108 463.115 168.208 461.915C167.208 460.615 167.308 460.415 169.108 459.115C171.508 457.415 174.008 455.615 176.508 454.015C178.208 452.915 178.907 451.515 178.907 449.515C178.907 444.615 179.008 439.815 179.108 434.915C178.908 434.315 179.208 433.515 178.608 432.515Z" fill="#122528"/>
    <path d="M1262.65 623.898C1258.77 625.283 1254.89 626.461 1250.94 627.43C1247.07 628.4 1242.98 629.023 1239.17 630.339C1237.58 629.369 1236.06 628.677 1234.12 628.607C1233.29 628.607 1233.01 629.785 1233.56 630.269C1234.19 630.823 1235.16 630.754 1235.92 630.823C1236.54 630.893 1237.16 631.1 1237.79 631.239C1237.37 631.377 1236.96 631.585 1236.68 631.724C1235.99 632.001 1234.6 632.416 1234.32 633.178C1234.05 633.732 1234.53 634.355 1235.09 634.355C1235.71 634.355 1236.54 633.663 1237.16 633.386C1237.44 633.247 1237.65 633.109 1237.93 632.97C1237.44 633.593 1237.03 634.424 1237.3 635.186C1237.51 635.74 1238.06 635.74 1238.41 635.394C1238.76 635.117 1238.76 634.771 1238.89 634.355C1239.03 633.94 1239.24 633.524 1239.45 633.178C1239.45 633.109 1239.52 633.109 1239.52 633.039C1239.66 633.039 1239.86 633.039 1240 632.97C1243.88 631.724 1247.76 630.616 1251.64 629.508C1255.65 628.4 1259.53 627.015 1262.99 624.66C1263.41 624.383 1263.06 623.76 1262.65 623.898Z" fill="#122528"/>
    <path d="M1260.43 687.748C1260.64 687.748 1260.92 687.609 1260.92 687.332C1260.92 685.878 1259.05 685.878 1258.15 686.571C1256.55 687.748 1256.69 689.895 1255.72 691.418C1255.58 691.557 1255.51 691.765 1255.38 691.695C1255.1 691.557 1254.89 691.349 1254.68 691.141C1254.06 690.587 1253.16 689.548 1252.54 689.064C1251.29 688.163 1250.94 687.263 1249.42 687.125C1248.45 687.055 1246.24 687.471 1246.93 688.925C1247.2 689.548 1247.55 690.033 1248.17 690.795C1248.8 691.626 1249.49 692.318 1250.32 693.011C1251.78 694.119 1253.85 696.543 1256 695.712C1257.25 695.227 1257.8 693.773 1258.35 692.665C1258.98 691.003 1259.6 689.341 1260.43 687.748Z" fill="#122528"/>
    <path d="M1291.59 686.709C1291.8 686.57 1291.94 686.363 1291.73 686.086C1290.83 684.839 1289.17 685.878 1288.76 686.986C1288.06 688.856 1289.38 690.518 1289.45 692.388C1289.45 692.595 1289.45 692.803 1289.31 692.803C1288.96 692.872 1288.69 692.734 1288.34 692.734C1287.51 692.595 1286.68 692.526 1285.78 692.526C1284.12 692.457 1282.45 692.595 1281 693.357C1280.1 693.842 1278.44 695.296 1279.89 696.196C1280.51 696.543 1281.28 696.612 1281.97 696.681C1283.15 696.75 1284.25 696.75 1285.43 696.82C1287.44 696.958 1290.76 697.858 1292.15 695.989C1292.98 694.881 1292.63 693.426 1292.43 692.18C1292.29 690.241 1291.8 688.51 1291.59 686.709Z" fill="#122528"/>
    <path d="M1311.54 556.725C1311.89 556.448 1311.68 555.963 1311.33 555.825C1304.96 553.678 1298.17 552.293 1291.39 552.362C1292.91 551.254 1294.43 550.146 1296.03 549.038C1297.07 548.276 1298.17 547.515 1299.21 546.753C1299.84 546.268 1300.67 545.991 1300.67 545.16C1300.67 544.952 1300.53 544.814 1300.39 544.745C1297 543.359 1293.19 543.498 1289.52 543.359C1293.67 537.335 1296.65 530.34 1297.07 523C1297.07 522.653 1296.72 522.376 1296.44 522.515C1291.66 524.177 1286.89 525.839 1282.32 528.055C1279.48 529.44 1276.43 531.102 1274.07 533.387C1272.9 531.102 1271.58 528.886 1270.13 526.739C1267.91 523.484 1265.28 520.23 1261.89 518.083C1261.54 517.875 1261.12 518.083 1260.99 518.429C1259.88 521.961 1258.35 525.423 1257.18 528.886C1256.07 532.141 1254.89 536.019 1255.45 539.481C1255.52 539.828 1256 539.758 1256.07 539.412C1256.28 537.542 1256.42 535.742 1256.76 533.872C1257.11 532.141 1257.66 530.479 1258.29 528.817C1259.39 525.7 1260.78 522.584 1261.82 519.468C1264.73 521.545 1266.94 524.454 1268.95 527.293C1270.4 529.371 1271.72 531.587 1272.83 533.941C1272.27 533.872 1271.72 534.634 1272.2 535.188L1272.27 535.257C1271.93 535.742 1271.58 536.296 1271.24 536.85C1268.81 536.919 1266.46 537.127 1264.1 537.335C1262.23 537.542 1260.36 537.681 1258.49 538.096C1257.52 538.304 1256.28 538.789 1256.21 539.689C1256.14 540.174 1256.76 540.243 1257.04 539.966C1257.04 539.966 1256.69 539.966 1256.69 539.897H1256.28C1256.97 539.828 1257.11 539.828 1257.25 539.758C1257.87 539.689 1258.7 539.481 1259.32 539.343C1261.12 538.997 1263.13 538.858 1264.93 538.65C1268.19 538.373 1271.58 538.096 1274.91 538.096C1278.3 541.42 1282.45 544.052 1286.75 546.13C1287.09 546.337 1287.44 546.199 1287.72 545.922C1288.27 545.229 1288.83 544.537 1289.31 543.775C1292.77 544.537 1296.44 544.052 1299.77 545.299C1299.56 545.437 1299.28 545.576 1299.14 545.645C1298.59 545.991 1298.1 546.407 1297.55 546.753C1296.58 547.445 1295.61 548.069 1294.64 548.761C1292.91 549.938 1291.25 551.116 1289.52 552.293C1289.52 551.185 1289.52 550.077 1289.59 549.038C1289.66 548.207 1289.73 547.445 1289.93 546.684C1290.07 546.13 1290.35 545.576 1290.42 544.952C1290.42 544.606 1290 544.329 1289.66 544.537C1288.55 545.229 1288.41 546.961 1288.34 548.138C1288.27 549.107 1288.2 550.077 1288.2 551.046C1288.2 551.877 1288.2 552.708 1288.27 553.539C1288.27 553.886 1288.55 554.163 1288.83 554.163C1288.55 554.163 1288.27 553.886 1288.27 553.539C1288.27 552.708 1288.2 551.877 1288.2 551.046C1288.06 551.116 1287.92 551.254 1287.92 551.462C1286.82 557.487 1287.3 563.927 1288.06 569.952C1288.13 570.367 1288.69 570.575 1289.03 570.367C1296.44 565.866 1304.89 562.68 1311.54 556.725Z" fill="#122528"/>
    <path d="M1296.3 605.27C1301.84 599.522 1307.87 594.259 1313.41 588.511C1313.62 588.234 1313.69 587.818 1313.41 587.541C1310.36 584.841 1306.55 583.109 1302.68 581.932C1301.08 581.447 1299.49 581.032 1297.83 580.755C1298.1 580.547 1298.38 580.339 1298.66 580.062C1300.81 578.262 1303.09 576.53 1304.41 574.037C1304.61 573.691 1304.41 573.345 1304.06 573.206C1300.11 571.752 1295.96 572.652 1291.94 573.483C1291.87 573.276 1291.73 573.137 1291.59 573.068C1291.39 572.86 1290.97 572.86 1290.9 573.206C1290.63 573.553 1290.63 574.176 1290.69 574.591C1290.83 575.699 1291.04 576.738 1291.25 577.846C1291.39 578.608 1291.53 579.439 1291.66 580.201C1291.32 580.201 1290.9 580.201 1290.56 580.201H1290.49C1290.56 579.855 1290.63 579.439 1290.69 579.093C1290.9 578.123 1289.45 577.708 1289.24 578.677C1288.2 583.248 1288.76 588.095 1289.73 592.597C1290.69 597.098 1292.29 601.807 1295.27 605.339C1295.54 605.547 1296.03 605.547 1296.3 605.27Z" fill="#122528"/>
    <path d="M1307.87 633.524C1309.74 632.001 1314.24 629.715 1312.92 626.599C1311.61 623.483 1307.66 622.998 1304.75 622.79C1301.91 622.652 1299 622.929 1296.17 622.79C1299.97 618.497 1305.38 615.657 1308.84 611.018C1309.05 610.671 1308.84 610.325 1308.49 610.187C1304.13 608.455 1299.42 608.802 1294.99 609.84C1295.06 609.771 1295.06 609.702 1295.13 609.633C1295.4 609.286 1295.2 608.732 1294.71 608.871C1292.43 609.563 1292.84 613.026 1292.98 614.826C1293.26 617.458 1293.88 620.159 1294.92 622.652C1294.92 622.652 1294.92 622.721 1294.99 622.721C1294.71 622.721 1294.37 622.652 1294.09 622.652C1293.81 622.582 1293.74 623.067 1294.02 623.136C1296.93 623.968 1300.11 623.69 1303.16 623.76C1306.07 623.829 1310.15 623.898 1311.82 626.807C1312.58 628.192 1311.19 629.438 1310.22 630.269C1308.91 631.377 1307.45 632.208 1306.21 633.316C1303.16 636.017 1300.67 639.341 1297.62 641.973C1296.72 638.926 1296.03 635.809 1295.4 632.693C1294.99 630.754 1294.64 628.815 1294.57 626.876C1294.57 626.253 1294.57 625.629 1294.71 625.006C1294.85 624.66 1294.71 624.452 1295.06 624.452C1295.4 624.383 1295.33 623.968 1295.13 623.829C1293.88 622.929 1293.19 624.522 1293.05 625.56C1292.84 627.499 1293.26 629.577 1293.53 631.447C1294.23 635.463 1295.2 639.549 1296.44 643.427C1296.65 643.981 1297.2 644.12 1297.62 643.773C1301.43 640.726 1304.13 636.571 1307.87 633.524Z" fill="#122528"/>
    <path d="M1322.34 647.928C1317.36 650.006 1312.72 652.914 1308.15 655.892C1308.77 654.992 1309.32 653.953 1309.81 653.122C1310.78 651.46 1311.61 649.659 1312.58 647.997C1312.79 647.72 1312.51 647.236 1312.16 647.236C1309.46 647.443 1306.42 647.651 1303.71 648.274C1301.64 648.759 1298.31 649.59 1297.62 651.806C1297.62 651.876 1297.83 651.876 1297.83 651.945C1296.79 653.399 1299.56 655.615 1300.53 656.377C1301.64 657.277 1303.3 658.039 1304.82 657.97C1304.06 658.454 1303.37 658.939 1302.68 659.424C1302.4 659.562 1302.68 659.978 1302.95 659.839C1309.53 656.654 1315.42 652.083 1322.2 649.313C1323.59 655.061 1322.27 661.017 1322.07 666.764C1320.06 666.557 1318.12 665.795 1316.25 665.033C1314.31 664.202 1312.3 663.302 1310.43 662.332C1309.32 661.778 1308.22 661.224 1307.11 660.67C1306.62 660.393 1306.07 660.116 1305.58 659.839C1305.51 659.77 1305.45 659.77 1305.38 659.77C1305.38 659.701 1305.31 659.632 1305.24 659.632C1304.2 659.078 1303.78 660.047 1304.48 660.809C1304.96 661.294 1305.72 661.64 1306.35 661.917C1307.18 662.332 1308.01 662.748 1308.77 663.163C1310.71 664.133 1312.72 665.033 1314.73 665.933C1317.22 667.041 1319.92 668.149 1322.76 668.219C1323.1 668.219 1323.45 667.942 1323.45 667.526C1323.52 661.155 1325.18 654.507 1323.31 648.274C1323.17 647.859 1322.76 647.72 1322.34 647.928Z" fill="#122528"/>
    <path d="M1334.46 658.177C1334.32 657.831 1333.77 657.762 1333.56 658.039C1331 661.294 1327.88 664.687 1326.77 668.773C1326.71 669.119 1327.19 669.396 1327.4 669.05C1327.54 669.188 1327.67 669.258 1327.88 669.258C1331 669.465 1334.39 669.535 1337.44 668.704C1337.85 668.565 1338.06 668.15 1337.85 667.734C1336.33 664.618 1335.92 661.225 1334.46 658.177Z" fill="#122528"/>
    <path d="M1350.74 655.685C1348.31 657.624 1346.23 659.978 1344.3 662.402C1342.98 664.064 1341.59 665.934 1340.83 668.011C1340.56 667.873 1340.35 667.804 1340.07 667.665C1339.17 667.25 1338.41 668.565 1339.31 668.981C1339.66 669.189 1340.07 669.327 1340.42 669.535C1340.35 669.743 1340.35 670.02 1340.28 670.227C1340.28 670.504 1340.69 670.574 1340.76 670.297C1340.83 670.158 1340.83 669.95 1340.9 669.812C1342.7 670.643 1344.57 671.474 1346.44 672.166C1349.07 673.136 1351.84 673.621 1354.61 673.967C1355.03 674.036 1355.31 673.621 1355.38 673.274C1356 667.319 1354.34 661.294 1351.77 655.962C1351.57 655.408 1351.08 655.477 1350.74 655.685Z" fill="#122528"/>
    <path d="M1367.91 663.856C1363.41 665.656 1359.46 668.149 1356.62 672.166C1356.55 672.235 1356.55 672.374 1356.62 672.443C1356.48 672.374 1356.34 672.374 1356.21 672.443C1356.28 672.374 1356 672.512 1355.93 672.581C1354.75 673.551 1357.45 675.005 1358.08 675.351C1359.74 676.321 1361.47 677.221 1363.2 677.983C1363.55 678.121 1364.03 678.121 1364.24 677.706C1366.18 673.551 1367.15 668.98 1368.6 664.618C1368.74 664.133 1368.33 663.648 1367.91 663.856Z" fill="#122528"/>
    <path d="M1369.92 674.936C1369.36 672.443 1366.25 671.128 1364.17 670.366C1360.78 669.05 1357.11 668.427 1353.51 667.803C1350.25 667.319 1347.06 666.903 1343.81 666.557C1339.31 666.072 1334.88 665.172 1330.44 664.272C1324.7 663.094 1318.95 661.432 1313.69 658.732C1309.6 656.585 1306.14 653.815 1304.41 649.383C1302.88 645.435 1302.74 641.073 1302.33 636.918C1301.77 630.616 1300.94 624.383 1300.04 618.151C1299.07 611.572 1297.9 605.062 1297 598.414C1296.17 592.112 1295.82 585.741 1295.54 579.439C1295.27 573.137 1294.99 566.836 1294.36 560.534C1293.81 554.924 1293.19 548.969 1291.25 543.636C1288.13 535.257 1281.28 528.332 1272.34 526.532C1268.19 525.701 1263.89 525.978 1259.88 527.363C1255.58 528.748 1251.5 530.825 1247.55 533.041C1244.85 534.565 1237.79 538.789 1236.96 539.135C1232.25 541.282 1218.33 545.714 1216.25 550.631C1213.83 556.24 1214.86 564.966 1219.92 574.038C1224.28 581.794 1228.37 591.35 1234.88 594.12C1238.34 595.575 1242.29 595.09 1245.82 594.12C1248.24 593.428 1250.53 592.251 1252.95 591.489C1253.78 591.212 1255.51 590.589 1256.28 591.35C1256.9 592.043 1256.62 593.636 1256.55 594.397C1256.42 596.198 1256.07 597.998 1255.86 599.73C1255.51 602.708 1254.75 606.239 1254.55 609.148C1254.34 612.541 1253.99 616.073 1253.71 619.397C1253.16 626.184 1253.3 632.208 1252.88 638.995C1252.47 645.782 1251.98 651.876 1251.64 659.493C1251.43 664.341 1251.08 669.465 1251.43 674.313C1251.84 678.884 1252.88 683.454 1256.42 686.64C1263.83 693.149 1275.81 689.341 1284.6 689.133C1291.39 688.994 1298.1 688.648 1304.89 688.371C1311.47 688.025 1318.12 687.609 1324.7 687.748C1330.79 687.886 1336.26 688.094 1342.36 688.025C1345.19 688.025 1353.78 686.709 1355.1 686.432C1358.77 685.601 1362.16 683.523 1365.35 681.515C1367.49 680.13 1370.54 677.914 1369.92 674.936Z" fill="#DA7015"/>
    <path d="M1219.37 556.24C1220.34 555.686 1221.1 554.647 1221.65 553.747C1222.14 552.916 1220.89 552.223 1220.4 552.985C1220.06 553.608 1219.57 554.232 1219.02 554.716C1218.88 554.855 1218.74 554.993 1218.53 555.132C1218.53 554.924 1218.53 554.716 1218.53 554.509C1218.74 552.293 1220.47 550.561 1221.72 548.969C1221.86 548.761 1221.65 548.553 1221.44 548.553C1220.2 548.83 1219.09 550.423 1218.47 551.392C1217.63 552.639 1216.94 554.093 1217.22 555.617C1217.5 556.725 1218.6 556.655 1219.37 556.24Z" fill="#122528"/>
    <path d="M1226.98 560.88C1230.58 561.157 1232.04 555.271 1232.11 552.57C1232.11 552.224 1231.55 552.154 1231.48 552.501C1231.07 553.886 1230.65 555.34 1230.03 556.656C1229.62 557.487 1228.92 559.079 1227.88 559.218C1227.95 559.079 1228.09 559.01 1228.3 558.802C1228.65 558.525 1228.58 558.11 1228.44 557.764C1228.3 557.487 1227.95 557.348 1227.68 557.348C1226.15 557.279 1225.67 559.079 1226.15 560.257C1226.22 560.603 1226.5 560.811 1226.98 560.88Z" fill="#122528"/>
    <path d="M1270.82 539.828C1270.61 540.174 1270.47 540.589 1270.61 541.074C1270.82 542.044 1271.72 542.736 1272.76 542.736C1273.66 542.736 1274.63 542.251 1275.04 541.42C1275.67 540.382 1275.25 539.343 1274.56 538.512C1273.17 536.919 1271.3 538.166 1270.82 539.828Z" fill="#122528"/>
    <path d="M1255.86 533.941C1255.52 533.941 1255.1 534.08 1254.75 534.426C1254.06 535.119 1253.99 536.157 1254.55 536.919C1255.03 537.612 1255.86 538.096 1256.76 538.027C1257.87 537.958 1258.49 537.127 1258.77 536.157C1259.32 534.288 1257.39 533.457 1255.86 533.941Z" fill="#122528"/>
    <path d="M1235.36 578.539C1233.35 578.331 1231.42 579.162 1229.41 579.231C1228.99 579.231 1228.78 579.578 1228.78 579.924C1228.72 579.855 1228.72 579.785 1228.65 579.785C1228.51 579.578 1228.16 579.855 1228.3 580.062C1228.85 581.24 1229.48 582.417 1230.24 583.456C1230.93 584.425 1232.11 585.81 1233.42 585.741C1235.22 585.672 1235.99 581.032 1235.99 579.162C1235.99 578.816 1235.71 578.608 1235.36 578.539Z" fill="white"/>
    <path d="M1247.69 575.908C1245.27 576.254 1243.12 577.57 1240.7 577.708C1240.56 577.708 1240.42 577.777 1240.35 577.847C1240.35 577.847 1240.35 577.847 1240.35 577.777C1240.21 577.57 1239.86 577.639 1239.93 577.916C1240.56 580.34 1242.29 581.655 1244.23 582.833C1244.78 583.179 1245.34 583.179 1245.54 583.04C1247.21 581.448 1248.11 578.816 1248.31 576.6C1248.31 576.185 1248.04 575.838 1247.69 575.908Z" fill="white"/>
    <path d="M1253.58 570.575C1253.64 571.683 1253.78 572.93 1254.89 573.484C1255.79 573.968 1257.18 572.999 1257.94 572.583C1258.56 572.237 1259.12 571.891 1259.74 571.545C1260.15 571.268 1260.57 571.129 1260.71 570.644V570.575C1260.78 570.506 1260.85 570.367 1260.78 570.298C1259.39 568.359 1256.83 566.697 1254.48 566.282C1254.13 566.212 1253.92 566.489 1253.85 566.766C1253.64 568.082 1253.51 569.329 1253.58 570.575Z" fill="white"/>
    <path d="M1271.44 557.21C1271.37 556.933 1271.03 557.071 1270.96 557.071C1270.47 559.149 1271.51 561.988 1270.27 564.135C1269.23 565.866 1266.66 567.528 1264.93 568.359C1262.65 569.467 1260.22 570.506 1257.87 571.544C1255.38 572.652 1252.68 573.345 1250.11 574.245C1245.13 575.976 1240.07 577.362 1234.88 578.193C1232.25 578.608 1229.62 578.885 1226.98 579.093C1225.53 579.162 1224.14 579.162 1222.69 579.231C1223.04 579.855 1223.38 580.478 1223.73 581.17C1224.91 581.101 1226.15 581.032 1227.33 580.963C1230.1 580.755 1232.94 580.409 1235.71 579.993C1241.25 579.093 1246.65 577.569 1251.98 575.63C1257.11 573.76 1261.89 571.406 1266.73 568.982C1268.53 568.082 1270.34 566.905 1271.24 565.104C1272.41 562.75 1271.93 559.564 1271.44 557.21Z" fill="#122528"/>
    <path d="M1284.39 682.554C1284.67 681.446 1284.46 680.338 1284.53 679.23C1284.88 672.374 1284.53 665.518 1283.98 658.662C1283.42 652.014 1282.38 645.366 1282.38 638.718C1282.38 632.208 1283.01 625.768 1282.94 619.259C1282.94 616.073 1282.66 612.957 1282.25 609.84C1281.9 607.417 1281.48 604.716 1279.96 602.638C1277.61 599.453 1273.66 600.284 1269.92 600.561C1267.7 600.769 1266.18 601.461 1264.1 602.292C1259.05 604.3 1257.59 610.533 1257.45 612.333C1257.38 613.58 1257.25 614.896 1257.18 616.142C1256.62 622.929 1255.86 629.646 1255.51 636.433C1255.1 643.219 1254.96 650.075 1255.1 656.862C1255.17 661.709 1254.61 666.488 1255.03 671.335C1255.45 675.906 1256.62 680.546 1260.22 683.662C1262.44 685.601 1265 686.64 1267.63 687.194C1272.76 688.163 1283.22 687.748 1284.39 682.554Z" fill="#FFCE33"/>
    <path d="M1282.31 649.036C1282.11 648.967 1281.83 648.967 1281.55 648.898C1282.04 648.759 1282.45 648.621 1282.94 648.413C1282.87 647.305 1282.73 646.266 1282.66 645.158C1278.23 646.059 1273.87 646.959 1269.5 648.205C1265.97 648.898 1262.44 649.729 1258.91 650.491C1257.59 650.768 1256.21 651.114 1254.89 651.46C1254.89 652.014 1254.89 652.568 1254.89 653.122C1255.38 653.053 1255.86 652.915 1256.41 652.845C1255.93 652.984 1255.45 653.122 1254.89 653.261C1254.89 653.746 1254.89 654.161 1254.89 654.646C1255.93 654.3 1256.9 653.884 1257.87 653.538C1258.84 653.261 1259.81 652.915 1260.85 652.568C1259.74 653.122 1258.63 653.676 1257.52 654.23C1257.38 654.3 1257.25 654.369 1257.04 654.369C1256.35 654.646 1255.58 654.923 1254.89 655.338C1254.89 655.823 1254.89 656.308 1254.89 656.793C1254.89 657.485 1254.89 658.247 1254.89 658.939C1257.18 658.524 1259.39 657.762 1261.61 656.931C1265.07 655.685 1268.46 654.369 1272 653.261C1275.18 652.291 1278.3 651.322 1281.48 650.283C1279.96 651.737 1277.74 652.568 1275.87 653.192C1273.31 654.092 1270.68 654.646 1268.12 655.408C1263.62 656.723 1259.32 658.939 1254.82 660.186C1254.82 660.601 1254.82 661.017 1254.75 661.432C1259.46 660.186 1263.96 657.831 1268.6 656.446C1271.37 655.615 1274.21 654.992 1276.98 653.953C1279.2 653.122 1281.48 652.084 1282.94 650.214C1282.87 649.66 1282.8 649.175 1282.8 648.621C1282.73 648.621 1282.73 648.621 1282.66 648.621C1282.66 648.898 1282.45 648.967 1282.31 649.036ZM1270.96 649.868C1272.13 649.521 1273.31 649.175 1274.56 648.829C1277.05 648.275 1279.61 647.859 1282.18 647.651C1280.93 648.067 1279.61 648.482 1278.3 648.829C1273.73 649.106 1269.36 651.045 1264.93 652.153C1264.66 652.222 1264.38 652.291 1264.17 652.361C1266.32 651.391 1268.6 650.56 1270.96 649.868ZM1257.59 655.477C1257.87 655.408 1258.08 655.269 1258.28 655.2C1259.25 654.854 1260.29 654.507 1261.33 654.23C1259.39 655.061 1257.38 655.892 1255.45 656.723C1256.14 656.308 1256.83 655.892 1257.59 655.477ZM1271.79 652.291C1268.4 653.33 1265.14 654.577 1261.82 655.823C1259.95 656.516 1258.01 657.208 1256 657.693C1260.22 655.962 1264.38 654.161 1268.67 652.568C1271.58 651.46 1274.56 650.768 1277.61 650.006C1278.23 649.937 1278.85 649.937 1279.48 649.937C1276.91 650.698 1274.35 651.46 1271.79 652.291Z" fill="white"/>
    <path d="M1255.44 635.394C1255.86 635.255 1256.28 635.186 1256.69 635.047C1256.28 635.186 1255.86 635.394 1255.44 635.532C1255.44 635.809 1255.38 636.086 1255.38 636.363C1255.38 636.433 1255.38 636.502 1255.38 636.571C1260.22 634.701 1265 632.554 1269.85 630.754C1273.8 629.577 1277.74 628.399 1281.62 627.291C1281.97 627.222 1282.31 627.153 1282.66 627.084C1273.52 630.408 1264.17 633.316 1255.31 637.333C1255.24 638.095 1255.24 638.856 1255.17 639.618C1264.24 636.225 1273.31 632.624 1282.59 629.715C1282.59 629.369 1282.59 629.023 1282.66 628.676C1281.07 629.023 1279.41 629.438 1277.81 629.854C1279.48 629.3 1281.07 628.676 1282.73 628.122C1282.8 627.222 1282.8 626.322 1282.87 625.422C1277.61 626.668 1272.55 628.538 1267.49 630.408C1266.66 630.615 1265.9 630.892 1265.07 631.1C1263.55 631.585 1261.95 632 1260.43 632.485C1267.84 629.715 1275.53 627.776 1282.94 624.868C1282.94 624.521 1282.94 624.175 1282.94 623.829C1278.85 625.491 1274.63 626.807 1270.47 628.122C1273.8 626.737 1277.19 625.422 1280.58 624.175C1281.34 623.967 1282.18 623.76 1283.01 623.621C1283.01 623.067 1283.01 622.582 1283.01 622.028C1273.66 624.175 1264.52 627.499 1255.86 631.516C1255.65 632.901 1255.58 634.147 1255.44 635.394ZM1257.18 638.095C1260.78 636.086 1264.72 634.563 1268.67 633.316C1271.3 632.485 1273.93 631.723 1276.64 631.031C1270.06 633.247 1263.69 635.671 1257.18 638.095ZM1266.66 628.192C1263.82 629.369 1260.99 630.546 1258.15 631.654C1260.92 630.477 1263.76 629.3 1266.66 628.192Z" fill="white"/>
    <path d="M1284.53 679.507C1284.53 679.437 1284.53 679.299 1284.53 679.23C1284.53 678.883 1284.53 678.606 1284.6 678.26C1283.28 678.606 1281.97 678.814 1280.65 679.022C1276.84 679.576 1273.03 679.645 1269.23 679.645C1267.08 679.645 1265 679.645 1262.92 679.576C1266.32 679.022 1269.71 678.26 1273.1 677.706C1276.5 677.152 1279.82 676.598 1283.15 675.559C1283.63 675.421 1284.18 675.213 1284.74 675.005C1284.74 674.313 1284.74 673.69 1284.74 672.997C1284.18 672.928 1283.63 672.928 1283.15 672.928C1279.48 672.789 1275.74 673.136 1272.07 673.482C1271.16 673.551 1270.33 673.62 1269.43 673.69C1272.62 672.859 1275.87 672.028 1279.13 671.474C1280.93 671.127 1282.87 670.85 1284.74 670.92C1284.74 670.296 1284.74 669.673 1284.67 669.05C1284.11 669.188 1283.56 669.327 1283.01 669.396C1283.56 669.258 1284.11 669.119 1284.67 668.98C1284.67 668.496 1284.67 668.08 1284.6 667.595C1277.81 668.357 1271.16 669.604 1264.45 670.85C1261.33 671.474 1258.28 672.235 1255.17 672.928C1255.24 673.274 1255.24 673.62 1255.31 673.967C1258.15 673.343 1260.99 672.651 1263.82 672.097C1267.7 671.335 1271.58 670.643 1275.53 670.019C1272.13 670.781 1268.81 671.543 1265.49 672.512C1264.79 672.72 1264.1 672.928 1263.48 673.136C1260.78 673.551 1258.08 673.897 1255.38 674.174C1255.45 674.521 1255.51 674.867 1255.58 675.213C1255.65 675.213 1255.65 675.213 1255.72 675.213C1255.65 675.213 1255.65 675.213 1255.58 675.282C1255.79 676.113 1256 676.944 1256.28 677.775C1256.76 677.637 1257.25 677.498 1257.66 677.291C1259.88 676.598 1262.02 675.836 1264.17 675.213C1266.66 675.075 1269.16 675.005 1271.65 674.798C1274.9 674.521 1278.16 674.174 1281.41 674.174C1282.18 674.174 1283.01 674.174 1283.77 674.244C1283.08 674.451 1282.38 674.659 1281.76 674.798C1278.78 675.629 1275.67 676.183 1272.62 676.667C1269.43 677.152 1266.32 677.845 1263.13 678.399C1261.12 678.745 1258.98 679.091 1256.83 679.16C1257.04 679.645 1257.31 680.13 1257.59 680.615C1261.61 680.892 1265.62 680.892 1269.57 680.892C1273.52 680.892 1277.47 680.753 1281.34 680.199C1282.31 679.991 1283.42 679.784 1284.53 679.507Z" fill="white"/>
    <path d="M1282.59 644.12C1282.59 643.773 1282.52 643.427 1282.52 643.081C1277.95 643.704 1273.45 645.158 1269.09 646.336C1264.38 647.651 1259.53 648.621 1254.96 650.283C1254.96 650.629 1254.96 650.975 1254.96 651.322C1259.53 649.66 1264.31 648.621 1268.95 647.374C1273.38 646.266 1277.95 644.743 1282.59 644.12Z" fill="white"/>
    <path d="M1265.07 669.743C1261.68 670.297 1258.28 670.851 1254.96 671.751C1254.96 672.028 1255.03 672.236 1255.03 672.513C1258.49 671.612 1262.02 671.058 1265.56 670.504C1268.6 670.02 1271.58 669.604 1274.56 668.981C1277.74 668.288 1281.21 667.527 1284.53 667.319C1284.53 666.973 1284.53 666.695 1284.46 666.349C1281.28 666.557 1278.09 667.25 1275.04 667.873C1271.72 668.635 1268.4 669.189 1265.07 669.743Z" fill="white"/>
    <path d="M1257.11 616.142C1257.04 617.042 1256.97 618.012 1256.9 618.912C1257.73 618.497 1258.49 618.081 1259.32 617.666C1263.89 616.419 1268.4 614.896 1272.76 613.095C1267.56 615.588 1262.23 617.943 1256.83 619.743C1256.83 620.089 1256.76 620.436 1256.76 620.851C1257.18 620.782 1257.52 620.643 1257.87 620.574C1261.96 619.535 1265.97 618.289 1269.92 616.973C1273.59 615.727 1277.33 614.342 1280.72 612.541C1281.21 612.264 1281.83 611.987 1282.38 611.572C1282.32 611.225 1282.32 610.879 1282.25 610.602C1281.62 611.018 1281.14 611.364 1280.93 611.433C1277.54 613.372 1273.8 614.757 1270.13 616.004C1268.12 616.696 1266.11 617.389 1264.03 617.943C1270.13 615.38 1276.08 612.403 1282.11 609.563C1282.04 608.94 1281.9 608.317 1281.83 607.694C1281 607.971 1280.17 608.248 1279.34 608.525C1276.84 609.356 1274.35 610.187 1271.86 611.156C1275.11 609.702 1278.37 608.317 1281.76 607.486C1281.62 606.724 1281.42 605.962 1281.14 605.201C1280.17 605.547 1279.2 605.893 1278.16 606.17C1275.18 607.14 1272.2 608.178 1269.3 609.356C1268.53 609.633 1267.84 609.979 1267.08 610.256C1267.63 609.979 1268.12 609.702 1268.67 609.494C1271.51 608.109 1274.35 606.655 1277.26 605.408C1278.37 604.923 1279.48 604.439 1280.65 604.093C1280.51 603.885 1280.45 603.677 1280.31 603.469C1279.55 603.746 1278.78 604.023 1278.02 604.3C1275.04 605.478 1272.2 607.001 1269.3 608.386C1266.04 609.979 1262.86 611.779 1259.6 613.511C1258.77 613.857 1257.94 614.203 1257.11 614.549C1257.18 615.103 1257.11 615.588 1257.11 616.142ZM1270.2 612.887C1271.17 612.472 1272.14 612.126 1273.1 611.779C1273.45 611.641 1273.8 611.572 1274.14 611.502C1271.72 612.541 1269.23 613.511 1266.73 614.342C1267.91 613.857 1269.09 613.372 1270.2 612.887ZM1266.39 612.68C1264.03 613.788 1261.61 614.757 1259.19 615.588C1261.47 614.48 1263.89 613.58 1266.39 612.68Z" fill="white"/>
    <path d="M1286.26 628.123C1285.02 628.261 1283.77 629.785 1282.8 630.546C1281.07 632.001 1279.34 633.524 1277.61 634.979C1274.14 637.818 1270.13 639.757 1266.66 642.527C1266.6 642.596 1266.46 642.665 1266.46 642.804C1265.97 642.873 1265.56 642.942 1265.07 642.942C1264.24 642.942 1263.34 642.942 1262.51 643.012C1261.47 643.15 1261.4 644.674 1262.51 644.674C1263.34 644.604 1264.86 644.604 1265.97 644.189C1265.83 644.327 1265.69 644.466 1265.56 644.674C1265 645.297 1264.17 645.989 1263.96 646.82C1263.83 647.374 1264.38 647.859 1264.93 647.582C1265.69 647.167 1266.18 646.266 1266.6 645.574C1266.73 645.366 1266.87 645.158 1267.01 645.02C1266.87 645.643 1266.8 646.336 1266.8 647.028C1266.8 648.067 1268.46 648.067 1268.4 647.028C1268.33 646.059 1268.19 645.089 1268.26 644.189C1271.37 641.557 1275.04 639.549 1278.3 637.056C1279.96 635.81 1281.55 634.355 1283.08 632.901C1284.39 631.724 1285.36 630.269 1286.61 628.954C1286.82 628.677 1286.68 628.123 1286.26 628.123Z" fill="#122528"/>
    <path d="M1461.31 80.2077C1454.82 62.7869 1434.59 56.5929 1418.37 53.4958C1415.31 52.9152 1412.07 52.7216 1409.01 53.1087C1412.45 44.979 1413.21 37.6236 1413.79 28.9132C1414.36 21.1706 1408.82 13.2345 1403.1 8.58898C1396.42 3.16918 1388.59 1.03997 1380.38 0.265716C1363.78 -0.895669 1348.89 8.00828 1339.73 21.7513C1338.77 23.1063 1338.01 24.8484 1337.25 26.5904C1333.24 25.6226 1329.42 24.8484 1325.22 24.4612C1320.26 23.8805 1315.1 27.1711 1310.71 29.1068C1303.08 32.3974 1295.63 43.6241 1292.96 51.3666C1291.63 55.0444 1291.24 59.4963 1291.63 63.5612C1283.04 63.7548 1274.07 66.6582 1268.15 71.1102C1261.66 75.9493 1258.41 83.1112 1257.84 91.0473C1257.08 99.9512 1265.09 106.92 1272.35 110.017C1289.91 117.759 1309.38 113.501 1327.7 113.694C1335.15 113.888 1342.21 112.533 1349.46 112.146C1359.2 111.759 1368.93 112.339 1378.67 112.726C1387.83 113.114 1396.8 112.92 1405.77 113.501C1415.69 113.888 1424.09 112.533 1433.64 110.21C1441.27 108.274 1450.05 107.307 1456.35 102.274C1463.22 96.6607 1464.37 88.3374 1461.31 80.2077Z" fill="#BEDCE3"/>
    <path d="M1187.65 110.965C1190.15 104.457 1197.78 102.109 1203.97 100.989C1205.14 100.776 1206.37 100.722 1207.54 100.829C1206.21 97.7883 1205.94 95.0675 1205.68 91.7599C1205.46 88.8258 1207.54 85.8916 1209.73 84.1311C1212.24 82.1573 1215.23 81.2503 1218.37 81.0369C1224.67 80.6102 1230.32 83.9177 1233.84 89.0925C1234.22 89.626 1234.48 90.2128 1234.75 90.9064C1236.25 90.5329 1237.69 90.2662 1239.29 90.1061C1241.15 89.8927 1243.13 91.1198 1244.83 91.8133C1247.77 93.0403 1250.54 97.2548 1251.56 100.189C1252.04 101.576 1252.2 103.23 1252.09 104.777C1255.34 104.83 1258.76 105.951 1261 107.604C1263.51 109.418 1264.68 112.086 1264.95 115.073C1265.21 118.381 1262.17 121.048 1259.45 122.222C1252.78 125.103 1245.37 123.555 1238.43 123.609C1235.61 123.662 1232.94 123.182 1230.16 123.022C1226.43 122.862 1222.8 123.075 1219.07 123.289C1215.6 123.449 1212.19 123.395 1208.72 123.555C1204.98 123.716 1201.73 123.182 1198.1 122.328C1195.22 121.635 1191.86 121.261 1189.46 119.341C1186.9 117.154 1186.42 114.059 1187.65 110.965Z" fill="#BEDCE3"/>
    <path d="M1260.15 115.126C1259.99 115.447 1259.45 115.447 1259.35 115.073C1258.33 111.819 1254.17 109.578 1251.66 113.259C1251.45 113.579 1250.86 113.526 1250.86 113.099C1250.6 107.658 1245.31 108.245 1242.22 110.538C1241.31 111.232 1240.35 112.246 1239.18 112.459C1239.02 112.512 1238.75 112.352 1238.75 112.139C1238.06 108.565 1237.15 100.562 1231.92 105.257C1230.27 106.751 1230.38 109.685 1229.74 111.659C1229.63 111.979 1229.15 112.139 1228.94 111.819C1226.38 107.818 1223.98 108.831 1221.04 111.392C1220.77 111.605 1220.29 111.552 1220.29 111.125C1220.24 110.432 1218.85 109.098 1218.53 108.725C1217.04 107.018 1215.33 105.951 1212.99 106.591C1209.94 107.391 1209.36 110.592 1208.24 113.046C1208.08 113.419 1207.54 113.313 1207.44 112.993C1206.48 110.432 1202.74 110.378 1201.3 112.512C1201.14 112.779 1200.72 112.886 1200.56 112.566C1199.22 110.005 1196.87 110.539 1195.65 112.619C1195.49 112.886 1195.06 112.993 1194.9 112.672C1194.1 111.125 1192.98 110.058 1191.75 108.885C1190.95 108.084 1190.1 107.924 1189.3 108.138C1189.51 107.871 1189.73 107.604 1189.99 107.338C1191.11 107.338 1191.97 107.871 1192.98 108.885C1193.62 109.525 1194.26 110.112 1194.85 110.805C1195.27 111.339 1195.22 111.712 1195.17 111.819C1195.22 111.766 1195.27 111.659 1195.43 111.499C1196.5 110.325 1196.93 109.578 1198.63 109.792C1199.11 109.845 1199.81 110.272 1200.13 110.592C1201.3 111.659 1200.66 112.086 1201.62 110.432C1203.12 107.924 1206.48 109.952 1207.86 111.926C1209.3 108.618 1210.37 106.164 1214.43 105.47C1216.67 105.097 1220.24 107.978 1221.04 110.325C1224.19 107.711 1226.75 107.231 1229.2 110.592C1230.16 107.444 1230.22 105.31 1233.26 103.123C1235.61 101.469 1237.85 104.457 1238.7 106.377C1239.34 107.764 1238.81 112.032 1240.94 110.432C1242.54 109.258 1243.82 107.924 1245.79 107.764C1248.94 107.498 1251.08 109.205 1251.66 111.979C1254.38 109.151 1258.38 110.592 1259.93 113.953C1260.84 112.832 1262.23 112.032 1263.67 112.566C1264.15 112.726 1264.47 112.993 1264.79 113.259C1264.89 113.633 1264.95 114.006 1265 114.433C1263.77 113.366 1261.11 113.366 1260.15 115.126Z" fill="white"/>
    <path d="M1187.33 116.193C1188.5 115.393 1189.83 114.913 1191.22 114.966C1192.5 115.02 1193.73 115.5 1194.85 116.033C1195.65 116.407 1195.91 117.687 1196.23 117.474C1198.1 116.3 1201.62 116.834 1203.33 118.114C1204.77 119.234 1204.08 118.701 1205.94 117.527C1207.06 116.834 1208.88 117.1 1210 117.527C1210.75 117.794 1210.96 118.327 1211.23 118.061C1212.4 116.887 1213.95 115.767 1215.28 114.913C1217.79 113.259 1220.72 114.486 1223.12 115.767C1224.72 116.62 1224.51 118.221 1226.06 116.78C1227.23 115.713 1228.94 115.5 1230.43 115.447C1232.19 115.34 1234.59 115.767 1235.07 117.474C1236.25 116.62 1237.37 116.14 1238.97 115.98C1240.25 115.873 1243.23 115.98 1244.09 117.26C1244.09 117.314 1247.98 116.247 1248.78 116.674C1250.44 117.581 1251.5 118.648 1251.98 120.301C1254.22 118.167 1256.41 116.674 1259.67 117.26C1260.73 117.474 1262.6 118.648 1263.19 119.554C1263.08 119.661 1262.97 119.821 1262.81 119.928C1261.64 118.221 1256.04 118.327 1255.98 118.381C1254.7 119.234 1253.21 120.301 1252.09 121.422C1251.82 121.688 1251.4 121.528 1251.34 121.155C1250.86 118.541 1249.21 117.367 1246.38 117.474C1246.6 117.42 1244.19 118.541 1244.25 118.487C1244.09 118.594 1243.82 118.434 1243.77 118.327C1241.9 115.553 1237.1 116.887 1235.13 118.594C1234.81 118.914 1234.32 118.648 1234.38 118.221C1234.59 116.033 1230.75 116.354 1229.47 116.407C1226.75 116.567 1226.75 117.741 1225.36 118.701C1225.2 118.808 1224.94 118.808 1224.83 118.648C1222.96 116.514 1220.19 114.433 1217.09 115.127C1215.28 115.553 1212.77 117.954 1211.49 119.181C1211.28 119.394 1210.96 119.341 1210.8 119.128C1209.14 116.994 1206.16 118.648 1204.45 119.768C1204.29 119.875 1204.08 119.821 1203.92 119.821C1203.76 119.821 1203.65 119.661 1203.6 119.554C1202.74 117.154 1197.41 117.901 1196.07 118.754C1195.86 118.861 1195.59 118.861 1195.49 118.648C1193.62 115.393 1190.26 115.5 1187.81 117.207C1187.59 116.834 1187.43 116.514 1187.33 116.193Z" fill="white"/>
    <path d="M1246.65 92.8269C1244.78 92.7203 1242.86 93.5738 1241.37 95.2276C1241.1 95.4944 1240.78 95.3343 1240.62 95.0676C1239.34 92.4002 1235.13 93.0937 1233.63 95.0676C1233.36 95.3877 1232.94 95.1209 1232.88 94.8008C1232.46 92.1868 1230.38 88.4524 1227.23 89.9995C1225.79 90.7464 1225.2 92.4002 1224.67 93.8406C1224.56 94.1607 1224.08 94.1607 1223.92 93.8939C1223.12 92.4002 1222.37 90.9598 1220.4 90.7997C1218.91 90.693 1217.79 92.5069 1216.67 93.3604C1216.4 93.5738 1216.03 93.3071 1215.97 93.0403C1215.76 88.8792 1211.39 91.1198 1209.52 92.6136C1209.3 92.7736 1208.93 92.6136 1208.88 92.4002C1208.13 90.3729 1207.06 89.7328 1205.84 89.7328C1205.94 89.306 1206.1 88.8258 1206.32 88.399C1206.42 88.399 1206.53 88.399 1206.69 88.4524C1207.38 88.6124 1208.24 89.5727 1208.66 89.9995C1208.88 90.2129 1209.04 90.533 1209.2 90.7997C1209.68 91.92 1209.3 91.6533 1209.62 91.3865C1211.23 90.1062 1212.83 88.8792 1214.96 89.4127C1215.71 89.5727 1216.03 90.1595 1216.4 90.693C1217.31 92.0267 1216.45 92.4002 1218.16 90.7997C1219.01 89.9995 1220.77 89.5727 1221.84 90.1062C1222.53 90.4796 1222.91 90.7464 1223.34 91.4399C1223.92 92.4002 1223.92 93.2537 1224.3 92.2935C1224.62 91.4932 1224.83 91.2799 1225.31 90.5863C1226.27 89.306 1228.88 87.9723 1230.48 88.9325C1232.35 90.1062 1233.15 91.92 1233.58 93.9473C1235.55 92.2401 1239.5 91.76 1241.05 94.1073C1240.99 94.0006 1243.71 91.92 1244.46 91.92C1244.62 91.92 1244.78 91.92 1244.94 91.92C1245.53 92.0267 1246.11 92.4002 1246.65 92.8269Z" fill="white"/>
    <path d="M1252.04 101.843C1250.01 100.723 1246.38 102.59 1245.26 103.817C1244.99 104.137 1244.41 103.87 1244.51 103.443C1244.73 102.803 1244.78 102.11 1244.73 101.469C1244.94 97.3616 1237.1 96.0812 1237.26 100.616C1237.26 101.096 1236.57 101.256 1236.41 100.776C1235.23 97.6283 1230.96 99.1754 1229.15 100.082C1227.6 100.829 1226.54 103.283 1225.84 104.777C1225.68 105.097 1225.15 105.044 1225.04 104.724C1224.56 103.016 1224.03 101.469 1223.18 99.8689C1222.06 97.7884 1218.85 94.9076 1216.35 99.1221C1215.92 99.8689 1215.6 100.776 1215.23 101.523C1215.01 101.95 1214.48 101.736 1214.43 101.363C1213.68 96.2946 1209.57 97.2549 1206.69 98.5352C1206.58 98.2152 1206.53 97.9484 1206.48 97.6283C1207.49 97.1482 1208.56 96.8281 1209.68 96.7747C1211.97 96.6147 1214.16 98.1085 1215.01 100.189C1216.08 98.0551 1217.84 94.8009 1220.51 96.1879C1223.39 97.6817 1224.78 100.456 1225.68 103.39C1226.96 100.776 1228.56 99.1754 1231.66 98.3218C1233.53 97.7884 1235.5 98.0551 1236.67 99.3888C1237.31 97.0948 1239.87 96.1879 1242.27 96.6147C1244.73 97.0415 1245.74 100.189 1245.64 102.536C1247.34 101.256 1249.96 100.402 1251.88 100.989C1251.93 101.149 1251.98 101.469 1252.04 101.843Z" fill="white"/>
    <path d="M1225.31 87.172C1225.2 87.3854 1224.83 87.4921 1224.62 87.2787C1222.59 85.1981 1220.24 83.1709 1218.53 86.5318C1218.37 86.9053 1217.84 86.7986 1217.73 86.4785C1217.25 85.1981 1216.72 83.4376 1215.81 82.424C1215.49 82.0506 1215.12 81.8372 1214.69 81.6238C1215.12 81.5171 1215.55 81.4104 1216.03 81.3037C1217.15 82.2106 1217.73 83.7577 1218.21 85.1448C1218.53 84.3446 1218.85 83.8111 1220.13 83.7577C1222.06 83.651 1223.44 83.651 1224.56 85.3582C1224.78 85.6783 1224.88 85.8917 1224.88 86.0517C1224.99 85.8917 1225.2 85.6783 1225.68 85.4115C1226.8 84.8247 1227.71 84.5046 1228.99 84.3446C1229.1 84.3446 1229.2 84.3446 1229.36 84.2912C1229.79 84.6113 1230.16 84.9314 1230.54 85.2515C1228.51 84.9314 1226.27 85.3582 1225.31 87.172Z" fill="white"/>
    <path d="M1221.53 46.7257C1223.6 41.3553 1229.9 39.4184 1235 38.494C1235.97 38.3179 1236.98 38.2739 1237.95 38.3619C1236.85 35.8528 1236.63 33.6077 1236.41 30.8785C1236.23 28.4574 1237.95 26.0363 1239.76 24.5836C1241.83 22.9549 1244.29 22.2066 1246.89 22.0305C1252.08 21.6783 1256.75 24.4076 1259.65 28.6775C1259.96 29.1177 1260.18 29.6019 1260.4 30.1742C1261.63 29.866 1262.82 29.6459 1264.14 29.5139C1265.68 29.3378 1267.31 30.3503 1268.72 30.9225C1271.14 31.935 1273.43 35.4126 1274.27 37.8337C1274.66 38.9782 1274.8 40.3428 1274.71 41.6194C1277.39 41.6634 1280.21 42.5878 1282.06 43.9525C1284.13 45.4491 1285.1 47.6501 1285.32 50.1153C1285.54 52.8445 1283.03 55.0455 1280.78 56.0139C1275.28 58.391 1269.16 57.1144 1263.44 57.1585C1261.11 57.2025 1258.91 56.8063 1256.62 56.6742C1253.53 56.5422 1250.54 56.7183 1247.46 56.8943C1244.6 57.0264 1241.78 56.9824 1238.92 57.1144C1235.84 57.2465 1233.15 56.8063 1230.16 56.102C1227.78 55.5297 1225.01 55.2216 1223.03 53.6369C1220.92 51.832 1220.52 49.2789 1221.53 46.7257Z" fill="#BEDCE3"/>
    <path d="M1281.36 50.1594C1281.22 50.4235 1280.78 50.4235 1280.69 50.1154C1279.86 47.4302 1276.42 45.5813 1274.36 48.6187C1274.18 48.8828 1273.7 48.8388 1273.7 48.4867C1273.48 43.9966 1269.12 44.4808 1266.56 46.3737C1265.82 46.946 1265.02 47.7823 1264.06 47.9584C1263.92 48.0024 1263.7 47.8704 1263.7 47.6943C1263.13 44.745 1262.38 38.1419 1258.07 42.0157C1256.7 43.2483 1256.79 45.6694 1256.26 47.2981C1256.18 47.5622 1255.78 47.6943 1255.6 47.4302C1253.49 44.1287 1251.51 44.9651 1249.09 47.078C1248.87 47.2541 1248.47 47.2101 1248.47 46.8579C1248.43 46.2857 1247.28 45.1852 1247.02 44.877C1245.79 43.4684 1244.38 42.588 1242.44 43.1162C1239.93 43.7765 1239.45 46.4177 1238.52 48.4426C1238.39 48.7508 1237.95 48.6627 1237.86 48.3986C1237.07 46.2857 1233.99 46.2416 1232.8 48.0024C1232.67 48.2225 1232.32 48.3106 1232.18 48.0465C1231.08 45.9335 1229.15 46.3737 1228.13 48.0905C1228 48.3106 1227.65 48.3986 1227.52 48.1345C1226.86 46.8579 1225.93 45.9775 1224.92 45.0091C1224.26 44.3488 1223.56 44.2167 1222.9 44.3928C1223.07 44.1727 1223.25 43.9526 1223.47 43.7325C1224.39 43.7325 1225.1 44.1727 1225.93 45.0091C1226.46 45.5373 1226.99 46.0215 1227.47 46.5938C1227.83 47.034 1227.78 47.3421 1227.74 47.4302C1227.78 47.3862 1227.83 47.2981 1227.96 47.1661C1228.84 46.1976 1229.19 45.5813 1230.6 45.7574C1231 45.8014 1231.57 46.1536 1231.83 46.4177C1232.8 47.2981 1232.27 47.6503 1233.07 46.2857C1234.3 44.2167 1237.07 45.8895 1238.22 47.5182C1239.4 44.789 1240.28 42.7641 1243.63 42.1918C1245.48 41.8836 1248.43 44.2607 1249.09 46.1976C1251.69 44.0406 1253.8 43.6445 1255.82 46.4177C1256.62 43.8205 1256.66 42.0597 1259.17 40.2549C1261.11 38.8903 1262.95 41.3554 1263.66 42.9401C1264.19 44.0847 1263.75 47.6063 1265.51 46.2857C1266.83 45.3172 1267.88 44.2167 1269.51 44.0847C1272.11 43.8646 1273.87 45.2732 1274.36 47.5622C1276.6 45.2292 1279.9 46.4177 1281.18 49.191C1281.93 48.2666 1283.07 47.6063 1284.26 48.0465C1284.66 48.1785 1284.92 48.3986 1285.18 48.6187C1285.27 48.9269 1285.32 49.235 1285.36 49.5872C1284.35 48.7068 1282.15 48.7068 1281.36 50.1594Z" fill="white"/>
    <path d="M1221.27 51.0397C1222.24 50.3794 1223.34 49.9832 1224.48 50.0273C1225.54 50.0713 1226.55 50.4675 1227.47 50.9077C1228.13 51.2158 1228.35 52.2723 1228.62 52.0962C1230.16 51.1278 1233.06 51.568 1234.47 52.6244C1235.66 53.5489 1235.09 53.1087 1236.63 52.1402C1237.56 51.568 1239.05 51.7881 1239.98 52.1402C1240.59 52.3603 1240.77 52.8005 1240.99 52.5804C1241.96 51.612 1243.23 50.6876 1244.33 49.9832C1246.4 48.6186 1248.82 49.6311 1250.81 50.6876C1252.13 51.3919 1251.95 52.7125 1253.23 51.5239C1254.19 50.6435 1255.6 50.4675 1256.84 50.4234C1258.29 50.3354 1260.27 50.6876 1260.67 52.0962C1261.63 51.3919 1262.56 50.9957 1263.88 50.8636C1264.94 50.7756 1267.4 50.8636 1268.1 51.9201C1268.1 51.9641 1271.32 51.0837 1271.98 51.4359C1273.34 52.1842 1274.22 53.0646 1274.62 54.4293C1276.47 52.6685 1278.27 51.4359 1280.96 51.9201C1281.84 52.0962 1283.38 53.0646 1283.86 53.813C1283.78 53.901 1283.69 54.0331 1283.56 54.1211C1282.59 52.7125 1277.97 52.8005 1277.92 52.8445C1276.86 53.5489 1275.63 54.4293 1274.71 55.3537C1274.49 55.5738 1274.14 55.4417 1274.09 55.1336C1273.7 52.9766 1272.33 52.0082 1270 52.0962C1270.17 52.0522 1268.19 52.9766 1268.24 52.9326C1268.1 53.0206 1267.88 52.8886 1267.84 52.8005C1266.3 50.5115 1262.34 51.612 1260.71 53.0206C1260.45 53.2847 1260.05 53.0646 1260.09 52.7125C1260.27 50.9077 1257.1 51.1718 1256.04 51.2158C1253.8 51.3479 1253.8 52.3163 1252.65 53.1087C1252.52 53.1967 1252.3 53.1967 1252.21 53.0646C1250.67 51.3038 1248.38 49.5871 1245.83 50.1593C1244.33 50.5115 1242.27 52.4924 1241.21 53.5048C1241.03 53.6809 1240.77 53.6369 1240.64 53.4608C1239.27 51.7 1236.81 53.0646 1235.4 53.9891C1235.27 54.0771 1235.09 54.0331 1234.96 54.0331C1234.83 54.0331 1234.74 53.901 1234.69 53.813C1233.99 51.8321 1229.59 52.4484 1228.49 53.1527C1228.31 53.2407 1228.09 53.2407 1228 53.0646C1226.46 50.3794 1223.69 50.4675 1221.66 51.8761C1221.49 51.568 1221.36 51.3038 1221.27 51.0397Z" fill="white"/>
    <path d="M1270.22 31.7589C1268.68 31.6708 1267.09 32.3752 1265.86 33.7398C1265.64 33.9599 1265.38 33.8278 1265.24 33.6077C1264.19 31.4067 1260.71 31.979 1259.48 33.6077C1259.26 33.8718 1258.9 33.6517 1258.86 33.3876C1258.51 31.2306 1256.79 28.1492 1254.19 29.4258C1253.01 30.0421 1252.52 31.4067 1252.08 32.5953C1251.99 32.8594 1251.6 32.8594 1251.46 32.6393C1250.8 31.4067 1250.19 30.2182 1248.56 30.0861C1247.33 29.9981 1246.4 31.4948 1245.48 32.1991C1245.26 32.3752 1244.95 32.1551 1244.91 31.935C1244.73 28.5014 1241.12 30.3502 1239.58 31.5828C1239.4 31.7149 1239.1 31.5828 1239.05 31.4067C1238.43 29.734 1237.55 29.2057 1236.54 29.2057C1236.63 28.8536 1236.76 28.4574 1236.94 28.1052C1237.03 28.1052 1237.11 28.1052 1237.25 28.1492C1237.82 28.2813 1238.52 29.0737 1238.88 29.4258C1239.05 29.6019 1239.18 29.866 1239.32 30.0861C1239.71 31.0105 1239.4 30.7904 1239.67 30.5703C1240.99 29.5139 1242.31 28.5014 1244.07 28.9416C1244.69 29.0737 1244.95 29.5579 1245.26 29.9981C1246.01 31.0986 1245.3 31.4067 1246.71 30.0861C1247.41 29.4258 1248.87 29.0737 1249.75 29.5139C1250.32 29.822 1250.63 30.0421 1250.98 30.6144C1251.46 31.4067 1251.46 32.111 1251.77 31.3187C1252.04 30.6584 1252.21 30.4823 1252.61 29.91C1253.4 28.8536 1255.56 27.7531 1256.88 28.5454C1258.42 29.5139 1259.08 31.0105 1259.43 32.6833C1261.06 31.2747 1264.32 30.8785 1265.6 32.8154C1265.55 32.7273 1267.8 31.0105 1268.41 31.0105C1268.54 31.0105 1268.68 31.0105 1268.81 31.0105C1269.29 31.0986 1269.78 31.4067 1270.22 31.7589Z" fill="white"/>
    <path d="M1274.66 39.1984C1272.99 38.274 1270 39.8147 1269.07 40.8271C1268.85 41.0913 1268.37 40.8712 1268.46 40.519C1268.63 39.9908 1268.68 39.4185 1268.63 38.8903C1268.81 35.5007 1262.34 34.4442 1262.47 38.1859C1262.47 38.5821 1261.9 38.7142 1261.77 38.318C1260.8 35.7208 1257.28 36.9974 1255.78 37.7457C1254.5 38.362 1253.62 40.3869 1253.05 41.6195C1252.92 41.8836 1252.48 41.8396 1252.39 41.5755C1251.99 40.1668 1251.55 38.8903 1250.85 37.5696C1249.93 35.8529 1247.28 33.4758 1245.21 36.9534C1244.86 37.5696 1244.6 38.318 1244.29 38.9343C1244.11 39.2864 1243.67 39.1103 1243.63 38.8022C1243.01 34.6203 1239.62 35.4127 1237.25 36.4691C1237.16 36.205 1237.12 35.9849 1237.07 35.7208C1237.91 35.3246 1238.79 35.0605 1239.71 35.0165C1241.61 34.8844 1243.41 36.117 1244.11 37.8338C1244.99 36.073 1246.45 33.3877 1248.65 34.5323C1251.03 35.7648 1252.17 38.0539 1252.92 40.475C1253.97 38.318 1255.3 36.9974 1257.85 36.2931C1259.39 35.8529 1261.02 36.073 1261.99 37.1735C1262.51 35.2806 1264.63 34.5323 1266.61 34.8844C1268.63 35.2366 1269.47 37.8338 1269.38 39.7706C1270.79 38.7142 1272.95 38.0098 1274.53 38.4941C1274.58 38.6261 1274.62 38.8902 1274.66 39.1984Z" fill="white"/>
    <path d="M1252.61 27.0928C1252.52 27.2689 1252.21 27.3569 1252.04 27.1809C1250.36 25.4641 1248.43 23.7913 1247.02 26.5646C1246.89 26.8727 1246.45 26.7847 1246.36 26.5206C1245.96 25.4641 1245.52 24.0114 1244.77 23.175C1244.51 22.8669 1244.2 22.6908 1243.85 22.5147C1244.2 22.4267 1244.55 22.3387 1244.95 22.2506C1245.87 22.999 1246.36 24.2755 1246.75 25.4201C1247.02 24.7598 1247.28 24.3196 1248.34 24.2755C1249.92 24.1875 1251.07 24.1875 1251.99 25.5961C1252.17 25.8603 1252.26 26.0363 1252.26 26.1684C1252.35 26.0363 1252.52 25.8603 1252.92 25.6402C1253.84 25.1559 1254.59 24.8918 1255.65 24.7598C1255.74 24.7598 1255.82 24.7598 1255.96 24.7157C1256.31 24.9799 1256.62 25.244 1256.92 25.5081C1255.25 25.244 1253.4 25.5961 1252.61 27.0928Z" fill="white"/>
    <path d="M260.161 139.368C260.046 138.68 260.046 137.935 260.218 137.247C260.218 137.075 260.333 136.96 260.447 136.96C260.619 136.96 260.734 137.018 260.791 137.19C261.25 138.221 262.396 141.66 260.791 141.832C260.447 141.89 260.218 141.546 260.161 141.259C260.103 140.973 260.218 140.686 260.218 140.399C260.333 140.055 260.218 139.712 260.161 139.368Z" fill="#122528"/>
    <path d="M256.493 136.444C256.722 136.215 257.123 136.33 257.123 136.674C257.066 137.476 257.123 138.164 257.18 138.966C257.295 139.769 257.238 140.686 256.951 141.431C256.837 141.66 256.665 141.832 256.378 141.832C255.232 141.89 255.748 140.457 255.805 139.769C255.919 138.737 255.69 137.247 256.493 136.444Z" fill="#122528"/>
    <path d="M252.595 136.788C252.767 136.33 253.455 136.559 253.397 137.018C253.226 138.221 253.856 141.488 252.251 141.947C252.022 142.004 251.793 141.947 251.735 141.718C251.391 140.973 251.85 140.055 252.022 139.31C252.137 138.451 252.308 137.591 252.595 136.788Z" fill="#122528"/>
    <path d="M248.64 136.158C248.869 135.814 249.385 136.158 249.213 136.502C248.812 137.476 248.64 138.451 248.468 139.425C248.296 140.285 248.239 141.259 247.608 141.89C247.436 142.062 247.092 141.947 247.035 141.718C246.748 140.858 247.15 139.826 247.379 138.966C247.666 137.992 248.067 137.018 248.64 136.158Z" fill="#122528"/>
    <path d="M262.396 138.68C260.046 138.795 257.754 138.508 255.404 138.795C253.741 138.966 252.022 138.795 250.36 139.024C249.099 139.196 243.596 139.196 242.45 138.451C241.418 137.763 241.705 127.388 248.296 123.663C250.302 122.172 255.346 121.771 257.524 122.115C261.135 122.688 263.715 125.726 265.663 128.649C267.211 130.942 268.988 135.126 266.695 137.476C265.606 138.508 263.887 138.565 262.396 138.68Z" fill="#DA7015"/>
    <path d="M264.574 133.177C265.377 132.146 266.752 131.916 267.956 132.318C267.956 132.031 267.956 131.687 267.899 131.401C267.784 130.942 267.555 130.541 267.383 130.14C267.211 130.14 267.096 130.14 266.982 130.025C266.638 129.796 266.523 129.394 266.638 128.993C266.752 128.707 267.039 128.477 267.268 128.477C267.784 128.363 268.128 129.051 268.071 129.452C268.071 129.566 268.013 129.738 267.899 129.796C268.587 130.484 268.701 131.573 268.587 132.49C268.644 132.547 268.759 132.604 268.816 132.604C269.504 130.713 268.816 129.051 268.243 127.159C268.128 127.102 268.071 127.102 267.956 126.987C267.727 126.815 267.498 126.586 267.44 126.357C267.326 125.669 268.357 125.325 268.816 125.669C269.045 125.841 269.102 126.127 269.102 126.414C269.102 126.586 269.102 126.758 268.988 126.93C268.93 126.987 268.873 127.044 268.759 127.102C269.962 128.821 270.019 131.114 269.16 132.948C269.504 133.235 269.79 133.579 269.962 133.98C270.822 133.751 271.682 133.349 272.541 132.948C272.771 132.834 273 133.063 273 133.292C272.885 134.668 271.567 135.757 270.249 136.101C270.019 137.132 269.446 138.107 268.587 138.565C267.555 139.196 266.523 139.081 265.606 138.623C265.262 138.508 265.033 138.336 264.746 138.049C264.517 137.877 264.345 137.648 264.116 137.476C262.797 135.929 263.313 134.209 264.574 133.177Z" fill="#122528"/>
    <path d="M259.76 129.566C259.473 128.592 260.104 127.503 260.906 127.044C261.365 126.758 261.88 126.586 262.454 126.758C263.027 126.93 263.371 127.503 263.485 128.076C263.657 128.821 263.657 129.796 263.084 130.426C262.511 131.057 261.708 131.114 261.078 130.713C260.447 130.541 259.932 130.14 259.76 129.566Z" fill="#122528"/>
    <path d="M253.283 126.013C252.652 124.694 253.856 123.261 255.117 122.975C255.977 122.803 256.779 123.261 257.352 123.835C257.868 124.35 258.04 125.038 257.811 125.726C257.639 126.414 256.951 126.758 256.206 126.93C255.232 127.331 253.741 127.044 253.283 126.013Z" fill="#122528"/>
    <path d="M246.175 131.171C245.258 130.655 244.914 129.624 245.086 128.649C245.201 127.732 245.774 126.815 246.634 126.471C247.952 125.955 249.213 126.872 249.557 128.133C250.015 129.566 249.5 130.999 248.009 131.343C247.379 131.458 246.691 131.401 246.175 131.171Z" fill="#122528"/>
    <path d="M253.97 130.713C255.059 130.483 255.805 131.458 255.977 132.375C256.091 132.776 255.977 133.349 255.69 133.636C255.633 133.693 255.633 133.693 255.575 133.751C255.289 134.209 254.658 134.324 254.142 134.266C253.627 134.209 253.168 133.923 252.824 133.521C251.85 132.547 252.767 130.999 253.97 130.713Z" fill="#122528"/>
    <path d="M239.91 574.531C239.639 573.106 239.096 570.867 237.535 570.324C236.382 569.917 234.957 570.053 233.803 570.189C225.118 570.732 216.026 573.31 207.545 570.257C197.503 566.525 192.279 556.483 186.172 548.409C178.912 538.842 170.838 529.817 161.61 522.082C154.893 516.451 147.497 511.701 139.898 507.291C132.705 503.152 125.445 499.284 118.592 494.671C110.654 489.31 102.851 483.204 97.9658 474.79C93.6233 467.327 92.402 458.71 92.1306 450.228C91.8592 441.408 92.3342 432.655 94.0304 424.038C95.0482 418.61 96.4731 413.249 98.7122 408.228C99.8656 405.582 101.358 402.8 103.462 400.697C104.208 405.447 106.108 410.196 110.857 412.028C115.743 413.86 121.374 411.621 125.378 408.839C129.856 405.854 133.859 401.375 135.284 396.083C136.777 390.519 133.995 385.431 128.702 383.259C124.767 381.699 120.289 381.495 116.15 381.699C111.875 381.902 107.533 382.649 103.53 384.141C102.037 384.684 100.544 385.431 99.255 386.448C97.4908 387.805 96.2695 389.977 94.9125 391.741C83.5814 406.532 75.7107 433.605 72.9966 443.647C67.84 462.781 62.1405 505.73 64.5831 525.678C65.6687 534.771 68.3828 543.727 73.0645 551.733C78.0176 560.215 85.2098 567.678 93.3519 573.038C95.4553 574.395 97.6265 575.481 100.001 576.431C101.223 578.806 102.444 581.113 103.394 583.555C103.937 584.912 104.479 586.269 104.887 587.694C105.226 588.983 105.904 590.205 106.04 591.562C106.176 592.783 105.429 592.851 104.479 592.987C103.258 593.122 102.037 593.326 100.816 593.529C98.6443 593.801 95.7267 594.208 94.3018 596.108C94.0304 596.447 93.8947 597.058 94.3018 597.465C97.6265 600.179 102.58 598.347 106.311 597.668C107.736 597.397 109.229 597.397 109.84 595.769C110.654 593.597 110.247 591.494 109.704 589.323C109.161 586.88 108.822 584.437 108.347 581.995C108.143 580.909 107.872 579.824 107.465 578.806C111.129 579.62 114.861 580.231 118.457 580.638C125.106 581.452 131.823 581.791 138.473 581.927C136.912 584.912 135.894 588.237 135.012 591.494C134.47 593.326 133.113 595.972 134.605 597.736C135.827 599.161 138.337 598.415 140.101 598.686C142.205 598.958 143.765 599.432 146.004 599.907C147.226 600.179 148.786 599.907 149.94 599.365C150.686 598.958 151.297 598.008 151.161 597.193C151.025 596.311 150.211 595.769 149.465 595.429C147.497 594.412 144.851 593.937 142.612 594.004C141.458 594.004 139.016 594.615 139.423 592.715C139.694 591.358 140.508 590.069 141.051 588.78C142.001 586.541 143.087 584.234 144.376 582.13C145.936 582.13 147.497 582.131 148.99 582.198C157.607 582.266 166.292 582.266 174.909 583.08C184.544 584.03 194.043 586.134 203.678 587.084C213.041 587.966 223.49 588.305 232.175 584.03C234.211 583.013 236.043 581.723 237.739 580.231C239.299 578.534 240.317 576.702 239.91 574.531Z" fill="#FFCE33"/>
    <path d="M116.218 391.876C116.082 391.334 115.675 391.062 115.2 390.994C114.928 390.859 114.589 390.927 114.25 391.062H114.182C113.504 391.266 112.893 391.673 112.486 392.216C112.35 392.351 112.214 392.487 112.147 392.623C111.536 393.437 111.468 394.93 112.554 395.337C113.436 395.676 114.453 394.998 115.132 394.455C115.946 393.844 116.421 392.894 116.218 391.876Z" fill="#122528"/>
    <path d="M103.462 384.141C104.072 380.681 105.226 375.185 109.093 373.964C109.093 376.746 109.229 379.595 109.636 382.377C111.061 382.106 111.129 382.581 110.993 380.817C110.925 379.052 110.925 377.288 110.925 375.524C110.925 372.539 110.518 370.978 107.329 372.742C103.19 375.049 101.765 380.884 101.223 385.159C101.969 384.752 102.715 384.413 103.462 384.141C103.597 383.191 102.715 384.413 103.462 384.141Z" fill="#122528"/>
    <path d="M214.466 578.738C212.973 578.738 211.413 578.534 210.124 577.788C208.36 576.77 209.242 574.599 207.952 573.717C206.46 572.699 203.203 574.124 201.439 573.853C199.403 573.513 197.096 572.767 195.875 571.206C194.722 569.782 195.4 567.475 193.839 566.253C192.007 564.828 188.818 566.864 187.122 567.678C186.715 566.253 186.24 561.232 184.408 561.232C183.255 561.232 182.033 561.911 180.744 561.979C178.912 561.979 179.455 559.468 179.387 557.908C179.319 556.551 179.523 554.244 178.709 553.09C177.894 551.937 175.927 552.887 174.909 553.158C171.72 554.04 168.667 555.329 165.613 556.686C165.342 554.719 164.189 540.47 161.746 541.352C159.235 542.234 150.89 546.509 149.126 542.709C148.379 541.013 150.076 534.16 147.972 533.753C146.005 533.413 142.68 536.195 141.187 537.281C139.084 538.909 137.116 540.741 135.488 542.845C135.148 540.402 134.538 538.027 133.927 535.652C133.588 534.363 133.249 533.074 132.977 531.785C132.706 530.564 132.909 527.985 132.095 527.035C130.263 524.932 119 533.685 117.1 534.906C116.693 532.531 115.607 517.061 113.368 516.654C109.365 515.976 100.137 519.64 93.895 521.472C95.9983 517.401 98.5088 513.533 100.612 509.462C101.698 507.291 104.48 502.813 101.494 500.981C97.2875 498.334 90.8417 500.641 86.2278 500.506C86.9063 494.806 89.0097 489.378 91.8594 484.493C94.0307 480.693 79.0356 481.507 77.6107 481.643C79.9855 478.997 82.7674 476.215 81.6818 472.28C80.5283 468.073 75.7787 466.648 71.9112 466.716C74.9645 463.052 84.2601 460.949 83.7852 455.046C83.3102 449.143 76.0502 444.054 71.2327 441.815C73.1326 439.711 76.1859 438.897 78.8999 438.219C80.3248 437.879 81.7496 437.54 83.2424 437.269C84.8029 436.997 87.8562 437.201 89.1454 436.319C90.9095 435.097 86.2956 428.516 85.4136 427.227C83.5816 424.445 81.3425 421.799 78.3571 420.306C80.2569 416.778 83.3781 413.656 86.9742 411.892C88.5347 411.146 90.2989 410.603 92.063 410.535C94.2342 410.467 92.4701 406.803 92.1308 405.921C90.7738 401.986 88.8061 398.119 88.6026 393.912C88.5347 392.283 89.8918 391.537 91.3166 391.401C92.2665 391.266 93.2164 391.333 94.0985 391.401C95.5912 391.537 95.5912 390.791 96.4733 389.637C93.42 389.094 87.3813 388.416 86.4313 392.623C85.2779 397.711 89.2811 403.818 90.6381 408.5C87.2456 408.975 84.1923 410.807 81.6818 412.978C79.8498 414.539 75.5752 418.27 75.7787 420.984C75.8466 422.07 77.6107 422.341 78.3571 422.816C79.8498 423.698 81.0711 424.988 82.0889 426.345C83.9887 428.855 85.6171 431.637 86.9063 434.487C82.4281 434.962 77.6107 435.776 73.4718 437.608C71.7755 438.354 70.1471 439.372 69.0615 440.865C67.2295 443.375 71.7077 444.257 73.3361 445.343C76.2537 447.243 81.9532 451.449 81.4782 455.588C81.0711 459.32 74.1503 461.763 71.5041 463.866C70.4185 464.748 68.5187 466.58 69.0615 468.209C69.4686 469.498 72.7255 468.751 73.8789 468.887C77.4072 469.294 81.0711 472.008 79.1713 476.012C78.4928 477.436 72.1148 483 76.118 483.679C80.5962 484.425 84.8708 482.322 89.3489 484.357C87.042 488.564 85.2779 493.178 84.328 497.927C83.9209 500.166 82.971 502.473 85.8885 502.745C88.4669 503.016 91.0452 502.609 93.6236 502.338C95.5234 502.134 98.0339 501.727 99.8658 502.609C101.562 503.355 99.5944 506.341 99.0516 507.494C96.8804 512.108 93.6914 516.179 91.6559 520.793C90.6381 523.1 90.6381 524.729 93.5557 523.914C96.134 523.236 98.6445 522.354 101.155 521.54C103.53 520.793 105.972 520.047 108.415 519.572C109.636 519.368 111.808 518.893 112.079 519.233C112.418 519.572 112.554 522.014 112.825 523.371C113.165 525.475 114.115 537.756 116.218 537.959C117.779 538.095 120.967 535.042 122.325 534.16C124.903 532.531 127.481 530.903 130.195 529.546C130.602 533.006 131.62 536.399 132.366 539.791C132.706 541.284 132.638 547.391 134.606 547.459C136.03 547.526 138.541 542.845 139.627 541.827C141.662 539.791 143.969 538.095 146.479 536.806C146.412 539.588 145.53 543.795 148.244 545.627C151.84 548.069 157.539 545.355 161.067 544.066C161.61 546.712 162.017 549.426 162.357 552.072C162.56 553.701 162.357 558.111 163.51 559.333C164.664 560.554 167.649 558.45 168.802 557.975C171.245 556.958 173.756 556.076 176.402 555.465C176.537 557.026 175.995 565.71 178.844 564.896C180.269 564.489 182.915 564.014 183.323 565.439C183.73 566.864 184.001 569.307 184.815 570.596C186.444 573.242 191.668 567.068 192.482 569.51C193.025 571.071 193.432 573.785 194.993 574.803C196.486 575.82 197.639 576.024 199.403 576.295C201.167 576.567 202.796 576.702 204.492 576.634C206.528 576.499 206.053 578.127 207.545 579.416C209.852 581.452 213.245 581.791 216.162 581.723C219.419 581.588 222.676 580.841 225.594 579.349C226.679 578.806 228.918 577.517 229.597 576.363C230.275 575.074 229.597 575.142 228.647 575.888C225.187 578.602 218.537 578.874 214.466 578.738ZM76.3894 481.643C76.3216 481.643 76.3216 481.575 76.3894 481.643V481.643ZM100.477 503.084C100.409 503.016 100.544 503.152 100.477 503.084V503.084Z" fill="#122528"/>
    <path d="M74.2859 495.892C74.0823 497.317 76.2535 497.724 76.8642 496.57C78.0855 494.263 78.4926 491.685 79.9175 489.514C80.4603 488.7 79.3068 487.953 78.6283 488.564C76.4571 490.328 74.693 493.11 74.2859 495.892Z" fill="white"/>
    <path d="M81.8853 500.166C81.7496 499.352 80.664 499.42 80.3248 499.963C78.8999 502.202 76.2537 504.644 77.0679 507.562C77.475 508.987 79.5106 509.258 80.1891 507.969C80.8676 506.748 81.139 505.323 81.6139 503.966C81.9532 502.677 82.0889 501.523 81.8853 500.166Z" fill="white"/>
    <path d="M68.0433 492.906C68.3147 492.974 68.5183 492.974 68.7218 492.906C69.129 492.771 69.5361 492.431 69.6718 491.956C70.2824 489.514 70.9609 487.41 72.5894 485.443C73.1322 484.764 72.3858 483.475 71.5716 484.086C69.2647 485.85 66.8899 488.428 67.0256 491.549C67.0934 492.228 67.4327 492.703 68.0433 492.906Z" fill="white"/>
    <path d="M70.4859 502.134C68.9254 503.898 67.5683 506.205 67.5005 508.648C67.5005 509.937 69.1289 509.937 69.536 508.919C70.3502 507.019 70.5538 504.916 71.5715 503.016C71.9787 502.27 71.0287 501.456 70.4859 502.134Z" fill="white"/>
    <path d="M84.3957 514.687C84.735 513.804 85.2099 512.922 85.617 512.04C85.7527 511.769 85.3456 511.498 85.1421 511.633C84.4636 512.04 83.9207 512.787 83.5136 513.465C83.1065 514.076 82.4959 515.094 83.0387 515.704C83.5815 516.519 84.1921 515.094 84.3957 514.687Z" fill="white"/>
    <path d="M78.4245 513.329C76.5247 515.501 74.7606 518.011 74.557 520.997C74.4892 521.471 74.8284 522.014 75.2355 522.218C75.4391 522.354 75.6426 522.421 75.914 522.421C76.5926 522.354 77.0675 522.014 77.2711 521.404C78.0853 518.961 78.6959 516.518 79.6459 514.076C79.9173 513.397 78.8995 512.787 78.4245 513.329Z" fill="white"/>
    <path d="M77.2714 534.974C76.7286 536.602 76.2537 538.231 75.8466 539.927C75.5073 541.352 75.0324 542.845 76.0501 544.066C76.3894 544.473 77.0679 544.405 77.4072 544.066C78.4249 543.116 78.2214 541.556 78.3571 540.266C78.5606 538.638 78.8999 537.077 79.2391 535.449C79.3748 534.296 77.6786 533.753 77.2714 534.974Z" fill="white"/>
    <path d="M93.2163 507.494C91.995 508.58 90.8415 509.733 89.7559 510.955C88.8739 511.972 87.3133 513.533 87.8561 514.958C87.9918 515.365 88.3989 515.636 88.8739 515.501C90.0952 515.161 90.638 513.669 91.2487 512.651C92.1986 511.226 93.2842 510.005 94.4376 508.716C95.184 507.901 94.0305 506.748 93.2163 507.494Z" fill="white"/>
    <path d="M86.8386 521.064C85.753 522.829 84.7352 524.728 84.0567 526.696C83.6496 527.917 82.3604 530.631 83.921 531.581C85.5494 532.531 86.2279 529.274 86.4315 528.392C86.9743 526.153 87.5171 523.846 88.3313 521.675C88.6027 520.793 87.3136 520.318 86.8386 521.064Z" fill="white"/>
    <path d="M92.1303 544.948C91.3161 546.78 89.8234 549.426 90.8411 551.462C91.2482 552.208 92.4017 551.869 92.4017 551.055C92.4017 550.105 92.3338 549.155 92.4695 548.205C92.6052 547.187 92.7409 546.237 92.9445 545.287C93.0124 544.812 92.3338 544.473 92.1303 544.948Z" fill="white"/>
    <path d="M104.208 525.203C102.919 526.221 101.833 527.442 100.951 528.935C100.273 530.156 98.9155 532.328 99.7976 533.685C100.069 534.092 100.544 534.16 100.951 533.956C102.105 533.413 102.376 531.581 102.851 530.496C103.462 529.071 104.14 527.646 105.158 526.492C105.904 525.882 105.022 524.593 104.208 525.203Z" fill="white"/>
    <path d="M83.4457 545.22C82.5636 546.441 82.2244 548.069 82.0208 549.562C81.8173 550.851 81.2745 552.887 82.3601 553.904C82.6993 554.244 83.2421 554.244 83.5814 553.904C84.5313 553.022 84.2599 551.123 84.3277 549.901C84.3956 548.476 84.667 546.984 84.5313 545.559C84.5313 544.88 83.8528 544.745 83.4457 545.22Z" fill="white"/>
    <path d="M108.822 540.199C109.161 538.367 109.433 536.535 109.568 534.703C109.704 533.685 108.144 533.549 107.872 534.499C107.329 536.331 106.583 538.163 106.176 540.063C105.837 541.42 105.158 543.591 106.447 544.609C106.854 544.948 107.262 544.948 107.669 544.609C108.822 543.659 108.551 541.488 108.822 540.199Z" fill="white"/>
    <path d="M95.5907 555.668C93.8944 556.89 93.3516 558.925 93.0802 560.825C92.8088 562.793 92.4695 566.05 94.3015 567.339C94.7765 567.678 95.5907 567.407 95.8621 566.932C96.5406 565.507 95.9299 563.403 95.7942 561.911C95.6585 560.214 95.5228 558.043 96.4049 556.55C96.812 556.008 96.1335 555.261 95.5907 555.668Z" fill="white"/>
    <path d="M125.038 537.959C124.021 539.656 123.138 541.352 122.324 543.184C121.714 544.541 120.696 546.576 121.51 548.001C121.714 548.408 122.189 548.476 122.596 548.273C123.953 547.594 124.36 545.491 124.767 544.202C125.31 542.437 125.988 540.673 126.735 538.977C127.277 537.824 125.717 536.874 125.038 537.959Z" fill="white"/>
    <path d="M113.843 547.459C112.961 548.205 112.621 549.494 112.282 550.58C111.875 551.869 111.468 553.497 111.807 554.854C112.011 555.669 113.096 555.533 113.368 554.854C113.775 553.701 113.775 552.276 113.91 551.055C114.046 549.901 114.385 548.816 114.589 547.73C114.589 547.323 114.046 547.255 113.843 547.459Z" fill="white"/>
    <path d="M123.342 551.597C122.528 553.769 121.714 555.94 121.374 558.179C121.103 559.943 120.628 562.521 121.985 563.946C122.392 564.353 123.071 564.286 123.342 563.743C124.156 562.25 123.681 560.147 123.885 558.518C124.088 556.347 124.495 554.176 125.038 552.005C125.31 550.919 123.749 550.512 123.342 551.597Z" fill="white"/>
    <path d="M141.187 548.205C140.305 549.494 139.626 550.783 139.016 552.208C138.541 553.361 137.998 555.397 139.219 556.279C139.423 556.415 139.762 556.347 139.965 556.143C140.78 555.397 140.576 553.701 140.78 552.683C141.119 551.394 141.73 550.105 142.408 548.951C142.883 548.137 141.662 547.458 141.187 548.205Z" fill="white"/>
    <path d="M136.641 564.761C136.573 563.336 136.641 561.843 136.709 560.418C136.709 559.333 135.148 559.4 135.08 560.418C134.945 562.114 134.741 563.811 134.809 565.507C134.877 566.796 135.08 568.628 136.369 569.171C136.641 569.307 137.048 569.035 137.116 568.764C137.319 568.153 137.048 567.678 136.912 567.068C136.844 566.253 136.709 565.507 136.641 564.761Z" fill="white"/>
    <path d="M153.196 547.934C150.482 549.698 148.243 552.887 148.175 556.211C148.175 556.618 148.379 557.026 148.786 557.229C150.482 558.179 150.754 555.533 151.093 554.515C151.704 552.615 152.721 550.58 154.146 549.087C154.689 548.544 153.943 547.459 153.196 547.934Z" fill="white"/>
    <path d="M145.529 560.418C145.461 559.672 144.511 559.536 144.24 560.214C143.222 562.725 141.865 568.289 144.511 570.256C144.851 570.528 145.393 570.256 145.529 569.849C145.936 568.56 145.461 566.932 145.393 565.575C145.393 563.811 145.665 562.114 145.529 560.418Z" fill="white"/>
    <path d="M159.71 560.011C158.557 561.639 157.946 563.539 157.743 565.507C157.607 567 157.132 570.256 158.828 571.071C159.168 571.206 159.575 571.206 159.778 570.935C160.728 569.781 160.117 567.746 160.117 566.389C160.117 564.489 160.321 562.386 161.067 560.622C161.407 559.739 160.117 559.4 159.71 560.011Z" fill="white"/>
    <path d="M169.888 567.949C169.006 569.374 168.599 571.003 168.463 572.631C168.327 574.056 168.463 576.499 169.82 577.313C170.227 577.516 170.702 577.381 170.905 576.973C171.516 575.888 170.905 574.531 170.77 573.445C170.566 571.817 170.566 570.188 171.177 568.696C171.516 567.746 170.363 567.067 169.888 567.949Z" fill="white"/>
    <path d="M177.691 567.882C176.944 569.917 175.384 574.124 177.487 575.752C177.894 576.024 178.437 575.82 178.708 575.413C179.319 574.531 179.048 573.242 178.98 572.156C178.912 570.867 179.115 569.578 179.319 568.289C179.455 567.271 178.03 566.864 177.691 567.882Z" fill="white"/>
    <path d="M195.739 580.502C195.332 579.755 194.789 579.213 194.45 578.398C194.11 577.584 193.839 576.702 193.364 575.956C193.093 575.481 192.278 575.549 192.143 576.092C191.804 578.059 192.482 580.841 194.314 581.927C195.264 582.469 196.35 581.384 195.739 580.502Z" fill="white"/>
    <path d="M70.825 480.218C71.2321 479.879 71.2321 479.404 71.3678 478.929C71.5035 478.386 71.7749 477.843 71.9785 477.369C72.4534 476.419 73.2677 475.604 74.014 474.79C74.3533 474.451 73.9462 473.772 73.4712 473.976C72.3177 474.451 71.4357 475.333 70.7572 476.419C70.2144 477.301 69.3323 479.133 70.0108 480.15C70.2144 480.49 70.5536 480.49 70.825 480.218Z" fill="white"/>
    <path d="M72.3858 459.727C73.1322 458.845 73.3357 457.556 74.0142 456.606C74.7606 455.588 75.914 454.91 77.0675 454.503C77.9496 454.231 77.5425 452.874 76.6604 453.146C75.1677 453.621 73.9464 454.367 72.8608 455.52C71.9787 456.47 70.9609 458.167 71.4359 459.456C71.5716 459.931 72.0465 460.066 72.3858 459.727Z" fill="white"/>
    <path d="M106.447 555.126C105.565 556.89 105.09 558.586 104.955 560.554C104.819 562.182 104.751 565.032 106.108 566.185C106.447 566.457 107.126 566.525 107.329 566.05C107.94 564.693 107.329 563.064 107.194 561.572C107.058 559.604 107.262 557.568 107.736 555.668C107.94 554.922 106.854 554.379 106.447 555.126Z" fill="white"/>
    <path d="M114.996 564.489C115.064 563.675 113.639 563.471 113.571 564.286C113.232 566.525 113.164 568.764 113.368 571.003C113.571 572.767 113.979 575.413 115.607 576.431C116.082 576.702 116.557 576.363 116.557 575.888C116.76 574.26 115.743 572.36 115.403 570.799C114.996 568.696 114.861 566.593 114.996 564.489Z" fill="white"/>
    <path d="M129.11 568.357C128.906 566.321 129.042 564.218 129.381 562.25C129.449 561.843 129.042 561.571 128.703 561.843C127.074 563.403 126.735 565.71 126.735 567.949C126.735 569.849 126.735 573.581 128.567 574.667C128.906 574.87 129.517 574.802 129.72 574.395C130.06 573.581 129.924 572.835 129.72 572.021C129.449 570.799 129.245 569.578 129.11 568.357Z" fill="white"/>
    <path d="M152.45 571.749C152.246 569.714 152.179 567.678 151.975 565.643C151.907 564.76 150.686 564.76 150.618 565.643C150.414 567.814 150.075 569.985 150.211 572.224C150.279 573.852 150.414 576.838 152.179 577.652C152.586 577.856 153.061 577.72 153.196 577.245C153.4 576.499 153.196 575.82 152.993 575.074C152.789 573.92 152.586 572.835 152.45 571.749Z" fill="white"/>
    <path d="M89.4165 530.496C88.1273 531.039 87.9916 533.617 87.7881 534.77C87.5167 536.738 87.0417 538.842 87.9238 540.674C88.1273 541.148 88.8737 541.081 89.0772 540.674C89.8914 539.045 89.8236 537.213 90.0271 535.449C90.1628 534.567 90.2985 533.685 90.3664 532.803C90.4342 532.192 90.7057 531.446 90.3664 530.903C90.1628 530.564 89.7557 530.36 89.4165 530.496Z" fill="white"/>
    <path d="M69.4681 517.468C68.1111 518.825 67.5683 521.064 67.2969 522.896C67.0255 524.796 66.7541 527.171 67.704 528.867C67.9754 529.41 68.7218 529.274 68.9253 528.732C69.4681 527.103 69.1289 525.339 69.3324 523.643C69.536 521.743 70.2823 520.047 70.6894 518.147C70.8251 517.468 69.9431 516.926 69.4681 517.468Z" fill="white"/>
    </svg>
    