<svg width="65" height="36" viewBox="0 0 65 36" fill="none" xmlns="http://www.w3.org/2000/svg">
    <path d="M0.532261 24.7257C2.6012 19.3553 8.89607 17.4184 14.0024 16.494C14.9708 16.3179 15.9833 16.2739 16.9517 16.3619C15.8512 13.8528 15.6311 11.6077 15.411 8.8785C15.235 6.4574 16.9517 4.0363 18.7566 2.58364C20.8255 0.954901 23.2906 0.206559 25.8878 0.030479C31.0822 -0.321681 35.7483 2.40756 38.6536 6.6775C38.9618 7.1177 39.1819 7.60192 39.402 8.17418C40.6345 7.86604 41.8231 7.64594 43.1437 7.51388C44.6844 7.3378 46.3131 8.35027 47.7217 8.92253C50.1428 9.93499 52.4319 13.4126 53.2683 15.8337C53.6644 16.9782 53.7965 18.3428 53.7085 19.6194C56.3937 19.6634 59.211 20.5878 61.0598 21.9525C63.1287 23.4491 64.0972 25.6501 64.3173 28.1153C64.5374 30.8445 62.0283 33.0455 59.7832 34.0139C54.2807 36.391 48.1619 35.1144 42.4393 35.1585C40.1063 35.2025 37.9053 34.8063 35.6162 34.6742C32.5348 34.5422 29.5415 34.7183 26.4601 34.8943C23.5988 35.0264 20.7815 34.9824 17.9202 35.1144C14.8388 35.2465 12.1536 34.8063 9.16019 34.102C6.78311 33.5297 4.00984 33.2216 2.02894 31.6369C-0.0840223 29.832 -0.4802 27.2789 0.532261 24.7257Z" fill="#BEDCE3"/>
    <path d="M60.3556 28.1594C60.2235 28.4235 59.7833 28.4235 59.6953 28.1154C58.8589 25.4302 55.4253 23.5813 53.3564 26.6187C53.1803 26.8828 52.6961 26.8388 52.6961 26.4867C52.476 21.9966 48.118 22.4808 45.5649 24.3737C44.8165 24.946 44.0241 25.7823 43.0557 25.9584C42.9236 26.0024 42.7036 25.8704 42.7036 25.6943C42.1313 22.745 41.3829 16.1419 37.069 20.0157C35.7044 21.2483 35.7924 23.6694 35.2642 25.2981C35.1761 25.5622 34.7799 25.6943 34.6039 25.4302C32.4909 22.1287 30.51 22.9651 28.0889 25.078C27.8688 25.2541 27.4726 25.2101 27.4726 24.8579C27.4286 24.2857 26.2841 23.1852 26.0199 22.877C24.7874 21.4684 23.3787 20.588 21.4419 21.1162C18.9327 21.7765 18.4485 24.4177 17.5241 26.4426C17.392 26.7508 16.9518 26.6627 16.8638 26.3986C16.0714 24.2857 12.99 24.2416 11.8015 26.0024C11.6694 26.2225 11.3173 26.3106 11.1852 26.0465C10.0847 23.9335 8.14782 24.3737 7.13535 26.0905C7.00329 26.3106 6.65114 26.3986 6.51908 26.1345C5.85878 24.8579 4.93436 23.9775 3.9219 23.0091C3.2616 22.3488 2.55727 22.2167 1.89697 22.3928C2.07305 22.1727 2.24913 21.9526 2.46923 21.7325C3.39365 21.7325 4.09797 22.1727 4.93435 23.0091C5.46259 23.5373 5.99083 24.0215 6.47505 24.5938C6.82721 25.034 6.7832 25.3421 6.73918 25.4302C6.7832 25.3862 6.82722 25.2981 6.95928 25.1661C7.83968 24.1976 8.19184 23.5813 9.60048 23.7574C9.99666 23.8014 10.5689 24.1536 10.833 24.4177C11.8015 25.2981 11.2732 25.6503 12.0656 24.2857C13.2982 22.2167 16.0714 23.8895 17.2159 25.5182C18.4045 22.789 19.2849 20.7641 22.6304 20.1918C24.4793 19.8836 27.4286 22.2607 28.0889 24.1976C30.6861 22.0406 32.799 21.6445 34.824 24.4177C35.6163 21.8205 35.6603 20.0597 38.1695 18.2549C40.1064 16.8903 41.9552 19.3554 42.6595 20.9401C43.1878 22.0847 42.7476 25.6063 44.5084 24.2857C45.829 23.3172 46.8854 22.2167 48.5142 22.0847C51.1114 21.8646 52.8722 23.2732 53.3564 25.5622C55.6014 23.2292 58.9029 24.4177 60.1795 27.191C60.9278 26.2666 62.0724 25.6063 63.2609 26.0465C63.6571 26.1785 63.9212 26.3986 64.1853 26.6187C64.2734 26.9269 64.3174 27.235 64.3614 27.5872C63.3489 26.7068 61.1479 26.7068 60.3556 28.1594Z" fill="white"/>
    <path d="M0.268066 29.0396C1.23651 28.3793 2.33702 27.9831 3.48154 28.0271C4.53802 28.0712 5.55047 28.4673 6.47489 28.9075C7.13519 29.2157 7.3553 30.2722 7.61942 30.0961C9.16012 29.1276 12.0654 29.5678 13.4741 30.6243C14.6626 31.5487 14.0904 31.1085 15.6311 30.1401C16.5555 29.5678 18.0522 29.7879 18.9766 30.1401C19.5929 30.3602 19.7689 30.8004 19.989 30.5803C20.9575 29.6119 22.2341 28.6874 23.3346 27.9831C25.4035 26.6185 27.8246 27.631 29.8055 28.6874C31.1261 29.3918 30.95 30.7124 32.2266 29.5238C33.1951 28.6434 34.6037 28.4673 35.8363 28.4233C37.2889 28.3353 39.2698 28.6874 39.666 30.0961C40.6344 29.3918 41.5589 28.9956 42.8795 28.8635C43.9359 28.7755 46.4011 28.8635 47.1054 29.92C47.1054 29.964 50.3188 29.0836 50.9791 29.4358C52.3438 30.1841 53.2242 31.0645 53.6203 32.4291C55.4692 30.6683 57.274 29.4358 59.9592 29.92C60.8396 30.0961 62.3803 31.0645 62.8646 31.8129C62.7765 31.9009 62.6885 32.033 62.5564 32.121C61.588 30.7124 56.9659 30.8004 56.9219 30.8444C55.8654 31.5487 54.6328 32.4291 53.7084 33.3536C53.4883 33.5737 53.1361 33.4416 53.0921 33.1335C52.6959 30.9765 51.3313 30.008 48.9982 30.0961C49.1743 30.0521 47.1934 30.9765 47.2374 30.9325C47.1054 31.0205 46.8853 30.8884 46.8413 30.8004C45.3006 28.5114 41.3388 29.6119 39.71 31.0205C39.4459 31.2846 39.0497 31.0645 39.0937 30.7124C39.2698 28.9075 36.1004 29.1717 35.0439 29.2157C32.7989 29.3477 32.7989 30.3162 31.6544 31.1085C31.5223 31.1966 31.3022 31.1966 31.2142 31.0645C29.6735 29.3037 27.3844 27.5869 24.8313 28.1592C23.3346 28.5114 21.2656 30.4923 20.2092 31.5047C20.0331 31.6808 19.7689 31.6368 19.6369 31.4607C18.2723 29.6999 15.8071 31.0645 14.3985 31.9889C14.2664 32.077 14.0904 32.033 13.9583 32.033C13.8262 32.033 13.7382 31.9009 13.6942 31.8129C12.9899 29.832 8.58786 30.4482 7.48736 31.1526C7.31128 31.2406 7.09118 31.2406 7.00314 31.0645C5.46244 28.3793 2.68918 28.4673 0.664257 29.876C0.488177 29.5678 0.356106 29.3037 0.268066 29.0396Z" fill="white"/>
    <path d="M49.2183 9.75864C47.6776 9.6706 46.0929 10.3749 44.8603 11.7395C44.6402 11.9596 44.3761 11.8276 44.244 11.6075C43.1876 9.40648 39.71 9.97874 38.4774 11.6075C38.2573 11.8716 37.9052 11.6515 37.8611 11.3874C37.509 9.2304 35.7922 6.149 33.195 7.42558C32.0065 8.04186 31.5222 9.40648 31.082 10.595C30.994 10.8591 30.5978 10.8591 30.4658 10.639C29.8055 9.40648 29.1892 8.21794 27.5604 8.08588C26.3279 7.99784 25.4035 9.49452 24.479 10.1988C24.2589 10.3749 23.9508 10.1548 23.9068 9.93472C23.7307 6.50116 20.121 8.35 18.5803 9.58256C18.4043 9.71462 18.0961 9.58256 18.0521 9.40648C17.4358 7.73372 16.5554 7.20548 15.543 7.20548C15.631 6.85332 15.7631 6.45714 15.9391 6.10498C16.0272 6.10498 16.1152 6.10498 16.2473 6.149C16.8196 6.28106 17.5239 7.07342 17.876 7.42558C18.0521 7.60166 18.1842 7.86578 18.3162 8.08588C18.7124 9.0103 18.4043 8.7902 18.6684 8.5701C19.989 7.51362 21.3096 6.50116 23.0704 6.94136C23.6867 7.07342 23.9508 7.55764 24.2589 7.99784C25.0073 9.09834 24.303 9.40648 25.7116 8.08588C26.4159 7.42558 27.8686 7.07342 28.749 7.51362C29.3212 7.82176 29.6294 8.04186 29.9815 8.61412C30.4658 9.40648 30.4658 10.1108 30.7739 9.31844C31.038 8.65814 31.2141 8.48206 31.6103 7.9098C32.4026 6.85332 34.5596 5.75282 35.8802 6.54518C37.4209 7.51362 38.0812 9.0103 38.4334 10.6831C40.0621 9.27442 43.3196 8.87824 44.5962 10.8151C44.5522 10.7271 46.7972 9.0103 47.4135 9.0103C47.5455 9.0103 47.6776 9.0103 47.8097 9.0103C48.2939 9.09834 48.7781 9.40648 49.2183 9.75864Z" fill="white"/>
    <path d="M53.6644 17.1981C51.9916 16.2737 48.9983 17.8144 48.0738 18.8268C47.8537 19.0909 47.3695 18.8708 47.4576 18.5187C47.6336 17.9904 47.6777 17.4182 47.6336 16.8899C47.8097 13.5004 41.3388 12.4439 41.4708 16.1856C41.4708 16.5818 40.8986 16.7139 40.7665 16.3177C39.7981 13.7205 36.2765 14.9971 34.7798 15.7454C33.5032 16.3617 32.6228 18.3866 32.0506 19.6192C31.9185 19.8833 31.4783 19.8393 31.3903 19.5752C30.9941 18.1665 30.5539 16.8899 29.8496 15.5693C28.9251 13.8526 26.2839 11.4755 24.215 14.9531C23.8628 15.5693 23.5987 16.3177 23.2906 16.934C23.1145 17.2861 22.6743 17.11 22.6303 16.8019C22.014 12.62 18.6244 13.4124 16.2474 14.4688C16.1593 14.2047 16.1153 13.9846 16.0713 13.7205C16.9077 13.3243 17.7881 13.0602 18.7125 13.0162C20.6054 12.8841 22.4102 14.1167 23.1145 15.8335C23.9949 14.0727 25.4476 11.3874 27.6486 12.532C30.0256 13.7645 31.1702 16.0536 31.9185 18.4747C32.975 16.3177 34.2956 14.9971 36.8487 14.2928C38.3894 13.8526 40.0182 14.0727 40.9866 15.1732C41.5149 13.2803 43.6278 12.532 45.6087 12.8841C47.6336 13.2363 48.47 15.8335 48.382 17.7703C49.7906 16.7139 51.9476 16.0095 53.5323 16.4938C53.5763 16.6258 53.6204 16.8899 53.6644 17.1981Z" fill="white"/>
    <path d="M31.6106 5.09269C31.5225 5.26877 31.2144 5.35681 31.0383 5.18073C29.3656 3.46395 27.4287 1.79119 26.02 4.56445C25.888 4.87259 25.4478 4.78455 25.3597 4.52043C24.9635 3.46395 24.5234 2.01129 23.775 1.17491C23.5109 0.866768 23.2027 0.690688 22.8506 0.514608C23.2027 0.426568 23.5549 0.338528 23.9511 0.250488C24.8755 0.998829 25.3597 2.27541 25.7559 3.41993C26.02 2.75963 26.2841 2.31943 27.3406 2.27541C28.9253 2.18737 30.0699 2.18737 30.9943 3.59601C31.1704 3.86013 31.2584 4.03621 31.2584 4.16827C31.3465 4.03621 31.5225 3.86013 31.9187 3.64003C32.8431 3.15581 33.5915 2.89169 34.648 2.75963C34.736 2.75963 34.824 2.75963 34.9561 2.71561C35.3083 2.97973 35.6164 3.24385 35.9245 3.50797C34.2518 3.24385 32.4029 3.59601 31.6106 5.09269Z" fill="white"/>
    </svg>
    