<svg width="200" height="3" viewBox="0 0 200 3" fill="none" xmlns="http://www.w3.org/2000/svg">
    <path d="M199.462 1.56391C192.27 1.56391 185.078 0.913959 177.908 0.494639C170.603 0.0753186 163.253 0.0543487 155.926 0.0124167C148.486 -0.0295153 141.068 0.0333827 133.628 0.222077C126.436 0.410771 119.244 0.284976 112.052 0.243044C104.815 0.201112 97.5777 0.18015 90.318 0.410776C83.0358 0.620436 75.7535 1.14458 68.4712 1.39617C53.6136 1.92033 38.7335 2.02515 23.8533 1.89936C16.0751 1.83646 8.31936 1.71067 0.541097 1.56391C-0.180365 1.54294 -0.180365 2.59124 0.541097 2.61221C15.1732 2.90573 29.7829 3.07346 44.415 2.96863C51.8325 2.90573 59.2501 2.75896 66.6901 2.52834C73.9949 2.29771 81.2772 1.8155 88.582 1.54294C103.011 1.01879 117.44 1.52197 131.87 1.33328C146.615 1.14459 161.405 0.746228 176.149 1.501C183.905 1.89936 191.661 2.65414 199.439 2.65414C200.183 2.6122 200.183 1.56391 199.462 1.56391Z" fill="#DA7015"/>
    </svg>
    