<svg width="77" height="33" viewBox="0 0 77 33" fill="none" xmlns="http://www.w3.org/2000/svg">
<path d="M14.9928 19.1097C14.9595 19.0763 14.9595 19.0264 14.9928 18.9931C15.326 18.6432 15.8257 19.043 15.959 19.3762C16.1256 19.826 15.8424 20.3424 15.6092 20.6922C15.4759 20.8921 15.326 21.0753 15.1927 21.2752C15.0594 21.4751 14.8595 21.725 14.9095 21.9915C14.9761 22.3913 15.6425 22.4913 15.909 22.7078C16.1256 22.8744 16.3588 23.1909 16.1589 23.4408C15.9423 23.724 15.4592 23.6907 15.1594 23.6574C14.5097 23.5907 13.377 23.3908 13.377 22.5579C13.377 22.0249 13.6768 21.4918 13.8934 21.0087C14.1932 20.3257 14.593 19.726 14.9928 19.1097Z" fill="#122528"/>
<path d="M9.4116 2.18487C9.29499 2.11823 9.17838 2.05161 9.06178 1.98498C8.67864 1.78508 8.27884 1.58517 7.94568 1.30198C7.76244 1.15206 7.51256 0.835548 7.71246 0.602332C7.87904 0.402433 8.26218 0.45241 8.4954 0.469068C8.84522 0.502385 9.19505 0.602332 9.52821 0.685624C10.1279 0.835548 10.6943 1.08543 11.244 1.36862C11.6605 1.58518 12.0769 1.81839 12.4601 2.08492C11.4439 1.98497 10.4111 2.00163 9.4116 2.18487Z" fill="#FFCE33"/>
<path d="M7.37922 2.83453C6.56296 3.23433 5.87998 3.81737 5.24696 4.46704C5.16367 4.55033 5.08038 4.63362 4.99709 4.71691C4.74721 4.66694 4.49734 4.61697 4.26413 4.55033C3.83101 4.45038 2.44837 4.10056 2.74822 3.38425C2.91481 3.01777 3.41455 2.8512 3.76438 2.73459C4.34742 2.53469 4.98043 2.48471 5.59679 2.53469C6.21314 2.568 6.81284 2.66796 7.42919 2.81788C7.41254 2.81788 7.39587 2.81788 7.37922 2.83453Z" fill="#FFCE33"/>
<path d="M4.79727 4.95013C4.2642 5.54983 3.79777 6.1995 3.38132 6.88249C3.23139 7.13236 3.09813 7.38224 2.98152 7.63211C2.49843 7.7154 1.99868 7.81535 1.51559 7.86533C1.28238 7.88199 0.982531 7.89864 0.782632 7.76537C0.549416 7.61545 0.582731 7.33226 0.666022 7.11571C0.949213 6.41606 1.74881 6.06623 2.38182 5.76638C2.98152 5.48319 3.63119 5.18335 4.28087 5.03343C4.44745 4.98345 4.61403 4.96679 4.79727 4.95013Z" fill="#FFCE33"/>
<path d="M17.4746 3.7008C16.5584 3.11776 15.5256 2.7013 14.4761 2.43477C14.2429 2.15158 13.9763 1.88504 13.7265 1.60185C13.3766 1.20206 12.9935 0.70231 13.0435 0.135929C13.0435 0.0692963 13.0935 0.00266526 13.1768 0.00266526C13.9097 -0.0306512 14.6094 0.252541 15.2257 0.619023C15.892 1.01882 16.4917 1.53522 17.0081 2.1016C17.4413 2.56803 17.8244 3.1011 18.1242 3.66748C18.2242 3.85072 18.3242 4.05062 18.3908 4.26717C18.2908 3.58419 18.1909 2.88454 18.3242 2.18489C18.3408 2.11826 18.4074 2.08495 18.4574 2.08495C18.9072 2.05163 19.1904 2.43477 19.3736 2.7846C19.6235 3.26769 19.7568 3.8174 19.8401 4.35047C19.9067 4.76692 19.9733 5.20004 19.9733 5.63315C19.9733 5.7331 19.9733 6.04961 19.9067 6.28283C19.3236 5.25002 18.524 4.35047 17.4746 3.7008Z" fill="#FFCE33"/>
<path d="M2.1156 9.81433C1.88239 10.5806 1.73246 11.3802 1.63251 12.1798C1.54922 12.8628 1.5159 13.5458 1.49924 14.2288C1.14942 14.6286 0.699646 14.9118 0.149923 14.9118C0.066632 14.9118 0 14.8451 0 14.7618C0.0832913 13.1127 0.68299 10.8471 2.1156 9.81433Z" fill="#FFCE33"/>
<path d="M1.64916 17.4771C1.66582 17.4271 1.68248 17.3771 1.71579 17.3271C1.71579 17.3938 1.73245 17.4438 1.73245 17.5104C1.91569 18.8597 2.18223 20.1924 2.66532 21.4417C2.64866 21.625 2.61534 21.7916 2.58203 21.9581C2.51539 22.2413 2.4321 22.5578 2.2322 22.7744C2.04896 22.9743 1.79909 22.891 1.64916 22.7078C1.39929 22.4079 1.29934 21.9915 1.24936 21.6083C1.16607 21.1419 1.14941 20.6588 1.14941 20.1757C1.16607 19.2595 1.29934 18.36 1.64916 17.4771Z" fill="#FFCE33"/>
<path d="M3.43114 23.0576C3.71433 23.5407 4.03084 24.0071 4.36401 24.4569C4.34735 25.1066 4.34735 25.7396 4.06415 26.3393C4.0475 26.3893 3.98087 26.4059 3.93089 26.3893C2.9314 26.1061 3.21458 24.5569 3.31453 23.8239C3.36451 23.5574 3.41448 23.3075 3.43114 23.0576Z" fill="#FFCE33"/>
<path d="M6.46309 26.5225C6.86289 26.8224 7.296 27.0889 7.74578 27.2888C7.79575 27.522 7.7791 27.7719 7.69581 28.0051C7.5792 28.2883 7.34598 28.4715 7.04613 28.4216C6.72962 28.3716 6.47975 28.0384 6.31317 27.8052C6.11327 27.522 5.96334 27.2055 5.89671 26.8723C5.84674 26.6058 5.83008 26.3226 5.83008 26.0394C6.02998 26.1894 6.24653 26.3559 6.46309 26.5225Z" fill="#FFCE33"/>
<path d="M9.36836 29.6008C9.76816 29.9006 10.2013 30.1671 10.6511 30.367C10.701 30.6003 10.6844 30.8501 10.6011 31.0833C10.4845 31.3665 10.2513 31.5498 9.9514 31.4998C9.6349 31.4498 9.38502 31.1167 9.21844 30.8835C9.01854 30.6003 8.86862 30.2838 8.80198 29.9506C8.75201 29.6841 8.73535 29.4009 8.73535 29.1177C8.93525 29.2676 9.15181 29.4342 9.36836 29.6008Z" fill="#FFCE33"/>
<path d="M10.3063 31.2524C10.7302 30.8525 10.5473 30.3298 10.2267 29.9567C10.6982 30.0068 11.1641 30.1092 11.5863 30.3236C12.0085 30.5379 12.3307 30.9959 12.0386 31.4523C11.7591 31.8888 11.0639 31.7514 10.6468 31.6382C10.4301 31.5834 10.2099 31.5123 10.0059 31.4377C10.1127 31.3802 10.2194 31.3227 10.3063 31.2524Z" fill="#FFCE33"/>
<path d="M8.92835 18.9098C9.14491 18.9597 9.26151 19.2096 9.32815 19.3929C9.57802 20.0259 9.628 20.7588 9.67797 21.4252C9.69463 21.6917 9.71129 21.9416 9.76126 22.2081C9.77792 22.3747 9.86121 22.5246 9.97782 22.6412C10.1444 22.8078 10.4609 22.7078 10.6441 22.6412C10.9773 22.5413 11.3438 22.408 11.6436 22.6412C11.9268 22.8578 11.8602 23.3075 11.677 23.5741C11.3938 23.9905 10.7608 24.0238 10.311 24.0238C9.79458 24.0238 9.26151 23.9072 8.97832 23.4408C8.8284 23.1909 8.79508 22.8911 8.76177 22.6079C8.71179 22.2081 8.67847 21.8083 8.66182 21.4085C8.6285 20.8088 8.59518 20.2091 8.61184 19.6094C8.54521 19.6261 8.46191 19.5761 8.46191 19.4928C8.46191 19.2263 8.56187 18.8265 8.92835 18.9098Z" fill="#122528"/>
<path d="M1.44901 12.1465C1.68222 10.2308 2.26526 8.38176 3.2481 6.71593C3.78116 5.81639 4.43083 4.98348 5.14714 4.23386C5.79681 3.56753 6.4798 2.96783 7.32937 2.56803C8.92856 1.80175 10.7943 1.63516 12.5267 1.80175C14.3092 1.96833 16.1249 2.5014 17.6575 3.45092C19.1734 4.40044 20.1562 5.8497 20.8392 7.46555C21.5722 9.26465 21.9387 11.2636 21.8387 13.2127C21.8054 13.7957 21.7221 14.3787 21.5722 14.9618C21.6555 15.0284 21.6888 15.145 21.6055 15.245C21.5389 15.3116 21.4722 15.4115 21.4223 15.4948C21.4056 15.5615 21.3723 15.6281 21.3556 15.6947C21.339 15.7281 21.3056 15.7447 21.2723 15.7447C21.1724 15.9113 21.0891 16.0945 21.0058 16.2445C20.7393 16.7109 20.4561 17.1607 20.1562 17.5771C19.5565 18.4267 18.8402 19.1763 18.024 19.8426C17.1744 20.5256 16.1916 21.1586 15.1421 21.4585C14.0093 21.775 12.8099 21.775 11.6605 21.8416C10.7776 21.8916 9.82811 21.9582 8.99519 22.2747C8.67869 22.3914 8.36218 22.5746 8.16228 22.8411C7.92907 23.141 7.87909 23.5241 7.89575 23.8906C7.92906 24.357 8.09565 24.7235 8.37884 25.09C8.64537 25.4232 8.96187 25.7397 9.21175 26.0728C9.56157 26.5393 11.2592 31.663 10.6762 32.0294C10.3264 32.246 8.26223 28.5063 7.89575 28.3897C7.31271 28.2065 6.87959 27.1056 6.3965 26.7558C5.01387 25.7397 3.89777 24.357 3.09817 22.8578C2.21528 21.2086 1.81548 19.3929 1.56561 17.5605C1.28242 15.778 1.21579 13.9623 1.44901 12.1465Z" fill="#356F7C"/>
<path d="M12.1268 17.7603C12.3267 17.5771 12.6265 17.5271 12.8931 17.5105C13.3428 17.4772 13.7926 17.5438 14.2257 17.5938C14.1258 17.5271 14.0258 17.4772 13.9259 17.4272C13.6094 17.2439 13.2928 17.0774 12.9763 16.8775C12.4766 16.561 11.9269 16.0779 12.0935 15.4282C12.2767 14.6786 13.0596 14.3621 13.7426 14.2954C14.4589 14.2288 15.2419 14.3454 15.9249 14.5953C15.5417 14.0622 15.1253 13.5625 14.7921 12.9794C14.4256 12.3298 14.1591 11.5635 14.6255 10.8972C15.042 10.2808 15.8582 10.1975 16.5412 10.2475C17.2075 10.2975 17.8572 10.4807 18.4902 10.6973C18.257 10.4474 18.0405 10.1642 17.8239 9.89766C17.3908 9.31462 16.9577 8.66494 16.7744 7.96529C16.6412 7.41557 16.7744 6.83253 17.3408 6.59932C17.9738 6.33278 18.7234 6.63263 19.2898 6.93248C19.8062 7.19901 20.2893 7.53218 20.7224 7.91532C20.9057 8.0819 21.1056 8.26515 21.2722 8.44839C21.1389 7.68211 21.0389 6.91583 20.9223 6.14955C20.839 5.56651 20.5892 4.56701 21.3055 4.28382C21.6386 4.15056 21.9052 4.46707 22.0717 4.70028C22.3216 5.06676 22.4882 5.51653 22.6215 5.93299C23.0213 7.11572 23.2711 8.34844 23.7709 9.4812C24.1207 10.2641 24.4206 11.0637 24.8703 11.78C25.1702 12.2631 25.7033 12.9628 26.0864 13.3792C26.6195 13.9456 27.0026 14.2455 27.7189 14.6952C28.5352 15.2116 29.3181 15.7947 30.0844 16.3777C30.4175 16.6276 30.734 16.8941 30.9506 17.2606C31.1838 17.6604 31.3004 18.1435 31.3504 18.5933C31.4503 19.5095 31.1505 20.409 30.6508 21.1753C29.6179 22.7412 27.8022 23.774 25.9698 24.0572C23.7542 24.407 21.4387 23.9406 19.2732 23.4408C18.2404 23.1909 17.1742 22.8245 16.1914 22.4247C15.0919 21.9915 14.2923 21.4751 13.5094 20.7588C13.1263 20.409 12.8264 20.1758 12.4599 19.7927C12.0768 19.4095 11.9768 18.9597 11.8936 18.51C11.8936 18.2434 11.9269 17.9602 12.1268 17.7603Z" fill="#E3DCD5"/>
<path d="M21.7725 21.5417C21.2228 20.6922 20.8396 19.7426 20.723 18.7265C20.723 18.6932 20.7064 18.6432 20.7064 18.6099C20.6897 18.5266 20.8396 18.5099 20.8563 18.5932C21.1728 20.409 22.3056 22.308 23.9547 23.2075C24.6211 23.574 25.404 23.8073 26.1536 23.9405C26.2369 23.9572 26.3202 23.9738 26.4202 23.9738C26.2869 24.0072 26.1703 24.0238 26.037 24.0405C25.7705 24.0904 25.5039 24.1071 25.2541 24.1404C24.8043 23.9905 24.3712 23.8073 23.9381 23.6074C23.0219 23.1742 22.3056 22.3746 21.7725 21.5417Z" fill="#122528"/>
<path d="M18.5404 14.8619C18.5571 14.8119 18.6071 14.7786 18.657 14.7786C18.8736 14.8119 18.9735 15.0451 19.1068 15.1784C19.2567 15.3449 19.44 15.4782 19.6232 15.5948C19.9897 15.828 20.4228 15.9613 20.8726 15.9946C21.7888 16.0612 22.655 15.6281 23.2214 14.9118C23.2714 14.8452 23.388 14.9285 23.338 15.0118C22.8216 15.878 21.8554 16.3444 20.8726 16.3111C20.3895 16.2945 19.9231 16.1612 19.4899 15.928C19.2734 15.8114 19.0568 15.6448 18.8902 15.4615C18.7403 15.3283 18.4571 15.0784 18.5404 14.8619Z" fill="#122528"/>
<path d="M27.8191 17.0441C27.2694 16.661 26.703 16.0946 26.6864 15.6448C26.6697 15.2617 26.9029 14.9118 27.1695 14.6286C27.486 14.2788 27.8691 13.979 28.2023 13.6458C28.5521 13.3126 28.8853 12.9462 29.1685 12.563C29.7515 11.7801 30.0847 10.8972 30.018 9.96433C29.9847 9.4979 29.8515 8.99816 29.6182 8.5817C29.4683 8.31517 29.3017 8.04863 29.1851 7.76544C29.0852 7.53223 29.0185 7.21572 29.2518 6.99917C29.5183 6.76595 29.8848 6.91588 30.1513 7.08246C30.9009 7.54889 31.5006 8.21522 31.9504 8.91487C32.4501 9.66449 32.7667 10.6307 32.9166 11.5802C33.0998 12.8296 32.9665 14.0956 32.5834 15.3116C32.3002 16.1779 31.7505 17.0608 30.8343 17.4939C29.9014 17.927 28.2189 17.3273 27.8191 17.0441Z" fill="#FFCE33"/>
<path d="M21.7555 10.4974C21.9554 10.6307 22.0387 10.8639 22.0887 11.0805C22.1054 11.1471 22.122 11.2471 22.122 11.3637C22.1887 11.7635 22.1054 12.1133 21.7889 12.08C21.7555 12.08 21.7056 12.0633 21.6723 12.0466C21.4057 11.98 21.2058 11.6302 21.1225 11.2637C21.1059 11.2137 21.1059 11.1804 21.0892 11.1304C21.0559 10.9305 21.0559 10.6474 21.2058 10.4974C21.3724 10.3475 21.5723 10.3808 21.7555 10.4974Z" fill="white"/>
<path d="M22.1887 9.64783C22.2053 9.63118 22.222 9.61451 22.2387 9.59785C22.2387 9.58119 22.2553 9.56454 22.2553 9.54788C22.3553 9.33132 22.6218 9.33132 22.7717 9.4979C22.905 9.64783 22.9383 9.86439 22.8883 10.0643C22.905 10.2142 22.8384 10.3641 22.6718 10.3975C22.5885 10.4141 22.5218 10.3975 22.4552 10.3641C22.4052 10.3475 22.3553 10.3308 22.3219 10.2808C22.172 10.1476 22.0721 9.83107 22.1887 9.64783Z" fill="white"/>
<path d="M20.0896 8.94818C20.2229 9.11477 20.3228 9.39795 20.3228 9.63117C20.3228 9.81441 20.1896 9.98099 19.9897 9.99765C19.7565 9.99765 19.5399 9.76444 19.4066 9.61452C19.2067 9.36464 19.0235 8.9815 19.3067 8.73163C19.5732 8.4651 19.9231 8.73163 20.0896 8.94818Z" fill="white"/>
<path d="M23.7052 11.247C23.9217 11.3136 24.1216 11.5135 24.2216 11.6967C24.2549 11.7634 24.2882 11.8133 24.2882 11.88C24.3882 12.0965 24.3715 12.3631 24.105 12.4464C23.8718 12.513 23.6386 12.3631 23.4553 12.2131C23.2887 12.0632 23.1055 11.8467 23.1222 11.5968C23.1555 11.3303 23.4387 11.1803 23.7052 11.247Z" fill="white"/>
<path d="M24.5208 13.096C24.6708 13.1127 24.754 13.246 24.804 13.3792C24.8373 13.4459 24.8373 13.5292 24.8207 13.6125C24.8207 13.6291 24.8207 13.6458 24.8207 13.6624C24.8207 13.8124 24.7041 13.9623 24.5375 13.9456C24.3709 13.929 24.271 13.8124 24.171 13.6957C24.0711 13.5625 24.0544 13.4126 24.121 13.2793C24.221 13.0961 24.3876 13.0794 24.5208 13.096Z" fill="white"/>
<path d="M13.0768 18.6433C13.2767 18.46 13.5765 18.51 13.7598 18.6933C13.7764 18.6933 13.7764 18.7099 13.7931 18.7266C13.943 18.8598 13.9763 19.0431 13.9597 19.2263C14.0263 19.4595 13.893 19.7261 13.6432 19.776C13.3433 19.826 13.0601 19.6594 12.9602 19.3762C12.8602 19.1264 12.8769 18.8265 13.0768 18.6433Z" fill="white"/>
<path d="M14.9756 20.6589C14.9423 20.5257 15.009 20.3924 15.1422 20.3591C15.2089 20.3424 15.2755 20.3591 15.3255 20.3757C15.3754 20.3924 15.4254 20.4257 15.4421 20.459C15.4587 20.4757 15.4754 20.4757 15.4921 20.4923C15.642 20.6423 15.6753 20.9421 15.5753 21.1253C15.5087 21.242 15.3921 21.2586 15.2755 21.242C15.1755 21.2253 15.0923 21.142 15.0423 21.0587C14.9756 20.9754 14.959 20.8588 14.959 20.7589C14.959 20.7422 14.959 20.7089 14.9756 20.6589C14.9756 20.6756 14.9756 20.6589 14.9756 20.6589Z" fill="white"/>
<path d="M14.8096 18.7266C15.0261 18.6433 15.2094 18.7432 15.3426 18.9098C15.3759 18.9431 15.4093 18.9931 15.4259 19.0598C15.4259 19.0764 15.4259 19.0931 15.4259 19.0931C15.4592 19.2097 15.4592 19.3429 15.3926 19.4596C15.3426 19.5595 15.226 19.6261 15.1094 19.6261C15.0927 19.6261 15.0761 19.6261 15.0428 19.6261C14.8928 19.7094 14.7096 19.7094 14.593 19.5428C14.5264 19.4429 14.5264 19.3263 14.5264 19.2097C14.5763 19.0431 14.6097 18.8099 14.8096 18.7266Z" fill="white"/>
<path d="M22.7723 8.08199C22.7556 8.16528 22.6723 8.23192 22.5724 8.23192C22.3558 8.21526 22.1893 8.08199 22.1226 7.88209C22.056 7.66553 22.1893 7.43232 22.4225 7.39901C22.5058 7.38235 22.6057 7.38234 22.6723 7.41566C22.7723 7.46563 22.8056 7.58224 22.8223 7.69885C22.8223 7.73217 22.8223 7.78214 22.8056 7.81546C22.8056 7.91541 22.789 7.9987 22.7723 8.08199Z" fill="white"/>
<path d="M18.0912 8.51504C18.2078 8.43175 18.3577 8.46507 18.441 8.56502C18.5576 8.68163 18.5743 8.84821 18.5909 8.98148C18.5909 8.99814 18.5909 9.01479 18.5909 9.01479C18.6243 9.13139 18.6076 9.24801 18.5243 9.3313C18.3078 9.5312 17.9246 9.39793 17.8746 9.11474C17.8247 8.88153 17.908 8.6483 18.0912 8.51504Z" fill="white"/>
<path d="M14.2264 14.9785C14.5263 14.8619 14.9261 14.9452 15.1593 15.1784C15.2592 15.2617 15.2925 15.3783 15.3092 15.4782C15.3259 15.5282 15.3425 15.5615 15.3592 15.6115C15.4425 16.0279 15.0593 16.3778 14.6762 16.3944C14.3097 16.4111 13.9266 16.1612 13.7933 15.828C13.6434 15.4616 13.8766 15.1117 14.2264 14.9785Z" fill="white"/>
<path d="M15.276 16.7942C15.1927 16.6942 15.3093 16.511 15.4426 16.511C15.5092 16.511 15.5759 16.511 15.6425 16.5443L15.6592 16.561C15.8091 16.561 15.8424 16.7442 15.8424 16.8775C15.8424 16.9941 15.7258 17.0607 15.6425 17.0441C15.5759 17.0274 15.5092 17.0274 15.4593 16.9941C15.376 16.9441 15.326 16.8608 15.276 16.7942Z" fill="white"/>
<path d="M16.7083 19.193C16.7583 19.143 16.8249 19.1263 16.8915 19.1097C17.0414 19.093 17.1914 19.2596 17.258 19.4095C17.2747 19.4428 17.2747 19.4762 17.2913 19.5261C17.2913 19.5428 17.2913 19.5428 17.2913 19.5595C17.2913 19.6094 17.2747 19.6761 17.258 19.7094C17.2247 19.9926 16.8415 20.1425 16.6083 19.9259C16.4751 19.8093 16.4251 19.5928 16.4751 19.4095C16.4917 19.2929 16.5917 19.2263 16.7083 19.193Z" fill="white"/>
<path d="M16.1754 4.31713C16.3753 4.20053 16.6752 4.33379 16.8751 4.40043C17.1749 4.50038 17.4581 4.63364 17.7247 4.80022C18.1911 5.08341 18.5742 5.41657 18.7741 5.93298C18.8241 6.0829 18.7075 6.01627 18.6575 5.9663C18.3244 5.5665 18.0245 5.25 17.5414 4.98346C17.3082 4.8502 17.0583 4.73359 16.8085 4.6503C16.6086 4.58367 16.3254 4.58366 16.1588 4.43373C16.1255 4.40042 16.1421 4.35045 16.1754 4.31713Z" fill="#E3DCD5"/>
<path d="M11.1446 3.10106C11.3778 2.98446 11.6777 3.01777 11.9275 3.01777C12.2274 3.01777 12.6772 3.01778 12.9604 3.06776C13.5767 3.1677 14.0598 3.18435 14.6595 3.51752C14.7095 3.55084 14.6595 3.61748 14.5929 3.61748C14.0265 3.55084 13.71 3.50086 12.9604 3.38426C12.6438 3.33428 12.4106 3.3676 12.0775 3.35094C11.8109 3.33428 11.4278 3.35095 11.1613 3.31763C11.078 3.30097 11.0613 3.15104 11.1446 3.10106Z" fill="#E3DCD5"/>
<path d="M6.71296 4.88349C6.81291 4.8002 6.8962 4.71691 6.99615 4.63362C7.19605 4.43372 7.36263 4.26714 7.57919 4.0839C7.97899 3.73407 8.46208 3.53417 8.99514 3.55083C9.06178 3.55083 9.0951 3.61746 9.02846 3.63412C8.62866 3.81736 8.34547 3.90066 7.8957 4.23383C7.6958 4.38375 7.31266 4.68359 7.12942 4.85017C6.99615 4.98344 6.79626 5.23332 6.59636 5.24997C6.54638 5.24997 6.51307 5.2 6.52972 5.16668C6.54638 5.05008 6.62967 4.95012 6.71296 4.88349Z" fill="#E3DCD5"/>
<path d="M3.88087 9.04808C3.84756 9.06474 3.79759 9.06474 3.78093 9.01477C3.64766 8.83153 3.84756 8.49837 3.93085 8.31513C4.0308 8.06525 4.14741 7.83203 4.29733 7.59881C4.56386 7.14904 4.88037 6.78256 5.33014 6.49937C5.38012 6.46606 5.46341 6.51604 5.43009 6.56601C5.08027 6.94915 4.78042 7.28232 4.53055 7.73209C4.39728 7.9653 4.28068 8.19852 4.19738 8.44839C4.09744 8.63163 4.06411 8.98145 3.88087 9.04808Z" fill="#E3DCD5"/>
<path d="M2.81545 13.3459C2.78213 13.4291 2.68218 13.4291 2.64886 13.3459C2.56557 13.1626 2.59889 12.9294 2.61555 12.7295C2.63221 12.4963 2.66552 12.2631 2.7155 12.0299C2.81545 11.5967 2.89874 11.1636 3.21524 10.8471C3.26522 10.7971 3.28188 10.8471 3.26522 10.8971C3.16527 11.3635 3.01535 11.6634 2.93206 12.0965C2.89874 12.313 2.88208 12.5296 2.86542 12.7462C2.84877 12.9294 2.88208 13.146 2.81545 13.3459Z" fill="#E3DCD5"/>
<path d="M2.56541 14.6786C2.69867 15.3449 2.73199 15.7614 2.83194 16.2611C2.88191 16.5277 2.93189 16.8109 2.98186 17.0774C3.03184 17.3106 3.11513 17.5605 3.0485 17.7937C3.03184 17.8437 2.94855 17.877 2.91523 17.827C2.76531 17.6271 2.74865 17.3939 2.69868 17.1607C2.6487 16.8941 2.59872 16.611 2.56541 16.3444C2.48212 15.8114 2.41548 15.0784 2.46546 14.6786C2.46546 14.612 2.54875 14.6286 2.56541 14.6786Z" fill="#E3DCD5"/>
<path d="M3.29848 18.9931C3.38177 19.143 3.39843 19.3596 3.44841 19.5261C3.51504 19.7594 3.61499 19.9592 3.7316 20.1758C3.83154 20.3757 3.94815 20.5756 4.06476 20.7922C4.14805 20.9421 4.26466 21.142 4.19803 21.3086C4.18137 21.3419 4.14805 21.3752 4.11474 21.3585C3.9315 21.2919 3.86486 21.0587 3.78157 20.8921C3.66497 20.6589 3.56501 20.4257 3.46506 20.1925C3.36511 19.9759 3.29848 19.7594 3.24851 19.5261C3.21519 19.3596 3.18187 19.143 3.26517 19.0097C3.24851 18.9597 3.28182 18.9598 3.29848 18.9931Z" fill="#E3DCD5"/>
<path d="M4.91433 22.5246C5.06426 22.6579 5.38076 23.0744 5.58066 23.3742C5.7639 23.6407 6.01378 23.9572 5.9638 24.2904C5.9638 24.3404 5.89717 24.3737 5.86386 24.3404C5.63064 24.0905 5.51403 23.7407 5.33079 23.4408C5.14755 23.1577 4.98097 22.8578 4.8477 22.5413C4.81439 22.4747 4.86436 22.4747 4.91433 22.5246Z" fill="#E3DCD5"/>
<path d="M6.91344 25.0566C7.16331 25.2066 7.3299 25.4398 7.54645 25.6397C7.74635 25.8229 7.99623 26.0228 8.11284 26.2727C8.19613 26.4393 7.97957 26.5725 7.86296 26.4226C7.69638 26.1894 7.5298 25.9729 7.3299 25.773C7.13 25.5564 6.94676 25.3565 6.83015 25.09C6.79683 25.0233 6.83015 25.0067 6.91344 25.0566Z" fill="#E3DCD5"/>
<path d="M30.6176 9.26469C30.4177 9.36464 30.1844 9.44794 29.9679 9.49791C29.9512 9.44794 29.9512 9.39796 29.9346 9.34798C30.1178 9.29801 30.301 9.24804 30.4676 9.16475C30.8841 8.98151 31.2672 8.69832 31.4838 8.28186C31.4838 8.28186 31.4838 8.28186 31.4838 8.2652C31.5171 8.29851 31.5504 8.34849 31.5837 8.38181C31.3672 8.78161 31.0007 9.06479 30.6176 9.26469Z" fill="#DA7015"/>
<path d="M30.6015 11.6302C30.3349 11.6135 30.0517 11.5802 29.7686 11.5302C29.8019 11.4636 29.8185 11.3969 29.8352 11.3303C30.0684 11.3803 30.3016 11.4136 30.5348 11.4303C31.0512 11.4636 31.6509 11.4469 32.1007 11.1304C32.3173 10.9805 32.5172 10.7973 32.7171 10.614C32.7337 10.664 32.7504 10.714 32.767 10.7806C32.6005 10.9305 32.4339 11.0804 32.2506 11.2137C31.7842 11.5968 31.1845 11.6468 30.6015 11.6302Z" fill="#DA7015"/>
<path d="M30.9004 12.8295C30.3674 12.6963 29.8843 12.4631 29.4512 12.1466C29.4845 12.0799 29.5178 12.0133 29.5678 11.9467C29.9676 12.2798 30.4673 12.4964 30.9671 12.6463C31.6167 12.8295 32.3497 12.8295 32.9994 12.6463C32.9994 12.6963 32.9994 12.7462 32.9994 12.7962C32.3331 12.9961 31.6001 12.9961 30.9004 12.8295Z" fill="#DA7015"/>
<path d="M27.0195 14.8285C27.0695 14.7619 27.1195 14.7119 27.1695 14.6619C27.2028 14.7452 27.2527 14.8285 27.2861 14.9118C27.5859 15.4782 28.019 15.9613 28.4855 16.3611C29.1185 16.8941 29.9014 17.3272 30.7177 17.5438C30.6344 17.5771 30.5511 17.5938 30.4678 17.6104C29.7015 17.3939 28.9852 16.9941 28.3688 16.4777C27.8524 16.0612 27.4027 15.5282 27.0862 14.9451C27.0528 14.9118 27.0362 14.8618 27.0195 14.8285Z" fill="#DA7015"/>
<path d="M31.1843 7.94863C31.101 8.0819 31.001 8.19851 30.9011 8.31512C30.6346 8.64828 30.3347 8.96479 29.9682 9.198C29.9516 9.21466 29.9183 9.23132 29.8849 9.24797C29.8683 9.18134 29.8516 9.13137 29.835 9.06474C29.8849 9.04808 29.9183 9.01476 29.9682 8.98145C30.3014 8.76489 30.5846 8.46504 30.8345 8.14853C30.9177 8.04858 31.001 7.93198 31.0843 7.81537C31.1176 7.86534 31.151 7.89866 31.1843 7.94863Z" fill="#DA7015"/>
<path d="M31.8176 15.4449C31.2012 15.3116 30.6515 15.0284 30.1351 14.6619C29.5854 14.2621 29.069 13.7624 28.6192 13.246L28.6025 13.2293C28.6525 13.1794 28.6858 13.1294 28.7358 13.0794C28.7858 13.1294 28.8358 13.196 28.8857 13.246C29.3188 13.7291 29.8019 14.1955 30.335 14.5786C31.0013 15.0617 31.7676 15.295 32.5505 15.4116C32.5339 15.4615 32.5172 15.5115 32.5006 15.5448C32.2674 15.5448 32.0341 15.4949 31.8176 15.4449Z" fill="#DA7015"/>
<path d="M29.0351 15.8447C28.4688 15.4449 27.9857 14.9285 27.6525 14.3288C27.6359 14.2955 27.6192 14.2622 27.6025 14.2288C27.6525 14.1789 27.7191 14.1289 27.7691 14.0789C27.7858 14.1289 27.8191 14.1789 27.8524 14.2288C28.1689 14.8285 28.652 15.3283 29.2017 15.7114C29.9847 16.2611 30.9508 16.5777 31.917 16.6443C31.8837 16.6943 31.8504 16.7276 31.8004 16.7776C30.8009 16.7276 29.8347 16.4111 29.0351 15.8447Z" fill="#DA7015"/>
<path d="M30.4347 14.1289C29.885 13.8124 29.3686 13.3793 28.9521 12.8462C29.0021 12.7796 29.0521 12.7129 29.1021 12.663C29.4686 13.1627 29.935 13.5958 30.4847 13.929C31.1844 14.3621 31.984 14.5953 32.7835 14.562C32.7669 14.612 32.7669 14.662 32.7502 14.7119C31.9506 14.7619 31.151 14.5453 30.4347 14.1289Z" fill="#DA7015"/>
<path d="M32.5332 10.0643C32.1501 10.4141 31.6503 10.6473 31.1339 10.7973C30.7508 10.8972 30.351 10.9472 29.9512 10.9305C29.9678 10.8805 29.9678 10.8139 29.9845 10.7639C30.3343 10.7639 30.6675 10.7306 31.0006 10.664C31.5337 10.5474 32.0834 10.3142 32.4832 9.94769C32.4999 9.98101 32.5165 10.031 32.5332 10.0643Z" fill="#DA7015"/>
<path d="M58.9928 19.1097C58.9595 19.0763 58.9595 19.0264 58.9928 18.9931C59.326 18.6432 59.8257 19.043 59.959 19.3762C60.1256 19.826 59.8424 20.3424 59.6092 20.6922C59.4759 20.8921 59.326 21.0753 59.1927 21.2752C59.0594 21.4751 58.8595 21.725 58.9095 21.9915C58.9761 22.3913 59.6425 22.4913 59.909 22.7078C60.1256 22.8744 60.3588 23.1909 60.1589 23.4408C59.9423 23.724 59.4592 23.6907 59.1594 23.6574C58.5097 23.5907 57.377 23.3908 57.377 22.5579C57.377 22.0249 57.6768 21.4918 57.8934 21.0087C58.1932 20.3257 58.593 19.726 58.9928 19.1097Z" fill="#122528"/>
<path d="M53.4116 2.18487C53.295 2.11823 53.1784 2.05161 53.0618 1.98498C52.6786 1.78508 52.2788 1.58517 51.9457 1.30198C51.7624 1.15206 51.5126 0.835548 51.7125 0.602332C51.879 0.402433 52.2622 0.45241 52.4954 0.469068C52.8452 0.502385 53.195 0.602332 53.5282 0.685624C54.1279 0.835548 54.6943 1.08543 55.244 1.36862C55.6605 1.58518 56.0769 1.81839 56.4601 2.08492C55.4439 1.98497 54.4111 2.00163 53.4116 2.18487Z" fill="#FFCE33"/>
<path d="M51.3792 2.83453C50.563 3.23433 49.88 3.81737 49.247 4.46704C49.1637 4.55033 49.0804 4.63362 48.9971 4.71691C48.7472 4.66694 48.4973 4.61697 48.2641 4.55033C47.831 4.45038 46.4484 4.10056 46.7482 3.38425C46.9148 3.01777 47.4146 2.8512 47.7644 2.73459C48.3474 2.53469 48.9804 2.48471 49.5968 2.53469C50.2131 2.568 50.8128 2.66796 51.4292 2.81788C51.4125 2.81788 51.3959 2.81788 51.3792 2.83453Z" fill="#FFCE33"/>
<path d="M48.7973 4.95013C48.2642 5.54983 47.7978 6.1995 47.3813 6.88249C47.2314 7.13236 47.0981 7.38224 46.9815 7.63211C46.4984 7.7154 45.9987 7.81535 45.5156 7.86533C45.2824 7.88199 44.9825 7.89864 44.7826 7.76537C44.5494 7.61545 44.5827 7.33226 44.666 7.11571C44.9492 6.41606 45.7488 6.06623 46.3818 5.76638C46.9815 5.48319 47.6312 5.18335 48.2809 5.03343C48.4474 4.98345 48.614 4.96679 48.7973 4.95013Z" fill="#FFCE33"/>
<path d="M61.4746 3.7008C60.5584 3.11776 59.5256 2.7013 58.4761 2.43477C58.2429 2.15158 57.9763 1.88504 57.7265 1.60185C57.3766 1.20206 56.9935 0.70231 57.0435 0.135929C57.0435 0.0692963 57.0935 0.00266526 57.1768 0.00266526C57.9097 -0.0306512 58.6094 0.252541 59.2257 0.619023C59.892 1.01882 60.4917 1.53522 61.0081 2.1016C61.4413 2.56803 61.8244 3.1011 62.1242 3.66748C62.2242 3.85072 62.3242 4.05062 62.3908 4.26717C62.2908 3.58419 62.1909 2.88454 62.3242 2.18489C62.3408 2.11826 62.4074 2.08495 62.4574 2.08495C62.9072 2.05163 63.1904 2.43477 63.3736 2.7846C63.6235 3.26769 63.7568 3.8174 63.8401 4.35047C63.9067 4.76692 63.9733 5.20004 63.9733 5.63315C63.9733 5.7331 63.9733 6.04961 63.9067 6.28283C63.3236 5.25002 62.524 4.35047 61.4746 3.7008Z" fill="#FFCE33"/>
<path d="M46.1156 9.81433C45.8824 10.5806 45.7325 11.3802 45.6325 12.1798C45.5492 12.8628 45.5159 13.5458 45.4992 14.2288C45.1494 14.6286 44.6996 14.9118 44.1499 14.9118C44.0666 14.9118 44 14.8451 44 14.7618C44.0833 13.1127 44.683 10.8471 46.1156 9.81433Z" fill="#FFCE33"/>
<path d="M45.6492 17.4771C45.6658 17.4271 45.6825 17.3771 45.7158 17.3271C45.7158 17.3938 45.7325 17.4438 45.7325 17.5104C45.9157 18.8597 46.1822 20.1924 46.6653 21.4417C46.6487 21.625 46.6153 21.7916 46.582 21.9581C46.5154 22.2413 46.4321 22.5578 46.2322 22.7744C46.049 22.9743 45.7991 22.891 45.6492 22.7078C45.3993 22.4079 45.2993 21.9915 45.2494 21.6083C45.1661 21.1419 45.1494 20.6588 45.1494 20.1757C45.1661 19.2595 45.2993 18.36 45.6492 17.4771Z" fill="#FFCE33"/>
<path d="M47.4311 23.0576C47.7143 23.5407 48.0308 24.0071 48.364 24.4569C48.3473 25.1066 48.3473 25.7396 48.0642 26.3393C48.0475 26.3893 47.9809 26.4059 47.9309 26.3893C46.9314 26.1061 47.2146 24.5569 47.3145 23.8239C47.3645 23.5574 47.4145 23.3075 47.4311 23.0576Z" fill="#FFCE33"/>
<path d="M50.4631 26.5225C50.8629 26.8224 51.296 27.0889 51.7458 27.2888C51.7958 27.522 51.7791 27.7719 51.6958 28.0051C51.5792 28.2883 51.346 28.4715 51.0461 28.4216C50.7296 28.3716 50.4797 28.0384 50.3132 27.8052C50.1133 27.522 49.9633 27.2055 49.8967 26.8723C49.8467 26.6058 49.8301 26.3226 49.8301 26.0394C50.03 26.1894 50.2465 26.3559 50.4631 26.5225Z" fill="#FFCE33"/>
<path d="M53.3684 29.6008C53.7682 29.9006 54.2013 30.1671 54.6511 30.367C54.701 30.6003 54.6844 30.8501 54.6011 31.0833C54.4845 31.3665 54.2513 31.5498 53.9514 31.4998C53.6349 31.4498 53.385 31.1167 53.2184 30.8835C53.0185 30.6003 52.8686 30.2838 52.802 29.9506C52.752 29.6841 52.7354 29.4009 52.7354 29.1177C52.9353 29.2676 53.1518 29.4342 53.3684 29.6008Z" fill="#FFCE33"/>
<path d="M54.3063 31.2524C54.7302 30.8525 54.5473 30.3298 54.2267 29.9567C54.6982 30.0068 55.1641 30.1092 55.5863 30.3236C56.0085 30.5379 56.3307 30.9959 56.0386 31.4523C55.7591 31.8888 55.0639 31.7514 54.6468 31.6382C54.4301 31.5834 54.2099 31.5123 54.0059 31.4377C54.1127 31.3802 54.2194 31.3227 54.3063 31.2524Z" fill="#FFCE33"/>
<path d="M52.9283 18.9098C53.1449 18.9597 53.2615 19.2096 53.3281 19.3929C53.578 20.0259 53.628 20.7588 53.678 21.4252C53.6946 21.6917 53.7113 21.9416 53.7613 22.2081C53.7779 22.3747 53.8612 22.5246 53.9778 22.6412C54.1444 22.8078 54.4609 22.7078 54.6441 22.6412C54.9773 22.5413 55.3438 22.408 55.6436 22.6412C55.9268 22.8578 55.8602 23.3075 55.677 23.5741C55.3938 23.9905 54.7608 24.0238 54.311 24.0238C53.7946 24.0238 53.2615 23.9072 52.9783 23.4408C52.8284 23.1909 52.7951 22.8911 52.7618 22.6079C52.7118 22.2081 52.6785 21.8083 52.6618 21.4085C52.6285 20.8088 52.5952 20.2091 52.6118 19.6094C52.5452 19.6261 52.4619 19.5761 52.4619 19.4928C52.4619 19.2263 52.5619 18.8265 52.9283 18.9098Z" fill="#122528"/>
<path d="M45.449 12.1465C45.6822 10.2308 46.2653 8.38176 47.2481 6.71593C47.7812 5.81639 48.4308 4.98348 49.1471 4.23386C49.7968 3.56753 50.4798 2.96783 51.3294 2.56803C52.9286 1.80175 54.7943 1.63516 56.5267 1.80175C58.3092 1.96833 60.1249 2.5014 61.6575 3.45092C63.1734 4.40044 64.1562 5.8497 64.8392 7.46555C65.5722 9.26465 65.9387 11.2636 65.8387 13.2127C65.8054 13.7957 65.7221 14.3787 65.5722 14.9618C65.6555 15.0284 65.6888 15.145 65.6055 15.245C65.5389 15.3116 65.4722 15.4115 65.4223 15.4948C65.4056 15.5615 65.3723 15.6281 65.3556 15.6947C65.339 15.7281 65.3056 15.7447 65.2723 15.7447C65.1724 15.9113 65.0891 16.0945 65.0058 16.2445C64.7393 16.7109 64.4561 17.1607 64.1562 17.5771C63.5565 18.4267 62.8402 19.1763 62.024 19.8426C61.1744 20.5256 60.1916 21.1586 59.1421 21.4585C58.0093 21.775 56.8099 21.775 55.6605 21.8416C54.7776 21.8916 53.8281 21.9582 52.9952 22.2747C52.6787 22.3914 52.3622 22.5746 52.1623 22.8411C51.9291 23.141 51.8791 23.5241 51.8957 23.8906C51.9291 24.357 52.0956 24.7235 52.3788 25.09C52.6454 25.4232 52.9619 25.7397 53.2117 26.0728C53.5616 26.5393 55.2592 31.663 54.6762 32.0294C54.3264 32.246 52.2622 28.5063 51.8957 28.3897C51.3127 28.2065 50.8796 27.1056 50.3965 26.7558C49.0139 25.7397 47.8978 24.357 47.0982 22.8578C46.2153 21.2086 45.8155 19.3929 45.5656 17.5605C45.2824 15.778 45.2158 13.9623 45.449 12.1465Z" fill="#356F7C"/>
<path d="M56.1268 17.7603C56.3267 17.5771 56.6265 17.5271 56.8931 17.5105C57.3428 17.4772 57.7926 17.5438 58.2257 17.5938C58.1258 17.5271 58.0258 17.4772 57.9259 17.4272C57.6094 17.2439 57.2928 17.0774 56.9763 16.8775C56.4766 16.561 55.9269 16.0779 56.0935 15.4282C56.2767 14.6786 57.0596 14.3621 57.7426 14.2954C58.4589 14.2288 59.2419 14.3454 59.9249 14.5953C59.5417 14.0622 59.1253 13.5625 58.7921 12.9794C58.4256 12.3298 58.1591 11.5635 58.6255 10.8972C59.042 10.2808 59.8582 10.1975 60.5412 10.2475C61.2075 10.2975 61.8572 10.4807 62.4902 10.6973C62.257 10.4474 62.0405 10.1642 61.8239 9.89766C61.3908 9.31462 60.9577 8.66494 60.7744 7.96529C60.6412 7.41557 60.7744 6.83253 61.3408 6.59932C61.9738 6.33278 62.7234 6.63263 63.2898 6.93248C63.8062 7.19901 64.2893 7.53218 64.7224 7.91532C64.9057 8.0819 65.1056 8.26515 65.2722 8.44839C65.1389 7.68211 65.0389 6.91583 64.9223 6.14955C64.839 5.56651 64.5892 4.56701 65.3055 4.28382C65.6386 4.15056 65.9052 4.46707 66.0717 4.70028C66.3216 5.06676 66.4882 5.51653 66.6215 5.93299C67.0213 7.11572 67.2711 8.34844 67.7709 9.4812C68.1207 10.2641 68.4206 11.0637 68.8703 11.78C69.1702 12.2631 69.7033 12.9628 70.0864 13.3792C70.6195 13.9456 71.0026 14.2455 71.7189 14.6952C72.5352 15.2116 73.3181 15.7947 74.0844 16.3777C74.4175 16.6276 74.734 16.8941 74.9506 17.2606C75.1838 17.6604 75.3004 18.1435 75.3504 18.5933C75.4503 19.5095 75.1505 20.409 74.6508 21.1753C73.6179 22.7412 71.8022 23.774 69.9698 24.0572C67.7542 24.407 65.4387 23.9406 63.2732 23.4408C62.2404 23.1909 61.1742 22.8245 60.1914 22.4247C59.0919 21.9915 58.2923 21.4751 57.5094 20.7588C57.1263 20.409 56.8264 20.1758 56.4599 19.7927C56.0768 19.4095 55.9768 18.9597 55.8936 18.51C55.8936 18.2434 55.9269 17.9602 56.1268 17.7603Z" fill="#E3DCD5"/>
<path d="M65.7725 21.5417C65.2228 20.6922 64.8396 19.7426 64.723 18.7265C64.723 18.6932 64.7064 18.6432 64.7064 18.6099C64.6897 18.5266 64.8396 18.5099 64.8563 18.5932C65.1728 20.409 66.3056 22.308 67.9547 23.2075C68.6211 23.574 69.404 23.8073 70.1536 23.9405C70.2369 23.9572 70.3202 23.9738 70.4202 23.9738C70.2869 24.0072 70.1703 24.0238 70.037 24.0405C69.7705 24.0904 69.5039 24.1071 69.2541 24.1404C68.8043 23.9905 68.3712 23.8073 67.9381 23.6074C67.0219 23.1742 66.3056 22.3746 65.7725 21.5417Z" fill="#122528"/>
<path d="M62.5404 14.8619C62.5571 14.8119 62.6071 14.7786 62.657 14.7786C62.8736 14.8119 62.9735 15.0451 63.1068 15.1784C63.2567 15.3449 63.44 15.4782 63.6232 15.5948C63.9897 15.828 64.4228 15.9613 64.8726 15.9946C65.7888 16.0612 66.655 15.6281 67.2214 14.9118C67.2714 14.8452 67.388 14.9285 67.338 15.0118C66.8216 15.878 65.8554 16.3444 64.8726 16.3111C64.3895 16.2945 63.9231 16.1612 63.4899 15.928C63.2734 15.8114 63.0568 15.6448 62.8902 15.4615C62.7403 15.3283 62.4571 15.0784 62.5404 14.8619Z" fill="#122528"/>
<path d="M71.8191 17.0441C71.2694 16.661 70.703 16.0946 70.6864 15.6448C70.6697 15.2617 70.9029 14.9118 71.1695 14.6286C71.486 14.2788 71.8691 13.979 72.2023 13.6458C72.5521 13.3126 72.8853 12.9462 73.1685 12.563C73.7515 11.7801 74.0847 10.8972 74.018 9.96433C73.9847 9.4979 73.8515 8.99816 73.6182 8.5817C73.4683 8.31517 73.3017 8.04863 73.1851 7.76544C73.0852 7.53223 73.0185 7.21572 73.2518 6.99917C73.5183 6.76595 73.8848 6.91588 74.1513 7.08246C74.9009 7.54889 75.5006 8.21522 75.9504 8.91487C76.4501 9.66449 76.7667 10.6307 76.9166 11.5802C77.0998 12.8296 76.9665 14.0956 76.5834 15.3116C76.3002 16.1779 75.7505 17.0608 74.8343 17.4939C73.9014 17.927 72.2189 17.3273 71.8191 17.0441Z" fill="#FFCE33"/>
<path d="M65.7555 10.4974C65.9554 10.6307 66.0387 10.8639 66.0887 11.0805C66.1054 11.1471 66.122 11.2471 66.122 11.3637C66.1887 11.7635 66.1054 12.1133 65.7889 12.08C65.7555 12.08 65.7056 12.0633 65.6723 12.0466C65.4057 11.98 65.2058 11.6302 65.1225 11.2637C65.1059 11.2137 65.1059 11.1804 65.0892 11.1304C65.0559 10.9305 65.0559 10.6474 65.2058 10.4974C65.3724 10.3475 65.5723 10.3808 65.7555 10.4974Z" fill="white"/>
<path d="M66.1887 9.64783C66.2053 9.63118 66.222 9.61451 66.2387 9.59785C66.2387 9.58119 66.2553 9.56454 66.2553 9.54788C66.3553 9.33132 66.6218 9.33132 66.7717 9.4979C66.905 9.64783 66.9383 9.86439 66.8883 10.0643C66.905 10.2142 66.8384 10.3641 66.6718 10.3975C66.5885 10.4141 66.5218 10.3975 66.4552 10.3641C66.4052 10.3475 66.3553 10.3308 66.3219 10.2808C66.172 10.1476 66.0721 9.83107 66.1887 9.64783Z" fill="white"/>
<path d="M64.0896 8.94818C64.2229 9.11477 64.3228 9.39795 64.3228 9.63117C64.3228 9.81441 64.1896 9.98099 63.9897 9.99765C63.7565 9.99765 63.5399 9.76444 63.4066 9.61452C63.2067 9.36464 63.0235 8.9815 63.3067 8.73163C63.5732 8.4651 63.9231 8.73163 64.0896 8.94818Z" fill="white"/>
<path d="M67.7052 11.247C67.9217 11.3136 68.1216 11.5135 68.2216 11.6967C68.2549 11.7634 68.2882 11.8133 68.2882 11.88C68.3882 12.0965 68.3715 12.3631 68.105 12.4464C67.8718 12.513 67.6386 12.3631 67.4553 12.2131C67.2887 12.0632 67.1055 11.8467 67.1222 11.5968C67.1555 11.3303 67.4387 11.1803 67.7052 11.247Z" fill="white"/>
<path d="M68.5208 13.096C68.6708 13.1127 68.754 13.246 68.804 13.3792C68.8373 13.4459 68.8373 13.5292 68.8207 13.6125C68.8207 13.6291 68.8207 13.6458 68.8207 13.6624C68.8207 13.8124 68.7041 13.9623 68.5375 13.9456C68.3709 13.929 68.271 13.8124 68.171 13.6957C68.0711 13.5625 68.0544 13.4126 68.121 13.2793C68.221 13.0961 68.3876 13.0794 68.5208 13.096Z" fill="white"/>
<path d="M57.0768 18.6433C57.2767 18.46 57.5765 18.51 57.7598 18.6933C57.7764 18.6933 57.7764 18.7099 57.7931 18.7266C57.943 18.8598 57.9763 19.0431 57.9597 19.2263C58.0263 19.4595 57.893 19.7261 57.6432 19.776C57.3433 19.826 57.0601 19.6594 56.9602 19.3762C56.8602 19.1264 56.8769 18.8265 57.0768 18.6433Z" fill="white"/>
<path d="M58.9756 20.6589C58.9423 20.5257 59.009 20.3924 59.1422 20.3591C59.2089 20.3424 59.2755 20.3591 59.3255 20.3757C59.3754 20.3924 59.4254 20.4257 59.4421 20.459C59.4587 20.4757 59.4754 20.4757 59.4921 20.4923C59.642 20.6423 59.6753 20.9421 59.5753 21.1253C59.5087 21.242 59.3921 21.2586 59.2755 21.242C59.1755 21.2253 59.0923 21.142 59.0423 21.0587C58.9756 20.9754 58.959 20.8588 58.959 20.7589C58.959 20.7422 58.959 20.7089 58.9756 20.6589C58.9756 20.6756 58.9756 20.6589 58.9756 20.6589Z" fill="white"/>
<path d="M58.8096 18.7266C59.0261 18.6433 59.2094 18.7432 59.3426 18.9098C59.3759 18.9431 59.4093 18.9931 59.4259 19.0598C59.4259 19.0764 59.4259 19.0931 59.4259 19.0931C59.4592 19.2097 59.4592 19.3429 59.3926 19.4596C59.3426 19.5595 59.226 19.6261 59.1094 19.6261C59.0927 19.6261 59.0761 19.6261 59.0428 19.6261C58.8928 19.7094 58.7096 19.7094 58.593 19.5428C58.5264 19.4429 58.5264 19.3263 58.5264 19.2097C58.5763 19.0431 58.6097 18.8099 58.8096 18.7266Z" fill="white"/>
<path d="M66.7723 8.08199C66.7556 8.16528 66.6723 8.23192 66.5724 8.23192C66.3558 8.21526 66.1893 8.08199 66.1226 7.88209C66.056 7.66553 66.1893 7.43232 66.4225 7.39901C66.5058 7.38235 66.6057 7.38234 66.6723 7.41566C66.7723 7.46563 66.8056 7.58224 66.8223 7.69885C66.8223 7.73217 66.8223 7.78214 66.8056 7.81546C66.8056 7.91541 66.789 7.9987 66.7723 8.08199Z" fill="white"/>
<path d="M62.0912 8.51504C62.2078 8.43175 62.3577 8.46507 62.441 8.56502C62.5576 8.68163 62.5743 8.84821 62.5909 8.98148C62.5909 8.99814 62.5909 9.01479 62.5909 9.01479C62.6243 9.13139 62.6076 9.24801 62.5243 9.3313C62.3078 9.5312 61.9246 9.39793 61.8746 9.11474C61.8247 8.88153 61.908 8.6483 62.0912 8.51504Z" fill="white"/>
<path d="M58.2264 14.9785C58.5263 14.8619 58.9261 14.9452 59.1593 15.1784C59.2592 15.2617 59.2925 15.3783 59.3092 15.4782C59.3259 15.5282 59.3425 15.5615 59.3592 15.6115C59.4425 16.0279 59.0593 16.3778 58.6762 16.3944C58.3097 16.4111 57.9266 16.1612 57.7933 15.828C57.6434 15.4616 57.8766 15.1117 58.2264 14.9785Z" fill="white"/>
<path d="M59.276 16.7942C59.1927 16.6942 59.3093 16.511 59.4426 16.511C59.5092 16.511 59.5759 16.511 59.6425 16.5443L59.6592 16.561C59.8091 16.561 59.8424 16.7442 59.8424 16.8775C59.8424 16.9941 59.7258 17.0607 59.6425 17.0441C59.5759 17.0274 59.5092 17.0274 59.4593 16.9941C59.376 16.9441 59.326 16.8608 59.276 16.7942Z" fill="white"/>
<path d="M60.7083 19.193C60.7583 19.143 60.8249 19.1263 60.8915 19.1097C61.0414 19.093 61.1914 19.2596 61.258 19.4095C61.2747 19.4428 61.2747 19.4762 61.2913 19.5261C61.2913 19.5428 61.2913 19.5428 61.2913 19.5595C61.2913 19.6094 61.2747 19.6761 61.258 19.7094C61.2247 19.9926 60.8415 20.1425 60.6083 19.9259C60.4751 19.8093 60.4251 19.5928 60.4751 19.4095C60.4917 19.2929 60.5917 19.2263 60.7083 19.193Z" fill="white"/>
<path d="M60.1754 4.31713C60.3753 4.20053 60.6752 4.33379 60.8751 4.40043C61.1749 4.50038 61.4581 4.63364 61.7247 4.80022C62.1911 5.08341 62.5742 5.41657 62.7741 5.93298C62.8241 6.0829 62.7075 6.01627 62.6575 5.9663C62.3244 5.5665 62.0245 5.25 61.5414 4.98346C61.3082 4.8502 61.0583 4.73359 60.8085 4.6503C60.6086 4.58367 60.3254 4.58366 60.1588 4.43373C60.1255 4.40042 60.1421 4.35045 60.1754 4.31713Z" fill="#E3DCD5"/>
<path d="M55.1446 3.10106C55.3778 2.98446 55.6777 3.01777 55.9275 3.01777C56.2274 3.01777 56.6772 3.01778 56.9604 3.06776C57.5767 3.1677 58.0598 3.18435 58.6595 3.51752C58.7095 3.55084 58.6595 3.61748 58.5929 3.61748C58.0265 3.55084 57.71 3.50086 56.9604 3.38426C56.6438 3.33428 56.4106 3.3676 56.0775 3.35094C55.8109 3.33428 55.4278 3.35095 55.1613 3.31763C55.078 3.30097 55.0613 3.15104 55.1446 3.10106Z" fill="#E3DCD5"/>
<path d="M50.713 4.88349C50.8129 4.8002 50.8962 4.71691 50.9962 4.63362C51.1961 4.43372 51.3626 4.26714 51.5792 4.0839C51.979 3.73407 52.4621 3.53417 52.9951 3.55083C53.0618 3.55083 53.0951 3.61746 53.0285 3.63412C52.6287 3.81736 52.3455 3.90066 51.8957 4.23383C51.6958 4.38375 51.3127 4.68359 51.1294 4.85017C50.9962 4.98344 50.7963 5.23332 50.5964 5.24997C50.5464 5.24997 50.5131 5.2 50.5297 5.16668C50.5464 5.05008 50.6297 4.95012 50.713 4.88349Z" fill="#E3DCD5"/>
<path d="M47.8809 9.04808C47.8476 9.06474 47.7976 9.06474 47.7809 9.01477C47.6477 8.83153 47.8476 8.49837 47.9309 8.31513C48.0308 8.06525 48.1474 7.83203 48.2973 7.59881C48.5639 7.14904 48.8804 6.78256 49.3301 6.49937C49.3801 6.46606 49.4634 6.51604 49.4301 6.56601C49.0803 6.94915 48.7804 7.28232 48.5306 7.73209C48.3973 7.9653 48.2807 8.19852 48.1974 8.44839C48.0974 8.63163 48.0641 8.98145 47.8809 9.04808Z" fill="#E3DCD5"/>
<path d="M46.8154 13.3459C46.7821 13.4291 46.6822 13.4291 46.6489 13.3459C46.5656 13.1626 46.5989 12.9294 46.6156 12.7295C46.6322 12.4963 46.6655 12.2631 46.7155 12.0299C46.8154 11.5967 46.8987 11.1636 47.2152 10.8471C47.2652 10.7971 47.2819 10.8471 47.2652 10.8971C47.1653 11.3635 47.0153 11.6634 46.9321 12.0965C46.8987 12.313 46.8821 12.5296 46.8654 12.7462C46.8488 12.9294 46.8821 13.146 46.8154 13.3459Z" fill="#E3DCD5"/>
<path d="M46.5654 14.6786C46.6987 15.3449 46.732 15.7614 46.8319 16.2611C46.8819 16.5277 46.9319 16.8109 46.9819 17.0774C47.0318 17.3106 47.1151 17.5605 47.0485 17.7937C47.0318 17.8437 46.9485 17.877 46.9152 17.827C46.7653 17.6271 46.7487 17.3939 46.6987 17.1607C46.6487 16.8941 46.5987 16.611 46.5654 16.3444C46.4821 15.8114 46.4155 15.0784 46.4655 14.6786C46.4655 14.612 46.5487 14.6286 46.5654 14.6786Z" fill="#E3DCD5"/>
<path d="M47.2985 18.9931C47.3818 19.143 47.3984 19.3596 47.4484 19.5261C47.515 19.7594 47.615 19.9592 47.7316 20.1758C47.8315 20.3757 47.9482 20.5756 48.0648 20.7922C48.1481 20.9421 48.2647 21.142 48.198 21.3086C48.1814 21.3419 48.1481 21.3752 48.1147 21.3585C47.9315 21.2919 47.8649 21.0587 47.7816 20.8921C47.665 20.6589 47.565 20.4257 47.4651 20.1925C47.3651 19.9759 47.2985 19.7594 47.2485 19.5261C47.2152 19.3596 47.1819 19.143 47.2652 19.0097C47.2485 18.9597 47.2818 18.9598 47.2985 18.9931Z" fill="#E3DCD5"/>
<path d="M48.9143 22.5246C49.0643 22.6579 49.3808 23.0744 49.5807 23.3742C49.7639 23.6407 50.0138 23.9572 49.9638 24.2904C49.9638 24.3404 49.8972 24.3737 49.8639 24.3404C49.6306 24.0905 49.514 23.7407 49.3308 23.4408C49.1475 23.1577 48.981 22.8578 48.8477 22.5413C48.8144 22.4747 48.8644 22.4747 48.9143 22.5246Z" fill="#E3DCD5"/>
<path d="M50.9134 25.0566C51.1633 25.2066 51.3299 25.4398 51.5465 25.6397C51.7464 25.8229 51.9962 26.0228 52.1128 26.2727C52.1961 26.4393 51.9796 26.5725 51.863 26.4226C51.6964 26.1894 51.5298 25.9729 51.3299 25.773C51.13 25.5564 50.9468 25.3565 50.8301 25.09C50.7968 25.0233 50.8301 25.0067 50.9134 25.0566Z" fill="#E3DCD5"/>
<path d="M74.6176 9.26469C74.4177 9.36464 74.1844 9.44794 73.9679 9.49791C73.9512 9.44794 73.9512 9.39796 73.9346 9.34798C74.1178 9.29801 74.301 9.24804 74.4676 9.16475C74.8841 8.98151 75.2672 8.69832 75.4838 8.28186C75.4838 8.28186 75.4838 8.28186 75.4838 8.2652C75.5171 8.29851 75.5504 8.34849 75.5837 8.38181C75.3672 8.78161 75.0007 9.06479 74.6176 9.26469Z" fill="#DA7015"/>
<path d="M74.6015 11.6302C74.3349 11.6135 74.0517 11.5802 73.7686 11.5302C73.8019 11.4636 73.8185 11.3969 73.8352 11.3303C74.0684 11.3803 74.3016 11.4136 74.5348 11.4303C75.0512 11.4636 75.6509 11.4469 76.1007 11.1304C76.3173 10.9805 76.5172 10.7973 76.7171 10.614C76.7337 10.664 76.7504 10.714 76.767 10.7806C76.6005 10.9305 76.4339 11.0804 76.2506 11.2137C75.7842 11.5968 75.1845 11.6468 74.6015 11.6302Z" fill="#DA7015"/>
<path d="M74.9004 12.8295C74.3674 12.6963 73.8843 12.4631 73.4512 12.1466C73.4845 12.0799 73.5178 12.0133 73.5678 11.9467C73.9676 12.2798 74.4673 12.4964 74.9671 12.6463C75.6167 12.8295 76.3497 12.8295 76.9994 12.6463C76.9994 12.6963 76.9994 12.7462 76.9994 12.7962C76.3331 12.9961 75.6001 12.9961 74.9004 12.8295Z" fill="#DA7015"/>
<path d="M71.0195 14.8285C71.0695 14.7619 71.1195 14.7119 71.1695 14.6619C71.2028 14.7452 71.2527 14.8285 71.2861 14.9118C71.5859 15.4782 72.019 15.9613 72.4855 16.3611C73.1185 16.8941 73.9014 17.3272 74.7177 17.5438C74.6344 17.5771 74.5511 17.5938 74.4678 17.6104C73.7015 17.3939 72.9852 16.9941 72.3688 16.4777C71.8524 16.0612 71.4027 15.5282 71.0862 14.9451C71.0528 14.9118 71.0362 14.8618 71.0195 14.8285Z" fill="#DA7015"/>
<path d="M75.1843 7.94863C75.101 8.0819 75.001 8.19851 74.9011 8.31512C74.6346 8.64828 74.3347 8.96479 73.9682 9.198C73.9516 9.21466 73.9183 9.23132 73.8849 9.24797C73.8683 9.18134 73.8516 9.13137 73.835 9.06474C73.8849 9.04808 73.9183 9.01476 73.9682 8.98145C74.3014 8.76489 74.5846 8.46504 74.8345 8.14853C74.9177 8.04858 75.001 7.93198 75.0843 7.81537C75.1176 7.86534 75.151 7.89866 75.1843 7.94863Z" fill="#DA7015"/>
<path d="M75.8176 15.4449C75.2012 15.3116 74.6515 15.0284 74.1351 14.6619C73.5854 14.2621 73.069 13.7624 72.6192 13.246L72.6025 13.2293C72.6525 13.1794 72.6858 13.1294 72.7358 13.0794C72.7858 13.1294 72.8358 13.196 72.8857 13.246C73.3188 13.7291 73.8019 14.1955 74.335 14.5786C75.0013 15.0617 75.7676 15.295 76.5505 15.4116C76.5339 15.4615 76.5172 15.5115 76.5006 15.5448C76.2674 15.5448 76.0341 15.4949 75.8176 15.4449Z" fill="#DA7015"/>
<path d="M73.0351 15.8447C72.4688 15.4449 71.9857 14.9285 71.6525 14.3288C71.6359 14.2955 71.6192 14.2622 71.6025 14.2288C71.6525 14.1789 71.7191 14.1289 71.7691 14.0789C71.7858 14.1289 71.8191 14.1789 71.8524 14.2288C72.1689 14.8285 72.652 15.3283 73.2017 15.7114C73.9847 16.2611 74.9508 16.5777 75.917 16.6443C75.8837 16.6943 75.8504 16.7276 75.8004 16.7776C74.8009 16.7276 73.8347 16.4111 73.0351 15.8447Z" fill="#DA7015"/>
<path d="M74.4347 14.1289C73.885 13.8124 73.3686 13.3793 72.9521 12.8462C73.0021 12.7796 73.0521 12.7129 73.1021 12.663C73.4686 13.1627 73.935 13.5958 74.4847 13.929C75.1844 14.3621 75.984 14.5953 76.7835 14.562C76.7669 14.612 76.7669 14.662 76.7502 14.7119C75.9506 14.7619 75.151 14.5453 74.4347 14.1289Z" fill="#DA7015"/>
<path d="M76.5332 10.0643C76.1501 10.4141 75.6503 10.6473 75.1339 10.7973C74.7508 10.8972 74.351 10.9472 73.9512 10.9305C73.9678 10.8805 73.9678 10.8139 73.9845 10.7639C74.3343 10.7639 74.6675 10.7306 75.0006 10.664C75.5337 10.5474 76.0834 10.3142 76.4832 9.94769C76.4999 9.98101 76.5165 10.031 76.5332 10.0643Z" fill="#DA7015"/>
</svg>
