<svg width="54" height="41" viewBox="0 0 54 41" fill="none" xmlns="http://www.w3.org/2000/svg">
    <path fill-rule="evenodd" clip-rule="evenodd" d="M1.65332 20.4214C1.64597 23.6573 1.5015 28.071 3.50451 29.7209C5.37284 31.2598 6.68777 30.8632 10.0987 31.1134C13.5122 31.366 20.7161 41.3947 26.2697 38.2225C29.1346 35.9708 29.3477 31.2503 29.3477 20.4214C29.3477 9.59251 29.1346 4.87198 26.2697 2.62028C20.7161 -0.554276 13.5122 9.47686 10.0987 9.72941C6.68777 9.97959 5.37284 9.58307 3.50451 11.122C1.5015 12.7718 1.64597 17.1855 1.65332 20.4214Z" stroke="#356F7C" stroke-width="3" stroke-linecap="round" stroke-linejoin="round"/>
    <path d="M46.6299 4.37915C53.3441 14.0397 53.3661 26.7828 46.6299 36.4623" stroke="#356F7C" stroke-width="3" stroke-linecap="round" stroke-linejoin="round"/>
    <path d="M40.0391 10.7222C43.4917 16.7503 43.4917 24.112 40.0391 30.1212" stroke="#356F7C" stroke-width="3" stroke-linecap="round" stroke-linejoin="round"/>
    </svg>
    