<svg width="320" height="612" viewBox="0 0 320 612" fill="none" xmlns="http://www.w3.org/2000/svg">
<path d="M137.931 6.45417C55.4965 2.25006 8.34815 14.4643 -0.302015 75.1589C-7.51047 125.738 -0.302021 288.316 -0.302015 382.691C-0.302007 517.637 -16.4484 484.456 5.61915 563.825C27.6867 643.194 285.198 610.928 306.982 563.825C318.642 538.614 324.295 512.944 324.295 457.899C324.295 406.461 321.263 237.712 324.295 157.065C327.851 62.505 320.231 -14.273 247.591 2.25007C195.872 14.0141 179.243 8.56102 137.931 6.45417Z" fill="#DFEEF1"/>
<path d="M305.082 361.204C305.248 360.043 303.479 359.711 302.982 360.651C301.987 362.53 301.655 364.63 300.494 366.399C300.052 367.062 300.992 367.67 301.544 367.173C303.313 365.736 304.75 363.47 305.082 361.204Z" fill="white"/>
<path d="M298.891 357.721C299.002 358.385 299.886 358.329 300.162 357.887C301.323 356.063 303.479 354.073 302.815 351.697C302.484 350.536 300.826 350.315 300.273 351.365C299.72 352.36 299.499 353.521 299.112 354.626C298.836 355.676 298.725 356.616 298.891 357.721Z" fill="white"/>
<path d="M310.166 363.635C309.945 363.58 309.779 363.58 309.614 363.635C309.282 363.746 308.95 364.022 308.84 364.409C308.342 366.399 307.79 368.112 306.463 369.715C306.021 370.268 306.629 371.318 307.292 370.821C309.172 369.384 311.106 367.283 310.995 364.741C310.94 364.188 310.664 363.801 310.166 363.635Z" fill="white"/>
<path d="M308.176 356.118C309.448 354.681 310.553 352.802 310.608 350.812C310.608 349.762 309.282 349.762 308.95 350.591C308.287 352.139 308.121 353.852 307.292 355.4C306.96 356.008 307.734 356.671 308.176 356.118Z" fill="white"/>
<path d="M296.846 345.893C296.569 346.612 296.183 347.33 295.851 348.049C295.74 348.27 296.072 348.491 296.238 348.38C296.791 348.049 297.233 347.441 297.564 346.888C297.896 346.391 298.393 345.562 297.951 345.064C297.509 344.401 297.012 345.562 296.846 345.893Z" fill="white"/>
<path d="M301.71 346.999C303.257 345.23 304.694 343.185 304.86 340.753C304.915 340.366 304.639 339.924 304.307 339.758C304.142 339.647 303.976 339.592 303.755 339.592C303.202 339.647 302.815 339.924 302.649 340.421C301.986 342.411 301.489 344.401 300.715 346.391C300.494 346.943 301.323 347.441 301.71 346.999Z" fill="white"/>
<path d="M302.649 329.367C303.091 328.04 303.478 326.714 303.81 325.332C304.086 324.171 304.473 322.955 303.644 321.96C303.368 321.629 302.815 321.684 302.539 321.96C301.71 322.734 301.875 324.005 301.765 325.055C301.599 326.382 301.323 327.653 301.046 328.98C300.936 329.919 302.318 330.362 302.649 329.367Z" fill="white"/>
<path d="M289.66 351.752C290.655 350.868 291.595 349.928 292.479 348.933C293.198 348.104 294.469 346.833 294.027 345.672C293.916 345.34 293.585 345.119 293.198 345.23C292.203 345.506 291.761 346.722 291.263 347.551C290.49 348.712 289.605 349.707 288.666 350.757C288.058 351.42 288.997 352.36 289.66 351.752Z" fill="white"/>
<path d="M294.856 340.698C295.74 339.26 296.569 337.713 297.122 336.11C297.454 335.115 298.504 332.904 297.232 332.13C295.906 331.357 295.353 334.01 295.187 334.728C294.745 336.552 294.303 338.431 293.64 340.2C293.419 340.919 294.469 341.306 294.856 340.698Z" fill="white"/>
<path d="M290.545 321.242C291.209 319.75 292.425 317.594 291.596 315.936C291.264 315.328 290.324 315.604 290.324 316.267C290.324 317.041 290.38 317.815 290.269 318.589C290.158 319.418 290.048 320.192 289.882 320.966C289.827 321.352 290.38 321.629 290.545 321.242Z" fill="white"/>
<path d="M280.706 337.326C281.756 336.497 282.641 335.502 283.359 334.286C283.912 333.291 285.017 331.522 284.299 330.417C284.078 330.085 283.691 330.03 283.359 330.196C282.42 330.638 282.199 332.13 281.812 333.015C281.314 334.175 280.762 335.336 279.932 336.276C279.324 336.773 280.043 337.823 280.706 337.326Z" fill="white"/>
<path d="M297.619 321.021C298.338 320.026 298.614 318.699 298.78 317.483C298.946 316.433 299.388 314.775 298.504 313.946C298.227 313.67 297.785 313.67 297.509 313.946C296.735 314.664 296.956 316.212 296.901 317.207C296.846 318.368 296.624 319.584 296.735 320.744C296.735 321.297 297.288 321.408 297.619 321.021Z" fill="white"/>
<path d="M276.948 325.111C276.672 326.603 276.451 328.096 276.34 329.588C276.23 330.417 277.501 330.528 277.722 329.754C278.164 328.261 278.772 326.769 279.104 325.221C279.38 324.116 279.933 322.347 278.883 321.518C278.551 321.242 278.219 321.242 277.888 321.518C276.948 322.292 277.169 324.061 276.948 325.111Z" fill="white"/>
<path d="M287.726 312.509C289.108 311.514 289.55 309.856 289.771 308.308C289.992 306.705 290.269 304.052 288.776 303.002C288.39 302.726 287.726 302.947 287.505 303.334C286.953 304.494 287.45 306.208 287.56 307.424C287.671 308.806 287.782 310.574 287.063 311.79C286.731 312.232 287.284 312.84 287.726 312.509Z" fill="white"/>
<path d="M263.738 326.935C264.567 325.553 265.286 324.171 265.949 322.679C266.447 321.573 267.276 319.915 266.613 318.755C266.447 318.423 266.06 318.368 265.728 318.533C264.623 319.086 264.291 320.8 263.959 321.85C263.517 323.287 262.965 324.724 262.357 326.106C261.914 327.045 263.186 327.819 263.738 326.935Z" fill="white"/>
<path d="M272.858 319.197C273.577 318.589 273.853 317.539 274.129 316.654C274.461 315.604 274.793 314.278 274.516 313.172C274.35 312.509 273.466 312.619 273.245 313.172C272.913 314.112 272.913 315.273 272.803 316.267C272.692 317.207 272.416 318.091 272.25 318.976C272.25 319.307 272.692 319.363 272.858 319.197Z" fill="white"/>
<path d="M265.12 315.825C265.783 314.057 266.447 312.288 266.723 310.464C266.944 309.027 267.331 306.926 266.226 305.766C265.894 305.434 265.341 305.489 265.12 305.932C264.457 307.148 264.844 308.861 264.678 310.187C264.512 311.956 264.181 313.725 263.738 315.494C263.517 316.378 264.789 316.71 265.12 315.825Z" fill="white"/>
<path d="M250.583 318.589C251.302 317.539 251.854 316.488 252.352 315.328C252.739 314.388 253.181 312.73 252.186 312.011C252.02 311.901 251.744 311.956 251.578 312.122C250.915 312.73 251.08 314.112 250.915 314.941C250.638 315.991 250.141 317.041 249.588 317.981C249.201 318.644 250.196 319.197 250.583 318.589Z" fill="white"/>
<path d="M254.287 305.102C254.342 306.263 254.287 307.479 254.231 308.64C254.231 309.524 255.503 309.469 255.558 308.64C255.669 307.258 255.834 305.876 255.779 304.494C255.724 303.444 255.558 301.952 254.508 301.51C254.287 301.399 253.955 301.62 253.9 301.841C253.734 302.339 253.955 302.726 254.066 303.223C254.121 303.887 254.231 304.494 254.287 305.102Z" fill="white"/>
<path d="M240.8 318.81C243.011 317.373 244.835 314.775 244.891 312.067C244.891 311.735 244.725 311.403 244.393 311.238C243.011 310.464 242.79 312.619 242.514 313.449C242.016 314.996 241.187 316.654 240.027 317.87C239.585 318.312 240.193 319.197 240.8 318.81Z" fill="white"/>
<path d="M247.046 308.64C247.101 309.248 247.875 309.358 248.096 308.806C248.925 306.761 250.03 302.228 247.875 300.625C247.598 300.404 247.156 300.625 247.046 300.957C246.714 302.007 247.101 303.334 247.156 304.439C247.156 305.876 246.935 307.258 247.046 308.64Z" fill="white"/>
<path d="M235.494 308.971C236.434 307.645 236.931 306.097 237.097 304.494C237.208 303.278 237.594 300.625 236.213 299.962C235.936 299.851 235.605 299.851 235.439 300.073C234.665 301.012 235.162 302.67 235.162 303.776C235.162 305.323 234.997 307.037 234.389 308.474C234.112 309.192 235.162 309.469 235.494 308.971Z" fill="white"/>
<path d="M227.203 302.505C227.922 301.344 228.253 300.017 228.364 298.691C228.474 297.53 228.364 295.54 227.258 294.877C226.927 294.711 226.54 294.822 226.374 295.154C225.876 296.038 226.374 297.143 226.484 298.028C226.65 299.354 226.65 300.681 226.153 301.897C225.876 302.671 226.816 303.223 227.203 302.505Z" fill="white"/>
<path d="M220.847 302.56C221.455 300.902 222.727 297.475 221.013 296.148C220.682 295.927 220.239 296.093 220.018 296.425C219.521 297.143 219.742 298.194 219.797 299.078C219.852 300.128 219.687 301.178 219.521 302.228C219.41 303.057 220.571 303.389 220.847 302.56Z" fill="white"/>
<path d="M206.145 292.279C206.476 292.887 206.918 293.33 207.195 293.993C207.471 294.656 207.692 295.375 208.079 295.983C208.3 296.37 208.963 296.314 209.074 295.872C209.35 294.269 208.798 292.003 207.305 291.119C206.531 290.677 205.647 291.561 206.145 292.279Z" fill="white"/>
<path d="M307.9 373.971C307.568 374.248 307.568 374.635 307.458 375.022C307.347 375.464 307.126 375.906 306.96 376.293C306.573 377.067 305.91 377.73 305.302 378.393C305.026 378.669 305.357 379.222 305.744 379.056C306.684 378.669 307.402 377.951 307.955 377.067C308.397 376.348 309.116 374.856 308.563 374.027C308.397 373.75 308.121 373.75 307.9 373.971Z" fill="white"/>
<path d="M306.629 390.663C306.021 391.382 305.855 392.432 305.302 393.206C304.694 394.035 303.755 394.588 302.815 394.919C302.096 395.14 302.428 396.246 303.147 396.025C304.363 395.638 305.357 395.03 306.242 394.09C306.96 393.316 307.789 391.935 307.402 390.884C307.292 390.498 306.905 390.387 306.629 390.663Z" fill="white"/>
<path d="M278.883 312.951C279.601 311.514 279.988 310.132 280.099 308.529C280.209 307.203 280.264 304.881 279.159 303.942C278.883 303.721 278.33 303.665 278.164 304.052C277.667 305.158 278.164 306.484 278.275 307.7C278.385 309.303 278.219 310.961 277.832 312.509C277.667 313.117 278.551 313.559 278.883 312.951Z" fill="white"/>
<path d="M271.918 305.324C271.863 305.987 273.024 306.153 273.079 305.489C273.355 303.665 273.41 301.841 273.245 300.017C273.079 298.58 272.747 296.425 271.421 295.596C271.034 295.375 270.647 295.651 270.647 296.038C270.481 297.364 271.31 298.912 271.586 300.183C271.918 301.897 272.029 303.61 271.918 305.324Z" fill="white"/>
<path d="M260.422 302.173C260.588 303.831 260.477 305.545 260.201 307.148C260.146 307.479 260.477 307.7 260.754 307.479C262.08 306.208 262.356 304.329 262.356 302.505C262.356 300.957 262.356 297.917 260.864 297.033C260.588 296.867 260.09 296.922 259.924 297.254C259.648 297.917 259.759 298.525 259.924 299.188C260.146 300.183 260.311 301.178 260.422 302.173Z" fill="white"/>
<path d="M241.408 299.409C241.574 301.068 241.63 302.726 241.795 304.384C241.851 305.102 242.846 305.102 242.901 304.384C243.067 302.615 243.343 300.847 243.232 299.023C243.177 297.696 243.067 295.264 241.63 294.601C241.298 294.435 240.911 294.546 240.8 294.932C240.635 295.54 240.8 296.093 240.966 296.701C241.132 297.641 241.298 298.525 241.408 299.409Z" fill="white"/>
<path d="M292.756 333.015C293.806 332.573 293.917 330.472 294.082 329.533C294.304 327.93 294.69 326.216 293.972 324.724C293.806 324.337 293.198 324.392 293.032 324.724C292.369 326.05 292.424 327.543 292.258 328.98C292.148 329.698 292.037 330.417 291.982 331.135C291.927 331.633 291.706 332.241 291.982 332.683C292.148 332.959 292.48 333.125 292.756 333.015Z" fill="white"/>
<path d="M309.006 343.627C310.112 342.521 310.554 340.697 310.775 339.205C310.996 337.658 311.217 335.723 310.443 334.341C310.222 333.899 309.614 334.01 309.448 334.452C309.006 335.778 309.283 337.215 309.117 338.597C308.951 340.145 308.343 341.527 308.011 343.074C307.901 343.627 308.619 344.069 309.006 343.627Z" fill="white"/>
</svg>
