<svg width="826" height="481" viewBox="0 0 826 481" fill="none" xmlns="http://www.w3.org/2000/svg">
    <path d="M822.801 453.578C769.564 452.2 716.236 453.416 663.09 455.849C609.58 458.362 556.343 463.957 502.742 463.389C451.419 462.822 400.188 459.903 348.774 461.443C297.816 462.984 246.858 466.795 195.901 466.795C164.907 466.795 133.821 465.66 102.827 465.254C69.1896 464.849 35.6432 464.038 2.18781 461.119C-0.729272 460.876 -0.729272 464.93 2.18781 465.173C61.35 470.363 120.968 469.309 180.312 470.687C231.179 471.822 282.046 468.092 332.821 466.065C384.053 464.038 435.102 465.984 486.333 467.2C512.313 467.849 538.294 467.687 564.274 466.146C591.166 464.606 618.058 462.254 645.041 460.795C704.203 457.633 763.547 456.092 822.892 457.551C825.718 457.714 825.718 453.659 822.801 453.578Z" fill="#FFCE33"/>
    <path d="M823.801 14.0852C770.564 12.7068 717.236 13.923 664.09 16.3556C610.58 18.8692 557.343 24.464 503.742 23.8964C452.419 23.3289 401.188 20.4098 349.774 21.9504C298.816 23.4911 247.858 27.302 196.901 27.302C165.907 27.302 134.821 26.1669 103.827 25.7614C70.1896 25.356 36.6432 24.5451 3.18781 21.6261C0.270728 21.3828 0.270728 25.4371 3.18781 25.6803C62.35 30.8697 121.968 29.8156 181.312 31.1941C232.179 32.3293 283.046 28.5994 333.821 26.5723C385.053 24.5452 436.102 26.4912 487.333 27.7074C513.313 28.3561 539.294 28.194 565.274 26.6533C592.166 25.1127 619.058 22.7613 646.041 21.3018C705.203 18.1395 764.547 16.5989 823.892 18.0584C826.718 18.2206 826.718 14.1663 823.801 14.0852Z" fill="#FFCE33"/>
    <path d="M17.5769 1.6584C15.3258 43.5801 16.1494 85.5701 16.8631 127.56C17.2475 149.376 16.2592 170.918 14.9964 192.665C13.7337 214.207 12.7454 235.886 14.2278 257.428C14.8866 266.729 16.0396 275.962 16.7533 285.262C17.4122 294.495 17.8514 303.795 18.2357 313.028C18.9495 331.698 19.2789 350.367 20.0475 369.037C20.8162 387.639 21.0907 406.309 21.9692 424.91C22.8476 443.238 24.33 461.566 26.4164 479.757C26.636 481.945 29.3262 480.988 29.0517 478.868C26.5262 456.573 24.9889 434.211 24.1653 411.78C23.7261 400.701 23.781 389.622 23.232 378.543C22.628 367.396 22.2986 356.18 21.9692 345.033C21.3103 322.876 20.8162 300.786 19.0044 278.697C18.071 267.687 16.8082 256.745 16.4239 245.666C16.0396 234.861 16.3141 224.055 16.7533 213.25C17.4671 195.674 18.8397 178.099 19.4985 160.523C20.2123 142.195 19.6083 123.936 19.2789 105.608C18.675 70.9352 18.5652 36.331 20.377 1.72679C20.4319 -0.59839 17.6867 -0.530007 17.5769 1.6584Z" fill="#FFCE33"/>
    <path d="M807.253 1.6584C805.002 43.5801 805.825 85.5701 806.539 127.56C806.923 149.376 805.935 170.918 804.672 192.665C803.409 214.207 802.421 235.886 803.904 257.428C804.562 266.729 805.715 275.962 806.429 285.262C807.088 294.495 807.527 303.795 807.912 313.028C808.625 331.698 808.955 350.367 809.723 369.037C810.492 387.639 810.766 406.309 811.645 424.91C812.523 443.238 814.006 461.566 816.092 479.757C816.312 481.945 819.002 480.988 818.728 478.868C816.202 456.573 814.665 434.211 813.841 411.78C813.402 400.701 813.457 389.622 812.908 378.543C812.304 367.396 811.974 356.18 811.645 345.033C810.986 322.876 810.492 300.786 808.68 278.697C807.747 267.687 806.484 256.745 806.1 245.666C805.715 234.861 805.99 224.055 806.429 213.25C807.143 195.674 808.515 178.099 809.174 160.523C809.888 142.195 809.284 123.936 808.955 105.608C808.351 70.9352 808.241 36.331 810.053 1.72679C810.108 -0.59839 807.362 -0.530007 807.253 1.6584Z" fill="#FFCE33"/>
    <path d="M757.385 306.208C759.535 304.774 760.578 301.125 760.187 298.909C759.731 296.497 757.841 293.891 755.495 292.978C756.211 292.392 756.863 291.545 757.254 290.828C758.232 289.068 758.492 286.918 757.841 285.028C756.994 282.616 754.517 280.922 751.975 280.661C753.865 278.38 754.387 275.187 752.432 272.515C750.802 270.299 748.065 269.648 745.654 270.364C747.023 267.302 746.501 263.587 743.894 261.045C741.222 258.438 738.159 259.611 735.748 261.762C735.813 261.241 735.813 260.719 735.813 260.328C735.748 257.917 734.314 255.897 732.034 254.984C729.622 254.072 727.276 254.724 725.517 256.157C725.582 254.724 725.321 253.29 724.539 251.921C723.366 249.901 721.281 248.728 718.934 249.054C713.134 249.836 711.831 256.679 713.004 261.436C713.2 262.283 714.568 262.088 714.568 261.176C714.373 257.656 713.982 253.095 717.957 251.4C720.042 250.553 721.997 251.4 722.845 253.486C723.757 255.636 723.04 257.917 722.388 260.068C722.193 260.654 722.454 261.045 722.845 261.241C722.845 261.436 722.779 261.632 722.779 261.892C722.779 262.74 724.083 262.87 724.278 262.023C724.93 258.829 727.472 255.375 731.186 257.005C734.249 258.308 733.793 263.261 731.968 265.412C731.577 265.803 731.577 266.454 731.968 266.91L732.034 266.976C732.359 267.301 733.076 267.432 733.467 267.106C733.989 266.715 734.38 266.063 734.705 265.281C736.791 262.935 740.115 260.002 742.526 263.065C744.676 265.737 744.155 269.322 741.744 271.603C740.897 272.385 741.744 273.558 742.656 273.493C742.917 273.623 743.308 273.688 743.634 273.362C745.654 271.407 749.238 271.407 750.672 274.014C752.366 277.012 750.151 279.097 748 280.792C747.674 281.052 747.544 281.443 747.544 281.769C747.218 282.356 747.674 283.203 748.456 282.942C751.128 282.03 754.713 282.682 755.625 285.81C756.016 287.113 755.755 288.547 755.038 289.72C754.256 290.958 752.953 291.284 752.171 292.327C752.041 292.522 751.975 292.718 751.975 292.913C751.845 292.978 751.78 292.978 751.65 293.043C750.737 293.5 751.454 294.673 752.301 294.542C755.299 294.021 757.776 297.019 757.841 299.886C757.841 301.19 757.45 302.493 756.472 303.405C755.755 304.057 754.778 304.187 753.996 304.709C753.865 304.774 753.8 304.904 753.735 305.035C753.67 305.035 753.67 305.035 753.605 305.035C752.627 304.97 752.497 306.534 753.474 306.729C756.016 307.185 758.362 308.945 758.688 311.682C759.079 314.484 757.385 316.505 755.104 317.808C754.061 318.394 754.843 320.219 756.016 319.828C762.663 317.482 762.272 309.206 757.385 306.208Z" fill="#444138"/>
    <path d="M783.843 416.475C782.605 414.454 780.259 413.542 778.174 413.933C779.282 411.066 779.607 407.938 777.718 405.2C775.958 402.724 773.612 402.333 771.201 402.985C771.526 401.942 771.722 400.899 771.787 399.987C771.983 397.901 771.331 395.751 769.767 394.317C767.812 392.623 765.466 392.362 763.25 392.949C765.205 389.69 766.052 385.324 763.576 383.043C759.926 379.654 753.214 380.631 750.281 384.476C749.76 385.128 750.542 386.366 751.324 385.715C754.126 383.499 758.558 381.674 761.816 384.411C765.205 387.279 760.057 392.492 758.753 395.164C758.688 395.295 758.688 395.49 758.688 395.62C758.623 395.686 758.492 395.816 758.427 395.881C757.776 396.533 758.688 397.706 759.47 397.119C761.946 395.164 766.052 393.34 768.594 396.272C771.005 399.074 768.333 401.746 768.072 404.614C768.007 404.809 768.007 405.005 768.072 405.135C768.072 405.787 768.92 406.243 769.441 405.852C769.637 405.722 769.832 405.526 770.028 405.331C772.83 404.223 775.762 404.484 776.74 408.003C777.457 410.805 776.023 413.607 774.72 416.019C773.938 417.387 776.153 418.495 776.87 417.126C777.001 416.866 777.196 416.605 777.326 416.279C779.412 414.715 782.149 416.41 782.736 418.886C783.322 421.558 781.693 423.318 780.064 425.142C779.216 426.055 780.389 427.228 781.367 426.772C784.821 425.273 785.864 419.733 783.843 416.475Z" fill="#444138"/>
    <path d="M800.136 417.648C799.614 416.605 797.985 416.214 796.877 416.214C795.704 416.149 794.596 416.605 793.814 417.452C792.706 418.625 792.446 420.189 792.641 421.754C791.468 420.972 789.904 420.841 788.535 421.363C786.059 422.405 785.016 425.729 785.798 428.205C786.059 429.053 787.232 428.792 787.297 427.945C787.428 426.381 787.428 424.36 788.992 423.383C790.034 422.731 791.729 423.057 792.055 424.36C792.25 425.273 793.293 425.338 793.879 424.882C794.336 425.142 795.118 424.817 795.052 424.165C794.857 422.536 794.075 420.646 795.118 419.147C796.356 417.192 797.92 419.147 799.484 418.951C800.07 418.886 800.461 418.234 800.136 417.648Z" fill="#444138"/>
    <path d="M744.416 454.403C743.047 457.727 740.896 460.269 738.224 462.159C733.988 462.55 729.687 462.745 725.451 462.745C721.737 462.745 717.24 462.159 714.503 459.422C703.098 458.183 693.518 449.125 689.803 438.372C685.502 425.924 688.305 412.239 693.844 400.704C694.105 400.182 694.365 399.596 694.626 399.074C696.19 397.901 697.819 396.859 699.514 395.946C706.943 391.841 715.285 391.45 723.04 395.034C736.986 401.486 744.285 418.039 746.175 432.506C747.153 439.61 747.218 447.561 744.416 454.403Z" fill="#F7AB51"/>
    <path d="M799.81 416.214C795.639 424.947 785.473 428.727 777.848 429.639C776.87 429.769 776.284 430.356 775.958 431.073C775.567 431.529 775.371 432.181 775.502 432.963C776.088 436.091 776.218 439.219 775.762 442.347C775.502 443.976 776.805 444.954 778.043 444.954C778.369 445.41 778.956 445.736 779.803 445.606C792.25 443.455 798.832 431.138 802.091 420.059C802.286 419.538 802.417 418.951 802.547 418.43C803.199 415.367 801.048 413.607 799.81 416.214Z" fill="#F7AB51"/>
    <path d="M774.133 452.188C773.612 452.448 763.641 460.986 743.112 461.637C741.483 461.702 739.854 462.028 738.159 462.159C733.923 462.55 729.622 462.745 725.386 462.745C721.672 462.745 693.518 449.125 689.804 438.372C685.502 425.924 688.305 412.239 693.844 400.704C694.105 400.182 694.365 399.596 694.626 399.075C700.491 387.605 708.898 377.764 716.523 367.467C724.409 356.845 731.838 344.919 733.467 331.494C734.249 324.716 733.402 317.612 731.968 310.965C731.382 308.098 730.6 305.23 729.362 302.558C729.166 302.102 728.905 301.646 728.71 301.19C728.71 301.19 728.71 301.19 728.71 301.125C728.189 301.907 727.667 302.623 727.081 303.405C723.692 307.837 719.521 311.682 714.894 314.68C709.876 317.938 703.75 320.936 697.624 320.675C686.024 320.154 679.637 308.163 680.68 297.605C681.853 286.136 688.891 274.666 697.624 267.302C706.096 260.198 717.045 257.265 727.667 261.045C752.432 269.843 756.342 299.691 755.886 322.37C755.755 329.408 755.104 336.381 753.996 343.354C752.888 350.132 751.454 356.91 750.607 363.753C750.02 368.705 749.76 373.789 750.216 378.676C752.106 383.825 755.104 388.582 758.427 393.079C762.989 397.967 768.138 402.268 772.308 407.547C773.677 409.241 781.758 418.495 783.192 432.507C784.169 440.262 781.628 448.669 774.133 452.188Z" fill="#FCD149"/>
    <path d="M744.416 454.403C743.047 457.727 740.897 460.269 738.225 462.159C733.989 462.55 729.688 463.006 725.451 462.745C704.532 461.246 693.584 449.125 689.869 438.372C685.568 425.924 688.37 412.239 693.909 400.704C694.17 400.182 694.431 399.596 694.691 399.074C696.255 397.901 697.885 396.859 699.579 395.946C707.008 391.841 715.35 391.45 723.105 395.034C737.052 401.486 744.351 418.039 746.241 432.506C747.153 439.61 747.218 447.561 744.416 454.403Z" fill="#F7AB51"/>
    <path d="M744.416 454.403C743.047 457.727 740.897 460.269 738.225 462.159C733.989 462.55 729.688 463.006 725.452 462.745C721.737 462.485 718.348 461.898 715.285 460.986C707.791 458.9 701.991 455.251 697.82 450.95C696.125 449.255 694.692 447.43 693.453 445.54C693.193 444.824 692.997 444.107 692.737 443.455C692.802 443.194 692.802 442.868 692.606 442.608C690.977 439.61 689.804 436.612 689.087 433.289C690.065 432.507 689.217 430.942 688.175 431.399C686.676 420.971 689.348 410.153 693.91 400.769C694.17 400.248 694.431 399.661 694.692 399.14C696.256 397.967 697.885 396.924 699.579 396.012C707.009 391.906 715.35 391.515 723.106 395.099C737.052 401.551 744.351 418.104 746.241 432.572C747.153 439.61 747.218 447.561 744.416 454.403Z" fill="#F7AB51"/>
    <path d="M696.777 395.229C696.972 395.36 697.102 395.555 697.233 395.62C697.559 395.946 697.95 396.272 698.275 396.663C699.383 397.706 700.556 398.749 701.795 399.661C705.379 402.398 709.419 404.027 713.981 404.093C718.217 404.158 722.779 403.506 726.82 402.333C728.384 401.877 729.883 401.355 731.251 400.573C731.316 400.508 731.447 400.443 731.512 400.378C733.141 399.4 734.054 398.032 735.422 396.663C735.943 396.142 736.791 396.403 736.595 397.185C736.139 399.14 734.51 400.704 732.685 401.877C730.925 402.985 728.84 403.767 727.211 404.223C722.453 405.591 717.044 406.504 712.026 406.178C706.878 405.852 702.316 403.376 698.471 400.117C697.624 399.4 696.842 398.683 696.06 397.967C695.864 397.771 695.669 397.576 695.473 397.38L696.777 395.229Z" fill="#FCD149"/>
    <path d="M690.39 409.436C694.822 415.171 701.599 419.147 708.703 420.255C714.959 421.232 722.063 420.189 727.993 418.104C732.294 416.605 736.335 413.933 738.746 410.088C739.398 409.045 739.919 407.938 740.31 406.699C740.636 405.591 739.137 405.591 738.811 406.504C738.55 407.221 738.225 407.872 737.834 408.524C735.227 412.956 730.404 415.562 725.386 416.801C719.847 418.234 713.786 419.016 708.116 417.843C701.143 416.41 695.408 412.174 691.433 406.504L690.39 409.436Z" fill="#FCD149"/>
    <path d="M687.784 427.554C689.804 429.574 691.955 431.399 694.105 433.093C698.341 436.417 703.099 438.632 708.442 439.349C718.609 440.653 729.688 437.134 737.964 431.268C740.571 429.444 742.917 427.228 744.677 424.621C745.85 422.927 746.697 421.037 747.218 419.016C747.479 417.909 745.98 417.909 745.719 418.821C745.328 420.124 744.742 421.363 744.09 422.47C741.809 426.315 738.29 429.183 734.38 431.399C729.036 434.462 722.91 436.547 716.784 437.134C710.463 437.785 704.141 436.612 698.732 433.223C694.561 430.617 691.238 427.032 687.849 423.578L687.784 427.554Z" fill="#FCD149"/>
    <path d="M694.431 447.105H694.496C696.451 448.017 698.341 448.864 700.231 449.646C702.772 450.689 705.444 451.536 708.247 452.057C713.395 452.905 718.804 452.774 723.887 451.601C733.207 449.32 740.962 443.52 746.501 435.895C746.827 435.439 747.153 434.918 747.479 434.462C748.065 433.614 749.369 434.071 748.847 435.048C748.196 436.221 747.479 437.394 746.632 438.502C741.288 445.866 733.076 451.275 724.409 453.621C718.934 455.055 713.134 455.316 707.53 454.404C707.399 454.404 707.334 454.338 707.204 454.338C704.402 453.817 701.469 453.1 698.732 451.927C698.732 451.927 698.667 451.927 698.667 451.862L694.431 447.105Z" fill="#FCD149"/>
    <path d="M706.683 277.729C706.096 278.641 705.51 279.553 704.662 280.335C704.011 280.922 701.86 282.486 701.143 281.313C700.687 280.596 700.948 279.097 701.208 278.38C701.534 277.272 702.186 276.36 703.098 275.578C703.685 275.122 702.838 274.079 702.251 274.535C701.013 275.513 700.1 276.816 699.709 278.446C699.384 279.684 699.253 281.769 700.296 282.747C701.339 283.724 703.229 283.073 704.336 282.486C705.966 281.574 707.139 280.01 708.116 278.446C708.703 277.663 707.204 276.881 706.683 277.729Z" fill="#444138"/>
    <path d="M717.566 284.897C716.588 286.266 715.871 288.808 713.721 288.677C710.984 288.482 712.417 284.05 713.069 282.616C713.395 281.834 712.352 281.248 711.896 281.965C710.528 284.05 709.55 288.808 712.613 290.046C715.546 291.154 718.218 288.156 718.869 285.549C719 284.897 718.022 284.311 717.566 284.897Z" fill="#444138"/>
    <path d="M699.84 290.306C699.775 290.241 699.709 290.176 699.579 290.176C699.514 290.176 699.449 290.176 699.449 290.176C699.384 290.176 699.384 290.176 699.318 290.176C698.732 290.176 698.211 290.632 698.145 291.219V291.284C698.08 291.675 698.08 292.066 698.276 292.392C698.406 292.718 698.993 292.848 699.253 292.587C699.84 292.131 700.166 291.479 700.166 290.763C700.101 290.567 699.97 290.372 699.84 290.306Z" fill="#444138"/>
    <path d="M703.033 292.652C702.903 292.652 702.773 292.718 702.642 292.783C702.512 292.848 702.447 292.848 702.316 292.978C701.73 293.5 701.404 294.217 701.469 294.999C701.469 295.52 702.056 295.846 702.512 295.585C703.359 295.129 703.815 294.282 703.88 293.304C703.946 292.783 703.424 292.587 703.033 292.652Z" fill="#444138"/>
    <path d="M700.036 313.702C700.296 313.376 700.427 312.985 700.492 312.529C700.492 312.138 700.036 311.682 699.644 311.747C698.276 311.943 697.429 313.181 695.93 313.311C693.844 313.442 692.411 312.008 691.629 310.248C691.172 309.206 689.739 309.662 689.934 310.77C690.325 312.92 692.02 314.615 694.105 315.201C694.561 315.397 695.083 315.527 695.604 315.592C697.168 315.723 699.319 315.136 700.036 313.702Z" fill="#444138"/>
    <path d="M749.304 397.576C744.351 395.49 741.548 402.854 739.007 405.592C735.162 409.697 728.254 413.933 722.323 412.695C723.301 410.544 724.148 407.742 722.649 406.113C722.258 405.657 721.802 405.526 721.411 405.526C721.476 404.158 721.085 402.92 719.912 402.463C719.195 402.203 718.544 402.333 718.022 402.724C717.761 401.551 717.175 400.573 716.132 400.182C713.33 399.27 712.483 402.789 712.287 404.744C711.636 411.066 714.829 417.387 719.847 421.167C719.977 421.232 720.108 421.297 720.238 421.363C725.256 423.448 731.447 422.145 736.335 420.19C741.288 418.169 745.589 414.911 748.456 410.414C750.216 407.547 754.126 399.596 749.304 397.576Z" fill="#444138"/>
    <path d="M712.222 406.308C711.961 404.744 711.766 402.268 710.397 401.225C709.485 400.508 708.182 400.769 707.66 401.877C707.334 402.528 707.269 403.245 707.4 404.027C706.813 403.767 706.031 403.832 705.705 404.484C705.51 405.005 705.314 405.461 705.184 405.982C704.988 405.852 704.728 405.722 704.467 405.591C703.489 405.07 702.512 406.048 702.773 407.025C703.164 408.654 704.467 409.958 704.728 411.522C704.988 412.956 704.076 413.868 702.642 413.021C701.665 412.434 701.013 411.066 700.622 409.958C699.319 406.764 699.123 403.115 697.494 400.052C696.125 397.315 693.062 396.207 690.586 398.423C688.37 400.378 687.653 403.962 687.718 406.764C687.849 413.281 692.345 418.886 698.667 420.515C701.665 421.297 705.053 421.232 707.856 419.864C710.854 418.43 712.157 415.628 712.418 412.499C712.678 410.414 712.548 408.329 712.222 406.308ZM695.017 400.443C695.017 400.508 695.083 400.508 695.083 400.573C695.539 401.29 695.93 402.072 696.19 402.919C695.865 402.007 695.474 401.225 695.017 400.443Z" fill="#444138"/>
    <path d="M769.441 439.284C767.16 438.046 763.771 438.633 761.881 440.327C759.6 442.412 759.926 445.606 759.796 448.408C759.665 450.493 759.144 452.514 758.036 454.208C757.971 454.273 757.906 454.273 757.841 454.404C755.755 456.489 752.822 456.098 750.151 455.772C747.739 455.446 745.328 455.316 742.852 455.446C738.029 455.707 733.206 456.88 728.84 458.9C724.604 460.79 719.847 463.527 717.761 467.894C716.132 471.413 715.871 476.952 718.934 479.885C720.368 481.253 721.671 481.514 722.975 479.885C723.431 479.298 723.496 478.777 723.561 478.06C724.474 478.451 725.516 479.168 726.559 478.647C727.797 477.995 727.862 476.692 727.732 475.649C728.905 475.649 729.557 475.453 730.143 474.476C731.382 472.26 730.078 470.044 728.319 468.48C733.141 463.071 741.157 462.419 746.957 462.485C750.933 462.55 754.712 463.267 758.557 464.049C761.229 464.57 764.227 464.831 766.638 463.332C768.985 461.833 770.027 459.031 770.744 456.424C771.656 453.035 772.243 449.386 772.308 445.866C772.373 443.325 771.787 440.522 769.441 439.284Z" fill="#444138"/>
    <path d="M715.089 477.083C713.656 477.474 712.287 475.975 711.896 475.193C711.766 475.519 711.701 475.91 711.57 476.235C711.179 477.278 710.658 478.647 709.224 478.386C708.116 478.19 707.725 476.952 707.53 475.975C707.139 476.366 706.617 476.626 706.031 476.626C703.75 476.561 703.424 473.954 704.206 472.325C704.858 470.957 705.379 469.914 705.053 468.35C704.793 466.981 704.011 465.743 703.033 464.766C701.143 462.941 698.536 462.028 696.06 461.246C691.433 459.813 687.197 458.249 684.134 454.273C678.725 447.17 680.289 436.352 687.914 431.464C687.979 431.399 688.044 431.399 688.109 431.333C688.435 433.68 689.022 436.026 689.804 438.307C690.651 440.653 691.824 443.129 693.388 445.475C693.779 446.714 695.995 449.19 697.754 450.884C698.341 451.471 699.253 451.536 699.97 451.797C703.554 452.97 707.465 453.361 710.593 455.642C712.548 457.076 714.112 458.9 715.22 460.986C717.827 465.873 718.152 476.235 715.089 477.083Z" fill="#444138"/>
    <path d="M749.173 298.713C749.238 298.127 749.173 297.54 749.108 297.084C748.652 295.064 746.11 291.74 744.155 294.347C744.09 294.412 744.09 294.477 744.025 294.542C743.894 294.607 743.764 294.673 743.699 294.738C742.786 295.39 743.047 296.693 743.308 297.67C743.373 299.3 743.959 300.929 745.002 301.841C745.915 302.558 747.348 302.689 748.326 301.906C749.173 301.19 749.303 299.886 749.173 298.713Z" fill="#FCFFFE"/>
    <path d="M739.137 278.902C737.312 278.771 736.986 280.857 737.573 282.225C737.638 282.877 737.834 283.464 738.094 283.985C738.551 284.702 739.267 285.353 740.18 285.158C741.157 284.962 741.483 283.855 741.548 282.942C741.679 281.443 740.962 279.032 739.137 278.902Z" fill="#FCFFFE"/>
    <path d="M750.346 323.152V323.087C750.346 322.37 750.281 321.718 750.216 321.001C750.15 320.219 749.238 319.633 748.521 320.089C747.348 320.871 746.566 322.435 746.566 323.869C746.501 324.064 746.566 324.26 746.631 324.455C746.762 325.042 747.022 325.628 747.478 326.085C748.456 326.997 749.825 326.541 750.15 325.303C750.346 324.586 750.411 323.869 750.346 323.152Z" fill="#FCFFFE"/>
    <path d="M743.699 310.444C743.308 309.792 742.721 309.466 742.069 309.531C741.613 309.466 741.092 309.662 740.896 310.183C740.31 310.9 740.571 311.812 740.245 312.725C740.114 313.181 740.375 313.572 740.701 313.767C740.701 314.028 740.766 314.224 740.766 314.484C740.831 315.071 741.222 315.527 741.874 315.527C744.611 315.527 744.676 312.203 743.699 310.444Z" fill="#FCFFFE"/>
    <path d="M751.324 307.967C751.259 307.967 751.259 307.967 751.324 307.967C751.063 307.12 749.76 306.86 749.369 307.772C748.913 308.749 749.108 309.922 749.955 310.639C750.412 311.03 750.998 310.965 751.389 310.574C752.106 309.857 752.041 308.619 751.324 307.967Z" fill="#FCFFFE"/>
    <path d="M739.528 291.219C739.333 290.632 738.876 290.306 738.355 289.981C738.094 289.785 737.703 289.85 737.443 289.981C737.117 290.111 736.987 290.372 736.856 290.697C736.791 290.958 736.791 291.284 736.856 291.61C736.726 291.936 736.791 292.392 737.052 292.718C737.573 293.435 738.551 293.565 739.137 292.978C739.593 292.457 739.724 291.805 739.528 291.219Z" fill="#FCFFFE"/>
    <path d="M736.4 375.613C735.683 375.092 734.706 375.418 734.184 376.004L734.119 376.07C734.054 376.135 734.054 376.135 733.989 376.2C733.337 376.852 733.141 377.699 733.337 378.481C733.337 378.546 733.337 378.676 733.402 378.742C733.532 379.263 733.793 379.784 734.119 380.175C734.51 380.631 735.227 380.501 735.618 380.11C736.204 379.524 736.661 378.742 736.856 377.96C737.052 377.177 737.182 376.135 736.4 375.613Z" fill="#FCFFFE"/>
    <path d="M744.676 367.793C743.894 366.685 742.461 366.75 741.483 367.467C740.115 368.51 740.375 370.27 740.831 371.703C740.897 371.964 741.027 372.159 741.222 372.225C741.679 373.724 742.526 374.897 743.894 374.18C745.849 373.202 745.784 369.422 744.676 367.793Z" fill="#FCFFFE"/>
    <path d="M742.33 386.366C741.744 386.041 741.092 386.041 740.44 386.236C740.18 386.301 739.919 386.432 739.724 386.562C739.463 386.757 739.267 387.083 739.137 387.344C739.137 387.409 739.072 387.474 739.072 387.539C739.072 387.605 739.007 387.605 739.007 387.67C738.941 387.8 738.941 387.865 738.941 387.996V388.061C738.941 388.126 738.876 388.256 738.876 388.387C738.876 388.452 738.876 388.452 738.876 388.517C738.811 389.104 738.941 389.69 739.137 390.277C739.463 391.319 740.375 392.753 741.679 392.036C742.2 391.775 742.461 391.254 742.656 390.668C742.982 390.342 743.178 389.886 743.308 389.429C743.503 388.387 743.373 386.953 742.33 386.366Z" fill="#FCFFFE"/>
    <path d="M756.863 414.129C756.798 414.194 756.798 414.194 756.732 414.194C756.798 414.194 756.863 414.129 756.863 414.129Z" fill="#FCFFFE"/>
    <path d="M759.209 413.281C759.079 413.086 759.013 412.956 758.883 412.76C758.557 412.043 757.971 411.392 757.254 411.196C756.602 410.805 755.885 410.609 755.168 410.87C754.191 411.261 753.93 412.174 753.93 413.086C753.279 414.78 753.8 416.931 755.494 417.713C756.667 418.234 758.166 417.974 759.079 417.061C760.121 416.084 759.991 414.52 759.209 413.281Z" fill="#FCFFFE"/>
    <path d="M766.508 419.929C764.684 419.994 763.836 422.275 765.075 423.578C765.075 423.578 765.075 423.578 765.14 423.643C765.205 423.904 765.205 424.1 765.335 424.295C765.661 425.077 766.248 425.924 767.225 425.924C768.268 425.924 768.855 425.012 769.18 424.165C769.702 422.21 768.724 419.798 766.508 419.929Z" fill="#FCFFFE"/>
    <path d="M756.994 426.902C755.625 427.163 755.169 428.466 755.299 429.704C755.299 430.356 755.429 431.008 755.69 431.529C756.146 432.441 757.189 432.832 758.167 432.441C759.079 432.05 759.535 431.138 759.665 430.226C759.861 428.596 758.818 426.576 756.994 426.902Z" fill="#FCFFFE"/>
    <path d="M771.526 431.399C771.201 430.942 770.744 430.747 770.223 430.551C769.832 430.421 769.18 430.682 769.05 431.138C768.724 431.855 768.463 432.767 768.92 433.549C769.311 434.201 770.028 434.592 770.744 434.396C771.526 434.201 771.852 433.484 771.787 432.832C771.852 432.311 771.787 431.79 771.526 431.399Z" fill="#FCFFFE"/>
    <path d="M723.04 301.059C721.737 299.821 719.586 299.626 718.152 300.734C716.197 301.255 715.415 303.471 715.806 305.295C716.262 307.381 717.892 309.336 720.042 309.727C722.063 310.118 724.083 308.945 724.669 306.925C725.256 304.904 724.539 302.428 723.04 301.059ZM720.759 307.12C719.521 307.316 719 305.686 718.934 304.774C718.869 304.253 718.934 303.471 719.195 302.949C719.325 303.014 719.391 303.08 719.521 303.145C719.13 303.797 719.195 304.709 719.456 305.426C719.782 306.403 721.15 306.208 721.281 305.361C721.346 305.361 721.411 305.361 721.476 305.361C721.737 306.012 721.606 306.99 720.759 307.12Z" fill="#EC6633"/>
    <path d="M690.26 282.812C689.347 280.531 686.675 279.293 684.264 279.749C681.918 280.205 680.615 282.095 681.723 284.311C682.179 285.223 682.896 286.201 683.743 286.918C684.655 287.96 686.089 288.547 687.523 288.221C689.999 287.569 691.172 285.028 690.26 282.812Z" fill="#EC6633"/>
    <path d="M734.445 289.915C734.054 294.282 732.034 299.039 729.362 302.493C729.166 302.037 728.905 301.581 728.71 301.124C729.622 299.56 730.6 297.996 731.317 296.367C732.294 294.216 732.881 292.001 733.598 289.785C733.728 289.394 734.51 289.394 734.445 289.915Z" fill="#EF8E39"/>
    <path d="M749.825 388.517C749.694 388.387 749.499 388.321 749.303 388.321C748.978 388.256 748.587 388.452 748.456 388.712C748.261 389.234 748.065 389.755 748.391 390.277C748.652 390.733 749.173 390.993 749.694 390.863C750.216 390.733 750.477 390.211 750.477 389.69C750.477 389.234 750.151 388.843 749.825 388.517Z" fill="#FCFFFE"/>
    <path d="M731.838 386.562C731.708 386.497 731.577 386.497 731.447 386.497C731.382 386.497 731.317 386.497 731.252 386.497C730.926 386.497 730.6 386.758 730.535 387.083C730.47 387.67 730.665 388.256 731.121 388.647C731.577 389.104 732.229 388.778 732.425 388.256C732.75 387.605 732.425 386.953 731.838 386.562Z" fill="#FCFFFE"/>
    <path d="M745.328 355.15C745.002 355.085 744.611 355.281 744.481 355.606C744.481 355.672 744.481 355.737 744.481 355.802C744.285 356.258 744.416 356.779 744.807 357.17C745.133 357.496 745.589 357.431 745.915 357.105C746.566 356.519 746.11 355.346 745.328 355.15Z" fill="#FCFFFE"/>
    <path d="M737.638 365.903C737.377 365.512 736.726 365.382 736.4 365.773C736.204 366.034 736.074 366.294 736.009 366.555C735.879 366.75 735.879 367.011 735.944 367.207C736.009 367.402 736.074 367.532 736.204 367.663C736.335 367.858 736.53 367.923 736.726 367.923C737.117 367.989 737.443 367.793 737.573 367.467C737.964 367.011 737.899 366.425 737.638 365.903Z" fill="#FCFFFE"/>
    <path d="M767.551 411.326C767.225 411.066 766.704 411.131 766.443 411.522C766.182 411.913 766.378 412.565 766.704 412.89C767.03 413.216 767.486 413.347 767.942 413.216C768.268 413.151 768.528 412.76 768.463 412.499C768.463 411.978 768.203 411.457 767.551 411.326Z" fill="#FCFFFE"/>
    <path d="M778.369 426.25C778.304 426.12 778.304 425.99 778.239 425.859C778.109 425.468 777.913 425.142 777.587 424.947C777.066 424.621 776.544 425.012 776.414 425.468C776.284 425.859 776.284 426.315 776.414 426.706C776.479 426.837 776.479 426.967 776.545 427.097C776.61 427.228 776.675 427.293 776.74 427.358C776.805 427.423 776.87 427.554 777.001 427.619C777.327 427.879 777.783 427.879 778.109 427.554C778.369 427.293 778.5 426.772 778.369 426.25Z" fill="#FCFFFE"/>
    <path d="M687.522 303.405C685.372 302.688 683.091 302.167 680.81 301.906C679.702 301.776 678.529 301.711 677.421 301.841C676.313 301.972 675.205 302.297 674.423 303.079C673.707 303.862 673.576 305.035 673.772 306.142C673.967 307.25 674.358 308.293 674.88 309.336C675.14 309.792 675.466 310.248 675.922 310.248C676.378 310.313 676.835 309.922 677.095 309.466C677.682 308.619 677.747 307.316 676.965 306.533C676.574 306.142 676.118 305.947 675.531 305.817C675.01 305.686 674.423 305.686 673.837 305.686C672.729 305.751 671.556 305.947 670.578 306.533C669.601 307.12 668.819 307.967 668.232 308.945C667.646 309.922 667.19 310.965 666.864 312.073C666.147 314.289 665.821 316.57 665.626 318.851C665.43 321.131 665.43 323.478 665.43 325.759C665.56 330.386 665.951 335.013 666.538 339.574C667.124 344.202 667.841 348.763 668.688 353.325C670.383 362.449 672.468 371.508 674.814 380.436C672.403 371.508 670.253 362.449 668.558 353.325C667.711 348.763 666.929 344.202 666.277 339.574C665.691 334.947 665.234 330.32 665.039 325.693C664.974 323.347 664.974 321.066 665.169 318.72C665.365 316.374 665.691 314.093 666.342 311.812C666.668 310.704 667.124 309.596 667.776 308.619C668.428 307.641 669.21 306.729 670.253 306.077C670.774 305.751 671.36 305.556 671.882 305.426C672.468 305.295 673.055 305.23 673.641 305.165C674.228 305.1 674.814 305.165 675.401 305.295C675.987 305.426 676.574 305.686 677.03 306.142C677.486 306.599 677.747 307.25 677.747 307.902C677.747 308.554 677.552 309.14 677.226 309.662C677.03 309.922 676.835 310.183 676.574 310.378C676.313 310.574 675.987 310.704 675.596 310.704C675.205 310.704 674.88 310.509 674.684 310.248C674.423 310.053 674.293 309.727 674.098 309.466C673.576 308.423 673.12 307.316 672.925 306.142C672.794 305.556 672.794 304.904 672.859 304.318C672.99 303.731 673.25 303.08 673.641 302.623C674.554 301.646 675.792 301.385 676.965 301.19C678.138 301.059 679.311 301.124 680.484 301.255C682.83 301.515 685.111 302.037 687.327 302.754L687.522 303.405Z" fill="#0B2121"/>
    <path d="M704.923 306.142C707.204 307.055 709.419 308.098 711.57 309.205C712.678 309.727 713.721 310.313 714.763 310.965C715.285 311.291 715.806 311.617 716.327 312.008C716.849 312.399 717.305 312.79 717.696 313.311C717.892 313.572 718.087 313.963 717.957 314.419C717.761 314.875 717.435 315.006 717.11 315.136C716.458 315.397 715.871 315.462 715.22 315.527C714.894 315.527 714.568 315.527 714.242 315.462C714.047 315.397 713.916 315.397 713.721 315.266C713.525 315.136 713.395 314.94 713.33 314.745C713.265 314.354 713.395 313.963 713.525 313.702C713.656 313.441 713.851 313.181 714.112 312.92C714.959 312.008 716.002 311.291 717.175 310.77C717.761 310.509 718.348 310.378 718.999 310.378C719.651 310.378 720.303 310.574 720.824 311.03C721.346 311.486 721.606 312.073 721.802 312.659C721.997 313.246 722.062 313.832 722.193 314.484C722.323 315.722 722.388 316.961 722.323 318.134C722.193 320.545 721.802 322.956 721.346 325.367C720.368 330.125 718.934 334.752 717.37 339.379C714.177 348.568 710.397 357.496 706.422 366.359C702.381 375.222 698.145 383.955 693.648 392.557C698.08 383.955 702.316 375.157 706.291 366.359C710.267 357.496 713.981 348.503 717.11 339.314C718.674 334.752 720.042 330.06 721.02 325.302C721.476 322.956 721.867 320.545 721.997 318.134C722.062 316.961 721.997 315.722 721.867 314.549C721.802 313.963 721.671 313.376 721.476 312.79C721.346 312.203 721.085 311.682 720.629 311.356C720.238 310.965 719.651 310.835 719.065 310.835C718.478 310.835 717.892 311.03 717.37 311.226C716.262 311.682 715.285 312.399 714.503 313.246C714.307 313.441 714.112 313.702 714.047 313.963C713.916 314.223 713.851 314.484 713.916 314.68C713.981 314.875 714.112 314.94 714.438 315.006C714.698 315.071 714.959 315.071 715.285 315.006C715.871 314.94 716.458 314.81 716.979 314.615C717.24 314.484 717.435 314.354 717.501 314.223C717.566 314.093 717.501 313.832 717.305 313.637C716.979 313.181 716.523 312.79 716.067 312.464C715.611 312.138 715.089 311.812 714.568 311.486C713.525 310.9 712.482 310.313 711.375 309.792C709.224 308.749 707.008 307.707 704.727 306.794L704.923 306.142Z" fill="#0B2121"/>
    <path d="M4.81065 72.2357C8.10104 63.2611 18.3594 60.0701 26.5854 58.4747C28.1338 58.1755 29.7789 58.0758 31.3274 58.2752C29.5854 54.0871 29.1983 50.2978 28.908 45.8105C28.6176 41.8218 31.4242 37.7334 34.3275 35.3402C37.7146 32.5481 41.6824 31.4512 45.8438 31.0523C54.2634 30.454 61.812 35.041 66.4573 42.121C66.9412 42.819 67.3282 43.7164 67.7154 44.6139C69.7477 44.1153 71.6832 43.7164 73.8123 43.517C76.3284 43.2179 78.9414 44.9131 81.1672 45.9102C85.0383 47.6054 88.8126 53.3891 90.1675 57.3778C90.8449 59.2724 91.0384 61.5659 90.8449 63.66C95.1998 63.7597 99.7484 65.2555 102.748 67.549C106.039 70.0419 107.684 73.7315 107.974 77.8199C108.361 82.4069 104.297 85.9967 100.619 87.5922C91.7159 91.5809 81.8447 89.3871 72.5542 89.4868C68.7799 89.5866 65.1991 88.8885 61.5216 88.6891C56.586 88.4897 51.6504 88.7888 46.7148 88.9883C42.0696 89.1877 37.5211 89.088 32.9726 89.3871C27.9402 89.5866 23.6821 88.8885 18.8432 87.6919C14.9722 86.6947 10.5204 86.1962 7.32681 83.6035C3.84286 80.7117 3.26222 76.4238 4.81065 72.2357Z" fill="#BEDCE3"/>
    <path d="M143.673 87.7158C142.4 84.4134 138.53 83.2223 135.389 82.6539C134.794 82.5456 134.171 82.5185 133.576 82.5727C134.253 81.0297 134.388 79.6492 134.523 77.9709C134.632 76.4821 133.576 74.9933 132.466 74.1C131.194 73.0984 129.678 72.6383 128.081 72.53C124.887 72.3134 122.017 73.9917 120.231 76.6174C120.041 76.8881 119.906 77.1859 119.771 77.5378C119.013 77.3483 118.282 77.213 117.47 77.1317C116.522 77.0235 115.521 77.6461 114.654 77.998C113.166 78.6206 111.758 80.759 111.244 82.2478C111 82.9516 110.919 83.7908 110.973 84.5758C109.322 84.6029 107.589 85.1713 106.452 86.0105C105.18 86.9308 104.585 88.2843 104.449 89.8002C104.314 91.4785 105.857 92.8319 107.237 93.4274C110.621 94.8892 114.384 94.1042 117.903 94.1312C119.337 94.1583 120.691 93.9147 122.098 93.8335C123.993 93.7523 125.834 93.8606 127.729 93.9688C129.488 94.05 131.221 94.023 132.98 94.1042C134.875 94.1854 136.526 93.9147 138.367 93.4816C139.829 93.1297 141.534 92.9402 142.752 91.9657C144.052 90.8559 144.295 89.2859 143.673 87.7158Z" fill="#BEDCE3"/>
    <path d="M106.886 89.8271C106.967 89.9896 107.237 89.9896 107.292 89.8001C107.806 88.1488 109.917 87.0119 111.19 88.8797C111.298 89.0421 111.596 89.0151 111.596 88.7985C111.731 86.0374 114.411 86.3352 115.981 87.4992C116.441 87.8511 116.928 88.3654 117.524 88.4737C117.605 88.5008 117.74 88.4195 117.74 88.3113C118.092 86.4976 118.552 82.4372 121.205 84.8193C122.044 85.5773 121.99 87.0661 122.315 88.0676C122.369 88.2301 122.613 88.3113 122.721 88.1489C124.02 86.1187 125.238 86.633 126.727 87.9323C126.863 88.0406 127.106 88.0135 127.106 87.7969C127.133 87.445 127.837 86.7683 128 86.5788C128.757 85.7126 129.624 85.1712 130.815 85.4961C132.358 85.9021 132.655 87.5263 133.224 88.7714C133.305 88.9609 133.576 88.9068 133.63 88.7444C134.117 87.445 136.012 87.418 136.743 88.5008C136.824 88.6361 137.041 88.6902 137.122 88.5278C137.799 87.2285 138.99 87.4992 139.612 88.5549C139.693 88.6902 139.91 88.7444 139.991 88.582C140.397 87.7969 140.966 87.2556 141.588 86.66C141.994 86.254 142.427 86.1728 142.833 86.2811C142.725 86.1457 142.617 86.0104 142.482 85.875C141.913 85.875 141.48 86.1457 140.966 86.66C140.641 86.9849 140.316 87.2826 140.018 87.6345C139.802 87.9052 139.829 88.0947 139.856 88.1489C139.829 88.1218 139.802 88.0676 139.721 87.9864C139.179 87.3909 138.963 87.0119 138.096 87.1202C137.853 87.1473 137.501 87.3638 137.338 87.5263C136.743 88.0676 137.068 88.2842 136.58 87.445C135.823 86.1728 134.117 87.2014 133.413 88.203C132.683 86.5247 132.141 85.2795 130.084 84.9276C128.947 84.7381 127.133 86.1999 126.727 87.3909C125.13 86.0645 123.831 85.8209 122.586 87.5263C122.098 85.9292 122.071 84.8464 120.528 83.7366C119.337 82.8974 118.2 84.4133 117.767 85.3878C117.443 86.0916 117.713 88.2571 116.63 87.445C115.818 86.8495 115.169 86.1728 114.167 86.0916C112.57 85.9562 111.487 86.8225 111.19 88.2301C109.809 86.7954 107.779 87.5263 106.994 89.2316C106.534 88.6632 105.83 88.2571 105.099 88.5278C104.855 88.609 104.693 88.7444 104.53 88.8797C104.476 89.0692 104.449 89.2587 104.422 89.4752C105.045 88.9339 106.398 88.9339 106.886 89.8271Z" fill="white"/>
    <path d="M143.835 90.3686C143.239 89.9626 142.563 89.719 141.859 89.746C141.209 89.7731 140.587 90.0167 140.018 90.2874C139.612 90.4769 139.477 91.1266 139.314 91.0183C138.367 90.4228 136.58 90.6935 135.714 91.3431C134.983 91.9116 135.335 91.6409 134.388 91.0454C133.819 90.6934 132.899 90.8288 132.331 91.0454C131.952 91.1807 131.843 91.4514 131.708 91.316C131.112 90.7205 130.327 90.1521 129.651 89.719C128.378 88.8798 126.89 89.5024 125.671 90.1521C124.859 90.5852 124.968 91.3973 124.183 90.6664C123.587 90.125 122.721 90.0167 121.963 89.9897C121.07 89.9355 119.852 90.1521 119.608 91.0183C119.012 90.5852 118.444 90.3416 117.632 90.2603C116.982 90.2062 115.466 90.2603 115.033 90.91C115.033 90.9371 113.057 90.3957 112.651 90.6122C111.812 91.0724 111.271 91.6138 111.027 92.453C109.89 91.3702 108.78 90.6122 107.129 90.91C106.588 91.0183 105.64 91.6138 105.342 92.074C105.397 92.1281 105.451 92.2093 105.532 92.2635C106.127 91.3973 108.97 91.4514 108.997 91.4785C109.646 91.9116 110.404 92.453 110.973 93.0214C111.108 93.1568 111.325 93.0755 111.352 92.8861C111.595 91.5597 112.435 90.9641 113.869 91.0183C113.761 90.9912 114.979 91.5597 114.952 91.5326C115.033 91.5867 115.169 91.5055 115.196 91.4514C116.143 90.0438 118.579 90.7205 119.581 91.5867C119.743 91.7492 119.987 91.6138 119.96 91.3973C119.852 90.2874 121.801 90.4498 122.45 90.4769C123.831 90.5581 123.831 91.1536 124.535 91.6409C124.616 91.695 124.751 91.695 124.805 91.6138C125.753 90.531 127.16 89.4753 128.73 89.8272C129.651 90.0438 130.923 91.2619 131.573 91.8845C131.681 91.9928 131.843 91.9657 131.924 91.8574C132.764 90.7747 134.28 91.6138 135.146 92.1823C135.227 92.2364 135.335 92.2093 135.416 92.2093C135.498 92.2093 135.552 92.1281 135.579 92.074C136.012 90.8559 138.719 91.2348 139.396 91.6679C139.504 91.7221 139.639 91.7221 139.693 91.6138C140.641 89.9626 142.346 90.0167 143.591 90.8829C143.7 90.6934 143.781 90.531 143.835 90.3686Z" fill="white"/>
    <path d="M113.734 78.5123C114.681 78.4581 115.656 78.8912 116.414 79.7304C116.549 79.8657 116.712 79.7845 116.793 79.6492C117.442 78.2957 119.581 78.6476 120.339 79.6492C120.474 79.8116 120.691 79.6762 120.718 79.5138C120.934 78.1874 121.99 76.2926 123.587 77.0776C124.318 77.4566 124.616 78.2957 124.886 79.0266C124.941 79.189 125.184 79.189 125.265 79.0536C125.671 78.2957 126.05 77.5648 127.052 77.4836C127.81 77.4295 128.378 78.3498 128.947 78.7829C129.082 78.8912 129.272 78.7559 129.299 78.6205C129.407 76.5091 131.627 77.646 132.574 78.404C132.682 78.4852 132.872 78.404 132.899 78.2957C133.278 77.2671 133.819 76.9422 134.442 76.9422C134.388 76.7257 134.307 76.4821 134.198 76.2655C134.144 76.2655 134.09 76.2655 134.009 76.2926C133.657 76.3738 133.224 76.861 133.007 77.0776C132.899 77.1859 132.818 77.3483 132.737 77.4836C132.493 78.0521 132.682 77.9167 132.52 77.7814C131.708 77.1317 130.896 76.5091 129.813 76.7798C129.434 76.861 129.272 77.1588 129.082 77.4295C128.622 78.1062 129.055 78.2957 128.189 77.4836C127.756 77.0776 126.862 76.861 126.321 77.1317C125.969 77.3212 125.78 77.4565 125.563 77.8085C125.265 78.2957 125.265 78.7288 125.076 78.2416C124.914 77.8355 124.805 77.7272 124.562 77.3753C124.074 76.7257 122.748 76.0489 121.936 76.5362C120.988 77.1317 120.582 78.0521 120.366 79.0807C119.364 78.2145 117.361 77.9709 116.576 79.1619C116.603 79.1078 115.223 78.0521 114.844 78.0521C114.763 78.0521 114.681 78.0521 114.6 78.0521C114.302 78.1062 114.005 78.2957 113.734 78.5123Z" fill="white"/>
    <path d="M111 83.087C112.029 82.5185 113.869 83.466 114.438 84.0886C114.573 84.251 114.871 84.1156 114.817 83.8991C114.709 83.5742 114.681 83.2223 114.709 82.8975C114.6 80.8132 118.579 80.1635 118.498 82.4644C118.498 82.708 118.85 82.7892 118.931 82.5456C119.527 80.9485 121.692 81.7335 122.613 82.1937C123.398 82.5727 123.939 83.8179 124.291 84.5758C124.372 84.7382 124.643 84.7111 124.697 84.5487C124.941 83.6825 125.211 82.8975 125.645 82.0854C126.213 81.0297 127.837 79.568 129.109 81.7065C129.326 82.0854 129.488 82.5456 129.678 82.9246C129.786 83.1411 130.057 83.0328 130.084 82.8434C130.463 80.2718 132.547 80.759 134.009 81.4087C134.063 81.2463 134.09 81.1109 134.117 80.9485C133.603 80.7049 133.061 80.5425 132.493 80.5154C131.329 80.4342 130.219 81.1921 129.786 82.2478C129.245 81.1651 128.351 79.5138 126.998 80.2176C125.536 80.9756 124.832 82.3832 124.372 83.872C123.723 82.5456 122.911 81.7335 121.34 81.3004C120.393 81.0297 119.392 81.1651 118.796 81.8418C118.471 80.6778 117.172 80.2176 115.954 80.4342C114.709 80.6508 114.194 82.2478 114.248 83.4389C113.382 82.7892 112.056 82.3561 111.081 82.6539C111.054 82.7351 111.027 82.8975 111 83.087Z" fill="white"/>
    <path d="M124.561 75.6429C124.616 75.7512 124.805 75.8053 124.913 75.697C125.942 74.6413 127.133 73.6127 127.999 75.3181C128.08 75.5076 128.351 75.4534 128.405 75.291C128.649 74.6413 128.92 73.7481 129.38 73.2337C129.542 73.0443 129.732 72.936 129.948 72.8277C129.732 72.7736 129.515 72.7194 129.272 72.6653C128.703 73.1255 128.405 73.9105 128.162 74.6143C127.999 74.2082 127.837 73.9375 127.187 73.9105C126.213 73.8563 125.509 73.8563 124.94 74.7225C124.832 74.885 124.778 74.9932 124.778 75.0744C124.724 74.9932 124.616 74.885 124.372 74.7496C123.804 74.4519 123.343 74.2894 122.694 74.2082C122.64 74.2082 122.585 74.2082 122.504 74.1812C122.288 74.3436 122.098 74.506 121.909 74.6684C122.937 74.506 124.074 74.7225 124.561 75.6429Z" fill="white"/>
    <path d="M126.478 55.1202C125.428 52.3952 122.234 51.4124 119.643 50.9434C119.152 50.854 118.638 50.8317 118.147 50.8764C118.705 49.6032 118.817 48.4641 118.928 47.0792C119.018 45.8508 118.147 44.6223 117.231 43.8852C116.181 43.0587 114.93 42.679 113.612 42.5897C110.977 42.411 108.609 43.7958 107.135 45.9624C106.979 46.1858 106.867 46.4315 106.755 46.7219C106.13 46.5655 105.527 46.4538 104.857 46.3868C104.075 46.2975 103.248 46.8112 102.534 47.1016C101.305 47.6153 100.144 49.3799 99.7193 50.6083C99.5183 51.1891 99.4513 51.8815 99.496 52.5292C98.1335 52.5516 96.704 53.0206 95.7659 53.713C94.7161 54.4725 94.2247 55.5893 94.113 56.8401C94.0013 58.2249 95.2745 59.3417 96.4136 59.8331C99.2056 61.0393 102.31 60.3915 105.214 60.4139C106.398 60.4362 107.515 60.2352 108.676 60.1682C110.24 60.1012 111.759 60.1905 113.322 60.2799C114.774 60.3469 116.203 60.3245 117.655 60.3915C119.219 60.4585 120.581 60.2352 122.1 59.8778C123.306 59.5874 124.713 59.4311 125.719 58.627C126.791 57.7112 126.992 56.4157 126.478 55.1202Z" fill="#BEDCE3"/>
    <path d="M96.1228 56.8626C96.1899 56.9966 96.4132 56.9966 96.4579 56.8402C96.8823 55.4777 98.6245 54.5396 99.6743 56.0808C99.7636 56.2148 100.009 56.1925 100.009 56.0138C100.121 53.7355 102.332 53.9812 103.628 54.9417C104.007 55.232 104.41 55.6564 104.901 55.7458C104.968 55.7681 105.08 55.7011 105.08 55.6117C105.37 54.1152 105.75 50.7648 107.939 52.7304C108.631 53.3558 108.586 54.5843 108.854 55.4107C108.899 55.5447 109.1 55.6117 109.189 55.4777C110.262 53.8025 111.267 54.2269 112.495 55.299C112.607 55.3884 112.808 55.366 112.808 55.1874C112.83 54.897 113.411 54.3386 113.545 54.1822C114.17 53.4675 114.885 53.0208 115.868 53.2888C117.141 53.6238 117.387 54.964 117.856 55.9915C117.923 56.1478 118.146 56.1031 118.191 55.9691C118.593 54.897 120.156 54.8746 120.76 55.7681C120.827 55.8798 121.005 55.9244 121.072 55.7904C121.631 54.7183 122.613 54.9417 123.127 55.8128C123.194 55.9244 123.373 55.9691 123.44 55.8351C123.775 55.1873 124.244 54.7406 124.758 54.2492C125.093 53.9142 125.45 53.8472 125.785 53.9365C125.696 53.8248 125.606 53.7132 125.495 53.6015C125.026 53.6015 124.668 53.8249 124.244 54.2492C123.976 54.5173 123.708 54.763 123.462 55.0533C123.284 55.2767 123.306 55.433 123.328 55.4777C123.306 55.4554 123.284 55.4107 123.217 55.3437C122.77 54.8523 122.591 54.5396 121.876 54.6289C121.675 54.6513 121.385 54.83 121.251 54.964C120.76 55.4107 121.028 55.5894 120.626 54.897C120 53.8472 118.593 54.696 118.012 55.5224C117.409 54.1376 116.962 53.1101 115.265 52.8197C114.327 52.6634 112.83 53.8695 112.495 54.8523C111.177 53.7578 110.105 53.5568 109.078 54.964C108.676 53.6462 108.653 52.7527 107.38 51.8369C106.397 51.1445 105.459 52.3953 105.102 53.1994C104.834 53.7802 105.057 55.5671 104.164 54.897C103.494 54.4056 102.958 53.8472 102.131 53.7802C100.813 53.6685 99.92 54.3833 99.6743 55.5447C98.5351 54.3609 96.8599 54.964 96.2122 56.3712C95.8325 55.9021 95.2517 55.5671 94.6487 55.7904C94.4476 55.8574 94.3136 55.9691 94.1796 56.0808C94.1349 56.2371 94.1126 56.3935 94.0903 56.5722C94.604 56.1255 95.7208 56.1255 96.1228 56.8626Z" fill="white"/>
    <path d="M126.612 57.3092C126.12 56.9742 125.562 56.7732 124.981 56.7955C124.445 56.8178 123.931 57.0189 123.462 57.2422C123.127 57.3986 123.016 57.9347 122.882 57.8453C122.1 57.3539 120.626 57.5773 119.911 58.1133C119.308 58.5824 119.598 58.359 118.817 57.8676C118.347 57.5773 117.588 57.689 117.119 57.8676C116.806 57.9793 116.717 58.2027 116.605 58.091C116.114 57.5996 115.466 57.1306 114.908 56.7732C113.858 56.0808 112.629 56.5945 111.624 57.1306C110.954 57.4879 111.044 58.158 110.396 57.5549C109.904 57.1082 109.19 57.0189 108.564 56.9965C107.827 56.9519 106.822 57.1306 106.621 57.8453C106.13 57.4879 105.661 57.2869 104.99 57.2199C104.454 57.1752 103.204 57.2199 102.846 57.756C102.846 57.7783 101.216 57.3316 100.881 57.5103C100.188 57.89 99.7415 58.3367 99.5405 59.0291C98.6024 58.1357 97.6866 57.5103 96.3241 57.756C95.8774 57.8453 95.0956 58.3367 94.8499 58.7164C94.8946 58.7611 94.9393 58.8281 95.0063 58.8728C95.4977 58.158 97.8429 58.2027 97.8653 58.225C98.4014 58.5824 99.0268 59.0291 99.4958 59.4982C99.6075 59.6099 99.7862 59.5429 99.8085 59.3865C100.01 58.292 100.702 57.8006 101.886 57.8453C101.796 57.823 102.802 58.292 102.779 58.2697C102.846 58.3144 102.958 58.2474 102.98 58.2027C103.762 57.0412 105.772 57.5996 106.599 58.3144C106.733 58.4484 106.934 58.3367 106.911 58.158C106.822 57.2422 108.43 57.3763 108.966 57.3986C110.105 57.4656 110.105 57.957 110.686 58.359C110.753 58.4037 110.865 58.4037 110.91 58.3367C111.691 57.4433 112.853 56.5722 114.148 56.8625C114.908 57.0412 115.958 58.0463 116.494 58.5601C116.583 58.6494 116.717 58.6271 116.784 58.5377C117.476 57.6443 118.727 58.3367 119.442 58.8058C119.509 58.8504 119.598 58.8281 119.665 58.8281C119.732 58.8281 119.777 58.7611 119.799 58.7164C120.157 57.7113 122.39 58.024 122.949 58.3814C123.038 58.426 123.15 58.426 123.194 58.3367C123.976 56.9742 125.383 57.0189 126.411 57.7336C126.5 57.5773 126.567 57.4433 126.612 57.3092Z" fill="white"/>
    <path d="M101.774 47.526C102.556 47.4813 103.36 47.8387 103.985 48.5311C104.097 48.6428 104.231 48.5758 104.298 48.4641C104.834 47.3473 106.599 47.6377 107.224 48.4641C107.336 48.5981 107.515 48.4865 107.537 48.3524C107.716 47.258 108.587 45.6945 109.905 46.3422C110.508 46.6549 110.753 47.3473 110.977 47.9504C111.021 48.0844 111.222 48.0844 111.289 47.9727C111.624 47.3473 111.937 46.7443 112.764 46.6772C113.389 46.6326 113.858 47.392 114.327 47.7494C114.439 47.8387 114.595 47.727 114.617 47.6154C114.707 45.8731 116.538 46.8113 117.32 47.4367C117.409 47.5037 117.566 47.4367 117.588 47.3473C117.901 46.4986 118.348 46.2305 118.861 46.2305C118.817 46.0518 118.75 45.8508 118.66 45.6721C118.616 45.6721 118.571 45.6721 118.504 45.6945C118.214 45.7615 117.856 46.1635 117.678 46.3422C117.588 46.4315 117.521 46.5656 117.454 46.6772C117.253 47.1463 117.409 47.0346 117.275 46.9229C116.605 46.3869 115.935 45.8731 115.042 46.0965C114.729 46.1635 114.595 46.4092 114.439 46.6326C114.059 47.191 114.416 47.3473 113.702 46.6772C113.344 46.3422 112.607 46.1635 112.161 46.3869C111.87 46.5432 111.714 46.6549 111.535 46.9453C111.289 47.3473 111.289 47.7047 111.133 47.3027C110.999 46.9676 110.91 46.8783 110.709 46.5879C110.307 46.0518 109.212 45.4934 108.542 45.8955C107.76 46.3869 107.425 47.1463 107.247 47.9951C106.42 47.2803 104.767 47.0793 104.12 48.0621C104.142 48.0174 103.003 47.1463 102.69 47.1463C102.623 47.1463 102.556 47.1463 102.489 47.1463C102.243 47.191 101.998 47.3473 101.774 47.526Z" fill="white"/>
    <path d="M99.5183 51.3008C100.367 50.8317 101.886 51.6135 102.355 52.1272C102.467 52.2613 102.712 52.1496 102.668 51.9709C102.578 51.7029 102.556 51.4125 102.578 51.1445C102.489 49.4246 105.772 48.8885 105.705 50.7871C105.705 50.9881 105.996 51.0551 106.063 50.8541C106.554 49.5363 108.341 50.184 109.1 50.5637C109.748 50.8764 110.195 51.9039 110.485 52.5293C110.552 52.6633 110.776 52.641 110.82 52.507C111.021 51.7922 111.245 51.1445 111.602 50.4744C112.071 49.6033 113.411 48.3971 114.461 50.1617C114.64 50.4744 114.774 50.8541 114.93 51.1668C115.019 51.3455 115.243 51.2561 115.265 51.0998C115.578 48.9779 117.298 49.3799 118.504 49.916C118.549 49.782 118.571 49.6703 118.593 49.5363C118.169 49.3352 117.722 49.2012 117.253 49.1789C116.293 49.1119 115.377 49.7373 115.019 50.6084C114.573 49.7149 113.836 48.3524 112.719 48.9332C111.513 49.5586 110.932 50.7201 110.552 51.9486C110.016 50.8541 109.346 50.184 108.051 49.8266C107.269 49.6033 106.442 49.7149 105.951 50.2733C105.683 49.3129 104.611 48.9332 103.606 49.1119C102.578 49.2906 102.154 50.6084 102.199 51.5912C101.484 51.0551 100.389 50.6977 99.5853 50.9434C99.5629 51.0104 99.5406 51.1445 99.5183 51.3008Z" fill="white"/>
    <path d="M110.708 45.1584C110.753 45.2477 110.909 45.2924 110.999 45.2031C111.848 44.332 112.83 43.4832 113.545 44.8904C113.612 45.0467 113.835 45.002 113.88 44.868C114.081 44.332 114.305 43.5949 114.684 43.1705C114.818 43.0141 114.975 42.9248 115.153 42.8354C114.975 42.7908 114.796 42.7461 114.595 42.7014C114.126 43.0811 113.88 43.7289 113.679 44.3096C113.545 43.9746 113.411 43.7512 112.875 43.7289C112.071 43.6842 111.49 43.6842 111.021 44.399C110.932 44.533 110.887 44.6223 110.887 44.6893C110.842 44.6223 110.753 44.533 110.552 44.4213C110.083 44.1756 109.703 44.0416 109.167 43.9746C109.123 43.9746 109.078 43.9746 109.011 43.9522C108.832 44.0863 108.676 44.2203 108.52 44.3543C109.368 44.2203 110.306 44.399 110.708 45.1584Z" fill="white"/>
    </svg>
    