<svg width="1920" height="1210" viewBox="0 0 1920 1210" fill="none" xmlns="http://www.w3.org/2000/svg">
    <path d="M378.539 154.687C160.597 142.509 34.1664 179.698 -2.58577 224.975C-13.4631 479.264 -28.6913 1007.87 -2.58577 1087.96C30.0462 1188.07 655.888 1223.38 800.754 1164.25C945.621 1105.11 1158.01 1216.19 1612.58 1039.35C2023.93 879.319 1927.07 661.705 1927.07 479.623C1927.07 297.542 1959.68 227.52 1892.05 169.909C1807.5 97.8966 1390.62 -50.2275 1147.94 17.1327C1041.09 46.7896 991.344 17.1327 851.778 17.1327C722.163 17.1327 650.966 169.909 378.539 154.687Z" fill="#DFEEF1"/>
    <path d="M1719.1 131.92C1723.48 132.22 1723.31 138.958 1719.48 140.046C1711.82 142.221 1703.87 141.794 1696.48 144.663C1693.71 145.764 1692.22 141.847 1694.47 140.211C1701.12 134.856 1710.54 131.364 1719.1 131.92Z" fill="white"/>
    <path d="M1727.01 157.317C1724.67 156.394 1725.57 153.198 1727.4 152.531C1734.99 149.705 1743.96 143.365 1752.15 147.652C1756.14 149.774 1755.66 156.02 1751.38 157.224C1747.3 158.471 1742.88 158.373 1738.53 158.927C1734.46 159.118 1730.93 158.788 1727.01 157.317Z" fill="white"/>
    <path d="M1714.17 111.394C1714.2 112.247 1714.07 112.854 1713.73 113.418C1713.07 114.547 1711.8 115.545 1710.3 115.648C1702.62 115.914 1695.91 116.6 1689 120.206C1686.63 121.393 1683.26 118.345 1685.6 116.305C1692.33 110.545 1701.54 105.101 1710.77 107.493C1712.75 108.127 1713.95 109.442 1714.17 111.394Z" fill="white"/>
    <path d="M1740.14 124.557C1746.4 121.024 1754.15 118.444 1761.48 119.797C1765.33 120.618 1764.29 125.477 1761 126.044C1754.81 127.263 1748.4 126.531 1742.09 128.358C1739.6 129.098 1737.77 125.745 1740.14 124.557Z" fill="white"/>
    <path d="M1768.74 174.053C1765.89 174.504 1762.96 175.36 1760.07 176.013C1759.17 176.245 1758.62 174.857 1759.16 174.336C1760.8 172.571 1763.38 171.426 1765.66 170.644C1767.74 169.818 1771.17 168.644 1772.64 170.652C1774.73 172.79 1770.09 173.705 1768.74 174.053Z" fill="white"/>
    <path d="M1768.5 155.373C1776.18 151.087 1784.8 147.422 1793.84 148.715C1795.3 148.815 1796.7 150.173 1797.05 151.518C1797.32 152.211 1797.4 152.862 1797.22 153.672C1796.59 155.653 1795.27 156.854 1793.32 157.073C1785.52 157.947 1777.84 158.214 1769.94 159.493C1767.75 159.87 1766.57 156.445 1768.5 155.373Z" fill="white"/>
    <path d="M1833.81 165.714C1839.02 165.131 1844.18 164.751 1849.5 164.616C1853.97 164.511 1858.72 164.045 1861.72 167.859C1862.72 169.131 1862.08 171.112 1860.86 171.908C1857.37 174.34 1852.85 172.739 1848.91 172.323C1843.92 171.894 1839.05 171.912 1833.98 171.887C1830.45 171.558 1829.91 166.151 1833.81 165.714Z" fill="white"/>
    <path d="M1741.67 195.793C1745.68 192.84 1749.86 190.133 1754.19 187.671C1757.79 185.687 1763.44 182.024 1767.35 184.551C1768.48 185.215 1769.03 186.603 1768.32 187.934C1766.53 191.362 1761.73 192.031 1758.31 193.205C1753.45 195.132 1749.11 197.594 1744.53 200.215C1741.63 201.923 1738.92 197.747 1741.67 195.793Z" fill="white"/>
    <path d="M1786.22 185.403C1792.17 183.287 1798.49 181.46 1804.79 180.688C1808.7 180.251 1817.62 178.133 1819.46 183.394C1821.25 188.858 1811.1 188.809 1808.34 188.854C1801.32 189.048 1794.09 189.199 1787.09 190.246C1784.29 190.494 1783.69 186.345 1786.22 185.403Z" fill="white"/>
    <path d="M1854.11 216.402C1860.1 215.139 1868.94 212.37 1874.37 216.703C1876.34 218.393 1874.59 221.619 1872.16 221.1C1869.32 220.495 1866.53 219.688 1863.61 219.488C1860.49 219.245 1857.57 219.045 1854.6 219.047C1853.14 218.947 1852.56 216.707 1854.11 216.402Z" fill="white"/>
    <path d="M1787.51 239.867C1791.36 236.668 1795.7 234.206 1800.72 232.525C1804.79 231.278 1812.13 228.612 1815.62 232.108C1816.66 233.177 1816.56 234.637 1815.7 235.722C1813.34 238.818 1807.7 238.462 1804.16 239.187C1799.52 240.102 1794.84 241.219 1790.75 243.522C1788.45 245.36 1785.17 241.907 1787.51 239.867Z" fill="white"/>
    <path d="M1860.45 190.661C1864.66 188.807 1869.73 188.831 1874.31 189.174C1878.29 189.388 1884.71 189.064 1887.06 192.952C1887.85 194.18 1887.51 195.8 1886.28 196.596C1883.04 198.868 1877.55 196.849 1873.86 196.274C1869.56 195.569 1864.94 195.428 1860.77 194.116C1858.75 193.684 1858.77 191.573 1860.45 190.661Z" fill="white"/>
    <path d="M1829.31 263.181C1823.63 263.027 1817.99 262.671 1812.44 261.909C1809.31 261.666 1809.9 256.923 1812.91 256.718C1818.72 256.265 1824.66 255.204 1830.59 255.199C1834.86 255.051 1841.77 254.409 1843.98 258.904C1844.74 260.335 1844.48 261.549 1843.21 262.548C1839.64 265.385 1833.33 263.193 1829.31 263.181Z" fill="white"/>
    <path d="M1883.9 233.553C1888.62 229.27 1895.04 228.946 1900.88 229.346C1906.92 229.789 1916.86 230.851 1919.54 237.138C1920.25 238.771 1918.92 241.028 1917.33 241.535C1912.65 242.652 1906.76 239.491 1902.39 238.136C1897.42 236.651 1891.02 234.863 1886.01 236.544C1884.13 237.414 1882.34 234.914 1883.9 233.553Z" fill="white"/>
    <path d="M1812.31 310.142C1818.01 308.185 1823.64 306.634 1829.62 305.371C1834.06 304.413 1840.78 302.672 1844.51 306.009C1845.6 306.875 1845.5 308.336 1844.63 309.421C1841.74 313.038 1835.21 312.913 1831.1 313.307C1825.49 313.803 1819.8 314.705 1814.26 315.852C1810.47 316.737 1808.63 311.475 1812.31 310.142Z" fill="white"/>
    <path d="M1847.78 282.786C1850.57 280.629 1854.63 280.438 1858.08 280.117C1862.19 279.723 1867.31 279.545 1871.14 281.421C1873.44 282.547 1872.34 285.7 1870.15 286.078C1866.45 286.558 1862.19 285.651 1858.46 285.278C1854.94 284.949 1851.48 285.27 1848.11 285.186C1846.9 284.926 1847.04 283.264 1847.78 282.786Z" fill="white"/>
    <path d="M1854.08 313.765C1861.07 312.718 1868.07 311.671 1874.97 312.084C1880.41 312.398 1888.4 312.623 1891.79 317.579C1892.74 319.053 1892.11 321.034 1890.32 321.498C1885.34 322.977 1879.37 320.221 1874.38 319.791C1867.77 319.016 1861.04 318.848 1854.21 319.085C1850.8 319.204 1850.58 314.288 1854.08 313.765Z" fill="white"/>
    <path d="M1832.59 364.85C1837 363.039 1841.28 361.835 1845.92 360.921C1849.66 360.238 1856.08 359.914 1857.94 364.12C1858.21 364.814 1857.79 365.783 1857.06 366.261C1854.31 368.215 1849.38 366.528 1846.21 366.487C1842.15 366.678 1837.92 367.679 1834.04 368.97C1831.31 369.868 1830.06 365.792 1832.59 364.85Z" fill="white"/>
    <path d="M1884.89 361.827C1880.68 360.718 1876.18 359.97 1871.89 359.265C1868.65 358.574 1869.84 353.96 1872.92 354.406C1878.07 355.081 1883.26 355.554 1888.28 356.836C1892.08 357.86 1897.42 359.634 1898.22 363.826C1898.45 364.722 1897.38 365.764 1896.53 365.794C1894.58 366.012 1893.33 364.9 1891.6 364.106C1889.21 363.385 1887.07 362.505 1884.89 361.827Z" fill="white"/>
    <path d="M1824.14 400.512C1831.13 393.537 1842.07 388.886 1852.03 390.801C1853.25 391.06 1854.33 391.927 1854.68 393.271C1856.43 398.937 1848.37 398.062 1845.11 398.426C1839.06 399.039 1832.33 400.779 1826.97 404.08C1825.01 405.354 1822.24 402.436 1824.14 400.512Z" fill="white"/>
    <path d="M1866.27 385.583C1864.09 384.906 1864.29 381.985 1866.48 381.607C1874.62 380.169 1892.09 379.663 1896.27 388.811C1896.87 389.996 1895.71 391.443 1894.41 391.589C1890.3 391.983 1885.75 389.529 1881.74 388.462C1876.48 387.339 1871.24 387.068 1866.27 385.583Z" fill="white"/>
    <path d="M1856.02 427.637C1861.62 425.233 1867.68 424.62 1873.68 425.266C1878.22 425.811 1888.24 426.468 1889.59 432.048C1889.78 433.146 1889.52 434.361 1888.58 434.796C1884.53 436.896 1878.85 433.777 1874.8 432.913C1869.13 431.704 1862.72 430.972 1856.98 432.075C1854.13 432.526 1853.94 428.463 1856.02 427.637Z" fill="white"/>
    <path d="M1873.23 463.06C1878.04 461.335 1883.16 461.157 1888.11 461.789C1892.45 462.292 1899.65 464.252 1901.21 468.82C1901.56 470.164 1900.85 471.495 1899.51 471.843C1895.88 472.974 1892.22 470.288 1889.07 469.191C1884.34 467.547 1879.48 466.51 1874.64 467.382C1871.59 467.789 1870.3 463.915 1873.23 463.06Z" fill="white"/>
    <path d="M1868.06 486.299C1874.61 485.368 1888.15 483.39 1891.67 490.703C1892.22 492.091 1891.27 493.581 1889.88 494.132C1886.86 495.392 1883.19 493.761 1879.99 492.868C1876.19 491.844 1872.21 491.631 1868.24 491.417C1865.11 491.174 1864.81 486.663 1868.06 486.299Z" fill="white"/>
    <path d="M1894.22 548.188C1892.26 546.498 1890.98 544.533 1888.77 543.002C1886.56 541.471 1884.1 540.1 1882.17 538.207C1880.93 537.095 1881.65 534.709 1883.35 534.65C1889.44 534.89 1897.31 538.686 1899.38 544.844C1900.4 548.024 1896.47 550.572 1894.22 548.188Z" fill="white"/>
    <path d="M1674.54 111.615C1673.27 112.614 1671.85 112.311 1670.34 112.414C1668.64 112.473 1666.85 112.937 1665.3 113.242C1662.16 114.054 1659.21 115.965 1656.31 117.674C1655.08 118.47 1653.32 116.823 1654.23 115.536C1656.38 112.397 1659.57 110.326 1663.24 108.993C1666.22 107.935 1672.25 106.47 1674.85 109.142C1675.74 109.966 1675.52 110.978 1674.54 111.615Z" fill="white"/>
    <path d="M1612.4 103.224C1609.3 104.889 1605.32 104.676 1602.05 106.095C1598.54 107.674 1595.78 110.684 1593.83 113.867C1592.46 116.326 1588.67 114.247 1590.04 111.788C1592.41 107.636 1595.41 104.467 1599.55 101.962C1602.94 99.9354 1608.65 97.9787 1612.2 100.217C1613.53 100.924 1613.63 102.428 1612.4 103.224Z" fill="white"/>
    <path d="M1875.36 265.6C1881.19 264.092 1886.55 263.755 1892.51 264.603C1897.45 265.235 1906 266.847 1908.58 271.63C1909.17 272.815 1908.94 274.883 1907.4 275.188C1902.96 276.146 1898.49 273.287 1894.12 271.932C1888.34 270.274 1882.13 269.585 1876.16 269.793C1873.8 269.925 1872.88 266.34 1875.36 265.6Z" fill="white"/>
    <path d="M1897.86 297.072C1895.39 296.756 1895.69 292.375 1898.16 292.691C1905.06 293.104 1911.78 294.327 1918.33 296.361C1923.47 298.091 1931.1 300.991 1933.1 306.498C1933.61 308.088 1932.29 309.289 1930.88 308.987C1925.89 308.557 1920.87 304.31 1916.43 302.304C1910.41 299.75 1904.22 298.006 1897.86 297.072Z" fill="white"/>
    <path d="M1900.41 341.645C1894.47 339.741 1888.1 338.807 1882.02 338.566C1880.76 338.509 1880.21 337.122 1881.24 336.283C1886.93 332.417 1894.03 332.874 1900.71 334.3C1906.38 335.509 1917.51 337.886 1919.59 344.043C1919.98 345.185 1919.39 346.964 1918.04 347.312C1915.4 347.806 1913.26 346.926 1910.96 345.8C1907.48 344.212 1903.97 342.827 1900.41 341.645Z" fill="white"/>
    <path d="M1895.67 413.449C1889.73 411.546 1883.7 410.047 1877.75 408.144C1875.16 407.379 1875.94 403.735 1878.62 404.094C1885.23 404.87 1891.92 405.24 1898.51 407.07C1903.33 408.31 1912.15 410.616 1913.46 416.398C1913.81 417.742 1913.1 419.073 1911.6 419.176C1909.24 419.308 1907.34 418.268 1905.25 417.186C1901.93 415.844 1898.82 414.545 1895.67 413.449Z" fill="white"/>
    <path d="M1812.72 199.102C1815.16 195.601 1822.94 196.838 1826.51 196.965C1832.55 197.408 1839.13 197.33 1844.04 201.128C1845.32 202.038 1844.65 204.222 1843.3 204.57C1837.92 205.963 1832.5 204.594 1827.11 204.078C1824.39 203.921 1821.67 203.764 1819 203.405C1817.13 203.219 1814.73 203.553 1813.33 202.195C1812.44 201.372 1812.1 200.028 1812.72 199.102Z" fill="white"/>
    <path d="M1786.55 131.285C1791.46 128.1 1798.49 127.906 1804.13 128.263C1809.97 128.663 1817.23 129.365 1821.68 133.279C1823.13 134.435 1822.25 136.575 1820.5 136.837C1815.3 137.42 1810.25 135.284 1805.06 134.812C1799.26 134.209 1793.72 135.356 1787.8 135.361C1785.68 135.334 1784.63 132.356 1786.55 131.285Z" fill="white"/>
    <path d="M295.698 1159.54C295.569 1159.41 295.569 1159.22 295.698 1159.09C296.98 1157.75 298.903 1159.29 299.416 1160.57C300.057 1162.3 298.967 1164.29 298.07 1165.63C297.557 1166.4 296.98 1167.11 296.467 1167.88C295.954 1168.65 295.185 1169.61 295.377 1170.63C295.633 1172.17 298.198 1172.56 299.224 1173.39C300.057 1174.03 300.955 1175.25 300.185 1176.21C299.352 1177.3 297.493 1177.17 296.339 1177.04C293.838 1176.79 289.479 1176.02 289.479 1172.81C289.479 1170.76 290.633 1168.71 291.466 1166.85C292.62 1164.22 294.159 1161.92 295.698 1159.54Z" fill="#122528"/>
    <path d="M274.222 1094.41C273.773 1094.15 273.324 1093.9 272.875 1093.64C271.401 1092.87 269.862 1092.1 268.58 1091.01C267.875 1090.43 266.913 1089.22 267.682 1088.32C268.323 1087.55 269.798 1087.74 270.696 1087.81C272.042 1087.93 273.388 1088.32 274.67 1088.64C276.978 1089.22 279.158 1090.18 281.274 1091.27C282.876 1092.1 284.479 1093 285.953 1094.02C282.043 1093.64 278.068 1093.7 274.222 1094.41Z" fill="#FFCE33"/>
    <path d="M266.401 1096.91C263.259 1098.45 260.631 1100.69 258.195 1103.19C257.874 1103.51 257.554 1103.83 257.233 1104.15C256.271 1103.96 255.31 1103.77 254.412 1103.51C252.745 1103.13 247.424 1101.78 248.578 1099.02C249.219 1097.61 251.143 1096.97 252.489 1096.52C254.733 1095.75 257.169 1095.56 259.541 1095.75C261.913 1095.88 264.221 1096.27 266.593 1096.84C266.529 1096.84 266.465 1096.84 266.401 1096.91Z" fill="#FFCE33"/>
    <path d="M256.463 1105.05C254.412 1107.36 252.617 1109.86 251.014 1112.49C250.437 1113.45 249.924 1114.41 249.475 1115.37C247.616 1115.69 245.693 1116.08 243.834 1116.27C242.936 1116.33 241.782 1116.4 241.013 1115.89C240.116 1115.31 240.244 1114.22 240.564 1113.38C241.654 1110.69 244.731 1109.35 247.168 1108.19C249.475 1107.1 251.976 1105.95 254.476 1105.37C255.117 1105.18 255.758 1105.11 256.463 1105.05Z" fill="#FFCE33"/>
    <path d="M305.251 1100.24C301.725 1098 297.75 1096.4 293.711 1095.37C292.814 1094.28 291.788 1093.25 290.826 1092.16C289.48 1090.63 288.005 1088.7 288.198 1086.52C288.198 1086.27 288.39 1086.01 288.711 1086.01C291.531 1085.88 294.224 1086.97 296.596 1088.38C299.16 1089.92 301.468 1091.91 303.456 1094.09C305.122 1095.88 306.597 1097.93 307.751 1100.11C308.136 1100.82 308.52 1101.59 308.777 1102.42C308.392 1099.79 308.007 1097.1 308.52 1094.41C308.584 1094.15 308.841 1094.02 309.033 1094.02C310.764 1093.9 311.854 1095.37 312.559 1096.72C313.521 1098.58 314.034 1100.69 314.354 1102.74C314.611 1104.35 314.867 1106.01 314.867 1107.68C314.867 1108.06 314.867 1109.28 314.611 1110.18C312.367 1106.2 309.29 1102.74 305.251 1100.24Z" fill="#FFCE33"/>
    <path d="M246.142 1123.77C245.244 1126.72 244.667 1129.8 244.283 1132.87C243.962 1135.5 243.834 1138.13 243.77 1140.76C242.424 1142.3 240.693 1143.39 238.577 1143.39C238.256 1143.39 238 1143.13 238 1142.81C238.321 1136.46 240.628 1127.75 246.142 1123.77Z" fill="#FFCE33"/>
    <path d="M244.347 1153.26C244.411 1153.07 244.475 1152.88 244.603 1152.68C244.603 1152.94 244.667 1153.13 244.667 1153.39C245.372 1158.58 246.398 1163.71 248.257 1168.52C248.193 1169.22 248.065 1169.86 247.937 1170.51C247.68 1171.6 247.36 1172.81 246.59 1173.65C245.885 1174.42 244.924 1174.1 244.347 1173.39C243.385 1172.24 243 1170.63 242.808 1169.16C242.487 1167.36 242.423 1165.5 242.423 1163.65C242.487 1160.12 243 1156.66 244.347 1153.26Z" fill="#FFCE33"/>
    <path d="M251.207 1174.74C252.297 1176.6 253.515 1178.39 254.797 1180.12C254.733 1182.62 254.733 1185.06 253.643 1187.37C253.579 1187.56 253.322 1187.62 253.13 1187.56C249.283 1186.47 250.373 1180.51 250.758 1177.69C250.95 1176.66 251.143 1175.7 251.207 1174.74Z" fill="#FFCE33"/>
    <path d="M262.874 1188.07C264.413 1189.23 266.08 1190.25 267.811 1191.02C268.003 1191.92 267.939 1192.88 267.618 1193.78C267.169 1194.87 266.272 1195.57 265.118 1195.38C263.9 1195.19 262.938 1193.91 262.297 1193.01C261.528 1191.92 260.951 1190.7 260.694 1189.42C260.502 1188.39 260.438 1187.3 260.438 1186.21C261.207 1186.79 262.041 1187.43 262.874 1188.07Z" fill="#FFCE33"/>
    <path d="M274.054 1199.92C275.592 1201.07 277.259 1202.1 278.99 1202.87C279.183 1203.76 279.118 1204.73 278.798 1205.62C278.349 1206.71 277.452 1207.42 276.298 1207.23C275.08 1207.03 274.118 1205.75 273.477 1204.85C272.708 1203.76 272.131 1202.55 271.874 1201.26C271.682 1200.24 271.618 1199.15 271.618 1198.06C272.387 1198.64 273.22 1199.28 274.054 1199.92Z" fill="#FFCE33"/>
    <path d="M277.663 1206.27C279.294 1204.73 278.59 1202.72 277.356 1201.29C279.171 1201.48 280.964 1201.87 282.589 1202.7C284.214 1203.52 285.453 1205.29 284.329 1207.04C283.254 1208.72 280.578 1208.19 278.973 1207.76C278.139 1207.55 277.291 1207.27 276.507 1206.99C276.917 1206.77 277.328 1206.54 277.663 1206.27Z" fill="#FFCE33"/>
    <path d="M272.362 1158.77C273.196 1158.97 273.645 1159.93 273.901 1160.63C274.863 1163.07 275.055 1165.89 275.247 1168.45C275.311 1169.48 275.376 1170.44 275.568 1171.47C275.632 1172.11 275.953 1172.69 276.401 1173.13C277.042 1173.78 278.26 1173.39 278.966 1173.13C280.248 1172.75 281.658 1172.24 282.812 1173.13C283.902 1173.97 283.646 1175.7 282.94 1176.72C281.851 1178.33 279.414 1178.46 277.683 1178.46C275.696 1178.46 273.645 1178.01 272.555 1176.21C271.978 1175.25 271.85 1174.1 271.721 1173.01C271.529 1171.47 271.401 1169.93 271.337 1168.39C271.208 1166.08 271.08 1163.77 271.144 1161.47C270.888 1161.53 270.567 1161.34 270.567 1161.02C270.567 1159.99 270.952 1158.45 272.362 1158.77Z" fill="#122528"/>
    <path d="M243.577 1132.75C244.475 1125.37 246.719 1118.26 250.501 1111.85C252.553 1108.38 255.053 1105.18 257.81 1102.29C260.31 1099.73 262.938 1097.42 266.208 1095.88C272.362 1092.93 279.543 1092.29 286.21 1092.93C293.07 1093.57 300.057 1095.63 305.955 1099.28C311.789 1102.93 315.572 1108.51 318.2 1114.73C321.021 1121.65 322.431 1129.35 322.047 1136.85C321.919 1139.09 321.598 1141.34 321.021 1143.58C321.342 1143.84 321.47 1144.28 321.149 1144.67C320.893 1144.93 320.636 1145.31 320.444 1145.63C320.38 1145.89 320.252 1146.14 320.188 1146.4C320.124 1146.53 319.995 1146.59 319.867 1146.59C319.482 1147.23 319.162 1147.94 318.841 1148.52C317.816 1150.31 316.726 1152.04 315.572 1153.64C313.264 1156.91 310.507 1159.8 307.366 1162.36C304.096 1164.99 300.314 1167.43 296.275 1168.58C291.916 1169.8 287.3 1169.8 282.876 1170.06C279.478 1170.25 275.824 1170.51 272.619 1171.72C271.401 1172.17 270.183 1172.88 269.413 1173.9C268.516 1175.06 268.323 1176.53 268.388 1177.94C268.516 1179.74 269.157 1181.15 270.247 1182.56C271.272 1183.84 272.491 1185.06 273.452 1186.34C274.798 1188.14 281.332 1207.85 279.088 1209.26C277.742 1210.1 269.798 1195.71 268.388 1195.26C266.144 1194.55 264.477 1190.32 262.618 1188.97C257.297 1185.06 253.001 1179.74 249.924 1173.97C246.526 1167.62 244.988 1160.63 244.026 1153.58C242.936 1146.72 242.68 1139.73 243.577 1132.75Z" fill="#356F7C"/>
    <path d="M284.671 1154.35C285.441 1153.64 286.595 1153.45 287.62 1153.39C289.351 1153.26 291.082 1153.52 292.749 1153.71C292.365 1153.45 291.98 1153.26 291.595 1153.07C290.377 1152.36 289.159 1151.72 287.941 1150.95C286.018 1149.73 283.902 1147.87 284.543 1145.37C285.248 1142.49 288.262 1141.27 290.89 1141.02C293.647 1140.76 296.66 1141.21 299.288 1142.17C297.814 1140.12 296.211 1138.19 294.929 1135.95C293.519 1133.45 292.493 1130.5 294.288 1127.94C295.891 1125.56 299.032 1125.24 301.66 1125.44C304.225 1125.63 306.725 1126.33 309.161 1127.17C308.264 1126.21 307.43 1125.12 306.597 1124.09C304.93 1121.85 303.263 1119.35 302.558 1116.65C302.045 1114.54 302.558 1112.29 304.738 1111.4C307.174 1110.37 310.059 1111.52 312.238 1112.68C314.226 1113.7 316.085 1114.99 317.752 1116.46C318.457 1117.1 319.226 1117.81 319.867 1118.51C319.354 1115.56 318.97 1112.61 318.521 1109.67C318.201 1107.42 317.239 1103.58 319.996 1102.49C321.278 1101.97 322.303 1103.19 322.945 1104.09C323.906 1105.5 324.547 1107.23 325.06 1108.83C326.599 1113.38 327.56 1118.13 329.484 1122.49C330.83 1125.5 331.984 1128.58 333.715 1131.33C334.869 1133.19 336.92 1135.89 338.395 1137.49C340.446 1139.67 341.921 1140.82 344.678 1142.55C347.819 1144.54 350.832 1146.78 353.781 1149.03C355.063 1149.99 356.281 1151.02 357.115 1152.43C358.012 1153.97 358.461 1155.82 358.653 1157.56C359.038 1161.08 357.884 1164.54 355.961 1167.49C351.986 1173.52 344.998 1177.49 337.946 1178.58C329.42 1179.93 320.508 1178.13 312.174 1176.21C308.199 1175.25 304.097 1173.84 300.314 1172.3C296.083 1170.63 293.006 1168.65 289.993 1165.89C288.518 1164.54 287.364 1163.65 285.954 1162.17C284.479 1160.7 284.094 1158.97 283.774 1157.23C283.774 1156.21 283.902 1155.12 284.671 1154.35Z" fill="#E3DCD5"/>
    <path d="M321.79 1168.9C319.674 1165.63 318.2 1161.98 317.751 1158.07C317.751 1157.94 317.687 1157.75 317.687 1157.62C317.623 1157.3 318.2 1157.24 318.264 1157.56C319.482 1164.54 323.842 1171.85 330.188 1175.31C332.753 1176.73 335.766 1177.62 338.651 1178.14C338.971 1178.2 339.292 1178.26 339.677 1178.26C339.164 1178.39 338.715 1178.46 338.202 1178.52C337.176 1178.71 336.151 1178.78 335.189 1178.9C333.458 1178.33 331.791 1177.62 330.124 1176.85C326.598 1175.19 323.842 1172.11 321.79 1168.9Z" fill="#122528"/>
    <path d="M309.354 1143.2C309.418 1143 309.61 1142.87 309.803 1142.87C310.636 1143 311.021 1143.9 311.533 1144.41C312.11 1145.05 312.816 1145.57 313.521 1146.02C314.931 1146.91 316.598 1147.43 318.329 1147.55C321.855 1147.81 325.189 1146.14 327.368 1143.39C327.561 1143.13 328.01 1143.45 327.817 1143.77C325.83 1147.11 322.111 1148.9 318.329 1148.77C316.47 1148.71 314.675 1148.2 313.008 1147.3C312.175 1146.85 311.341 1146.21 310.7 1145.5C310.123 1144.99 309.033 1144.03 309.354 1143.2Z" fill="#122528"/>
    <path d="M345.062 1151.59C342.947 1150.12 340.767 1147.94 340.703 1146.21C340.639 1144.73 341.536 1143.39 342.562 1142.3C343.78 1140.95 345.255 1139.8 346.537 1138.52C347.883 1137.23 349.165 1135.82 350.255 1134.35C352.499 1131.34 353.781 1127.94 353.525 1124.35C353.397 1122.55 352.884 1120.63 351.986 1119.03C351.409 1118 350.768 1116.97 350.319 1115.88C349.935 1114.99 349.678 1113.77 350.576 1112.94C351.601 1112.04 353.012 1112.62 354.038 1113.26C356.923 1115.05 359.23 1117.62 360.961 1120.31C362.885 1123.19 364.103 1126.91 364.68 1130.57C365.385 1135.37 364.872 1140.25 363.398 1144.93C362.308 1148.26 360.192 1151.66 356.666 1153.32C353.076 1154.99 346.601 1152.68 345.062 1151.59Z" fill="#FFCE33"/>
    <path d="M321.727 1126.4C322.496 1126.91 322.817 1127.81 323.009 1128.64C323.073 1128.9 323.137 1129.29 323.137 1129.73C323.394 1131.27 323.073 1132.62 321.855 1132.49C321.727 1132.49 321.535 1132.43 321.407 1132.36C320.381 1132.11 319.612 1130.76 319.291 1129.35C319.227 1129.16 319.227 1129.03 319.163 1128.84C319.035 1128.07 319.035 1126.98 319.612 1126.4C320.253 1125.82 321.022 1125.95 321.727 1126.4Z" fill="white"/>
    <path d="M323.393 1123.13C323.457 1123.07 323.521 1123 323.585 1122.94C323.585 1122.87 323.649 1122.81 323.649 1122.75C324.034 1121.91 325.06 1121.91 325.637 1122.55C326.15 1123.13 326.278 1123.96 326.086 1124.73C326.15 1125.31 325.893 1125.89 325.252 1126.02C324.932 1126.08 324.675 1126.02 324.419 1125.89C324.226 1125.82 324.034 1125.76 323.906 1125.57C323.329 1125.05 322.944 1123.84 323.393 1123.13Z" fill="white"/>
    <path d="M315.316 1120.44C315.828 1121.08 316.213 1122.17 316.213 1123.07C316.213 1123.77 315.7 1124.41 314.931 1124.48C314.033 1124.48 313.2 1123.58 312.687 1123C311.918 1122.04 311.213 1120.57 312.302 1119.6C313.328 1118.58 314.674 1119.6 315.316 1120.44Z" fill="white"/>
    <path d="M329.227 1129.29C330.061 1129.54 330.83 1130.31 331.215 1131.02C331.343 1131.27 331.471 1131.46 331.471 1131.72C331.856 1132.55 331.792 1133.58 330.766 1133.9C329.868 1134.16 328.971 1133.58 328.266 1133C327.625 1132.43 326.919 1131.59 326.984 1130.63C327.112 1129.61 328.202 1129.03 329.227 1129.29Z" fill="white"/>
    <path d="M332.369 1136.4C332.946 1136.47 333.267 1136.98 333.459 1137.49C333.587 1137.75 333.587 1138.07 333.523 1138.39C333.523 1138.45 333.523 1138.52 333.523 1138.58C333.523 1139.16 333.074 1139.73 332.433 1139.67C331.792 1139.61 331.408 1139.16 331.023 1138.71C330.638 1138.2 330.574 1137.62 330.831 1137.11C331.215 1136.4 331.856 1136.34 332.369 1136.4Z" fill="white"/>
    <path d="M288.326 1157.75C289.095 1157.04 290.249 1157.24 290.954 1157.94C291.018 1157.94 291.018 1158.01 291.083 1158.07C291.659 1158.58 291.788 1159.29 291.724 1159.99C291.98 1160.89 291.467 1161.92 290.506 1162.11C289.352 1162.3 288.262 1161.66 287.877 1160.57C287.492 1159.61 287.557 1158.45 288.326 1157.75Z" fill="white"/>
    <path d="M295.634 1165.51C295.506 1164.99 295.763 1164.48 296.276 1164.35C296.532 1164.29 296.788 1164.35 296.981 1164.42C297.173 1164.48 297.365 1164.61 297.429 1164.74C297.494 1164.8 297.558 1164.8 297.622 1164.87C298.199 1165.44 298.327 1166.6 297.942 1167.3C297.686 1167.75 297.237 1167.82 296.788 1167.75C296.404 1167.69 296.083 1167.37 295.891 1167.05C295.634 1166.73 295.57 1166.28 295.57 1165.89C295.57 1165.83 295.57 1165.7 295.634 1165.51C295.634 1165.57 295.634 1165.51 295.634 1165.51Z" fill="white"/>
    <path d="M294.994 1158.07C295.827 1157.75 296.532 1158.13 297.045 1158.77C297.173 1158.9 297.302 1159.1 297.366 1159.35C297.366 1159.42 297.366 1159.48 297.366 1159.48C297.494 1159.93 297.494 1160.44 297.237 1160.89C297.045 1161.28 296.596 1161.53 296.148 1161.53C296.084 1161.53 296.019 1161.53 295.891 1161.53C295.314 1161.85 294.609 1161.85 294.16 1161.21C293.904 1160.83 293.904 1160.38 293.904 1159.93C294.096 1159.29 294.224 1158.39 294.994 1158.07Z" fill="white"/>
    <path d="M325.637 1117.1C325.573 1117.42 325.252 1117.68 324.868 1117.68C324.034 1117.62 323.393 1117.1 323.137 1116.33C322.88 1115.5 323.393 1114.6 324.291 1114.48C324.611 1114.41 324.996 1114.41 325.252 1114.54C325.637 1114.73 325.765 1115.18 325.829 1115.63C325.829 1115.76 325.829 1115.95 325.765 1116.08C325.765 1116.46 325.701 1116.78 325.637 1117.1Z" fill="white"/>
    <path d="M307.623 1118.77C308.072 1118.45 308.649 1118.58 308.969 1118.96C309.418 1119.41 309.482 1120.05 309.546 1120.57C309.546 1120.63 309.546 1120.7 309.546 1120.7C309.674 1121.14 309.61 1121.59 309.29 1121.91C308.456 1122.68 306.982 1122.17 306.789 1121.08C306.597 1120.18 306.918 1119.28 307.623 1118.77Z" fill="white"/>
    <path d="M292.749 1143.65C293.903 1143.2 295.442 1143.52 296.339 1144.41C296.724 1144.74 296.852 1145.18 296.916 1145.57C296.98 1145.76 297.044 1145.89 297.108 1146.08C297.429 1147.68 295.955 1149.03 294.48 1149.09C293.07 1149.16 291.595 1148.2 291.082 1146.91C290.505 1145.5 291.403 1144.16 292.749 1143.65Z" fill="white"/>
    <path d="M296.788 1150.63C296.467 1150.25 296.916 1149.54 297.429 1149.54C297.685 1149.54 297.942 1149.54 298.198 1149.67L298.262 1149.74C298.839 1149.74 298.968 1150.44 298.968 1150.95C298.968 1151.4 298.519 1151.66 298.198 1151.59C297.942 1151.53 297.685 1151.53 297.493 1151.4C297.173 1151.21 296.98 1150.89 296.788 1150.63Z" fill="white"/>
    <path d="M302.302 1159.87C302.494 1159.67 302.751 1159.61 303.007 1159.54C303.584 1159.48 304.161 1160.12 304.417 1160.7C304.481 1160.83 304.481 1160.96 304.546 1161.15C304.546 1161.21 304.546 1161.21 304.546 1161.28C304.546 1161.47 304.481 1161.72 304.417 1161.85C304.289 1162.94 302.815 1163.52 301.917 1162.69C301.404 1162.24 301.212 1161.4 301.404 1160.7C301.468 1160.25 301.853 1159.99 302.302 1159.87Z" fill="white"/>
    <path d="M300.25 1102.61C301.019 1102.17 302.173 1102.68 302.942 1102.94C304.096 1103.32 305.186 1103.83 306.212 1104.47C308.007 1105.56 309.481 1106.85 310.251 1108.83C310.443 1109.41 309.994 1109.15 309.802 1108.96C308.52 1107.42 307.366 1106.2 305.507 1105.18C304.609 1104.67 303.647 1104.22 302.686 1103.9C301.917 1103.64 300.827 1103.64 300.186 1103.06C300.057 1102.94 300.122 1102.74 300.25 1102.61Z" fill="#E3DCD5"/>
    <path d="M280.889 1097.93C281.786 1097.48 282.94 1097.61 283.902 1097.61C285.056 1097.61 286.787 1097.61 287.877 1097.81C290.249 1098.19 292.108 1098.25 294.416 1099.54C294.608 1099.66 294.416 1099.92 294.16 1099.92C291.98 1099.66 290.762 1099.47 287.877 1099.02C286.659 1098.83 285.761 1098.96 284.479 1098.9C283.453 1098.83 281.979 1098.9 280.953 1098.77C280.633 1098.7 280.568 1098.13 280.889 1097.93Z" fill="#E3DCD5"/>
    <path d="M263.836 1104.79C264.22 1104.47 264.541 1104.15 264.925 1103.83C265.695 1103.06 266.336 1102.42 267.169 1101.72C268.708 1100.37 270.567 1099.6 272.619 1099.66C272.875 1099.66 273.003 1099.92 272.747 1099.99C271.208 1100.69 270.118 1101.01 268.387 1102.29C267.618 1102.87 266.144 1104.02 265.438 1104.67C264.925 1105.18 264.156 1106.14 263.387 1106.2C263.195 1106.2 263.066 1106.01 263.13 1105.88C263.195 1105.43 263.515 1105.05 263.836 1104.79Z" fill="#E3DCD5"/>
    <path d="M252.937 1120.82C252.809 1120.88 252.617 1120.88 252.553 1120.69C252.04 1119.99 252.809 1118.7 253.129 1118C253.514 1117.04 253.963 1116.14 254.54 1115.24C255.566 1113.51 256.784 1112.1 258.515 1111.01C258.707 1110.88 259.028 1111.08 258.899 1111.27C257.553 1112.74 256.399 1114.02 255.437 1115.76C254.925 1116.65 254.476 1117.55 254.155 1118.51C253.771 1119.22 253.642 1120.56 252.937 1120.82Z" fill="#E3DCD5"/>
    <path d="M248.834 1137.36C248.706 1137.68 248.321 1137.68 248.193 1137.36C247.873 1136.66 248.001 1135.76 248.065 1134.99C248.129 1134.09 248.257 1133.19 248.45 1132.3C248.834 1130.63 249.155 1128.96 250.373 1127.74C250.565 1127.55 250.629 1127.74 250.565 1127.94C250.181 1129.73 249.604 1130.89 249.283 1132.55C249.155 1133.39 249.091 1134.22 249.027 1135.05C248.963 1135.76 249.091 1136.59 248.834 1137.36Z" fill="#E3DCD5"/>
    <path d="M247.873 1142.49C248.386 1145.05 248.514 1146.66 248.899 1148.58C249.091 1149.61 249.283 1150.69 249.476 1151.72C249.668 1152.62 249.988 1153.58 249.732 1154.48C249.668 1154.67 249.347 1154.8 249.219 1154.61C248.642 1153.84 248.578 1152.94 248.386 1152.04C248.193 1151.02 248.001 1149.93 247.873 1148.9C247.552 1146.85 247.296 1144.03 247.488 1142.49C247.488 1142.23 247.809 1142.3 247.873 1142.49Z" fill="#E3DCD5"/>
    <path d="M250.693 1159.09C251.014 1159.67 251.078 1160.5 251.27 1161.15C251.527 1162.04 251.911 1162.81 252.36 1163.65C252.745 1164.42 253.193 1165.18 253.642 1166.02C253.963 1166.6 254.411 1167.36 254.155 1168.01C254.091 1168.13 253.963 1168.26 253.835 1168.2C253.129 1167.94 252.873 1167.04 252.552 1166.4C252.104 1165.51 251.719 1164.61 251.334 1163.71C250.95 1162.88 250.693 1162.04 250.501 1161.15C250.373 1160.5 250.244 1159.67 250.565 1159.16C250.501 1158.97 250.629 1158.97 250.693 1159.09Z" fill="#E3DCD5"/>
    <path d="M256.912 1172.68C257.489 1173.2 258.707 1174.8 259.476 1175.95C260.181 1176.98 261.143 1178.2 260.951 1179.48C260.951 1179.67 260.694 1179.8 260.566 1179.67C259.668 1178.71 259.22 1177.36 258.514 1176.21C257.809 1175.12 257.168 1173.97 256.655 1172.75C256.527 1172.49 256.719 1172.49 256.912 1172.68Z" fill="#E3DCD5"/>
    <path d="M264.605 1182.43C265.567 1183.01 266.208 1183.9 267.041 1184.67C267.81 1185.38 268.772 1186.15 269.221 1187.11C269.541 1187.75 268.708 1188.26 268.259 1187.69C267.618 1186.79 266.977 1185.96 266.208 1185.19C265.438 1184.35 264.733 1183.58 264.284 1182.56C264.156 1182.3 264.284 1182.24 264.605 1182.43Z" fill="#E3DCD5"/>
    <path d="M355.833 1121.65C355.064 1122.04 354.166 1122.36 353.333 1122.55C353.269 1122.36 353.269 1122.17 353.205 1121.98C353.91 1121.78 354.615 1121.59 355.256 1121.27C356.859 1120.56 358.333 1119.47 359.167 1117.87C359.167 1117.87 359.167 1117.87 359.167 1117.81C359.295 1117.94 359.423 1118.13 359.551 1118.26C358.718 1119.8 357.308 1120.89 355.833 1121.65Z" fill="#DA7015"/>
    <path d="M355.768 1130.76C354.743 1130.69 353.653 1130.57 352.563 1130.37C352.691 1130.12 352.755 1129.86 352.819 1129.6C353.717 1129.8 354.614 1129.92 355.512 1129.99C357.499 1130.12 359.807 1130.05 361.538 1128.83C362.372 1128.26 363.141 1127.55 363.91 1126.85C363.974 1127.04 364.039 1127.23 364.103 1127.49C363.462 1128.07 362.82 1128.64 362.115 1129.16C360.32 1130.63 358.012 1130.82 355.768 1130.76Z" fill="#DA7015"/>
    <path d="M356.923 1135.37C354.871 1134.86 353.012 1133.96 351.345 1132.75C351.473 1132.49 351.602 1132.23 351.794 1131.98C353.333 1133.26 355.256 1134.09 357.179 1134.67C359.679 1135.37 362.5 1135.37 365 1134.67C365 1134.86 365 1135.05 365 1135.25C362.436 1136.02 359.615 1136.02 356.923 1135.37Z" fill="#DA7015"/>
    <path d="M341.985 1143.07C342.178 1142.81 342.37 1142.62 342.562 1142.43C342.691 1142.75 342.883 1143.07 343.011 1143.39C344.165 1145.57 345.832 1147.43 347.627 1148.97C350.063 1151.02 353.076 1152.68 356.218 1153.52C355.897 1153.65 355.576 1153.71 355.256 1153.77C352.307 1152.94 349.55 1151.4 347.178 1149.41C345.191 1147.81 343.46 1145.76 342.242 1143.52C342.114 1143.39 342.049 1143.2 341.985 1143.07Z" fill="#DA7015"/>
    <path d="M358.012 1116.59C357.692 1117.1 357.307 1117.55 356.922 1118C355.897 1119.28 354.743 1120.5 353.332 1121.4C353.268 1121.46 353.14 1121.53 353.012 1121.59C352.948 1121.33 352.883 1121.14 352.819 1120.89C353.012 1120.82 353.14 1120.69 353.332 1120.57C354.614 1119.73 355.704 1118.58 356.666 1117.36C356.986 1116.98 357.307 1116.53 357.628 1116.08C357.756 1116.27 357.884 1116.4 358.012 1116.59Z" fill="#DA7015"/>
    <path d="M360.449 1145.44C358.077 1144.93 355.961 1143.84 353.974 1142.43C351.858 1140.89 349.871 1138.97 348.14 1136.98L348.076 1136.91C348.268 1136.72 348.396 1136.53 348.589 1136.34C348.781 1136.53 348.973 1136.79 349.166 1136.98C350.832 1138.84 352.692 1140.63 354.743 1142.11C357.307 1143.97 360.256 1144.86 363.27 1145.31C363.205 1145.5 363.141 1145.7 363.077 1145.83C362.18 1145.83 361.282 1145.63 360.449 1145.44Z" fill="#DA7015"/>
    <path d="M349.742 1146.98C347.563 1145.44 345.704 1143.45 344.421 1141.14C344.357 1141.02 344.293 1140.89 344.229 1140.76C344.421 1140.57 344.678 1140.38 344.87 1140.18C344.934 1140.38 345.062 1140.57 345.191 1140.76C346.409 1143.07 348.268 1144.99 350.383 1146.47C353.397 1148.58 357.115 1149.8 360.833 1150.06C360.705 1150.25 360.577 1150.38 360.384 1150.57C356.538 1150.38 352.82 1149.16 349.742 1146.98Z" fill="#DA7015"/>
    <path d="M355.128 1140.38C353.012 1139.16 351.025 1137.49 349.422 1135.44C349.614 1135.18 349.807 1134.93 349.999 1134.73C351.409 1136.66 353.204 1138.32 355.32 1139.61C358.013 1141.27 361.09 1142.17 364.167 1142.04C364.103 1142.23 364.103 1142.43 364.039 1142.62C360.962 1142.81 357.884 1141.98 355.128 1140.38Z" fill="#DA7015"/>
    <path d="M363.205 1124.73C361.731 1126.08 359.808 1126.98 357.82 1127.55C356.346 1127.94 354.807 1128.13 353.269 1128.07C353.333 1127.87 353.333 1127.62 353.397 1127.43C354.743 1127.43 356.025 1127.3 357.307 1127.04C359.359 1126.59 361.475 1125.69 363.013 1124.28C363.077 1124.41 363.141 1124.6 363.205 1124.73Z" fill="#DA7015"/>
    <path fill-rule="evenodd" clip-rule="evenodd" d="M1743.72 956.504C1744.42 956.404 1744.72 955.804 1745.12 955.504C1746.82 954.104 1748.62 953.004 1750.82 952.604C1752.72 952.304 1754.52 952.604 1755.82 954.104C1757.22 955.804 1757.52 957.804 1756.72 959.804C1755.72 962.304 1753.92 964.104 1751.62 965.404C1749.62 966.504 1747.42 967.504 1745.22 968.304C1743.82 968.804 1743.82 968.804 1743.82 970.404C1743.82 973.404 1743.92 976.404 1743.92 979.404C1743.92 981.204 1743.82 981.304 1742.02 981.304C1739.22 981.404 1739.32 981.404 1739.22 978.604C1739.12 972.204 1739.02 965.804 1738.92 959.404C1738.82 954.804 1739.22 950.204 1739.32 945.604C1739.32 943.904 1739.62 943.804 1741.32 943.704C1741.52 943.704 1741.82 943.704 1742.02 943.704C1743.52 943.804 1743.62 943.904 1743.62 945.304C1743.62 947.904 1743.52 950.504 1743.62 953.104C1743.62 954.304 1743.42 955.404 1743.72 956.504Z" fill="#6CB4B8"/>
    <path fill-rule="evenodd" clip-rule="evenodd" d="M1737.42 921.503C1737.72 920.103 1737.92 918.903 1738.22 917.703C1738.42 916.703 1738.72 915.703 1739.22 914.803C1740.62 912.503 1743.02 912.403 1744.62 914.503C1745.32 915.503 1745.82 916.503 1746.02 917.703C1746.32 918.903 1746.52 920.103 1746.82 921.303C1746.92 921.703 1746.82 922.103 1747.22 922.603C1748.02 920.603 1748.62 918.703 1749.72 917.003C1750.32 915.903 1751.12 915.003 1752.12 914.203C1754.12 912.703 1756.32 912.803 1758.22 914.403C1760.02 915.903 1760.82 917.903 1761.22 920.203C1761.72 923.703 1761.12 927.103 1759.82 930.303C1757.12 936.803 1752.82 941.803 1746.82 945.503C1742.22 948.303 1738.12 947.903 1734.52 943.903C1728.52 937.403 1725.72 929.703 1726.02 920.803C1726.02 920.003 1726.22 919.203 1726.52 918.503C1727.62 916.003 1729.82 915.203 1732.22 916.503C1733.72 917.303 1734.82 918.503 1735.82 919.903C1736.32 920.303 1736.52 921.003 1737.42 921.503Z" fill="#DA7015"/>
    <path fill-rule="evenodd" clip-rule="evenodd" d="M1726.01 977.29C1726.2 977.262 1726.29 977.093 1726.4 977.008C1726.88 976.612 1727.39 976.302 1728.01 976.189C1728.55 976.104 1729.06 976.189 1729.43 976.612C1729.82 977.093 1729.91 977.658 1729.68 978.223C1729.4 978.929 1728.89 979.437 1728.24 979.805C1727.67 980.115 1727.05 980.398 1726.43 980.624C1726.04 980.765 1726.04 980.765 1726.04 981.217C1726.04 982.065 1726.06 982.912 1726.06 983.76C1726.06 984.268 1726.04 984.297 1725.53 984.297C1724.74 984.325 1724.76 984.325 1724.74 983.534C1724.71 981.726 1724.68 979.918 1724.65 978.11C1724.62 976.81 1724.74 975.511 1724.76 974.211C1724.76 973.731 1724.85 973.703 1725.33 973.674C1725.39 973.674 1725.47 973.674 1725.53 973.674C1725.95 973.703 1725.98 973.731 1725.98 974.126C1725.98 974.861 1725.95 975.595 1725.98 976.33C1725.98 976.669 1725.92 976.98 1726.01 977.29Z" fill="#6CB4B8"/>
    <path fill-rule="evenodd" clip-rule="evenodd" d="M1724.23 967.402C1724.31 967.007 1724.37 966.668 1724.45 966.329C1724.51 966.046 1724.59 965.764 1724.74 965.509C1725.13 964.86 1725.81 964.831 1726.26 965.425C1726.46 965.707 1726.6 965.99 1726.66 966.329C1726.74 966.668 1726.8 967.007 1726.88 967.346C1726.91 967.459 1726.88 967.572 1727 967.713C1727.22 967.148 1727.39 966.611 1727.7 966.131C1727.87 965.82 1728.1 965.566 1728.38 965.34C1728.94 964.916 1729.57 964.944 1730.1 965.396C1730.61 965.82 1730.84 966.385 1730.95 967.035C1731.09 968.024 1730.92 968.984 1730.55 969.888C1729.79 971.725 1728.58 973.137 1726.88 974.182C1725.58 974.973 1724.42 974.86 1723.41 973.73C1721.71 971.894 1720.92 969.719 1721.01 967.205C1721.01 966.979 1721.06 966.753 1721.15 966.555C1721.46 965.848 1722.08 965.622 1722.76 965.99C1723.18 966.216 1723.49 966.555 1723.77 966.95C1723.92 967.063 1723.97 967.261 1724.23 967.402Z" fill="#DA7015"/>
    <path fill-rule="evenodd" clip-rule="evenodd" d="M1713.51 952.435C1713.81 952.393 1713.93 952.139 1714.1 952.012C1714.82 951.418 1715.59 950.952 1716.52 950.783C1717.32 950.656 1718.09 950.783 1718.64 951.418C1719.23 952.139 1719.36 952.986 1719.02 953.834C1718.6 954.893 1717.83 955.656 1716.86 956.207C1716.01 956.673 1715.08 957.097 1714.15 957.436C1713.55 957.648 1713.55 957.648 1713.55 958.326C1713.55 959.597 1713.6 960.868 1713.6 962.14C1713.6 962.902 1713.55 962.945 1712.79 962.945C1711.6 962.987 1711.65 962.987 1711.6 961.801C1711.56 959.088 1711.52 956.376 1711.48 953.664C1711.43 951.715 1711.6 949.766 1711.65 947.816C1711.65 947.096 1711.77 947.054 1712.49 947.011C1712.58 947.011 1712.71 947.011 1712.79 947.011C1713.43 947.054 1713.47 947.096 1713.47 947.689C1713.47 948.791 1713.43 949.893 1713.47 950.995C1713.47 951.503 1713.38 951.969 1713.51 952.435Z" fill="#6CB4B8"/>
    <path fill-rule="evenodd" clip-rule="evenodd" d="M1710.84 937.603C1710.97 937.01 1711.05 936.502 1711.18 935.993C1711.26 935.569 1711.39 935.146 1711.6 934.764C1712.2 933.79 1713.21 933.747 1713.89 934.637C1714.19 935.061 1714.4 935.485 1714.48 935.993C1714.61 936.502 1714.7 937.01 1714.82 937.519C1714.87 937.688 1714.82 937.858 1714.99 938.07C1715.33 937.222 1715.59 936.417 1716.05 935.696C1716.31 935.23 1716.65 934.849 1717.07 934.51C1717.92 933.874 1718.85 933.917 1719.65 934.595C1720.42 935.23 1720.76 936.078 1720.93 937.053C1721.14 938.536 1720.88 939.976 1720.33 941.333C1719.19 944.087 1717.37 946.206 1714.82 947.774C1712.87 948.96 1711.14 948.791 1709.61 947.096C1707.07 944.341 1705.88 941.078 1706.01 937.307C1706.01 936.968 1706.09 936.629 1706.22 936.332C1706.69 935.273 1707.62 934.934 1708.64 935.485C1709.27 935.824 1709.74 936.332 1710.16 936.925C1710.37 937.095 1710.46 937.392 1710.84 937.603Z" fill="#DA7015"/>
    </svg>
    