<svg width="320" height="918" viewBox="0 0 320 918" fill="none" xmlns="http://www.w3.org/2000/svg">
    <path d="M320.416 44.1027C255.212 -42.5981 49.7195 21.3578 -0.583984 44.1027L-0.583537 878.486C3.02718 948.485 263.047 860.685 320.416 878.486V44.1027Z" fill="#DFEEF1"/>
    <path d="M47.17 897.533C47.1186 897.481 47.1186 897.404 47.17 897.352C47.6849 896.812 48.4573 897.43 48.6632 897.945C48.9207 898.64 48.483 899.438 48.1226 899.978C47.9166 900.287 47.6849 900.571 47.479 900.879C47.273 901.188 46.9641 901.575 47.0413 901.986C47.1443 902.604 48.1741 902.759 48.586 903.093C48.9207 903.351 49.2811 903.84 48.9721 904.226C48.6375 904.664 47.8909 904.612 47.4275 904.561C46.4235 904.458 44.6729 904.149 44.6729 902.862C44.6729 902.038 45.1362 901.214 45.4709 900.468C45.9343 899.412 46.5522 898.485 47.17 897.533Z" fill="#122528"/>
    <path d="M38.5456 871.377C38.3654 871.274 38.1852 871.171 38.005 871.068C37.4129 870.759 36.795 870.45 36.2801 870.012C35.9969 869.78 35.6108 869.291 35.9197 868.931C36.1771 868.622 36.7693 868.699 37.1297 868.725C37.6703 868.776 38.2109 868.931 38.7258 869.06C39.6526 869.291 40.5279 869.677 41.3775 870.115C42.0211 870.45 42.6647 870.81 43.2568 871.222C41.6864 871.068 40.0903 871.093 38.5456 871.377Z" fill="#FFCE33"/>
    <path d="M35.4047 872.38C34.1432 872.998 33.0877 873.899 32.1094 874.903C31.9807 875.032 31.852 875.161 31.7233 875.29C31.3371 875.212 30.9509 875.135 30.5905 875.032C29.9212 874.878 27.7844 874.337 28.2478 873.23C28.5052 872.664 29.2776 872.406 29.8182 872.226C30.7192 871.917 31.6975 871.84 32.6501 871.917C33.6026 871.969 34.5294 872.123 35.4819 872.355C35.4562 872.355 35.4304 872.355 35.4047 872.38Z" fill="#FFCE33"/>
    <path d="M31.4148 875.65C30.591 876.577 29.8701 877.581 29.2265 878.637C28.9948 879.023 28.7889 879.409 28.6086 879.795C27.8621 879.924 27.0897 880.078 26.3432 880.156C25.9827 880.181 25.5193 880.207 25.2104 880.001C24.85 879.769 24.9015 879.332 25.0302 878.997C25.4678 877.916 26.7036 877.375 27.6818 876.912C28.6086 876.474 29.6127 876.011 30.6167 875.779C30.8741 875.702 31.1316 875.676 31.4148 875.65Z" fill="#FFCE33"/>
    <path d="M51.0052 873.719C49.5893 872.818 47.9931 872.175 46.3712 871.763C46.0108 871.325 45.5989 870.913 45.2127 870.476C44.6721 869.858 44.08 869.085 44.1572 868.21C44.1572 868.107 44.2345 868.004 44.3632 868.004C45.4959 867.953 46.5772 868.39 47.5297 868.957C48.5595 869.575 49.4863 870.373 50.2844 871.248C50.9537 871.969 51.5458 872.793 52.0092 873.668C52.1637 873.951 52.3182 874.26 52.4211 874.595C52.2667 873.539 52.1122 872.458 52.3182 871.377C52.3439 871.274 52.4469 871.222 52.5241 871.222C53.2192 871.171 53.6569 871.763 53.94 872.303C54.3262 873.05 54.5322 873.9 54.6609 874.723C54.7639 875.367 54.8668 876.036 54.8668 876.706C54.8668 876.86 54.8668 877.349 54.7639 877.71C53.8628 876.114 52.6271 874.723 51.0052 873.719Z" fill="#FFCE33"/>
    <path d="M27.2695 883.167C26.9091 884.352 26.6774 885.587 26.5229 886.823C26.3942 887.879 26.3427 888.934 26.317 889.99C25.7764 890.608 25.0813 891.045 24.2317 891.045C24.103 891.045 24 890.942 24 890.814C24.1287 888.265 25.0555 884.764 27.2695 883.167Z" fill="#FFCE33"/>
    <path d="M26.5487 895.01C26.5744 894.932 26.6002 894.855 26.6517 894.778C26.6517 894.881 26.6774 894.958 26.6774 895.061C26.9606 897.146 27.3725 899.206 28.1191 901.137C28.0934 901.42 28.0419 901.677 27.9904 901.935C27.8874 902.372 27.7587 902.862 27.4497 903.196C27.1666 903.505 26.7804 903.376 26.5487 903.093C26.1625 902.63 26.0081 901.986 25.9308 901.394C25.8021 900.673 25.7764 899.927 25.7764 899.18C25.8021 897.764 26.0081 896.374 26.5487 895.01Z" fill="#FFCE33"/>
    <path d="M29.3032 903.634C29.7409 904.38 30.23 905.101 30.7449 905.796C30.7191 906.8 30.7191 907.779 30.2815 908.705C30.2557 908.783 30.1528 908.808 30.0755 908.783C28.5309 908.345 28.9685 905.951 29.123 904.818C29.2002 904.406 29.2775 904.02 29.3032 903.634Z" fill="#FFCE33"/>
    <path d="M33.989 908.989C34.6069 909.452 35.2762 909.864 35.9713 910.173C36.0486 910.533 36.0228 910.92 35.8941 911.28C35.7139 911.718 35.3535 912.001 34.8901 911.924C34.4009 911.846 34.0148 911.332 33.7573 910.971C33.4484 910.533 33.2167 910.044 33.1137 909.529C33.0365 909.117 33.0107 908.68 33.0107 908.242C33.3197 908.474 33.6543 908.731 33.989 908.989Z" fill="#FFCE33"/>
    <path d="M38.4793 913.746C39.0971 914.209 39.7665 914.621 40.4616 914.93C40.5388 915.291 40.5131 915.677 40.3843 916.037C40.2041 916.475 39.8437 916.758 39.3803 916.681C38.8912 916.604 38.505 916.089 38.2476 915.728C37.9386 915.291 37.7069 914.802 37.604 914.287C37.5267 913.875 37.501 913.437 37.501 913C37.8099 913.231 38.1446 913.489 38.4793 913.746Z" fill="#FFCE33"/>
    <path d="M39.9277 916.299C40.5828 915.68 40.3002 914.873 39.8047 914.296C40.5333 914.373 41.2533 914.532 41.9058 914.863C42.5583 915.194 43.0562 915.902 42.6047 916.607C42.1729 917.282 41.0984 917.07 40.4538 916.895C40.119 916.81 39.7786 916.7 39.4634 916.585C39.6284 916.496 39.7934 916.407 39.9277 916.299Z" fill="#FFCE33"/>
    <path d="M37.799 897.224C38.1336 897.301 38.3139 897.687 38.4168 897.97C38.803 898.949 38.8802 900.081 38.9575 901.111C38.9832 901.523 39.0089 901.909 39.0862 902.321C39.1119 902.579 39.2406 902.81 39.4209 902.991C39.6783 903.248 40.1674 903.094 40.4506 902.991C40.9655 902.836 41.5319 902.63 41.9953 902.991C42.4329 903.325 42.33 904.02 42.0468 904.432C41.6091 905.076 40.6308 905.127 39.9357 905.127C39.1377 905.127 38.3139 904.947 37.8762 904.226C37.6445 903.84 37.593 903.377 37.5415 902.939C37.4643 902.321 37.4128 901.703 37.3871 901.085C37.3356 900.159 37.2841 899.232 37.3098 898.305C37.2069 898.331 37.0781 898.254 37.0781 898.125C37.0781 897.713 37.2326 897.095 37.799 897.224Z" fill="#122528"/>
    <path d="M26.24 886.771C26.6004 883.811 27.5015 880.953 29.0204 878.379C29.8442 876.989 30.8482 875.701 31.9552 874.543C32.9592 873.513 34.0148 872.586 35.3277 871.969C37.7992 870.784 40.6825 870.527 43.3599 870.784C46.1146 871.042 48.9207 871.866 51.2892 873.333C53.6319 874.8 55.1508 877.04 56.2063 879.537C57.3391 882.318 57.9054 885.407 57.751 888.419C57.6995 889.32 57.5708 890.221 57.3391 891.122C57.4678 891.225 57.5193 891.405 57.3905 891.56C57.2876 891.663 57.1846 891.817 57.1074 891.946C57.0816 892.049 57.0301 892.152 57.0044 892.255C56.9786 892.306 56.9272 892.332 56.8757 892.332C56.7212 892.59 56.5925 892.873 56.4638 893.105C56.0518 893.825 55.6142 894.52 55.1508 895.164C54.224 896.477 53.117 897.636 51.8555 898.665C50.5426 899.721 49.0237 900.699 47.4018 901.163C45.6512 901.652 43.7976 901.652 42.0212 901.755C40.6568 901.832 39.1894 901.935 37.9021 902.424C37.413 902.604 36.9239 902.887 36.6149 903.299C36.2545 903.763 36.1773 904.355 36.203 904.921C36.2545 905.642 36.5119 906.208 36.9496 906.775C37.3615 907.29 37.8506 907.779 38.2368 908.294C38.7774 909.015 41.4011 916.933 40.5 917.499C39.9594 917.834 36.7694 912.055 36.203 911.874C35.302 911.591 34.6326 909.89 33.886 909.349C31.7493 907.779 30.0244 905.642 28.7887 903.325C27.4242 900.776 26.8064 897.97 26.4202 895.138C25.9825 892.384 25.8796 889.578 26.24 886.771Z" fill="#356F7C"/>
    <path d="M42.7423 895.447C43.0512 895.164 43.5146 895.087 43.9265 895.061C44.6216 895.01 45.3167 895.113 45.986 895.19C45.8316 895.087 45.6771 895.01 45.5226 894.932C45.0335 894.649 44.5444 894.392 44.0552 894.083C43.2829 893.594 42.4333 892.847 42.6908 891.843C42.974 890.685 44.1839 890.195 45.2395 890.092C46.3465 889.989 47.5564 890.17 48.6119 890.556C48.0198 889.732 47.3762 888.96 46.8613 888.059C46.295 887.055 45.8831 885.87 46.6039 884.841C47.2475 883.888 48.509 883.759 49.5645 883.837C50.5943 883.914 51.5983 884.197 52.5766 884.532C52.2161 884.146 51.8815 883.708 51.5468 883.296C50.8774 882.395 50.2081 881.391 49.9249 880.31C49.719 879.46 49.9249 878.559 50.8002 878.199C51.7785 877.787 52.937 878.25 53.8123 878.713C54.6104 879.125 55.3569 879.64 56.0263 880.232C56.3095 880.49 56.6184 880.773 56.8759 881.056C56.6699 879.872 56.5154 878.688 56.3352 877.504C56.2065 876.602 55.8203 875.058 56.9273 874.62C57.4422 874.414 57.8541 874.903 58.1116 875.264C58.4977 875.83 58.7552 876.525 58.9611 877.169C59.579 878.997 59.9652 880.902 60.7375 882.652C61.2781 883.862 61.7415 885.098 62.4366 886.205C62.9 886.952 63.7238 888.033 64.3159 888.677C65.1398 889.552 65.7319 890.015 66.8389 890.71C68.1004 891.508 69.3103 892.409 70.4946 893.31C71.0095 893.697 71.4986 894.109 71.8333 894.675C72.1937 895.293 72.3739 896.039 72.4511 896.734C72.6056 898.15 72.1422 899.541 71.3699 900.725C69.7737 903.145 66.9676 904.741 64.1357 905.179C60.7117 905.719 57.1333 904.998 53.7865 904.226C52.1904 903.84 50.5428 903.274 49.0239 902.656C47.3247 901.986 46.089 901.188 44.879 900.081C44.2869 899.541 43.8235 899.18 43.2571 898.588C42.665 897.996 42.5106 897.301 42.3818 896.606C42.3818 896.194 42.4333 895.756 42.7423 895.447Z" fill="#E3DCD5"/>
    <path d="M57.6477 901.292C56.7981 899.979 56.206 898.511 56.0258 896.941C56.0258 896.889 56 896.812 56 896.761C55.9743 896.632 56.206 896.606 56.2317 896.735C56.7209 899.541 58.4715 902.476 61.0202 903.866C62.0499 904.433 63.2599 904.793 64.4184 904.999C64.5471 905.025 64.6759 905.05 64.8303 905.05C64.6244 905.102 64.4442 905.128 64.2382 905.153C63.8263 905.231 63.4144 905.256 63.0282 905.308C62.3331 905.076 61.6638 904.793 60.9944 904.484C59.5785 903.815 58.4715 902.579 57.6477 901.292Z" fill="#122528"/>
    <path d="M52.6541 890.968C52.6798 890.891 52.7571 890.839 52.8343 890.839C53.169 890.891 53.3234 891.251 53.5294 891.457C53.7611 891.715 54.0443 891.921 54.3275 892.101C54.8938 892.461 55.5632 892.667 56.2583 892.719C57.6742 892.822 59.0129 892.152 59.8882 891.045C59.9655 890.942 60.1457 891.071 60.0684 891.2C59.2704 892.538 57.7772 893.259 56.2583 893.208C55.5117 893.182 54.7909 892.976 54.1215 892.616C53.7868 892.435 53.4522 892.178 53.1947 891.895C52.963 891.689 52.5254 891.303 52.6541 890.968Z" fill="#122528"/>
    <path d="M66.9931 894.34C66.1436 893.748 65.2683 892.873 65.2425 892.178C65.2168 891.586 65.5772 891.045 65.9891 890.607C66.4782 890.067 67.0703 889.603 67.5852 889.088C68.1259 888.574 68.6408 888.007 69.0784 887.415C69.9795 886.205 70.4943 884.841 70.3914 883.399C70.3399 882.678 70.1339 881.906 69.7735 881.262C69.5418 880.85 69.2844 880.438 69.1042 880.001C68.9497 879.64 68.8467 879.151 69.2071 878.816C69.619 878.456 70.1854 878.688 70.5973 878.945C71.7558 879.666 72.6826 880.696 73.3777 881.777C74.15 882.936 74.6392 884.429 74.8709 885.896C75.1541 887.827 74.9481 889.783 74.356 891.663C73.9183 893.002 73.0688 894.366 71.6528 895.035C70.2112 895.705 67.611 894.778 66.9931 894.34Z" fill="#FFCE33"/>
    <path d="M57.6219 884.223C57.9309 884.429 58.0596 884.79 58.1368 885.124C58.1626 885.227 58.1883 885.382 58.1883 885.562C58.2913 886.18 58.1626 886.721 57.6734 886.669C57.6219 886.669 57.5447 886.643 57.4932 886.618C57.0813 886.515 56.7724 885.974 56.6436 885.408C56.6179 885.33 56.6179 885.279 56.5922 885.202C56.5407 884.893 56.5407 884.455 56.7724 884.223C57.0298 883.992 57.3387 884.043 57.6219 884.223Z" fill="white"/>
    <path d="M58.2907 882.911C58.3165 882.885 58.3422 882.859 58.3679 882.833C58.3679 882.808 58.3937 882.782 58.3937 882.756C58.5482 882.422 58.9601 882.422 59.1918 882.679C59.3977 882.911 59.4492 883.245 59.372 883.554C59.3977 883.786 59.2947 884.018 59.0373 884.069C58.9086 884.095 58.8056 884.069 58.7026 884.018C58.6254 883.992 58.5482 883.966 58.4967 883.889C58.265 883.683 58.1105 883.194 58.2907 882.911Z" fill="white"/>
    <path d="M55.0472 881.829C55.2532 882.087 55.4077 882.524 55.4077 882.885C55.4077 883.168 55.2017 883.425 54.8928 883.451C54.5324 883.451 54.1977 883.091 53.9917 882.859C53.6828 882.473 53.3996 881.881 53.8373 881.494C54.2492 881.082 54.7898 881.494 55.0472 881.829Z" fill="white"/>
    <path d="M60.6332 885.382C60.9678 885.485 61.2768 885.794 61.4312 886.077C61.4827 886.18 61.5342 886.257 61.5342 886.36C61.6887 886.695 61.6629 887.107 61.251 887.235C60.8906 887.338 60.5302 887.107 60.247 886.875C59.9895 886.643 59.7064 886.309 59.7321 885.922C59.7836 885.51 60.2212 885.279 60.6332 885.382Z" fill="white"/>
    <path d="M61.8955 888.239C62.1272 888.265 62.2559 888.471 62.3331 888.677C62.3846 888.78 62.3846 888.909 62.3589 889.037C62.3589 889.063 62.3589 889.089 62.3589 889.114C62.3589 889.346 62.1787 889.578 61.9212 889.552C61.6638 889.526 61.5093 889.346 61.3548 889.166C61.2004 888.96 61.1746 888.728 61.2776 888.522C61.4321 888.239 61.6895 888.213 61.8955 888.239Z" fill="white"/>
    <path d="M44.2091 896.812C44.5181 896.529 44.9815 896.606 45.2646 896.889C45.2904 896.889 45.2904 896.915 45.3161 896.941C45.5478 897.147 45.5993 897.43 45.5736 897.713C45.6766 898.073 45.4706 898.485 45.0844 898.563C44.621 898.64 44.1834 898.382 44.0289 897.945C43.8745 897.559 43.9002 897.095 44.2091 896.812Z" fill="white"/>
    <path d="M47.1449 899.927C47.0934 899.721 47.1964 899.515 47.4023 899.464C47.5053 899.438 47.6083 899.464 47.6855 899.49C47.7628 899.515 47.84 899.567 47.8657 899.618C47.8915 899.644 47.9172 899.644 47.943 899.67C48.1747 899.901 48.2261 900.365 48.0717 900.648C47.9687 900.828 47.7885 900.854 47.6083 900.828C47.4538 900.802 47.3251 900.674 47.2479 900.545C47.1449 900.416 47.1191 900.236 47.1191 900.082C47.1191 900.056 47.1191 900.004 47.1449 899.927C47.1449 899.953 47.1449 899.927 47.1449 899.927Z" fill="white"/>
    <path d="M46.8869 896.941C47.2215 896.812 47.5047 896.967 47.7107 897.224C47.7622 897.275 47.8137 897.353 47.8394 897.456C47.8394 897.481 47.8394 897.507 47.8394 897.507C47.8909 897.687 47.8909 897.893 47.7879 898.074C47.7107 898.228 47.5305 898.331 47.3503 898.331C47.3245 898.331 47.2988 898.331 47.2473 898.331C47.0156 898.46 46.7324 898.46 46.5522 898.202C46.4492 898.048 46.4492 897.868 46.4492 897.687C46.5265 897.43 46.5779 897.07 46.8869 896.941Z" fill="white"/>
    <path d="M59.1917 880.49C59.1659 880.619 59.0372 880.722 58.8827 880.722C58.5481 880.696 58.2906 880.49 58.1876 880.181C58.0847 879.847 58.2906 879.486 58.651 879.435C58.7798 879.409 58.9342 879.409 59.0372 879.461C59.1917 879.538 59.2432 879.718 59.2689 879.898C59.2689 879.95 59.2689 880.027 59.2432 880.078C59.2432 880.233 59.2174 880.362 59.1917 880.49Z" fill="white"/>
    <path d="M51.9593 881.16C52.1395 881.031 52.3712 881.083 52.4999 881.237C52.6801 881.417 52.7059 881.675 52.7316 881.881C52.7316 881.906 52.7316 881.932 52.7316 881.932C52.7831 882.112 52.7574 882.293 52.6286 882.421C52.294 882.73 51.7018 882.524 51.6246 882.087C51.5474 881.726 51.6761 881.366 51.9593 881.16Z" fill="white"/>
    <path d="M45.9849 891.148C46.4483 890.968 47.0662 891.097 47.4266 891.457C47.5811 891.586 47.6326 891.766 47.6583 891.921C47.6841 891.998 47.7098 892.049 47.7356 892.127C47.8643 892.77 47.2722 893.311 46.68 893.337C46.1137 893.362 45.5215 892.976 45.3156 892.461C45.0839 891.895 45.4443 891.354 45.9849 891.148Z" fill="white"/>
    <path d="M47.6067 893.955C47.478 893.8 47.6582 893.517 47.8642 893.517C47.9671 893.517 48.0701 893.517 48.1731 893.569L48.1988 893.594C48.4305 893.594 48.482 893.878 48.482 894.083C48.482 894.264 48.3018 894.367 48.1731 894.341C48.0701 894.315 47.9671 894.315 47.8899 894.264C47.7612 894.186 47.684 894.058 47.6067 893.955Z" fill="white"/>
    <path d="M49.8214 897.662C49.8987 897.585 50.0016 897.559 50.1046 897.533C50.3363 897.507 50.568 897.765 50.671 897.996C50.6967 898.048 50.6967 898.099 50.7225 898.177C50.7225 898.202 50.7225 898.202 50.7225 898.228C50.7225 898.305 50.6967 898.408 50.671 898.46C50.6195 898.897 50.0274 899.129 49.667 898.794C49.461 898.614 49.3838 898.28 49.461 897.996C49.4868 897.816 49.6412 897.713 49.8214 897.662Z" fill="white"/>
    <path d="M48.9981 874.672C49.3071 874.492 49.7705 874.698 50.0794 874.801C50.5428 874.956 50.9805 875.162 51.3924 875.419C52.1132 875.857 52.7053 876.371 53.0143 877.17C53.0915 877.401 52.9113 877.298 52.834 877.221C52.3192 876.603 51.8558 876.114 51.1092 875.702C50.7488 875.496 50.3626 875.316 49.9764 875.187C49.6675 875.084 49.2298 875.084 48.9724 874.853C48.9209 874.801 48.9467 874.724 48.9981 874.672Z" fill="#E3DCD5"/>
    <path d="M41.2233 872.792C41.5837 872.612 42.0471 872.664 42.4333 872.664C42.8967 872.664 43.5918 872.664 44.0294 872.741C44.982 872.895 45.7285 872.921 46.6553 873.436C46.7326 873.487 46.6553 873.59 46.5524 873.59C45.6771 873.487 45.1879 873.41 44.0294 873.23C43.5403 873.153 43.1799 873.204 42.665 873.178C42.2531 873.153 41.661 873.178 41.249 873.127C41.1203 873.101 41.0946 872.87 41.2233 872.792Z" fill="#E3DCD5"/>
    <path d="M34.3748 875.547C34.5293 875.418 34.658 875.289 34.8125 875.161C35.1214 874.852 35.3789 874.594 35.7135 874.311C36.3314 873.771 37.078 873.462 37.9018 873.487C38.0048 873.487 38.0563 873.59 37.9533 873.616C37.3354 873.899 36.8978 874.028 36.2027 874.543C35.8938 874.775 35.3016 875.238 35.0184 875.495C34.8125 875.701 34.5036 876.088 34.1946 876.113C34.1174 876.113 34.0659 876.036 34.0917 875.985C34.1174 875.804 34.2461 875.65 34.3748 875.547Z" fill="#E3DCD5"/>
    <path d="M29.9988 881.983C29.9473 882.009 29.8701 882.009 29.8443 881.931C29.6384 881.648 29.9473 881.133 30.076 880.85C30.2305 880.464 30.4107 880.104 30.6424 879.743C31.0543 879.048 31.5434 878.482 32.2385 878.044C32.3158 877.993 32.4445 878.07 32.393 878.147C31.8524 878.739 31.389 879.254 31.0028 879.949C30.7969 880.31 30.6166 880.67 30.4879 881.056C30.3335 881.339 30.282 881.88 29.9988 881.983Z" fill="#E3DCD5"/>
    <path d="M28.3519 888.625C28.3004 888.754 28.1459 888.754 28.0944 888.625C27.9657 888.342 28.0172 887.981 28.0429 887.673C28.0687 887.312 28.1202 886.952 28.1974 886.591C28.3518 885.922 28.4806 885.253 28.9697 884.763C29.0469 884.686 29.0727 884.763 29.0469 884.841C28.8925 885.562 28.6608 886.025 28.5321 886.694C28.4806 887.029 28.4548 887.364 28.4291 887.698C28.4033 887.981 28.4548 888.316 28.3519 888.625Z" fill="#E3DCD5"/>
    <path d="M27.9653 890.685C28.1712 891.714 28.2227 892.358 28.3772 893.13C28.4544 893.542 28.5316 893.98 28.6089 894.392C28.6861 894.752 28.8148 895.138 28.7118 895.499C28.6861 895.576 28.5574 895.628 28.5059 895.55C28.2742 895.241 28.2484 894.881 28.1712 894.521C28.094 894.109 28.0167 893.671 27.9653 893.259C27.8365 892.435 27.7336 891.302 27.8108 890.685C27.8108 890.582 27.9395 890.607 27.9653 890.685Z" fill="#E3DCD5"/>
    <path d="M29.0971 897.353C29.2258 897.584 29.2516 897.919 29.3288 898.177C29.4318 898.537 29.5863 898.846 29.7665 899.181C29.9209 899.49 30.1011 899.798 30.2814 900.133C30.4101 900.365 30.5903 900.674 30.4873 900.931C30.4616 900.983 30.4101 901.034 30.3586 901.008C30.0754 900.905 29.9724 900.545 29.8437 900.288C29.6635 899.927 29.509 899.567 29.3546 899.206C29.2001 898.872 29.0971 898.537 29.0199 898.177C28.9684 897.919 28.9169 897.584 29.0456 897.379C29.0199 897.301 29.0714 897.301 29.0971 897.353Z" fill="#E3DCD5"/>
    <path d="M31.5943 902.81C31.826 903.016 32.3151 903.66 32.624 904.123C32.9072 904.535 33.2934 905.024 33.2161 905.539C33.2161 905.617 33.1132 905.668 33.0617 905.617C32.7013 905.23 32.521 904.69 32.2379 904.226C31.9547 903.789 31.6972 903.325 31.4913 902.836C31.4398 902.733 31.517 902.733 31.5943 902.81Z" fill="#E3DCD5"/>
    <path d="M34.6846 906.723C35.0707 906.955 35.3282 907.315 35.6629 907.624C35.9718 907.907 36.358 908.216 36.5382 908.602C36.6669 908.86 36.3322 909.066 36.152 908.834C35.8946 908.474 35.6371 908.139 35.3282 907.83C35.0193 907.495 34.7361 907.187 34.5559 906.775C34.5044 906.672 34.5559 906.646 34.6846 906.723Z" fill="#E3DCD5"/>
    <path d="M71.3182 882.318C71.0093 882.473 70.6489 882.601 70.3142 882.679C70.2884 882.601 70.2884 882.524 70.2627 882.447C70.5459 882.37 70.8291 882.292 71.0865 882.164C71.7301 881.88 72.3222 881.443 72.6569 880.799C72.6569 880.799 72.6569 880.799 72.6569 880.773C72.7084 880.825 72.7599 880.902 72.8114 880.954C72.4767 881.572 71.9103 882.009 71.3182 882.318Z" fill="#DA7015"/>
    <path d="M71.2931 885.973C70.8812 885.947 70.4435 885.896 70.0059 885.819C70.0573 885.716 70.0831 885.613 70.1088 885.51C70.4693 885.587 70.8297 885.639 71.1901 885.664C71.9882 885.716 72.915 885.69 73.6101 885.201C73.9447 884.969 74.2537 884.686 74.5626 884.403C74.5883 884.48 74.6141 884.557 74.6398 884.66C74.3824 884.892 74.1249 885.124 73.8418 885.33C73.1209 885.922 72.1941 885.999 71.2931 885.973Z" fill="#DA7015"/>
    <path d="M71.7564 887.827C70.9325 887.621 70.186 887.261 69.5166 886.772C69.5681 886.669 69.6196 886.566 69.6968 886.463C70.3147 886.978 71.087 887.312 71.8593 887.544C72.8634 887.827 73.9961 887.827 75.0001 887.544C75.0001 887.621 75.0001 887.699 75.0001 887.776C73.9704 888.085 72.8376 888.085 71.7564 887.827Z" fill="#DA7015"/>
    <path d="M65.7578 890.917C65.835 890.814 65.9123 890.736 65.9895 890.659C66.041 890.788 66.1182 890.917 66.1697 891.045C66.6331 891.921 67.3025 892.667 68.0233 893.285C69.0016 894.109 70.2116 894.778 71.473 895.113C71.3443 895.164 71.2156 895.19 71.0869 895.216C69.9026 894.881 68.7956 894.263 67.8431 893.465C67.045 892.822 66.3499 891.998 65.8608 891.097C65.8093 891.045 65.7836 890.968 65.7578 890.917Z" fill="#DA7015"/>
    <path d="M72.1937 880.284C72.065 880.49 71.9105 880.67 71.756 880.85C71.3441 881.365 70.8807 881.854 70.3143 882.215C70.2886 882.241 70.2371 882.266 70.1856 882.292C70.1599 882.189 70.1341 882.112 70.1084 882.009C70.1856 881.983 70.2371 881.932 70.3143 881.88C70.8292 881.546 71.2669 881.082 71.6531 880.593C71.7818 880.439 71.9105 880.258 72.0392 880.078C72.0907 880.155 72.1422 880.207 72.1937 880.284Z" fill="#DA7015"/>
    <path d="M73.1718 891.87C72.2192 891.664 71.3697 891.226 70.5716 890.66C69.722 890.042 68.924 889.269 68.2289 888.471L68.2031 888.446C68.2804 888.368 68.3318 888.291 68.4091 888.214C68.4863 888.291 68.5635 888.394 68.6408 888.471C69.3101 889.218 70.0567 889.939 70.8805 890.531C71.9103 891.277 73.0945 891.638 74.3045 891.818C74.2788 891.895 74.253 891.973 74.2273 892.024C73.8669 892.024 73.5064 891.947 73.1718 891.87Z" fill="#DA7015"/>
    <path d="M68.8722 892.487C67.9969 891.869 67.2503 891.071 66.7354 890.144C66.7097 890.093 66.6839 890.041 66.6582 889.99C66.7354 889.913 66.8384 889.836 66.9156 889.758C66.9414 889.836 66.9929 889.913 67.0444 889.99C67.5335 890.917 68.2801 891.689 69.1296 892.281C70.3396 893.131 71.8328 893.62 73.326 893.723C73.2745 893.8 73.223 893.852 73.1458 893.929C71.6011 893.852 70.1079 893.362 68.8722 892.487Z" fill="#DA7015"/>
    <path d="M71.0354 889.836C70.1858 889.347 69.3877 888.677 68.7441 887.853C68.8214 887.751 68.8986 887.648 68.9758 887.57C69.5422 888.343 70.2631 889.012 71.1126 889.527C72.1939 890.196 73.4296 890.557 74.6653 890.505C74.6396 890.582 74.6396 890.66 74.6138 890.737C73.3781 890.814 72.1424 890.479 71.0354 889.836Z" fill="#DA7015"/>
    <path d="M74.2794 883.554C73.6873 884.094 72.915 884.455 72.1169 884.686C71.5248 884.841 70.9069 884.918 70.2891 884.892C70.3148 884.815 70.3148 884.712 70.3406 884.635C70.8812 884.635 71.3961 884.584 71.911 884.481C72.7348 884.3 73.5843 883.94 74.2022 883.374C74.2279 883.425 74.2537 883.502 74.2794 883.554Z" fill="#DA7015"/>
    </svg>
    