<svg width="1920" height="1534" viewBox="0 0 1920 1534" fill="none" xmlns="http://www.w3.org/2000/svg">
    <path opacity="0.5" d="M437.368 33.3762C355.388 -6.19032 104.687 -23.5239 52.4637 55.9396C-17.0192 161.666 -1.52638 331.829 -1.52634 395.648V1406.5C-1.5268 1515.33 1920 1627.35 1920 1406.5V481.974V250.437C1920 160.603 1839.17 71.3612 1511.1 130.4C1442.59 142.729 593.829 108.89 437.368 33.3762Z" fill="url(#paint0_linear)"/>
    <path d="M203.158 637.86C201.458 637.46 200.958 639.16 200.258 640.36C198.358 644.16 195.858 647.76 192.958 650.96C194.958 644.86 197.558 639.16 199.958 633.16C200.658 631.56 203.858 620.86 198.758 622.86C195.658 623.96 193.958 629.06 192.758 631.76C191.058 635.76 189.058 639.66 187.358 643.66C187.258 640.66 187.258 637.66 187.458 634.66C187.558 633.26 185.858 632.76 184.958 633.56C183.658 634.56 183.258 638.26 182.858 639.76C181.658 644.66 180.758 649.66 181.058 654.66C181.258 657.46 181.458 663.26 185.658 662.46C186.858 662.26 187.858 661.06 188.758 660.36C190.458 661.16 192.758 659.46 193.958 658.56C199.758 654.36 202.858 647.06 204.758 640.46C205.258 639.26 204.258 638.16 203.158 637.86Z" fill="#FFCE33"/>
    <path d="M298.458 634.46C300.458 632.46 306.458 629.26 307.158 626.56C307.958 622.96 304.158 623.66 302.358 624.56C295.958 627.76 288.758 631.76 285.358 638.36C280.158 641.66 286.958 645.36 289.758 646.66C293.758 648.56 297.958 649.26 302.358 649.06C304.358 648.96 312.958 649.06 309.858 644.76C308.458 642.76 300.658 643.36 298.058 642.56C301.558 641.16 305.158 639.96 308.658 638.76C311.158 637.86 318.558 636.16 319.258 633.06C320.058 628.26 300.558 633.76 298.458 634.46Z" fill="#FFCE33"/>
    <path d="M235.059 609.16C235.159 609.06 235.159 609.06 235.059 609.16V609.16Z" fill="#FFCE33"/>
    <path d="M250.958 614.76C249.758 615.56 249.358 617.66 248.458 618.86C247.358 620.26 245.958 621.56 244.558 622.76C246.558 617.36 248.358 611.96 250.758 606.76C251.758 604.56 256.158 599.06 251.558 598.06C245.258 596.76 238.358 616.96 236.258 621.26C234.858 617.46 234.158 613.86 234.958 609.86C235.458 606.96 230.758 605.46 229.758 608.36C228.558 612.06 228.258 616.06 228.758 619.86C229.258 623.66 232.858 640.96 239.658 635.56C244.958 634.46 252.258 625.56 253.958 620.46C254.658 618.66 254.758 612.06 250.958 614.76Z" fill="#FFCE33"/>
    <path d="M235.058 609.16C235.058 609.26 234.958 609.46 234.958 609.86C235.058 609.46 235.058 609.26 235.058 609.16Z" fill="#FFCE33"/>
    <path d="M1521.16 836.86C1519.46 836.46 1518.96 838.16 1518.26 839.36C1516.36 843.16 1513.86 846.76 1510.96 849.96C1512.96 843.86 1515.56 838.16 1517.96 832.16C1518.66 830.56 1521.86 819.86 1516.76 821.86C1513.66 822.96 1511.96 828.06 1510.76 830.76C1509.06 834.76 1507.06 838.66 1505.36 842.66C1505.26 839.66 1505.26 836.66 1505.46 833.66C1505.56 832.26 1503.86 831.76 1502.96 832.56C1501.66 833.56 1501.26 837.26 1500.86 838.76C1499.66 843.66 1498.76 848.66 1499.06 853.66C1499.26 856.46 1499.46 862.26 1503.66 861.46C1504.86 861.26 1505.86 860.06 1506.76 859.36C1508.46 860.16 1510.76 858.46 1511.96 857.56C1517.76 853.36 1520.86 846.06 1522.76 839.46C1523.26 838.26 1522.26 837.16 1521.16 836.86Z" fill="#FFCE33"/>
    <path d="M1616.46 833.46C1618.46 831.46 1624.46 828.26 1625.16 825.56C1625.96 821.96 1622.16 822.66 1620.36 823.56C1613.96 826.76 1606.76 830.76 1603.36 837.36C1598.16 840.66 1604.96 844.36 1607.76 845.66C1611.76 847.56 1615.96 848.26 1620.36 848.06C1622.36 847.96 1630.96 848.06 1627.86 843.76C1626.46 841.76 1618.66 842.36 1616.06 841.56C1619.56 840.16 1623.16 838.96 1626.66 837.76C1629.16 836.86 1636.56 835.16 1637.26 832.06C1638.06 827.26 1618.56 832.76 1616.46 833.46Z" fill="#FFCE33"/>
    <path d="M1553.06 808.16C1553.16 808.06 1553.16 808.06 1553.06 808.16V808.16Z" fill="#FFCE33"/>
    <path d="M1568.96 813.76C1567.76 814.56 1567.36 816.66 1566.46 817.86C1565.36 819.26 1563.96 820.56 1562.56 821.76C1564.56 816.36 1566.36 810.96 1568.76 805.76C1569.76 803.56 1574.16 798.06 1569.56 797.06C1563.26 795.76 1556.36 815.96 1554.26 820.26C1552.86 816.46 1552.16 812.86 1552.96 808.86C1553.46 805.96 1548.76 804.46 1547.76 807.36C1546.56 811.06 1546.26 815.06 1546.76 818.86C1547.26 822.66 1550.86 839.96 1557.66 834.56C1562.96 833.46 1570.26 824.56 1571.96 819.46C1572.66 817.66 1572.76 811.06 1568.96 813.76Z" fill="#FFCE33"/>
    <path d="M1553.06 808.16C1553.06 808.26 1552.96 808.46 1552.96 808.86C1553.06 808.46 1553.06 808.26 1553.06 808.16Z" fill="#FFCE33"/>
    <defs>
    <linearGradient id="paint0_linear" x1="958.239" y1="975.567" x2="958.239" y2="93.653" gradientUnits="userSpaceOnUse">
    <stop stop-color="#D8F1F7"/>
    <stop offset="1" stop-color="#BEDCE3" stop-opacity="0"/>
    </linearGradient>
    </defs>
    </svg>
    