<svg width="1920" height="322" viewBox="0 0 1920 322" fill="none" xmlns="http://www.w3.org/2000/svg">
<path opacity="0.5" d="M1249.12 303.095C1391.96 284.039 1500.11 306.854 1611.55 290.912C1816.02 261.664 1833.02 314.391 1920 290.913V116.938C1854.02 33.9687 1589.93 63.0651 1500.11 39.0211C1377 6.06494 801.409 91.2504 607.842 39.0211C404.499 -15.8463 228.273 -4.57169 -2 22.4877V261.664C90.4759 352.99 520.865 302.85 607.842 290.912C694.82 278.974 736.714 273.847 848.185 303.095C959.656 332.343 1093.08 323.911 1249.12 303.095Z" fill="#BEDCE3"/>
<path d="M373.296 285.793C373.005 284.268 372.424 281.871 370.754 281.29C369.519 280.854 367.994 280.999 366.759 281.145C357.463 281.726 347.731 284.486 338.652 281.217C327.903 277.223 322.311 266.474 315.774 257.831C308.003 247.59 299.36 237.931 289.483 229.651C282.292 223.623 274.376 218.539 266.242 213.818C258.543 209.388 250.772 205.248 243.436 200.309C234.939 194.572 226.587 188.035 221.357 179.029C216.709 171.04 215.402 161.816 215.111 152.738C214.821 143.296 215.329 133.927 217.145 124.703C218.234 118.893 219.759 113.155 222.156 107.781C223.391 104.948 224.989 101.971 227.24 99.7192C228.039 104.803 230.073 109.887 235.157 111.848C240.386 113.809 246.414 111.412 250.699 108.435C255.493 105.239 259.778 100.445 261.303 94.7805C262.901 88.8249 259.923 83.3779 254.258 81.0537C250.045 79.3833 245.252 79.1654 240.822 79.3833C236.246 79.6012 231.598 80.4001 227.313 81.9979C225.715 82.5789 224.117 83.3779 222.737 84.4673C220.849 85.9199 219.542 88.2439 218.089 90.1323C205.96 105.965 197.535 134.944 194.63 145.693C189.11 166.174 183.01 212.148 185.624 233.501C186.786 243.233 189.691 252.82 194.703 261.39C200.005 270.468 207.703 278.457 216.419 284.195C218.67 285.648 220.994 286.81 223.536 287.827C224.843 290.369 226.151 292.838 227.168 295.452C227.749 296.905 228.33 298.358 228.765 299.883C229.129 301.263 229.855 302.57 230 304.023C230.145 305.33 229.346 305.403 228.33 305.548C227.022 305.693 225.715 305.911 224.408 306.129C222.084 306.419 218.961 306.855 217.435 308.889C217.145 309.252 217 309.906 217.435 310.341C220.994 313.246 226.296 311.285 230.291 310.559C231.816 310.269 233.414 310.269 234.067 308.526C234.939 306.201 234.503 303.95 233.922 301.626C233.341 299.011 232.978 296.397 232.469 293.782C232.252 292.62 231.961 291.458 231.525 290.369C235.447 291.24 239.442 291.894 243.291 292.329C250.409 293.201 257.599 293.564 264.716 293.709C263.046 296.905 261.957 300.464 261.012 303.95C260.431 305.911 258.979 308.743 260.577 310.632C261.884 312.157 264.571 311.358 266.459 311.649C268.711 311.939 270.381 312.447 272.778 312.956C274.085 313.246 275.756 312.956 276.991 312.375C277.789 311.939 278.443 310.922 278.298 310.051C278.153 309.107 277.281 308.526 276.482 308.162C274.376 307.073 271.543 306.565 269.147 306.637C267.912 306.637 265.297 307.291 265.733 305.257C266.024 303.805 266.895 302.425 267.476 301.045C268.493 298.648 269.655 296.179 271.035 293.927C272.706 293.927 274.376 293.927 275.974 294C285.198 294.073 294.494 294.073 303.718 294.944C314.031 295.961 324.199 298.212 334.512 299.229C344.535 300.173 355.72 300.536 365.016 295.961C367.195 294.871 369.156 293.492 370.972 291.894C372.642 290.078 373.731 288.117 373.296 285.793Z" fill="#FFCE33"/>
<path d="M240.894 90.2773C240.749 89.6963 240.313 89.4057 239.805 89.3331C239.514 89.1878 239.151 89.2605 238.788 89.4057H238.715C237.989 89.6236 237.335 90.0594 236.899 90.6404C236.754 90.7857 236.609 90.9309 236.536 91.0762C235.883 91.9477 235.81 93.5455 236.972 93.9813C237.916 94.3444 239.006 93.6182 239.732 93.0371C240.603 92.3835 241.112 91.3667 240.894 90.2773Z" fill="#122528"/>
<path d="M227.24 81.9981C227.894 78.294 229.129 72.4111 233.269 71.1038C233.269 74.0816 233.414 77.132 233.85 80.1098C235.375 79.8192 235.447 80.3276 235.302 78.4393C235.23 76.5509 235.23 74.6626 235.23 72.7743C235.23 69.5786 234.794 67.9082 231.38 69.7965C226.95 72.2659 225.425 78.5119 224.844 83.0875C225.643 82.6517 226.442 82.2886 227.24 81.9981C227.386 80.9813 226.442 82.2886 227.24 81.9981Z" fill="#122528"/>
<path d="M346.061 290.296C344.463 290.296 342.792 290.078 341.412 289.279C339.524 288.19 340.468 285.866 339.088 284.922C337.49 283.832 334.004 285.357 332.116 285.067C329.937 284.704 327.468 283.905 326.16 282.234C324.926 280.709 325.652 278.24 323.982 276.933C322.021 275.407 318.607 277.586 316.791 278.458C316.356 276.933 315.847 271.558 313.886 271.558C312.652 271.558 311.344 272.284 309.964 272.357C308.003 272.357 308.584 269.67 308.512 267.999C308.439 266.547 308.657 264.077 307.785 262.843C306.914 261.608 304.808 262.625 303.718 262.915C300.305 263.859 297.036 265.239 293.768 266.692C293.478 264.586 292.243 249.334 289.628 250.278C286.941 251.222 278.008 255.798 276.12 251.731C275.321 249.915 277.136 242.579 274.885 242.144C272.779 241.78 269.22 244.758 267.622 245.92C265.371 247.663 263.264 249.624 261.521 251.876C261.158 249.261 260.504 246.719 259.851 244.177C259.488 242.797 259.125 241.417 258.834 240.037C258.543 238.73 258.761 235.97 257.89 234.953C255.929 232.702 243.873 242.071 241.839 243.378C241.403 240.836 240.241 224.277 237.844 223.841C233.559 223.115 223.682 227.037 217 228.998C219.252 224.64 221.939 220.5 224.19 216.143C225.352 213.819 228.33 209.025 225.134 207.064C220.632 204.232 213.732 206.701 208.793 206.556C209.519 200.455 211.771 194.645 214.821 189.415C217.145 185.348 201.094 186.22 199.569 186.365C202.111 183.533 205.089 180.555 203.927 176.342C202.692 171.839 197.608 170.314 193.469 170.387C196.737 166.465 206.687 164.213 206.178 157.895C205.67 151.576 197.899 146.129 192.742 143.732C194.776 141.481 198.044 140.609 200.949 139.883C202.474 139.52 204 139.157 205.597 138.866C207.268 138.576 210.536 138.794 211.916 137.849C213.804 136.542 208.866 129.497 207.922 128.117C205.961 125.139 203.564 122.307 200.368 120.709C202.402 116.932 205.743 113.591 209.592 111.703C211.262 110.904 213.151 110.323 215.039 110.251C217.363 110.178 215.475 106.256 215.112 105.312C213.659 101.099 211.553 96.9596 211.335 92.4566C211.262 90.7136 212.715 89.9146 214.24 89.7694C215.257 89.6241 216.274 89.6968 217.218 89.7694C218.816 89.9146 218.816 89.1157 219.76 87.881C216.492 87.3 210.028 86.5737 209.011 91.0767C207.776 96.5238 212.061 103.06 213.514 108.072C209.883 108.58 206.614 110.541 203.927 112.865C201.966 114.536 197.39 118.53 197.608 121.435C197.681 122.597 199.569 122.888 200.368 123.396C201.966 124.34 203.273 125.72 204.363 127.173C206.396 129.86 208.139 132.838 209.519 135.888C204.726 136.397 199.569 137.268 195.139 139.229C193.323 140.028 191.58 141.118 190.418 142.715C188.457 145.403 193.251 146.347 194.994 147.509C198.117 149.542 204.218 154.045 203.709 158.476C203.273 162.47 195.865 165.085 193.033 167.336C191.871 168.281 189.837 170.242 190.418 171.985C190.854 173.365 194.34 172.566 195.575 172.711C199.351 173.147 203.273 176.052 201.24 180.337C200.513 181.862 193.686 187.818 197.971 188.544C202.765 189.343 207.341 187.091 212.134 189.27C209.665 193.773 207.776 198.712 206.759 203.796C206.324 206.193 205.307 208.662 208.43 208.952C211.19 209.243 213.95 208.807 216.71 208.517C218.743 208.299 221.43 207.863 223.391 208.807C225.207 209.606 223.101 212.802 222.52 214.036C220.196 218.975 216.782 223.333 214.603 228.272C213.514 230.741 213.514 232.484 216.637 231.612C219.397 230.886 222.084 229.942 224.771 229.07C227.313 228.272 229.928 227.473 232.543 226.964C233.85 226.746 236.174 226.238 236.464 226.601C236.828 226.964 236.973 229.579 237.263 231.031C237.627 233.283 238.643 246.429 240.895 246.647C242.565 246.792 245.979 243.523 247.431 242.579C250.191 240.836 252.951 239.093 255.856 237.641C256.292 241.345 257.381 244.976 258.18 248.607C258.543 250.205 258.471 256.742 260.577 256.814C262.102 256.887 264.79 251.876 265.952 250.786C268.13 248.607 270.6 246.792 273.287 245.412C273.214 248.39 272.27 252.893 275.175 254.854C279.025 257.468 285.125 254.563 288.902 253.183C289.483 256.016 289.919 258.921 290.282 261.753C290.5 263.496 290.282 268.217 291.517 269.524C292.751 270.832 295.947 268.58 297.182 268.072C299.796 266.982 302.484 266.038 305.316 265.385C305.461 267.055 304.88 276.352 307.931 275.48C309.456 275.044 312.288 274.536 312.724 276.061C313.16 277.586 313.45 280.201 314.322 281.581C316.065 284.413 321.657 277.804 322.529 280.419C323.11 282.089 323.546 284.994 325.216 286.084C326.814 287.173 328.049 287.391 329.937 287.682C331.825 287.972 333.569 288.117 335.384 288.045C337.563 287.899 337.055 289.642 338.653 291.022C341.122 293.201 344.753 293.564 347.876 293.492C351.362 293.347 354.849 292.548 357.972 290.95C359.134 290.369 361.53 288.989 362.257 287.754C362.983 286.374 362.257 286.447 361.24 287.246C357.536 290.151 350.418 290.441 346.061 290.296ZM198.262 186.365C198.189 186.365 198.189 186.292 198.262 186.365V186.365ZM224.045 209.316C223.972 209.243 224.118 209.388 224.045 209.316V209.316Z" fill="#122528"/>
<path d="M196.01 201.616C195.793 203.141 198.117 203.577 198.77 202.342C200.078 199.873 200.513 197.113 202.039 194.789C202.62 193.918 201.385 193.119 200.659 193.772C198.335 195.661 196.446 198.638 196.01 201.616Z" fill="white"/>
<path d="M204.145 206.192C204 205.32 202.838 205.393 202.474 205.974C200.949 208.371 198.117 210.985 198.988 214.108C199.424 215.634 201.603 215.924 202.329 214.544C203.056 213.237 203.346 211.712 203.854 210.259C204.218 208.879 204.363 207.644 204.145 206.192Z" fill="white"/>
<path d="M189.329 198.42C189.619 198.493 189.837 198.493 190.055 198.42C190.491 198.275 190.927 197.912 191.072 197.404C191.726 194.789 192.452 192.537 194.195 190.431C194.776 189.705 193.977 188.325 193.105 188.979C190.636 190.867 188.094 193.627 188.239 196.968C188.312 197.694 188.675 198.202 189.329 198.42Z" fill="white"/>
<path d="M191.944 208.298C190.273 210.186 188.821 212.655 188.748 215.27C188.748 216.65 190.491 216.65 190.927 215.56C191.798 213.527 192.016 211.275 193.106 209.242C193.542 208.443 192.525 207.571 191.944 208.298Z" fill="white"/>
<path d="M206.833 221.734C207.196 220.79 207.704 219.846 208.14 218.901C208.285 218.611 207.849 218.32 207.631 218.466C206.905 218.901 206.324 219.7 205.888 220.427C205.453 221.08 204.799 222.17 205.38 222.823C205.961 223.695 206.615 222.17 206.833 221.734Z" fill="white"/>
<path d="M200.441 220.282C198.408 222.606 196.519 225.293 196.301 228.489C196.229 228.997 196.592 229.578 197.028 229.796C197.245 229.941 197.463 230.014 197.754 230.014C198.48 229.941 198.989 229.578 199.206 228.925C200.078 226.31 200.732 223.695 201.748 221.081C202.039 220.354 200.95 219.701 200.441 220.282Z" fill="white"/>
<path d="M199.206 243.45C198.625 245.193 198.117 246.936 197.681 248.752C197.318 250.277 196.81 251.875 197.899 253.182C198.262 253.618 198.989 253.545 199.352 253.182C200.441 252.165 200.223 250.495 200.369 249.115C200.586 247.372 200.95 245.701 201.313 243.958C201.458 242.724 199.642 242.143 199.206 243.45Z" fill="white"/>
<path d="M216.273 214.036C214.966 215.198 213.732 216.432 212.569 217.74C211.625 218.829 209.955 220.499 210.536 222.025C210.681 222.46 211.117 222.751 211.625 222.606C212.933 222.243 213.514 220.645 214.167 219.555C215.184 218.03 216.346 216.723 217.581 215.343C218.38 214.471 217.145 213.237 216.273 214.036Z" fill="white"/>
<path d="M209.447 228.561C208.285 230.449 207.196 232.483 206.469 234.589C206.034 235.897 204.654 238.802 206.324 239.819C208.067 240.835 208.793 237.349 209.011 236.405C209.592 234.008 210.173 231.539 211.045 229.215C211.335 228.271 209.955 227.762 209.447 228.561Z" fill="white"/>
<path d="M215.111 254.126C214.24 256.087 212.642 258.92 213.731 261.099C214.167 261.898 215.402 261.535 215.402 260.663C215.402 259.646 215.329 258.629 215.475 257.613C215.62 256.523 215.765 255.506 215.983 254.49C216.056 253.981 215.329 253.618 215.111 254.126Z" fill="white"/>
<path d="M228.04 232.992C226.66 234.081 225.498 235.388 224.554 236.986C223.827 238.293 222.375 240.618 223.319 242.07C223.609 242.506 224.118 242.578 224.554 242.361C225.788 241.78 226.079 239.819 226.587 238.657C227.241 237.131 227.967 235.606 229.057 234.371C229.855 233.718 228.911 232.338 228.04 232.992Z" fill="white"/>
<path d="M205.815 254.417C204.871 255.724 204.508 257.467 204.29 259.065C204.072 260.445 203.491 262.624 204.653 263.713C205.016 264.076 205.597 264.076 205.961 263.713C206.977 262.769 206.687 260.735 206.76 259.428C206.832 257.903 207.123 256.305 206.977 254.78C206.977 254.054 206.251 253.908 205.815 254.417Z" fill="white"/>
<path d="M232.979 249.042C233.342 247.081 233.632 245.12 233.777 243.159C233.923 242.07 232.252 241.925 231.962 242.941C231.381 244.902 230.582 246.863 230.146 248.897C229.783 250.349 229.057 252.674 230.437 253.763C230.872 254.126 231.308 254.126 231.744 253.763C232.979 252.746 232.688 250.422 232.979 249.042Z" fill="white"/>
<path d="M218.816 265.601C217 266.909 216.419 269.088 216.129 271.121C215.838 273.227 215.475 276.714 217.436 278.094C217.944 278.457 218.816 278.166 219.106 277.658C219.833 276.133 219.179 273.881 219.034 272.283C218.888 270.468 218.743 268.143 219.687 266.546C220.123 265.965 219.397 265.166 218.816 265.601Z" fill="white"/>
<path d="M250.336 246.645C249.247 248.461 248.303 250.277 247.431 252.238C246.778 253.69 245.688 255.869 246.56 257.394C246.778 257.83 247.286 257.903 247.722 257.685C249.174 256.958 249.61 254.707 250.046 253.327C250.627 251.439 251.353 249.55 252.152 247.735C252.733 246.5 251.063 245.483 250.336 246.645Z" fill="white"/>
<path d="M238.353 256.814C237.409 257.612 237.046 258.992 236.683 260.154C236.247 261.534 235.811 263.277 236.174 264.73C236.392 265.602 237.554 265.456 237.845 264.73C238.281 263.495 238.281 261.97 238.426 260.663C238.571 259.428 238.934 258.266 239.152 257.104C239.152 256.668 238.571 256.596 238.353 256.814Z" fill="white"/>
<path d="M248.52 261.244C247.649 263.568 246.777 265.892 246.414 268.289C246.123 270.177 245.615 272.937 247.068 274.462C247.503 274.898 248.23 274.825 248.52 274.244C249.392 272.646 248.883 270.395 249.101 268.652C249.319 266.328 249.755 264.004 250.336 261.679C250.626 260.517 248.956 260.082 248.52 261.244Z" fill="white"/>
<path d="M267.622 257.612C266.678 258.992 265.952 260.372 265.298 261.897C264.79 263.132 264.209 265.311 265.516 266.255C265.734 266.4 266.097 266.327 266.315 266.11C267.187 265.311 266.969 263.495 267.187 262.406C267.55 261.026 268.203 259.646 268.93 258.411C269.438 257.539 268.131 256.813 267.622 257.612Z" fill="white"/>
<path d="M262.757 275.334C262.684 273.809 262.757 272.211 262.829 270.686C262.829 269.524 261.159 269.596 261.086 270.686C260.941 272.502 260.723 274.317 260.796 276.133C260.868 277.513 261.086 279.474 262.466 280.055C262.757 280.2 263.192 279.91 263.265 279.619C263.483 278.965 263.192 278.457 263.047 277.803C262.975 276.932 262.829 276.133 262.757 275.334Z" fill="white"/>
<path d="M280.477 257.322C277.572 259.211 275.175 262.624 275.103 266.183C275.103 266.619 275.32 267.054 275.756 267.272C277.572 268.289 277.862 265.457 278.226 264.367C278.879 262.334 279.969 260.155 281.494 258.557C282.075 257.976 281.276 256.814 280.477 257.322Z" fill="white"/>
<path d="M272.27 270.686C272.198 269.887 271.181 269.741 270.89 270.468C269.801 273.155 268.348 279.11 271.181 281.217C271.544 281.507 272.125 281.217 272.27 280.781C272.706 279.401 272.198 277.658 272.125 276.205C272.125 274.317 272.415 272.501 272.27 270.686Z" fill="white"/>
<path d="M287.45 270.25C286.215 271.993 285.562 274.027 285.344 276.133C285.198 277.731 284.69 281.217 286.506 282.088C286.869 282.234 287.305 282.234 287.523 281.943C288.539 280.709 287.886 278.53 287.886 277.077C287.886 275.044 288.104 272.792 288.902 270.904C289.266 269.96 287.886 269.596 287.45 270.25Z" fill="white"/>
<path d="M298.344 278.747C297.4 280.272 296.964 282.015 296.819 283.759C296.674 285.284 296.819 287.898 298.271 288.77C298.707 288.988 299.216 288.843 299.433 288.407C300.087 287.245 299.433 285.792 299.288 284.63C299.07 282.887 299.07 281.144 299.724 279.546C300.087 278.529 298.852 277.803 298.344 278.747Z" fill="white"/>
<path d="M306.697 278.675C305.898 280.854 304.227 285.357 306.479 287.1C306.915 287.39 307.496 287.173 307.786 286.737C308.44 285.793 308.149 284.413 308.077 283.251C308.004 281.871 308.222 280.491 308.44 279.111C308.585 278.021 307.06 277.586 306.697 278.675Z" fill="white"/>
<path d="M326.016 292.184C325.58 291.385 324.999 290.804 324.636 289.932C324.273 289.061 323.982 288.117 323.474 287.318C323.183 286.809 322.312 286.882 322.166 287.463C321.803 289.569 322.529 292.547 324.49 293.709C325.507 294.29 326.669 293.128 326.016 292.184Z" fill="white"/>
<path d="M192.306 184.839C192.742 184.476 192.742 183.967 192.887 183.459C193.032 182.878 193.323 182.297 193.541 181.788C194.049 180.772 194.921 179.9 195.719 179.028C196.083 178.665 195.647 177.939 195.138 178.157C193.904 178.665 192.96 179.61 192.233 180.772C191.652 181.716 190.708 183.677 191.434 184.766C191.652 185.129 192.015 185.129 192.306 184.839Z" fill="white"/>
<path d="M193.977 162.905C194.776 161.961 194.994 160.581 195.72 159.564C196.519 158.475 197.754 157.749 198.989 157.313C199.933 157.022 199.497 155.57 198.553 155.86C196.955 156.369 195.648 157.168 194.486 158.402C193.542 159.419 192.452 161.235 192.961 162.615C193.106 163.123 193.614 163.268 193.977 162.905Z" fill="white"/>
<path d="M230.437 265.02C229.492 266.909 228.984 268.724 228.839 270.83C228.694 272.574 228.621 275.624 230.073 276.859C230.437 277.149 231.163 277.222 231.381 276.713C232.034 275.261 231.381 273.518 231.236 271.92C231.09 269.814 231.308 267.635 231.817 265.601C232.034 264.802 230.872 264.221 230.437 265.02Z" fill="white"/>
<path d="M239.587 275.043C239.66 274.172 238.135 273.954 238.062 274.826C237.699 277.222 237.626 279.619 237.844 282.016C238.062 283.904 238.498 286.737 240.241 287.826C240.749 288.117 241.258 287.753 241.258 287.245C241.476 285.502 240.386 283.468 240.023 281.798C239.587 279.546 239.442 277.295 239.587 275.043Z" fill="white"/>
<path d="M254.694 279.183C254.476 277.004 254.622 274.753 254.985 272.647C255.057 272.211 254.622 271.92 254.259 272.211C252.515 273.881 252.152 276.351 252.152 278.747C252.152 280.781 252.152 284.776 254.113 285.938C254.476 286.156 255.13 286.083 255.348 285.647C255.711 284.776 255.566 283.977 255.348 283.105C255.057 281.798 254.84 280.491 254.694 279.183Z" fill="white"/>
<path d="M279.678 282.815C279.46 280.636 279.388 278.457 279.17 276.278C279.097 275.334 277.79 275.334 277.717 276.278C277.499 278.602 277.136 280.926 277.281 283.323C277.354 285.066 277.499 288.262 279.388 289.133C279.823 289.351 280.332 289.206 280.477 288.698C280.695 287.899 280.477 287.172 280.259 286.374C280.041 285.139 279.823 283.977 279.678 282.815Z" fill="white"/>
<path d="M212.206 238.657C210.826 239.238 210.681 241.997 210.463 243.232C210.173 245.338 209.664 247.59 210.609 249.551C210.826 250.059 211.625 249.987 211.843 249.551C212.715 247.808 212.642 245.847 212.86 243.958C213.005 243.014 213.151 242.07 213.223 241.126C213.296 240.472 213.586 239.673 213.223 239.092C213.005 238.729 212.57 238.511 212.206 238.657Z" fill="white"/>
<path d="M190.854 224.712C189.401 226.165 188.82 228.561 188.53 230.522C188.239 232.556 187.949 235.098 188.966 236.914C189.256 237.495 190.055 237.349 190.273 236.768C190.854 235.025 190.491 233.137 190.709 231.321C190.926 229.288 191.725 227.472 192.161 225.438C192.306 224.712 191.362 224.131 190.854 224.712Z" fill="white"/>
<path d="M1500.16 273.86C1498.46 273.46 1497.96 275.16 1497.26 276.36C1495.36 280.16 1492.86 283.76 1489.96 286.96C1491.96 280.86 1494.56 275.16 1496.96 269.16C1497.66 267.56 1500.86 256.86 1495.76 258.86C1492.66 259.96 1490.96 265.06 1489.76 267.76C1488.06 271.76 1486.06 275.66 1484.36 279.66C1484.26 276.66 1484.26 273.66 1484.46 270.66C1484.56 269.26 1482.86 268.76 1481.96 269.56C1480.66 270.56 1480.26 274.26 1479.86 275.76C1478.66 280.66 1477.76 285.66 1478.06 290.66C1478.26 293.46 1478.46 299.26 1482.66 298.46C1483.86 298.26 1484.86 297.06 1485.76 296.36C1487.46 297.16 1489.76 295.46 1490.96 294.56C1496.76 290.36 1499.86 283.06 1501.76 276.46C1502.26 275.26 1501.26 274.16 1500.16 273.86Z" fill="#FFCE33"/>
<path d="M1595.46 270.46C1597.46 268.46 1603.46 265.26 1604.16 262.56C1604.96 258.96 1601.16 259.66 1599.36 260.56C1592.96 263.76 1585.76 267.76 1582.36 274.36C1577.16 277.66 1583.96 281.36 1586.76 282.66C1590.76 284.56 1594.96 285.26 1599.36 285.06C1601.36 284.96 1609.96 285.06 1606.86 280.76C1605.46 278.76 1597.66 279.36 1595.06 278.56C1598.56 277.16 1602.16 275.96 1605.66 274.76C1608.16 273.86 1615.56 272.16 1616.26 269.06C1617.06 264.26 1597.56 269.76 1595.46 270.46Z" fill="#FFCE33"/>
<path d="M1532.06 245.16C1532.16 245.06 1532.16 245.06 1532.06 245.16V245.16Z" fill="#FFCE33"/>
<path d="M1547.96 250.76C1546.76 251.56 1546.36 253.66 1545.46 254.86C1544.36 256.26 1542.96 257.56 1541.56 258.76C1543.56 253.36 1545.36 247.96 1547.76 242.76C1548.76 240.56 1553.16 235.06 1548.56 234.06C1542.26 232.76 1535.36 252.96 1533.26 257.26C1531.86 253.46 1531.16 249.86 1531.96 245.86C1532.46 242.96 1527.76 241.46 1526.76 244.36C1525.56 248.06 1525.26 252.06 1525.76 255.86C1526.26 259.66 1529.86 276.96 1536.66 271.56C1541.96 270.46 1549.26 261.56 1550.96 256.46C1551.66 254.66 1551.76 248.06 1547.96 250.76Z" fill="#FFCE33"/>
<path d="M1532.06 245.16C1532.06 245.26 1531.96 245.46 1531.96 245.86C1532.06 245.46 1532.06 245.26 1532.06 245.16Z" fill="#FFCE33"/>
</svg>
