<svg width="320" height="413" viewBox="0 0 320 413" fill="none" xmlns="http://www.w3.org/2000/svg">
    <mask id="mask0" style="mask-type:alpha" maskUnits="userSpaceOnUse" x="0" y="0" width="320" height="413">
    <rect width="320" height="413" fill="#C4C4C4"/>
    </mask>
    <g mask="url(#mask0)">
    <path d="M1121 400.023C1263.84 379.639 1318.11 328.237 1429.55 311.184C1634.02 279.898 1651.02 336.299 1738 311.185V125.086C1672.02 36.3357 1407.93 67.4598 1318.11 41.7402C1195 6.48758 619.41 97.6092 425.842 41.7402C222.499 -16.9505 46.2735 -4.89023 -184 24.0548V366.603C-91.5241 464.293 285.523 379.372 372.5 366.602C459.477 353.832 579.767 354.527 699 366.603C965 393.543 964.967 422.289 1121 400.023Z" fill="#DFEEF1"/>
    </g>
    </svg>
    