<svg width="278" height="262" fill="none" xmlns="http://www.w3.org/2000/svg"><path d="M144.613 172.485c-.266 0-.533-.133-.799-.133-.133-1.729-.267-3.59-.4-5.319-.533-7.844-.533-15.955 1.333-23.666 3.198-.266 6.396-.665 9.594-1.596a42.602 42.602 0 004.398-1.463c1.333-.664 2.665-1.329 3.998-2.127 2.398-1.462 4.531-3.058 6.796-4.653 2.132-1.463 3.731-3.324 6.13-4.388 1.732-.798 3.465-.399 5.064.532 1.999 1.063 3.731 2.393 5.33 3.856 3.598 3.058 6.663 6.382 9.995 9.706 1.732 1.728 3.465 3.191 5.33 4.786 1.999 1.596 3.998 3.058 5.864 4.787 2.132 1.994 3.731 4.254 5.197 6.781.666 1.196 1.199 2.526 1.599 3.855.266.798.4 1.596.266 2.394-.533 3.191-5.197 1.861-7.196 1.462-4.264-1.063-8.528-2.659-12.926-1.861-2.665.532-5.064 1.861-7.329 3.324-2.532 1.595-4.931 3.59-7.463 5.318-2.398 1.596-5.064 2.925-7.862 3.59-2.932.665-5.863.266-8.662-.266-2.932-.532-5.997-1.462-8.928-2.26-3.332-1.064-6.264-2.128-9.329-2.659zM37.073 110.26c2.399-.931 5.197-1.33 7.729-1.596 3.331-.398 6.796-.664 10.128-1.196 3.598-.399 7.196-1.064 10.794-1.596 2.798-.399 5.73-.93 8.662-1.196.933-.133 1.865-.133 2.798-.133.533 0 1.2.133 1.733.399.932.664 1.599 1.861 2.265 2.792 1.066 1.728 2.132 3.59 3.198 5.451 3.065 5.185 6.397 10.105 10.528 14.36a62.976 62.976 0 007.862 6.648c-.8 3.324-1.732 6.648-2.932 9.839-1.865 5.451-4.93 10.503-8.928 14.625a30.279 30.279 0 00-3.065-1.329c-1.733-.665-3.598-1.33-5.464-1.862-1.466-.399-3.065-.798-4.664-1.064-2.932-.664-5.996-1.329-8.795-2.659-1.999-1.063-3.998-2.526-5.197-4.653-.666-1.197-.933-2.527-1.333-3.723-.533-1.729-1.2-3.457-1.865-5.053-2.266-4.653-5.997-8.11-10.261-10.636-3.865-2.394-7.996-4.255-11.727-6.781-2.266-1.463-5.997-4.122-5.064-7.313.666-1.729 2.132-2.792 3.598-3.324z" fill="#DA7015"/><path d="M151.81 174.346c2.931-5.052 5.197-10.503 7.062-15.955 1.866-5.318 3.998-10.504 6.663-15.556a456.92 456.92 0 016.13-11.036c1.066-.93 2.266-1.861 3.465-2.526.133 4.255-.533 8.51-1.333 12.631-1.066 5.718-2.398 11.302-3.464 17.019-1.2 6.116-2.932 12.099-5.064 17.95-.133.265-.133.398-.267.664l-2.398-.399c.133-.265.266-.664.399-.93 2.133-5.585 3.865-11.302 5.064-17.152 2.132-9.573 4.531-18.88 5.864-28.586-1.866 4.255-3.998 8.376-6.13 12.498-2.665 5.451-4.931 11.169-6.93 16.886-1.865 5.185-3.864 10.371-6.663 15.157-.266-.133-.533-.133-.666-.266-.533 0-1.066-.133-1.732-.399zm26.518-10.503c.133 3.324.4 6.781.533 10.105l-1.999 1.196c-.133-3.855-.399-7.578-.533-11.434-.266-6.116.134-12.232.4-18.348.267-4.92.267-9.972-.799-14.759-.134-.532-.4-.931-.534-1.462 1.067-.532 2.133-.532 3.065-.266 6.13 4.653 10.661 11.567 15.459 17.55 3.198 4.122 6.13 8.244 8.795 12.764 1.332 2.261 2.532 4.654 3.598 7.047l.4.798h-.134c-.666-.133-1.332-.399-1.999-.532-1.066-2.26-2.398-4.521-3.598-6.515-2.532-4.388-5.463-8.509-8.528-12.365-4.931-6.382-9.595-13.429-15.991-18.348 4.53 9.041 9.594 17.683 12.526 27.389.933 3.058 1.866 6.116 2.665 9.174-.533.266-1.199.399-1.732.665-.8-3.191-1.733-6.382-2.665-9.44-1.599-5.451-3.865-10.504-6.397-15.689-.933-1.862-1.865-3.59-2.665-5.452.267 2.793.4 5.452.266 8.244 0 6.648-.399 13.163-.133 19.678zM35.74 118.503c4.265-1.462 8.795-2.393 13.326-3.457 9.995-2.127 20.389-4.653 28.918-10.503.4 0 .666.133 1.066.399s.8.664 1.066 1.063c1.865 5.319 3.465 10.77 4.264 16.354 1.066 6.515.933 13.03.267 19.545-.533 4.521-1.466 8.909-2.666 13.296-.8-.266-1.732-.399-2.531-.665 1.199-4.52 2.265-8.908 2.798-13.561.8-5.984.933-12.233.266-18.216-.533-4.919-1.732-9.706-2.931-14.625-.666 10.105-2.932 20.342-6.397 29.915-1.599 4.388-3.598 8.51-5.73 12.632a13.449 13.449 0 01-2.132-1.729c1.999-4.122 3.998-8.243 5.597-12.498 3.465-9.041 5.997-18.88 7.33-28.586-1.2 2.659-3.466 4.786-5.331 7.047-3.198 3.988-6.53 7.977-9.995 11.7-1.999 2.127-3.998 4.122-6.13 5.983-.533-.532-.933-1.064-1.465-1.462l4.797-4.388c3.331-3.324 6.396-6.914 9.461-10.371 1.6-1.728 3.065-3.457 4.798-5.185 1.466-1.596 2.931-3.191 3.598-5.186-3.199 2.925-7.463 4.787-11.46 6.249-4.798 1.862-9.862 3.191-14.926 4.388-4.664 1.064-9.328 1.994-13.859 3.457l-1.999-1.596z" fill="#FFCE33"/><path d="M160.606 136.453c2.532-1.063 4.93-2.526 7.196-3.989 1.732-1.063 3.731-3.058 5.863-3.722.4-1.33 1.066-2.66 1.599-3.989.4-1.064.533-2.659 1.866-3.058.266-.133.533 0 .666.266.933 1.063 0 2.925-.4 3.988-.266.665-.533 1.33-.932 1.995.399-.266.666-.532 1.066-.798 1.066-.931 1.999-1.994 2.931-2.925.8-.798 2.266.266 1.866 1.197-.4 1.329-1.466 2.659-2.798 3.722.932 0 1.732.133 2.531.399 1.333.266 1.2 2.394-.133 2.66-1.466.265-2.931 0-4.397-.266-.933-.133-1.733-.266-2.532-.532-1.466 1.595-3.865 2.659-5.597 3.723-2.532 1.595-5.197 3.058-7.863 4.254-4.53 1.995-9.994 5.186-15.058 4.122-.666-.133-.4-.931 0-1.064 4.664-1.728 9.328-3.855 14.126-5.983zm-87.42-34.569c.8.133 1.733.265 2.532.664-.8-.93-1.732-1.994-2.265-3.19-.666-1.463 1.2-2.66 2.266-1.596.932.93 1.599 2.26 2.265 3.324.133.133.133.266.267.399a17.37 17.37 0 010-3.723c.133-.532.4-1.197 1.066-1.197h.666c.4.133.8.532.933 1.064.266 2.26-.533 4.388-.933 6.515 1.599 2.393 2.798 5.052 4.264 7.579 1.6 3.058 3.332 5.983 5.197 8.908 3.065 4.653 6.397 9.307 11.461 11.966.533.266.133 1.064-.267.931-5.33-.399-9.595-5.983-12.393-10.105-1.866-2.792-3.731-5.584-5.33-8.509-1.733-3.059-3.599-6.117-5.064-9.308-1.733-.531-3.598-.664-5.33-1.196-1.2-.266-.8-2.659.665-2.526zm39.58 147.983c.399-1.595 1.066-2.925 1.865-4.255.933-1.595 1.866-3.058 2.799-4.52.666-1.197 1.465-2.394 1.732-3.723.8-.133 1.732-.266 2.532-.399.4-.133.8-.133 1.199-.266-.266 2.26-1.332 4.521-2.132 6.515-1.199 2.925-2.665 5.983-3.065 9.041 4.398 1.463 8.929-.399 13.459.665 1.333.266 2.799.931 3.998 1.729.533.398 1.066.93.8 1.728-.133.665-.933 1.064-1.466 1.197-.933.399-1.999.532-3.065.797-2.399.399-4.931.532-7.329.532-2.532 0-5.064-.399-7.463-.93-2.132-.399-3.864-1.463-4.264-3.723-.4-1.463 0-2.925.4-4.388zM26.68 211.442c1.865-.133 3.73 1.063 4.797 2.526 3.065 3.59 4.264 8.243 6.396 12.365.933-.665 1.6-1.595 2.266-2.393 1.199-1.596 2.265-3.324 3.331-5.053.933-1.595 1.866-3.191 2.532-4.919 0-.133.133-.133.133-.266.134.133.267.399.267.532.533.931 1.2 1.861 1.865 2.792-.666 1.729-1.466 3.457-2.132 5.185-.933 2.128-1.732 4.255-2.931 6.117-.933 1.595-2 3.058-3.599 3.988-4.264 2.527-7.862-3.324-9.594-6.249-1.066-1.994-2.266-3.989-3.198-5.983-.933-1.994-2-4.255-2-6.382-.133-1.197.534-2.127 1.866-2.26z" fill="#122528"/><path d="M214.575 97.363c-1.866-3.324-3.198-6.914-5.73-9.84-.933-1.063-1.866-1.993-2.798-3.057 3.598-7.845 5.33-18.083-.667-27.257-13.592-20.343-17.723-32.84-42.776-45.206-30.65-15.29-94.215-16.088-109.007-1.728-10.66 10.37 17.19 13.694 37.313 68.74 4.797 13.03 10.261 40.951 7.862 54.247-2.132 11.434-12.526 26.725-21.055 34.569-4.13 3.856-9.061 7.047-14.259 9.44-5.863 2.527-12.793 5.319-19.056 3.856-21.188-4.786-19.056-22.47-21.588-21.406-1.599.665-5.197 8.509-2.532 24.597 1.466 8.908 6.53 18.216 14.659 26.991 4.664 5.052 12.66 10.903 19.19 14.891 4.264 2.66 8.661 5.053 12.925 6.648 10.128 3.989 20.656 6.914 31.45 8.244 9.861 1.196 20.922 2.393 29.717-3.324 4.93-3.191 8.795-7.579 11.194-13.03 2.665-5.983 3.997-12.365 5.063-18.747 2.399-13.828 1.733-28.055 2.399-42.016.666-13.96 1.599-28.719 9.328-40.552 12.127-18.88 20.789-25.262 29.85-25.927 9.329-.798 20.389 3.058 26.653 1.197.932 1.063 2.665 0 1.865-1.33z" fill="#FFCE33"/><path d="M98.372 241.358c-10.794-1.33-21.322-4.388-31.45-8.244-3.33-1.329-6.796-3.058-10.127-5.052.266-1.197.533-2.526.8-3.59 1.599-6.781 4.13-13.296 6.929-19.545 6.53-14.226 15.325-28.054 27.718-37.893 5.464-4.255 11.194-8.908 18.123-10.77a17.958 17.958 0 019.195 0c3.598.931 6.797 3.058 9.595 5.584 5.33 4.654 8.262 11.302 9.861 18.083 1.599 7.047 1.733 14.492.667 21.672-2.266 15.158-10.261 28.586-20.256 40.021-6.663 1.462-14.125.532-21.055-.266z" fill="#E3DCD5"/><path d="M152.876 52.423c2.399.798 6.13 3.989 3.731 6.648-.399.399-.933.665-1.466.93-2.798 1.73-6.796 0-7.196-3.19-.533-3.058 1.999-5.452 4.931-4.388z" fill="#122528"/><path d="M251.354 102.282c-3.864-10.105-10.794-18.88-17.99-26.326-4.264-4.387-9.061-8.243-13.459-12.365-2.132-1.861-4.131-3.989-6.263-5.717-2.399-1.861-6.13-7.845-13.193-5.319-2.798.931-7.995 3.325-10.661 4.521-4.531 1.995-9.195 3.989-13.326 6.781-3.065 2.127-6.529 5.318-6.13 9.706.4 4.654 3.865 8.376 6.797 11.302 7.196 7.312 16.391 13.296 25.719 16.752 17.457 6.515 34.914 5.186 42.11 4.122 1.866-.266 3.598-.665 5.464-1.063.932-.266 1.199-1.463.932-2.394z" fill="#DA7015"/><path d="M76.65 12.136c-.133-.266-.133-.399 0-.665 1.333-4.653 9.196-5.185 13.06-4.52.533.133.933.399.933 1.063v.665a.846.846 0 010 .798 4.32 4.32 0 01-1.333 1.728c-2.665 2.66-8.395 2.793-11.593 2.527-.933-.266-1.333-.931-1.066-1.596zm26.92-1.729c-1.066.266-2.132.133-3.199-.133-.4-.132-.666-.531-.533-.93.134-1.197.8-2.26 1.866-2.66 1.199-.531 2.532-.265 3.731.134.533.132.8.664.667 1.196-.267.798-.667 1.463-1.333 1.862-.4.266-.933.398-1.199.531zm14.258-6.381c.533.132.933.664.666 1.196-.933 1.463-2.398 2.127-3.998 1.862-.799.133-1.732 0-2.531-.133-.267-.133-.534-.532-.4-.798 1.066-2.526 3.997-2.66 6.263-2.127zm-3.997 8.11c-.134.399.133.798.533.93a18.69 18.69 0 005.463.799c1.866.265 3.732.133 4.931-1.064 0 0 .133 0 .133-.133.4-.133.533-.665.533-1.064.133-.266.133-.532.267-.797a1 1 0 00-.667-.931c-3.065-.532-9.728-1.463-11.193 2.26zm1.998-.133l.267-.266v.266h-.267zm17.458-5.053c1.199-.398 2.265-.531 3.465-.132 1.066.133 2.398.532 2.532 1.462.266 1.33-1.333 1.729-2.399 1.862h-.666c-.933.133-1.999 0-2.799-.532-.266-.133-.4-.399-.533-.665 0 0-.133 0-.133-.133-.533-.665-.267-1.595.533-1.861zM64.79 8.546c.534-.93 1.333-1.462 2.266-1.728.4-.266.667-.4 1.2-.4.932-.132 1.865 0 2.665.267.533.266.8.93.533 1.462-1.333 2.128-3.865 2.527-6.13 1.862-.666-.133-.8-.798-.533-1.463zm11.728 7.844a1 1 0 01.666.931c-.266 1.596-1.066 2.66-2.665 2.66-.533 0-1.2 0-1.733-.4-.266 0-.533-.132-.666-.132-.533-.133-.8-.532-.666-.93.533-2.394 3.065-2.926 5.064-2.128zm17.856 6.25c.134-.798.534-1.462 1.333-1.861 1.466-.665 3.198-.133 4.531.399.533.133.8.797.666 1.196-.533 1.197-1.466 1.862-2.665 2.26-1.066.532-2.265.665-3.065 0-.133 0-.266 0-.266-.132-.8-.266-.933-1.064-.534-1.596v-.266zm70.228-3.59c2.532.399 5.73 1.33 6.396 4.122v.398c0 .133 0 .266.134.4.133.531-.267.93-.8.93-2.399-.133-5.064-1.33-6.13-3.59-.133-.133-.133-.266-.266-.266-.267-.266-.267-.532-.134-.798-.133-.664.267-1.196.8-1.196zm10.394 11.434c.267 0 .533.133.933.266.8.133 1.333.4 1.866.931 1.865 1.33 3.065 3.457 3.198 5.584 0 .532-.533.931-1.066.931s-.933 0-1.333-.133c-.133.133-.4.266-.533.266-1.332.399-2.665-.798-3.465-1.729-1.066-1.196-2.398-3.058-2.132-4.786.267-1.064 1.466-1.463 2.532-1.33zM85.047 196.817c6.93-13.562 14.792-26.725 22.787-39.755l1.2-.399c-7.729 12.897-15.325 25.927-22.122 39.489-4.397 8.775-8.395 17.817-11.993 26.991-1.466 3.723-2.798 7.578-4.131 11.434-.533-.266-1.2-.399-1.732-.665 1.466-3.855 2.931-7.578 4.397-11.301 3.598-8.775 7.33-17.418 11.594-25.794zm-7.063-4.654c3.997-8.243 8.128-16.62 13.192-24.331.4-.266.8-.665 1.066-.931.8-.665 1.6-1.197 2.4-1.861-6.13 8.509-10.662 18.215-15.193 27.655a537.51 537.51 0 00-11.993 26.991c-1.6 3.856-3.198 7.711-4.664 11.567-.533-.266-1.2-.532-1.732-.93 1.332-3.59 3.064-7.18 4.397-10.504 3.998-9.307 8.129-18.615 12.527-27.656zm50.639 13.695c2.665-7.047 4.93-14.36 6.53-21.805.799-3.723 1.465-7.446 1.599-11.169a26.07 26.07 0 011.066 2.925c-.267 2.393-.533 4.787-1.066 7.18-1.599 7.845-4.131 15.689-6.797 23.268-2.665 7.446-5.996 14.625-9.594 21.672-2.399 4.787-5.064 9.706-7.996 14.227h-1.732c2.665-4.521 5.33-9.041 7.729-13.695a150.545 150.545 0 0010.261-22.603zm-40.112 14.891c3.332-8.376 6.796-16.62 10.128-24.996 2.932-7.712 6.263-15.157 9.994-22.603 2.799-5.717 5.731-11.435 8.262-17.285.4 0 .667.133 1.067.133-2.266 5.584-4.798 10.903-7.463 16.221-3.865 7.845-7.329 15.822-10.527 23.933-3.066 8.11-6.397 16.221-9.728 24.331-1.733 4.122-3.332 8.377-4.931 12.499a247.193 247.193 0 01-1.999 5.451l-1.6-.399c.667-1.596 1.2-3.191 1.867-4.787 1.599-4.254 3.33-8.376 4.93-12.498zm10.529 1.33c3.864-7.18 6.796-14.759 9.327-22.47 4.665-14.094 9.462-28.32 13.326-42.68.267.133.667.266.933.399-3.731 14.625-8.662 28.985-13.326 43.345-2.398 7.578-5.463 15.024-9.195 22.071-3.065 5.85-6.796 12.099-11.593 16.886a21.906 21.906 0 01-1.466-.399c1.999-2.394 3.864-4.654 5.73-7.18 2.399-3.058 4.398-6.515 6.263-9.972zm9.193 2.526c4.931-7.712 9.062-16.088 12.127-24.73 2.665-7.446 5.463-14.892 7.596-22.603 1.332-4.521 2.398-9.175 2.931-13.828.4.399.667.798 1.066 1.196-1.199 11.967-6.263 23.8-9.994 35.102-2.932 8.509-6.93 16.753-11.727 24.331a124.898 124.898 0 01-8.262 11.834c-1.333 1.728-2.799 3.589-4.264 5.318-.534-.133-1.067-.133-1.6-.266 1.466-1.728 2.932-3.457 4.398-5.318 2.665-3.457 5.33-7.18 7.729-11.036zm13.993-55.178c-.267-1.995.533-4.388 1.066-6.249.133-.532.933-.399.933.133-.134.93-.4 1.994-.533 2.925-.134 1.063-.267 2.127-.667 3.058-.133.532-.799.665-.799.133zm-3.731 11.036c.133-2.128 1.333-4.388 2.132-6.382.134-.532.933-.266.8.266-.666 1.994-1.066 4.653-2.132 6.382-.267.399-.8.133-.8-.266zm-3.864 12.764c.133-1.33.666-2.526 1.199-3.856s.933-2.659 1.199-4.122c.134-.532 1.066-.399.933.133-.4 2.526-1.066 5.85-2.532 7.978-.266.532-.933.399-.799-.133zm-5.465 15.423c.133-1.197.666-2.393 1.066-3.457.533-1.33 1.066-2.526 1.599-3.856.267-.532 1.066-.266.933.266-.666 2.393-1.066 5.452-2.798 7.446-.267.133-.8-.133-.8-.399z" fill="#fff"/><path d="M104.502 220.883c.267-1.463.933-2.793 1.466-4.255.4-1.33.933-2.526 1.599-3.723.267-.399.933-.133.933.266-.4 2.792-1.066 6.116-2.932 8.243-.666.532-1.199 0-1.066-.531zm-3.464 3.988c.399-.399 1.066.133.666.665-.8 1.196-1.599 2.393-2.265 3.722-.533 1.064-1.066 2.527-2.133 3.191-.266.133-.8-.133-.8-.531.134-1.197 1.067-2.394 1.733-3.457.8-1.33 1.6-2.527 2.799-3.59zm3.064-52.918c-1.199 1.596-2.265 3.191-3.198 4.92-.799 1.595-1.332 3.324-2.532 4.653-.4.399-.933-.133-.8-.532.8-3.457 3.465-7.046 5.864-9.573.4-.532.933.133.666.532zM90.51 195.62c0-1.463.8-2.526 1.466-3.856.933-1.728 1.866-3.324 2.665-5.052.267-.532 1.066-.266.933.266-.4 1.728-1.066 3.324-1.732 4.919-.533 1.463-1.333 3.191-2.532 4.122-.4.266-.933 0-.8-.399zm-6.264 16.487c-.266.266-.8.133-.932-.266-.134-1.861.8-3.856 1.465-5.584.8-1.995 1.733-3.856 3.199-5.585.4-.531 1.2 0 .933.665-1.067 1.995-1.866 4.122-2.666 6.249-.533 1.596-.8 3.324-1.999 4.521zm-2.664 4.122c.266-.532 1.199-.133.932.399-.666 1.728-1.2 3.589-1.732 5.451-.533 1.595-.8 3.457-1.866 4.786-.4.399-.933.266-.933-.265-.133-1.729.667-3.324 1.333-5.053.533-1.861 1.333-3.59 2.266-5.318zm49.306-6.648c.266-2.925 1.599-5.983 2.665-8.775.266-.665 1.066-.266.932.265-.799 2.793-1.199 6.117-2.798 8.643-.266.399-.933.266-.799-.133zm-1.466 5.451c-.4 1.596-.8 3.058-1.333 4.521-.4 1.33-.799 2.792-1.599 3.856-.267.399-.8.133-.8-.266 0-1.463.667-2.659 1.2-3.989.533-1.462 1.199-2.925 1.865-4.388.134-.531.8-.265.667.266zm-5.33 13.828c.533-.399 1.066.265.666.664-2.132 2.261-2.932 5.851-5.464 7.712-.533.399-1.066-.133-.799-.798.799-1.462 1.865-2.925 2.798-4.254.8-1.197 1.733-2.394 2.799-3.324zM70.92 201.869c.134-1.063.667-2.127 1.067-3.058.533-1.329.933-2.659 1.466-3.856.266-.664 1.2-.266.933.266-.4 1.33-.8 2.66-1.333 3.989-.4 1.064-.666 2.127-1.466 3.058-.133.266-.666 0-.666-.399zm-5.863 9.573c.8-1.463 1.6-2.925 2.532-4.388.267-.531 1.066-.133.933.399-.533 1.33-1.2 2.659-1.733 3.989-.533 1.197-.8 2.659-1.732 3.723-.267.266-.8.133-.933-.266-.266-1.33.4-2.393.933-3.457z" fill="#fff"/><path d="M226.989 254.227c.145-1.306.508-2.756 1.523-3.626.218-.146.58-.218.725 0 1.016 1.232 1.813 2.683 2.466 4.133a84.485 84.485 0 013.989-1.233c1.523-.435 3.046-.797 4.569-1.16.507-1.813.87-3.626.798-5.512 0-.507.797-.725 1.015-.29.725 1.596 1.16 3.336 1.886 5.004 3.481-.652 7.034-1.233 10.588-1.885 5.367-1.016 11.096-2.031 15.955-4.569.653-.29 1.305-.726 1.958-1.161-1.015-1.305-2.103-2.465-2.683-4.061-.145-.435.435-.87.798-.58 1.523.943 3.191 1.45 4.714 2.321 1.015-1.088 1.668-2.321 1.813-3.772.362-3.916-5.367-5.729-8.268-6.092-.653-.072-1.233-.145-1.886-.145-.362 1.451-.87 2.829-1.958 3.772-.29.217-.652.217-.797-.073-.508-.87-1.088-2.321-1.959-3.263-2.828.507-5.584 1.305-8.267 2.175.072.508.145 1.088.145 1.523.072 1.016.072 2.103-.145 3.046-.073.29-.363.435-.653.363-1.233-.363-1.958-1.306-2.901-2.103-.508-.436-1.088-.798-1.595-1.161-4.062 1.378-8.05 2.829-11.967 4.424a366.737 366.737 0 00-11.096 4.787 171.203 171.203 0 003.771-3.264c2.176-1.958 4.352-3.989 6.455-5.947-.725-1.45-1.16-3.191-1.015-4.714.072-.362.435-.652.797-.435.943.58 2.176 1.451 2.974 2.466 2.321-2.248 4.496-4.497 6.745-6.817 1.74-1.813 3.408-3.699 5.076-5.585-.362-.29-.653-.58-.943-.87-1.523-1.595-3.553-4.134-3.263-6.454.072-.363.435-.653.798-.436 1.595.871 3.046 1.813 4.714 2.466.725.29 1.45.653 2.103 1.161 1.74-2.321 3.336-4.714 4.641-7.253.798-1.523 1.596-3.336 2.103-5.076-1.74-.29-3.626-1.233-4.714-2.394-.217-.217-.217-.652.073-.797 1.45-.871 3.408-.871 5.222-.726 0-2.32-.653-4.569-2.539-6.454-1.958-1.886-4.424-2.829-7.107-2.393-2.538.435-4.859 1.885-6.89 3.481.435.58.798 1.16 1.016 1.523.942 1.45 2.32 3.481 1.813 5.294-.073.362-.58.507-.871.217-1.523-1.595-3.191-3.118-5.076-4.424-3.409 3.192-6.455 6.89-9.283 10.734.362.435.653 1.015.87 1.305.798 1.306 1.233 2.684.943 4.279a.546.546 0 01-.508.363c-1.668 0-2.901-1.306-4.424-1.668l-.435.653c-.217.29-.435.652-.725.942.29 1.161.943 2.249 1.233 3.409.29 1.233 0 2.611-.073 3.844 0 .29-.217.58-.507.507-1.886-.145-3.699-1.088-5.585-1.088-1.378 1.741-2.973 3.337-4.424 5.005-1.015 1.16-2.175 2.901-3.336 5.076 1.233 1.886 3.336 3.554 3.191 5.947 0 .363-.362.58-.652.508-1.596-.363-3.119-1.523-4.352-2.829a75.457 75.457 0 00-3.916 10.371c.653-2.828 2.248-15.085 2.321-17.986.072-1.16 0-2.465-.218-3.843-.435.217-.943.435-1.378.58-.943.362-2.103.798-3.118.508-.29-.073-.435-.363-.363-.653.508-1.958 1.741-3.916 3.119-5.512-.943-1.378-2.176-2.466-3.989-2.683-3.191-.435-6.89 1.45-9.283 3.481-1.813 1.523-2.466 3.844-2.683 6.237 1.885.29 3.843.362 5.656 1.233.363.145.29.58.073.797-.725.943-1.958 1.088-3.046 1.306-.943.217-1.813.508-2.683.798v.362c.217 2.829.725 5.585.797 8.413.073 3.046-.072 6.092.073 9.065v.508c-1.523-2.321-3.046-4.641-4.714-6.89-.943.798-1.958 1.523-2.974 1.886-.362.145-.797-.29-.652-.653.435-1.305 1.232-2.321 2.03-3.336a49.878 49.878 0 00-2.538-2.973c-1.451-1.596-2.974-3.119-4.642-4.424-.435.217-.87.435-1.232.652-1.088.653-2.104 1.161-3.336 1.016-.291-.073-.436-.363-.363-.653.363-1.233 1.088-2.321 1.958-3.263-.943-.653-1.958-1.306-3.046-1.814-1.16-.652-2.393-1.16-3.626-1.595-.798 1.378-2.031 2.973-3.409 3.554-.362.145-.652-.218-.652-.508-.146-1.451 0-2.828.217-4.206-1.885-.436-3.916-.798-5.874-.508-3.626.435-7.398 2.321-8.34 5.802-.581 2.175-.073 4.424.942 6.527a66.53 66.53 0 016.382-2.248c.581-.145.798.507.508.87-1.45 1.813-3.554 2.683-5.439 3.771.652.87 1.378 1.741 2.103 2.393 2.031 1.959 4.496 3.409 7.035 4.569.652-.87 1.233-1.813 1.885-2.755.581-.798 1.451-1.886 2.466-2.031.363-.073.653.145.653.508.072 2.03-.145 3.988-.29 6.019.507.145 1.088.363 1.595.508 1.306-1.378 2.321-2.974 3.409-4.497.29-.362.798-.29.943.145.435 1.161.507 2.539.435 3.771 0 .653-.073 1.306-.145 1.959 1.74.507 3.481 1.015 5.221 1.668 3.119 1.16 6.165 2.465 9.066 4.061 2.103 1.16 3.916 2.828 6.019 4.134 1.741 1.088 3.626 1.813 5.657 2.03 3.046 1.959 9.863.145 12.402-.507 4.133-1.016 8.122-2.466 12.111-3.917.145-1.015.145-1.74.29-2.465z" fill="#E3DCD5"/><path d="M276.885 235.951c-6.817.362-13.054 3.336-19.509 5.366-3.554 1.088-7.325 1.016-10.951 1.306-3.409.29-6.817 1.523-10.008 2.611-3.409 1.16-6.89 1.813-10.153 3.263-3.191 1.451-6.092 3.554-9.138 5.294-3.191 1.813-6.89 2.756-10.371 3.772-1.668.507-3.264 1.232-4.497 2.393.871-1.813 2.321-3.409 3.699-4.714 2.248-2.176 4.424-4.497 6.745-6.672 2.175-2.103 4.931-3.554 7.18-5.585 2.103-1.885 3.698-4.278 4.714-6.889.652-1.523 1.087-3.264 2.248-4.497.943-1.015 2.248-1.378 3.263-2.248 1.088-.943 1.958-2.031 2.756-3.264 1.016-1.377 2.176-2.61 3.264-3.988.943-1.088 1.74-2.249 2.248-3.554.725-1.668 1.015-3.409 2.031-4.932 1.813-2.683 4.641-4.351 7.179-6.237 2.684-2.03 4.424-4.278 5.367-7.542.87-2.828 1.813-5.729 4.134-7.542a6.418 6.418 0 00-1.233-.581c-1.233 1.088-2.176 2.539-2.828 4.134-1.088 2.684-1.451 5.657-3.336 7.905-1.814 2.176-4.352 3.699-6.6 5.367-2.466 1.886-4.279 4.206-5.222 7.18a13.96 13.96 0 01-2.32 4.641c-.943 1.233-2.104 2.321-3.046 3.554-.943 1.305-1.741 2.611-2.901 3.699-1.016.942-2.321 1.378-3.336 2.32-1.016.871-1.523 2.104-2.031 3.336-.653 1.668-1.306 3.337-2.248 4.86-1.596 2.538-3.844 4.351-6.31 5.946-3.698 2.466-6.382 5.947-9.573 8.921-1.74 1.595-3.771 3.553-4.786 5.874 0-.145-.073-.29-.073-.507-.435-2.394-.653-4.932-.363-7.398.581-4.351 2.974-8.485 2.901-12.982 0-2.103-.87-4.133-1.015-6.237-.145-2.32.435-4.641.58-6.889.145-3.409-.362-6.6-1.885-9.573-.363.145-.726.29-1.088.507 1.668 3.191 1.958 6.673 1.74 10.299-.145 2.175-.652 4.351-.435 6.527.218 2.103 1.016 4.134.943 6.237-.073 2.175-.943 4.351-1.523 6.382-.653 2.103-1.233 4.206-1.451 6.454-.217 2.031 0 4.134.291 6.165 0 .217.072.362.072.58l-.435-.653c-1.523-2.03-3.118-4.133-4.932-5.947-2.32-2.32-5.004-4.206-7.542-6.164-2.393-1.886-5.222-3.264-7.107-5.729-.726-.871-1.378-1.741-2.249-2.466-1.16-.87-2.538-1.378-3.916-1.886-1.523-.58-2.901-1.378-4.061-2.538-1.088-1.015-1.886-2.248-3.046-3.264-1.305-1.088-2.974-1.45-4.569-1.885-1.886-.508-3.771-.943-5.657-1.596-.29-.072-.58-.217-.87-.362-.29.29-.58.652-.798 1.015 1.813.943 4.714 1.523 5.439 1.74 1.523.436 3.119.653 4.569 1.306 1.306.58 2.176 1.741 3.046 2.756 1.016 1.16 2.176 2.176 3.554 2.973 1.305.725 2.683 1.161 3.989 1.741 1.305.58 2.248 1.45 3.191 2.538.797 1.015 1.523 2.031 2.611 2.829 1.378 1.015 2.901 1.813 4.206 2.9 2.538 2.031 5.149 3.917 7.542 6.092 2.031 1.814 3.772 4.062 5.44 6.237.29.363.652.798.942 1.306 1.016.362 2.031.653 3.191.798l.436.217c.942-1.015 2.538-1.813 3.481-2.103 3.336-1.088 6.744-2.031 10.008-3.409 3.263-1.378 6.092-3.626 9.138-5.294 3.336-1.813 6.962-2.538 10.516-3.626 3.481-1.015 6.889-2.393 10.516-2.828 3.481-.435 6.962-.29 10.443-1.161 3.409-.87 6.672-2.32 10.008-3.408 3.336-1.161 6.817-1.958 10.371-2.104-.29-.362-.435-.725-.58-1.087z" fill="#DA7015"/><path d="M173.54 212.091c-.145.145-.29.362-.363.652-.435 1.306 1.233 2.103 2.756 2.394-.653 1.232 1.813 2.61 3.191 2.901-1.088 1.305 1.305 3.408 2.611 4.061l-.073.072c-1.087 1.088 1.306 2.829 2.829 3.627a.549.549 0 00-.145.362c-.145 1.813 1.813 3.264 3.336 3.989-.218 0-.435.29-.435.508-.073 1.523 1.668 4.061 3.408 3.843.218 0 .435-.145.435-.435 0-.145-.072-.29-.072-.435.145-1.523.653-4.932-1.088-5.149h-.363c0-1.741-.217-3.626-1.595-4.279-.29-.145-.58-.145-.725 0-.29-1.16-.726-2.393-1.958-2.611h-.291c-.217-1.16-.362-2.466-1.378-3.118-.435-.29-.87-.29-1.16-.073-.072-.145-.072-.29-.145-.362-.363-1.233-.798-2.684-1.74-3.554a1.071 1.071 0 00-.943-.29c-.508-1.306-1.306-2.539-2.249-3.119-.435-.29-1.232-.29-1.668.073-1.16-1.378-2.32-2.321-3.988-3.119-.29-.145-.653 0-.798.29-.653 1.741.943 2.901 2.611 3.772zm41.773 11.531c1.45.58 2.611-.943 3.263-2.248.508-.798.943-1.523 1.016-1.813.072-.291-.073-.508-.363-.653-.218-.073-.508-.073-.725-.073 1.233-1.378 2.321-3.118 1.16-4.496-.29-.29-.58-.363-.798-.29.145-.29.29-.508.508-.798.435-.725 1.015-1.886.508-2.683-.435-.726-1.233-.726-1.813-.291a3.54 3.54 0 000-1.232c-.073-.726-.653-2.031-1.596-1.741-1.015.29-.725 2.393-.362 4.134h-.218c-1.451 0-.58 2.901.145 4.496-.29-.217-.725-.362-1.233-.435-.29 0-.435.218-.508.508a5.337 5.337 0 001.016 3.481c-.29-.145-.726-.073-1.161.363-1.015 1.015 0 3.263 1.161 3.771zm42.426 3.046c.363-.653-.145-.943-.798-1.161.145-.072.363-.217.508-.29 1.668-.072 3.554-.362 4.279-2.03.145-.29 0-.58-.29-.653h-.073c1.378-.29 2.684-1.015 3.481-2.176.218-.29 0-.652-.29-.725-.362-.145-.725-.145-1.088-.145 1.886-.653 4.279-1.233 3.989-3.264-.217-1.45-2.175-.435-3.336.363a.742.742 0 00-.435-.363c-1.45-.942-2.321 1.669-2.538 3.046-.145-.217-.29-.435-.581-.507-.942-.218-1.377 1.45-1.595 2.538-.87-.798-1.958 1.233-2.611 2.466-.072-.073-.145-.145-.217-.145-1.233-.798-3.191 1.523-3.772 2.683-.072.073-.217.145-.217.218-.218.29 0 .58.29.725 1.233.435 4.424.87 5.294-.58z" fill="#DA7015"/><path fill-rule="evenodd" clip-rule="evenodd" d="M42.87 51.133c0 .508.436.652.653.87.798.798 1.596 1.668 2.176 2.61.725 1.161.798 2.394-.073 3.482-.797 1.088-1.958 1.378-3.19 1.088-1.669-.363-3.047-1.306-4.425-2.32-.29-.218-.507-.581-1.015-.581-.435.363-.363.943-.435 1.45-.29 1.45-.58 2.901-1.305 4.207-.726 1.305-1.741 1.813-3.046 1.668-1.16-.145-1.886-.798-2.249-1.958-.362-1.233-.145-2.466.218-3.699.218-.798.58-1.596.943-2.393.435-.943.87-1.886 1.233-2.901.507-1.596 1.45-2.103 3.118-1.813.508.072.943.072 1.233-.435.145-.29.435-.508.653-.726.58-.58.87-1.595.58-2.32-.072-.29-.29-.363-.508-.363-.942-.145-1.668-.58-2.393-1.45-.435.652-.725 1.305-1.305 1.74-.435.29-.29.798-.29 1.16.145 1.16-.29 2.031-1.088 2.829-1.233 1.088-2.611 1.958-4.134 2.538a4.54 4.54 0 01-1.958.218c-1.958-.218-3.046-2.03-2.394-3.916.363-1.016 1.088-1.669 1.886-2.321.87-.725 1.813-1.233 2.756-1.813-.29-.653-.87-.87-1.233-1.233-.798-.798-1.595-1.523-2.03-2.539-.508-1.16-.363-2.175.507-3.046.798-.87 1.886-1.16 2.974-.725 1.813.798 3.408 1.886 4.496 3.626.29.508.508 1.016 1.233 1.233v-3.553c0-1.088.072-2.103.29-3.119.363-1.595 1.378-2.466 2.756-2.538 1.523-.073 2.61.87 3.118 2.466.29 1.015.29 2.103.218 3.118-.145 1.668-.29 3.409-.943 5.222 1.45-.508 2.756-.798 4.134-.725.798 0 1.668.072 2.393.435 1.088.58 1.813 1.45 1.886 2.683.072 1.233-.58 2.103-1.596 2.683-.797.508-1.74.798-2.683.943-.508.073-.87 0-1.16.218z" fill="#122528"/><path fill-rule="evenodd" clip-rule="evenodd" d="M42.726 46.419c.508 2.756.363 5.44-1.16 7.832-2.321 3.772-6.02 4.642-9.719 2.321-2.32-1.45-3.843-3.554-3.843-6.455 0-1.015-.218-1.958-.146-2.973.29-3.989 2.684-6.672 6.455-6.962 3.844-.363 7.398 2.103 8.34 5.73 0 .144 0 .362.073.507z" fill="#6CB4B8"/><path fill-rule="evenodd" clip-rule="evenodd" d="M13.466 89.56c0 .345.294.443.442.59.54.54 1.08 1.13 1.473 1.768.49.786.54 1.62-.05 2.357-.54.736-1.325.933-2.16.736-1.13-.245-2.063-.883-2.995-1.57-.197-.148-.344-.394-.688-.394-.295.246-.245.639-.295.982-.196.983-.392 1.965-.883 2.849-.491.883-1.179 1.227-2.063 1.129-.786-.098-1.277-.54-1.522-1.326-.246-.835-.098-1.67.147-2.504.148-.54.393-1.08.639-1.62.294-.64.589-1.277.834-1.965.344-1.08.982-1.424 2.112-1.227.344.049.638.049.835-.295.098-.196.294-.344.442-.491.392-.393.589-1.08.392-1.572-.049-.196-.196-.245-.343-.245-.639-.098-1.13-.393-1.62-.982-.295.442-.492.884-.885 1.178-.294.197-.196.54-.196.786.098.786-.196 1.375-.737 1.915a9.163 9.163 0 01-2.799 1.719 3.075 3.075 0 01-1.325.147C.895 91.378.158 90.15.6 88.874c.245-.688.736-1.13 1.276-1.572.59-.49 1.227-.835 1.866-1.228-.197-.441-.59-.589-.835-.834-.54-.54-1.08-1.031-1.375-1.719-.344-.786-.245-1.473.344-2.062.54-.59 1.277-.786 2.013-.491 1.228.54 2.308 1.276 3.045 2.455.196.344.343.687.834.835v-2.406c0-.737.05-1.425.197-2.112.245-1.08.933-1.67 1.866-1.719 1.031-.049 1.768.59 2.111 1.67.197.687.197 1.424.148 2.111-.099 1.13-.197 2.308-.639 3.536.982-.344 1.866-.54 2.8-.491.54 0 1.129.049 1.62.295.736.392 1.227.982 1.276 1.816.05.835-.392 1.424-1.08 1.817-.54.344-1.179.54-1.817.639-.344.049-.59 0-.785.147z" fill="#122528"/><path fill-rule="evenodd" clip-rule="evenodd" d="M13.367 86.37c.344 1.865.246 3.682-.785 5.302-1.572 2.554-4.076 3.143-6.58 1.572-1.572-.982-2.603-2.406-2.603-4.37 0-.688-.147-1.326-.098-2.014.196-2.7 1.817-4.517 4.37-4.714 2.603-.245 5.009 1.424 5.647 3.88 0 .098 0 .245.05.343z" fill="#6CB4B8"/></svg>