<svg width="20" height="19" fill="none" xmlns="http://www.w3.org/2000/svg"><path fill-rule="evenodd" clip-rule="evenodd" d="M10.199 5.078c.257-.67.463-1.236.72-1.802.31-.722.67-1.443 1.185-2.01.722-.772 1.752-1.03 2.576-.618.773.361 1.236 1.34 1.082 2.318-.155 1.03-.567 2.01-.979 2.988-.051.155-.154.31-.206.464-.36.875-.36.875.567.978a11.04 11.04 0 012.884.567c.258.103.516.206.722.31.875.514 1.339 1.235 1.236 2.266-.103.978-.824 1.442-1.7 1.7a5.65 5.65 0 01-2.627.154c-.721-.154-.876 0-.67.773.206.979.464 1.906.721 2.884.103.464.103.928-.051 1.391-.515 1.34-2.06 1.7-2.988.567-.618-.67-.927-1.494-1.185-2.318-.154-.412-.257-.824-.412-1.288-.36.155-.515.515-.67.773-.669.875-1.287 1.751-2.111 2.472-.31.31-.67.567-1.082.773-1.442.618-2.885-.412-2.833-1.958.051-.772.36-1.442.67-2.111.257-.516.566-1.03.875-1.597-.412-.258-.721-.103-1.03-.052-.824.103-1.597.206-2.421.052-.567-.103-1.133-.31-1.545-.67-1.134-.927-1.237-2.37-.258-3.4 1.185-1.236 2.73-1.7 4.43-1.648.309 0 .67.206 1.03-.052-.154-.463-.515-.772-.772-1.133-.722-.979-1.288-2.009-1.494-3.194-.206-.978.051-1.802.875-2.318.825-.566 1.649-.36 2.37.155C8.396 1.42 9.27 2.657 9.89 4.048c-.052.36 0 .67.309 1.03zm.72 6.903c.413-.36.722-.721 1.082-1.03.413-.36.155-.773.104-1.133-.052-.413-.413-.258-.67-.31-.618-.051-1.082-.36-1.494-.824-.103-.154-.206-.257-.412-.206-.206.103-.258.36-.155.515.567 1.03.567 2.215 1.546 2.988z" fill="#122528"/><path fill-rule="evenodd" clip-rule="evenodd" d="M16.534 10.023c.155 3.915-3.142 5.976-5.975 6.285-1.236.103-2.421-.052-3.554-.67-1.546-.876-2.318-2.215-2.37-3.966 0-.567-.051-1.133-.154-1.7C3.966 6.83 5.614 4.254 8.6 3.378c2.988-.875 6.079.567 7.264 3.349.412 1.03.72 2.215.67 3.296z" fill="#FFCE33"/></svg>