<svg width="274" height="274" fill="none" xmlns="http://www.w3.org/2000/svg"><circle cx="137" cy="137" r="137" fill="#FFEEC4"/><circle cx="137" cy="137" r="124" fill="#fff"/><path d="M99.158 202.86c-1.7-.4-2.2 1.3-2.9 2.5-1.9 3.8-4.4 7.4-7.3 10.6 2-6.1 4.6-11.8 7-17.8.7-1.6 3.9-12.3-1.2-10.3-3.1 1.1-4.8 6.2-6 8.9-1.7 4-3.7 7.9-5.4 11.9-.1-3-.1-6 .1-9 .1-1.4-1.6-1.9-2.5-1.1-1.3 1-1.7 4.7-2.1 6.2-1.2 4.9-2.1 9.9-1.8 14.9.2 2.8.4 8.6 4.6 7.8 1.2-.2 2.2-1.4 3.1-2.1 1.7.8 4-.9 5.2-1.8 5.8-4.2 8.9-11.5 10.8-18.1.5-1.2-.5-2.3-1.6-2.6zm95.3-3.4c2-2 8-5.2 8.7-7.9.8-3.6-3-2.9-4.8-2-6.4 3.2-13.6 7.2-17 13.8-5.2 3.3 1.6 7 4.4 8.3 4 1.9 8.2 2.6 12.6 2.4 2-.1 10.6 0 7.5-4.3-1.4-2-9.2-1.4-11.8-2.2 3.5-1.4 7.1-2.6 10.6-3.8 2.5-.9 9.9-2.6 10.6-5.7.8-4.8-18.7.7-20.8 1.4zm-63.399-25.3c.1-.1.1-.1 0 0zm15.899 5.6c-1.2.8-1.6 2.9-2.5 4.1-1.1 1.4-2.5 2.7-3.9 3.9 2-5.4 3.8-10.8 6.2-16 1-2.2 5.4-7.7.8-8.7-6.3-1.3-13.2 18.9-15.3 23.2-1.4-3.8-2.1-7.4-1.3-11.4.5-2.9-4.2-4.4-5.2-1.5-1.2 3.7-1.5 7.7-1 11.5s4.1 21.1 10.9 15.7c5.3-1.1 12.6-10 14.3-15.1.7-1.8.8-8.4-3-5.7z" fill="#FFCE33"/><path d="M131.058 174.16c0 .1-.1.3-.1.7.1-.4.1-.6.1-.7z" fill="#FFCE33"/><path d="M75.488 85.984c0 .782-.515 1.172-1.547 1.172-.039 0-.343-.012-.914-.035-.109 1.25-.164 3.031-.164 5.344 0 .836.04 2.086.118 3.75.085 1.656.128 2.902.128 3.738 0 .258.035.645.106 1.16.07.516.105.903.105 1.16 0 .329-.113.602-.34.821a1.13 1.13 0 01-.832.328c-.648 0-1.03-.363-1.148-1.09-.148-.922-.223-1.715-.223-2.379 0-.836-.039-2.082-.117-3.738-.078-1.664-.117-2.914-.117-3.75 0-2.32.055-4.14.164-5.461h-.012c.164.008-.113.043-.832.105-.382.024-1.183.035-2.402.035-2.14 0-4.188-.035-6.14-.105.226 3.961.34 6.703.34 8.227 0 .382-.024.914-.071 1.593a39.693 39.693 0 00-.094 1.606c-.016.39-.016.906 0 1.547.016.812.023 1.332.023 1.558 0 1.242-.402 1.864-1.206 1.864-.57 0-.93-.243-1.079-.727-.062-.203-.093-.676-.093-1.418 0-1.281.007-2.242.023-2.883.008-.297.04-.82.094-1.57.047-.664.07-1.188.07-1.57 0-.922-.113-3.684-.34-8.285-.164 0-.445.003-.843.011-.36.008-.641.012-.844.012-.336 0-.614-.11-.832-.328a1.127 1.127 0 01-.328-.832c0-.813.625-1.219 1.875-1.219.726 0 1.816.031 3.27.094 1.452.054 2.542.082 3.269.082l9.761.023c.336 0 .614.11.832.328.227.22.34.496.34.832zm14.625 9.762c0 1.93-.539 3.68-1.617 5.25-1.258 1.82-2.898 2.731-4.922 2.731-1.656 0-3.062-.489-4.218-1.465-1.227-1.032-1.84-2.368-1.84-4.008 0-1.93.59-3.692 1.77-5.285 1.32-1.797 2.991-2.696 5.015-2.696 3.875 0 5.812 1.825 5.812 5.473zm-2.437 0c0-1.187-.254-2.004-.762-2.45-.5-.444-1.371-.667-2.613-.667-1.203 0-2.242.605-3.117 1.816a6.406 6.406 0 00-1.23 3.809c0 .937.355 1.7 1.066 2.285.68.555 1.53.832 2.554.832 1.188 0 2.184-.605 2.989-1.816.742-1.118 1.113-2.387 1.113-3.809zm16.91 9.082c0 .336-.109.613-.328.832a1.127 1.127 0 01-.832.328c-.805 0-1.207-.64-1.207-1.922 0-.109.004-.296.011-.562V103h-6.503c-.243 0-.586.023-1.032.07-.484.047-.832.075-1.043.082-.008.227-.008.52 0 .879.016.446.024.739.024.879 0 .344-.11.621-.328.832a1.126 1.126 0 01-.832.328c-.813 0-1.22-.578-1.22-1.734 0-.297.009-.738.024-1.324.016-.586.024-1.028.024-1.324 0-.383.129-.68.387-.891.265-.219.585-.305.96-.258.797-1.125 1.336-2.398 1.618-3.82.21-1.031.316-2.41.316-4.137 0-.726.156-1.238.469-1.535.312-.297.836-.445 1.57-.445.195 0 .559.015 1.09.046.539.032.965.047 1.277.047.297 0 .738-.023 1.324-.07a15.462 15.462 0 011.266-.082c.609 0 1.004.258 1.184.773.093.274.14.79.14 1.547 0 .36-.023.895-.07 1.606-.039.703-.059 1.23-.059 1.582 0 .61.008 1.398.024 2.367.023 1.305.035 2.094.035 2.367 1.109 0 1.664.391 1.664 1.172 0 .32.008.797.023 1.43.016.64.024 1.121.024 1.441zm-3.961-11.847c-1.953.03-3.184.03-3.691 0 0 2.828-.633 5.398-1.899 7.71.196-.015.426-.023.692-.023h4.828c0-.336-.016-1.106-.047-2.309-.016-.953-.024-1.722-.024-2.308 0-.336.024-.844.071-1.524.047-.687.07-1.203.07-1.546zm15.293 10.792c-.148 0-.418-.171-.809-.515-.351-.32-.613-.606-.785-.856-.75.407-1.41.711-1.98.914-.571.211-1.047.317-1.43.317-1.828 0-3.16-.516-3.996-1.547-.789-.969-1.184-2.453-1.184-4.453 0-1.89.649-3.508 1.946-4.852 1.304-1.344 2.859-2.015 4.664-2.015.679 0 1.441.175 2.285.527 1.062.438 1.594.965 1.594 1.582a.79.79 0 01-.235.563c-.078.296-.14.785-.187 1.464a54.42 54.42 0 00-.071 2.614c-.007.968.059 1.734.2 2.296.078.344.324 1.032.738 2.063.055.141.144.348.27.621l.07.199c0 .313-.11.571-.328.774a1.086 1.086 0 01-.762.304zm-2.438-8.144c0-.336.02-.7.059-1.09.047-.398.113-.82.199-1.266a5.503 5.503 0 00-.75-.328 1.592 1.592 0 00-.492-.105c-1.211 0-2.258.496-3.141 1.488-.875.984-1.312 2.121-1.312 3.41 0 1.281.227 2.243.68 2.883.453.641 1.132.961 2.039.961.75 0 1.386-.137 1.91-.41.281-.149.676-.445 1.183-.891-.25-2.07-.375-3.62-.375-4.652zm14.555-3.797c0 .344-.109.629-.328.856-.211.218-.484.328-.82.328-.211 0-.528-.008-.949-.024a18.17 18.17 0 00-.938-.035c-.234 0-.523.024-.867.07.172 4.117.258 6.91.258 8.379 0 1.563-.414 2.344-1.243 2.344-.312 0-.586-.102-.82-.305a.982.982 0 01-.34-.761c0-.297.012-.743.035-1.336.024-.594.036-1.039.036-1.336 0-1.031-.079-3.352-.235-6.961a30.107 30.107 0 00-1.488-.024c-.68 0-1.152-.046-1.418-.14-.492-.172-.738-.531-.738-1.078 0-.328.101-.61.304-.844.211-.234.485-.352.821-.352h6.914c.578 0 .996.059 1.254.176.375.18.562.527.562 1.043zm11.473 7.395c0 1.375-.539 2.398-1.617 3.07-.914.578-2.157.867-3.727.867-.289 0-.68-.008-1.172-.023-.57-.032-.965-.047-1.183-.047-.125.031-.25.047-.375.047-.797 0-1.196-.539-1.196-1.618 0-.148.043-.617.129-1.406a28.22 28.22 0 00.164-2.941c0-.625-.039-1.508-.117-2.649a46.875 46.875 0 01-.105-2.66c0-.828.379-1.242 1.136-1.242.805 0 1.207.36 1.207 1.078 0 .82.051 1.953.153 3.399.383-.016.683-.024.902-.024 1.883 0 3.266.254 4.148.762 1.102.64 1.653 1.77 1.653 3.387zm-2.262 0c0-.875-.269-1.465-.808-1.77-.438-.258-1.219-.387-2.344-.387-.305 0-.727.016-1.266.047.008.164.012.32.012.469 0 .594-.07 1.773-.211 3.539.648.016 1.16.023 1.535.023 2.055 0 3.082-.64 3.082-1.921zm19.781.304c0 1.235-.363 2.215-1.089 2.942-.719.718-1.688 1.078-2.907 1.078-.984 0-1.828-.121-2.531-.363-1.023-.352-1.535-.911-1.535-1.676 0-.211.113-.438.34-.68.234-.242.457-.363.668-.363.312 0 .781.144 1.406.433.633.282 1.183.422 1.652.422.43 0 .832-.187 1.207-.562.383-.383.574-.793.574-1.23 0-.571-.292-1.009-.878-1.313-.204-.11-.746-.285-1.629-.528-.735-.203-1.102-.464-1.102-.785 0-.453.188-.762.563-.925.164-.063.543-.133 1.136-.212.571-.062.977-.18 1.219-.351.383-.266.574-.715.574-1.348 0-.93-.754-1.394-2.261-1.394-.352 0-.739.16-1.161.48-.421.313-.773.469-1.054.469a1.23 1.23 0 01-.809-.293.923.923 0 01-.34-.726c0-.54.434-1.047 1.301-1.524.766-.422 1.453-.633 2.063-.633 1.117 0 2.113.254 2.988.762 1.031.61 1.547 1.43 1.547 2.46 0 1.352-.438 2.384-1.313 3.095.914.96 1.371 1.882 1.371 2.765zm12.024 4.242c-.149 0-.418-.171-.809-.515-.351-.32-.613-.606-.785-.856-.75.407-1.41.711-1.98.914-.571.211-1.047.317-1.43.317-1.828 0-3.16-.516-3.996-1.547-.789-.969-1.184-2.453-1.184-4.453 0-1.89.649-3.508 1.945-4.852 1.305-1.344 2.86-2.015 4.665-2.015.679 0 1.441.175 2.285.527 1.062.438 1.593.965 1.593 1.582 0 .21-.078.398-.234.563-.078.296-.141.785-.187 1.464a54.42 54.42 0 00-.071 2.614c-.008.968.059 1.734.199 2.296.079.344.325 1.032.739 2.063.054.141.144.348.269.621l.071.199c0 .313-.11.571-.329.774a1.082 1.082 0 01-.761.304zm-2.438-8.144c0-.336.02-.7.059-1.09.047-.398.113-.82.199-1.266a5.503 5.503 0 00-.75-.328 1.592 1.592 0 00-.492-.105c-1.211 0-2.258.496-3.141 1.488-.875.984-1.312 2.121-1.312 3.41 0 1.281.226 2.243.679 2.883.454.641 1.133.961 2.04.961.75 0 1.386-.137 1.91-.41.281-.149.675-.445 1.183-.891-.25-2.07-.375-3.62-.375-4.652zm14.649 6.633c0 .328-.125.601-.375.82-.242.227-.532.34-.867.34-.344 0-.637-.113-.879-.34a1.057 1.057 0 01-.364-.82c0-.328-.007-.77-.023-1.324l-.047-1.536c-1.078.36-2.105.887-3.082 1.582-.531.383-1.383 1.082-2.555 2.098-.265.234-.554.352-.867.352-.336 0-.629-.118-.879-.352-.25-.227-.375-.5-.375-.82 0-.735 1.293-1.848 3.879-3.34-2-.875-3-1.934-3-3.176 0-1.75 1.192-3.191 3.574-4.324.993-.469 2.391-.703 4.196-.703.406 0 .746.148 1.019.445.281.29.422.648.422 1.078 0 1.11.035 2.777.106 5.004.078 2.227.117 3.899.117 5.016zm-2.59-4.805a558.58 558.58 0 00-.141-4.559c-.39.024-.644.043-.761.059-.672.07-1.383.367-2.133.89-.875.602-1.317 1.25-1.325 1.946.391.773 1.024 1.273 1.899 1.5.484.125 1.305.18 2.461.164zm15.246 2.484c0 1.43-1.109 2.442-3.328 3.036-1.391.375-3.082.562-5.074.562-.305 0-.598-.121-.879-.363-.274-.242-.41-.512-.41-.809v-2.226l.117-6.282v-1.171c.008-.477.058-.86.152-1.149.063-.219.18-.371.352-.457.078-.047.293-.11.644-.188.469-.117 1.25-.175 2.344-.175 1.258 0 2.398.304 3.422.914 1.195.71 1.793 1.656 1.793 2.836 0 1.094-.586 1.894-1.758 2.402.594.258 1.16.676 1.699 1.254.617.656.926 1.262.926 1.816zm-3.059-5.472c0-.477-.328-.895-.984-1.254-.578-.32-1.125-.48-1.641-.48h-.48c-.594 0-.996.011-1.207.034-.008.266-.012.696-.012 1.29 0 .148.02.441.059.879.031.367.039.664.023.89.445.047.848.07 1.207.07.875 0 1.512-.054 1.91-.164.75-.21 1.125-.632 1.125-1.265zm.739 5.367c0-.422-.309-.82-.926-1.195a4.611 4.611 0 00-1.5-.61c-.305-.062-.754-.097-1.348-.105a27.784 27.784 0 01-1.359-.047c-.031.531-.047.98-.047 1.348v2.285c3.453-.149 5.18-.707 5.18-1.676zm14.543 2.273a.922.922 0 01-.375.762 1.277 1.277 0 01-.821.293c-.547 0-.925-.277-1.136-.832-.204-.555-.77-1.492-1.7-2.813-.992-1.398-1.632-2.101-1.921-2.109h-1.407c0 .258-.004.715-.011 1.371-.008.61-.012 1.07-.012 1.383 0 1.281-.02 2.012-.059 2.191-.125.633-.508.95-1.148.95-.328 0-.61-.098-.844-.293a.971.971 0 01-.34-.774c0-.367.016-.941.047-1.722.031-.79.047-1.372.047-1.747 0-.742-.027-1.855-.082-3.34a98.47 98.47 0 01-.082-3.35c0-1.009.402-1.513 1.207-1.513.328 0 .605.102.832.305.226.203.34.461.34.773 0 .57.027 1.723.082 3.458h.855c.953-.063 1.641-.489 2.063-1.278.125-.289.289-.664.492-1.125.602-1.25 1.348-1.875 2.238-1.875.282 0 .574.067.879.2.391.171.586.398.586.68 0 .616-.266.925-.797.925-.437 0-.89.523-1.359 1.57a93.483 93.483 0 01-.551 1.184c-.242.445-.512.789-.809 1.031.782.555 1.602 1.469 2.461 2.742.883 1.305 1.325 2.289 1.325 2.953zm12.304-9.562l-4.054 8.765c-1 2.133-1.766 3.918-2.297 5.356l-.774 2.273c-.203.563-.554.844-1.054.844-.328 0-.614-.109-.856-.328a1.028 1.028 0 01-.351-.797c0-.781.843-3.043 2.531-6.785l-4.195-8.074-.528-.856c-.211-.36-.316-.66-.316-.902 0-.32.121-.602.363-.844.25-.242.527-.363.832-.363.359 0 .637.137.832.41 1.328 1.844 2.754 4.469 4.277 7.875l1.735-4.043c.625-1.398 1.226-2.601 1.805-3.61.25-.437.578-.656.984-.656.32 0 .601.114.844.34.25.227.375.496.375.809 0 .172-.051.367-.153.586zM98.492 132.94c0 1.43-1.11 2.442-3.328 3.036-1.39.375-3.082.562-5.074.562-.305 0-.598-.121-.88-.363-.272-.242-.41-.512-.41-.809v-2.226l.118-6.282v-1.171c.008-.477.059-.86.152-1.149.063-.219.18-.371.352-.457.078-.047.293-.109.644-.187.47-.118 1.25-.176 2.344-.176 1.258 0 2.399.304 3.422.914 1.195.711 1.793 1.656 1.793 2.836 0 1.093-.586 1.894-1.758 2.402.594.258 1.16.676 1.7 1.254.617.656.925 1.262.925 1.816zm-3.058-5.472c0-.477-.328-.895-.985-1.254-.578-.32-1.125-.481-1.64-.481h-.48c-.595 0-.997.012-1.208.036-.008.265-.012.695-.012 1.289 0 .148.02.441.059.879.031.367.039.664.023.89.446.047.848.07 1.207.07.875 0 1.512-.054 1.91-.164.75-.211 1.126-.632 1.126-1.265zm.738 5.367c0-.422-.309-.82-.926-1.195a4.615 4.615 0 00-1.5-.61c-.305-.062-.754-.097-1.348-.105a27.733 27.733 0 01-1.359-.047c-.031.531-.047.98-.047 1.348v2.285c3.453-.149 5.18-.707 5.18-1.676zm21.34-8.027c0 .586-.321.961-.961 1.125-.289.07-.852.105-1.688.105-.406 0-1.09-.027-2.051-.082a31.802 31.802 0 00-2.039-.059l-.316.012c.07.524.148 1.317.234 2.379.118 3.383.176 5.746.176 7.09 0 .336-.109.613-.328.832-.219.219-.5.328-.844.328-.336 0-.613-.109-.832-.328a1.13 1.13 0 01-.328-.832c0-1.305-.055-3.649-.164-7.031-.008-.305-.059-.809-.152-1.512a13.522 13.522 0 01-.117-1.512c0-1.156.902-1.734 2.707-1.734.437 0 1.097.023 1.98.07.891.039 1.555.059 1.992.059.18 0 .446-.016.797-.047.36-.031.629-.047.809-.047.328 0 .597.113.808.34.211.226.317.508.317.844zm6.926 11.601c-.782 0-1.641-.125-2.579-.375l-.023 5.602c0 .343-.109.625-.328.843-.211.219-.485.329-.82.329a1.13 1.13 0 01-.833-.329c-.21-.218-.316-.5-.316-.843l.035-4.688v-4.676a88.32 88.32 0 00-.176-4.675l-.175-2.379c0-.555.101-1.024.304-1.407.235-.46.575-.691 1.02-.691.305 0 .558.109.762.328.211.211.316.473.316.785 0 .071-.012.2-.035.387a7.904 7.904 0 00-.082.668c.672-.461 1.32-.805 1.945-1.031.625-.235 1.223-.352 1.793-.352 1.602 0 2.774.711 3.516 2.133.586 1.125.879 2.613.879 4.465 0 1.687-.453 3.078-1.36 4.172-.961 1.156-2.242 1.734-3.843 1.734zm.808-10.16c-.719 0-1.367.16-1.945.48-.414.227-.938.641-1.571 1.243.102 1.773.153 3.636.153 5.589a7.041 7.041 0 002.555.493c.976 0 1.722-.364 2.238-1.09.445-.633.668-1.453.668-2.461 0-1.422-.176-2.484-.528-3.188-.343-.711-.867-1.066-1.57-1.066zm17.274-.703l-4.055 8.765c-1 2.133-1.766 3.918-2.297 5.356l-.773 2.273c-.204.563-.555.844-1.055.844-.328 0-.613-.109-.856-.328a1.028 1.028 0 01-.351-.797c0-.781.844-3.043 2.531-6.785l-4.195-8.074-.528-.856c-.211-.359-.316-.66-.316-.902 0-.32.121-.602.363-.844.25-.242.528-.363.832-.363.36 0 .637.137.832.41 1.328 1.844 2.754 4.469 4.278 7.875l1.734-4.043c.625-1.398 1.227-2.601 1.805-3.609.25-.438.578-.657.984-.657.32 0 .602.114.844.34.25.227.375.496.375.809 0 .172-.051.367-.152.586zm14.554 9.715c0 .336-.109.613-.328.832-.219.218-.5.328-.844.328a1.13 1.13 0 01-.832-.328 1.13 1.13 0 01-.328-.832c0-.633-.051-1.574-.152-2.824-.102-1.25-.152-2.192-.152-2.825 0-.172.031-1.336.093-3.492-.304 0-1.117-.008-2.437-.023-1-.016-1.817-.024-2.449-.024-.274 0-.829.055-1.665.164.016.539.071 1.496.165 2.871.078 1.203.117 2.157.117 2.86 0 .375-.035.937-.106 1.687-.07.75-.105 1.317-.105 1.699 0 .336-.11.614-.328.833-.219.218-.5.328-.844.328a1.13 1.13 0 01-.832-.328 1.129 1.129 0 01-.328-.833c0-.382.035-.949.105-1.699.078-.75.117-1.312.117-1.687 0-.727-.05-1.809-.152-3.246-.094-1.446-.141-2.532-.141-3.258 0-.43.133-.781.399-1.055.273-.281.625-.422 1.055-.422.281 0 .703-.039 1.265-.117.563-.086.988-.129 1.278-.129.671 0 1.683.012 3.035.035 1.351.016 2.363.024 3.035.024.312 0 .582.117.808.351.235.227.352.496.352.809 0 .508-.02 1.269-.059 2.285a64.878 64.878 0 00-.058 2.285c0 .641.051 1.594.152 2.86.11 1.265.164 2.222.164 2.871zm15.539 0c0 .336-.109.613-.328.832-.219.218-.5.328-.844.328a1.13 1.13 0 01-.832-.328 1.13 1.13 0 01-.328-.832c0-.633-.051-1.574-.152-2.824-.102-1.25-.152-2.192-.152-2.825 0-.172.031-1.336.093-3.492-.304 0-1.117-.008-2.437-.023-1-.016-1.817-.024-2.449-.024-.274 0-.829.055-1.664.164.015.539.07 1.496.164 2.871.078 1.203.117 2.157.117 2.86 0 .375-.035.937-.106 1.687-.07.75-.105 1.317-.105 1.699 0 .336-.11.614-.328.833-.219.218-.5.328-.844.328a1.13 1.13 0 01-.832-.328 1.129 1.129 0 01-.328-.833c0-.382.035-.949.105-1.699.078-.75.117-1.312.117-1.687 0-.727-.05-1.809-.152-3.246-.094-1.446-.14-2.532-.14-3.258 0-.43.132-.781.398-1.055.273-.281.625-.422 1.055-.422.281 0 .703-.039 1.265-.117.563-.086.989-.129 1.278-.129.671 0 1.683.012 3.035.035 1.351.016 2.363.024 3.035.024.312 0 .582.117.808.351.235.227.352.496.352.809 0 .508-.019 1.269-.059 2.285a64.878 64.878 0 00-.058 2.285c0 .641.051 1.594.152 2.86.11 1.265.164 2.222.164 2.871zm13.477-9.715l-4.055 8.765c-1 2.133-1.765 3.918-2.297 5.356l-.773 2.273c-.203.563-.555.844-1.055.844-.328 0-.613-.109-.855-.328a1.026 1.026 0 01-.352-.797c0-.781.844-3.043 2.531-6.785l-4.195-8.074-.527-.856c-.211-.359-.317-.66-.317-.902 0-.32.121-.602.364-.844.25-.242.527-.363.832-.363.359 0 .636.137.832.41 1.328 1.844 2.754 4.469 4.277 7.875l1.734-4.043c.625-1.398 1.227-2.601 1.805-3.609.25-.438.578-.657.984-.657.321 0 .602.114.844.34.25.227.375.496.375.809 0 .172-.051.367-.152.586z" fill="#122528"/></svg>