<svg width="100" height="100" fill="none" xmlns="http://www.w3.org/2000/svg"><circle opacity=".5" cx="50" cy="50" r="50" fill="#FFDC6C"/><ellipse cx="51" cy="50.5" rx="41" ry="40.5" fill="#FFDC6C"/><path d="M73.844 72.413H55.632c1.97-2.098 3.94-4.212 5.909-6.31a.847.847 0 00.288-.063c.015 0 .03-.016.045-.016 0 0 .016 0 .016-.016a.856.856 0 00.47-.489c3.893-9.717 7.787-19.434 11.666-29.167.545-1.372 1.106-2.76 1.651-4.133a.891.891 0 00.076-.268c.757-2.603-.242-5.474-2.788-6.562-2.515-1.089-5.515.19-6.56 2.823-3.894 9.718-7.773 19.435-11.667 29.168-.545 1.372-1.106 2.76-1.651 4.133a.946.946 0 00.181.993l-.045 2.35c0 .38-.015.742-.015 1.12-.03 2.146-.076 4.307-.106 6.453H26.966c-1.288 0-1.288 2.571 0 2.571h46.863c1.303-.016 1.303-2.587.015-2.587zm.364-41.866c-1.88-.82-3.773-1.64-5.652-2.46 1.818-2.493 5.91-.695 5.652 2.46zm-7.773 2.508c.44-1.088.864-2.177 1.303-3.265 1.97.852 3.94 1.704 5.909 2.571-3.773 9.433-7.545 18.867-11.318 28.284-.44 1.088-.864 2.177-1.303 3.265-1.97-.851-3.94-1.719-5.91-2.57 3.774-9.418 7.546-18.852 11.319-28.285zM55.056 63.768c1.455.631 2.91 1.262 4.38 1.893-.834.9-1.683 1.783-2.516 2.682-.636-.284-1.273-.552-1.924-.836.015-1.246.03-2.492.06-3.739z" fill="#122528"/></svg>