<svg width="378" height="91" fill="none" xmlns="http://www.w3.org/2000/svg"><path d="M47.195 49.36V38.608H31.451V23.344h13.536v-10.56H19.643c.96-3.264 1.728-6.528 2.4-9.888L11.1.688C9.18 11.632 5.531 22.672.347 29.584c2.592 1.44 7.104 4.704 9.216 6.624 2.4-3.552 4.608-7.968 6.528-12.864h3.84v15.264H2.171V49.36h16.992C17.627 60.496 13.211 72.496.731 81.424c2.4 1.728 6.624 6.24 8.16 8.64 9.216-6.72 14.88-15.744 18.144-25.152C31.74 70.768 37.211 77.968 40.38 82.96l7.68-9.6c-2.688-3.168-13.056-15.168-18.048-20.064.288-1.248.48-2.592.672-3.936h16.512zm13.632 20.544V19.696h13.92v50.208h-13.92zm-11.04-60.96v78.624h11.04v-6.912h13.92v5.472h11.616V8.944H49.787zm119.52 32.448h-22.272V17.68h22.272v23.712zm12-34.56h-45.696v45.504h45.696V6.832zm-55.968 9.792c-3.36-4.128-10.368-10.176-15.648-14.496l-7.296 7.008c5.088 4.608 12 11.136 15.072 15.36l7.872-7.872zm-4.608 48.672V30.16H98.363v10.944h11.232v27.648c0 5.856-3.552 10.464-5.856 12.576 1.824 1.536 5.568 5.184 6.816 7.392 1.824-2.4 4.992-5.088 23.136-20.544-1.44-2.208-3.552-6.72-4.512-9.984l-8.448 7.104zm20.832-5.184c-2.688 9.024-7.584 17.952-13.824 23.616 2.88 1.44 7.872 4.704 10.08 6.528 6.336-6.528 12.096-16.896 15.552-27.552l-11.808-2.592zm21.6 3.264c4.992 8.448 10.176 19.584 12 26.496l11.52-4.416c-2.016-7.008-7.68-17.76-12.96-25.824l-10.56 3.744zm64.32-5.952c4.032 5.76 9.312 13.632 11.808 18.24l9.6-5.76c-2.688-4.512-8.352-12-12.288-17.376l-9.12 4.896zm42.528-27.936h-11.232v9.216h-34.272v10.368h34.272v28.32c0 1.536-.576 1.92-2.4 2.016-1.824.096-8.16 0-13.824-.192 1.44 3.072 3.072 7.776 3.648 11.04 8.256 0 14.496-.192 18.432-1.92 4.128-1.728 5.376-4.608 5.376-10.752V49.072h10.944V38.704h-10.944v-9.216zm-15.648-20.64a94.026 94.026 0 002.304-5.952L245.819.208c-1.92 6.336-5.184 12.672-9.12 17.76v-9.12h-21.024c.864-1.92 1.632-3.936 2.304-5.76L207.035.208c-3.072 9.12-8.256 18.624-14.208 24.384 2.592 1.44 7.296 4.512 9.504 6.336 2.88-3.36 5.856-7.68 8.544-12.48h1.728c1.92 3.936 4.128 8.352 5.472 11.424l-3.936-1.344c-4.704 10.08-12.864 20.16-21.024 26.496 2.112 2.304 5.856 7.488 7.296 9.888 2.592-2.208 5.088-4.608 7.584-7.488v32.832h10.944V43.024a101.11 101.11 0 006.048-10.752l-5.76-2.016 9.312-3.264c-1.152-2.304-2.88-5.376-4.608-8.544h12.384c-1.632 2.016-3.264 3.936-5.088 5.376 2.688 1.44 7.392 4.608 9.504 6.432 3.072-3.168 6.048-7.2 8.832-11.808h4.32c2.4 3.648 5.184 7.872 6.528 10.656l9.984-4.128c-1.056-1.632-2.688-4.128-4.416-6.528h15.168v-9.6h-26.784zm99.84 15.456h-39.648V13.936h39.648v10.368zm11.904-20.352h-62.688v30.336h62.688V3.952zm11.04 45.6V39.184h-85.92v10.368h18.144c-2.208 6.912-4.8 14.016-7.008 19.104l12.48 1.92c.576-1.536 1.248-3.168 1.824-4.992h36.192c-1.344 7.776-2.88 11.904-4.704 13.344-1.344.864-2.592.96-4.8.96-2.88 0-9.888-.096-16.32-.768 2.208 3.168 3.744 7.68 3.936 10.944 6.72.288 12.96.384 16.608.096 4.512-.288 7.584-1.056 10.56-3.744 3.456-3.168 5.76-10.752 7.68-26.496.384-1.536.576-4.704.576-4.704h-46.176l1.824-5.664h55.104z" fill="#fff"/></svg>