<svg width="380" height="92" fill="none" xmlns="http://www.w3.org/2000/svg"><path d="M26.32 68.752h-8.64v-24h8.64v24zm10.944-53.184V5.2H2.416v10.368h10.176C10.192 28.144 6.256 39.76.4 47.632c1.536 3.264 3.552 10.56 3.936 13.632 1.344-1.632 2.592-3.36 3.84-5.184v29.76h9.504v-7.008h18.336v-44.16H18.064c2.112-6.144 3.84-12.672 5.184-19.104h14.016zM59.152 39.76V16.048h10.752V39.76H59.152zm31.68 0h-10.08V16.048h8.16V5.488h-47.04v10.56h6.624V39.76h-9.12v10.752h8.928c-.576 11.712-2.976 25.056-11.232 33.984 2.592 1.44 6.72 4.608 8.64 6.624C55.6 80.656 58.384 64.624 58.96 50.512h10.944v39.936h10.848V50.512h10.08V39.76zm56.256-20.64v13.056c0 9.6 2.304 12.768 12.768 12.768h10.752c7.584 0 10.56-2.688 11.808-12.672-3.072-.672-7.776-2.4-9.888-3.936-.384 5.664-.864 6.528-3.168 6.528h-7.68c-2.88 0-3.264-.288-3.264-2.88V19.12h13.536v8.544h12V8.944h-35.904V.688h-11.712v8.256h-35.328v19.584h11.52V19.12h11.904c-1.44 10.176-5.376 16.128-25.248 19.392 2.112 2.112 4.896 6.336 5.856 9.216 23.904-4.704 29.376-13.824 31.488-28.608h10.56zm21.696 59.328c-2.016 0-2.4-.384-2.4-3.36V51.184h-24.768v-10.56h-11.52v10.56h-25.152v10.56h23.616c-2.976 7.296-10.848 14.688-30.816 19.68 2.4 2.496 5.952 6.528 7.584 9.408 24.96-6.432 33.12-17.952 35.52-29.088h13.536v13.44c0 11.232 2.88 14.496 12.288 14.496h8.64c8.256 0 11.232-4.224 12.288-20.064-3.072-.864-8.448-2.784-10.752-4.8-.384 12-.768 13.632-2.784 13.632h-5.28zm112.512-51.552V15.952h-37.92V.304h-11.808v15.648H194.8v10.944h27.456c-1.056 20.544-3.264 42.432-29.184 54.432 2.976 2.496 6.432 6.528 8.064 9.696 19.2-9.696 27.168-24.672 30.816-40.896h26.4c-1.344 17.472-3.072 25.824-5.568 27.936-1.152 1.056-2.496 1.248-4.608 1.248-2.784 0-9.504 0-16.128-.672 2.112 3.264 3.84 7.968 4.032 11.232 6.432.288 12.864.384 16.416 0 4.512-.384 7.488-1.344 10.368-4.416 3.84-4.224 5.856-14.976 7.584-41.088.288-1.536.384-4.992.384-4.992h-37.056c.48-4.128.768-8.352 1.056-12.48h46.464zm37.824-16.128c-4.128-3.264-12.192-7.392-18.336-9.792l-6.336 8.544c6.336 2.592 14.208 7.2 17.952 10.56l6.72-9.312zm-5.664 25.056c-4.128-3.168-12.384-6.816-18.528-8.928l-5.856 8.64c6.24 2.4 14.208 6.624 18.048 9.888l6.336-9.6zm-4.8 15.744c-5.376 11.04-12.192 22.944-16.992 30.144l9.888 7.296c5.376-9.216 10.944-20.16 15.648-30.144l-8.544-7.296zm71.328 32.928c-2.976-8.064-10.656-19.488-17.76-27.936l-9.792 5.184c2.592 3.36 5.28 7.104 7.68 10.944-8.448.48-16.992.96-24.672 1.344 3.456-7.2 7.296-16.032 10.368-24.096l-.384-.096h32.256V38.896h-25.344V25.36h20.832V14.416h-20.832V.784h-11.904v13.632H320.56V25.36h19.872v13.536H315.76V49.84h16.416c-2.304 8.064-5.664 17.568-9.12 24.864l-7.2.288 1.536 11.52c12.96-.96 31.104-2.208 48.48-3.744 1.44 2.688 2.496 5.376 3.264 7.584l10.848-5.856z" fill="#fff"/></svg>