<svg width="189" height="90" fill="none" xmlns="http://www.w3.org/2000/svg"><path d="M91.888 39.568c-4.608-2.976-12.672-6.912-20.16-10.176 6.144-5.76 11.136-12.48 14.688-20.256l-8.064-4.224-2.112.48H38.704V15.76h30.048c-8.256 10.368-22.176 18.624-36.48 22.848 2.304 2.4 5.376 6.816 6.816 9.792 8.352-2.976 16.416-6.816 23.712-11.904 8.256 3.936 17.664 8.832 22.368 12.288l6.72-9.216zM20.752 50.8c6.72-7.296 13.152-15.936 18.432-24.384L29.2 19.984c-1.632 3.264-3.648 6.624-5.76 9.792l-9.024.672c5.28-7.488 10.56-16.512 14.304-25.152L17.968.304C14.512 11.248 7.888 23.056 5.776 26.128c-2.112 3.168-3.84 5.088-5.76 5.664 1.248 2.88 3.072 8.448 3.648 10.56 1.632-.768 4.032-1.344 12.672-2.4-3.264 4.224-6.144 7.584-7.584 9.024-3.264 3.456-5.472 5.472-8.16 6.048C1.936 58 3.76 63.472 4.336 65.68c2.592-1.44 6.624-2.592 30.336-7.296-.192-2.4 0-6.912.384-9.984l-14.304 2.4zm13.056 16.32C21.712 70 9.424 73.072 1.072 74.512L3.28 85.936c9.12-2.496 20.832-5.664 31.776-8.928l-1.248-9.888zm34.464-7.104h17.664V49.648H39.568v10.368h17.184V77.68H33.808v10.56h56.928V77.68H68.272V60.016zm55.392-46.848c-3.456-3.072-10.176-7.392-14.88-10.272l-7.2 7.488c4.896 3.264 11.424 8.064 14.592 11.232l7.488-8.448zm-4.32 24.576c-3.264-3.072-9.984-7.872-14.88-10.752l-7.104 7.296c4.8 3.456 11.424 8.544 14.4 11.904l7.584-8.448zm-5.664 13.824c-4.608 10.944-10.656 22.656-14.88 29.856l10.176 7.008c4.704-9.12 9.6-19.968 13.632-29.856l-8.928-7.008zm48.864 37.44h11.136V50.8h-11.136v38.208zm1.152-68.16c-2.208 4.416-5.184 7.872-8.928 10.848-4.512-2.976-8.256-6.528-11.136-10.848h20.064zm21.984 0v-9.984h-25.824c-1.152-3.36-2.976-7.296-4.8-10.56l-10.368 2.88c1.152 2.304 2.304 5.088 3.264 7.68H123.76v9.984h8.832c3.36 6.528 7.488 12 12.576 16.32-6.816 2.976-14.88 4.8-24.192 6.048 1.728 2.304 4.032 7.392 4.8 10.08a121.725 121.725 0 009.312-2.016v11.232c0 6.24-2.112 14.88-17.28 19.968 2.4 1.44 6.336 4.992 8.16 7.008 17.28-6.048 20.256-17.568 20.256-26.784V50.8h-9.408c6.72-1.824 12.768-4.128 18.048-7.008 7.296 3.744 16.128 6.24 26.688 7.68 1.44-3.072 4.416-7.68 6.624-10.176-9.024-.768-16.704-2.304-23.328-4.8 4.512-4.128 8.256-9.312 11.04-15.648h9.792z" fill="#fff"/></svg>