<svg width="376" height="91" fill="none" xmlns="http://www.w3.org/2000/svg"><path d="M10.44 22.96a44.93 44.93 0 004.416-6.24h4.8v4.128c0 .672 0 1.344-.096 2.112h-9.12zm35.04 18.144C42.984 39.472 33.384 34 29.352 31.888h15.84V22.96H30.408c.096-.672.096-1.248.096-1.92v-4.32h12.48V7.888H19.176c.768-1.92 1.344-3.84 1.92-5.664L11.016.112C9.096 7.216 5.352 14.224.456 18.832c1.92.96 4.992 2.688 7.296 4.128H1.32v8.928h15.936c-2.4 4.8-7.296 9.504-17.088 13.344 2.496 1.824 5.664 5.376 7.2 7.68 8.64-4.032 14.208-8.928 17.664-13.824 4.32 2.976 9.696 6.912 12.384 9.312l8.064-7.296zm19.488 17.664v5.376H25.32v-5.376h39.648zM25.32 78.064V72.4h39.648v5.664H25.32zM14.088 90.352H25.32v-3.168h39.648v3.072H76.68V49.84H14.088v40.512zM73.608 34H59.016V17.776h14.592V34zM48.456 7.696V44.08h36.48V7.696h-36.48zm106.848 26.88h10.56v-3.744h16.896v-6.72h-16.896v-3.168h13.344V14.32h-13.344v-2.976h14.976V4.72h-14.976V.784h-10.56V4.72h-13.632v6.624h13.632v2.976h-11.712v6.624h11.712v3.168h-14.4v6.72h14.4v3.744zm19.872 1.344h-68.832v7.104h57.696v3.36h-54.432v6.624h54.432v3.552h-58.272v7.2h27.936l-2.016 1.728c4.8 2.688 10.464 7.104 13.056 10.368l7.68-6.816c-1.44-1.632-3.648-3.552-6.144-5.28h28.896V35.92zM99.24 32.368c4.416-.192 9.504-.48 15.072-.768v2.976h10.464V31.12l13.536-.768.096-6.912-13.632.576v-3.072h12V14.32h-12v-2.976h13.152V4.72h-13.152V.784h-10.464V4.72H100.2v6.624h14.112v2.976h-11.808v6.624h11.808V24.4c-5.76.288-11.04.48-15.36.576l.288 7.392zm6.048 56.448c6.432-4.512 10.272-11.616 12.768-18.72l-9.888-3.552c-2.112 6.24-6.336 12.192-12 15.84l9.12 6.432zM137.64 79.6c-4.512 0-5.184-.384-5.184-2.88V66.544h-11.328v10.272c0 9.6 2.88 12.48 15.168 12.48h15.552c8.928 0 12.096-2.592 13.344-13.152-2.976-.672-7.68-2.208-9.888-3.84-.48 6.336-1.152 7.296-4.608 7.296H137.64zm23.424-8.832c6.144 5.184 12.48 12.384 14.976 17.568l9.888-5.664c-2.784-5.472-9.504-12.288-15.744-16.992l-9.12 5.088zm65.088-13.344c4.032 5.76 9.312 13.632 11.808 18.24l9.6-5.76c-2.688-4.512-8.352-12-12.288-17.376l-9.12 4.896zm42.528-27.936h-11.232v9.216h-34.272v10.368h34.272v28.32c0 1.536-.576 1.92-2.4 2.016-1.824.096-8.16 0-13.824-.192 1.44 3.072 3.072 7.776 3.648 11.04 8.256 0 14.496-.192 18.432-1.92 4.128-1.728 5.376-4.608 5.376-10.752V49.072h10.944V38.704H268.68v-9.216zm-15.648-20.64a94.026 94.026 0 002.304-5.952L244.488.208c-1.92 6.336-5.184 12.672-9.12 17.76v-9.12h-21.024c.864-1.92 1.632-3.936 2.304-5.76L205.704.208c-3.072 9.12-8.256 18.624-14.208 24.384 2.592 1.44 7.296 4.512 9.504 6.336 2.88-3.36 5.856-7.68 8.544-12.48h1.728c1.92 3.936 4.128 8.352 5.472 11.424l-3.936-1.344c-4.704 10.08-12.864 20.16-21.024 26.496 2.112 2.304 5.856 7.488 7.296 9.888 2.592-2.208 5.088-4.608 7.584-7.488v32.832h10.944V43.024a101.11 101.11 0 006.048-10.752l-5.76-2.016 9.312-3.264c-1.152-2.304-2.88-5.376-4.608-8.544h12.384c-1.632 2.016-3.264 3.936-5.088 5.376 2.688 1.44 7.392 4.608 9.504 6.432 3.072-3.168 6.048-7.2 8.832-11.808h4.32c2.4 3.648 5.184 7.872 6.528 10.656l9.984-4.128c-1.056-1.632-2.688-4.128-4.416-6.528h15.168v-9.6h-26.784zm99.84 15.456h-39.648V13.936h39.648v10.368zm11.904-20.352h-62.688v30.336h62.688V3.952zm11.04 45.6V39.184h-85.92v10.368h18.144c-2.208 6.912-4.8 14.016-7.008 19.104l12.48 1.92c.576-1.536 1.248-3.168 1.824-4.992h36.192c-1.344 7.776-2.88 11.904-4.704 13.344-1.344.864-2.592.96-4.8.96-2.88 0-9.888-.096-16.32-.768 2.208 3.168 3.744 7.68 3.936 10.944 6.72.288 12.96.384 16.608.096 4.512-.288 7.584-1.056 10.56-3.744 3.456-3.168 5.76-10.752 7.68-26.496.384-1.536.576-4.704.576-4.704h-46.176l1.824-5.664h55.104z" fill="#fff"/></svg>