<svg width="185" height="90" fill="none" xmlns="http://www.w3.org/2000/svg"><path d="M51.664 63.088v-5.952H40.048v5.952H26.224c2.496-2.496 4.896-5.184 6.816-7.968h27.072a59.562 59.562 0 006.912 7.968h-15.36zm-20.544-21.6h30.048v4.32H31.12v-4.32zM61.168 17.2v4.224H31.12V17.2h30.048zM31.12 29.296h30.048v4.224H31.12v-4.224zM90.64 55.12v-9.312H72.88V17.2h13.152V7.984H72.88v-7.2H61.168v7.2H31.12v-7.2H19.696v7.2H6.448V17.2h13.248v28.608H1.456v9.312h18.432C14.608 60.208 7.504 64.624.496 67.216c2.4 2.112 5.664 6.048 7.296 8.736 5.376-2.4 10.56-5.76 15.264-9.792v5.952h16.992v6.24H9.904v9.408h73.152v-9.408H51.664v-6.24h17.472v-7.104c4.704 4.224 9.888 7.68 15.072 10.08 1.632-2.784 5.088-6.72 7.584-8.832-6.912-2.4-13.632-6.528-18.72-11.136H90.64zm30.432 13.632h-7.488V44.656h7.488v24.096zM98.416 15.28h10.272c-2.496 12.672-6.432 24.384-12.384 32.352 1.536 3.264 3.552 10.56 3.936 13.632 1.344-1.632 2.688-3.456 3.936-5.28V85.84h9.408v-7.104h16.896V34.672h-16.416c2.208-6.24 3.84-12.864 5.184-19.392H132.4V4.912H98.416V15.28zM173.2 47.824v26.112h-8.352V43.312h17.28v-33.12h-10.752v23.136h-6.528V1.168H153.52v32.16h-7.2V10.192h-10.272v33.12h17.472v30.624h-8.064V47.728h-11.424v37.248H173.2v4.992h11.136V47.824H173.2z" fill="#fff"/></svg>