<svg width="1463" height="698" fill="none" xmlns="http://www.w3.org/2000/svg"><path d="M1219.2 462.517c-67.82-1.232-135.76-.145-203.46 2.03-68.172 2.247-135.993 7.248-204.278 6.741-65.381-.508-130.647-3.117-196.145-1.74-64.917 1.377-129.834 4.784-194.752 4.784-39.484 0-79.085-1.014-118.569-1.377-42.853-.362-85.589-1.087-128.209-3.697-3.716-.217-3.716 3.407 0 3.625 75.369 4.639 151.319 3.696 226.92 4.929 64.801 1.015 129.602-2.32 194.287-4.132 65.266-1.812 130.299-.072 195.565 1.015 33.097.58 66.194.435 99.292-.943 34.258-1.377 68.517-3.479 102.892-4.784 75.367-2.827 150.967-4.204 226.567-2.899 3.6.145 3.6-3.48-.11-3.552zm0-330c-67.82-1.232-135.76-.145-203.46 2.03-68.172 2.247-135.993 7.248-204.278 6.741-65.381-.508-130.647-3.117-196.145-1.74-64.917 1.377-129.834 4.784-194.752 4.784-39.484 0-79.085-1.014-118.569-1.377-42.853-.362-85.589-1.087-128.209-3.697-3.716-.217-3.716 3.407 0 3.625 75.369 4.639 151.319 3.696 226.92 4.929 64.801 1.015 129.602-2.32 194.287-4.132 65.266-1.812 130.299-.072 195.565 1.015 33.097.58 66.194.435 99.292-.943 34.258-1.377 68.517-3.479 102.892-4.784 75.367-2.827 150.967-4.204 226.567-2.899 3.6.145 3.6-3.48-.11-3.552z" fill="#FFCE33"/><path d="M197.213 95.483c-2.868 37.476-1.819 75.014-.909 112.552.489 19.503-.77 38.761-2.378 58.202-1.609 19.258-2.868 38.639-.98 57.897.84 8.314 2.309 16.568 3.218 24.882.839 8.254 1.399 16.568 1.888 24.822.91 16.69 1.329 33.38 2.308 50.071.98 16.629 1.329 33.319 2.448 49.948a526.985 526.985 0 005.666 49.032c.28 1.956 3.707 1.1 3.357-.795-3.217-19.931-5.176-39.922-6.225-59.975-.559-9.904-.489-19.808-1.189-29.712-.769-9.966-1.189-19.992-1.609-29.957-.839-19.809-1.468-39.556-3.776-59.303-1.189-9.843-2.798-19.625-3.288-29.529-.489-9.66-.14-19.319.42-28.979.909-15.712 2.658-31.424 3.497-47.136.909-16.385.14-32.708-.28-49.093-.769-30.996-.909-61.931 1.399-92.866.07-2.079-3.427-2.018-3.567-.061zm1005.997 0c-2.86 37.476-1.82 75.014-.91 112.552.49 19.503-.77 38.761-2.37 58.202-1.61 19.258-2.87 38.639-.98 57.897.84 8.314 2.3 16.568 3.21 24.882.84 8.254 1.4 16.568 1.89 24.822.91 16.69 1.33 33.38 2.31 50.071.98 16.629 1.33 33.319 2.45 49.948a529.695 529.695 0 005.66 49.032c.28 1.956 3.71 1.1 3.36-.795-3.22-19.931-5.17-39.922-6.22-59.975-.56-9.904-.49-19.808-1.19-29.712-.77-9.966-1.19-19.992-1.61-29.957-.84-19.809-1.47-39.556-3.78-59.303-1.19-9.843-2.8-19.625-3.29-29.529-.49-9.66-.14-19.319.42-28.979.91-15.712 2.66-31.424 3.5-47.136.91-16.385.14-32.708-.28-49.093-.77-30.996-.91-61.931 1.4-92.866.07-2.079-3.43-2.018-3.57-.061z" fill="#FFCE33"/><path fill-rule="evenodd" clip-rule="evenodd" d="M19.882 556.6c-.8.2-1.1.9-1.6 1.4-3.6 4.2-7.1 8.5-10.7 12.7-1.2 1.4-1.7 1.4-2.9.1-.9-.9-.4-1.5.2-2.2 3.9-4.6 7.9-9.1 11.7-13.8 4.1-5 3.3-2.8 3.4-9.1.1-2.9.1-5.8.1-8.7 0-.7.2-1.4-.2-2.1-.7-.3-1 .3-1.3.6-4.1 4.5-8.7 8.5-13 12.9-.9.9-1.8 1.9-2.7 2.9-.5.5-1 1.1-1.8.4-1-.9-1.4-1.8-.8-2.6.6-.8 1.3-1.6 2-2.3 4.6-4.5 9.2-9 13.9-13.6 3.7-3.7 3.8-3.7 3.7-8.9-.1-4.2-.2-8.4-.1-12.6 0-.4-.1-.7-.1-1.1-.8-.1-1.1.5-1.5.8l-11.1 10.8c-.8.8-1.4 1.1-2.4.3-1.2-.9-1.3-1.3-.3-2.4 2.8-3.1 5.8-5.9 8.9-8.7l5.1-4.8c.9-.9 1.7-1.8 1.4-3.2-.2-1 .4-1.4 1.4-1.4 1.7 0 3.5.1 5.2.1 1 0 1.5.5 1.6 1.4 0 1.3.8 1.9 1.8 2.4 4.8 2.8 9.6 5.7 14.4 8.5l.9.6c1 .9 1.1 1.4.3 2.6-.7 1-1.4.8-2.2.3-4.1-2.6-8.3-5.2-12.4-7.7-.7-.4-1.3-.9-2-1.1-.1 3.3-.2 6.4-.1 9.6.1 2.6.2 5.2.1 7.8 0 1.4.5 2.3 1.7 3 4.5 2.9 9 5.8 13.3 9.1.8.6 1.5 1.2 2.2 1.8 1 .9.9 1.4-.2 2.6-.8.9-1.1.9-2.2 0-4-3.3-8.3-6.1-12.5-9.1l-.9-.6c-.7-.4-1.1-.1-1.1.6v1.3c0 4.9 0 9.9-.2 14.8 0 1.6.5 2.7 1.8 3.7 4.3 3.3 8.9 6.3 13.5 9.1l1.5.9c1.4.9 1.5 1.4.6 2.8-.6.9-1.3.8-2.1.4-1.6-1-3.3-1.9-4.9-2.9-3.1-2-6.1-4.1-9.1-6.4-.2-.2-.5-.3-.7-.5-.7.4-.5 1.1-.5 1.6 0 8.4.2 16.8.6 25.3.1 2.1.1 2.2-2 2.4-1.7.2-3.3.2-5 .4-1.1.1-1.7-.3-1.7-1.4-.2-3-.4-5.9-.5-8.9-.1-6.1-.2-12.2-.2-18.3 0-.5.2-1.1-.3-1.6zm16.67-198.796c-1.4 1.2-2.7 2.3-3.9 3.6-2.8 2.9-5.5 5.8-8.3 8.7-1.3 1.3-1.6 1.2-2.8 0-.8-.8-.7-1.4.1-2.2 2-2.2 4.1-4.3 6.2-6.4 2.5-2.5 4.9-5 7.4-7.4.8-.8 1.3-1.6 1.3-2.8l.3-17.4c0-.4.1-.9-.4-1.3-.8.1-1.3.8-1.8 1.3-2.8 2.6-5.6 5.3-8.4 8-1.2 1.1-1.6 1-2.6-.2-.7-.9-.6-1.5.2-2.2 2.1-1.9 4.1-3.9 6.2-5.8 2.1-1.9 4.2-3.8 6.4-5.6.7-.6 1-1.4 1.1-2.3 0-.8.4-1.4 1.3-1.5 1.7-.3 3.5-.4 5.2-.2 1 .1 1.7.6 1.5 1.7-.3 2.1.8 3.4 2.1 4.7 3.4 3.6 7.3 6.7 11.1 9.8.6.5 1.1 1 1.7 1.4.8.6.8 1.2.3 2.1-.9 1.4-1.4 1.5-2.7.4-3.9-3.1-7.5-6.4-11.1-9.8-.3-.2-.5-.5-1-.9-.4 1-.1 2-.1 2.8-.1 5.2 0 10.5-.2 15.7-.1 2.1.6 3.5 2.4 4.7 4.2 2.9 8.4 5.8 12.7 8.4l1.8 1.2c1.4.9 1.4 2.3.1 3.3-.3.2-.7.3-1 .1-.5-.3-1-.5-1.5-.8-4-2.5-8-5.1-11.8-7.8-.6-.5-1.3-.9-1.8-1.2-.5.1-.6.3-.6.5-.2 5.2-.2 10.5 0 15.7 0 1.1.7 1.7 1.6 2.1 2.5 1.3 5.1 2.5 7.6 3.8.3.2.7.3 1 .4 1.8.8 2 1.1 1.5 2.1-.7 1.6-1.3 1.8-3.1 1-2-.9-3.9-1.9-5.9-2.9l-1.2-.6c-1.4-.7-1.6-.6-1.6 1.1.1 3.2.3 6.4.2 9.6-.1 2.3-.2 2.4-2.5 2.5-1.2 0-2.5.1-3.7.2-2.3.1-2.6-.2-2.7-2.5l-.3-11.3c0-.4 0-.7-.1-1.2-1 0-1.6.8-2.2 1.3l-7.2 6c-1.4 1.2-2 1.1-2.9-.3-.6-.9-.3-1.5.4-2.1 1.6-1.3 3.1-2.6 4.7-3.9 1.9-1.5 3.8-2.9 5.7-4.3.9-.6 1.4-1.4 1.4-2.5 0-5.3.1-10.6.1-15.9 0-.5-.1-.6-.2-.9zm142.056 74.711c-2.8 2.1-5.301 4.3-7.801 6.5-2.3 2-4.499 4.2-6.699 6.2-1 1-1.301 1-2.201.1-1.1-1.1-1.199-1.6-.299-2.6 2.6-2.8 5.6-5.3 8.5-7.8 2.3-2 4.7-3.9 7.1-5.8 1.3-1 1.9-2.2 2-3.9.3-4.1.199-8.1.599-12.2 0-.2 0-.4-.4-.7-1.5 1.2-3 2.5-4.5 3.8-1.8 1.6-3.599 3.2-5.399 4.7-.7.6-1.301 1.1-2.201.1-1-1.2-1.199-1.8-.099-2.7 3-2.6 6.099-5.2 9.099-7.8 1-.8 2-1.7 3-2.6.7-.6 1.301-1.3 1.401-2.4.1-1.1.8-1.5 1.8-1.4 1.7.1 3.3.3 5 .4 1 .1 1.4.8 1.2 1.7-.2 1.7.7 2.4 2 3.2 4.6 2.8 9.099 5.7 13.699 8.6.8.5 1.701 1 1.101 2.2-.8 1.6-1.3 1.8-2.8.8-3.7-2.4-7.4-4.8-11.1-7.3-.6-.4-1.2-.8-1.9-1.1-.6-.3-1-.1-1.1.5-.1.5-.1 1-.1 1.5-.1 3.9-.1 7.9-.3 11.8-.1 1.6.4 2.7 1.8 3.7 3.5 2.5 7.099 5.1 10.399 7.9.7.6 1.301 1.2.701 2.2-.9 1.6-1.301 1.7-2.801.6-2.9-2.3-5.699-4.5-8.599-6.7-.4-.3-.801-.8-1.301-.5-.4.2-.299.8-.299 1.2-.1 4.9-.501 9.7-.301 14.6.1 1.3.501 2 1.801 2.4 3.5 1.1 6.9 2.6 10.4 4 .6.2 1.199.5 1.799.8 1.1.6 1.201.9.701 2.1-.5 1.3-.901 1.6-2.101 1.1l-7.799-3.3c-.9-.4-1.9-.8-2.9-1.1-1.5-.5-1.901-.3-1.901 1.3 0 2.7-.2 5.4.1 8.1.1 1 .201 2 .101 3 0 1.5-.3 1.8-1.8 1.9-1.7.1-3.5.1-5.2.1-1.5 0-1.7-.2-1.8-1.8-.1-2.9-.401-5.8-.301-8.7v-2.1c-.7-.4-1.1 0-1.5.3-2.1 1.5-4.299 3-6.399 4.5-1.7 1.2-1.9 1.2-2.8 0-1-1.3-.9-1.5.9-2.8 2.4-1.7 4.9-3.5 7.4-5.1 1.7-1.1 2.399-2.5 2.399-4.5 0-4.9.101-9.7.201-14.6-.2-.6.1-1.4-.5-2.4z" fill="#122528"/><path d="M1262.65 623.898a119.235 119.235 0 01-11.71 3.532c-3.87.97-7.96 1.593-11.77 2.909-1.59-.97-3.11-1.662-5.05-1.732-.83 0-1.11 1.178-.56 1.662.63.554 1.6.485 2.36.554.62.07 1.24.277 1.87.416-.42.138-.83.346-1.11.485-.69.277-2.08.692-2.36 1.454-.27.554.21 1.177.77 1.177.62 0 1.45-.692 2.07-.969.28-.139.49-.277.77-.416-.49.623-.9 1.454-.63 2.216.21.554.76.554 1.11.208.35-.277.35-.623.48-1.039.14-.415.35-.831.56-1.177 0-.069.07-.069.07-.139.14 0 .34 0 .48-.069 3.88-1.246 7.76-2.354 11.64-3.462 4.01-1.108 7.89-2.493 11.35-4.848.42-.277.07-.9-.34-.762zm-2.22 63.85c.21 0 .49-.139.49-.416 0-1.454-1.87-1.454-2.77-.761-1.6 1.177-1.46 3.324-2.43 4.847-.14.139-.21.347-.34.277-.28-.138-.49-.346-.7-.554-.62-.554-1.52-1.593-2.14-2.077-1.25-.901-1.6-1.801-3.12-1.939-.97-.07-3.18.346-2.49 1.8.27.623.62 1.108 1.24 1.87.63.831 1.32 1.523 2.15 2.216 1.46 1.108 3.53 3.532 5.68 2.701 1.25-.485 1.8-1.939 2.35-3.047.63-1.662 1.25-3.324 2.08-4.917zm31.16-1.039c.21-.139.35-.346.14-.623-.9-1.247-2.56-.208-2.97.9-.7 1.87.62 3.532.69 5.402 0 .207 0 .415-.14.415-.35.069-.62-.069-.97-.069a15.27 15.27 0 00-2.56-.208c-1.66-.069-3.33.069-4.78.831-.9.485-2.56 1.939-1.11 2.839.62.347 1.39.416 2.08.485 1.18.069 2.28.069 3.46.139 2.01.138 5.33 1.038 6.72-.831.83-1.108.48-2.563.28-3.809-.14-1.939-.63-3.67-.84-5.471zm19.95-129.984c.35-.277.14-.762-.21-.9-6.37-2.147-13.16-3.532-19.94-3.463 1.52-1.108 3.04-2.216 4.64-3.324 1.04-.762 2.14-1.523 3.18-2.285.63-.485 1.46-.762 1.46-1.593 0-.208-.14-.346-.28-.415-3.39-1.386-7.2-1.247-10.87-1.386 4.15-6.024 7.13-13.019 7.55-20.359 0-.347-.35-.624-.63-.485-4.78 1.662-9.55 3.324-14.12 5.54-2.84 1.385-5.89 3.047-8.25 5.332a64.018 64.018 0 00-3.94-6.648c-2.22-3.255-4.85-6.509-8.24-8.656-.35-.208-.77 0-.9.346-1.11 3.532-2.64 6.994-3.81 10.457-1.11 3.255-2.29 7.133-1.73 10.595.07.347.55.277.62-.069.21-1.87.35-3.67.69-5.54.35-1.731.9-3.393 1.53-5.055 1.1-3.117 2.49-6.233 3.53-9.349 2.91 2.077 5.12 4.986 7.13 7.825a45.716 45.716 0 013.88 6.648c-.56-.069-1.11.693-.63 1.247l.07.069c-.34.485-.69 1.039-1.03 1.593-2.43.069-4.78.277-7.14.485-1.87.207-3.74.346-5.61.761-.97.208-2.21.693-2.28 1.593-.07.485.55.554.83.277 0 0-.35 0-.35-.069h-.41c.69-.069.83-.069.97-.139.62-.069 1.45-.277 2.07-.415 1.8-.346 3.81-.485 5.61-.693 3.26-.277 6.65-.554 9.98-.554 3.39 3.324 7.54 5.956 11.84 8.034.34.207.69.069.97-.208.55-.693 1.11-1.385 1.59-2.147 3.46.762 7.13.277 10.46 1.524-.21.138-.49.277-.63.346-.55.346-1.04.762-1.59 1.108-.97.692-1.94 1.316-2.91 2.008-1.73 1.177-3.39 2.355-5.12 3.532 0-1.108 0-2.216.07-3.255.07-.831.14-1.593.34-2.354.14-.554.42-1.108.49-1.732 0-.346-.42-.623-.76-.415-1.11.692-1.25 2.424-1.32 3.601-.07.969-.14 1.939-.14 2.908 0 .831 0 1.662.07 2.493 0 .347.28.624.56.624-.28 0-.56-.277-.56-.624 0-.831-.07-1.662-.07-2.493-.14.07-.28.208-.28.416-1.1 6.025-.62 12.465.14 18.49.07.415.63.623.97.415 7.41-4.501 15.86-7.687 22.51-13.642zm-15.24 48.545c5.54-5.748 11.57-11.011 17.11-16.759.21-.277.28-.693 0-.97-3.05-2.7-6.86-4.432-10.73-5.609-1.6-.485-3.19-.9-4.85-1.177.27-.208.55-.416.83-.693 2.15-1.8 4.43-3.532 5.75-6.025.2-.346 0-.692-.35-.831-3.95-1.454-8.1-.554-12.12.277a.712.712 0 00-.35-.415c-.2-.208-.62-.208-.69.138-.27.347-.27.97-.21 1.385.14 1.108.35 2.147.56 3.255.14.762.28 1.593.41 2.355h-1.17c.07-.346.14-.762.2-1.108.21-.97-1.24-1.385-1.45-.416-1.04 4.571-.48 9.418.49 13.92.96 4.501 2.56 9.21 5.54 12.742.27.208.76.208 1.03-.069zm11.57 28.254c1.87-1.523 6.37-3.809 5.05-6.925-1.31-3.116-5.26-3.601-8.17-3.809-2.84-.138-5.75.139-8.58 0 3.8-4.293 9.21-7.133 12.67-11.772.21-.347 0-.693-.35-.831-4.36-1.732-9.07-1.385-13.5-.347.07-.069.07-.138.14-.207.27-.347.07-.901-.42-.762-2.28.692-1.87 4.155-1.73 5.955.28 2.632.9 5.333 1.94 7.826 0 0 0 .069.07.069-.28 0-.62-.069-.9-.069-.28-.07-.35.415-.07.484 2.91.832 6.09.554 9.14.624 2.91.069 6.99.138 8.66 3.047.76 1.385-.63 2.631-1.6 3.462-1.31 1.108-2.77 1.939-4.01 3.047-3.05 2.701-5.54 6.025-8.59 8.657-.9-3.047-1.59-6.164-2.22-9.28-.41-1.939-.76-3.878-.83-5.817 0-.623 0-1.247.14-1.87.14-.346 0-.554.35-.554.34-.069.27-.484.07-.623-1.25-.9-1.94.693-2.08 1.731-.21 1.939.21 4.017.48 5.887.7 4.016 1.67 8.102 2.91 11.98.21.554.76.693 1.18.346 3.81-3.047 6.51-7.202 10.25-10.249zm14.47 14.404c-4.98 2.078-9.62 4.986-14.19 7.964.62-.9 1.17-1.939 1.66-2.77.97-1.662 1.8-3.463 2.77-5.125.21-.277-.07-.761-.42-.761-2.7.207-5.74.415-8.45 1.038-2.07.485-5.4 1.316-6.09 3.532 0 .07.21.07.21.139-1.04 1.454 1.73 3.67 2.7 4.432 1.11.9 2.77 1.662 4.29 1.593-.76.484-1.45.969-2.14 1.454-.28.138 0 .554.27.415 6.58-3.185 12.47-7.756 19.25-10.526 1.39 5.748.07 11.704-.13 17.451-2.01-.207-3.95-.969-5.82-1.731-1.94-.831-3.95-1.731-5.82-2.701-1.11-.554-2.21-1.108-3.32-1.662-.49-.277-1.04-.554-1.53-.831-.07-.069-.13-.069-.2-.069 0-.069-.07-.138-.14-.138-1.04-.554-1.46.415-.76 1.177.48.485 1.24.831 1.87 1.108.83.415 1.66.831 2.42 1.246 1.94.97 3.95 1.87 5.96 2.77 2.49 1.108 5.19 2.216 8.03 2.286.34 0 .69-.277.69-.693.07-6.371 1.73-13.019-.14-19.252-.14-.415-.55-.554-.97-.346zm12.12 10.249c-.14-.346-.69-.415-.9-.138-2.56 3.255-5.68 6.648-6.79 10.734-.06.346.42.623.63.277a.62.62 0 00.48.208c3.12.207 6.51.277 9.56-.554.41-.139.62-.554.41-.97-1.52-3.116-1.93-6.509-3.39-9.557zm16.28-2.492c-2.43 1.939-4.51 4.293-6.44 6.717-1.32 1.662-2.71 3.532-3.47 5.609-.27-.138-.48-.207-.76-.346-.9-.415-1.66.9-.76 1.316.35.208.76.346 1.11.554-.07.208-.07.485-.14.692 0 .277.41.347.48.07.07-.139.07-.347.14-.485 1.8.831 3.67 1.662 5.54 2.354 2.63.97 5.4 1.455 8.17 1.801.42.069.7-.346.77-.693.62-5.955-1.04-11.98-3.61-17.312-.2-.554-.69-.485-1.03-.277z" fill="#122528"/><path d="M1367.91 663.856c-4.5 1.8-8.45 4.293-11.29 8.31a.209.209 0 000 .277.432.432 0 00-.41 0c.07-.069-.21.069-.28.138-1.18.97 1.52 2.424 2.15 2.77 1.66.97 3.39 1.87 5.12 2.632.35.138.83.138 1.04-.277 1.94-4.155 2.91-8.726 4.36-13.088.14-.485-.27-.97-.69-.762z" fill="#122528"/><path d="M1369.92 674.936c-.56-2.493-3.67-3.808-5.75-4.57-3.39-1.316-7.06-1.939-10.66-2.563-3.26-.484-6.45-.9-9.7-1.246-4.5-.485-8.93-1.385-13.37-2.285-5.74-1.178-11.49-2.84-16.75-5.54-4.09-2.147-7.55-4.917-9.28-9.349-1.53-3.948-1.67-8.31-2.08-12.465-.56-6.302-1.39-12.535-2.29-18.767-.97-6.579-2.14-13.089-3.04-19.737-.83-6.302-1.18-12.673-1.46-18.975-.27-6.302-.55-12.603-1.18-18.905-.55-5.61-1.17-11.565-3.11-16.898-3.12-8.379-9.97-15.304-18.91-17.104a23.827 23.827 0 00-12.46.831c-4.3 1.385-8.38 3.462-12.33 5.678-2.7 1.524-9.76 5.748-10.59 6.094-4.71 2.147-18.63 6.579-20.71 11.496-2.42 5.609-1.39 14.335 3.67 23.407 4.36 7.756 8.45 17.312 14.96 20.082 3.46 1.455 7.41.97 10.94 0 2.42-.692 4.71-1.869 7.13-2.631.83-.277 2.56-.9 3.33-.139.62.693.34 2.286.27 3.047-.13 1.801-.48 3.601-.69 5.333-.35 2.978-1.11 6.509-1.31 9.418-.21 3.393-.56 6.925-.84 10.249-.55 6.787-.41 12.811-.83 19.598-.41 6.787-.9 12.881-1.24 20.498-.21 4.848-.56 9.972-.21 14.82.41 4.571 1.45 9.141 4.99 12.327 7.41 6.509 19.39 2.701 28.18 2.493 6.79-.139 13.5-.485 20.29-.762 6.58-.346 13.23-.762 19.81-.623 6.09.138 11.56.346 17.66.277 2.83 0 11.42-1.316 12.74-1.593 3.67-.831 7.06-2.909 10.25-4.917 2.14-1.385 5.19-3.601 4.57-6.579z" fill="#DA7015"/><path d="M1219.37 556.24c.97-.554 1.73-1.593 2.28-2.493.49-.831-.76-1.524-1.25-.762a6.559 6.559 0 01-1.38 1.731c-.14.139-.28.277-.49.416v-.623c.21-2.216 1.94-3.948 3.19-5.54.14-.208-.07-.416-.28-.416-1.24.277-2.35 1.87-2.97 2.839-.84 1.247-1.53 2.701-1.25 4.225.28 1.108 1.38 1.038 2.15.623zm7.61 4.64c3.6.277 5.06-5.609 5.13-8.31 0-.346-.56-.416-.63-.069-.41 1.385-.83 2.839-1.45 4.155-.41.831-1.11 2.423-2.15 2.562.07-.139.21-.208.42-.416.35-.277.28-.692.14-1.038-.14-.277-.49-.416-.76-.416-1.53-.069-2.01 1.731-1.53 2.909.07.346.35.554.83.623zm43.84-21.052c-.21.346-.35.761-.21 1.246.21.97 1.11 1.662 2.15 1.662.9 0 1.87-.485 2.28-1.316.63-1.038.21-2.077-.48-2.908-1.39-1.593-3.26-.346-3.74 1.316zm-14.96-5.887c-.34 0-.76.139-1.11.485a1.9 1.9 0 00-.2 2.493c.48.693 1.31 1.177 2.21 1.108 1.11-.069 1.73-.9 2.01-1.87.55-1.869-1.38-2.7-2.91-2.216z" fill="#122528"/><path d="M1235.36 578.539c-2.01-.208-3.94.623-5.95.692-.42 0-.63.347-.63.693-.06-.069-.06-.139-.13-.139-.14-.207-.49.07-.35.277.55 1.178 1.18 2.355 1.94 3.394.69.969 1.87 2.354 3.18 2.285 1.8-.069 2.57-4.709 2.57-6.579 0-.346-.28-.554-.63-.623zm12.33-2.631c-2.42.346-4.57 1.662-6.99 1.8-.14 0-.28.069-.35.139v-.07c-.14-.207-.49-.138-.42.139.63 2.424 2.36 3.739 4.3 4.917.55.346 1.11.346 1.31.207 1.67-1.592 2.57-4.224 2.77-6.44 0-.415-.27-.762-.62-.692zm5.89-5.333c.06 1.108.2 2.355 1.31 2.909.9.484 2.29-.485 3.05-.901.62-.346 1.18-.692 1.8-1.038.41-.277.83-.416.97-.901v-.069c.07-.069.14-.208.07-.277-1.39-1.939-3.95-3.601-6.3-4.016-.35-.07-.56.207-.63.484-.21 1.316-.34 2.563-.27 3.809z" fill="#fff"/><path d="M1271.44 557.21c-.07-.277-.41-.139-.48-.139-.49 2.078.55 4.917-.69 7.064-1.04 1.731-3.61 3.393-5.34 4.224-2.28 1.108-4.71 2.147-7.06 3.185-2.49 1.108-5.19 1.801-7.76 2.701-4.98 1.731-10.04 3.117-15.23 3.948-2.63.415-5.26.692-7.9.9-1.45.069-2.84.069-4.29.138.35.624.69 1.247 1.04 1.939 1.18-.069 2.42-.138 3.6-.207 2.77-.208 5.61-.554 8.38-.97 5.54-.9 10.94-2.424 16.27-4.363 5.13-1.87 9.91-4.224 14.75-6.648 1.8-.9 3.61-2.077 4.51-3.878 1.17-2.354.69-5.54.2-7.894z" fill="#122528"/><path d="M1284.39 682.554c.28-1.108.07-2.216.14-3.324.35-6.856 0-13.712-.55-20.568-.56-6.648-1.6-13.296-1.6-19.944 0-6.51.63-12.95.56-19.459 0-3.186-.28-6.302-.69-9.419-.35-2.423-.77-5.124-2.29-7.202-2.35-3.185-6.3-2.354-10.04-2.077-2.22.208-3.74.9-5.82 1.731-5.05 2.008-6.51 8.241-6.65 10.041-.07 1.247-.2 2.563-.27 3.809-.56 6.787-1.32 13.504-1.67 20.291-.41 6.786-.55 13.642-.41 20.429.07 4.847-.49 9.626-.07 14.473.42 4.571 1.59 9.211 5.19 12.327 2.22 1.939 4.78 2.978 7.41 3.532 5.13.969 15.59.554 16.76-4.64z" fill="#FFCE33"/><path d="M1282.31 649.036c-.2-.069-.48-.069-.76-.138.49-.139.9-.277 1.39-.485-.07-1.108-.21-2.147-.28-3.255-4.43.901-8.79 1.801-13.16 3.047-3.53.693-7.06 1.524-10.59 2.286-1.32.277-2.7.623-4.02.969v1.662c.49-.069.97-.207 1.52-.277-.48.139-.96.277-1.52.416v1.385c1.04-.346 2.01-.762 2.98-1.108.97-.277 1.94-.623 2.98-.97l-3.33 1.662c-.14.07-.27.139-.48.139-.69.277-1.46.554-2.15.969v3.601c2.29-.415 4.5-1.177 6.72-2.008 3.46-1.246 6.85-2.562 10.39-3.67 3.18-.97 6.3-1.939 9.48-2.978-1.52 1.454-3.74 2.285-5.61 2.909-2.56.9-5.19 1.454-7.75 2.216-4.5 1.315-8.8 3.531-13.3 4.778 0 .415 0 .831-.07 1.246 4.71-1.246 9.21-3.601 13.85-4.986 2.77-.831 5.61-1.454 8.38-2.493 2.22-.831 4.5-1.869 5.96-3.739-.07-.554-.14-1.039-.14-1.593h-.14c0 .277-.21.346-.35.415zm-11.35.832c1.17-.347 2.35-.693 3.6-1.039 2.49-.554 5.05-.97 7.62-1.178-1.25.416-2.57.831-3.88 1.178-4.57.277-8.94 2.216-13.37 3.324-.27.069-.55.138-.76.208 2.15-.97 4.43-1.801 6.79-2.493zm-13.37 5.609c.28-.069.49-.208.69-.277.97-.346 2.01-.693 3.05-.97-1.94.831-3.95 1.662-5.88 2.493.69-.415 1.38-.831 2.14-1.246zm14.2-3.186c-3.39 1.039-6.65 2.286-9.97 3.532-1.87.693-3.81 1.385-5.82 1.87 4.22-1.731 8.38-3.532 12.67-5.125 2.91-1.108 5.89-1.8 8.94-2.562.62-.069 1.24-.069 1.87-.069-2.57.761-5.13 1.523-7.69 2.354zm-16.35-16.897c.42-.139.84-.208 1.25-.347-.41.139-.83.347-1.25.485 0 .277-.06.554-.06.831v.208c4.84-1.87 9.62-4.017 14.47-5.817 3.95-1.177 7.89-2.355 11.77-3.463l1.04-.207c-9.14 3.324-18.49 6.232-27.35 10.249-.07.762-.07 1.523-.14 2.285 9.07-3.393 18.14-6.994 27.42-9.903 0-.346 0-.692.07-1.039-1.59.347-3.25.762-4.85 1.178 1.67-.554 3.26-1.178 4.92-1.732.07-.9.07-1.8.14-2.7-5.26 1.246-10.32 3.116-15.38 4.986-.83.207-1.59.484-2.42.692-1.52.485-3.12.9-4.64 1.385 7.41-2.77 15.1-4.709 22.51-7.617v-1.039c-4.09 1.662-8.31 2.978-12.47 4.293 3.33-1.385 6.72-2.7 10.11-3.947.76-.208 1.6-.415 2.43-.554v-1.593c-9.35 2.147-18.49 5.471-27.15 9.488-.21 1.385-.28 2.631-.42 3.878zm1.74 2.701c3.6-2.009 7.54-3.532 11.49-4.779 2.63-.831 5.26-1.593 7.97-2.285-6.58 2.216-12.95 4.64-19.46 7.064zm9.48-9.903c-2.84 1.177-5.67 2.354-8.51 3.462 2.77-1.177 5.61-2.354 8.51-3.462zm17.87 51.315v-.277c0-.347 0-.624.07-.97-1.32.346-2.63.554-3.95.762-3.81.554-7.62.623-11.42.623-2.15 0-4.23 0-6.31-.069 3.4-.554 6.79-1.316 10.18-1.87 3.4-.554 6.72-1.108 10.05-2.147.48-.138 1.03-.346 1.59-.554v-2.008c-.56-.069-1.11-.069-1.59-.069-3.67-.139-7.41.208-11.08.554-.91.069-1.74.138-2.64.208 3.19-.831 6.44-1.662 9.7-2.216 1.8-.347 3.74-.624 5.61-.554 0-.624 0-1.247-.07-1.87-.56.138-1.11.277-1.66.346.55-.138 1.1-.277 1.66-.416 0-.484 0-.9-.07-1.385-6.79.762-13.44 2.009-20.15 3.255-3.12.624-6.17 1.385-9.28 2.078.07.346.07.692.14 1.039 2.84-.624 5.68-1.316 8.51-1.87 3.88-.762 7.76-1.454 11.71-2.078-3.4.762-6.72 1.524-10.04 2.493-.7.208-1.39.416-2.01.624-2.7.415-5.4.761-8.1 1.038.07.347.13.693.2 1.039h.14c-.07 0-.07 0-.14.069.21.831.42 1.662.7 2.493.48-.138.97-.277 1.38-.484 2.22-.693 4.36-1.455 6.51-2.078 2.49-.138 4.99-.208 7.48-.415 3.25-.277 6.51-.624 9.76-.624.77 0 1.6 0 2.36.07-.69.207-1.39.415-2.01.554-2.98.831-6.09 1.385-9.14 1.869-3.19.485-6.3 1.178-9.49 1.732-2.01.346-4.15.692-6.3.761.21.485.48.97.76 1.455 4.02.277 8.03.277 11.98.277 3.95 0 7.9-.139 11.77-.693.97-.208 2.08-.415 3.19-.692zm-1.94-35.387c0-.347-.07-.693-.07-1.039-4.57.623-9.07 2.077-13.43 3.255-4.71 1.315-9.56 2.285-14.13 3.947v1.039c4.57-1.662 9.35-2.701 13.99-3.948 4.43-1.108 9-2.631 13.64-3.254z" fill="#fff"/><path d="M1265.07 669.743c-3.39.554-6.79 1.108-10.11 2.008 0 .277.07.485.07.762 3.46-.901 6.99-1.455 10.53-2.009 3.04-.484 6.02-.9 9-1.523 3.18-.693 6.65-1.454 9.97-1.662 0-.346 0-.624-.07-.97-3.18.208-6.37.901-9.42 1.524-3.32.762-6.64 1.316-9.97 1.87zm-7.96-53.601c-.07.9-.14 1.87-.21 2.77.83-.415 1.59-.831 2.42-1.246 4.57-1.247 9.08-2.77 13.44-4.571-5.2 2.493-10.53 4.848-15.93 6.648 0 .346-.07.693-.07 1.108.42-.069.76-.208 1.11-.277 4.09-1.039 8.1-2.285 12.05-3.601 3.67-1.246 7.41-2.631 10.8-4.432.49-.277 1.11-.554 1.66-.969-.06-.347-.06-.693-.13-.97-.63.416-1.11.762-1.32.831-3.39 1.939-7.13 3.324-10.8 4.571-2.01.692-4.02 1.385-6.1 1.939 6.1-2.563 12.05-5.54 18.08-8.38-.07-.623-.21-1.246-.28-1.869l-2.49.831c-2.5.831-4.99 1.662-7.48 2.631 3.25-1.454 6.51-2.839 9.9-3.67-.14-.762-.34-1.524-.62-2.285-.97.346-1.94.692-2.98.969-2.98.97-5.96 2.008-8.86 3.186-.77.277-1.46.623-2.22.9.55-.277 1.04-.554 1.59-.762 2.84-1.385 5.68-2.839 8.59-4.086 1.11-.485 2.22-.969 3.39-1.315-.14-.208-.2-.416-.34-.624-.76.277-1.53.554-2.29.831-2.98 1.178-5.82 2.701-8.72 4.086-3.26 1.593-6.44 3.393-9.7 5.125l-2.49 1.038c.07.554 0 1.039 0 1.593zm13.09-3.255c.97-.415 1.94-.761 2.9-1.108.35-.138.7-.207 1.04-.277a94.235 94.235 0 01-7.41 2.84c1.18-.485 2.36-.97 3.47-1.455zm-3.81-.207a72.01 72.01 0 01-7.2 2.908c2.28-1.108 4.7-2.008 7.2-2.908z" fill="#fff"/><path d="M1286.26 628.123c-1.24.138-2.49 1.662-3.46 2.423-1.73 1.455-3.46 2.978-5.19 4.433-3.47 2.839-7.48 4.778-10.95 7.548-.06.069-.2.138-.2.277-.49.069-.9.138-1.39.138-.83 0-1.73 0-2.56.07-1.04.138-1.11 1.662 0 1.662.83-.07 2.35-.07 3.46-.485-.14.138-.28.277-.41.485-.56.623-1.39 1.315-1.6 2.146a.674.674 0 00.97.762c.76-.415 1.25-1.316 1.67-2.008.13-.208.27-.416.41-.554a9.303 9.303 0 00-.21 2.008c0 1.039 1.66 1.039 1.6 0-.07-.969-.21-1.939-.14-2.839 3.11-2.632 6.78-4.64 10.04-7.133 1.66-1.246 3.25-2.701 4.78-4.155 1.31-1.177 2.28-2.632 3.53-3.947.21-.277.07-.831-.35-.831z" fill="#122528"/><path d="M1461.31 80.208c-6.49-17.421-26.72-23.615-42.94-26.712-3.06-.58-6.3-.774-9.36-.387 3.44-8.13 4.2-15.485 4.78-24.196.57-7.742-4.97-15.678-10.69-20.324-6.68-5.42-14.51-7.549-22.72-8.323-16.6-1.162-31.49 7.742-40.65 21.485-.96 1.355-1.72 3.097-2.48 4.84-4.01-.968-7.83-1.743-12.03-2.13-4.96-.58-10.12 2.71-14.51 4.646-7.63 3.29-15.08 14.517-17.75 22.26-1.33 3.677-1.72 8.13-1.33 12.194-8.59.194-17.56 3.097-23.48 7.55-6.49 4.838-9.74 12-10.31 19.936-.76 8.904 7.25 15.873 14.51 18.97 17.56 7.742 37.03 3.484 55.35 3.677 7.45.194 14.51-1.161 21.76-1.548 9.74-.387 19.47.193 29.21.58 9.16.388 18.13.194 27.1.775 9.92.387 18.32-.968 27.87-3.291 7.63-1.936 16.41-2.903 22.71-7.936 6.87-5.613 8.02-13.937 4.96-22.066zm-273.66 30.757c2.5-6.508 10.13-8.856 16.32-9.976 1.17-.213 2.4-.267 3.57-.16-1.33-3.04-1.6-5.761-1.86-9.07-.22-2.933 1.86-5.867 4.05-7.628 2.51-1.974 5.5-2.88 8.64-3.094 6.3-.427 11.95 2.88 15.47 8.055.38.534.64 1.12.91 1.814 1.5-.373 2.94-.64 4.54-.8 1.86-.213 3.84 1.014 5.54 1.707 2.94 1.227 5.71 5.442 6.73 8.376.48 1.387.64 3.041.53 4.588 3.25.053 6.67 1.174 8.91 2.827 2.51 1.814 3.68 4.482 3.95 7.469.26 3.308-2.78 5.975-5.5 7.149-6.67 2.881-14.08 1.333-21.02 1.387-2.82.053-5.49-.427-8.27-.587-3.73-.16-7.36.053-11.09.267-3.47.16-6.88.106-10.35.266-3.74.161-6.99-.373-10.62-1.227-2.88-.693-6.24-1.067-8.64-2.987-2.56-2.187-3.04-5.282-1.81-8.376z" fill="#BEDCE3"/><path d="M1260.15 115.126c-.16.321-.7.321-.8-.053-1.02-3.254-5.18-5.495-7.69-1.814-.21.32-.8.267-.8-.16-.26-5.441-5.55-4.854-8.64-2.561-.91.694-1.87 1.708-3.04 1.921-.16.053-.43-.107-.43-.32-.69-3.574-1.6-11.577-6.83-6.882-1.65 1.494-1.54 4.428-2.18 6.402-.11.32-.59.48-.8.16-2.56-4.001-4.96-2.988-7.9-.427-.27.213-.75.16-.75-.267-.05-.693-1.44-2.027-1.76-2.4-1.49-1.707-3.2-2.774-5.54-2.134-3.05.8-3.63 4.001-4.75 6.455-.16.373-.7.267-.8-.053-.96-2.561-4.7-2.615-6.14-.481-.16.267-.58.374-.74.054-1.34-2.561-3.69-2.027-4.91.053-.16.267-.59.374-.75.053-.8-1.547-1.92-2.614-3.15-3.787-.8-.801-1.65-.961-2.45-.747.21-.267.43-.534.69-.8 1.12 0 1.98.533 2.99 1.547.64.64 1.28 1.227 1.87 1.92.42.534.37.907.32 1.014.05-.053.1-.16.26-.32 1.07-1.174 1.5-1.921 3.2-1.707.48.053 1.18.48 1.5.8 1.17 1.067.53 1.494 1.49-.16 1.5-2.508 4.86-.48 6.24 1.494 1.44-3.308 2.51-5.762 6.57-6.456 2.24-.373 5.81 2.508 6.61 4.855 3.15-2.614 5.71-3.094 8.16.267.96-3.148 1.02-5.282 4.06-7.469 2.35-1.654 4.59 1.334 5.44 3.254.64 1.387.11 5.655 2.24 4.055 1.6-1.174 2.88-2.508 4.85-2.668 3.15-.266 5.29 1.441 5.87 4.215 2.72-2.828 6.72-1.387 8.27 1.974.91-1.121 2.3-1.921 3.74-1.387.48.16.8.427 1.12.693.1.374.16.747.21 1.174-1.23-1.067-3.89-1.067-4.85.693z" fill="#fff"/><path d="M1187.33 116.193c1.17-.8 2.5-1.28 3.89-1.227 1.28.054 2.51.534 3.63 1.067.8.374 1.06 1.654 1.38 1.441 1.87-1.174 5.39-.64 7.1.64 1.44 1.12.75.587 2.61-.587 1.12-.693 2.94-.427 4.06 0 .75.267.96.8 1.23.534 1.17-1.174 2.72-2.294 4.05-3.148 2.51-1.654 5.44-.427 7.84.854 1.6.853 1.39 2.454 2.94 1.013 1.17-1.067 2.88-1.28 4.37-1.333 1.76-.107 4.16.32 4.64 2.027 1.18-.854 2.3-1.334 3.9-1.494 1.28-.107 4.26 0 5.12 1.28 0 .054 3.89-1.013 4.69-.586 1.66.907 2.72 1.974 3.2 3.627 2.24-2.134 4.43-3.627 7.69-3.041 1.06.214 2.93 1.388 3.52 2.294-.11.107-.22.267-.38.374-1.17-1.707-6.77-1.601-6.83-1.547-1.28.853-2.77 1.92-3.89 3.041-.27.266-.69.106-.75-.267-.48-2.614-2.13-3.788-4.96-3.681.22-.054-2.19 1.067-2.13 1.013-.16.107-.43-.053-.48-.16-1.87-2.774-6.67-1.44-8.64.267a.436.436 0 01-.75-.373c.21-2.188-3.63-1.867-4.91-1.814-2.72.16-2.72 1.334-4.11 2.294-.16.107-.42.107-.53-.053-1.87-2.134-4.64-4.215-7.74-3.521-1.81.426-4.32 2.827-5.6 4.054a.453.453 0 01-.69-.053c-1.66-2.134-4.64-.48-6.35.64-.16.107-.37.053-.53.053-.16 0-.27-.16-.32-.267-.86-2.4-6.19-1.653-7.53-.8-.21.107-.48.107-.58-.106-1.87-3.255-5.23-3.148-7.68-1.441-.22-.373-.38-.693-.48-1.014zm59.32-23.366c-1.87-.107-3.79.747-5.28 2.4-.27.267-.59.107-.75-.16-1.28-2.667-5.49-1.973-6.99 0-.27.32-.69.054-.75-.266-.42-2.614-2.5-6.349-5.65-4.802-1.44.747-2.03 2.401-2.56 3.842-.11.32-.59.32-.75.053-.8-1.494-1.55-2.934-3.52-3.094-1.49-.107-2.61 1.707-3.73 2.56-.27.214-.64-.053-.7-.32-.21-4.16-4.58-1.92-6.45-.426-.22.16-.59 0-.64-.214-.75-2.027-1.82-2.667-3.04-2.667.1-.427.26-.907.48-1.334.1 0 .21 0 .37.053.69.16 1.55 1.12 1.97 1.547.22.214.38.534.54.8.48 1.121.1.854.42.587 1.61-1.28 3.21-2.507 5.34-1.973.75.16 1.07.746 1.44 1.28.91 1.334.05 1.707 1.76.107.85-.8 2.61-1.227 3.68-.694.69.374 1.07.64 1.5 1.334.58.96.58 1.814.96.853.32-.8.53-1.013 1.01-1.707.96-1.28 3.57-2.614 5.17-1.653 1.87 1.173 2.67 2.987 3.1 5.014 1.97-1.707 5.92-2.187 7.47.16-.06-.106 2.66-2.187 3.41-2.187h.48c.59.107 1.17.48 1.71.907zm5.39 9.016c-2.03-1.12-5.66.747-6.78 1.974-.27.32-.85.053-.75-.374.22-.64.27-1.333.22-1.974.21-4.107-7.63-5.388-7.47-.853 0 .48-.69.64-.85.16-1.18-3.148-5.45-1.6-7.26-.694-1.55.747-2.61 3.201-3.31 4.695-.16.32-.69.267-.8-.053-.48-1.708-1.01-3.255-1.86-4.855-1.12-2.08-4.33-4.961-6.83-.747-.43.747-.75 1.654-1.12 2.401-.22.427-.75.213-.8-.16-.75-5.068-4.86-4.108-7.74-2.828a4.95 4.95 0 01-.21-.907c1.01-.48 2.08-.8 3.2-.853 2.29-.16 4.48 1.334 5.33 3.414 1.07-2.134 2.83-5.388 5.5-4.001 2.88 1.494 4.27 4.268 5.17 7.202 1.28-2.614 2.88-4.215 5.98-5.068 1.87-.534 3.84-.267 5.01 1.067.64-2.294 3.2-3.201 5.6-2.774 2.46.427 3.47 3.574 3.37 5.921 1.7-1.28 4.32-2.134 6.24-1.547.05.16.1.48.16.854zm-26.73-14.671c-.11.213-.48.32-.69.107-2.03-2.08-4.38-4.108-6.09-.747-.16.373-.69.267-.8-.053-.48-1.28-1.01-3.041-1.92-4.055-.32-.373-.69-.587-1.12-.8.43-.107.86-.214 1.34-.32 1.12.907 1.7 2.454 2.18 3.84.32-.8.64-1.333 1.92-1.386 1.93-.107 3.31-.107 4.43 1.6.22.32.32.534.32.694.11-.16.32-.374.8-.64 1.12-.587 2.03-.907 3.31-1.067.11 0 .21 0 .37-.054.43.32.8.64 1.18.96-2.03-.32-4.27.107-5.23 1.921z" fill="#fff"/><path d="M1221.53 46.726c2.07-5.37 8.37-7.308 13.47-8.232.97-.176 1.98-.22 2.95-.132-1.1-2.51-1.32-4.754-1.54-7.484-.18-2.42 1.54-4.842 3.35-6.294 2.07-1.63 4.53-2.377 7.13-2.553 5.19-.353 9.86 2.377 12.76 6.646.31.44.53.925.75 1.497 1.23-.308 2.42-.528 3.74-.66 1.54-.176 3.17.836 4.58 1.409 2.42 1.012 4.71 4.49 5.55 6.91.39 1.145.53 2.51.44 3.786 2.68.044 5.5.969 7.35 2.334 2.07 1.496 3.04 3.697 3.26 6.162.22 2.73-2.29 4.93-4.54 5.899-5.5 2.377-11.62 1.1-17.34 1.144-2.33.044-4.53-.352-6.82-.484-3.09-.132-6.08.044-9.16.22-2.86.132-5.68.088-8.54.22-3.08.133-5.77-.308-8.76-1.012-2.38-.572-5.15-.88-7.13-2.465-2.11-1.805-2.51-4.358-1.5-6.911z" fill="#BEDCE3"/><path d="M1281.36 50.16c-.14.264-.58.264-.67-.045-.83-2.685-4.27-4.534-6.33-1.496-.18.264-.66.22-.66-.132-.22-4.49-4.58-4.006-7.14-2.113-.74.572-1.54 1.408-2.5 1.584-.14.044-.36-.088-.36-.264-.57-2.949-1.32-9.552-5.63-5.678-1.37 1.232-1.28 3.653-1.81 5.282-.08.264-.48.396-.66.132-2.11-3.301-4.09-2.465-6.51-.352-.22.176-.62.132-.62-.22-.04-.572-1.19-1.673-1.45-1.981-1.23-1.409-2.64-2.289-4.58-1.76-2.51.66-2.99 3.3-3.92 5.326-.13.308-.57.22-.66-.044-.79-2.113-3.87-2.157-5.06-.397-.13.22-.48.309-.62.044-1.1-2.112-3.03-1.672-4.05.044-.13.22-.48.309-.61.044-.66-1.276-1.59-2.157-2.6-3.125-.66-.66-1.36-.792-2.02-.616.17-.22.35-.44.57-.66.92 0 1.63.44 2.46 1.276.53.528 1.06 1.013 1.54 1.585.36.44.31.748.27.836.04-.044.09-.132.22-.264.88-.968 1.23-1.585 2.64-1.409.4.044.97.397 1.23.66.97.881.44 1.233 1.24-.131 1.23-2.07 4-.397 5.15 1.232 1.18-2.729 2.06-4.754 5.41-5.326 1.85-.308 4.8 2.069 5.46 4.006 2.6-2.157 4.71-2.553 6.73.22.8-2.597.84-4.358 3.35-6.163 1.94-1.365 3.78 1.1 4.49 2.685.53 1.145.09 4.666 1.85 3.346 1.32-.969 2.37-2.07 4-2.201 2.6-.22 4.36 1.188 4.85 3.477 2.24-2.333 5.54-1.144 6.82 1.629.75-.924 1.89-1.585 3.08-1.145.4.133.66.353.92.573.09.308.14.616.18.968-1.01-.88-3.21-.88-4 .572zm-60.09.88c.97-.66 2.07-1.057 3.21-1.013 1.06.044 2.07.44 2.99.88.66.309.88 1.365 1.15 1.19 1.54-.97 4.44-.529 5.85.527 1.19.925.62.485 2.16-.484.93-.572 2.42-.352 3.35 0 .61.22.79.66 1.01.44.97-.968 2.24-1.892 3.34-2.597 2.07-1.364 4.49-.352 6.48.705 1.32.704 1.14 2.024 2.42.836.96-.88 2.37-1.056 3.61-1.1 1.45-.089 3.43.264 3.83 1.672.96-.704 1.89-1.1 3.21-1.232 1.06-.088 3.52 0 4.22 1.056 0 .044 3.22-.836 3.88-.484 1.36.748 2.24 1.629 2.64 2.993 1.85-1.76 3.65-2.993 6.34-2.509.88.176 2.42 1.145 2.9 1.893-.08.088-.17.22-.3.308-.97-1.409-5.59-1.32-5.64-1.277-1.06.705-2.29 1.585-3.21 2.51-.22.22-.57.088-.62-.22-.39-2.157-1.76-3.126-4.09-3.038.17-.044-1.81.88-1.76.837-.14.088-.36-.044-.4-.133-1.54-2.288-5.5-1.188-7.13.22-.26.265-.66.045-.62-.308.18-1.804-2.99-1.54-4.05-1.496-2.24.132-2.24 1.1-3.39 1.893-.13.088-.35.088-.44-.044-1.54-1.761-3.83-3.478-6.38-2.906-1.5.352-3.56 2.333-4.62 3.346a.373.373 0 01-.57-.044c-1.37-1.761-3.83-.396-5.24.528-.13.088-.31.044-.44.044s-.22-.132-.27-.22c-.7-1.98-5.1-1.365-6.2-.66-.18.088-.4.088-.49-.088-1.54-2.686-4.31-2.597-6.34-1.189-.17-.308-.3-.572-.39-.836zm48.95-19.281c-1.54-.088-3.13.616-4.36 1.98-.22.22-.48.089-.62-.131-1.05-2.201-4.53-1.629-5.76 0-.22.264-.58.044-.62-.22-.35-2.157-2.07-5.239-4.67-3.962-1.18.616-1.67 1.98-2.11 3.17-.09.263-.48.263-.62.043-.66-1.232-1.27-2.42-2.9-2.553-1.23-.088-2.16 1.409-3.08 2.113-.22.176-.53-.044-.57-.264-.18-3.434-3.79-1.585-5.33-.352-.18.132-.48 0-.53-.176-.62-1.673-1.5-2.201-2.51-2.201.09-.352.22-.749.4-1.1.09 0 .17 0 .31.043.57.132 1.27.925 1.63 1.277.17.176.3.44.44.66.39.925.08.704.35.484 1.32-1.056 2.64-2.069 4.4-1.628.62.132.88.616 1.19 1.056.75 1.1.04 1.409 1.45.088.7-.66 2.16-1.012 3.04-.572.57.308.88.528 1.23 1.1.48.793.48 1.497.79.705.27-.66.44-.837.84-1.409.79-1.056 2.95-2.157 4.27-1.365 1.54.969 2.2 2.465 2.55 4.138 1.63-1.408 4.89-1.805 6.17.132-.05-.088 2.2-1.804 2.81-1.804h.4c.48.088.97.396 1.41.748z" fill="#fff"/><path d="M1274.66 39.198c-1.67-.924-4.66.617-5.59 1.63-.22.263-.7.043-.61-.309.17-.528.22-1.1.17-1.629.18-3.39-6.29-4.446-6.16-.704 0 .396-.57.528-.7.132-.97-2.597-4.49-1.32-5.99-.572-1.28.616-2.16 2.64-2.73 3.873-.13.265-.57.22-.66-.044-.4-1.408-.84-2.685-1.54-4.005-.92-1.717-3.57-4.094-5.64-.617-.35.617-.61 1.365-.92 1.981-.18.352-.62.176-.66-.132-.62-4.182-4.01-3.39-6.38-2.333-.09-.264-.13-.484-.18-.748.84-.396 1.72-.66 2.64-.704 1.9-.133 3.7 1.1 4.4 2.817.88-1.761 2.34-4.446 4.54-3.302 2.38 1.233 3.52 3.522 4.27 5.943 1.05-2.157 2.38-3.478 4.93-4.182 1.54-.44 3.17-.22 4.14.88.52-1.892 2.64-2.64 4.62-2.289 2.02.353 2.86 2.95 2.77 4.887 1.41-1.057 3.57-1.761 5.15-1.277.05.132.09.396.13.704zm-22.05-12.105c-.09.176-.4.264-.57.088-1.68-1.717-3.61-3.39-5.02-.616-.13.308-.57.22-.66-.044-.4-1.057-.84-2.51-1.59-3.346-.26-.308-.57-.484-.92-.66.35-.088.7-.176 1.1-.264.92.748 1.41 2.024 1.8 3.17.27-.661.53-1.101 1.59-1.145 1.58-.088 2.73-.088 3.65 1.32.18.264.27.44.27.572.09-.132.26-.308.66-.528.92-.484 1.67-.748 2.73-.88.09 0 .17 0 .31-.044.35.264.66.528.96.792-1.67-.264-3.52.088-4.31 1.585z" fill="#fff"/><path d="M260.161 139.368c-.115-.688-.115-1.433.057-2.121 0-.172.115-.287.229-.287.172 0 .287.058.344.23.459 1.031 1.605 4.47 0 4.642-.344.058-.573-.286-.63-.573-.058-.286.057-.573.057-.86.115-.344 0-.687-.057-1.031zm-3.668-2.924c.229-.229.63-.114.63.23-.057.802 0 1.49.057 2.292.115.803.058 1.72-.229 2.465-.114.229-.286.401-.573.401-1.146.058-.63-1.375-.573-2.063.114-1.032-.115-2.522.688-3.325zm-3.898.344c.172-.458.86-.229.802.23-.171 1.203.459 4.47-1.146 4.929-.229.057-.458 0-.516-.229-.344-.745.115-1.663.287-2.408.115-.859.286-1.719.573-2.522zm-3.955-.63c.229-.344.745 0 .573.344-.401.974-.573 1.949-.745 2.923-.172.86-.229 1.834-.86 2.465-.172.172-.516.057-.573-.172-.287-.86.115-1.892.344-2.752.287-.974.688-1.948 1.261-2.808z" fill="#122528"/><path d="M262.396 138.68c-2.35.115-4.642-.172-6.992.115-1.663.171-3.382 0-5.044.229-1.261.172-6.764.172-7.91-.573-1.032-.688-.745-11.063 5.846-14.788 2.006-1.491 7.05-1.892 9.228-1.548 3.611.573 6.191 3.611 8.139 6.534 1.548 2.293 3.325 6.477 1.032 8.827-1.089 1.032-2.808 1.089-4.299 1.204z" fill="#DA7015"/><path d="M264.574 133.177c.803-1.031 2.178-1.261 3.382-.859 0-.287 0-.631-.057-.917-.115-.459-.344-.86-.516-1.261-.172 0-.287 0-.401-.115-.344-.229-.459-.631-.344-1.032.114-.286.401-.516.63-.516.516-.114.86.574.803.975 0 .114-.058.286-.172.344.688.688.802 1.777.688 2.694a.435.435 0 00.229.114c.688-1.891 0-3.553-.573-5.445-.115-.057-.172-.057-.287-.172-.229-.172-.458-.401-.516-.63-.114-.688.917-1.032 1.376-.688.229.172.286.458.286.745 0 .172 0 .344-.114.516-.058.057-.115.114-.229.172 1.203 1.719 1.26 4.012.401 5.846.344.287.63.631.802 1.032.86-.229 1.72-.631 2.579-1.032.23-.114.459.115.459.344-.115 1.376-1.433 2.465-2.751 2.809-.23 1.031-.803 2.006-1.662 2.464-1.032.631-2.064.516-2.981.058-.344-.115-.573-.287-.86-.574-.229-.172-.401-.401-.63-.573-1.319-1.547-.803-3.267.458-4.299zm-4.814-3.611c-.287-.974.344-2.063 1.146-2.522.459-.286.974-.458 1.548-.286.573.172.917.745 1.031 1.318.172.745.172 1.72-.401 2.35-.573.631-1.376.688-2.006.287-.631-.172-1.146-.573-1.318-1.147zm-6.477-3.553c-.631-1.319.573-2.752 1.834-3.038.86-.172 1.662.286 2.235.86.516.515.688 1.203.459 1.891-.172.688-.86 1.032-1.605 1.204-.974.401-2.465.114-2.923-.917zm-7.108 5.158c-.917-.516-1.261-1.547-1.089-2.522.115-.917.688-1.834 1.548-2.178 1.318-.516 2.579.401 2.923 1.662.458 1.433-.057 2.866-1.548 3.21-.63.115-1.318.058-1.834-.172zm7.795-.458c1.089-.23 1.835.745 2.007 1.662.114.401 0 .974-.287 1.261l-.115.115c-.286.458-.917.573-1.433.515-.515-.057-.974-.343-1.318-.745-.974-.974-.057-2.522 1.146-2.808z" fill="#122528"/><path d="M239.91 574.531c-.271-1.425-.814-3.664-2.375-4.207-1.153-.407-2.578-.271-3.732-.135-8.685.543-17.777 3.121-26.258.068-10.042-3.732-15.266-13.774-21.373-21.848-7.26-9.567-15.334-18.592-24.562-26.327-6.717-5.631-14.113-10.381-21.712-14.791-7.193-4.139-14.453-8.007-21.306-12.62-7.938-5.361-15.741-11.467-20.626-19.881-4.343-7.463-5.564-16.08-5.835-24.562-.272-8.82.203-17.573 1.9-26.19 1.017-5.428 2.442-10.789 4.681-15.81 1.154-2.646 2.646-5.428 4.75-7.531.746 4.75 2.646 9.499 7.395 11.331 4.886 1.832 10.517-.407 14.521-3.189 4.478-2.985 8.481-7.464 9.906-12.756 1.493-5.564-1.289-10.652-6.582-12.824-3.935-1.56-8.413-1.764-12.552-1.56-4.275.203-8.617.95-12.62 2.442-1.493.543-2.986 1.29-4.275 2.307-1.764 1.357-2.986 3.529-4.343 5.293-11.33 14.791-19.201 41.864-21.915 51.906-5.157 19.134-10.856 62.083-8.414 82.031 1.086 9.093 3.8 18.049 8.481 26.055 4.954 8.482 12.146 15.945 20.288 21.305 2.103 1.357 4.274 2.443 6.649 3.393 1.222 2.375 2.443 4.682 3.393 7.124.543 1.357 1.085 2.714 1.493 4.139.339 1.289 1.017 2.511 1.153 3.868.136 1.221-.611 1.289-1.561 1.425-1.221.135-2.442.339-3.663.542-2.172.272-5.09.679-6.514 2.579-.272.339-.407.95 0 1.357 3.324 2.714 8.278.882 12.009.203 1.425-.271 2.918-.271 3.529-1.899.814-2.172.407-4.275-.136-6.446-.543-2.443-.882-4.886-1.357-7.328-.204-1.086-.475-2.171-.882-3.189 3.664.814 7.396 1.425 10.992 1.832 6.649.814 13.366 1.153 20.016 1.289-1.561 2.985-2.579 6.31-3.461 9.567-.542 1.832-1.899 4.478-.407 6.242 1.222 1.425 3.732.679 5.496.95 2.104.272 3.664.746 5.903 1.221 1.222.272 2.782 0 3.936-.542.746-.407 1.357-1.357 1.221-2.172-.136-.882-.95-1.424-1.696-1.764-1.968-1.017-4.614-1.492-6.853-1.425-1.154 0-3.596.611-3.189-1.289.271-1.357 1.085-2.646 1.628-3.935.95-2.239 2.036-4.546 3.325-6.65 1.56 0 3.121.001 4.614.068 8.617.068 17.302.068 25.919.882 9.635.95 19.134 3.054 28.769 4.004 9.363.882 19.812 1.221 28.497-3.054 2.036-1.017 3.868-2.307 5.564-3.799 1.56-1.697 2.578-3.529 2.171-5.7z" fill="#FFCE33"/><path d="M116.218 391.876c-.136-.542-.543-.814-1.018-.882-.272-.135-.611-.067-.95.068h-.068c-.678.204-1.289.611-1.696 1.154-.136.135-.272.271-.339.407-.611.814-.679 2.307.407 2.714.882.339 1.899-.339 2.578-.882.814-.611 1.289-1.561 1.086-2.579zm-12.756-7.735c.61-3.46 1.764-8.956 5.631-10.177 0 2.782.136 5.631.543 8.413 1.425-.271 1.493.204 1.357-1.56-.068-1.765-.068-3.529-.068-5.293 0-2.985-.407-4.546-3.596-2.782-4.139 2.307-5.564 8.142-6.106 12.417a16.372 16.372 0 012.239-1.018c.135-.95-.747.272 0 0zm111.004 194.597c-1.493 0-3.053-.204-4.342-.95-1.764-1.018-.882-3.189-2.172-4.071-1.492-1.018-4.749.407-6.513.136-2.036-.34-4.343-1.086-5.564-2.647-1.153-1.424-.475-3.731-2.036-4.953-1.832-1.425-5.021.611-6.717 1.425-.407-1.425-.882-6.446-2.714-6.446-1.153 0-2.375.679-3.664.747-1.832 0-1.289-2.511-1.357-4.071-.068-1.357.136-3.664-.678-4.818-.815-1.153-2.782-.203-3.8.068-3.189.882-6.242 2.171-9.296 3.528-.271-1.967-1.424-16.216-3.867-15.334-2.511.882-10.856 5.157-12.62 1.357-.747-1.696.95-8.549-1.154-8.956-1.967-.34-5.292 2.442-6.785 3.528-2.103 1.628-4.071 3.46-5.699 5.564-.34-2.443-.95-4.818-1.561-7.193-.339-1.289-.678-2.578-.95-3.867-.271-1.221-.068-3.8-.882-4.75-1.832-2.103-13.095 6.65-14.995 7.871-.407-2.375-1.493-17.845-3.732-18.252-4.003-.678-13.231 2.986-19.473 4.818 2.103-4.071 4.614-7.939 6.717-12.01 1.086-2.171 3.868-6.649.882-8.481-4.207-2.647-10.652-.34-15.266-.475.678-5.7 2.782-11.128 5.631-16.013 2.172-3.8-12.823-2.986-14.248-2.85 2.374-2.646 5.156-5.428 4.07-9.363-1.153-4.207-5.902-5.632-9.77-5.564 3.053-3.664 12.35-5.767 11.874-11.67-.475-5.903-7.735-10.992-12.552-13.231 1.9-2.104 4.953-2.918 7.667-3.596 1.425-.34 2.85-.679 4.342-.95 1.56-.272 4.614-.068 5.903-.95 1.764-1.222-2.85-7.803-3.731-9.092-1.832-2.782-4.072-5.428-7.057-6.921 1.9-3.528 5.021-6.65 8.617-8.414 1.56-.746 3.325-1.289 5.089-1.357 2.171-.068.407-3.732.068-4.614-1.357-3.935-3.325-7.802-3.528-12.009-.068-1.629 1.289-2.375 2.714-2.511.95-.135 1.9-.068 2.782 0 1.492.136 1.492-.61 2.374-1.764-3.053-.543-9.092-1.221-10.042 2.986-1.153 5.088 2.85 11.195 4.207 15.877-3.392.475-6.446 2.307-8.956 4.478-1.832 1.561-6.107 5.292-5.903 8.006.068 1.086 1.832 1.357 2.578 1.832 1.493.882 2.714 2.172 3.732 3.529a42.833 42.833 0 014.817 8.142c-4.478.475-9.295 1.289-13.434 3.121-1.697.746-3.325 1.764-4.41 3.257-1.832 2.51 2.646 3.392 4.274 4.478 2.918 1.9 8.617 6.106 8.142 10.245-.407 3.732-7.328 6.175-9.974 8.278-1.086.882-2.985 2.714-2.443 4.343.408 1.289 3.664.542 4.818.678 3.528.407 7.192 3.121 5.292 7.125-.678 1.424-7.056 6.988-3.053 7.667 4.478.746 8.753-1.357 13.23.678-2.306 4.207-4.07 8.821-5.02 13.57-.407 2.239-1.357 4.546 1.56 4.818 2.579.271 5.157-.136 7.736-.407 1.9-.204 4.41-.611 6.242.271 1.696.746-.272 3.732-.814 4.885-2.172 4.614-5.36 8.685-7.396 13.299-1.018 2.307-1.018 3.936 1.9 3.121 2.578-.678 5.088-1.56 7.599-2.374 2.375-.747 4.817-1.493 7.26-1.968 1.221-.204 3.393-.679 3.664-.339.339.339.475 2.781.746 4.138.34 2.104 1.29 14.385 3.393 14.588 1.561.136 4.749-2.917 6.107-3.799 2.578-1.629 5.156-3.257 7.87-4.614.407 3.46 1.425 6.853 2.171 10.245.34 1.493.272 7.6 2.24 7.668 1.424.067 3.935-4.614 5.021-5.632a27.396 27.396 0 016.852-5.021c-.067 2.782-.949 6.989 1.765 8.821 3.596 2.442 9.295-.272 12.823-1.561.543 2.646.95 5.36 1.29 8.006.203 1.629 0 6.039 1.153 7.261 1.154 1.221 4.139-.883 5.292-1.358 2.443-1.017 4.954-1.899 7.6-2.51.135 1.561-.407 10.245 2.442 9.431 1.425-.407 4.071-.882 4.479.543.407 1.425.678 3.868 1.492 5.157 1.629 2.646 6.853-3.528 7.667-1.086.543 1.561.95 4.275 2.511 5.293 1.493 1.017 2.646 1.221 4.41 1.492 1.764.272 3.393.407 5.089.339 2.036-.135 1.561 1.493 3.053 2.782 2.307 2.036 5.7 2.375 8.617 2.307 3.257-.135 6.514-.882 9.432-2.374 1.085-.543 3.324-1.832 4.003-2.986.678-1.289 0-1.221-.95-.475-3.46 2.714-10.11 2.986-14.181 2.85zM76.389 481.643c-.067 0-.067-.068 0 0zm24.088 21.441c-.068-.068.067.068 0 0z" fill="#122528"/><path d="M74.286 495.892c-.204 1.425 1.968 1.832 2.578.678 1.221-2.307 1.629-4.885 3.053-7.056.543-.814-.61-1.561-1.289-.95-2.17 1.764-3.935 4.546-4.342 7.328zm7.599 4.274c-.135-.814-1.221-.746-1.56-.203-1.425 2.239-4.071 4.681-3.257 7.599.407 1.425 2.443 1.696 3.121.407.679-1.221.95-2.646 1.425-4.003.34-1.289.475-2.443.271-3.8zm-13.842-7.26c.272.068.475.068.679 0 .407-.135.814-.475.95-.95.61-2.442 1.289-4.546 2.917-6.513.543-.679-.203-1.968-1.017-1.357-2.307 1.764-4.682 4.342-4.546 7.463.067.679.407 1.154 1.017 1.357zm2.443 9.228c-1.56 1.764-2.918 4.071-2.986 6.514 0 1.289 1.629 1.289 2.036.271.814-1.9 1.018-4.003 2.035-5.903.408-.746-.542-1.56-1.085-.882zm13.91 12.553c.339-.883.814-1.765 1.221-2.647.136-.271-.271-.542-.475-.407-.678.407-1.221 1.154-1.628 1.832-.407.611-1.018 1.629-.475 2.239.543.815 1.153-.61 1.357-1.017zm-5.972-1.358c-1.9 2.172-3.663 4.682-3.867 7.668-.068.474.271 1.017.678 1.221.204.136.408.203.679.203.679-.067 1.153-.407 1.357-1.017.814-2.443 1.425-4.886 2.375-7.328.271-.679-.746-1.289-1.222-.747zm-1.153 21.645a59.367 59.367 0 00-1.424 4.953c-.34 1.425-.815 2.918.203 4.139.34.407 1.018.339 1.357 0 1.018-.95.814-2.51.95-3.8.204-1.628.543-3.189.882-4.817.136-1.153-1.56-1.696-1.968-.475zm15.945-27.48a41.595 41.595 0 00-3.46 3.461c-.882 1.017-2.443 2.578-1.9 4.003.136.407.543.678 1.018.543 1.221-.34 1.764-1.832 2.375-2.85.95-1.425 2.035-2.646 3.189-3.935.746-.815-.407-1.968-1.222-1.222zm-6.377 13.57c-1.086 1.765-2.104 3.664-2.782 5.632-.407 1.221-1.697 3.935-.136 4.885 1.628.95 2.307-2.307 2.51-3.189.543-2.239 1.086-4.546 1.9-6.717.272-.882-1.017-1.357-1.492-.611zm5.291 23.884c-.814 1.832-2.307 4.478-1.289 6.514.407.746 1.56.407 1.56-.407 0-.95-.067-1.9.069-2.85.135-1.018.27-1.968.475-2.918.067-.475-.611-.814-.815-.339zm12.078-19.745a13.327 13.327 0 00-3.257 3.732c-.678 1.221-2.035 3.393-1.153 4.75.271.407.746.475 1.153.271 1.154-.543 1.425-2.375 1.9-3.46.611-1.425 1.289-2.85 2.307-4.004.746-.61-.136-1.899-.95-1.289zM83.446 545.22c-.882 1.221-1.222 2.849-1.425 4.342-.204 1.289-.746 3.325.34 4.342.338.34.881.34 1.22 0 .95-.882.679-2.781.747-4.003.068-1.425.339-2.917.203-4.342 0-.679-.678-.814-1.085-.339zm25.376-5.021c.339-1.832.611-3.664.746-5.496.136-1.018-1.424-1.154-1.696-.204-.543 1.832-1.289 3.664-1.696 5.564-.339 1.357-1.018 3.528.271 4.546.407.339.815.339 1.222 0 1.153-.95.882-3.121 1.153-4.41zM95.59 555.668c-1.696 1.222-2.238 3.257-2.51 5.157-.271 1.968-.61 5.225 1.222 6.514.474.339 1.289.068 1.56-.407.679-1.425.068-3.529-.068-5.021-.135-1.697-.271-3.868.61-5.361.408-.542-.27-1.289-.813-.882zm29.448-17.709a47.72 47.72 0 00-2.714 5.225c-.61 1.357-1.628 3.392-.814 4.817.204.407.679.475 1.086.272 1.357-.679 1.764-2.782 2.171-4.071a48.32 48.32 0 011.968-5.225c.542-1.153-1.018-2.103-1.697-1.018zm-11.195 9.5c-.882.746-1.222 2.035-1.561 3.121-.407 1.289-.814 2.917-.475 4.274.204.815 1.289.679 1.561 0 .407-1.153.407-2.578.542-3.799.136-1.154.475-2.239.679-3.325 0-.407-.543-.475-.746-.271zm9.499 4.138c-.814 2.172-1.628 4.343-1.968 6.582-.271 1.764-.746 4.342.611 5.767.407.407 1.086.34 1.357-.203.814-1.493.339-3.596.543-5.225.203-2.171.61-4.342 1.153-6.513.272-1.086-1.289-1.493-1.696-.408zm17.845-3.392c-.882 1.289-1.561 2.578-2.171 4.003-.475 1.153-1.018 3.189.203 4.071.204.136.543.068.746-.136.815-.746.611-2.442.815-3.46.339-1.289.95-2.578 1.628-3.732.475-.814-.746-1.493-1.221-.746zm-4.546 16.556c-.068-1.425 0-2.918.068-4.343 0-1.085-1.561-1.018-1.629 0-.135 1.696-.339 3.393-.271 5.089.068 1.289.271 3.121 1.56 3.664.272.136.679-.136.747-.407.203-.611-.068-1.086-.204-1.696-.068-.815-.203-1.561-.271-2.307zm16.555-16.827c-2.714 1.764-4.953 4.953-5.021 8.277 0 .407.204.815.611 1.018 1.696.95 1.968-1.696 2.307-2.714.611-1.9 1.628-3.935 3.053-5.428.543-.543-.203-1.628-.95-1.153zm-7.667 12.484c-.068-.746-1.018-.882-1.289-.204-1.018 2.511-2.375 8.075.271 10.042.34.272.882 0 1.018-.407.407-1.289-.068-2.917-.136-4.274 0-1.764.272-3.461.136-5.157zm14.181-.407c-1.153 1.628-1.764 3.528-1.967 5.496-.136 1.493-.611 4.749 1.085 5.564.34.135.747.135.95-.136.95-1.154.339-3.189.339-4.546 0-1.9.204-4.003.95-5.767.34-.883-.95-1.222-1.357-.611zm10.178 7.938c-.882 1.425-1.289 3.054-1.425 4.682-.136 1.425 0 3.868 1.357 4.682.407.203.882.068 1.085-.34.611-1.085 0-2.442-.135-3.528-.204-1.628-.204-3.257.407-4.749.339-.95-.814-1.629-1.289-.747zm7.803-.067c-.747 2.035-2.307 6.242-.204 7.87.407.272.95.068 1.221-.339.611-.882.34-2.171.272-3.257-.068-1.289.135-2.578.339-3.867.136-1.018-1.289-1.425-1.628-.407zm18.048 12.62c-.407-.747-.95-1.289-1.289-2.104-.34-.814-.611-1.696-1.086-2.442-.271-.475-1.086-.407-1.221.136-.339 1.967.339 4.749 2.171 5.835.95.542 2.036-.543 1.425-1.425zM70.825 480.218c.407-.339.407-.814.543-1.289.136-.543.407-1.086.61-1.56.475-.95 1.29-1.765 2.036-2.579.34-.339-.068-1.018-.543-.814-1.153.475-2.035 1.357-2.714 2.443-.543.882-1.425 2.714-.746 3.731.203.34.543.34.814.068zm1.561-20.491c.746-.882.95-2.171 1.628-3.121.747-1.018 1.9-1.696 3.053-2.103.883-.272.476-1.629-.407-1.357-1.492.475-2.714 1.221-3.8 2.374-.881.95-1.9 2.647-1.424 3.936.136.475.61.61.95.271zm34.061 95.399c-.882 1.764-1.357 3.46-1.492 5.428-.136 1.628-.204 4.478 1.153 5.631.339.272 1.018.34 1.221-.135.611-1.357 0-2.986-.135-4.478-.136-1.968.068-4.004.542-5.904.204-.746-.882-1.289-1.289-.542zm8.549 9.363c.068-.814-1.357-1.018-1.425-.203a27.836 27.836 0 00-.203 6.717c.203 1.764.611 4.41 2.239 5.428.475.271.95-.068.95-.543.203-1.628-.814-3.528-1.154-5.089-.407-2.103-.542-4.206-.407-6.31zm14.114 3.868c-.204-2.036-.068-4.139.271-6.107.068-.407-.339-.679-.678-.407-1.629 1.56-1.968 3.867-1.968 6.106 0 1.9 0 5.632 1.832 6.718.339.203.95.135 1.153-.272.34-.814.204-1.56 0-2.374a34.348 34.348 0 01-.61-3.664zm23.34 3.392c-.204-2.035-.271-4.071-.475-6.106a.679.679 0 00-1.357 0c-.204 2.171-.543 4.342-.407 6.581.068 1.628.203 4.614 1.968 5.428.407.204.882.068 1.017-.407.204-.746 0-1.425-.203-2.171-.204-1.154-.407-2.239-.543-3.325zm-63.034-41.253c-1.289.543-1.424 3.121-1.628 4.274-.271 1.968-.746 4.072.136 5.904.203.474.95.407 1.153 0 .814-1.629.747-3.461.95-5.225.136-.882.272-1.764.34-2.646.067-.611.339-1.357 0-1.9-.204-.339-.611-.543-.95-.407zm-19.948-13.028c-1.357 1.357-1.9 3.596-2.171 5.428-.272 1.9-.543 4.275.407 5.971.271.543 1.018.407 1.221-.135.543-1.629.204-3.393.407-5.089.204-1.9.95-3.596 1.357-5.496.136-.679-.746-1.221-1.22-.679z" fill="#fff"/></svg>