<svg width="316" height="251" fill="none" xmlns="http://www.w3.org/2000/svg"><path d="M6.575.824c-.866 20.83-.55 41.694-.275 62.558.148 10.84-.232 21.544-.718 32.35-.486 10.704-.867 21.476-.296 32.179.254 4.622.697 9.209.972 13.831.254 4.587.423 9.208.57 13.796.276 9.276.402 18.553.698 27.83.296 9.242.402 18.519.74 27.762a530.71 530.71 0 001.712 27.252c.085 1.088 1.12.612 1.014-.441-.972-11.078-1.564-22.19-1.88-33.335-.17-5.505-.149-11.01-.36-16.515-.232-5.539-.36-11.112-.486-16.65-.254-11.01-.444-21.986-1.141-32.962-.36-5.47-.846-10.907-.994-16.412-.148-5.369-.042-10.738.127-16.107.275-8.733.803-17.466 1.057-26.2.275-9.106.042-18.179-.085-27.286-.232-17.228-.274-34.422.423-51.616C7.674-.297 6.617-.263 6.575.824zm300.706-.03c.867 20.062.55 40.158.275 60.253-.148 10.44.232 20.75.719 31.158.486 10.31.866 20.685.295 30.994-.253 4.451-.697 8.87-.972 13.321-.253 4.418-.422 8.869-.57 13.288-.275 8.935-.402 17.869-.698 26.804-.296 8.903-.401 17.838-.74 26.74a491.58 491.58 0 01-1.712 26.248c-.084 1.048-1.12.589-1.014-.425.972-10.67 1.564-21.372 1.881-32.107.169-5.302.148-10.604.359-15.906.233-5.335.36-10.703.486-16.037.254-10.604.444-21.176 1.142-31.747.359-5.27.845-10.506.993-15.808.148-5.171.042-10.342-.127-15.514-.275-8.41-.803-16.822-1.056-25.233-.275-8.772-.043-17.51.084-26.282.233-16.593.275-33.154-.423-49.715-.021-1.112 1.036-1.08 1.078-.032z" fill="#FFCE33"/><path d="M315.16 18.194c-20.327-.462-40.688-.054-60.98.761-20.431.843-40.758 2.718-61.224 2.528-19.596-.19-39.157-1.169-58.788-.652-19.456.516-38.913 1.794-58.37 1.794-11.834 0-23.703-.38-35.537-.517-12.843-.136-25.652-.408-38.426-1.386-1.113-.082-1.113 1.277 0 1.359 22.59 1.74 45.353 1.386 68.011 1.848 19.422.381 38.844-.87 58.231-1.549 19.561-.68 39.053-.027 58.614.38 9.92.218 19.839.164 29.759-.353 10.268-.516 20.536-1.305 30.838-1.794 22.589-1.06 45.248-1.576 67.907-1.087 1.079.054 1.079-1.305-.035-1.332zm-1.997 202c-20.262-.462-40.559-.055-60.787.761-20.366.843-40.628 2.718-61.029 2.528-19.534-.19-39.033-1.169-58.601-.652-19.395.516-38.79 1.794-58.185 1.794-11.797 0-23.628-.381-35.424-.517-12.803-.136-25.571-.408-38.304-1.386-1.11-.082-1.11 1.277 0 1.359 22.517 1.74 45.208 1.386 67.795 1.848 19.36.381 38.72-.869 58.046-1.549 19.499-.68 38.928-.027 58.427.381 9.889.217 19.777.163 29.665-.354 10.235-.516 20.471-1.305 30.74-1.794 22.518-1.06 45.105-1.576 67.692-1.087 1.075.054 1.075-1.305-.035-1.332z" fill="#FFCE33"/><path d="M73.968 240.497c-.097-.51-.292-1.312-.85-1.506-.413-.146-.923-.097-1.336-.048-3.109.194-6.363 1.117-9.4.024-3.594-1.336-5.464-4.93-7.65-7.821-2.599-3.424-5.489-6.655-8.792-9.423-2.404-2.016-5.052-3.716-7.772-5.295-2.575-1.482-5.173-2.866-7.626-4.517-2.842-1.919-5.635-4.105-7.384-7.117-1.554-2.671-1.991-5.756-2.088-8.792-.098-3.157.072-6.29.68-9.375.364-1.943.874-3.862 1.675-5.659.413-.947.948-1.943 1.7-2.696.268 1.7.948 3.401 2.648 4.056 1.748.656 3.764-.145 5.197-1.141 1.603-1.069 3.036-2.672 3.546-4.566.535-1.992-.461-3.813-2.355-4.591-1.41-.558-3.012-.631-4.494-.558-1.53.073-3.084.34-4.517.874a5.505 5.505 0 00-1.53.826c-.632.486-1.069 1.263-1.555 1.894-4.056 5.295-6.873 14.986-7.845 18.58-1.846 6.849-3.886 22.223-3.011 29.364.388 3.254 1.36 6.46 3.036 9.326 1.773 3.036 4.347 5.708 7.262 7.627.753.485 1.53.874 2.38 1.214.437.85.874 1.676 1.214 2.55.195.486.389.972.535 1.482.121.461.364.898.412 1.384.049.437-.218.462-.558.51-.437.049-.874.122-1.312.195-.777.097-1.821.242-2.331.922-.098.122-.146.34 0 .486 1.19.972 2.963.316 4.299.073.51-.097 1.044-.097 1.262-.68.292-.777.146-1.53-.048-2.307-.194-.875-.316-1.749-.486-2.623a6.105 6.105 0 00-.316-1.142c1.312.292 2.648.51 3.935.656 2.38.291 4.785.413 7.165.461-.559 1.069-.923 2.259-1.239 3.425-.194.656-.68 1.603-.145 2.234.437.51 1.335.243 1.967.34.753.098 1.311.268 2.113.438.437.097.996 0 1.409-.195.267-.145.485-.486.437-.777-.049-.316-.34-.51-.608-.631-.704-.365-1.651-.535-2.453-.51-.413 0-1.287.218-1.141-.462.097-.486.389-.947.583-1.409.34-.801.728-1.627 1.19-2.38.559 0 1.117 0 1.651.025 3.085.024 6.194.024 9.278.315 3.45.34 6.85 1.093 10.298 1.433 3.352.316 7.092.437 10.201-1.093a9.322 9.322 0 001.992-1.36c.558-.607.922-1.263.777-2.04z" fill="#FFCE33"/><path d="M29.692 175.115a.413.413 0 00-.365-.316c-.097-.048-.218-.024-.34.024h-.024a1.191 1.191 0 00-.607.413.68.68 0 00-.122.146c-.218.292-.243.826.146.972.316.121.68-.122.923-.316.291-.219.461-.559.389-.923zm-4.566-2.769c.218-1.239.631-3.206 2.016-3.643 0 .996.048 2.016.194 3.012.51-.098.534.072.486-.559-.025-.632-.025-1.263-.025-1.895 0-1.068-.145-1.627-1.287-.995-1.481.825-1.992 2.914-2.186 4.444.267-.145.534-.267.802-.364.048-.34-.268.097 0 0zm39.734 69.657c-.534 0-1.093-.073-1.554-.34-.632-.365-.316-1.142-.777-1.457-.535-.365-1.7.145-2.332.048-.729-.121-1.554-.389-1.992-.947-.412-.51-.17-1.336-.728-1.773-.656-.51-1.797.218-2.405.51-.145-.51-.315-2.307-.971-2.307-.413 0-.85.242-1.312.267-.655 0-.461-.899-.485-1.457-.025-.486.048-1.312-.243-1.725-.292-.413-.996-.073-1.36.024-1.142.316-2.235.778-3.328 1.263-.097-.704-.51-5.804-1.384-5.489-.899.316-3.886 1.846-4.518.486-.267-.607.34-3.06-.412-3.206-.705-.121-1.895.874-2.43 1.263-.752.583-1.456 1.239-2.04 1.992-.12-.875-.34-1.725-.558-2.575a28.576 28.576 0 01-.34-1.384c-.097-.437-.024-1.36-.316-1.7-.656-.753-4.687 2.38-5.367 2.817-.146-.85-.535-6.388-1.336-6.533-1.433-.243-4.736 1.068-6.97 1.724.752-1.457 1.65-2.842 2.404-4.299.388-.777 1.384-2.38.316-3.036-1.506-.947-3.814-.121-5.465-.17.243-2.04.996-3.983 2.016-5.732.777-1.36-4.59-1.068-5.1-1.02.85-.947 1.845-1.943 1.457-3.351-.413-1.506-2.113-2.016-3.498-1.992 1.093-1.311 4.42-2.064 4.25-4.177-.17-2.113-2.768-3.935-4.493-4.737.68-.752 1.773-1.044 2.745-1.287.51-.121 1.02-.243 1.554-.34.559-.097 1.652-.024 2.113-.34.632-.437-1.02-2.793-1.336-3.254-.655-.996-1.457-1.943-2.525-2.478.68-1.263 1.797-2.38 3.084-3.011.559-.267 1.19-.462 1.822-.486.777-.024.145-1.336.024-1.652-.486-1.408-1.19-2.793-1.263-4.299-.024-.582.461-.85.971-.898.34-.049.68-.024.996 0 .534.048.534-.219.85-.632-1.093-.194-3.254-.437-3.594 1.069-.413 1.822 1.02 4.007 1.505 5.683-1.214.17-2.307.826-3.205 1.603-.656.559-2.186 1.895-2.113 2.866.024.389.655.486.923.656.534.316.971.777 1.335 1.263.68.899 1.263 1.894 1.725 2.914-1.603.17-3.328.462-4.81 1.118-.606.267-1.19.631-1.578 1.165-.656.899.947 1.215 1.53 1.603 1.045.68 3.085 2.186 2.915 3.668-.146 1.336-2.623 2.21-3.57 2.963-.39.316-1.07.971-.875 1.554.146.462 1.312.195 1.725.243 1.262.146 2.574 1.117 1.894 2.55-.243.51-2.526 2.502-1.093 2.745 1.603.267 3.133-.486 4.736.243-.826 1.506-1.457 3.157-1.797 4.857-.146.802-.486 1.628.558 1.725.923.097 1.846-.049 2.77-.146.68-.073 1.578-.219 2.234.097.607.267-.098 1.336-.292 1.749-.777 1.651-1.919 3.109-2.647 4.76-.364.826-.364 1.409.68 1.117.923-.242 1.822-.558 2.72-.85.85-.267 1.724-.534 2.599-.704.437-.073 1.214-.243 1.311-.121.122.121.17.995.268 1.481.121.753.461 5.149 1.214 5.222.558.049 1.7-1.044 2.186-1.36.923-.583 1.846-1.166 2.817-1.652.146 1.239.51 2.453.777 3.668.122.534.097 2.72.802 2.744.51.025 1.408-1.651 1.797-2.016a9.842 9.842 0 012.453-1.797c-.024.996-.34 2.502.632 3.157 1.287.875 3.327-.097 4.59-.558.194.947.34 1.919.462 2.866.072.583 0 2.161.412 2.599.413.437 1.482-.316 1.895-.486a16.97 16.97 0 012.72-.899c.049.559-.146 3.668.874 3.376.51-.146 1.458-.316 1.603.194.146.51.243 1.385.535 1.846.583.947 2.453-1.263 2.744-.388.194.558.34 1.53.899 1.894.534.364.947.437 1.578.534a9.272 9.272 0 001.822.122c.729-.049.559.534 1.093.996.826.728 2.04.85 3.084.825 1.166-.048 2.332-.315 3.377-.85.388-.194 1.19-.655 1.433-1.068.242-.462 0-.437-.34-.17-1.24.971-3.62 1.068-5.077 1.02zm-49.425-34.756c-.024 0-.024-.024 0 0zm8.622 7.675c-.024-.024.024.024 0 0z" fill="#122528"/><path d="M14.682 212.348c-.073.51.704.655.922.242.438-.825.583-1.748 1.093-2.525.195-.292-.218-.559-.461-.34-.777.631-1.409 1.627-1.554 2.623zm2.72 1.53c-.049-.292-.437-.267-.559-.073-.51.801-1.457 1.676-1.165 2.72.145.51.874.607 1.117.146.243-.437.34-.947.51-1.433.121-.462.17-.875.097-1.36zm-4.955-2.599c.098.024.17.024.243 0a.528.528 0 00.34-.34c.219-.874.462-1.627 1.045-2.332.194-.243-.073-.704-.365-.485-.826.631-1.676 1.554-1.627 2.671.024.243.146.413.364.486zm.875 3.303c-.559.632-1.045 1.457-1.07 2.332 0 .461.584.461.73.097.291-.68.364-1.433.728-2.113.146-.267-.194-.559-.388-.316zm4.978 4.493c.122-.315.292-.631.438-.947.049-.097-.097-.194-.17-.146-.243.146-.437.413-.583.656-.146.219-.364.583-.17.802.194.291.413-.219.486-.365zm-2.137-.485c-.68.777-1.312 1.675-1.385 2.744-.024.17.098.364.243.437a.407.407 0 00.243.073c.243-.024.413-.146.486-.364.291-.875.51-1.749.85-2.623.097-.243-.267-.462-.437-.267zm-.413 7.747a21.28 21.28 0 00-.51 1.773c-.121.51-.291 1.045.073 1.482.122.146.364.121.486 0 .364-.34.291-.899.34-1.36.073-.583.194-1.142.316-1.725.048-.413-.559-.607-.705-.17zm5.708-9.836c-.437.388-.85.801-1.239 1.238-.316.365-.874.923-.68 1.433a.292.292 0 00.364.195c.438-.122.632-.656.85-1.02.34-.51.73-.948 1.142-1.409.267-.292-.146-.704-.437-.437zm-2.283 4.857c-.389.632-.753 1.312-.996 2.016-.146.437-.607 1.409-.049 1.749.583.34.826-.826.899-1.142.194-.801.389-1.627.68-2.404.097-.316-.364-.486-.534-.219zm1.895 8.55c-.292.655-.826 1.603-.462 2.331.146.267.559.146.559-.146 0-.34-.025-.68.024-1.02.049-.364.097-.704.17-1.044.024-.17-.219-.291-.291-.121zm4.323-7.068c-.462.364-.85.801-1.166 1.336-.243.437-.728 1.214-.413 1.7.098.145.267.17.413.097.413-.194.51-.85.68-1.239.219-.51.462-1.02.826-1.433.267-.218-.049-.68-.34-.461zm-7.433 7.165c-.315.437-.437 1.02-.51 1.554-.073.462-.267 1.19.122 1.555a.309.309 0 00.437 0c.34-.316.243-.996.267-1.433.024-.511.122-1.045.073-1.555 0-.243-.243-.291-.389-.121zm9.084-1.798c.122-.655.219-1.311.267-1.967.049-.364-.51-.413-.607-.073-.194.656-.461 1.312-.607 1.992-.121.486-.364 1.263.097 1.627.146.122.292.122.437 0 .413-.34.316-1.117.413-1.579zm-4.736 5.538c-.607.437-.802 1.166-.899 1.846-.097.704-.218 1.87.438 2.331.17.122.461.025.558-.145.243-.51.024-1.263-.024-1.798-.049-.607-.097-1.384.218-1.918.146-.195-.097-.462-.291-.316zm10.541-6.339c-.364.607-.68 1.214-.971 1.87-.22.486-.583 1.214-.292 1.724.073.146.243.17.389.098.485-.243.631-.996.777-1.458.194-.631.437-1.263.704-1.87.194-.413-.364-.753-.607-.364zm-4.008 3.4c-.316.267-.437.729-.558 1.117-.146.462-.292 1.045-.17 1.53.073.292.461.243.558 0 .146-.412.146-.922.195-1.36.048-.413.17-.801.242-1.19 0-.145-.194-.17-.267-.097zm3.401 1.482c-.292.777-.583 1.554-.705 2.356-.097.631-.267 1.554.219 2.064a.299.299 0 00.486-.073c.291-.534.121-1.287.194-1.87a15.67 15.67 0 01.413-2.332c.097-.388-.461-.534-.607-.145zm6.388-1.215a8.204 8.204 0 00-.777 1.433c-.17.413-.365 1.142.072 1.458.073.048.195.024.268-.049.291-.267.218-.874.291-1.239a5.43 5.43 0 01.583-1.335c.17-.292-.267-.535-.437-.268zM37.002 237a16.6 16.6 0 01.025-1.555c0-.388-.559-.364-.583 0-.049.607-.122 1.215-.097 1.822.024.461.097 1.117.558 1.311.097.049.243-.048.267-.145.073-.219-.024-.389-.072-.608-.025-.291-.073-.558-.098-.825zm5.926-6.024c-.971.632-1.773 1.773-1.797 2.963 0 .146.073.292.218.365.608.34.705-.608.826-.972.219-.68.583-1.409 1.093-1.943.194-.194-.073-.583-.34-.413zm-2.744 4.469a.238.238 0 00-.462-.073c-.364.899-.85 2.89.097 3.595.122.097.316 0 .364-.146.146-.461-.024-1.044-.048-1.53 0-.632.097-1.239.049-1.846zm5.076-.146c-.413.583-.632 1.263-.705 1.968-.048.534-.218 1.7.389 1.991.121.049.267.049.34-.048.34-.413.121-1.142.121-1.628 0-.68.073-1.433.34-2.064.122-.316-.34-.437-.485-.219zm3.643 2.842c-.316.51-.462 1.093-.51 1.676-.049.51 0 1.384.486 1.676a.283.283 0 00.388-.122c.219-.388 0-.874-.049-1.263-.072-.583-.072-1.166.146-1.7.122-.34-.291-.583-.461-.267zm2.793-.024c-.267.728-.825 2.234-.073 2.817.146.097.34.024.438-.121.218-.316.121-.778.097-1.166-.025-.462.048-.923.121-1.385.049-.364-.461-.51-.583-.145zm6.461 4.517c-.145-.267-.34-.461-.461-.753-.122-.291-.219-.607-.389-.874-.097-.17-.388-.146-.437.048-.121.705.121 1.701.777 2.089.34.194.729-.194.51-.51zm-44.714-35.897c.146-.121.146-.291.194-.461.049-.195.146-.389.219-.559.17-.34.461-.631.729-.923.121-.121-.025-.364-.195-.291-.413.17-.728.486-.971.874-.194.316-.51.972-.267 1.336.073.121.194.121.291.024zm.559-7.335c.267-.315.34-.777.582-1.117.268-.364.68-.607 1.093-.753.316-.097.17-.583-.145-.486-.535.17-.972.438-1.36.851-.316.34-.68.947-.51 1.408.048.17.218.219.34.097zm12.193 34.149a4.936 4.936 0 00-.535 1.943c-.048.583-.073 1.603.413 2.016.122.097.364.121.437-.049.219-.486 0-1.069-.048-1.603a6.867 6.867 0 01.194-2.113c.073-.267-.316-.461-.461-.194zm3.06 3.351c.024-.291-.486-.364-.51-.072a9.97 9.97 0 00-.073 2.404c.073.632.218 1.579.801 1.943.17.097.34-.024.34-.194.073-.583-.291-1.263-.412-1.822a8.814 8.814 0 01-.146-2.259zm5.051 1.385a8.212 8.212 0 01.097-2.186c.025-.146-.121-.243-.243-.146-.582.559-.704 1.385-.704 2.186 0 .68 0 2.016.656 2.404.121.073.34.049.413-.097.121-.291.073-.558 0-.85-.097-.437-.17-.874-.219-1.311zm8.355 1.214c-.073-.729-.097-1.457-.17-2.186a.243.243 0 00-.486 0c-.072.777-.194 1.555-.145 2.356.024.583.073 1.652.704 1.943.146.073.316.024.364-.146.073-.267 0-.51-.072-.777-.073-.413-.146-.801-.195-1.19zm-22.563-14.767c-.461.195-.51 1.118-.582 1.53-.098.705-.268 1.458.048 2.113.073.17.34.146.413 0 .291-.582.267-1.238.34-1.87.049-.315.097-.631.122-.947.024-.218.12-.486 0-.68-.073-.121-.22-.194-.34-.146zm-7.14-4.663c-.486.486-.68 1.287-.777 1.943-.098.68-.195 1.53.145 2.137.097.195.364.146.437-.048.195-.583.073-1.215.146-1.822.073-.68.34-1.287.486-1.967.048-.243-.267-.437-.437-.243z" fill="#fff"/><path fill-rule="evenodd" clip-rule="evenodd" d="M5.667 244.231c-.188.045-.259.202-.376.314-.845.941-1.666 1.904-2.511 2.845-.282.314-.4.314-.681.022-.211-.201-.094-.336.047-.492.915-1.031 1.854-2.039 2.746-3.092.962-1.12.775-.627.798-2.038.024-.65.024-1.3.024-1.949 0-.157.047-.314-.047-.471-.165-.067-.235.067-.305.135-.963 1.008-2.043 1.904-3.052 2.889-.211.202-.422.426-.634.65-.117.112-.234.246-.422.09-.235-.202-.329-.404-.188-.583.141-.179.305-.358.47-.515l3.262-3.047c.869-.829.892-.829.869-1.993-.024-.941-.047-1.882-.024-2.823 0-.09-.023-.157-.023-.246-.188-.023-.258.112-.352.179l-2.606 2.419c-.188.179-.328.247-.563.067-.282-.201-.305-.291-.07-.537.657-.695 1.36-1.322 2.089-1.949l1.197-1.076c.21-.201.399-.403.328-.716-.047-.224.094-.314.329-.314.399 0 .821.022 1.22.022.235 0 .352.112.376.314 0 .291.188.426.422.538 1.127.627 2.254 1.277 3.38 1.904l.212.134c.234.202.258.314.07.583-.164.224-.329.179-.516.067a192.596 192.596 0 00-2.91-1.725c-.165-.09-.306-.202-.47-.246-.024.739-.047 1.433-.024 2.15.024.583.047 1.165.024 1.747 0 .314.117.516.399.672 1.056.65 2.112 1.3 3.122 2.039.187.134.352.269.516.403.235.202.211.314-.047.583-.188.201-.258.201-.517 0-.938-.74-1.948-1.367-2.933-2.039l-.212-.134c-.164-.09-.258-.023-.258.134v.291c0 1.098 0 2.218-.047 3.316 0 .358.117.605.423.829 1.009.739 2.089 1.411 3.168 2.038l.352.202c.329.201.353.314.141.627-.14.202-.305.179-.493.09-.375-.224-.774-.426-1.15-.65a31.738 31.738 0 01-2.136-1.434c-.047-.044-.117-.067-.164-.112-.164.09-.117.247-.117.359 0 1.882.047 3.763.14 5.667.024.471.024.493-.469.538-.399.045-.775.045-1.174.09-.258.022-.399-.068-.399-.314-.047-.672-.093-1.322-.117-1.994-.023-1.366-.047-2.733-.047-4.099 0-.112.047-.247-.07-.359zm22.253-45.078c-.263.218-.507.419-.733.655-.525.528-1.032 1.056-1.558 1.584-.244.237-.3.218-.525 0-.15-.146-.132-.255.018-.401.376-.4.77-.782 1.164-1.164.47-.456.92-.911 1.39-1.347.15-.146.244-.292.244-.51l.056-3.167c0-.073.019-.164-.075-.237-.15.018-.244.146-.338.237-.526.473-1.051.964-1.577 1.456-.225.2-.3.182-.488-.036-.132-.164-.113-.274.037-.401.395-.346.77-.71 1.164-1.056a31.96 31.96 0 011.202-1.019.604.604 0 00.206-.419c0-.145.075-.254.244-.273a3.56 3.56 0 01.977-.036c.187.018.319.109.281.309-.056.383.15.619.394.856.639.655 1.37 1.219 2.084 1.784.113.091.207.182.32.255.15.109.15.218.056.382-.17.255-.263.273-.507.073a32.35 32.35 0 01-2.084-1.784c-.056-.037-.094-.091-.188-.164-.075.182-.018.364-.018.51-.02.946 0 1.911-.038 2.857-.019.383.113.637.45.856.789.528 1.577 1.056 2.385 1.529l.337.218c.263.164.263.419.02.601-.057.036-.132.054-.188.018-.094-.055-.188-.091-.282-.146a45.6 45.6 0 01-2.215-1.419c-.113-.091-.244-.164-.338-.219-.094.018-.113.055-.113.091a36.317 36.317 0 000 2.858c0 .2.132.309.3.382.47.237.958.455 1.427.692.057.036.132.055.188.073.338.145.375.2.282.382-.132.291-.244.328-.582.182-.376-.164-.732-.346-1.108-.528l-.225-.109c-.263-.127-.3-.109-.3.2.018.583.056 1.165.037 1.748-.019.418-.038.436-.47.455-.225 0-.469.018-.694.036-.432.018-.488-.036-.507-.455l-.056-2.057c0-.073 0-.127-.019-.218-.188 0-.3.145-.413.236l-1.352 1.092c-.262.219-.375.201-.544-.054-.113-.164-.056-.273.075-.382.3-.237.582-.474.883-.71.356-.273.713-.528 1.07-.783a.515.515 0 00.262-.455c0-.965.02-1.929.02-2.894 0-.091-.02-.109-.038-.164zm29.019 13.356c-.627.479-1.186.981-1.745 1.483-.515.457-1.007.959-1.499 1.416-.224.228-.29.228-.492.022-.246-.251-.268-.365-.067-.593.581-.639 1.253-1.21 1.901-1.78a43.573 43.573 0 011.589-1.324c.29-.229.425-.502.447-.891.067-.935.045-1.848.134-2.784 0-.046 0-.092-.09-.16-.335.274-.67.571-1.006.867-.403.366-.805.731-1.208 1.073-.157.137-.29.251-.492.023-.224-.274-.269-.411-.022-.616.67-.594 1.364-1.187 2.035-1.781.224-.182.448-.388.671-.593.157-.137.291-.297.313-.548.023-.251.18-.342.403-.32.38.023.738.069 1.119.092.223.023.313.182.268.388-.045.388.157.548.447.73 1.03.639 2.036 1.301 3.065 1.963.18.114.38.228.246.502-.179.366-.29.411-.626.183a163.137 163.137 0 01-2.483-1.666 2.544 2.544 0 00-.425-.251c-.134-.069-.224-.023-.246.114-.023.114-.023.228-.023.342-.022.89-.022 1.803-.067 2.694-.022.365.09.616.403.844.783.571 1.588 1.164 2.326 1.803.157.137.291.274.157.503-.201.365-.29.388-.626.136a111.411 111.411 0 00-1.924-1.529c-.09-.068-.18-.182-.291-.114-.09.046-.067.183-.067.274-.022 1.118-.112 2.214-.067 3.333.022.296.112.456.403.547.782.251 1.543.594 2.326.913.134.046.268.115.403.183.246.137.268.205.156.479-.112.297-.201.366-.47.251l-1.744-.753a5.652 5.652 0 00-.65-.251c-.335-.114-.424-.068-.424.297 0 .616-.045 1.232.022 1.849.023.228.045.456.023.684 0 .343-.068.411-.403.434-.38.023-.783.023-1.163.023-.336 0-.38-.046-.403-.411-.022-.662-.09-1.324-.067-1.986v-.479c-.157-.091-.246 0-.336.068-.47.343-.962.685-1.431 1.028-.38.273-.425.273-.627 0-.223-.297-.201-.343.202-.64.536-.388 1.096-.798 1.655-1.164.38-.251.537-.57.537-1.027 0-1.118.022-2.214.045-3.332-.045-.137.022-.32-.112-.548z" fill="#122528"/></svg>