<svg width="65" height="36" fill="none" xmlns="http://www.w3.org/2000/svg"><path d="M.532 24.726c2.07-5.37 8.364-7.308 13.47-8.232a11.07 11.07 0 012.95-.132c-1.1-2.51-1.32-4.754-1.541-7.483-.176-2.422 1.54-4.843 3.346-6.295C20.826.954 23.29.207 25.887.03c5.195-.352 9.861 2.378 12.767 6.648.308.44.528.924.748 1.496a25.532 25.532 0 013.742-.66c1.54-.176 3.17.836 4.578 1.409 2.42 1.012 4.71 4.49 5.546 6.91.396 1.145.529 2.51.44 3.786 2.686.044 5.503.969 7.352 2.334 2.069 1.496 3.037 3.697 3.257 6.162.22 2.73-2.289 4.93-4.534 5.899-5.502 2.377-11.621 1.1-17.344 1.144-2.333.044-4.534-.352-6.823-.484-3.081-.132-6.075.044-9.156.22-2.861.132-5.678.088-8.54.22-3.081.133-5.766-.308-8.76-1.012-2.377-.572-5.15-.88-7.131-2.465-2.113-1.805-2.51-4.358-1.497-6.911z" fill="#BEDCE3"/><path d="M60.356 28.16c-.133.264-.573.264-.66-.045-.837-2.685-4.27-4.534-6.34-1.496-.176.264-.66.22-.66-.132-.22-4.49-4.578-4.006-7.131-2.113-.748.572-1.54 1.408-2.51 1.584-.131.044-.351-.088-.351-.264-.573-2.949-1.321-9.552-5.635-5.678-1.365 1.232-1.277 3.653-1.805 5.282-.088.264-.484.396-.66.132-2.113-3.301-4.094-2.465-6.515-.352-.22.176-.616.132-.616-.22-.044-.572-1.189-1.673-1.453-1.981-1.233-1.409-2.641-2.289-4.578-1.76-2.51.66-2.994 3.3-3.918 5.326-.132.308-.572.22-.66-.044-.793-2.113-3.874-2.157-5.063-.397-.132.22-.484.309-.616.045-1.1-2.114-3.037-1.673-4.05.043-.132.22-.484.309-.616.044-.66-1.276-1.585-2.157-2.597-3.125-.66-.66-1.365-.792-2.025-.616.176-.22.352-.44.572-.66.925 0 1.629.44 2.465 1.276.529.528 1.057 1.012 1.541 1.585.352.44.308.748.264.836.044-.044.088-.132.22-.264.88-.968 1.233-1.585 2.641-1.409.397.044.969.397 1.233.66.969.881.44 1.233 1.233-.131 1.232-2.07 4.005-.396 5.15 1.232 1.188-2.729 2.069-4.754 5.414-5.326 1.85-.308 4.799 2.069 5.459 4.006 2.597-2.157 4.71-2.553 6.735.22.792-2.598.836-4.358 3.346-6.163 1.936-1.365 3.785 1.1 4.49 2.685.528 1.145.088 4.666 1.848 3.346 1.321-.969 2.377-2.07 4.006-2.201 2.597-.22 4.358 1.188 4.842 3.477 2.245-2.333 5.547-1.144 6.823 1.629.749-.924 1.893-1.585 3.082-1.144.396.131.66.352.924.572.088.308.132.616.176.968-1.012-.88-3.213-.88-4.005.572zm-60.088.88c.969-.66 2.069-1.057 3.214-1.013 1.056.044 2.068.44 2.993.88.66.309.88 1.365 1.144 1.19 1.541-.97 4.446-.53 5.855.527 1.189.925.616.485 2.157-.484.924-.572 2.421-.352 3.346 0 .616.22.792.66 1.012.44.968-.968 2.245-1.893 3.346-2.597 2.069-1.364 4.49-.352 6.47.704 1.321.705 1.145 2.025 2.422.837.968-.88 2.377-1.057 3.61-1.1 1.452-.089 3.433.263 3.829 1.672.968-.704 1.893-1.1 3.214-1.233 1.056-.087 3.521 0 4.225 1.057 0 .044 3.214-.836 3.874-.484 1.365.748 2.245 1.628 2.641 2.993 1.85-1.76 3.654-2.993 6.34-2.509.88.176 2.42 1.144 2.905 1.893-.089.088-.177.22-.309.308-.968-1.409-5.59-1.32-5.634-1.277-1.057.705-2.29 1.585-3.214 2.51-.22.22-.572.088-.616-.22-.396-2.157-1.76-3.126-4.094-3.038.176-.044-1.805.88-1.76.837-.133.087-.353-.045-.397-.133-1.54-2.289-5.502-1.188-7.131.22-.264.265-.66.044-.616-.308.176-1.805-2.994-1.54-4.05-1.496-2.245.132-2.245 1.1-3.39 1.892-.132.089-.352.089-.44-.044-1.54-1.76-3.83-3.477-6.383-2.905-1.496.352-3.565 2.333-4.622 3.346a.376.376 0 01-.572-.044c-1.365-1.761-3.83-.396-5.239.528-.132.088-.308.044-.44.044s-.22-.132-.264-.22c-.704-1.981-5.106-1.365-6.207-.66-.176.088-.396.088-.484-.088-1.54-2.686-4.314-2.598-6.339-1.189a4.698 4.698 0 01-.396-.836zm48.95-19.281c-1.54-.088-3.125.616-4.358 1.98-.22.22-.484.089-.616-.132-1.056-2.2-4.534-1.628-5.767 0-.22.265-.572.045-.616-.22-.352-2.157-2.069-5.238-4.666-3.961-1.188.616-1.673 1.98-2.113 3.169-.088.264-.484.264-.616.044-.66-1.233-1.277-2.421-2.906-2.553-1.232-.088-2.156 1.409-3.081 2.113-.22.176-.528-.044-.572-.264C23.73 6.5 20.12 8.35 18.58 9.583c-.176.132-.484 0-.528-.177-.616-1.672-1.497-2.2-2.509-2.2a5.52 5.52 0 01.396-1.101.86.86 0 01.308.044c.573.132 1.277.924 1.629 1.277.176.176.308.44.44.66.396.924.088.704.352.484 1.321-1.056 2.642-2.069 4.402-1.629.617.132.88.617 1.189 1.057.748 1.1.044 1.408 1.453.088.704-.66 2.157-1.013 3.037-.572.572.308.88.528 1.233 1.1.484.792.484 1.497.792.704.264-.66.44-.836.836-1.408.793-1.057 2.95-2.157 4.27-1.365 1.54.969 2.201 2.465 2.553 4.138 1.63-1.409 4.887-1.805 6.163.132-.044-.088 2.201-1.805 2.818-1.805h.396c.484.088.968.396 1.408.749z" fill="#fff"/><path d="M53.664 17.198c-1.672-.924-4.666.616-5.59 1.629-.22.264-.704.044-.616-.308.176-.529.22-1.1.176-1.63.176-3.389-6.295-4.445-6.163-.703 0 .396-.572.528-.704.132-.969-2.598-4.49-1.32-5.987-.573-1.277.617-2.157 2.642-2.73 3.874-.131.264-.572.22-.66-.044-.396-1.409-.836-2.685-1.54-4.006-.925-1.716-3.566-4.094-5.635-.616-.352.616-.616 1.365-.924 1.981-.177.352-.617.176-.66-.132-.617-4.182-4.007-3.39-6.384-2.333a4.596 4.596 0 01-.176-.748c.837-.397 1.717-.66 2.641-.705 1.893-.132 3.698 1.1 4.402 2.818.88-1.761 2.334-4.447 4.535-3.302 2.377 1.232 3.521 3.522 4.27 5.943 1.056-2.157 2.377-3.478 4.93-4.182 1.54-.44 3.17-.22 4.138.88.528-1.893 2.64-2.641 4.622-2.289 2.025.352 2.861 2.95 2.773 4.886 1.409-1.056 3.566-1.76 5.15-1.276.044.132.088.396.132.704zM31.61 5.093c-.087.176-.396.264-.572.088-1.672-1.717-3.61-3.39-5.018-.617-.132.309-.572.22-.66-.044-.396-1.056-.837-2.509-1.585-3.345-.264-.308-.572-.484-.924-.66.352-.088.704-.176 1.1-.265.924.749 1.409 2.025 1.805 3.17.264-.66.528-1.1 1.585-1.145 1.584-.088 2.729-.088 3.653 1.321.176.264.264.44.264.572.088-.132.265-.308.66-.528.925-.484 1.674-.748 2.73-.88.088 0 .176 0 .308-.044.352.264.66.528.968.792-1.672-.264-3.521.088-4.313 1.585z" fill="#fff"/></svg>