<svg width="26" height="1470" fill="none" xmlns="http://www.w3.org/2000/svg"><path d="M.42 3.919c-1 94.858-.118 189.879 1.646 284.575 1.823 95.345 5.88 190.204 5.468 285.712-.411 91.447-2.528 182.732-1.411 274.342 1.117 90.797 3.88 181.592 3.88 272.392 0 55.23-.822 110.61-1.116 165.84-.294 59.94-.882 119.71-3 179.32-.176 5.2 2.764 5.2 2.94 0 3.764-105.41 3-211.64 4-317.38.822-90.64-1.882-181.274-3.352-271.747-1.47-91.285-.06-182.245.823-273.53.47-46.292.353-92.584-.765-138.877-1.117-47.916-2.822-95.833-3.88-143.911C3.359 215.238 2.243 109.497 3.3 3.756 3.418-1.279.478-1.279.419 3.92z" fill="#FFCE33"/><path d="M8.605 18.16c.688-.114 1.433-.114 2.121.058.172 0 .287.115.287.23 0 .171-.058.286-.23.343-1.031.459-4.47 1.605-4.642 0-.058-.344.286-.573.573-.63.286-.058.573.057.86.057.344.115.687 0 1.031-.057zm2.923-3.667c.23.229.115.63-.23.63-.802-.057-1.49 0-2.292.058-.802.114-1.72.057-2.464-.23-.23-.114-.402-.286-.402-.573-.057-1.146 1.376-.63 2.064-.573 1.031.114 2.522-.115 3.324.688zm-.343-3.898c.458.172.229.86-.23.803-1.203-.172-4.47.458-4.929-1.147-.057-.23 0-.458.23-.516.744-.344 1.662.115 2.407.287.86.114 1.72.287 2.522.573zm.63-3.955c.344.23 0 .745-.344.573-.975-.401-1.95-.573-2.924-.745-.86-.172-1.834-.23-2.464-.86-.172-.172-.057-.516.172-.573.86-.287 1.891.115 2.751.344.974.287 1.949.688 2.809 1.26z" fill="#122528"/><path d="M9.293 20.396c-.115-2.35.172-4.642-.115-6.992-.172-1.663 0-3.382-.23-5.044-.171-1.261-.171-6.764.574-7.91.688-1.032 11.062-.745 14.788 5.846 1.49 2.006 1.891 7.05 1.548 9.228-.574 3.611-3.611 6.19-6.535 8.14-2.292 1.547-6.476 3.324-8.827 1.031-1.031-1.089-1.089-2.808-1.203-4.299z" fill="#DA2D15"/><path d="M14.795 22.574c1.032.803 1.261 2.178.86 3.382.286 0 .63 0 .917-.057.458-.115.86-.344 1.26-.516 0-.172 0-.287.115-.401.23-.344.63-.459 1.032-.344.287.114.516.401.516.63.115.516-.573.86-.974.803-.115 0-.287-.058-.344-.172-.688.688-1.777.802-2.694.688a.434.434 0 00-.115.229c1.892.688 3.554 0 5.445-.573.058-.115.058-.172.172-.287.172-.23.402-.459.63-.516.689-.114 1.033.917.689 1.376-.172.23-.459.286-.746.286-.171 0-.343 0-.515-.114a.792.792 0 01-.172-.23c-1.72 1.204-4.013 1.262-5.847.402-.286.344-.63.63-1.031.802.229.86.63 1.72 1.031 2.58.115.229-.114.458-.344.458-1.375-.115-2.464-1.433-2.808-2.751-1.032-.23-2.006-.803-2.465-1.662-.63-1.032-.516-2.064-.057-2.98.114-.345.286-.574.573-.86.172-.23.401-.402.573-.631 1.548-1.319 3.267-.803 4.299.458zm3.611-4.814c.974-.287 2.064.344 2.522 1.146.287.459.459.974.287 1.548-.172.573-.745.917-1.319 1.031-.745.172-1.72.172-2.35-.4-.63-.574-.688-1.377-.286-2.007.172-.63.573-1.146 1.146-1.318zm3.554-6.477c1.318-.63 2.751.573 3.038 1.834.171.86-.287 1.662-.86 2.235-.516.516-1.204.688-1.892.459-.688-.172-1.031-.86-1.203-1.605-.401-.974-.115-2.464.917-2.923zm-5.159-7.108c.516-.917 1.548-1.26 2.522-1.089.917.115 1.834.688 2.178 1.548.516 1.318-.401 2.579-1.662 2.923-1.433.458-2.866-.057-3.21-1.548-.114-.63-.057-1.318.172-1.834zm.459 7.795c.23 1.09-.745 1.835-1.662 2.007-.401.114-.975 0-1.261-.287l-.115-.115c-.458-.286-.573-.917-.516-1.433.058-.515.344-.974.745-1.318.975-.974 2.522-.057 2.809 1.146z" fill="#122528"/></svg>