<svg width="200" height="3" fill="none" xmlns="http://www.w3.org/2000/svg"><path d="M199.462 1.564c-7.192 0-14.384-.65-21.554-1.07-7.305-.419-14.655-.44-21.982-.482a717.6 717.6 0 00-22.298.21c-7.192.189-14.384.063-21.576.021C104.815.201 97.578.18 90.318.411c-7.282.21-14.564.734-21.847.985-14.857.524-29.738.63-44.618.503C16.075 1.836 8.32 1.711.541 1.564c-.721-.021-.721 1.027 0 1.048 14.632.294 29.242.461 43.874.357a989.36 989.36 0 0022.275-.44c7.305-.231 14.587-.714 21.892-.986 14.429-.524 28.858-.021 43.288-.21 14.745-.188 29.535-.587 44.279.168 7.756.398 15.512 1.153 23.29 1.153.744-.042.744-1.09.023-1.09z" fill="#DA7015"/></svg>