<svg width="77" height="33" fill="none" xmlns="http://www.w3.org/2000/svg"><path d="M14.993 19.11a.08.08 0 010-.117c.333-.35.833.05.966.383.167.45-.117.966-.35 1.316-.133.2-.283.383-.416.583-.134.2-.333.45-.284.716.067.4.733.5 1 .717.217.166.45.483.25.733-.217.283-.7.25-1 .216-.65-.066-1.782-.266-1.782-1.1 0-.532.3-1.065.516-1.548.3-.683.7-1.283 1.1-1.9z" fill="#122528"/><path d="M9.412 2.185l-.35-.2c-.383-.2-.783-.4-1.116-.683-.184-.15-.433-.466-.234-.7.167-.2.55-.15.783-.133.35.033.7.133 1.033.217.6.15 1.166.4 1.716.683.417.216.833.45 1.216.716-1.016-.1-2.049-.083-3.048.1zm-2.032.65c-.817.4-1.5.982-2.133 1.632l-.25.25c-.25-.05-.5-.1-.733-.167-.433-.1-1.816-.45-1.516-1.166.167-.366.667-.533 1.016-.65.583-.2 1.216-.25 1.833-.2a9.965 9.965 0 011.832.284c-.016 0-.033 0-.05.017zM4.797 4.95c-.533.6-1 1.25-1.416 1.932-.15.25-.283.5-.4.75-.483.083-.982.183-1.465.233-.234.017-.533.034-.733-.1-.234-.15-.2-.433-.117-.65.283-.699 1.083-1.049 1.716-1.349.6-.283 1.25-.583 1.899-.733.166-.05.333-.066.516-.083zM17.475 3.7c-.917-.582-1.95-.999-2.999-1.265-.233-.283-.5-.55-.75-.833-.35-.4-.733-.9-.683-1.466 0-.067.05-.133.134-.133.733-.034 1.432.25 2.049.616.666.4 1.266.916 1.782 1.483.433.466.816 1 1.116 1.565.1.184.2.384.267.6-.1-.683-.2-1.382-.067-2.082.017-.067.083-.1.133-.1.45-.033.733.35.917.7.25.483.383 1.032.466 1.565.067.417.133.85.133 1.283 0 .1 0 .417-.066.65-.583-1.033-1.383-1.933-2.432-2.582zM2.116 9.814a14.184 14.184 0 00-.483 2.366 21.15 21.15 0 00-.134 2.049c-.35.4-.8.683-1.35.683a.15.15 0 01-.149-.15c.083-1.65.683-3.915 2.116-4.948zm-.466 7.663c.016-.05.032-.1.066-.15 0 .067.016.117.016.183.184 1.35.45 2.682.933 3.932-.016.183-.05.35-.083.516-.067.283-.15.6-.35.816-.183.2-.433.117-.583-.066-.25-.3-.35-.716-.4-1.1-.083-.466-.1-.95-.1-1.432.017-.916.15-1.816.5-2.699zm1.781 5.581c.283.483.6.95.933 1.399-.017.65-.017 1.283-.3 1.882-.016.05-.083.067-.133.05-1-.283-.716-1.832-.616-2.565.05-.267.1-.517.116-.766zm3.032 3.465c.4.3.833.566 1.283.766.05.233.033.483-.05.716-.117.283-.35.466-.65.417-.316-.05-.566-.384-.733-.617-.2-.283-.35-.6-.416-.933a4.56 4.56 0 01-.067-.833c.2.15.417.317.633.483zM9.368 29.6c.4.3.833.567 1.283.767.05.233.033.483-.05.716-.117.284-.35.467-.65.417-.316-.05-.566-.383-.733-.616-.2-.284-.35-.6-.416-.933a4.56 4.56 0 01-.067-.833c.2.15.417.316.633.483z" fill="#FFCE33"/><path d="M10.306 31.252c.424-.4.241-.922-.08-1.295.472.05.938.152 1.36.367.422.214.745.672.453 1.128-.28.437-.975.3-1.392.186a6.63 6.63 0 01-.641-.2c.107-.058.213-.115.3-.186z" fill="#FFCE33"/><path d="M8.928 18.91c.217.05.334.3.4.483.25.633.3 1.366.35 2.032.017.267.033.517.083.783a.72.72 0 00.217.433c.166.167.483.067.666 0 .333-.1.7-.233 1 0 .283.217.216.667.033.933-.283.416-.916.45-1.366.45-.516 0-1.05-.117-1.333-.583-.15-.25-.183-.55-.216-.833-.05-.4-.084-.8-.1-1.2-.034-.6-.067-1.199-.05-1.799-.067.017-.15-.033-.15-.116 0-.267.1-.666.466-.583z" fill="#122528"/><path d="M1.449 12.146c.233-1.915.816-3.764 1.8-5.43.532-.9 1.182-1.733 1.898-2.482.65-.666 1.333-1.266 2.182-1.666 1.6-.766 3.465-.933 5.198-.766 1.782.166 3.598.7 5.13 1.649 1.516.95 2.5 2.399 3.182 4.015.733 1.799 1.1 3.798 1 5.747a9.075 9.075 0 01-.267 1.749c.084.066.117.183.034.283a1.375 1.375 0 00-.184.25c-.016.067-.05.133-.066.2a.091.091 0 01-.084.05c-.1.166-.183.35-.266.5-.267.466-.55.916-.85 1.332-.6.85-1.316 1.6-2.132 2.266-.85.683-1.832 1.316-2.882 1.616-1.133.316-2.332.316-3.481.383-.883.05-1.833.116-2.666.433-.316.116-.633.3-.833.566-.233.3-.283.683-.266 1.05.033.466.2.833.483 1.199.266.333.583.65.833.983.35.466 2.047 5.59 1.464 5.956-.35.217-2.414-3.523-2.78-3.64-.583-.183-1.016-1.283-1.5-1.633-1.382-1.016-2.498-2.399-3.298-3.898-.883-1.65-1.283-3.465-1.532-5.297-.284-1.783-.35-3.599-.117-5.415z" fill="#356F7C"/><path d="M12.127 17.76c.2-.183.5-.233.766-.25.45-.033.9.034 1.333.084-.1-.067-.2-.117-.3-.167-.317-.183-.633-.35-.95-.55-.5-.316-1.05-.8-.883-1.449.184-.75.967-1.066 1.65-1.133a5.152 5.152 0 012.182.3c-.383-.533-.8-1.033-1.133-1.616-.366-.65-.633-1.415-.166-2.082.416-.616 1.232-.7 1.915-.65.666.05 1.316.234 1.95.45-.234-.25-.45-.533-.667-.8-.433-.582-.866-1.232-1.05-1.932-.133-.55 0-1.132.567-1.366.633-.266 1.382.034 1.949.333.516.267 1 .6 1.432.983.184.167.384.35.55.533-.133-.766-.233-1.532-.35-2.298-.083-.583-.333-1.583.383-1.866.334-.133.6.183.767.416.25.367.416.817.55 1.233.4 1.183.65 2.415 1.149 3.548.35.783.65 1.583 1.1 2.299.3.483.832 1.183 1.215 1.6.534.566.917.865 1.633 1.315.816.517 1.6 1.1 2.365 1.683.334.25.65.516.867.883.233.4.35.883.4 1.332.1.916-.2 1.816-.7 2.582-1.033 1.566-2.849 2.599-4.681 2.882-2.216.35-4.531-.116-6.697-.616a22.242 22.242 0 01-3.082-1.016 8.238 8.238 0 01-2.682-1.666c-.383-.35-.683-.583-1.05-.966-.382-.383-.482-.833-.565-1.283 0-.267.033-.55.233-.75z" fill="#E3DCD5"/><path d="M21.773 21.542c-.55-.85-.933-1.8-1.05-2.816 0-.033-.017-.083-.017-.116-.016-.083.134-.1.15-.017.317 1.816 1.45 3.715 3.099 4.614.666.367 1.449.6 2.199.733.083.017.166.034.266.034a3.2 3.2 0 01-.383.067c-.267.05-.533.066-.783.1-.45-.15-.883-.334-1.316-.534-.916-.433-1.632-1.232-2.165-2.065zm-3.233-6.68a.125.125 0 01.117-.083c.217.033.317.266.45.4a2.713 2.713 0 001.766.816c.916.066 1.782-.367 2.348-1.083.05-.067.167.016.117.1-.516.866-1.483 1.332-2.465 1.3a3.132 3.132 0 01-1.383-.384 2.326 2.326 0 01-.6-.467c-.15-.133-.433-.383-.35-.6z" fill="#122528"/><path d="M27.82 17.044c-.55-.383-1.117-.95-1.134-1.4-.016-.382.217-.732.483-1.015.317-.35.7-.65 1.033-.983.35-.333.683-.7.966-1.083.584-.783.917-1.666.85-2.599a3.39 3.39 0 00-.4-1.382c-.15-.267-.316-.533-.433-.817-.1-.233-.166-.55.067-.766.266-.233.633-.083.9.083.749.467 1.349 1.133 1.798 1.833.5.75.817 1.716.967 2.665.183 1.25.05 2.516-.334 3.732-.283.866-.832 1.749-1.749 2.182-.933.433-2.615-.167-3.015-.45z" fill="#FFCE33"/><path d="M21.756 10.497c.2.134.283.367.333.584.016.066.033.166.033.283.067.4-.017.75-.333.716a.308.308 0 01-.117-.033c-.266-.067-.466-.417-.55-.783-.016-.05-.016-.084-.033-.134-.033-.2-.033-.483.117-.633.166-.15.366-.116.55 0zm.433-.849l.05-.05c0-.017.016-.033.016-.05.1-.217.367-.217.517-.05.133.15.166.366.116.566.017.15-.05.3-.216.334a.318.318 0 01-.217-.034c-.05-.017-.1-.033-.133-.083-.15-.133-.25-.45-.133-.633zm-2.099-.7c.133.167.233.45.233.683 0 .183-.133.35-.333.367-.233 0-.45-.234-.583-.383-.2-.25-.384-.633-.1-.883.266-.267.616 0 .783.216zm3.615 2.299c.217.067.417.267.517.45.033.066.066.116.066.183.1.216.084.483-.183.566-.233.067-.466-.083-.65-.233-.166-.15-.35-.366-.333-.616.034-.267.317-.417.583-.35zm.815 1.849c.15.017.234.15.284.283.033.067.033.15.017.234v.05c0 .15-.117.3-.284.283-.166-.017-.266-.134-.366-.25a.385.385 0 01-.05-.417c.1-.183.267-.2.4-.183zm-11.443 5.547c.2-.183.5-.133.683.05.016 0 .016.017.033.034.15.133.183.316.167.5.066.232-.067.5-.317.549a.61.61 0 01-.683-.4c-.1-.25-.083-.55.117-.733zm1.899 2.016c-.034-.133.033-.267.166-.3a.331.331 0 01.184.017c.05.016.1.05.116.083.017.017.033.017.05.033.15.15.183.45.083.633-.066.117-.183.134-.3.117-.1-.017-.183-.1-.233-.183a.483.483 0 01-.083-.3c0-.017 0-.05.017-.1 0 .017 0 0 0 0zm-.166-1.932c.216-.084.4.016.533.183a.322.322 0 01.083.15v.033a.472.472 0 01-.033.367.323.323 0 01-.284.166h-.066c-.15.083-.333.083-.45-.083-.067-.1-.067-.217-.067-.333.05-.167.084-.4.284-.483zm7.962-10.645c-.016.083-.1.15-.2.15a.502.502 0 01-.45-.35.373.373 0 01.3-.483.419.419 0 01.25.017c.1.05.134.166.15.283 0 .033 0 .083-.016.116 0 .1-.017.184-.034.267zm-4.681.433a.258.258 0 01.35.05c.117.117.133.283.15.416v.034c.033.116.017.233-.067.316-.216.2-.6.067-.65-.216a.583.583 0 01.217-.6zm-3.865 6.464c.3-.117.7-.034.933.2.1.083.133.2.15.3.017.05.034.083.05.133.084.416-.3.766-.683.782a.951.951 0 01-.883-.566c-.15-.366.084-.716.433-.85zm1.05 1.815c-.083-.1.033-.283.167-.283.066 0 .133 0 .2.033l.016.017c.15 0 .183.183.183.317 0 .116-.116.183-.2.166-.066-.017-.133-.017-.183-.05-.083-.05-.133-.133-.183-.2zm1.432 2.399a.37.37 0 01.184-.083c.15-.017.3.15.366.3.017.033.017.066.033.116v.034c0 .05-.016.116-.033.15-.033.283-.416.432-.65.216-.133-.117-.183-.333-.133-.516.017-.117.117-.184.233-.217z" fill="#fff"/><path d="M16.175 4.317c.2-.116.5.017.7.083.3.1.583.234.85.4.466.283.85.617 1.05 1.133.05.15-.067.083-.117.033-.334-.4-.634-.716-1.117-.983a4.136 4.136 0 00-.733-.333c-.2-.066-.483-.066-.65-.216-.033-.034-.016-.084.017-.117zm-5.03-1.216c.233-.117.533-.083.783-.083.3 0 .75 0 1.032.05.617.1 1.1.116 1.7.45.05.033 0 .1-.067.1-.566-.067-.883-.117-1.633-.234-.316-.05-.55-.016-.883-.033-.266-.017-.65 0-.916-.033-.083-.017-.1-.167-.016-.217zM6.713 4.883c.1-.083.183-.166.283-.25.2-.2.367-.366.583-.55.4-.349.883-.549 1.416-.532.067 0 .1.066.033.083-.4.183-.683.267-1.132.6-.2.15-.583.45-.767.616-.133.133-.333.383-.533.4-.05 0-.083-.05-.066-.083a.472.472 0 01.183-.284zM3.88 9.048c-.032.017-.082.017-.1-.033-.132-.183.068-.517.15-.7.1-.25.217-.483.367-.716.267-.45.583-.816 1.033-1.1.05-.033.133.017.1.067-.35.383-.65.716-.9 1.166a4 4 0 00-.333.716c-.1.184-.133.533-.316.6zm-1.065 4.298c-.033.083-.133.083-.166 0-.083-.183-.05-.417-.033-.617.016-.233.05-.466.1-.7.1-.432.183-.865.5-1.182.05-.05.066 0 .05.05-.1.466-.25.766-.334 1.2-.033.216-.05.433-.067.65-.016.182.017.399-.05.599zm-.25 1.333c.134.666.167 1.082.267 1.582.05.267.1.55.15.816.05.234.133.483.067.717-.017.05-.1.083-.134.033-.15-.2-.166-.433-.216-.666-.05-.267-.1-.55-.134-.817-.083-.533-.15-1.266-.1-1.665 0-.067.084-.05.1 0zm.733 4.314c.084.15.1.367.15.533a3.2 3.2 0 00.284.65c.1.2.216.4.333.616.083.15.2.35.133.517-.017.033-.05.066-.083.05-.183-.067-.25-.3-.333-.467a12.958 12.958 0 01-.317-.7 3.116 3.116 0 01-.216-.666c-.034-.166-.067-.383.016-.516-.016-.05.017-.05.033-.017zm1.616 3.532c.15.133.467.55.667.85.183.266.433.582.383.915 0 .05-.067.084-.1.05-.233-.25-.35-.6-.533-.9a5.82 5.82 0 01-.483-.899c-.034-.066.016-.066.066-.016zm1.999 2.532c.25.15.417.383.633.583.2.183.45.383.567.633.083.166-.133.3-.25.15a5.03 5.03 0 00-.533-.65c-.2-.217-.383-.416-.5-.683-.033-.067 0-.083.083-.033z" fill="#E3DCD5"/><path d="M30.618 9.265c-.2.1-.434.183-.65.233-.017-.05-.017-.1-.033-.15.183-.05.366-.1.533-.183.416-.183.8-.467 1.016-.883v-.017c.033.034.066.083.1.117-.217.4-.583.683-.966.883zm-.016 2.365a7.547 7.547 0 01-.833-.1.901.901 0 00.066-.2c.233.05.467.084.7.1.516.034 1.116.017 1.566-.3a5.94 5.94 0 00.616-.516c.017.05.033.1.05.167-.167.15-.333.3-.516.433-.467.383-1.066.433-1.65.416zm.298 1.2a4.144 4.144 0 01-1.449-.683c.034-.067.067-.134.117-.2.4.333.9.55 1.4.7a3.846 3.846 0 002.031 0v.15c-.666.2-1.399.2-2.099.032zm-3.88 1.999c.05-.067.1-.117.15-.167.033.083.083.166.116.25.3.566.733 1.05 1.2 1.45a5.89 5.89 0 002.232 1.182 1.38 1.38 0 01-.25.066 5.721 5.721 0 01-2.1-1.132 5.165 5.165 0 01-1.282-1.533c-.033-.033-.05-.083-.066-.117zm4.164-6.88c-.083.133-.183.25-.283.366-.266.333-.566.65-.933.883a.36.36 0 01-.083.05c-.017-.067-.033-.117-.05-.183.05-.017.083-.05.133-.084.333-.216.617-.516.866-.832.084-.1.167-.217.25-.334.034.05.067.084.1.134zm.634 7.496c-.617-.133-1.167-.417-1.683-.783-.55-.4-1.066-.9-1.516-1.416l-.017-.017c.05-.05.084-.1.134-.15.05.05.1.117.15.167.433.483.916.95 1.449 1.333.666.483 1.433.716 2.215.833a.967.967 0 01-.05.133 3.07 3.07 0 01-.682-.1zm-2.783.4a4.63 4.63 0 01-1.383-1.516l-.05-.1c.05-.05.117-.1.167-.15.017.05.05.1.083.15.317.6.8 1.1 1.35 1.482.783.55 1.749.867 2.715.933a.832.832 0 01-.117.134c-1-.05-1.965-.367-2.765-.933z" fill="#DA7015"/><path d="M30.435 14.129a5.15 5.15 0 01-1.483-1.283c.05-.066.1-.133.15-.183.367.5.833.933 1.383 1.266.7.433 1.499.666 2.298.633-.016.05-.016.1-.033.15-.8.05-1.599-.167-2.315-.583zm2.098-4.065c-.383.35-.883.583-1.4.733-.382.1-.782.15-1.182.133.017-.05.017-.116.034-.166.35 0 .683-.033 1.016-.1.533-.117 1.082-.35 1.482-.716.017.033.034.083.05.116z" fill="#DA7015"/><path d="M58.993 19.11a.08.08 0 010-.117c.333-.35.833.05.966.383.167.45-.117.966-.35 1.316-.133.2-.283.383-.416.583-.134.2-.334.45-.283.716.066.4.733.5.999.717.217.166.45.483.25.733-.217.283-.7.25-1 .216-.65-.066-1.782-.266-1.782-1.1 0-.532.3-1.065.516-1.548.3-.683.7-1.283 1.1-1.9z" fill="#122528"/><path d="M53.412 2.185l-.35-.2c-.383-.2-.783-.4-1.116-.683-.184-.15-.433-.466-.233-.7.166-.2.55-.15.782-.133.35.033.7.133 1.033.217.6.15 1.166.4 1.716.683.416.216.833.45 1.216.716-1.016-.1-2.049-.083-3.048.1zm-2.032.65c-.817.4-1.5.982-2.133 1.632l-.25.25c-.25-.05-.5-.1-.733-.167-.433-.1-1.816-.45-1.516-1.166.167-.366.667-.533 1.016-.65.583-.2 1.216-.25 1.833-.2a9.966 9.966 0 011.832.284c-.017 0-.033 0-.05.017zM48.797 4.95c-.533.6-1 1.25-1.416 1.932-.15.25-.283.5-.4.75-.483.083-.982.183-1.465.233-.234.017-.533.034-.733-.1-.234-.15-.2-.433-.117-.65.283-.699 1.083-1.049 1.716-1.349.6-.283 1.25-.583 1.899-.733a2.57 2.57 0 01.516-.083zM61.475 3.7c-.917-.582-1.95-.999-2.999-1.265-.233-.283-.5-.55-.75-.833-.35-.4-.733-.9-.682-1.466a.13.13 0 01.133-.133c.733-.034 1.432.25 2.049.616.666.4 1.266.916 1.782 1.483.433.466.816 1 1.116 1.565.1.184.2.384.267.6-.1-.683-.2-1.382-.067-2.082.017-.067.083-.1.133-.1.45-.033.733.35.917.7.25.483.383 1.032.466 1.565.067.417.133.85.133 1.283 0 .1 0 .417-.066.65-.583-1.033-1.383-1.933-2.432-2.582zM46.116 9.814a14.19 14.19 0 00-.483 2.366 21.159 21.159 0 00-.134 2.049c-.35.4-.8.683-1.35.683a.15.15 0 01-.149-.15c.083-1.65.683-3.915 2.116-4.948zm-.466 7.663a.59.59 0 01.066-.15c0 .067.017.117.017.183.183 1.35.45 2.682.932 3.932-.016.183-.05.35-.083.516-.067.283-.15.6-.35.816-.183.2-.433.117-.583-.066-.25-.3-.35-.716-.4-1.1-.083-.466-.1-.95-.1-1.432.017-.916.15-1.816.5-2.699zm1.781 5.581c.283.483.6.95.933 1.399-.017.65-.017 1.283-.3 1.882-.017.05-.083.067-.133.05-1-.283-.716-1.832-.616-2.565.05-.267.1-.517.116-.766zm3.032 3.465c.4.3.833.566 1.283.766.05.233.033.483-.05.716-.117.283-.35.466-.65.417-.316-.05-.566-.384-.733-.617-.2-.283-.35-.6-.416-.933a4.557 4.557 0 01-.067-.833c.2.15.416.317.633.483zm2.905 3.077c.4.3.833.567 1.283.767.05.233.033.483-.05.716-.117.284-.35.467-.65.417-.316-.05-.566-.383-.733-.616-.2-.284-.35-.6-.416-.933a4.557 4.557 0 01-.067-.833c.2.15.417.316.633.483z" fill="#FFCE33"/><path d="M54.306 31.252c.424-.4.241-.922-.08-1.295.472.05.938.152 1.36.367.422.214.745.672.453 1.128-.28.437-.975.3-1.392.186a6.63 6.63 0 01-.641-.2c.107-.058.213-.115.3-.186z" fill="#FFCE33"/><path d="M52.928 18.91c.217.05.334.3.4.483.25.633.3 1.366.35 2.032.017.267.033.517.083.783a.72.72 0 00.217.433c.166.167.483.067.666 0 .333-.1.7-.233 1 0 .283.217.216.667.033.933-.283.416-.916.45-1.366.45-.516 0-1.05-.117-1.333-.583-.15-.25-.183-.55-.216-.833-.05-.4-.084-.8-.1-1.2-.033-.6-.067-1.199-.05-1.799-.067.017-.15-.033-.15-.116 0-.267.1-.666.466-.583z" fill="#122528"/><path d="M45.449 12.146c.233-1.915.816-3.764 1.8-5.43.532-.9 1.182-1.733 1.898-2.482.65-.666 1.333-1.266 2.182-1.666 1.6-.766 3.465-.933 5.198-.766 1.782.166 3.598.7 5.13 1.649 1.516.95 2.5 2.399 3.182 4.015.733 1.799 1.1 3.798 1 5.747a9.075 9.075 0 01-.267 1.749c.084.066.117.183.034.283a1.375 1.375 0 00-.184.25c-.016.067-.05.133-.066.2a.091.091 0 01-.084.05c-.1.166-.183.35-.266.5-.267.466-.55.916-.85 1.332-.6.85-1.316 1.6-2.132 2.266-.85.683-1.832 1.316-2.882 1.616-1.133.316-2.332.316-3.482.383-.882.05-1.832.116-2.665.433-.316.116-.633.3-.833.566-.233.3-.283.683-.266 1.05.033.466.2.833.483 1.199.266.333.583.65.833.983.35.466 2.047 5.59 1.464 5.956-.35.217-2.414-3.523-2.78-3.64-.583-.183-1.016-1.283-1.5-1.633-1.382-1.016-2.498-2.399-3.298-3.898-.883-1.65-1.282-3.465-1.532-5.297-.284-1.783-.35-3.599-.117-5.415z" fill="#356F7C"/><path d="M56.127 17.76c.2-.183.5-.233.766-.25.45-.033.9.034 1.333.084-.1-.067-.2-.117-.3-.167-.317-.183-.633-.35-.95-.55-.5-.316-1.05-.8-.883-1.449.184-.75.967-1.066 1.65-1.133a5.152 5.152 0 012.182.3c-.383-.533-.8-1.033-1.133-1.616-.366-.65-.633-1.415-.166-2.082.416-.616 1.232-.7 1.915-.65.667.05 1.316.234 1.95.45-.234-.25-.45-.533-.667-.8-.433-.582-.866-1.232-1.05-1.932-.133-.55 0-1.132.567-1.366.633-.266 1.382.034 1.949.333.516.267 1 .6 1.432.983.184.167.384.35.55.533-.133-.766-.233-1.532-.35-2.298-.083-.583-.333-1.583.383-1.866.334-.133.6.183.767.416.25.367.416.817.55 1.233.4 1.183.65 2.415 1.149 3.548.35.783.65 1.583 1.1 2.299.3.483.832 1.183 1.215 1.6.534.566.917.865 1.633 1.315.816.517 1.6 1.1 2.365 1.683.334.25.65.516.867.883.233.4.35.883.4 1.332.1.916-.2 1.816-.7 2.582-1.033 1.566-2.849 2.599-4.681 2.882-2.216.35-4.531-.116-6.697-.616a22.242 22.242 0 01-3.082-1.016 8.238 8.238 0 01-2.682-1.666c-.383-.35-.683-.583-1.05-.966-.382-.383-.482-.833-.565-1.283 0-.267.033-.55.233-.75z" fill="#E3DCD5"/><path d="M65.772 21.542c-.55-.85-.932-1.8-1.049-2.816 0-.033-.017-.083-.017-.116-.016-.083.134-.1.15-.017.317 1.816 1.45 3.715 3.099 4.614.666.367 1.449.6 2.199.733.083.017.166.034.266.034a3.2 3.2 0 01-.383.067c-.267.05-.533.066-.783.1-.45-.15-.883-.334-1.316-.534-.916-.433-1.632-1.232-2.166-2.065zm-3.232-6.68a.125.125 0 01.117-.083c.217.033.317.266.45.4a2.713 2.713 0 001.766.816c.916.066 1.782-.367 2.348-1.083.05-.067.167.016.117.1-.516.866-1.483 1.332-2.465 1.3a3.132 3.132 0 01-1.383-.384 2.326 2.326 0 01-.6-.467c-.15-.133-.433-.383-.35-.6z" fill="#122528"/><path d="M71.82 17.044c-.55-.383-1.117-.95-1.134-1.4-.016-.382.217-.732.483-1.015.317-.35.7-.65 1.033-.983.35-.333.683-.7.966-1.083.583-.783.917-1.666.85-2.599a3.39 3.39 0 00-.4-1.382c-.15-.267-.316-.533-.433-.817-.1-.233-.166-.55.067-.766.266-.233.633-.083.9.083.749.467 1.349 1.133 1.798 1.833.5.75.817 1.716.967 2.665.183 1.25.05 2.516-.334 3.732-.283.866-.832 1.749-1.749 2.182-.933.433-2.615-.167-3.015-.45z" fill="#FFCE33"/><path d="M65.755 10.497c.2.134.284.367.334.584.016.066.033.166.033.283.067.4-.017.75-.333.716a.308.308 0 01-.117-.033c-.266-.067-.466-.417-.55-.783-.016-.05-.016-.084-.033-.134-.033-.2-.033-.483.117-.633.166-.15.366-.116.55 0zm.434-.849l.05-.05c0-.017.016-.033.016-.05.1-.217.367-.217.517-.05.133.15.166.366.116.566.017.15-.05.3-.216.334a.318.318 0 01-.217-.034c-.05-.017-.1-.033-.133-.083-.15-.133-.25-.45-.133-.633zm-2.099-.7c.133.167.233.45.233.683 0 .183-.133.35-.333.367-.233 0-.45-.234-.583-.383-.2-.25-.383-.633-.1-.883.266-.267.616 0 .783.216zm3.615 2.299c.217.067.417.267.517.45.033.066.066.116.066.183.1.216.084.483-.183.566-.233.067-.466-.083-.65-.233-.166-.15-.35-.366-.333-.616.034-.267.317-.417.583-.35zm.815 1.849c.15.017.234.15.284.283.033.067.033.15.017.234v.05c0 .15-.117.3-.284.283-.166-.017-.266-.134-.366-.25a.385.385 0 01-.05-.417c.1-.183.267-.2.4-.183zm-11.443 5.547c.2-.183.5-.133.683.05.016 0 .016.017.033.034.15.133.183.316.167.5.066.232-.067.5-.317.549a.61.61 0 01-.683-.4c-.1-.25-.083-.55.117-.733zm1.899 2.016c-.034-.133.033-.267.166-.3a.331.331 0 01.183.017c.05.016.1.05.117.083.017.017.033.017.05.033.15.15.183.45.083.633-.066.117-.183.134-.3.117-.1-.017-.183-.1-.233-.183a.483.483 0 01-.083-.3c0-.017 0-.05.017-.1 0 .017 0 0 0 0zm-.166-1.932c.216-.084.4.016.533.183a.322.322 0 01.083.15v.033a.472.472 0 01-.033.367.323.323 0 01-.284.166h-.066c-.15.083-.333.083-.45-.083-.067-.1-.067-.217-.067-.333.05-.167.084-.4.284-.483zm7.962-10.645c-.016.083-.1.15-.2.15a.502.502 0 01-.45-.35.373.373 0 01.3-.483.419.419 0 01.25.017c.1.05.134.166.15.283 0 .033 0 .083-.016.116 0 .1-.017.184-.034.267zm-4.681.433a.258.258 0 01.35.05c.117.117.133.283.15.416v.034c.033.116.017.233-.067.316-.216.2-.6.067-.65-.216a.583.583 0 01.217-.6zm-3.865 6.464c.3-.117.7-.034.933.2.1.083.133.2.15.3.017.05.034.083.05.133.084.416-.3.766-.683.782a.951.951 0 01-.883-.566c-.15-.366.084-.716.433-.85zm1.05 1.815c-.083-.1.033-.283.167-.283.066 0 .133 0 .2.033l.016.017c.15 0 .183.183.183.317 0 .116-.116.183-.2.166-.066-.017-.133-.017-.183-.05-.083-.05-.133-.133-.183-.2zm1.432 2.399a.37.37 0 01.184-.083c.15-.017.3.15.366.3.017.033.017.066.033.116v.034c0 .05-.016.116-.033.15-.033.283-.416.432-.65.216-.133-.117-.183-.333-.133-.516.017-.117.117-.184.233-.217z" fill="#fff"/><path d="M60.175 4.317c.2-.116.5.017.7.083.3.1.583.234.85.4.466.283.85.617 1.05 1.133.05.15-.067.083-.117.033-.334-.4-.633-.716-1.117-.983a4.136 4.136 0 00-.732-.333c-.2-.066-.484-.066-.65-.216-.033-.034-.017-.084.016-.117zm-5.03-1.216c.233-.117.533-.083.782-.083.3 0 .75 0 1.033.05.617.1 1.1.116 1.7.45.05.033 0 .1-.067.1-.567-.067-.883-.117-1.633-.234-.316-.05-.55-.016-.883-.033-.266-.017-.65 0-.916-.033-.083-.017-.1-.167-.016-.217zm-4.432 1.782c.1-.083.183-.166.283-.25.2-.2.367-.366.583-.55.4-.349.883-.549 1.416-.532.067 0 .1.066.034.083-.4.183-.684.267-1.133.6-.2.15-.583.45-.767.616-.133.133-.333.383-.533.4-.05 0-.083-.05-.066-.083a.472.472 0 01.183-.284zM47.88 9.048c-.032.017-.082.017-.1-.033-.132-.183.068-.517.15-.7.1-.25.217-.483.367-.716.267-.45.583-.816 1.033-1.1.05-.033.133.017.1.067-.35.383-.65.716-.9 1.166a4 4 0 00-.333.716c-.1.184-.133.533-.316.6zm-1.065 4.298c-.033.083-.133.083-.166 0-.083-.183-.05-.417-.033-.617a5.04 5.04 0 01.1-.7c.1-.432.183-.865.5-1.182.05-.05.066 0 .05.05-.1.466-.25.766-.334 1.2-.033.216-.05.433-.067.65-.016.182.017.399-.05.599zm-.25 1.333c.134.666.167 1.082.267 1.582.05.267.1.55.15.816.05.234.133.483.066.717-.016.05-.1.083-.133.033-.15-.2-.166-.433-.216-.666-.05-.267-.1-.55-.134-.817-.083-.533-.15-1.266-.1-1.665 0-.067.084-.05.1 0zm.733 4.314c.084.15.1.367.15.533.067.233.167.433.284.65.1.2.216.4.333.616.083.15.2.35.133.517-.017.033-.05.066-.083.05-.184-.067-.25-.3-.333-.467a12.92 12.92 0 01-.317-.7 3.115 3.115 0 01-.217-.666c-.033-.166-.066-.383.017-.516-.017-.05.017-.05.033-.017zm1.616 3.532c.15.133.467.55.667.85.183.266.433.582.383.915 0 .05-.067.084-.1.05-.233-.25-.35-.6-.533-.9a5.817 5.817 0 01-.483-.899c-.034-.066.016-.066.066-.016zm1.999 2.532c.25.15.417.383.634.583.2.183.45.383.566.633.083.166-.133.3-.25.15a5.031 5.031 0 00-.533-.65c-.2-.217-.383-.416-.5-.683-.033-.067 0-.083.083-.033z" fill="#E3DCD5"/><path d="M74.618 9.265c-.2.1-.434.183-.65.233-.017-.05-.017-.1-.033-.15.183-.05.366-.1.533-.183.416-.183.8-.467 1.016-.883v-.017c.033.034.066.083.1.117-.217.4-.583.683-.966.883zm-.016 2.365a7.547 7.547 0 01-.833-.1.901.901 0 00.066-.2c.233.05.467.084.7.1.516.034 1.116.017 1.566-.3a5.94 5.94 0 00.616-.516c.017.05.033.1.05.167-.166.15-.333.3-.516.433-.467.383-1.067.433-1.65.416zm.298 1.2a4.144 4.144 0 01-1.449-.683c.034-.067.067-.134.117-.2.4.333.9.55 1.4.7a3.846 3.846 0 002.031 0v.15c-.666.2-1.399.2-2.099.032zm-3.88 1.999c.05-.067.1-.117.15-.167.033.083.083.166.116.25.3.566.733 1.05 1.2 1.45a5.89 5.89 0 002.232 1.182 1.38 1.38 0 01-.25.066 5.721 5.721 0 01-2.1-1.132 5.165 5.165 0 01-1.282-1.533c-.033-.033-.05-.083-.067-.117zm4.164-6.88c-.083.133-.183.25-.283.366-.266.333-.566.65-.933.883a.36.36 0 01-.083.05c-.017-.067-.033-.117-.05-.183.05-.017.083-.05.133-.084.333-.216.617-.516.867-.832.083-.1.166-.217.25-.334.033.05.066.084.1.134zm.634 7.496c-.617-.133-1.166-.417-1.683-.783-.55-.4-1.066-.9-1.516-1.416l-.016-.017c.05-.05.083-.1.133-.15.05.05.1.117.15.167.433.483.916.95 1.449 1.333.666.483 1.433.716 2.216.833-.017.05-.034.1-.05.133a3.07 3.07 0 01-.683-.1zm-2.783.4a4.63 4.63 0 01-1.382-1.516l-.05-.1c.05-.05.116-.1.166-.15.017.05.05.1.083.15.317.6.8 1.1 1.35 1.482.783.55 1.749.867 2.715.933-.033.05-.067.084-.117.134-1-.05-1.965-.367-2.765-.933z" fill="#DA7015"/><path d="M74.435 14.129a5.15 5.15 0 01-1.483-1.283c.05-.066.1-.133.15-.183.367.5.833.933 1.383 1.266.7.433 1.499.666 2.299.633-.017.05-.017.1-.034.15-.8.05-1.599-.167-2.315-.583zm2.098-4.065c-.383.35-.883.583-1.4.733-.382.1-.782.15-1.182.133.017-.05.017-.116.034-.166.35 0 .683-.033 1.016-.1.533-.117 1.082-.35 1.482-.716.017.033.033.083.05.116z" fill="#DA7015"/></svg>