<svg width="54" height="41" fill="none" xmlns="http://www.w3.org/2000/svg"><path clip-rule="evenodd" d="M1.653 20.421c-.007 3.236-.151 7.65 1.852 9.3 1.868 1.539 3.183 1.142 6.594 1.392 3.413.253 10.617 10.282 16.17 7.11 2.866-2.252 3.079-6.973 3.079-17.802 0-10.828-.213-15.549-3.078-17.8-5.554-3.175-12.758 6.856-16.171 7.108-3.411.25-4.726-.146-6.594 1.393-2.003 1.65-1.859 6.064-1.852 9.3z" stroke="#356F7C" stroke-width="3" stroke-linecap="round" stroke-linejoin="round"/><path d="M46.63 4.38c6.714 9.66 6.736 22.403 0 32.082m-6.59-25.74a19.46 19.46 0 010 19.4" stroke="#356F7C" stroke-width="3" stroke-linecap="round" stroke-linejoin="round"/></svg>