<svg width="320" height="612" fill="none" xmlns="http://www.w3.org/2000/svg"><path d="M137.931 6.454C55.496 2.25 8.348 14.464-.302 75.16c-7.208 50.579 0 213.157 0 307.532 0 134.946-16.146 101.765 5.921 181.134 22.068 79.369 279.579 47.103 301.363 0 11.66-25.211 17.313-50.881 17.313-105.926 0-51.438-3.032-220.187 0-300.834 3.556-94.56-4.064-171.338-76.704-154.815-51.719 11.764-68.348 6.311-109.66 4.204z" fill="#DFEEF1"/><path d="M305.082 361.204c.166-1.161-1.603-1.493-2.1-.553-.995 1.879-1.327 3.979-2.488 5.748-.442.663.498 1.271 1.05.774 1.769-1.437 3.206-3.703 3.538-5.969zm-6.191-3.483c.111.664.995.608 1.271.166 1.161-1.824 3.317-3.814 2.653-6.19-.331-1.161-1.989-1.382-2.542-.332-.553.995-.774 2.156-1.161 3.261-.276 1.05-.387 1.99-.221 3.095zm11.275 5.914c-.221-.055-.387-.055-.552 0-.332.111-.664.387-.774.774-.498 1.99-1.05 3.703-2.377 5.306-.442.553.166 1.603.829 1.106 1.88-1.437 3.814-3.538 3.703-6.08-.055-.553-.331-.94-.829-1.106zm-1.99-7.517c1.272-1.437 2.377-3.316 2.432-5.306 0-1.05-1.326-1.05-1.658-.221-.663 1.548-.829 3.261-1.658 4.809-.332.608.442 1.271.884.718zm-11.33-10.225c-.277.719-.663 1.437-.995 2.156-.111.221.221.442.387.331.553-.331.995-.939 1.326-1.492.332-.497.829-1.326.387-1.824-.442-.663-.939.498-1.105.829zm4.864 1.106c1.547-1.769 2.984-3.814 3.15-6.246.055-.387-.221-.829-.553-.995a.927.927 0 00-.552-.166c-.553.055-.94.332-1.106.829-.663 1.99-1.16 3.98-1.934 5.97-.221.552.608 1.05.995.608zm.939-17.632a48.62 48.62 0 001.161-4.035c.276-1.161.663-2.377-.166-3.372-.276-.331-.829-.276-1.105 0-.829.774-.664 2.045-.774 3.095-.166 1.327-.442 2.598-.719 3.925-.11.939 1.272 1.382 1.603.387zm-12.989 22.385a33.778 33.778 0 002.819-2.819c.719-.829 1.99-2.1 1.548-3.261-.111-.332-.442-.553-.829-.442-.995.276-1.437 1.492-1.935 2.321-.773 1.161-1.658 2.156-2.597 3.206-.608.663.331 1.603.994.995zm5.196-11.054c.884-1.438 1.713-2.985 2.266-4.588.332-.995 1.382-3.206.11-3.98-1.326-.773-1.879 1.88-2.045 2.598-.442 1.824-.884 3.703-1.547 5.472-.221.719.829 1.106 1.216.498zm-4.311-19.456c.664-1.492 1.88-3.648 1.051-5.306-.332-.608-1.272-.332-1.272.331 0 .774.056 1.548-.055 2.322-.111.829-.221 1.603-.387 2.377-.055.386.498.663.663.276zm-9.839 16.084a10.847 10.847 0 002.653-3.04c.553-.995 1.658-2.764.94-3.869-.221-.332-.608-.387-.94-.221-.939.442-1.16 1.934-1.547 2.819-.498 1.16-1.05 2.321-1.88 3.261-.608.497.111 1.547.774 1.05zm16.913-16.305c.719-.995.995-2.322 1.161-3.538.166-1.05.608-2.708-.276-3.537a.701.701 0 00-.995 0c-.774.718-.553 2.266-.608 3.261-.055 1.161-.277 2.377-.166 3.537 0 .553.553.664.884.277zm-20.671 4.09c-.276 1.492-.497 2.985-.608 4.477-.11.829 1.161.94 1.382.166.442-1.493 1.05-2.985 1.382-4.533.276-1.105.829-2.874-.221-3.703-.332-.276-.664-.276-.995 0-.94.774-.719 2.543-.94 3.593zm10.778-12.602c1.382-.995 1.824-2.653 2.045-4.201.221-1.603.498-4.256-.995-5.306-.386-.276-1.05-.055-1.271.332-.552 1.16-.055 2.874.055 4.09.111 1.382.222 3.15-.497 4.366-.332.442.221 1.05.663.719zm-23.988 14.426a38.757 38.757 0 002.211-4.256c.498-1.106 1.327-2.764.664-3.924-.166-.332-.553-.387-.885-.222-1.105.553-1.437 2.267-1.769 3.317a39.483 39.483 0 01-1.602 4.256c-.443.939.829 1.713 1.381.829zm9.12-7.738c.719-.608.995-1.658 1.271-2.543.332-1.05.664-2.376.387-3.482-.166-.663-1.05-.553-1.271 0-.332.94-.332 2.101-.442 3.095-.111.94-.387 1.824-.553 2.709 0 .331.442.387.608.221zm-7.738-3.372c.663-1.768 1.327-3.537 1.603-5.361.221-1.437.608-3.538-.497-4.698-.332-.332-.885-.277-1.106.166-.663 1.216-.276 2.929-.442 4.255-.166 1.769-.497 3.538-.94 5.307-.221.884 1.051 1.216 1.382.331zm-14.537 2.764c.719-1.05 1.271-2.101 1.769-3.261.387-.94.829-2.598-.166-3.317-.166-.11-.442-.055-.608.111-.663.608-.498 1.99-.663 2.819-.277 1.05-.774 2.1-1.327 3.04-.387.663.608 1.216.995.608zm3.704-13.487c.055 1.161 0 2.377-.056 3.538 0 .884 1.272.829 1.327 0 .111-1.382.276-2.764.221-4.146-.055-1.05-.221-2.542-1.271-2.984-.221-.111-.553.11-.608.331-.166.498.055.885.166 1.382.055.664.165 1.271.221 1.879zM240.8 318.81c2.211-1.437 4.035-4.035 4.091-6.743a.91.91 0 00-.498-.829c-1.382-.774-1.603 1.381-1.879 2.211-.498 1.547-1.327 3.205-2.487 4.421-.442.442.166 1.327.773.94zm6.246-10.17a.541.541 0 001.05.166c.829-2.045 1.934-6.578-.221-8.181-.277-.221-.719 0-.829.332-.332 1.05.055 2.377.11 3.482 0 1.437-.221 2.819-.11 4.201zm-11.552.331c.94-1.326 1.437-2.874 1.603-4.477.111-1.216.497-3.869-.884-4.532-.277-.111-.608-.111-.774.111-.774.939-.277 2.597-.277 3.703 0 1.547-.165 3.261-.773 4.698-.277.718.773.995 1.105.497zm-8.291-6.466c.719-1.161 1.05-2.488 1.161-3.814.11-1.161 0-3.151-1.106-3.814-.331-.166-.718-.055-.884.277-.498.884 0 1.989.11 2.874.166 1.326.166 2.653-.331 3.869-.277.774.663 1.326 1.05.608zm-6.356.055c.608-1.658 1.88-5.085.166-6.412-.331-.221-.774-.055-.995.277-.497.718-.276 1.769-.221 2.653.055 1.05-.11 2.1-.276 3.15-.111.829 1.05 1.161 1.326.332zm-14.702-10.281c.331.608.773 1.051 1.05 1.714.276.663.497 1.382.884 1.99.221.387.884.331.995-.111.276-1.603-.276-3.869-1.769-4.753-.774-.442-1.658.442-1.16 1.16zM307.9 373.971c-.332.277-.332.664-.442 1.051-.111.442-.332.884-.498 1.271-.387.774-1.05 1.437-1.658 2.1-.276.276.055.829.442.663.94-.387 1.658-1.105 2.211-1.989.442-.719 1.161-2.211.608-3.04-.166-.277-.442-.277-.663-.056zm-1.271 16.692c-.608.719-.774 1.769-1.327 2.543-.608.829-1.547 1.382-2.487 1.713-.719.221-.387 1.327.332 1.106 1.216-.387 2.21-.995 3.095-1.935.718-.774 1.547-2.155 1.16-3.206-.11-.386-.497-.497-.773-.221zm-27.746-77.712c.718-1.437 1.105-2.819 1.216-4.422.11-1.326.165-3.648-.94-4.587-.276-.221-.829-.277-.995.11-.497 1.106 0 2.432.111 3.648a15.644 15.644 0 01-.443 4.809c-.165.608.719 1.05 1.051.442zm-6.965-7.627c-.055.663 1.106.829 1.161.165.276-1.824.331-3.648.166-5.472-.166-1.437-.498-3.592-1.824-4.421-.387-.221-.774.055-.774.442-.166 1.326.663 2.874.939 4.145.332 1.714.443 3.427.332 5.141zm-11.496-3.151c.166 1.658.055 3.372-.221 4.975-.055.331.276.552.553.331 1.326-1.271 1.602-3.15 1.602-4.974 0-1.548 0-4.588-1.492-5.472-.276-.166-.774-.111-.94.221-.276.663-.165 1.271 0 1.934.222.995.387 1.99.498 2.985zm-19.014-2.764c.166 1.659.222 3.317.387 4.975a.553.553 0 001.106 0c.166-1.769.442-3.537.331-5.361-.055-1.327-.165-3.759-1.602-4.422-.332-.166-.719-.055-.83.331-.165.608 0 1.161.166 1.769.166.94.332 1.824.442 2.708zm51.348 33.606c1.05-.442 1.161-2.543 1.326-3.482.222-1.603.608-3.317-.11-4.809-.166-.387-.774-.332-.94 0-.663 1.326-.608 2.819-.774 4.256-.11.718-.221 1.437-.276 2.155-.055.498-.276 1.106 0 1.548.166.276.498.442.774.332zm16.25 10.612c1.106-1.106 1.548-2.93 1.769-4.422.221-1.547.442-3.482-.332-4.864-.221-.442-.829-.331-.995.111-.442 1.326-.165 2.763-.331 4.145-.166 1.548-.774 2.93-1.106 4.477-.11.553.608.995.995.553z" fill="#fff"/></svg>