<svg width="1920" height="777" fill="none" xmlns="http://www.w3.org/2000/svg"><path d="M580.069 134.738C418.035-9.93 124.806-9.872-1.554 8.24c-14.503 126.643 0 396.868 0 489.908 0 133.037 64.299 169.986 202.328 248.232 138.029 78.246 863.446-20.645 1184.756 0 243.55 15.65 451.81-130.863 527.32-180.419 75.52-49.556 105.02-201.266 0-279.513-105.02-78.246-307.78-151.71-634.63-65.639-68.26 17.975-495.608 94.764-698.151-86.071z" fill="#DFEEF1"/><path d="M79.174 501.785c-.566 3.956 5.463 5.087 7.158 1.884 3.391-6.405 4.522-13.564 8.478-19.593 1.507-2.26-1.696-4.333-3.58-2.637-6.028 4.898-10.926 12.622-12.056 20.346zm21.099 11.869c-.377-2.261-3.391-2.073-4.333-.565-3.956 6.217-11.303 12.999-9.043 21.099 1.13 3.957 6.782 4.71 8.666 1.131 1.884-3.391 2.638-7.348 3.956-11.115.942-3.58 1.319-6.782.754-10.55zm-38.432-20.158c.754.188 1.319.188 1.884 0 1.13-.377 2.26-1.319 2.638-2.637 1.695-6.783 3.58-12.623 8.1-18.086 1.508-1.884-.565-5.463-2.825-3.768-6.406 4.898-13 12.057-12.623 20.723.189 1.884 1.13 3.203 2.826 3.768zm6.782 25.621c-4.333 4.898-8.1 11.304-8.289 18.086 0 3.579 4.521 3.579 5.652.753 2.26-5.275 2.826-11.115 5.651-16.39 1.13-2.072-1.507-4.333-3.014-2.449zm38.621 34.852c.942-2.449 2.26-4.898 3.391-7.347.376-.753-.754-1.507-1.319-1.13-1.884 1.13-3.391 3.202-4.521 5.086-1.131 1.696-2.826 4.522-1.319 6.217 1.507 2.261 3.202-1.695 3.768-2.826zm-16.579-3.767c-5.275 6.029-10.173 12.999-10.738 21.288-.188 1.319.753 2.826 1.884 3.391.565.377 1.13.565 1.884.565 1.884-.188 3.202-1.13 3.768-2.826 2.26-6.782 3.956-13.564 6.593-20.346.754-1.884-2.072-3.579-3.39-2.072zm-3.202 60.097a164.762 164.762 0 00-3.957 13.752c-.942 3.956-2.26 8.101.565 11.492.942 1.13 2.826.942 3.768 0 2.826-2.637 2.26-6.971 2.638-10.55.565-4.521 1.507-8.854 2.449-13.376.377-3.202-4.333-4.709-5.463-1.318zM131.734 534a115.683 115.683 0 00-9.608 9.608c-2.449 2.826-6.782 7.159-5.275 11.115.377 1.131 1.508 1.884 2.826 1.507 3.391-.942 4.898-5.086 6.594-7.912 2.637-3.956 5.652-7.347 8.854-10.927 2.073-2.26-1.13-5.463-3.391-3.391zm-17.709 37.678c-3.014 4.898-5.84 10.173-7.724 15.637-1.13 3.391-4.709 10.926-.376 13.564 4.521 2.637 6.405-6.406 6.97-8.855 1.507-6.217 3.014-12.622 5.275-18.65.754-2.449-2.826-3.768-4.145-1.696zm14.695 66.313c-2.261 5.087-6.405 12.434-3.579 18.086 1.13 2.072 4.333 1.13 4.333-1.13 0-2.638-.189-5.275.188-7.913.377-2.826.753-5.463 1.319-8.101.188-1.318-1.696-2.26-2.261-.942zm33.533-54.821a36.997 36.997 0 00-9.042 10.362c-1.884 3.391-5.652 9.419-3.203 13.187.753 1.131 2.072 1.319 3.203.754 3.202-1.507 3.956-6.594 5.275-9.608 1.695-3.956 3.579-7.913 6.405-11.115 2.072-1.696-.377-5.275-2.638-3.58zm-57.647 55.575c-2.449 3.391-3.391 7.913-3.956 12.057-.565 3.58-2.072 9.231.942 12.057a2.388 2.388 0 003.391 0c2.637-2.449 1.884-7.724 2.072-11.115.189-3.956.942-8.101.565-12.057 0-1.884-1.884-2.26-3.014-.942zm70.458-13.941c.942-5.086 1.696-10.173 2.072-15.259.377-2.826-3.956-3.203-4.709-.565-1.507 5.086-3.58 10.173-4.71 15.448-.942 3.767-2.826 9.796.753 12.622 1.131.942 2.261.942 3.391 0 3.203-2.638 2.45-8.666 3.203-12.246zm-36.736 42.954c-4.71 3.391-6.217 9.042-6.971 14.317-.753 5.464-1.695 14.506 3.391 18.086 1.319.942 3.58.188 4.333-1.13 1.884-3.957.189-9.797-.188-13.941-.377-4.71-.754-10.739 1.695-14.883 1.131-1.507-.753-3.58-2.26-2.449zm81.761-49.17a131.869 131.869 0 00-7.535 14.506c-1.696 3.768-4.522 9.419-2.261 13.376.565 1.13 1.884 1.318 3.014.753 3.768-1.884 4.898-7.724 6.029-11.303 1.507-4.898 3.391-9.797 5.463-14.506 1.507-3.203-2.826-5.84-4.71-2.826zm-31.084 26.374c-2.449 2.072-3.391 5.652-4.333 8.666-1.13 3.58-2.261 8.101-1.319 11.869.566 2.26 3.58 1.884 4.333 0 1.131-3.203 1.131-7.159 1.507-10.55.377-3.203 1.319-6.217 1.884-9.231 0-1.131-1.507-1.319-2.072-.754zm26.375 11.492c-2.261 6.029-4.521 12.057-5.463 18.274-.754 4.898-2.073 12.057 1.695 16.013 1.131 1.131 3.014.942 3.768-.565 2.261-4.145.942-9.985 1.507-14.506.565-6.029 1.696-12.057 3.203-18.085.753-3.015-3.58-4.145-4.71-1.131zm49.547-9.419c-2.449 3.579-4.333 7.158-6.029 11.115-1.319 3.202-2.826 8.854.565 11.303.565.377 1.507.188 2.073-.377 2.26-2.072 1.695-6.782 2.26-9.608.942-3.579 2.638-7.158 4.522-10.361 1.318-2.261-2.073-4.145-3.391-2.072zm-12.623 45.967c-.188-3.956 0-8.101.189-12.057 0-3.014-4.333-2.826-4.522 0-.377 4.71-.942 9.419-.753 14.129.188 3.579.753 8.666 4.333 10.173.753.377 1.883-.377 2.072-1.13.565-1.696-.188-3.014-.565-4.71-.189-2.261-.565-4.333-.754-6.405zm45.967-46.721c-7.535 4.898-13.752 13.753-13.94 22.984 0 1.13.565 2.26 1.695 2.826 4.71 2.637 5.463-4.71 6.405-7.536 1.696-5.275 4.522-10.927 8.478-15.071 1.507-1.507-.565-4.522-2.638-3.203zm-21.287 34.664c-.189-2.073-2.826-2.449-3.58-.565-2.826 6.97-6.593 22.418.754 27.881.942.754 2.449 0 2.826-1.13 1.13-3.579-.189-8.101-.377-11.868 0-4.899.753-9.608.377-14.318zm39.373-1.13c-3.203 4.521-4.898 9.796-5.463 15.259-.377 4.145-1.696 13.188 3.014 15.449.942.376 2.072.376 2.638-.377 2.637-3.203.941-8.855.941-12.622 0-5.275.566-11.116 2.638-16.014.942-2.449-2.638-3.391-3.768-1.695zm28.259 22.041c-2.449 3.956-3.58 8.478-3.956 12.999-.377 3.956 0 10.738 3.767 12.999 1.131.565 2.449.189 3.015-.942 1.695-3.014 0-6.782-.377-9.796-.565-4.522-.565-9.043 1.13-13.187.942-2.638-2.261-4.522-3.579-2.073zm21.665-.188c-2.073 5.651-6.406 17.332-.565 21.853 1.13.754 2.637.188 3.391-.942 1.695-2.449.942-6.029.753-9.043-.188-3.579.377-7.159.942-10.738.377-2.826-3.579-3.956-4.521-1.13zm50.112 35.04c-1.131-2.072-2.638-3.579-3.58-5.84-.942-2.26-1.695-4.709-3.014-6.782-.753-1.319-3.014-1.13-3.391.377-.942 5.463.942 13.187 6.029 16.202 2.637 1.507 5.651-1.507 3.956-3.957zM69.565 458.267c1.13-.942 1.13-2.261 1.507-3.58.377-1.507 1.13-3.014 1.696-4.333 1.319-2.637 3.58-4.898 5.652-7.158.942-.942-.189-2.826-1.508-2.261-3.202 1.319-5.651 3.768-7.535 6.782-1.507 2.449-3.956 7.536-2.072 10.361.565.942 1.507.942 2.26.189zm4.334-56.894c2.072-2.449 2.637-6.029 4.52-8.666 2.073-2.826 5.276-4.71 8.478-5.84 2.45-.754 1.32-4.521-1.13-3.768-4.144 1.319-7.535 3.391-10.55 6.594-2.449 2.637-5.275 7.347-3.956 10.926.377 1.319 1.696 1.696 2.638.754zM168.47 666.25c-2.449 4.899-3.768 9.608-4.144 15.072-.377 4.521-.566 12.433 3.202 15.636.942.754 2.826.942 3.391-.377 1.696-3.768 0-8.289-.377-12.433-.376-5.464.189-11.116 1.508-16.39.565-2.073-2.449-3.58-3.58-1.508zm23.737 25.998c.189-2.261-3.767-2.826-3.956-.565a77.331 77.331 0 00-.565 18.651c.565 4.898 1.696 12.245 6.217 15.071 1.319.753 2.637-.189 2.637-1.507.566-4.522-2.26-9.797-3.202-14.13a68.6 68.6 0 01-1.131-17.52zm39.186 10.738c-.565-5.651-.188-11.491.754-16.955.188-1.13-.942-1.884-1.884-1.13-4.522 4.333-5.464 10.738-5.464 16.955 0 5.275 0 15.637 5.087 18.651.942.565 2.637.377 3.202-.754.942-2.26.566-4.333 0-6.593a95.679 95.679 0 01-1.695-10.174zm64.806 9.42c-.565-5.651-.753-11.303-1.318-16.955-.189-2.449-3.58-2.449-3.768 0-.565 6.029-1.507 12.057-1.13 18.274.188 4.521.565 12.811 5.463 15.071 1.13.565 2.449.189 2.826-1.13.565-2.072 0-3.956-.565-6.029-.566-3.202-1.131-6.217-1.508-9.231zM121.184 597.865c-3.579 1.507-3.956 8.666-4.521 11.868-.754 5.464-2.072 11.304.377 16.39.565 1.319 2.637 1.131 3.202 0 2.261-4.521 2.073-9.607 2.638-14.506.377-2.449.754-4.898.942-7.347.188-1.695.942-3.768 0-5.275-.565-.942-1.696-1.507-2.638-1.13zm-55.386-36.171c-3.768 3.768-5.275 9.984-6.029 15.071-.753 5.275-1.507 11.869 1.13 16.578.754 1.508 2.826 1.131 3.391-.376 1.508-4.522.566-9.42 1.13-14.13.566-5.275 2.638-9.984 3.769-15.259.376-1.884-2.073-3.391-3.391-1.884zM1871.55 415.819c.45-3.205-4.43-4.12-5.8-1.526-2.75 5.188-3.66 10.987-6.87 15.87-1.22 1.831 1.37 3.51 2.9 2.136 4.88-3.967 8.85-10.224 9.77-16.48zm-17.1-9.614c.31 1.831 2.75 1.679 3.51.458 3.21-5.036 9.16-10.529 7.33-17.091-.92-3.204-5.49-3.815-7.02-.915-1.53 2.746-2.14 5.951-3.2 9.003-.77 2.899-1.07 5.493-.62 8.545zm31.13 16.328c-.61-.153-1.06-.153-1.52 0-.92.305-1.83 1.068-2.14 2.136-1.37 5.494-2.9 10.224-6.56 14.65-1.22 1.525.46 4.425 2.29 3.051 5.19-3.967 10.53-9.766 10.22-16.785-.15-1.526-.91-2.594-2.29-3.052zm-5.49-20.753c3.51-3.968 6.56-9.156 6.71-14.649 0-2.9-3.66-2.9-4.57-.611-1.83 4.273-2.29 9.003-4.58 13.276-.92 1.679 1.22 3.51 2.44 1.984zm-31.28-28.23c-.76 1.984-1.83 3.967-2.75 5.951-.3.61.61 1.221 1.07.916 1.53-.916 2.75-2.594 3.66-4.12.92-1.374 2.29-3.663 1.07-5.036-1.22-1.831-2.59 1.373-3.05 2.289zm13.43 3.051c4.27-4.883 8.24-10.529 8.7-17.243.15-1.068-.61-2.289-1.53-2.747a2.597 2.597 0 00-1.53-.457c-1.52.152-2.59.915-3.05 2.289-1.83 5.493-3.2 10.986-5.34 16.48-.61 1.526 1.68 2.899 2.75 1.678zm2.59-48.678c1.22-3.662 2.29-7.324 3.21-11.139.76-3.205 1.83-6.562-.46-9.308-.77-.916-2.29-.763-3.05 0-2.29 2.136-1.84 5.646-2.14 8.545-.46 3.662-1.22 7.172-1.98 10.834-.31 2.594 3.51 3.815 4.42 1.068zm-35.86 61.802a92.909 92.909 0 007.78-7.783c1.99-2.289 5.5-5.798 4.28-9.003-.31-.915-1.22-1.526-2.29-1.221-2.75.763-3.97 4.12-5.34 6.409-2.14 3.205-4.58 5.952-7.18 8.851-1.67 1.831.92 4.425 2.75 2.747zm14.35-30.519c2.44-3.968 4.73-8.24 6.25-12.666.92-2.746 3.82-8.85.31-10.987-3.67-2.136-5.19 5.189-5.65 7.172-1.22 5.036-2.44 10.224-4.27 15.107-.61 1.984 2.29 3.052 3.36 1.374zm-11.91-53.714c1.83-4.12 5.19-10.071 2.9-14.649-.91-1.678-3.51-.916-3.51.916 0 2.136.16 4.272-.15 6.409-.31 2.289-.61 4.425-1.07 6.561-.15 1.068 1.38 1.831 1.83.763zm-27.16 44.405a30.062 30.062 0 007.33-8.393c1.52-2.746 4.57-7.629 2.59-10.681-.61-.916-1.68-1.068-2.59-.611-2.6 1.221-3.21 5.341-4.28 7.783-1.37 3.204-2.9 6.409-5.19 9.003-1.67 1.373.31 4.273 2.14 2.899zm46.7-45.015c1.98-2.747 2.74-6.409 3.2-9.767.46-2.899 1.68-7.477-.76-9.766a1.938 1.938 0 00-2.75 0c-2.14 1.984-1.53 6.257-1.68 9.003-.15 3.205-.76 6.562-.46 9.767 0 1.526 1.53 1.831 2.45.763zm-57.08 11.292c-.76 4.12-1.37 8.24-1.67 12.36-.31 2.289 3.2 2.594 3.81.458 1.22-4.12 2.9-8.24 3.82-12.513.76-3.052 2.28-7.935-.61-10.224-.92-.763-1.84-.763-2.75 0-2.6 2.136-1.99 7.019-2.6 9.919zm29.76-34.792c3.82-2.747 5.04-7.325 5.65-11.598.61-4.425 1.37-11.749-2.75-14.649-1.07-.763-2.9-.152-3.51.916-1.53 3.204-.15 7.935.15 11.292.31 3.815.61 8.698-1.37 12.055-.92 1.221.61 2.899 1.83 1.984zm-66.23 39.827c2.29-3.815 4.28-7.63 6.11-11.75 1.37-3.052 3.66-7.629 1.83-10.834-.46-.916-1.53-1.068-2.44-.61-3.05 1.526-3.97 6.256-4.89 9.155-1.22 3.968-2.74 7.935-4.42 11.75-1.22 2.594 2.29 4.731 3.81 2.289zm25.18-21.363c1.99-1.679 2.75-4.578 3.51-7.019.92-2.9 1.83-6.562 1.07-9.614-.46-1.831-2.9-1.526-3.51 0-.92 2.594-.92 5.799-1.22 8.545-.31 2.595-1.07 5.036-1.53 7.478 0 .915 1.22 1.068 1.68.61zm-21.36-9.308c1.83-4.883 3.66-9.767 4.42-14.802.61-3.968 1.68-9.766-1.37-12.971-.92-.915-2.44-.763-3.05.458-1.83 3.357-.76 8.088-1.22 11.75-.46 4.883-1.38 9.766-2.6 14.649-.61 2.441 2.9 3.357 3.82.916zm-40.13 7.629c1.98-2.899 3.51-5.798 4.88-9.003 1.07-2.594 2.29-7.172-.46-9.156-.46-.305-1.22-.152-1.68.306-1.83 1.678-1.37 5.493-1.83 7.782-.76 2.899-2.13 5.799-3.66 8.393-1.07 1.831 1.68 3.357 2.75 1.678zm10.22-37.233c.15 3.205 0 6.562-.15 9.766 0 2.442 3.51 2.289 3.66 0 .31-3.815.76-7.629.61-11.444-.15-2.9-.61-7.02-3.51-8.241-.61-.305-1.53.306-1.68.916-.46 1.373.15 2.442.46 3.815.15 1.831.46 3.51.61 5.188zm-37.23 37.844c6.1-3.968 11.14-11.14 11.29-18.617 0-.916-.46-1.831-1.37-2.289-3.82-2.136-4.43 3.815-5.19 6.104-1.38 4.273-3.66 8.85-6.87 12.208-1.22 1.22.46 3.662 2.14 2.594zm17.24-28.078c.15 1.679 2.29 1.984 2.9.458 2.29-5.646 5.34-18.159-.61-22.584-.76-.61-1.98 0-2.29.916-.92 2.899.15 6.561.31 9.613 0 3.968-.62 7.783-.31 11.597zm-31.89.916c2.59-3.663 3.97-7.935 4.42-12.361.31-3.357 1.38-10.681-2.44-12.513-.76-.305-1.68-.305-2.13.306-2.14 2.594-.77 7.172-.77 10.224 0 4.272-.46 9.003-2.13 12.97-.77 1.984 2.13 2.747 3.05 1.374zm-22.89-17.854c1.98-3.204 2.9-6.866 3.2-10.529.31-3.204 0-8.698-3.05-10.529-.91-.458-1.98-.153-2.44.763-1.37 2.442 0 5.494.3 7.935.46 3.662.46 7.325-.91 10.682-.76 2.136 1.83 3.662 2.9 1.678zm-17.55.153c1.68-4.578 5.19-14.039.46-17.701-.92-.611-2.14-.153-2.75.763-1.37 1.983-.76 4.883-.61 7.324.15 2.9-.3 5.799-.76 8.698-.31 2.289 2.9 3.205 3.66.916zm-40.59-28.383c.91 1.679 2.14 2.899 2.9 4.73.76 1.832 1.37 3.815 2.44 5.494.61 1.068 2.44.915 2.75-.305.76-4.426-.77-10.682-4.89-13.123-2.13-1.221-4.57 1.22-3.2 3.204zm280.93 225.537c-.92.762-.92 1.831-1.22 2.899-.31 1.221-.92 2.441-1.38 3.509-1.06 2.137-2.9 3.968-4.57 5.799-.77.763.15 2.289 1.22 1.831 2.59-1.068 4.57-3.052 6.1-5.493 1.22-1.984 3.21-6.104 1.68-8.393-.46-.763-1.22-.763-1.83-.152zm-3.51 46.083c-1.68 1.984-2.14 4.883-3.66 7.02-1.68 2.289-4.28 3.814-6.87 4.73-1.98.61-1.07 3.662.91 3.052 3.36-1.068 6.11-2.747 8.55-5.341 1.98-2.136 4.27-5.951 3.2-8.85-.3-1.069-1.37-1.374-2.13-.611zm-76.6-214.549c1.98-3.968 3.05-7.783 3.35-12.208.31-3.662.46-10.071-2.59-12.665-.76-.611-2.29-.763-2.75.305-1.37 3.052 0 6.714.31 10.071.3 4.425-.16 9.003-1.22 13.276-.46 1.678 1.98 2.899 2.9 1.221zm-19.23-21.058c-.15 1.831 3.05 2.289 3.2.457.77-5.035.92-10.071.46-15.107-.46-3.967-1.37-9.918-5.03-12.207-1.07-.611-2.14.153-2.14 1.221-.46 3.662 1.83 7.935 2.59 11.444.92 4.731 1.22 9.461.92 14.192zm-31.74-8.698c.46 4.577.15 9.308-.61 13.733-.15.916.76 1.526 1.52.916 3.67-3.51 4.43-8.698 4.43-13.734 0-4.273 0-12.665-4.12-15.107-.76-.458-2.14-.305-2.6.611-.76 1.831-.45 3.509 0 5.34a76.175 76.175 0 011.38 8.241zm-52.49-7.63c.45 4.578.61 9.155 1.06 13.733.16 1.984 2.9 1.984 3.06 0 .45-4.883 1.22-9.766.91-14.801-.15-3.663-.46-10.377-4.42-12.208-.92-.458-1.99-.153-2.29.915-.46 1.679 0 3.205.45 4.883.46 2.595.92 5.036 1.23 7.478zm141.76 92.778c2.9-1.221 3.2-7.02 3.66-9.614.61-4.425 1.68-9.156-.31-13.276-.45-1.068-2.13-.915-2.59 0-1.83 3.663-1.68 7.783-2.14 11.75-.3 1.984-.61 3.968-.76 5.952-.15 1.373-.76 3.051 0 4.272.46.763 1.37 1.221 2.14.916zm44.86 29.298c3.05-3.052 4.27-8.087 4.88-12.207.61-4.273 1.22-9.614-.91-13.429-.61-1.221-2.29-.915-2.75.305-1.22 3.663-.46 7.63-.91 11.445-.46 4.273-2.14 8.088-3.06 12.36-.3 1.526 1.68 2.747 2.75 1.526z" fill="#fff"/></svg>