<svg width="826" height="481" fill="none" xmlns="http://www.w3.org/2000/svg"><path d="M822.801 453.578c-53.237-1.378-106.565-.162-159.711 2.271-53.51 2.513-106.747 8.108-160.348 7.54-51.323-.567-102.554-3.486-153.968-1.946-50.958 1.541-101.916 5.352-152.873 5.352-30.994 0-62.08-1.135-93.074-1.541-33.637-.405-67.184-1.216-100.64-4.135-2.916-.243-2.916 3.811 0 4.054 59.163 5.19 118.781 4.136 178.125 5.514 50.867 1.135 101.734-2.595 152.509-4.622 51.232-2.027 102.281-.081 153.512 1.135 25.98.649 51.961.487 77.941-1.054 26.892-1.54 53.784-3.892 80.767-5.351 59.162-3.162 118.506-4.703 177.851-3.244 2.826.163 2.826-3.892-.091-3.973zm1-439.493c-53.237-1.378-106.565-.162-159.711 2.27-53.51 2.514-106.747 8.109-160.348 7.541-51.323-.567-102.554-3.486-153.968-1.946-50.958 1.541-101.916 5.352-152.873 5.352-30.994 0-62.08-1.135-93.074-1.54-33.637-.406-67.184-1.217-100.64-4.136-2.916-.243-2.916 3.811 0 4.054 59.163 5.19 118.781 4.136 178.125 5.514 50.867 1.135 101.734-2.595 152.509-4.622 51.232-2.027 102.281-.08 153.512 1.135 25.98.65 51.961.487 77.941-1.054 26.892-1.54 53.784-3.892 80.767-5.351 59.162-3.162 118.506-4.703 177.851-3.244 2.826.163 2.826-3.892-.091-3.973z" fill="#FFCE33"/><path d="M17.577 1.658c-2.251 41.922-1.428 83.912-.714 125.902.384 21.816-.604 43.358-1.867 65.105-1.262 21.542-2.25 43.221-.768 64.763.659 9.301 1.812 18.534 2.525 27.834.66 9.233 1.098 18.533 1.483 27.766.713 18.67 1.043 37.339 1.811 56.009.77 18.602 1.044 37.272 1.922 55.873a830.864 830.864 0 004.447 54.847c.22 2.188 2.91 1.231 2.636-.889-2.526-22.295-4.063-44.657-4.887-67.088-.439-11.079-.384-22.158-.933-33.237-.604-11.147-.933-22.363-1.263-33.51-.659-22.157-1.153-44.247-2.965-66.336-.933-11.01-2.196-21.952-2.58-33.031-.384-10.805-.11-21.611.33-32.416.713-17.576 2.086-35.151 2.744-52.727.714-18.328.11-36.587-.22-54.915-.603-34.673-.713-69.277 1.099-103.881.055-2.325-2.69-2.257-2.8-.069zm789.676 0c-2.251 41.922-1.428 83.912-.714 125.902.384 21.816-.604 43.358-1.867 65.105-1.263 21.542-2.251 43.221-.768 64.763.658 9.301 1.811 18.534 2.525 27.834.659 9.233 1.098 18.533 1.483 27.766.713 18.67 1.043 37.339 1.811 56.009.769 18.602 1.043 37.272 1.922 55.873a830.864 830.864 0 004.447 54.847c.22 2.188 2.91 1.231 2.636-.889-2.526-22.295-4.063-44.657-4.887-67.088-.439-11.079-.384-22.158-.933-33.237-.604-11.147-.934-22.363-1.263-33.51-.659-22.157-1.153-44.247-2.965-66.336-.933-11.01-2.196-21.952-2.58-33.031-.385-10.805-.11-21.611.329-32.416.714-17.576 2.086-35.151 2.745-52.727.714-18.328.11-36.587-.219-54.915-.604-34.673-.714-69.277 1.098-103.881.055-2.325-2.691-2.257-2.8-.069z" fill="#FFCE33"/><path d="M757.385 306.208c2.15-1.434 3.193-5.083 2.802-7.299-.456-2.412-2.346-5.018-4.692-5.931.716-.586 1.368-1.433 1.759-2.15.978-1.76 1.238-3.91.587-5.8-.847-2.412-3.324-4.106-5.866-4.367 1.89-2.281 2.412-5.474.457-8.146-1.63-2.216-4.367-2.867-6.778-2.151 1.369-3.062.847-6.777-1.76-9.319-2.672-2.607-5.735-1.434-8.146.717.065-.521.065-1.043.065-1.434-.065-2.411-1.499-4.431-3.779-5.344-2.412-.912-4.758-.26-6.517 1.173.065-1.433-.196-2.867-.978-4.236-1.173-2.02-3.258-3.193-5.605-2.867-5.8.782-7.103 7.625-5.93 12.382.196.847 1.564.652 1.564-.26-.195-3.52-.586-8.081 3.389-9.776 2.085-.847 4.04 0 4.888 2.086.912 2.15.195 4.431-.457 6.582-.195.586.066.977.457 1.173 0 .195-.066.391-.066.651 0 .848 1.304.978 1.499.131.652-3.194 3.194-6.648 6.908-5.018 3.063 1.303 2.607 6.256.782 8.407-.391.391-.391 1.042 0 1.498l.066.066c.325.325 1.042.456 1.433.13.522-.391.913-1.043 1.238-1.825 2.086-2.346 5.41-5.279 7.821-2.216 2.15 2.672 1.629 6.257-.782 8.538-.847.782 0 1.955.912 1.89.261.13.652.195.978-.131 2.02-1.955 5.604-1.955 7.038.652 1.694 2.998-.521 5.083-2.672 6.778-.326.26-.456.651-.456.977-.326.587.13 1.434.912 1.173 2.672-.912 6.257-.26 7.169 2.868.391 1.303.13 2.737-.587 3.91-.782 1.238-2.085 1.564-2.867 2.607-.13.195-.196.391-.196.586-.13.065-.195.065-.325.13-.913.457-.196 1.63.651 1.499 2.998-.521 5.475 2.477 5.54 5.344 0 1.304-.391 2.607-1.369 3.519-.717.652-1.694.782-2.476 1.304-.131.065-.196.195-.261.326h-.13c-.978-.065-1.108 1.499-.131 1.694 2.542.456 4.888 2.216 5.214 4.953.391 2.802-1.303 4.823-3.584 6.126-1.043.586-.261 2.411.912 2.02 6.647-2.346 6.256-10.622 1.369-13.62zm26.458 110.267c-1.238-2.021-3.584-2.933-5.669-2.542 1.108-2.867 1.433-5.995-.456-8.733-1.76-2.476-4.106-2.867-6.517-2.215.325-1.043.521-2.086.586-2.998.196-2.086-.456-4.236-2.02-5.67-1.955-1.694-4.301-1.955-6.517-1.368 1.955-3.259 2.802-7.625.326-9.906-3.65-3.389-10.362-2.412-13.295 1.433-.521.652.261 1.89 1.043 1.239 2.802-2.216 7.234-4.041 10.492-1.304 3.389 2.868-1.759 8.081-3.063 10.753-.065.131-.065.326-.065.456l-.261.261c-.651.652.261 1.825 1.043 1.238 2.476-1.955 6.582-3.779 9.124-.847 2.411 2.802-.261 5.474-.522 8.342-.065.195-.065.391 0 .521 0 .652.848 1.108 1.369.717.196-.13.391-.326.587-.521 2.802-1.108 5.734-.847 6.712 2.672.717 2.802-.717 5.604-2.02 8.016-.782 1.368 1.433 2.476 2.15 1.107.131-.26.326-.521.456-.847 2.086-1.564 4.823.131 5.41 2.607.586 2.672-1.043 4.432-2.672 6.256-.848.913.325 2.086 1.303 1.63 3.454-1.499 4.497-7.039 2.476-10.297zm16.293 1.173c-.522-1.043-2.151-1.434-3.259-1.434a3.853 3.853 0 00-3.063 1.238c-1.108 1.173-1.368 2.737-1.173 4.302-1.173-.782-2.737-.913-4.106-.391-2.476 1.042-3.519 4.366-2.737 6.842.261.848 1.434.587 1.499-.26.131-1.564.131-3.585 1.695-4.562 1.042-.652 2.737-.326 3.063.977.195.913 1.238.978 1.824.522.457.26 1.239-.065 1.173-.717-.195-1.629-.977-3.519.066-5.018 1.238-1.955 2.802 0 4.366-.196a.871.871 0 00.652-1.303z" fill="#444138"/><path d="M744.416 454.403c-1.369 3.324-3.52 5.866-6.192 7.756a139.6 139.6 0 01-12.773.586c-3.714 0-8.211-.586-10.948-3.323-11.405-1.239-20.985-10.297-24.7-21.05-4.301-12.448-1.498-26.133 4.041-37.668.261-.522.521-1.108.782-1.63a38.815 38.815 0 014.888-3.128c7.429-4.105 15.771-4.496 23.526-.912 13.946 6.452 21.245 23.005 23.135 37.472.978 7.104 1.043 15.055-1.759 21.897zm55.394-38.189c-4.171 8.733-14.337 12.513-21.962 13.425-.978.13-1.564.717-1.89 1.434-.391.456-.587 1.108-.456 1.89.586 3.128.716 6.256.26 9.384-.26 1.629 1.043 2.607 2.281 2.607.326.456.913.782 1.76.652 12.447-2.151 19.029-14.468 22.288-25.547.195-.521.326-1.108.456-1.629.652-3.063-1.499-4.823-2.737-2.216z" fill="#F7AB51"/><path d="M774.133 452.188c-.521.26-10.492 8.798-31.021 9.449-1.629.065-3.258.391-4.953.522a139.6 139.6 0 01-12.773.586c-3.714 0-31.868-13.62-35.582-24.373-4.302-12.448-1.499-26.133 4.04-37.668.261-.522.521-1.108.782-1.629 5.865-11.47 14.272-21.311 21.897-31.608 7.886-10.622 15.315-22.548 16.944-35.973.782-6.778-.065-13.882-1.499-20.529-.586-2.867-1.368-5.735-2.606-8.407-.196-.456-.457-.912-.652-1.368v-.065a49.493 49.493 0 01-1.629 2.28 48.884 48.884 0 01-12.187 11.275c-5.018 3.258-11.144 6.256-17.27 5.995-11.6-.521-17.987-12.512-16.944-23.07 1.173-11.469 8.211-22.939 16.944-30.303 8.472-7.104 19.421-10.037 30.043-6.257 24.765 8.798 28.675 38.646 28.219 61.325-.131 7.038-.782 14.011-1.89 20.984-1.108 6.778-2.542 13.556-3.389 20.399-.587 4.952-.847 10.036-.391 14.923 1.89 5.149 4.888 9.906 8.211 14.403 4.562 4.888 9.711 9.189 13.881 14.468 1.369 1.694 9.45 10.948 10.884 24.96.977 7.755-1.564 16.162-9.059 19.681z" fill="#FCD149"/><path d="M744.416 454.403c-1.369 3.324-3.519 5.866-6.191 7.756-4.236.391-8.537.847-12.774.586-20.919-1.499-31.867-13.62-35.582-24.373-4.301-12.448-1.499-26.133 4.04-37.668.261-.522.522-1.108.782-1.63a38.887 38.887 0 014.888-3.128c7.429-4.105 15.771-4.496 23.526-.912 13.947 6.452 21.246 23.005 23.136 37.472.912 7.104.977 15.055-1.825 21.897z" fill="#F7AB51"/><path d="M744.416 454.403c-1.369 3.324-3.519 5.866-6.191 7.756-4.236.391-8.537.847-12.773.586-3.715-.26-7.104-.847-10.167-1.759-7.494-2.086-13.294-5.735-17.465-10.036-1.695-1.695-3.128-3.52-4.367-5.41-.26-.716-.456-1.433-.716-2.085.065-.261.065-.587-.131-.847-1.629-2.998-2.802-5.996-3.519-9.319.978-.782.13-2.347-.912-1.89-1.499-10.428 1.173-21.246 5.735-30.63.26-.521.521-1.108.782-1.629a38.764 38.764 0 014.887-3.128c7.43-4.106 15.771-4.497 23.527-.913 13.946 6.452 21.245 23.005 23.135 37.473.912 7.038.977 14.989-1.825 21.831z" fill="#F7AB51"/><path d="M696.777 395.229c.195.131.325.326.456.391.326.326.717.652 1.042 1.043 1.108 1.043 2.281 2.086 3.52 2.998 3.584 2.737 7.624 4.366 12.186 4.432 4.236.065 8.798-.587 12.839-1.76 1.564-.456 3.063-.978 4.431-1.76.065-.065.196-.13.261-.195 1.629-.978 2.542-2.346 3.91-3.715.521-.521 1.369-.26 1.173.522-.456 1.955-2.085 3.519-3.91 4.692-1.76 1.108-3.845 1.89-5.474 2.346-4.758 1.368-10.167 2.281-15.185 1.955-5.148-.326-9.71-2.802-13.555-6.061-.847-.717-1.629-1.434-2.411-2.15l-.587-.587 1.304-2.151z" fill="#FCD149"/><path d="M690.39 409.436c4.432 5.735 11.209 9.711 18.313 10.819 6.256.977 13.36-.066 19.29-2.151 4.301-1.499 8.342-4.171 10.753-8.016a14.61 14.61 0 001.564-3.389c.326-1.108-1.173-1.108-1.499-.195a11.575 11.575 0 01-.977 2.02c-2.607 4.432-7.43 7.038-12.448 8.277-5.539 1.433-11.6 2.215-17.27 1.042-6.973-1.433-12.708-5.669-16.683-11.339l-1.043 2.932z" fill="#FCD149"/><path d="M687.784 427.554c2.02 2.02 4.171 3.845 6.321 5.539 4.236 3.324 8.994 5.539 14.337 6.256 10.167 1.304 21.246-2.215 29.522-8.081 2.607-1.824 4.953-4.04 6.713-6.647a17.457 17.457 0 002.541-5.605c.261-1.107-1.238-1.107-1.499-.195-.391 1.303-.977 2.542-1.629 3.649-2.281 3.845-5.8 6.713-9.71 8.929-5.344 3.063-11.47 5.148-17.596 5.735-6.321.651-12.643-.522-18.052-3.911-4.171-2.606-7.494-6.191-10.883-9.645l-.065 3.976zm6.647 19.551h.065c1.955.912 3.845 1.759 5.735 2.541 2.541 1.043 5.213 1.89 8.016 2.411 5.148.848 10.557.717 15.64-.456 9.32-2.281 17.075-8.081 22.614-15.706.326-.456.652-.977.978-1.433.586-.848 1.89-.391 1.368.586-.651 1.173-1.368 2.346-2.215 3.454-5.344 7.364-13.556 12.773-22.223 15.119a40.948 40.948 0 01-16.879.783c-.131 0-.196-.066-.326-.066-2.802-.521-5.735-1.238-8.472-2.411 0 0-.065 0-.065-.065l-4.236-4.757z" fill="#FCD149"/><path d="M706.683 277.729c-.587.912-1.173 1.824-2.021 2.606-.651.587-2.802 2.151-3.519.978-.456-.717-.195-2.216.065-2.933.326-1.108.978-2.02 1.89-2.802.587-.456-.26-1.499-.847-1.043-1.238.978-2.151 2.281-2.542 3.911-.325 1.238-.456 3.323.587 4.301 1.043.977 2.933.326 4.04-.261 1.63-.912 2.803-2.476 3.78-4.04.587-.783-.912-1.565-1.433-.717zm10.883 7.168c-.978 1.369-1.695 3.911-3.845 3.78-2.737-.195-1.304-4.627-.652-6.061.326-.782-.717-1.368-1.173-.651-1.368 2.085-2.346 6.843.717 8.081 2.933 1.108 5.605-1.89 6.256-4.497.131-.652-.847-1.238-1.303-.652zm-17.726 5.409c-.065-.065-.131-.13-.261-.13h-.261c-.586 0-1.107.456-1.173 1.043v.065c-.065.391-.065.782.131 1.108.13.326.717.456.977.195.587-.456.913-1.108.913-1.824-.065-.196-.196-.391-.326-.457zm3.193 2.346c-.13 0-.26.066-.391.131-.13.065-.195.065-.326.195-.586.522-.912 1.239-.847 2.021 0 .521.587.847 1.043.586.847-.456 1.303-1.303 1.368-2.281.066-.521-.456-.717-.847-.652zm-2.997 21.05c.26-.326.391-.717.456-1.173 0-.391-.456-.847-.848-.782-1.368.196-2.215 1.434-3.714 1.564-2.086.131-3.519-1.303-4.301-3.063-.457-1.042-1.89-.586-1.695.522.391 2.15 2.086 3.845 4.171 4.431.456.196.978.326 1.499.391 1.564.131 3.715-.456 4.432-1.89zm49.268 83.874c-4.953-2.086-7.756 5.278-10.297 8.016-3.845 4.105-10.753 8.341-16.684 7.103.978-2.151 1.825-4.953.326-6.582-.391-.456-.847-.587-1.238-.587.065-1.368-.326-2.606-1.499-3.063-.717-.26-1.368-.13-1.89.261-.261-1.173-.847-2.151-1.89-2.542-2.802-.912-3.649 2.607-3.845 4.562-.651 6.322 2.542 12.643 7.56 16.423l.391.196c5.018 2.085 11.209.782 16.097-1.173 4.953-2.021 9.254-5.279 12.121-9.776 1.76-2.867 5.67-10.818.848-12.838z" fill="#444138"/><path d="M712.222 406.308c-.261-1.564-.456-4.04-1.825-5.083-.912-.717-2.215-.456-2.737.652-.326.651-.391 1.368-.26 2.15-.587-.26-1.369-.195-1.695.457-.195.521-.391.977-.521 1.498-.196-.13-.456-.26-.717-.391-.978-.521-1.955.457-1.694 1.434.391 1.629 1.694 2.933 1.955 4.497.26 1.434-.652 2.346-2.086 1.499-.977-.587-1.629-1.955-2.02-3.063-1.303-3.194-1.499-6.843-3.128-9.906-1.369-2.737-4.432-3.845-6.908-1.629-2.216 1.955-2.933 5.539-2.868 8.341.131 6.517 4.627 12.122 10.949 13.751 2.998.782 6.386.717 9.189-.651 2.998-1.434 4.301-4.236 4.562-7.365.26-2.085.13-4.17-.196-6.191zm-17.205-5.865c0 .065.066.065.066.13a9.68 9.68 0 011.107 2.346 14.331 14.331 0 00-1.173-2.476zm74.424 38.841c-2.281-1.238-5.67-.651-7.56 1.043-2.281 2.085-1.955 5.279-2.085 8.081-.131 2.085-.652 4.106-1.76 5.8-.065.065-.13.065-.195.196-2.086 2.085-5.019 1.694-7.69 1.368-2.412-.326-4.823-.456-7.299-.326-4.823.261-9.646 1.434-14.012 3.454-4.236 1.89-8.993 4.627-11.079 8.994-1.629 3.519-1.89 9.058 1.173 11.991 1.434 1.368 2.737 1.629 4.041 0 .456-.587.521-1.108.586-1.825.913.391 1.955 1.108 2.998.587 1.238-.652 1.303-1.955 1.173-2.998 1.173 0 1.825-.196 2.411-1.173 1.239-2.216-.065-4.432-1.824-5.996 4.822-5.409 12.838-6.061 18.638-5.995 3.976.065 7.755.782 11.6 1.564 2.672.521 5.67.782 8.081-.717 2.347-1.499 3.389-4.301 4.106-6.908.912-3.389 1.499-7.038 1.564-10.558.065-2.541-.521-5.344-2.867-6.582z" fill="#444138"/><path d="M715.089 477.083c-1.433.391-2.802-1.108-3.193-1.89-.13.326-.195.717-.326 1.042-.391 1.043-.912 2.412-2.346 2.151-1.108-.196-1.499-1.434-1.694-2.411-.391.391-.913.651-1.499.651-2.281-.065-2.607-2.672-1.825-4.301.652-1.368 1.173-2.411.847-3.975-.26-1.369-1.042-2.607-2.02-3.584-1.89-1.825-4.497-2.738-6.973-3.52-4.627-1.433-8.863-2.997-11.926-6.973-5.409-7.103-3.845-17.921 3.78-22.809.065-.065.13-.065.195-.131.326 2.347.913 4.693 1.695 6.974.847 2.346 2.02 4.822 3.584 7.168.391 1.239 2.607 3.715 4.366 5.409.587.587 1.499.652 2.216.913 3.584 1.173 7.495 1.564 10.623 3.845a15.808 15.808 0 014.627 5.344c2.607 4.887 2.932 15.249-.131 16.097z" fill="#444138"/><path d="M749.173 298.713c.065-.586 0-1.173-.065-1.629-.456-2.02-2.998-5.344-4.953-2.737-.065.065-.065.13-.13.195-.131.065-.261.131-.326.196-.913.652-.652 1.955-.391 2.932.065 1.63.651 3.259 1.694 4.171.913.717 2.346.848 3.324.065.847-.716.977-2.02.847-3.193zm-10.036-19.811c-1.825-.131-2.151 1.955-1.564 3.323.065.652.261 1.239.521 1.76.457.717 1.173 1.368 2.086 1.173.977-.196 1.303-1.303 1.368-2.216.131-1.499-.586-3.91-2.411-4.04zm11.209 44.25v-.065c0-.717-.065-1.369-.13-2.086-.066-.782-.978-1.368-1.695-.912-1.173.782-1.955 2.346-1.955 3.78-.065.195 0 .391.065.586.131.587.391 1.173.847 1.63.978.912 2.347.456 2.672-.782a6.031 6.031 0 00.196-2.151zm-6.647-12.708c-.391-.652-.978-.978-1.63-.913-.456-.065-.977.131-1.173.652-.586.717-.325 1.629-.651 2.542-.131.456.13.847.456 1.042 0 .261.065.457.065.717.065.587.456 1.043 1.108 1.043 2.737 0 2.802-3.324 1.825-5.083zm7.625-2.477c-.065 0-.065 0 0 0-.261-.847-1.564-1.107-1.955-.195-.456.977-.261 2.15.586 2.867.457.391 1.043.326 1.434-.065.717-.717.652-1.955-.065-2.607zm-11.796-16.748c-.195-.587-.652-.913-1.173-1.238-.261-.196-.652-.131-.912 0-.326.13-.456.391-.587.716a2.156 2.156 0 000 .913c-.13.326-.065.782.196 1.108.521.717 1.499.847 2.085.26.456-.521.587-1.173.391-1.759zm-3.128 84.394c-.717-.521-1.694-.195-2.216.391l-.065.066-.13.13c-.652.652-.848 1.499-.652 2.281 0 .065 0 .195.065.261a3.71 3.71 0 00.717 1.433c.391.456 1.108.326 1.499-.065.586-.586 1.043-1.368 1.238-2.15.196-.783.326-1.825-.456-2.347zm8.276-7.82c-.782-1.108-2.215-1.043-3.193-.326-1.368 1.043-1.108 2.803-.652 4.236.066.261.196.456.391.522.457 1.499 1.304 2.672 2.672 1.955 1.955-.978 1.89-4.758.782-6.387zm-2.346 18.573c-.586-.325-1.238-.325-1.89-.13a2.41 2.41 0 00-.716.326c-.261.195-.457.521-.587.782 0 .065-.065.13-.065.195 0 .066-.065.066-.065.131-.066.13-.066.195-.066.326v.065c0 .065-.065.195-.065.326v.13c-.065.587.065 1.173.261 1.76.326 1.042 1.238 2.476 2.542 1.759.521-.261.782-.782.977-1.368.326-.326.522-.782.652-1.239.195-1.042.065-2.476-.978-3.063zm14.533 27.763c-.065.065-.065.065-.131.065.066 0 .131-.065.131-.065z" fill="#FCFFFE"/><path d="M759.209 413.281c-.13-.195-.196-.325-.326-.521-.326-.717-.912-1.368-1.629-1.564-.652-.391-1.369-.587-2.086-.326-.977.391-1.238 1.304-1.238 2.216-.651 1.694-.13 3.845 1.564 4.627 1.173.521 2.672.261 3.585-.652 1.042-.977.912-2.541.13-3.78zm7.299 6.648c-1.824.065-2.672 2.346-1.433 3.649l.065.065c.065.261.065.457.195.652.326.782.913 1.629 1.89 1.629 1.043 0 1.63-.912 1.955-1.759.522-1.955-.456-4.367-2.672-4.236zm-9.514 6.973c-1.369.261-1.825 1.564-1.695 2.802 0 .652.13 1.304.391 1.825.456.912 1.499 1.303 2.477.912.912-.391 1.368-1.303 1.498-2.215.196-1.63-.847-3.65-2.671-3.324zm14.532 4.497c-.325-.457-.782-.652-1.303-.848-.391-.13-1.043.131-1.173.587-.326.717-.587 1.629-.13 2.411.391.652 1.108 1.043 1.824.847.782-.195 1.108-.912 1.043-1.564.065-.521 0-1.042-.261-1.433z" fill="#FCFFFE"/><path d="M723.04 301.059c-1.303-1.238-3.454-1.433-4.888-.325-1.955.521-2.737 2.737-2.346 4.561.456 2.086 2.086 4.041 4.236 4.432 2.021.391 4.041-.782 4.627-2.802.587-2.021-.13-4.497-1.629-5.866zm-2.281 6.061c-1.238.196-1.759-1.434-1.825-2.346-.065-.521 0-1.303.261-1.825.13.065.196.131.326.196-.391.652-.326 1.564-.065 2.281.326.977 1.694.782 1.825-.065h.195c.261.651.13 1.629-.717 1.759zm-30.499-24.308c-.913-2.281-3.585-3.519-5.996-3.063-2.346.456-3.649 2.346-2.541 4.562.456.912 1.173 1.89 2.02 2.607.912 1.042 2.346 1.629 3.78 1.303 2.476-.652 3.649-3.193 2.737-5.409z" fill="#EC6633"/><path d="M734.445 289.915c-.391 4.367-2.411 9.124-5.083 12.578-.196-.456-.457-.912-.652-1.369.912-1.564 1.89-3.128 2.607-4.757.977-2.151 1.564-4.366 2.281-6.582.13-.391.912-.391.847.13z" fill="#EF8E39"/><path d="M749.825 388.517a.744.744 0 00-.522-.196c-.325-.065-.716.131-.847.391-.195.522-.391 1.043-.065 1.565.261.456.782.716 1.303.586.522-.13.783-.652.783-1.173 0-.456-.326-.847-.652-1.173zm-17.987-1.955c-.13-.065-.261-.065-.391-.065h-.195a.764.764 0 00-.717.586c-.065.587.13 1.173.586 1.564.456.457 1.108.131 1.304-.391.325-.651 0-1.303-.587-1.694zm13.49-31.412c-.326-.065-.717.131-.847.456v.196c-.196.456-.065.977.326 1.368.326.326.782.261 1.108-.065.651-.586.195-1.759-.587-1.955zm-7.69 10.753c-.261-.391-.912-.521-1.238-.13a2.191 2.191 0 00-.391.782c-.13.195-.13.456-.065.652.065.195.13.325.26.456.131.195.326.26.522.26.391.066.717-.13.847-.456.391-.456.326-1.042.065-1.564zm29.913 45.423c-.326-.26-.847-.195-1.108.196-.261.391-.065 1.043.261 1.368a1.24 1.24 0 001.238.326c.326-.065.586-.456.521-.717 0-.521-.26-1.042-.912-1.173zm10.818 14.924c-.065-.13-.065-.26-.13-.391-.13-.391-.326-.717-.652-.912-.521-.326-1.043.065-1.173.521-.13.391-.13.847 0 1.238.065.131.065.261.131.391a.89.89 0 00.195.261c.065.065.13.196.261.261.326.26.782.26 1.108-.065.26-.261.391-.782.26-1.304z" fill="#FCFFFE"/><path d="M687.522 303.405a33.379 33.379 0 00-6.712-1.499c-1.108-.13-2.281-.195-3.389-.065-1.108.131-2.216.456-2.998 1.238-.716.783-.847 1.956-.651 3.063.195 1.108.586 2.151 1.108 3.194.26.456.586.912 1.042.912.456.065.913-.326 1.173-.782.587-.847.652-2.15-.13-2.933-.391-.391-.847-.586-1.434-.716-.521-.131-1.108-.131-1.694-.131-1.108.065-2.281.261-3.259.847-.977.587-1.759 1.434-2.346 2.412a13.42 13.42 0 00-1.368 3.128c-.717 2.216-1.043 4.497-1.238 6.778-.196 2.28-.196 4.627-.196 6.908.13 4.627.521 9.254 1.108 13.815a240.93 240.93 0 002.15 13.751c1.695 9.124 3.78 18.183 6.126 27.111-2.411-8.928-4.561-17.987-6.256-27.111-.847-4.562-1.629-9.123-2.281-13.751-.586-4.627-1.043-9.254-1.238-13.881-.065-2.346-.065-4.627.13-6.973.196-2.346.522-4.627 1.173-6.908.326-1.108.782-2.216 1.434-3.193.652-.978 1.434-1.89 2.477-2.542.521-.326 1.107-.521 1.629-.651.586-.131 1.173-.196 1.759-.261.587-.065 1.173 0 1.76.13.586.131 1.173.391 1.629.847a2.52 2.52 0 01.717 1.76c0 .652-.195 1.238-.521 1.76-.196.26-.391.521-.652.716a1.6 1.6 0 01-.978.326 1.14 1.14 0 01-.912-.456c-.261-.195-.391-.521-.586-.782-.522-1.043-.978-2.15-1.173-3.324-.131-.586-.131-1.238-.066-1.824.131-.587.391-1.238.782-1.695.913-.977 2.151-1.238 3.324-1.433 1.173-.131 2.346-.066 3.519.065 2.346.26 4.627.782 6.843 1.499l.195.651zm17.401 2.737c2.281.913 4.496 1.956 6.647 3.063a30.437 30.437 0 013.193 1.76c.522.326 1.043.652 1.564 1.043.522.391.978.782 1.369 1.303.196.261.391.652.261 1.108-.196.456-.522.587-.847.717-.652.261-1.239.326-1.89.391-.326 0-.652 0-.978-.065-.195-.065-.326-.065-.521-.196a1.01 1.01 0 01-.391-.521c-.065-.391.065-.782.195-1.043.131-.261.326-.521.587-.782.847-.912 1.89-1.629 3.063-2.15a4.366 4.366 0 011.824-.392c.652 0 1.304.196 1.825.652.522.456.782 1.043.978 1.629.195.587.26 1.173.391 1.825.13 1.238.195 2.477.13 3.65-.13 2.411-.521 4.822-.977 7.233-.978 4.758-2.412 9.385-3.976 14.012-3.193 9.189-6.973 18.117-10.948 26.98-4.041 8.863-8.277 17.596-12.774 26.198a567.886 567.886 0 0012.643-26.198c3.976-8.863 7.69-17.856 10.819-27.045 1.564-4.562 2.932-9.254 3.91-14.012.456-2.346.847-4.757.977-7.168.065-1.173 0-2.412-.13-3.585a8.551 8.551 0 00-.391-1.759c-.13-.587-.391-1.108-.847-1.434-.391-.391-.978-.521-1.564-.521-.587 0-1.173.195-1.695.391a8.175 8.175 0 00-2.867 2.02c-.196.195-.391.456-.456.717-.131.26-.196.521-.131.717.065.195.196.26.522.326.26.065.521.065.847 0a7.205 7.205 0 001.694-.391c.261-.131.456-.261.522-.392.065-.13 0-.391-.196-.586-.326-.456-.782-.847-1.238-1.173-.456-.326-.978-.652-1.499-.978-1.043-.586-2.086-1.173-3.193-1.694-2.151-1.043-4.367-2.085-6.648-2.998l.196-.652z" fill="#0B2121"/><path d="M4.81 72.236C8.102 63.26 18.36 60.07 26.586 58.475c1.549-.3 3.194-.4 4.742-.2-1.742-4.188-2.129-7.977-2.419-12.465-.29-3.988 2.516-8.077 5.42-10.47 3.387-2.792 7.354-3.889 11.516-4.288 8.42-.598 15.968 3.989 20.613 11.069.484.698.871 1.595 1.258 2.493 2.033-.499 3.968-.898 6.097-1.097 2.516-.3 5.13 1.396 7.355 2.393 3.871 1.695 7.646 7.48 9 11.468.678 1.894.871 4.188.678 6.282 4.355.1 8.903 1.596 11.903 3.889 3.291 2.493 4.936 6.182 5.226 10.27.387 4.588-3.677 8.178-7.355 9.773-8.903 3.989-18.774 1.795-28.065 1.895-3.774.1-7.355-.599-11.032-.798-4.936-.2-9.872.1-14.807.3-4.645.199-9.194.099-13.742.398-5.033.2-9.29-.499-14.13-1.695-3.87-.997-8.323-1.496-11.516-4.088-3.484-2.892-4.065-7.18-2.516-11.368zm138.863 15.48c-1.273-3.303-5.143-4.494-8.284-5.062a6.793 6.793 0 00-1.813-.081c.677-1.543.812-2.924.947-4.602.109-1.489-.947-2.978-2.057-3.871-1.272-1.002-2.788-1.462-4.385-1.57-3.194-.217-6.064 1.462-7.85 4.087-.19.271-.325.569-.46.92a15.716 15.716 0 00-2.301-.405c-.948-.109-1.949.514-2.816.866-1.488.623-2.896 2.761-3.41 4.25-.244.704-.325 1.543-.271 2.328-1.651.027-3.384.595-4.521 1.434-1.272.92-1.867 2.274-2.003 3.79-.135 1.678 1.408 3.032 2.788 3.627 3.384 1.462 7.147.677 10.666.704 1.434.027 2.788-.216 4.195-.297 1.895-.082 3.736.027 5.631.135 1.759.081 3.492.054 5.251.135 1.895.081 3.546-.19 5.387-.622 1.462-.352 3.167-.542 4.385-1.516 1.3-1.11 1.543-2.68.921-4.25z" fill="#BEDCE3"/><path d="M106.886 89.827c.081.163.351.163.406-.027.514-1.651 2.625-2.788 3.898-.92.108.162.406.135.406-.081.135-2.762 2.815-2.464 4.385-1.3.46.352.947.866 1.543.975.081.027.216-.055.216-.163.352-1.813.812-5.874 3.465-3.492.839.758.785 2.247 1.11 3.249.054.162.298.243.406.08 1.299-2.03 2.517-1.515 4.006-.216.136.109.379.081.379-.135.027-.352.731-1.029.894-1.218.757-.866 1.624-1.408 2.815-1.083 1.543.406 1.84 2.03 2.409 3.275.081.19.352.136.406-.027.487-1.299 2.382-1.326 3.113-.243.081.135.298.19.379.027.677-1.3 1.868-1.029 2.49.027.081.135.298.19.379.027.406-.785.975-1.326 1.597-1.922.406-.406.839-.487 1.245-.379a4.702 4.702 0 00-.351-.406c-.569 0-1.002.27-1.516.785-.325.325-.65.623-.948.975-.216.27-.189.46-.162.514-.027-.027-.054-.081-.135-.163-.542-.595-.758-.974-1.625-.866-.243.027-.595.244-.758.406-.595.542-.27.758-.758-.081-.757-1.272-2.463-.244-3.167.758-.73-1.678-1.272-2.924-3.329-3.275-1.137-.19-2.951 1.272-3.357 2.463-1.597-1.327-2.896-1.57-4.141.135-.488-1.597-.515-2.68-2.058-3.79-1.191-.839-2.328.677-2.761 1.652-.324.704-.054 2.87-1.137 2.057-.812-.595-1.461-1.272-2.463-1.353-1.597-.136-2.68.73-2.977 2.138-1.381-1.435-3.411-.704-4.196 1.002-.46-.569-1.164-.975-1.895-.704-.244.081-.406.216-.569.352-.054.19-.081.379-.108.595.623-.541 1.976-.541 2.464.352z" fill="#fff"/><path d="M143.835 90.369c-.596-.406-1.272-.65-1.976-.623-.65.027-1.272.27-1.841.541-.406.19-.541.84-.704.731-.947-.595-2.734-.325-3.6.325-.731.569-.379.298-1.326-.298-.569-.352-1.489-.216-2.057 0-.379.136-.488.406-.623.271-.596-.596-1.381-1.164-2.057-1.597-1.273-.84-2.761-.217-3.98.433-.812.433-.703 1.245-1.488.514-.596-.541-1.462-.65-2.22-.676-.893-.054-2.111.162-2.355 1.028-.596-.433-1.164-.676-1.976-.758-.65-.054-2.166 0-2.599.65 0 .027-1.976-.514-2.382-.298-.839.46-1.38 1.002-1.624 1.841-1.137-1.083-2.247-1.84-3.898-1.543-.541.108-1.489.704-1.787 1.164.055.054.109.135.19.19.595-.867 3.438-.813 3.465-.785.649.433 1.407.974 1.976 1.542.135.136.352.055.379-.135.243-1.326 1.083-1.922 2.517-1.868-.108-.027 1.11.542 1.083.515.081.054.217-.028.244-.082.947-1.407 3.383-.73 4.385.136.162.162.406.027.379-.19-.108-1.11 1.841-.947 2.49-.92 1.381.081 1.381.677 2.085 1.164.081.054.216.054.27-.027.948-1.083 2.355-2.139 3.925-1.787.921.217 2.193 1.435 2.843 2.058a.23.23 0 00.351-.028c.84-1.082 2.356-.243 3.222.325.081.054.189.027.27.027.082 0 .136-.08.163-.135.433-1.218 3.14-.84 3.817-.406.108.054.243.054.297-.054.948-1.651 2.653-1.597 3.898-.731.109-.19.19-.352.244-.514zm-30.101-11.857c.947-.054 1.922.38 2.68 1.218.135.136.298.054.379-.08.649-1.354 2.788-1.002 3.546 0 .135.162.352.026.379-.136.216-1.327 1.272-3.221 2.869-2.436.731.379 1.029 1.218 1.299 1.949.055.162.298.162.379.027.406-.758.785-1.49 1.787-1.57.758-.054 1.326.866 1.895 1.299.135.108.325-.027.352-.162.108-2.112 2.328-.975 3.275-.217.108.081.298 0 .325-.108.379-1.029.92-1.354 1.543-1.354a3.344 3.344 0 00-.244-.676c-.054 0-.108 0-.189.027-.352.08-.785.568-1.002.785-.108.108-.189.27-.27.406-.244.568-.055.433-.217.297-.812-.65-1.624-1.272-2.707-1.001-.379.081-.541.379-.731.65-.46.676-.027.866-.893.054-.433-.406-1.327-.623-1.868-.352-.352.19-.541.325-.758.676-.298.488-.298.92-.487.434-.162-.407-.271-.515-.514-.867-.488-.65-1.814-1.326-2.626-.839-.948.596-1.354 1.516-1.57 2.545-1.002-.867-3.005-1.11-3.79.08.027-.053-1.353-1.109-1.732-1.109h-.244c-.298.054-.595.244-.866.46zM111 83.087c1.029-.569 2.869.379 3.438 1.002.135.162.433.027.379-.19a2.527 2.527 0 01-.108-1.002c-.109-2.084 3.87-2.734 3.789-.433 0 .244.352.325.433.082.596-1.598 2.761-.813 3.682-.352.785.379 1.326 1.624 1.678 2.382.081.162.352.135.406-.027.244-.867.514-1.652.948-2.464.568-1.055 2.192-2.517 3.464-.378.217.378.379.839.569 1.218.108.216.379.108.406-.082.379-2.571 2.463-2.084 3.925-1.434a2.86 2.86 0 00.108-.46c-.514-.244-1.056-.406-1.624-.434-1.164-.08-2.274.677-2.707 1.733-.541-1.083-1.435-2.734-2.788-2.03-1.462.758-2.166 2.165-2.626 3.654-.649-1.326-1.461-2.138-3.032-2.572-.947-.27-1.948-.135-2.544.542-.325-1.164-1.624-1.624-2.842-1.408-1.245.217-1.76 1.814-1.706 3.005-.866-.65-2.192-1.083-3.167-.785a3.148 3.148 0 00-.081.433zm13.561-7.444c.055.108.244.162.352.054 1.029-1.056 2.22-2.084 3.086-.379.081.19.352.135.406-.027.244-.65.515-1.543.975-2.057.162-.19.352-.298.568-.406a25.527 25.527 0 00-.676-.163c-.569.46-.867 1.245-1.11 1.95-.163-.407-.325-.677-.975-.704-.974-.055-1.678-.055-2.247.811-.108.163-.162.271-.162.352-.054-.08-.162-.189-.406-.324-.568-.298-1.029-.46-1.678-.542-.054 0-.109 0-.19-.027-.216.163-.406.325-.595.487 1.028-.162 2.165.054 2.652.975z" fill="#fff"/><path d="M126.478 55.12c-1.05-2.725-4.244-3.708-6.835-4.177a5.605 5.605 0 00-1.496-.067c.558-1.273.67-2.412.781-3.797.09-1.228-.781-2.457-1.697-3.194-1.05-.826-2.301-1.206-3.619-1.295-2.635-.179-5.003 1.206-6.477 3.372-.156.224-.268.47-.38.76a12.933 12.933 0 00-1.898-.335c-.782-.09-1.609.424-2.323.715-1.229.513-2.39 2.278-2.815 3.506-.2.581-.268 1.274-.223 1.921-1.362.023-2.792.492-3.73 1.184-1.05.76-1.541 1.876-1.653 3.127-.112 1.385 1.162 2.502 2.3 2.993 2.793 1.206 5.897.559 8.801.58 1.184.023 2.301-.178 3.462-.245 1.564-.067 3.083.023 4.646.112 1.452.067 2.881.044 4.333.111 1.564.068 2.926-.156 4.445-.513 1.206-.29 2.613-.447 3.619-1.251 1.072-.916 1.273-2.211.759-3.507z" fill="#BEDCE3"/><path d="M96.123 56.863c.067.134.29.134.335-.023.424-1.362 2.166-2.3 3.216-.76.09.135.335.113.335-.066.112-2.279 2.323-2.033 3.619-1.072.379.29.782.714 1.273.804.067.022.179-.045.179-.134.29-1.497.67-4.847 2.859-2.882.692.626.647 1.854.915 2.68.045.135.246.202.335.068 1.073-1.675 2.078-1.251 3.306-.179.112.09.313.067.313-.112.022-.29.603-.848.737-1.005.625-.715 1.34-1.161 2.323-.893 1.273.335 1.519 1.675 1.988 2.703.067.156.29.111.335-.023.402-1.072 1.965-1.094 2.569-.2.067.11.245.155.312.021.559-1.072 1.541-.848 2.055.023.067.111.246.156.313.022.335-.648.804-1.094 1.318-1.586.335-.335.692-.402 1.027-.313a3.935 3.935 0 00-.29-.334c-.469 0-.827.223-1.251.647-.268.268-.536.514-.782.804-.178.224-.156.38-.134.425-.022-.023-.044-.067-.111-.134-.447-.492-.626-.804-1.341-.715-.201.022-.491.201-.625.335-.491.447-.223.625-.625-.067-.626-1.05-2.033-.201-2.614.625-.603-1.384-1.05-2.412-2.747-2.702-.938-.157-2.435 1.05-2.77 2.032-1.318-1.094-2.39-1.295-3.417.112-.402-1.318-.425-2.211-1.698-3.127-.983-.693-1.921.558-2.278 1.362-.268.581-.045 2.368-.938 1.698-.67-.491-1.206-1.05-2.033-1.117-1.318-.111-2.211.603-2.457 1.765-1.139-1.184-2.814-.581-3.462.826-.38-.469-.96-.804-1.563-.58-.201.066-.335.178-.47.29a3.195 3.195 0 00-.089.491c.514-.447 1.63-.447 2.033.29zm30.489.447c-.492-.336-1.05-.537-1.631-.515-.536.023-1.05.224-1.519.447-.335.157-.446.693-.58.603-.782-.491-2.256-.268-2.971.268-.603.47-.313.246-1.094-.245-.47-.29-1.229-.179-1.698 0-.313.111-.402.335-.514.223-.491-.491-1.139-.96-1.697-1.318-1.05-.692-2.279-.179-3.284.358-.67.357-.58 1.027-1.228.424-.492-.447-1.206-.536-1.832-.559-.737-.044-1.742.135-1.943.85a3.091 3.091 0 00-1.631-.626c-.536-.045-1.786 0-2.144.536 0 .022-1.63-.424-1.965-.246-.693.38-1.14.827-1.34 1.52-.939-.894-1.854-1.52-3.217-1.274-.447.09-1.228.58-1.474.96.045.045.09.112.156.157.492-.715 2.837-.67 2.86-.648.535.357 1.16.804 1.63 1.273.112.112.29.045.313-.111.201-1.095.893-1.586 2.077-1.542-.09-.022.916.447.893.425.067.044.179-.023.201-.067.782-1.162 2.792-.603 3.619.111.134.134.335.023.312-.156-.089-.916 1.519-.782 2.055-.76 1.139.068 1.139.559 1.72.961.067.045.179.045.224-.022.781-.894 1.943-1.765 3.238-1.475.76.18 1.81 1.184 2.346 1.698a.19.19 0 00.29-.022c.692-.894 1.943-.201 2.658.268.067.044.156.022.223.022s.112-.067.134-.112c.358-1.005 2.591-.692 3.15-.335.089.045.201.045.245-.044.782-1.363 2.189-1.318 3.217-.603.089-.157.156-.29.201-.425zm-24.838-9.784c.782-.045 1.586.313 2.211 1.005.112.112.246.045.313-.067.536-1.117 2.301-.826 2.926 0 .112.134.291.023.313-.112.179-1.094 1.05-2.657 2.368-2.01.603.313.848 1.005 1.072 1.608.044.134.245.134.312.023.335-.626.648-1.229 1.475-1.296.625-.044 1.094.715 1.563 1.072.112.09.268-.022.29-.134.09-1.742 1.921-.804 2.703-.178.089.067.246 0 .268-.09.313-.848.76-1.117 1.273-1.117a2.72 2.72 0 00-.201-.558c-.044 0-.089 0-.156.023-.29.066-.648.468-.826.647-.09.09-.157.224-.224.335-.201.47-.045.358-.179.246-.67-.536-1.34-1.05-2.233-.827-.313.068-.447.313-.603.537-.38.558-.023.714-.737.044-.358-.335-1.095-.514-1.541-.29-.291.156-.447.268-.626.558-.246.402-.246.76-.402.358-.134-.335-.223-.425-.424-.715-.402-.536-1.497-1.095-2.167-.693-.782.492-1.117 1.251-1.295 2.1-.827-.715-2.48-.916-3.127.067.022-.045-1.117-.916-1.43-.916h-.201c-.246.045-.491.201-.715.38z" fill="#fff"/><path d="M99.518 51.3c.849-.468 2.368.314 2.837.827.112.134.357.023.313-.156-.09-.268-.112-.558-.09-.826-.089-1.72 3.194-2.257 3.127-.358 0 .201.291.268.358.067.491-1.318 2.278-.67 3.037-.29.648.312 1.095 1.34 1.385 1.965.067.134.291.112.335-.022.201-.715.425-1.362.782-2.033.469-.87 1.809-2.077 2.859-.312.179.312.313.692.469 1.005.089.178.313.09.335-.067.313-2.122 2.033-1.72 3.239-1.184.045-.134.067-.246.089-.38a3.512 3.512 0 00-1.34-.357c-.96-.067-1.876.558-2.234 1.43-.446-.894-1.183-2.257-2.3-1.676-1.206.626-1.787 1.787-2.167 3.016-.536-1.095-1.206-1.765-2.501-2.122-.782-.224-1.609-.112-2.1.446-.268-.96-1.34-1.34-2.345-1.161-1.028.179-1.452 1.496-1.407 2.48-.715-.537-1.81-.894-2.614-.649a2.579 2.579 0 00-.067.358zm11.19-6.142c.045.09.201.134.291.045.849-.871 1.831-1.72 2.546-.313.067.157.29.112.335-.022.201-.536.425-1.273.804-1.698.134-.156.291-.245.469-.335a20.8 20.8 0 00-.558-.134c-.469.38-.715 1.028-.916 1.609-.134-.335-.268-.559-.804-.581-.804-.045-1.385-.045-1.854.67-.089.134-.134.223-.134.29-.045-.067-.134-.156-.335-.268-.469-.245-.849-.38-1.385-.446-.044 0-.089 0-.156-.023-.179.134-.335.268-.491.402.848-.134 1.786.045 2.188.804z" fill="#fff"/></svg>