<svg width="320" height="918" fill="none" xmlns="http://www.w3.org/2000/svg"><path d="M320.416 44.103c-65.204-86.701-270.697-22.745-321 0v834.383c3.611 69.999 263.631-17.801 321 0V44.103z" fill="#DFEEF1"/><path d="M47.17 897.533a.126.126 0 010-.181c.515-.54 1.287.078 1.493.593.258.695-.18 1.493-.54 2.033-.206.309-.438.593-.644.901-.206.309-.515.696-.438 1.107.103.618 1.133.773 1.545 1.107.335.258.695.747.386 1.133-.334.438-1.081.386-1.544.335-1.005-.103-2.755-.412-2.755-1.699 0-.824.463-1.648.798-2.394.463-1.056 1.081-1.983 1.699-2.935z" fill="#122528"/><path d="M38.546 871.377l-.541-.309c-.592-.309-1.21-.618-1.725-1.056-.283-.232-.67-.721-.36-1.081.257-.309.85-.232 1.21-.206.54.051 1.08.206 1.596.335.927.231 1.802.617 2.651 1.055.644.335 1.288.695 1.88 1.107-1.57-.154-3.167-.129-4.711.155zm-3.141 1.003c-1.262.618-2.317 1.519-3.296 2.523l-.386.387c-.386-.078-.772-.155-1.133-.258-.669-.154-2.806-.695-2.342-1.802.257-.566 1.03-.824 1.57-1.004.901-.309 1.88-.386 2.832-.309.953.052 1.88.206 2.832.438-.026 0-.052 0-.077.025zm-3.99 3.27a20.665 20.665 0 00-2.188 2.987 12.67 12.67 0 00-.618 1.158c-.747.129-1.52.283-2.266.361-.36.025-.824.051-1.133-.155-.36-.232-.309-.669-.18-1.004.438-1.081 1.674-1.622 2.652-2.085.927-.438 1.93-.901 2.935-1.133a4.01 4.01 0 01.798-.129zm19.59-1.931c-1.416-.901-3.012-1.544-4.634-1.956-.36-.438-.772-.85-1.158-1.287-.54-.618-1.133-1.391-1.056-2.266 0-.103.078-.206.206-.206 1.133-.051 2.214.386 3.167.953 1.03.618 1.956 1.416 2.754 2.291a11.5 11.5 0 011.725 2.42c.155.283.31.592.412.927-.154-1.056-.309-2.137-.103-3.218.026-.103.129-.155.206-.155.695-.051 1.133.541 1.416 1.081.386.747.592 1.597.72 2.42.104.644.207 1.313.207 1.983 0 .154 0 .643-.103 1.004-.901-1.596-2.137-2.987-3.759-3.991zm-23.735 9.448c-.36 1.185-.593 2.42-.747 3.656a32.684 32.684 0 00-.206 3.167c-.54.618-1.236 1.055-2.085 1.055a.23.23 0 01-.232-.231c.129-2.549 1.055-6.05 3.27-7.647zm-.721 11.843a.9.9 0 01.103-.232c0 .103.025.18.025.283.284 2.085.695 4.145 1.442 6.076-.026.283-.077.54-.129.798-.103.437-.231.927-.54 1.261-.283.309-.67.18-.901-.103-.386-.463-.54-1.107-.618-1.699-.129-.721-.155-1.467-.155-2.214.026-1.416.232-2.806.773-4.17zm2.754 8.624c.438.746.927 1.467 1.442 2.162-.026 1.004-.026 1.983-.463 2.909-.026.078-.13.103-.206.078-1.545-.438-1.108-2.832-.953-3.965.077-.412.154-.798.18-1.184zm4.686 5.355a10.38 10.38 0 001.982 1.184c.078.36.052.747-.077 1.107-.18.438-.54.721-1.004.644-.49-.078-.875-.592-1.133-.953a3.83 3.83 0 01-.643-1.442 7.045 7.045 0 01-.103-1.287c.309.232.643.489.978.747zm4.491 4.757a10.35 10.35 0 001.982 1.184c.077.361.051.747-.078 1.107-.18.438-.54.721-1.004.644-.489-.077-.875-.592-1.132-.953a3.815 3.815 0 01-.644-1.441 7.043 7.043 0 01-.103-1.287c.309.231.644.489.978.746z" fill="#FFCE33"/><path d="M39.928 916.299c.655-.619.372-1.426-.123-2.003.728.077 1.448.236 2.1.567.653.331 1.151 1.039.7 1.744-.432.675-1.507.463-2.151.288a10.416 10.416 0 01-.99-.31c.164-.089.33-.178.464-.286z" fill="#FFCE33"/><path d="M37.799 897.224c.335.077.515.463.618.746.386.979.463 2.111.54 3.141.026.412.052.798.13 1.21.025.258.154.489.334.67.257.257.746.103 1.03 0 .514-.155 1.08-.361 1.544 0 .438.334.335 1.029.052 1.441-.438.644-1.416.695-2.111.695-.798 0-1.622-.18-2.06-.901-.231-.386-.283-.849-.334-1.287a22.49 22.49 0 01-.155-1.854c-.051-.926-.103-1.853-.077-2.78-.103.026-.232-.051-.232-.18 0-.412.155-1.03.721-.901z" fill="#122528"/><path d="M26.24 886.771c.36-2.96 1.262-5.818 2.78-8.392a21.32 21.32 0 012.935-3.836c1.004-1.03 2.06-1.957 3.373-2.574 2.471-1.185 5.354-1.442 8.032-1.185 2.755.258 5.56 1.082 7.93 2.549 2.342 1.467 3.86 3.707 4.916 6.204 1.133 2.781 1.7 5.87 1.545 8.882a13.96 13.96 0 01-.412 2.703c.129.103.18.283.052.438a2.122 2.122 0 00-.284.386c-.025.103-.077.206-.103.309a.142.142 0 01-.128.077c-.155.258-.283.541-.412.773a23.62 23.62 0 01-1.313 2.059 17.66 17.66 0 01-3.296 3.501c-1.312 1.056-2.831 2.034-4.453 2.498-1.75.489-3.604.489-5.38.592-1.365.077-2.833.18-4.12.669-.489.18-.978.463-1.287.875-.36.464-.438 1.056-.412 1.622.051.721.309 1.287.747 1.854.411.515.9 1.004 1.287 1.519.54.721 3.164 8.639 2.263 9.205-.54.335-3.73-5.444-4.297-5.625-.901-.283-1.57-1.984-2.317-2.525-2.137-1.57-3.862-3.707-5.097-6.024-1.365-2.549-1.983-5.355-2.369-8.187-.438-2.754-.54-5.56-.18-8.367z" fill="#356F7C"/><path d="M42.742 895.447c.31-.283.773-.36 1.184-.386.696-.051 1.39.052 2.06.129-.154-.103-.309-.18-.463-.258-.49-.283-.979-.54-1.468-.849-.772-.489-1.622-1.236-1.364-2.24.283-1.158 1.493-1.648 2.548-1.751 1.108-.103 2.317.078 3.373.464-.592-.824-1.236-1.596-1.75-2.497-.567-1.004-.979-2.189-.258-3.218.644-.953 1.905-1.082 2.96-1.004 1.03.077 2.034.36 3.013.695-.36-.386-.695-.824-1.03-1.236-.67-.901-1.339-1.905-1.622-2.986-.206-.85 0-1.751.875-2.111.979-.412 2.137.051 3.012.514.798.412 1.545.927 2.214 1.519.283.258.592.541.85.824-.206-1.184-.36-2.368-.54-3.552-.13-.902-.516-2.446.591-2.884.515-.206.927.283 1.185.644.386.566.643 1.261.85 1.905.617 1.828 1.003 3.733 1.775 5.483.541 1.21 1.005 2.446 1.7 3.553a19.536 19.536 0 001.879 2.472c.824.875 1.416 1.338 2.523 2.033 1.261.798 2.471 1.699 3.656 2.6.514.387 1.004.799 1.338 1.365.36.618.54 1.364.618 2.059.155 1.416-.309 2.807-1.081 3.991-1.596 2.42-4.402 4.016-7.234 4.454-3.424.54-7.003-.181-10.35-.953-1.596-.386-3.243-.952-4.762-1.57-1.7-.67-2.935-1.468-4.145-2.575-.592-.54-1.055-.901-1.622-1.493-.592-.592-.746-1.287-.875-1.982 0-.412.051-.85.36-1.159z" fill="#E3DCD5"/><path d="M57.648 901.292c-.85-1.313-1.442-2.781-1.622-4.351 0-.052-.026-.129-.026-.18-.026-.129.206-.155.232-.026.489 2.806 2.24 5.741 4.788 7.131 1.03.567 2.24.927 3.398 1.133a2 2 0 00.412.051 4.528 4.528 0 01-.592.103c-.412.078-.824.103-1.21.155a19.827 19.827 0 01-2.034-.824c-1.416-.669-2.523-1.905-3.346-3.192zm-4.994-10.324a.194.194 0 01.18-.129c.335.052.49.412.695.618.232.258.515.464.798.644a4.18 4.18 0 001.931.618c1.416.103 2.755-.567 3.63-1.674.078-.103.258.026.18.155-.798 1.338-2.29 2.059-3.81 2.008a4.85 4.85 0 01-2.137-.592 3.617 3.617 0 01-.926-.721c-.232-.206-.67-.592-.54-.927z" fill="#122528"/><path d="M66.993 894.34c-.85-.592-1.725-1.467-1.75-2.162-.026-.592.334-1.133.746-1.571.49-.54 1.081-1.004 1.596-1.519a13.032 13.032 0 001.493-1.673c.901-1.21 1.416-2.574 1.313-4.016-.051-.721-.257-1.493-.618-2.137-.231-.412-.489-.824-.669-1.261-.154-.361-.257-.85.103-1.185.412-.36.978-.128 1.39.129 1.159.721 2.086 1.751 2.78 2.832.773 1.159 1.262 2.652 1.494 4.119.283 1.931.077 3.887-.515 5.767-.438 1.339-1.287 2.703-2.703 3.372-1.442.67-4.042-.257-4.66-.695z" fill="#FFCE33"/><path d="M57.622 884.223c.309.206.438.567.515.901.026.103.051.258.051.438.103.618-.025 1.159-.515 1.107a.49.49 0 01-.18-.051c-.412-.103-.72-.644-.85-1.21-.025-.078-.025-.129-.05-.206-.052-.309-.052-.747.18-.979.257-.231.566-.18.849 0zm.668-1.312l.078-.078c0-.025.026-.051.026-.077.154-.334.566-.334.798-.077.206.232.257.566.18.875.026.232-.077.464-.335.515a.492.492 0 01-.334-.051c-.078-.026-.155-.052-.206-.129-.232-.206-.386-.695-.206-.978zm-3.243-1.082c.206.258.36.695.36 1.056a.56.56 0 01-.514.566c-.36 0-.695-.36-.901-.592-.31-.386-.592-.978-.155-1.365.412-.412.953 0 1.21.335zm5.586 3.553c.335.103.644.412.798.695.052.103.103.18.103.283.155.335.129.747-.283.875-.36.103-.72-.128-1.004-.36-.258-.232-.54-.566-.515-.953.052-.412.49-.643.901-.54zm1.262 2.857c.232.026.36.232.438.438a.565.565 0 01.026.36v.077c0 .232-.18.464-.438.438-.257-.026-.412-.206-.566-.386-.155-.206-.18-.438-.077-.644.154-.283.412-.309.617-.283zm-17.685 8.573c.308-.283.771-.206 1.055.077.025 0 .025.026.051.052.232.206.283.489.258.772.103.36-.103.772-.49.85a.944.944 0 01-1.055-.618c-.155-.386-.129-.85.18-1.133zm2.935 3.115c-.052-.206.051-.412.257-.463a.507.507 0 01.283.026c.078.025.155.077.18.128.026.026.052.026.078.052.232.231.283.695.129.978-.103.18-.284.206-.464.18-.154-.026-.283-.154-.36-.283-.103-.129-.129-.309-.129-.463 0-.026 0-.078.026-.155 0 .026 0 0 0 0zm-.258-2.986c.334-.129.618.026.824.283a.496.496 0 01.128.232v.051a.731.731 0 01-.051.567.499.499 0 01-.438.257h-.103c-.231.129-.515.129-.695-.129-.103-.154-.103-.334-.103-.515.078-.257.129-.617.438-.746zm12.305-16.451c-.026.129-.155.232-.31.232a.776.776 0 01-.694-.541.575.575 0 01.463-.746c.129-.026.283-.026.386.026.155.077.206.257.232.437 0 .052 0 .129-.026.18 0 .155-.026.284-.051.412zm-7.232.67a.4.4 0 01.54.077c.18.18.206.438.232.644v.051c.051.18.025.361-.103.489-.335.309-.927.103-1.004-.334a.9.9 0 01.334-.927zm-5.975 9.988c.463-.18 1.081-.051 1.442.309.154.129.206.309.231.464.026.077.052.128.078.206.128.643-.464 1.184-1.056 1.21-.566.025-1.158-.361-1.364-.876-.232-.566.128-1.107.669-1.313zm1.622 2.807c-.129-.155.051-.438.257-.438.103 0 .206 0 .31.052l.025.025c.232 0 .283.284.283.489 0 .181-.18.284-.309.258-.103-.026-.206-.026-.283-.077-.129-.078-.206-.206-.283-.309zm2.214 3.707c.078-.077.18-.103.284-.129.231-.026.463.232.566.463.026.052.026.103.051.181v.051a.62.62 0 01-.051.232c-.051.437-.644.669-1.004.334-.206-.18-.283-.514-.206-.798.026-.18.18-.283.36-.334z" fill="#fff"/><path d="M48.998 874.672c.31-.18.773.026 1.081.129.464.155.901.361 1.313.618.721.438 1.313.952 1.622 1.751.078.231-.103.128-.18.051-.515-.618-.978-1.107-1.725-1.519a6.405 6.405 0 00-1.133-.515c-.309-.103-.746-.103-1.004-.334-.051-.052-.025-.129.026-.181zm-7.775-1.88c.36-.18.824-.128 1.21-.128.464 0 1.159 0 1.596.077.953.154 1.7.18 2.626.695.078.051 0 .154-.103.154-.875-.103-1.364-.18-2.523-.36-.489-.077-.85-.026-1.364-.052-.412-.025-1.004 0-1.416-.051-.129-.026-.154-.257-.026-.335zm-6.848 2.755c.154-.129.283-.258.438-.386.308-.309.566-.567.9-.85.618-.54 1.365-.849 2.189-.824.103 0 .154.103.051.129-.618.283-1.055.412-1.75.927-.31.232-.901.695-1.185.952-.206.206-.514.593-.823.618-.078 0-.13-.077-.103-.128.025-.181.154-.335.283-.438zm-4.376 6.436c-.052.026-.129.026-.155-.052-.206-.283.103-.798.232-1.081a6.46 6.46 0 01.566-1.107c.412-.695.901-1.261 1.597-1.699.077-.051.206.026.154.103-.54.592-1.004 1.107-1.39 1.802a6.184 6.184 0 00-.515 1.107c-.154.283-.206.824-.49.927zm-1.647 6.642c-.052.129-.206.129-.258 0-.128-.283-.077-.644-.051-.952.026-.361.077-.721.154-1.082.155-.669.284-1.338.773-1.828.077-.077.103 0 .077.078-.155.721-.386 1.184-.515 1.853-.051.335-.077.67-.103 1.004-.026.283.026.618-.077.927zm-.387 2.06c.206 1.029.258 1.673.412 2.445.077.412.155.85.232 1.262.077.36.206.746.103 1.107-.026.077-.155.129-.206.051-.232-.309-.258-.669-.335-1.029-.077-.412-.154-.85-.206-1.262-.128-.824-.231-1.957-.154-2.574 0-.103.128-.078.154 0zm1.132 6.668c.129.231.155.566.232.824.103.36.257.669.438 1.004.154.309.334.617.514.952.13.232.31.541.206.798-.025.052-.077.103-.128.077-.284-.103-.387-.463-.515-.72-.18-.361-.335-.721-.49-1.082a4.801 4.801 0 01-.334-1.029c-.052-.258-.103-.593.026-.798-.026-.078.025-.078.051-.026zm2.497 5.457c.232.206.721.85 1.03 1.313.283.412.67.901.592 1.416 0 .078-.103.129-.154.078-.36-.387-.541-.927-.824-1.391a8.969 8.969 0 01-.747-1.39c-.051-.103.026-.103.103-.026zm3.091 3.913c.386.232.643.592.978.901.309.283.695.592.875.978.129.258-.206.464-.386.232a7.804 7.804 0 00-.824-1.004c-.309-.335-.592-.643-.772-1.055-.052-.103 0-.129.129-.052z" fill="#E3DCD5"/><path d="M71.318 882.318c-.309.155-.67.283-1.004.361-.026-.078-.026-.155-.051-.232.283-.077.566-.155.823-.283.644-.284 1.236-.721 1.57-1.365v-.026c.052.052.104.129.155.181-.334.618-.9 1.055-1.493 1.364zm-.025 3.655c-.412-.026-.85-.077-1.287-.154.051-.103.077-.206.103-.309.36.077.72.129 1.081.154.798.052 1.725.026 2.42-.463.335-.232.644-.515.953-.798.025.077.051.154.077.257a9.939 9.939 0 01-.798.67c-.721.592-1.648.669-2.549.643zm.463 1.854a6.408 6.408 0 01-2.24-1.055c.052-.103.104-.206.18-.309.619.515 1.391.849 2.163 1.081a5.916 5.916 0 003.141 0v.232c-1.03.309-2.162.309-3.244.051zm-5.998 3.09c.077-.103.154-.181.232-.258.051.129.128.258.18.386.463.876 1.132 1.622 1.853 2.24.979.824 2.189 1.493 3.45 1.828a2.208 2.208 0 01-.386.103c-1.184-.335-2.291-.953-3.244-1.751a7.973 7.973 0 01-1.982-2.368c-.052-.052-.077-.129-.103-.18zm6.436-10.633c-.129.206-.284.386-.438.566-.412.515-.875 1.004-1.442 1.365-.025.026-.077.051-.128.077-.026-.103-.052-.18-.078-.283.078-.026.13-.077.206-.129.515-.334.953-.798 1.34-1.287a8.85 8.85 0 00.385-.515c.052.077.103.129.155.206zm.978 11.586c-.953-.206-1.802-.644-2.6-1.21-.85-.618-1.648-1.391-2.343-2.189l-.026-.025c.077-.078.129-.155.206-.232.077.077.154.18.232.257.67.747 1.416 1.468 2.24 2.06 1.03.746 2.213 1.107 3.424 1.287-.026.077-.052.155-.078.206-.36 0-.72-.077-1.055-.154zm-4.3.617c-.875-.618-1.622-1.416-2.137-2.343l-.077-.154c.077-.077.18-.154.258-.232.025.078.077.155.128.232.49.927 1.236 1.699 2.086 2.291 1.21.85 2.703 1.339 4.196 1.442a1.292 1.292 0 01-.18.206c-1.545-.077-3.038-.567-4.274-1.442z" fill="#DA7015"/><path d="M71.035 889.836a7.957 7.957 0 01-2.29-1.983c.076-.102.154-.205.23-.283a7.407 7.407 0 002.138 1.957c1.08.669 2.317 1.03 3.552.978-.025.077-.025.155-.051.232-1.236.077-2.472-.258-3.579-.901zm3.245-6.282c-.593.54-1.365.901-2.163 1.132a6.206 6.206 0 01-1.828.206c.026-.077.026-.18.052-.257.54 0 1.055-.051 1.57-.154.824-.181 1.673-.541 2.291-1.107.026.051.052.128.077.18z" fill="#DA7015"/></svg>