<svg width="1920" height="1210" fill="none" xmlns="http://www.w3.org/2000/svg"><path d="M378.539 154.687C160.597 142.509 34.166 179.698-2.586 224.975c-10.877 254.289-26.105 782.895 0 862.985 32.632 100.11 658.474 135.42 803.34 76.29 144.867-59.14 357.256 51.94 811.826-124.9 411.35-160.031 314.49-377.645 314.49-559.727 0-182.081 32.61-252.103-35.02-309.714-84.55-72.012-501.43-220.136-744.11-152.776-106.85 29.657-156.596 0-296.162 0-129.615 0-200.812 152.776-473.239 137.554z" fill="#DFEEF1"/><path d="M1719.1 131.92c4.38.3 4.21 7.038.38 8.126-7.66 2.175-15.61 1.748-23 4.617-2.77 1.101-4.26-2.816-2.01-4.452 6.65-5.355 16.07-8.847 24.63-8.291zm7.91 25.397c-2.34-.923-1.44-4.119.39-4.786 7.59-2.826 16.56-9.166 24.75-4.879 3.99 2.122 3.51 8.368-.77 9.572-4.08 1.247-8.5 1.149-12.85 1.703-4.07.191-7.6-.139-11.52-1.61zm-12.84-45.923c.03.853-.1 1.46-.44 2.024-.66 1.129-1.93 2.127-3.43 2.23-7.68.266-14.39.952-21.3 4.558-2.37 1.187-5.74-1.861-3.4-3.901 6.73-5.76 15.94-11.204 25.17-8.812 1.98.634 3.18 1.949 3.4 3.901zm25.97 13.163c6.26-3.533 14.01-6.113 21.34-4.76 3.85.821 2.81 5.68-.48 6.247-6.19 1.219-12.6.487-18.91 2.314-2.49.74-4.32-2.613-1.95-3.801zm28.6 49.496c-2.85.451-5.78 1.307-8.67 1.96-.9.232-1.45-1.156-.91-1.677 1.64-1.765 4.22-2.91 6.5-3.692 2.08-.826 5.51-2 6.98.008 2.09 2.138-2.55 3.053-3.9 3.401zm-.24-18.68c7.68-4.286 16.3-7.951 25.34-6.658 1.46.1 2.86 1.458 3.21 2.803.27.693.35 1.344.17 2.154-.63 1.981-1.95 3.182-3.9 3.401-7.8.874-15.48 1.141-23.38 2.42-2.19.377-3.37-3.048-1.44-4.12zm65.31 10.341a181.48 181.48 0 0115.69-1.098c4.47-.105 9.22-.571 12.22 3.243 1 1.272.36 3.253-.86 4.049-3.49 2.432-8.01.831-11.95.415-4.99-.429-9.86-.411-14.93-.436-3.53-.329-4.07-5.736-.17-6.173zm-92.14 30.079c4.01-2.953 8.19-5.66 12.52-8.122 3.6-1.984 9.25-5.647 13.16-3.12 1.13.664 1.68 2.052.97 3.383-1.79 3.428-6.59 4.097-10.01 5.271-4.86 1.927-9.2 4.389-13.78 7.01-2.9 1.708-5.61-2.468-2.86-4.422zm44.55-10.39c5.95-2.116 12.27-3.943 18.57-4.715 3.91-.437 12.83-2.555 14.67 2.706 1.79 5.464-8.36 5.415-11.12 5.46-7.02.194-14.25.345-21.25 1.392-2.8.248-3.4-3.901-.87-4.843zm67.89 30.999c5.99-1.263 14.83-4.032 20.26.301 1.97 1.69.22 4.916-2.21 4.397-2.84-.605-5.63-1.412-8.55-1.612-3.12-.243-6.04-.443-9.01-.441-1.46-.1-2.04-2.34-.49-2.645zm-66.6 23.465c3.85-3.199 8.19-5.661 13.21-7.342 4.07-1.247 11.41-3.913 14.9-.417 1.04 1.069.94 2.529.08 3.614-2.36 3.096-8 2.74-11.54 3.465-4.64.915-9.32 2.032-13.41 4.335-2.3 1.838-5.58-1.615-3.24-3.655zm72.94-49.206c4.21-1.854 9.28-1.83 13.86-1.487 3.98.214 10.4-.11 12.75 3.778a2.628 2.628 0 01-.78 3.644c-3.24 2.272-8.73.253-12.42-.322-4.3-.705-8.92-.846-13.09-2.158-2.02-.432-2-2.543-.32-3.455zm-31.14 72.52c-5.68-.154-11.32-.51-16.87-1.272-3.13-.243-2.54-4.986.47-5.191 5.81-.453 11.75-1.514 17.68-1.519 4.27-.148 11.18-.79 13.39 3.705.76 1.431.5 2.645-.77 3.644-3.57 2.837-9.88.645-13.9.633zm54.59-29.628c4.72-4.283 11.14-4.607 16.98-4.207 6.04.443 15.98 1.505 18.66 7.792.71 1.633-.62 3.89-2.21 4.397-4.68 1.117-10.57-2.044-14.94-3.399-4.97-1.485-11.37-3.273-16.38-1.592-1.88.87-3.67-1.63-2.11-2.991zm-71.59 76.589c5.7-1.957 11.33-3.508 17.31-4.771 4.44-.958 11.16-2.699 14.89.638 1.09.866.99 2.327.12 3.412-2.89 3.617-9.42 3.492-13.53 3.886-5.61.496-11.3 1.398-16.84 2.545-3.79.885-5.63-4.377-1.95-5.71zm35.47-27.356c2.79-2.157 6.85-2.348 10.3-2.669 4.11-.394 9.23-.572 13.06 1.304 2.3 1.126 1.2 4.279-.99 4.657-3.7.48-7.96-.427-11.69-.8-3.52-.329-6.98-.008-10.35-.092-1.21-.26-1.07-1.922-.33-2.4zm6.3 30.979c6.99-1.047 13.99-2.094 20.89-1.681 5.44.314 13.43.539 16.82 5.495.95 1.474.32 3.455-1.47 3.919-4.98 1.479-10.95-1.277-15.94-1.707-6.61-.775-13.34-.943-20.17-.706-3.41.119-3.63-4.797-.13-5.32zm-21.49 51.085c4.41-1.811 8.69-3.015 13.33-3.929 3.74-.683 10.16-1.007 12.02 3.199.27.694-.15 1.663-.88 2.141-2.75 1.954-7.68.267-10.85.226-4.06.191-8.29 1.192-12.17 2.483-2.73.898-3.98-3.178-1.45-4.12zm52.3-3.023c-4.21-1.109-8.71-1.857-13-2.562-3.24-.691-2.05-5.305 1.03-4.859 5.15.675 10.34 1.148 15.36 2.43 3.8 1.024 9.14 2.798 9.94 6.99.23.896-.84 1.938-1.69 1.968-1.95.218-3.2-.894-4.93-1.688-2.39-.721-4.53-1.601-6.71-2.279zm-60.75 38.685c6.99-6.975 17.93-11.626 27.89-9.711 1.22.259 2.3 1.126 2.65 2.47 1.75 5.666-6.31 4.791-9.57 5.155-6.05.613-12.78 2.353-18.14 5.654-1.96 1.274-4.73-1.644-2.83-3.568zm42.13-14.929c-2.18-.677-1.98-3.598.21-3.976 8.14-1.438 25.61-1.944 29.79 7.204.6 1.185-.56 2.632-1.86 2.778-4.11.394-8.66-2.06-12.67-3.127-5.26-1.123-10.5-1.394-15.47-2.879zm-10.25 42.054c5.6-2.404 11.66-3.017 17.66-2.371 4.54.545 14.56 1.202 15.91 6.782.19 1.098-.07 2.313-1.01 2.748-4.05 2.1-9.73-1.019-13.78-1.883-5.67-1.209-12.08-1.941-17.82-.838-2.85.451-3.04-3.612-.96-4.438zm17.21 35.423c4.81-1.725 9.93-1.903 14.88-1.271 4.34.503 11.54 2.463 13.1 7.031.35 1.344-.36 2.675-1.7 3.023-3.63 1.131-7.29-1.555-10.44-2.652-4.73-1.644-9.59-2.681-14.43-1.809-3.05.407-4.34-3.467-1.41-4.322zm-5.17 23.239c6.55-.931 20.09-2.909 23.61 4.404.55 1.388-.4 2.878-1.79 3.429-3.02 1.26-6.69-.371-9.89-1.264-3.8-1.024-7.78-1.237-11.75-1.451-3.13-.243-3.43-4.754-.18-5.118zm26.16 61.889c-1.96-1.69-3.24-3.655-5.45-5.186-2.21-1.531-4.67-2.902-6.6-4.795-1.24-1.112-.52-3.498 1.18-3.557 6.09.24 13.96 4.036 16.03 10.194 1.02 3.18-2.91 5.728-5.16 3.344zm-219.68-436.573c-1.27.999-2.69.696-4.2.799-1.7.059-3.49.523-5.04.828-3.14.812-6.09 2.723-8.99 4.432-1.23.796-2.99-.851-2.08-2.138 2.15-3.139 5.34-5.21 9.01-6.543 2.98-1.058 9.01-2.523 11.61.149.89.824.67 1.836-.31 2.473zm-62.14-8.391c-3.1 1.665-7.08 1.452-10.35 2.871-3.51 1.579-6.27 4.589-8.22 7.772-1.37 2.459-5.16.38-3.79-2.079 2.37-4.152 5.37-7.321 9.51-9.826 3.39-2.027 9.1-3.983 12.65-1.745 1.33.707 1.43 2.211.2 3.007zM1875.36 265.6c5.83-1.508 11.19-1.845 17.15-.997 4.94.632 13.49 2.244 16.07 7.027.59 1.185.36 3.253-1.18 3.558-4.44.958-8.91-1.901-13.28-3.256-5.78-1.658-11.99-2.347-17.96-2.139-2.36.132-3.28-3.453-.8-4.193zm22.5 31.472c-2.47-.316-2.17-4.697.3-4.381 6.9.413 13.62 1.636 20.17 3.67 5.14 1.73 12.77 4.63 14.77 10.137.51 1.59-.81 2.791-2.22 2.489-4.99-.43-10.01-4.677-14.45-6.683a75.436 75.436 0 00-18.57-5.232zm2.55 44.573c-5.94-1.904-12.31-2.838-18.39-3.079-1.26-.057-1.81-1.444-.78-2.283 5.69-3.866 12.79-3.409 19.47-1.983 5.67 1.209 16.8 3.586 18.88 9.743.39 1.142-.2 2.921-1.55 3.269-2.64.494-4.78-.386-7.08-1.512a105.35 105.35 0 00-10.55-4.155zm-4.74 71.804c-5.94-1.903-11.97-3.402-17.92-5.305-2.59-.765-1.81-4.409.87-4.05 6.61.776 13.3 1.146 19.89 2.976 4.82 1.24 13.64 3.546 14.95 9.328.35 1.344-.36 2.675-1.86 2.778-2.36.132-4.26-.908-6.35-1.99-3.32-1.342-6.43-2.641-9.58-3.737zm-82.95-214.347c2.44-3.501 10.22-2.264 13.79-2.137 6.04.443 12.62.365 17.53 4.163 1.28.91.61 3.094-.74 3.442-5.38 1.393-10.8.024-16.19-.492-2.72-.157-5.44-.314-8.11-.673-1.87-.186-4.27.148-5.67-1.21-.89-.823-1.23-2.167-.61-3.093zm-26.17-67.817c4.91-3.185 11.94-3.379 17.58-3.022 5.84.4 13.1 1.102 17.55 5.016 1.45 1.156.57 3.296-1.18 3.558-5.2.583-10.25-1.553-15.44-2.025-5.8-.603-11.34.544-17.26.549-2.12-.027-3.17-3.005-1.25-4.076z" fill="#fff"/><path d="M295.698 1159.54a.31.31 0 010-.45c1.282-1.34 3.205.2 3.718 1.48.641 1.73-.449 3.72-1.346 5.06-.513.77-1.09 1.48-1.603 2.25-.513.77-1.282 1.73-1.09 2.75.256 1.54 2.821 1.93 3.847 2.76.833.64 1.731 1.86.961 2.82-.833 1.09-2.692.96-3.846.83-2.501-.25-6.86-1.02-6.86-4.23 0-2.05 1.154-4.1 1.987-5.96 1.154-2.63 2.693-4.93 4.232-7.31z" fill="#122528"/><path d="M274.222 1094.41c-.449-.26-.898-.51-1.347-.77-1.474-.77-3.013-1.54-4.295-2.63-.705-.58-1.667-1.79-.898-2.69.641-.77 2.116-.58 3.014-.51 1.346.12 2.692.51 3.974.83 2.308.58 4.488 1.54 6.604 2.63 1.602.83 3.205 1.73 4.679 2.75-3.91-.38-7.885-.32-11.731.39zm-7.821 2.5c-3.142 1.54-5.77 3.78-8.206 6.28l-.962.96c-.962-.19-1.923-.38-2.821-.64-1.667-.38-6.988-1.73-5.834-4.49.641-1.41 2.565-2.05 3.911-2.5 2.244-.77 4.68-.96 7.052-.77 2.372.13 4.68.52 7.052 1.09-.064 0-.128 0-.192.07zm-9.938 8.14c-2.051 2.31-3.846 4.81-5.449 7.44a31.5 31.5 0 00-1.539 2.88c-1.859.32-3.782.71-5.641.9-.898.06-2.052.13-2.821-.38-.897-.58-.769-1.67-.449-2.51 1.09-2.69 4.167-4.03 6.604-5.19 2.307-1.09 4.808-2.24 7.308-2.82.641-.19 1.282-.26 1.987-.32zm48.788-4.81c-3.526-2.24-7.501-3.84-11.54-4.87-.897-1.09-1.923-2.12-2.885-3.21-1.346-1.53-2.821-3.46-2.628-5.64 0-.25.192-.51.513-.51 2.82-.13 5.513.96 7.885 2.37 2.564 1.54 4.872 3.53 6.86 5.71a28.457 28.457 0 014.295 6.02c.385.71.769 1.48 1.026 2.31-.385-2.63-.77-5.32-.257-8.01.064-.26.321-.39.513-.39 1.731-.12 2.821 1.35 3.526 2.7.962 1.86 1.475 3.97 1.795 6.02.257 1.61.513 3.27.513 4.94 0 .38 0 1.6-.256 2.5-2.244-3.98-5.321-7.44-9.36-9.94zm-59.109 23.53c-.898 2.95-1.475 6.03-1.859 9.1-.321 2.63-.449 5.26-.513 7.89-1.346 1.54-3.077 2.63-5.193 2.63a.577.577 0 01-.577-.58c.321-6.35 2.628-15.06 8.142-19.04zm-1.795 29.49c.064-.19.128-.38.256-.58 0 .26.064.45.064.71.705 5.19 1.731 10.32 3.59 15.13-.064.7-.192 1.34-.32 1.99-.257 1.09-.577 2.3-1.347 3.14-.705.77-1.666.45-2.243-.26-.962-1.15-1.347-2.76-1.539-4.23-.321-1.8-.385-3.66-.385-5.51.064-3.53.577-6.99 1.924-10.39zm6.86 21.48c1.09 1.86 2.308 3.65 3.59 5.38-.064 2.5-.064 4.94-1.154 7.25-.064.19-.321.25-.513.19-3.847-1.09-2.757-7.05-2.372-9.87.192-1.03.385-1.99.449-2.95zm11.667 13.33c1.539 1.16 3.206 2.18 4.937 2.95.192.9.128 1.86-.193 2.76-.449 1.09-1.346 1.79-2.5 1.6-1.218-.19-2.18-1.47-2.821-2.37-.769-1.09-1.346-2.31-1.603-3.59-.192-1.03-.256-2.12-.256-3.21.769.58 1.603 1.22 2.436 1.86zm11.18 11.85c1.538 1.15 3.205 2.18 4.936 2.95.193.89.128 1.86-.192 2.75-.449 1.09-1.346 1.8-2.5 1.61-1.218-.2-2.18-1.48-2.821-2.38-.769-1.09-1.346-2.3-1.603-3.59-.192-1.02-.256-2.11-.256-3.2.769.58 1.602 1.22 2.436 1.86z" fill="#FFCE33"/><path d="M277.663 1206.27c1.631-1.54.927-3.55-.307-4.98 1.815.19 3.608.58 5.233 1.41 1.625.82 2.864 2.59 1.74 4.34-1.075 1.68-3.751 1.15-5.356.72-.834-.21-1.682-.49-2.466-.77.41-.22.821-.45 1.156-.72z" fill="#FFCE33"/><path d="M272.362 1158.77c.834.2 1.283 1.16 1.539 1.86.962 2.44 1.154 5.26 1.346 7.82.064 1.03.129 1.99.321 3.02.064.64.385 1.22.833 1.66.641.65 1.859.26 2.565 0 1.282-.38 2.692-.89 3.846 0 1.09.84.834 2.57.128 3.59-1.089 1.61-3.526 1.74-5.257 1.74-1.987 0-4.038-.45-5.128-2.25-.577-.96-.705-2.11-.834-3.2-.192-1.54-.32-3.08-.384-4.62-.129-2.31-.257-4.62-.193-6.92-.256.06-.577-.13-.577-.45 0-1.03.385-2.57 1.795-2.25z" fill="#122528"/><path d="M243.577 1132.75c.898-7.38 3.142-14.49 6.924-20.9 2.052-3.47 4.552-6.67 7.309-9.56 2.5-2.56 5.128-4.87 8.398-6.41 6.154-2.95 13.335-3.59 20.002-2.95 6.86.64 13.847 2.7 19.745 6.35 5.834 3.65 9.617 9.23 12.245 15.45 2.821 6.92 4.231 14.62 3.847 22.12a34.885 34.885 0 01-1.026 6.73c.321.26.449.7.128 1.09-.256.26-.513.64-.705.96-.064.26-.192.51-.256.77a.348.348 0 01-.321.19c-.385.64-.705 1.35-1.026 1.93a58.334 58.334 0 01-3.269 5.12c-2.308 3.27-5.065 6.16-8.206 8.72-3.27 2.63-7.052 5.07-11.091 6.22-4.359 1.22-8.975 1.22-13.399 1.48-3.398.19-7.052.45-10.257 1.66-1.218.45-2.436 1.16-3.206 2.18-.897 1.16-1.09 2.63-1.025 4.04.128 1.8.769 3.21 1.859 4.62 1.025 1.28 2.244 2.5 3.205 3.78 1.346 1.8 7.88 21.51 5.636 22.92-1.346.84-9.29-13.55-10.7-14-2.244-.71-3.911-4.94-5.77-6.29-5.321-3.91-9.617-9.23-12.694-15-3.398-6.35-4.936-13.34-5.898-20.39-1.09-6.86-1.346-13.85-.449-20.83z" fill="#356F7C"/><path d="M284.671 1154.35c.77-.71 1.924-.9 2.949-.96 1.731-.13 3.462.13 5.129.32-.384-.26-.769-.45-1.154-.64-1.218-.71-2.436-1.35-3.654-2.12-1.923-1.22-4.039-3.08-3.398-5.58.705-2.88 3.719-4.1 6.347-4.35 2.757-.26 5.77.19 8.398 1.15-1.474-2.05-3.077-3.98-4.359-6.22-1.41-2.5-2.436-5.45-.641-8.01 1.603-2.38 4.744-2.7 7.372-2.5 2.565.19 5.065.89 7.501 1.73-.897-.96-1.731-2.05-2.564-3.08-1.667-2.24-3.334-4.74-4.039-7.44-.513-2.11 0-4.36 2.18-5.25 2.436-1.03 5.321.12 7.5 1.28a27.06 27.06 0 015.514 3.78c.705.64 1.474 1.35 2.115 2.05-.513-2.95-.897-5.9-1.346-8.84-.32-2.25-1.282-6.09 1.475-7.18 1.282-.52 2.307.7 2.949 1.6.961 1.41 1.602 3.14 2.115 4.74 1.539 4.55 2.5 9.3 4.424 13.66 1.346 3.01 2.5 6.09 4.231 8.84 1.154 1.86 3.205 4.56 4.68 6.16 2.051 2.18 3.526 3.33 6.283 5.06 3.141 1.99 6.154 4.23 9.103 6.48 1.282.96 2.5 1.99 3.334 3.4.897 1.54 1.346 3.39 1.538 5.13.385 3.52-.769 6.98-2.692 9.93-3.975 6.03-10.963 10-18.015 11.09-8.526 1.35-17.438-.45-25.772-2.37-3.975-.96-8.077-2.37-11.86-3.91-4.231-1.67-7.308-3.65-10.321-6.41-1.475-1.35-2.629-2.24-4.039-3.72-1.475-1.47-1.86-3.2-2.18-4.94 0-1.02.128-2.11.897-2.88z" fill="#E3DCD5"/><path d="M321.79 1168.9c-2.116-3.27-3.59-6.92-4.039-10.83 0-.13-.064-.32-.064-.45-.064-.32.513-.38.577-.06 1.218 6.98 5.578 14.29 11.924 17.75 2.565 1.42 5.578 2.31 8.463 2.83.32.06.641.12 1.026.12-.513.13-.962.2-1.475.26-1.026.19-2.051.26-3.013.38-1.731-.57-3.398-1.28-5.065-2.05-3.526-1.66-6.282-4.74-8.334-7.95zm-12.436-25.7a.48.48 0 01.449-.33c.833.13 1.218 1.03 1.73 1.54.577.64 1.283 1.16 1.988 1.61 1.41.89 3.077 1.41 4.808 1.53 3.526.26 6.86-1.41 9.039-4.16.193-.26.642.06.449.38-1.987 3.34-5.706 5.13-9.488 5-1.859-.06-3.654-.57-5.321-1.47a8.899 8.899 0 01-2.308-1.8c-.577-.51-1.667-1.47-1.346-2.3z" fill="#122528"/><path d="M345.062 1151.59c-2.115-1.47-4.295-3.65-4.359-5.38-.064-1.48.833-2.82 1.859-3.91 1.218-1.35 2.693-2.5 3.975-3.78 1.346-1.29 2.628-2.7 3.718-4.17 2.244-3.01 3.526-6.41 3.27-10-.128-1.8-.641-3.72-1.539-5.32-.577-1.03-1.218-2.06-1.667-3.15-.384-.89-.641-2.11.257-2.94 1.025-.9 2.436-.32 3.462.32 2.885 1.79 5.192 4.36 6.923 7.05 1.924 2.88 3.142 6.6 3.719 10.26.705 4.8.192 9.68-1.282 14.36-1.09 3.33-3.206 6.73-6.732 8.39-3.59 1.67-10.065-.64-11.604-1.73z" fill="#FFCE33"/><path d="M321.727 1126.4c.769.51 1.09 1.41 1.282 2.24.064.26.128.65.128 1.09.257 1.54-.064 2.89-1.282 2.76-.128 0-.32-.06-.448-.13-1.026-.25-1.795-1.6-2.116-3.01-.064-.19-.064-.32-.128-.51-.128-.77-.128-1.86.449-2.44.641-.58 1.41-.45 2.115 0zm1.666-3.27c.064-.06.128-.13.192-.19 0-.07.064-.13.064-.19.385-.84 1.411-.84 1.988-.2.513.58.641 1.41.449 2.18.064.58-.193 1.16-.834 1.29-.32.06-.577 0-.833-.13-.193-.07-.385-.13-.513-.32-.577-.52-.962-1.73-.513-2.44zm-8.077-2.69c.512.64.897 1.73.897 2.63 0 .7-.513 1.34-1.282 1.41-.898 0-1.731-.9-2.244-1.48-.769-.96-1.474-2.43-.385-3.4 1.026-1.02 2.372 0 3.014.84zm13.911 8.85c.834.25 1.603 1.02 1.988 1.73.128.25.256.44.256.7.385.83.321 1.86-.705 2.18-.898.26-1.795-.32-2.5-.9-.641-.57-1.347-1.41-1.282-2.37.128-1.02 1.218-1.6 2.243-1.34zm3.142 7.11c.577.07.898.58 1.09 1.09.128.26.128.58.064.9v.19c0 .58-.449 1.15-1.09 1.09-.641-.06-1.025-.51-1.41-.96-.385-.51-.449-1.09-.192-1.6.384-.71 1.025-.77 1.538-.71zm-44.043 21.35c.769-.71 1.923-.51 2.628.19.064 0 .064.07.129.13.576.51.705 1.22.641 1.92.256.9-.257 1.93-1.218 2.12a2.352 2.352 0 01-2.629-1.54c-.385-.96-.32-2.12.449-2.82zm7.308 7.76c-.128-.52.129-1.03.642-1.16.256-.06.512 0 .705.07.192.06.384.19.448.32.065.06.129.06.193.13.577.57.705 1.73.32 2.43-.256.45-.705.52-1.154.45-.384-.06-.705-.38-.897-.7-.257-.32-.321-.77-.321-1.16 0-.06 0-.19.064-.38 0 .06 0 0 0 0zm-.64-7.44c.833-.32 1.538.06 2.051.7.128.13.257.33.321.58v.13c.128.45.128.96-.129 1.41-.192.39-.641.64-1.089.64h-.257c-.577.32-1.282.32-1.731-.32-.256-.38-.256-.83-.256-1.28.192-.64.32-1.54 1.09-1.86zm30.643-40.97c-.064.32-.385.58-.769.58-.834-.06-1.475-.58-1.731-1.35-.257-.83.256-1.73 1.154-1.85.32-.07.705-.07.961.06.385.19.513.64.577 1.09 0 .13 0 .32-.064.45 0 .38-.064.7-.128 1.02zm-18.014 1.67c.449-.32 1.026-.19 1.346.19.449.45.513 1.09.577 1.61v.13c.128.44.064.89-.256 1.21-.834.77-2.308.26-2.501-.83-.192-.9.129-1.8.834-2.31zm-14.874 24.88c1.154-.45 2.693-.13 3.59.76.385.33.513.77.577 1.16.064.19.128.32.192.51.321 1.6-1.153 2.95-2.628 3.01-1.41.07-2.885-.89-3.398-2.18-.577-1.41.321-2.75 1.667-3.26zm4.039 6.98c-.321-.38.128-1.09.641-1.09.256 0 .513 0 .769.13l.064.07c.577 0 .706.7.706 1.21 0 .45-.449.71-.77.64-.256-.06-.513-.06-.705-.19-.32-.19-.513-.51-.705-.77zm5.514 9.24c.192-.2.449-.26.705-.33.577-.06 1.154.58 1.41 1.16.064.13.064.26.129.45v.13c0 .19-.065.44-.129.57-.128 1.09-1.602 1.67-2.5.84-.513-.45-.705-1.29-.513-1.99.064-.45.449-.71.898-.83z" fill="#fff"/><path d="M300.25 1102.61c.769-.44 1.923.07 2.692.33 1.154.38 2.244.89 3.27 1.53 1.795 1.09 3.269 2.38 4.039 4.36.192.58-.257.32-.449.13-1.282-1.54-2.436-2.76-4.295-3.78-.898-.51-1.86-.96-2.821-1.28-.769-.26-1.859-.26-2.5-.84-.129-.12-.064-.32.064-.45zm-19.361-4.68c.897-.45 2.051-.32 3.013-.32 1.154 0 2.885 0 3.975.2 2.372.38 4.231.44 6.539 1.73.192.12 0 .38-.256.38-2.18-.26-3.398-.45-6.283-.9-1.218-.19-2.116-.06-3.398-.12-1.026-.07-2.5 0-3.526-.13-.32-.07-.385-.64-.064-.84zm-17.053 6.86c.384-.32.705-.64 1.089-.96.77-.77 1.411-1.41 2.244-2.11 1.539-1.35 3.398-2.12 5.45-2.06.256 0 .384.26.128.33-1.539.7-2.629 1.02-4.36 2.3-.769.58-2.243 1.73-2.949 2.38-.513.51-1.282 1.47-2.051 1.53-.192 0-.321-.19-.257-.32.065-.45.385-.83.706-1.09zm-10.899 16.03c-.128.06-.32.06-.384-.13-.513-.7.256-1.99.576-2.69.385-.96.834-1.86 1.411-2.76 1.026-1.73 2.244-3.14 3.975-4.23.192-.13.513.07.384.26-1.346 1.47-2.5 2.75-3.462 4.49-.512.89-.961 1.79-1.282 2.75-.384.71-.513 2.05-1.218 2.31zm-4.103 16.54c-.128.32-.513.32-.641 0-.32-.7-.192-1.6-.128-2.37.064-.9.192-1.8.385-2.69.384-1.67.705-3.34 1.923-4.56.192-.19.256 0 .192.2-.384 1.79-.961 2.95-1.282 4.61-.128.84-.192 1.67-.256 2.5-.064.71.064 1.54-.193 2.31zm-.961 5.13c.513 2.56.641 4.17 1.026 6.09.192 1.03.384 2.11.577 3.14.192.9.512 1.86.256 2.76-.064.19-.385.32-.513.13-.577-.77-.641-1.67-.833-2.57a51.323 51.323 0 01-.513-3.14c-.321-2.05-.577-4.87-.385-6.41 0-.26.321-.19.385 0zm2.82 16.6c.321.58.385 1.41.577 2.06.257.89.641 1.66 1.09 2.5.385.77.833 1.53 1.282 2.37.321.58.769 1.34.513 1.99-.064.12-.192.25-.32.19-.706-.26-.962-1.16-1.283-1.8-.448-.89-.833-1.79-1.218-2.69-.384-.83-.641-1.67-.833-2.56-.128-.65-.257-1.48.064-1.99-.064-.19.064-.19.128-.07zm6.219 13.59c.577.52 1.795 2.12 2.564 3.27.705 1.03 1.667 2.25 1.475 3.53 0 .19-.257.32-.385.19-.898-.96-1.346-2.31-2.052-3.46-.705-1.09-1.346-2.24-1.859-3.46-.128-.26.064-.26.257-.07zm7.693 9.75c.962.58 1.603 1.47 2.436 2.24.769.71 1.731 1.48 2.18 2.44.32.64-.513 1.15-.962.58-.641-.9-1.282-1.73-2.051-2.5-.77-.84-1.475-1.61-1.924-2.63-.128-.26 0-.32.321-.13z" fill="#E3DCD5"/><path d="M355.833 1121.65c-.769.39-1.667.71-2.5.9-.064-.19-.064-.38-.128-.57.705-.2 1.41-.39 2.051-.71 1.603-.71 3.077-1.8 3.911-3.4v-.06c.128.13.256.32.384.45-.833 1.54-2.243 2.63-3.718 3.39zm-.065 9.11a28.683 28.683 0 01-3.205-.39c.128-.25.192-.51.256-.77.898.2 1.795.32 2.693.39 1.987.13 4.295.06 6.026-1.16.834-.57 1.603-1.28 2.372-1.98.064.19.129.38.193.64-.641.58-1.283 1.15-1.988 1.67-1.795 1.47-4.103 1.66-6.347 1.6zm1.155 4.61a16.027 16.027 0 01-5.578-2.62 4.4 4.4 0 01.449-.77c1.539 1.28 3.462 2.11 5.385 2.69 2.5.7 5.321.7 7.821 0v.58c-2.564.77-5.385.77-8.077.12zm-14.938 7.7c.193-.26.385-.45.577-.64.129.32.321.64.449.96 1.154 2.18 2.821 4.04 4.616 5.58 2.436 2.05 5.449 3.71 8.591 4.55-.321.13-.642.19-.962.25-2.949-.83-5.706-2.37-8.078-4.36a19.864 19.864 0 01-4.936-5.89c-.128-.13-.193-.32-.257-.45zm16.027-26.48c-.32.51-.705.96-1.09 1.41-1.025 1.28-2.179 2.5-3.59 3.4-.064.06-.192.13-.32.19-.064-.26-.129-.45-.193-.7.193-.07.321-.2.513-.32 1.282-.84 2.372-1.99 3.334-3.21.32-.38.641-.83.962-1.28.128.19.256.32.384.51zm2.437 28.85c-2.372-.51-4.488-1.6-6.475-3.01-2.116-1.54-4.103-3.46-5.834-5.45l-.064-.07c.192-.19.32-.38.513-.57.192.19.384.45.577.64 1.666 1.86 3.526 3.65 5.577 5.13 2.564 1.86 5.513 2.75 8.527 3.2-.065.19-.129.39-.193.52-.897 0-1.795-.2-2.628-.39zm-10.707 1.54c-2.179-1.54-4.038-3.53-5.321-5.84-.064-.12-.128-.25-.192-.38.192-.19.449-.38.641-.58.064.2.192.39.321.58 1.218 2.31 3.077 4.23 5.192 5.71 3.014 2.11 6.732 3.33 10.45 3.59-.128.19-.256.32-.449.51-3.846-.19-7.564-1.41-10.642-3.59z" fill="#DA7015"/><path d="M355.128 1140.38a19.887 19.887 0 01-5.706-4.94c.192-.26.385-.51.577-.71a18.489 18.489 0 005.321 4.88c2.693 1.66 5.77 2.56 8.847 2.43-.064.19-.064.39-.128.58-3.077.19-6.155-.64-8.911-2.24zm8.077-15.65c-1.474 1.35-3.397 2.25-5.385 2.82-1.474.39-3.013.58-4.551.52.064-.2.064-.45.128-.64 1.346 0 2.628-.13 3.91-.39 2.052-.45 4.168-1.35 5.706-2.76.064.13.128.32.192.45z" fill="#DA7015"/><path fill-rule="evenodd" clip-rule="evenodd" d="M1743.72 956.504c.7-.1 1-.7 1.4-1 1.7-1.4 3.5-2.5 5.7-2.9 1.9-.3 3.7 0 5 1.5 1.4 1.7 1.7 3.7.9 5.7-1 2.5-2.8 4.3-5.1 5.6-2 1.1-4.2 2.1-6.4 2.9-1.4.5-1.4.5-1.4 2.1 0 3 .1 6 .1 9 0 1.8-.1 1.9-1.9 1.9-2.8.1-2.7.1-2.8-2.7l-.3-19.2c-.1-4.6.3-9.2.4-13.8 0-1.7.3-1.8 2-1.9h.7c1.5.1 1.6.2 1.6 1.6 0 2.6-.1 5.2 0 7.8 0 1.2-.2 2.3.1 3.4z" fill="#6CB4B8"/><path fill-rule="evenodd" clip-rule="evenodd" d="M1737.42 921.503c.3-1.4.5-2.6.8-3.8.2-1 .5-2 1-2.9 1.4-2.3 3.8-2.4 5.4-.3.7 1 1.2 2 1.4 3.2.3 1.2.5 2.4.8 3.6.1.4 0 .8.4 1.3.8-2 1.4-3.9 2.5-5.6.6-1.1 1.4-2 2.4-2.8 2-1.5 4.2-1.4 6.1.2 1.8 1.5 2.6 3.5 3 5.8.5 3.5-.1 6.9-1.4 10.1-2.7 6.5-7 11.5-13 15.2-4.6 2.8-8.7 2.4-12.3-1.6-6-6.5-8.8-14.2-8.5-23.1 0-.8.2-1.6.5-2.3 1.1-2.5 3.3-3.3 5.7-2 1.5.8 2.6 2 3.6 3.4.5.4.7 1.1 1.6 1.6z" fill="#DA7015"/><path fill-rule="evenodd" clip-rule="evenodd" d="M1726.01 977.29c.19-.028.28-.197.39-.282.48-.396.99-.706 1.61-.819.54-.085 1.05 0 1.42.423.39.481.48 1.046.25 1.611-.28.706-.79 1.214-1.44 1.582-.57.31-1.19.593-1.81.819-.39.141-.39.141-.39.593 0 .848.02 1.695.02 2.543 0 .508-.02.537-.53.537-.79.028-.77.028-.79-.763l-.09-5.424c-.03-1.3.09-2.599.11-3.899 0-.48.09-.508.57-.537h.2c.42.029.45.057.45.452 0 .735-.03 1.469 0 2.204 0 .339-.06.65.03.96z" fill="#6CB4B8"/><path fill-rule="evenodd" clip-rule="evenodd" d="M1724.23 967.402c.08-.395.14-.734.22-1.073.06-.283.14-.565.29-.82.39-.649 1.07-.678 1.52-.084.2.282.34.565.4.904.08.339.14.678.22 1.017.03.113 0 .226.12.367.22-.565.39-1.102.7-1.582.17-.311.4-.565.68-.791.56-.424 1.19-.396 1.72.056.51.424.74.989.85 1.639.14.989-.03 1.949-.4 2.853-.76 1.837-1.97 3.249-3.67 4.294-1.3.791-2.46.678-3.47-.452-1.7-1.836-2.49-4.011-2.4-6.525 0-.226.05-.452.14-.65.31-.707.93-.933 1.61-.565.42.226.73.565 1.01.96.15.113.2.311.46.452z" fill="#DA7015"/><path fill-rule="evenodd" clip-rule="evenodd" d="M1713.51 952.435c.3-.042.42-.296.59-.423.72-.594 1.49-1.06 2.42-1.229.8-.127 1.57 0 2.12.635.59.721.72 1.568.38 2.416-.42 1.059-1.19 1.822-2.16 2.373-.85.466-1.78.89-2.71 1.229-.6.212-.6.212-.6.89 0 1.271.05 2.542.05 3.814 0 .762-.05.805-.81.805-1.19.042-1.14.042-1.19-1.144l-.12-8.137c-.05-1.949.12-3.898.17-5.848 0-.72.12-.762.84-.805h.3c.64.043.68.085.68.678 0 1.102-.04 2.204 0 3.306 0 .508-.09.974.04 1.44z" fill="#6CB4B8"/><path fill-rule="evenodd" clip-rule="evenodd" d="M1710.84 937.603c.13-.593.21-1.101.34-1.61.08-.424.21-.847.42-1.229.6-.974 1.61-1.017 2.29-.127.3.424.51.848.59 1.356.13.509.22 1.017.34 1.526.05.169 0 .339.17.551.34-.848.6-1.653 1.06-2.374.26-.466.6-.847 1.02-1.186.85-.636 1.78-.593 2.58.085.77.635 1.11 1.483 1.28 2.458.21 1.483-.05 2.923-.6 4.28-1.14 2.754-2.96 4.873-5.51 6.441-1.95 1.186-3.68 1.017-5.21-.678-2.54-2.755-3.73-6.018-3.6-9.789 0-.339.08-.678.21-.975.47-1.059 1.4-1.398 2.42-.847.63.339 1.1.847 1.52 1.44.21.17.3.467.68.678z" fill="#DA7015"/></svg>