<svg width="1920" height="1129" fill="none" xmlns="http://www.w3.org/2000/svg"><path opacity=".5" d="M437.368 33.376C355.388-6.19 104.687-23.524 52.464 55.94-17.02 161.666-1.526 331.829-1.526 395.648v232.429C-1.526 736.91 1920 1298.89 1920 1078.05V250.437c0-89.834-80.83-179.076-408.9-120.037-68.51 12.329-917.271-21.51-1073.732-97.024z" fill="url(#paint0_linear)"/><path d="M350.158 506.86c-1.7-.4-2.2 1.3-2.9 2.5-1.9 3.8-4.4 7.4-7.3 10.6 2-6.1 4.6-11.8 7-17.8.7-1.6 3.9-12.3-1.2-10.3-3.1 1.1-4.8 6.2-6 8.9-1.7 4-3.7 7.9-5.4 11.9-.1-3-.1-6 .1-9 .1-1.4-1.6-1.9-2.5-1.1-1.3 1-1.7 4.7-2.1 6.2-1.2 4.9-2.1 9.9-1.8 14.9.2 2.8.4 8.6 4.6 7.8 1.2-.2 2.2-1.4 3.1-2.1 1.7.8 4-.9 5.2-1.8 5.8-4.2 8.9-11.5 10.8-18.1.5-1.2-.5-2.3-1.6-2.6zm95.3-3.4c2-2 8-5.2 8.7-7.9.8-3.6-3-2.9-4.8-2-6.4 3.2-13.6 7.2-17 13.8-5.2 3.3 1.6 7 4.4 8.3 4 1.9 8.2 2.6 12.6 2.4 2-.1 10.6 0 7.5-4.3-1.4-2-9.2-1.4-11.8-2.2 3.5-1.4 7.1-2.6 10.6-3.8 2.5-.9 9.9-2.6 10.6-5.7.8-4.8-18.7.7-20.8 1.4zm-63.399-25.3c.1-.1.1-.1 0 0zm15.899 5.6c-1.2.8-1.6 2.9-2.5 4.1-1.1 1.4-2.5 2.7-3.9 3.9 2-5.4 3.8-10.8 6.2-16 1-2.2 5.4-7.7.8-8.7-6.3-1.3-13.2 18.9-15.3 23.2-1.4-3.8-2.1-7.4-1.3-11.4.5-2.9-4.2-4.4-5.2-1.5-1.2 3.7-1.5 7.7-1 11.5s4.1 21.1 10.9 15.7c5.3-1.1 12.6-10 14.3-15.1.7-1.8.8-8.4-3-5.7z" fill="#FFCE33"/><path d="M382.058 478.16c0 .1-.1.3-.1.7.1-.4.1-.6.1-.7z" fill="#FFCE33"/><defs><linearGradient id="paint0_linear" x1="958.239" y1="975.567" x2="958.239" y2="93.653" gradientUnits="userSpaceOnUse"><stop stop-color="#D8F1F7"/><stop offset="1" stop-color="#BEDCE3" stop-opacity="0"/></linearGradient></defs></svg>