<svg width="1920" height="464" fill="none" xmlns="http://www.w3.org/2000/svg"><path d="M1250 121.733c142.87 18.617 246.51 13.22 309.5-12.439 124.99-54.818 273.51-10.501 360.5 12.437v169.972c-65.99 81.06-342.13 112.97-431.96 136.461-123.14 32.198-698.824-51.028-892.424 0C392.237 481.769 152.313 466.205-78 439.768l71.669-229.124c92.492-89.225 514.955-40.239 601.947-28.576 86.992 11.664 149.894-31.76 261.384-60.335 111.49-28.576 236.94-20.337 393 0z" fill="#DFEEF1"/><path fill-rule="evenodd" clip-rule="evenodd" d="M396.478 288.112c.413-1.073.743-1.982 1.156-2.89.496-1.156 1.074-2.312 1.9-3.221 1.156-1.238 2.807-1.651 4.129-.991 1.238.578 1.982 2.147 1.734 3.717-.248 1.651-.909 3.22-1.569 4.789-.083.248-.248.496-.33.743-.578 1.404-.579 1.404.908 1.57 1.569.082 3.138.412 4.625.908.412.165.825.33 1.156.496 1.404.825 2.147 1.981 1.982 3.633-.165 1.569-1.322 2.312-2.726 2.725-1.403.413-2.725.496-4.211.248-1.156-.248-1.404 0-1.074 1.239.331 1.569.743 3.055 1.156 4.624.166.744.166 1.487-.082 2.23-.826 2.147-3.304 2.725-4.79.908-.991-1.073-1.486-2.394-1.899-3.716-.248-.66-.413-1.321-.661-2.064-.578.247-.826.826-1.074 1.238-1.073 1.404-2.064 2.808-3.385 3.964a6.602 6.602 0 01-1.735 1.239c-2.312.991-4.624-.661-4.542-3.138.083-1.239.578-2.312 1.074-3.386.413-.826.908-1.651 1.404-2.56-.661-.413-1.156-.165-1.652-.082-1.321.165-2.56.33-3.881.082-.909-.165-1.817-.495-2.478-1.074-1.816-1.486-1.982-3.798-.413-5.45 1.9-1.982 4.377-2.725 7.102-2.642.496 0 1.074.33 1.652-.083-.248-.743-.826-1.239-1.239-1.817-1.156-1.569-2.064-3.221-2.395-5.12-.33-1.569.083-2.89 1.404-3.716 1.322-.909 2.643-.578 3.799.248 2.065 1.486 3.469 3.468 4.46 5.698-.083.578 0 1.073.495 1.651zm1.156 11.066c.661-.578 1.156-1.156 1.734-1.651.661-.578.248-1.239.166-1.817-.083-.661-.661-.413-1.074-.496-.991-.082-1.734-.578-2.395-1.321-.165-.248-.33-.413-.661-.33-.33.165-.412.578-.247.826.908 1.651.908 3.551 2.477 4.789z" fill="#FFCE33"/><path fill-rule="evenodd" clip-rule="evenodd" d="M402.136 294.81c.146 3.544-2.969 5.41-5.647 5.69-1.168.093-2.288-.047-3.359-.606-1.46-.793-2.191-2.006-2.239-3.592 0-.513-.049-1.026-.146-1.539-.487-2.845 1.071-5.177 3.894-5.969 2.824-.793 5.745.513 6.865 3.031.389.933.681 2.005.632 2.985z" fill="#fff"/><path fill-rule="evenodd" clip-rule="evenodd" d="M338.201 244.971c.661-1.721 1.191-3.176 1.852-4.632.794-1.853 1.721-3.706 3.044-5.161 1.853-1.985 4.5-2.647 6.617-1.588 1.985.926 3.176 3.441 2.779 5.955-.397 2.647-1.456 5.161-2.514 7.675-.133.397-.397.794-.53 1.191-.926 2.25-.926 2.25 1.456 2.515 2.514.132 5.029.661 7.411 1.455.661.265 1.323.53 1.853.795 2.249 1.323 3.44 3.176 3.176 5.822-.265 2.515-2.118 3.706-4.368 4.367-2.249.662-4.367.794-6.749.397-1.852-.397-2.249 0-1.72 1.985.529 2.515 1.191 4.897 1.853 7.411.264 1.191.264 2.382-.133 3.573-1.323 3.441-5.293 4.367-7.675 1.456-1.588-1.72-2.382-3.838-3.044-5.955-.397-1.059-.662-2.118-1.059-3.309-.926.397-1.323 1.324-1.72 1.985-1.72 2.25-3.308 4.5-5.426 6.353a10.607 10.607 0 01-2.779 1.985c-3.705 1.588-7.411-1.059-7.278-5.029.132-1.985.926-3.706 1.72-5.426.662-1.323 1.456-2.647 2.25-4.102-1.059-.662-1.853-.265-2.647-.133-2.117.265-4.102.53-6.22.133-1.455-.265-2.911-.794-3.97-1.721-2.911-2.382-3.176-6.087-.661-8.734 3.043-3.176 7.013-4.367 11.381-4.235.794 0 1.72.53 2.646-.132-.397-1.191-1.323-1.985-1.985-2.911-1.853-2.515-3.308-5.161-3.838-8.205-.529-2.514.133-4.632 2.25-5.955 2.117-1.456 4.235-.927 6.088.397 3.308 2.382 5.558 5.558 7.146 9.131-.133.926 0 1.72.794 2.647zm1.852 17.733c1.059-.927 1.853-1.853 2.78-2.647 1.058-.926.396-1.985.264-2.911-.132-1.059-1.059-.662-1.72-.794-1.588-.133-2.779-.927-3.838-2.118-.265-.397-.529-.662-1.059-.529-.529.264-.661.926-.397 1.323 1.456 2.647 1.456 5.691 3.97 7.676z" fill="#FFCE33"/><path fill-rule="evenodd" clip-rule="evenodd" d="M347.268 255.703c.234 5.68-4.759 8.67-9.049 9.118-1.873.15-3.667-.075-5.383-.971-2.341-1.271-3.511-3.214-3.589-5.755 0-.822-.078-1.644-.234-2.467-.78-4.559 1.716-8.295 6.241-9.566 4.525-1.27 9.206.822 11 4.858.624 1.495 1.092 3.214 1.014 4.783z" fill="#fff"/><path fill-rule="evenodd" clip-rule="evenodd" d="M354.831 184.825c-.041-.998-.091-1.836-.075-2.702-.003-1.091.059-2.212.404-3.22.494-1.385 1.668-2.283 2.948-2.212 1.186.034 2.319 1.028 2.662 2.363.372 1.401.386 2.879.401 4.357.019.225-.027.48-.007.706.023 1.317.023 1.317 1.264.937 1.278-.475 2.642-.753 3.997-.87.386-.011.772-.021 1.092-.004 1.403.175 2.394.839 2.831 2.212.409 1.307-.256 2.298-1.232 3.11a7.861 7.861 0 01-3.27 1.649c-1.007.201-1.119.484-.429 1.357.804 1.136 1.645 2.178 2.515 3.286.388.535.644 1.127.702 1.805.082 1.995-1.692 3.309-3.503 2.374-1.159-.514-2.009-1.396-2.793-2.307-.425-.441-.785-.91-1.238-1.417-.375.397-.373.943-.429 1.357-.371 1.488-.677 2.948-1.331 4.325a5.76 5.76 0 01-.955 1.584c-1.501 1.586-3.912 1.067-4.7-.935-.361-1.015-.336-2.041-.311-3.067.044-.801.154-1.629.236-2.524-.668-.101-.978.267-1.344.504-.996.586-1.926 1.145-3.064 1.403-.78.181-1.618.231-2.344-.002-1.959-.558-2.887-2.343-2.207-4.2.831-2.233 2.549-3.679 4.748-4.552.395-.171.969-.107 1.288-.635-.454-.507-1.085-.703-1.613-1.021-1.462-.852-2.755-1.854-3.673-3.254-.803-1.136-.93-2.331-.162-3.444.74-1.179 1.907-1.371 3.112-1.112 2.157.473 3.959 1.568 5.516 3.003.134.489.37.856.964 1.146zm4.734 8.417c.327-.688.523-1.319.813-1.913.327-.688-.23-1.072-.495-1.504-.293-.498-.668-.102-1.026-.025-.818.275-1.58.137-2.363-.228-.217-.14-.405-.215-.64-.035-.206.245-.13.603.087.743 1.293 1.003 1.947 2.516 3.624 2.962z" fill="#FFCE33"/><path fill-rule="evenodd" clip-rule="evenodd" d="M361.647 188.211c1.338 2.773-.502 5.333-2.539 6.479-.898.476-1.839.751-2.885.674-1.437-.128-2.436-.843-3.021-2.09a7.21 7.21 0 00-.647-1.175c-1.368-2.099-.93-4.494 1.046-6.098 1.976-1.605 4.753-1.571 6.513.05.632.609 1.234 1.363 1.533 2.16z" fill="#fff"/><path fill-rule="evenodd" clip-rule="evenodd" d="M1857.72 97.427c.7-.1 1-.7 1.4-1 1.7-1.4 3.5-2.5 5.7-2.9 1.9-.3 3.7 0 5 1.5 1.4 1.7 1.7 3.7.9 5.7-1 2.5-2.8 4.3-5.1 5.6-2 1.1-4.2 2.1-6.4 2.9-1.4.5-1.4.5-1.4 2.1 0 3 .1 6 .1 9 0 1.8-.1 1.9-1.9 1.9-2.8.1-2.7.1-2.8-2.7l-.3-19.2c-.1-4.6.3-9.2.4-13.8 0-1.7.3-1.8 2-1.9h.7c1.5.1 1.6.2 1.6 1.6 0 2.6-.1 5.2 0 7.8 0 1.2-.2 2.3.1 3.4z" fill="#6CB4B8"/><path fill-rule="evenodd" clip-rule="evenodd" d="M1851.42 62.427c.3-1.4.5-2.6.8-3.8.2-1 .5-2 1-2.9 1.4-2.3 3.8-2.4 5.4-.3.7 1 1.2 2 1.4 3.2.3 1.2.5 2.4.8 3.6.1.4 0 .8.4 1.3.8-2 1.4-3.9 2.5-5.6.6-1.1 1.4-2 2.4-2.8 2-1.5 4.2-1.4 6.1.2 1.8 1.5 2.6 3.5 3 5.8.5 3.5-.1 6.9-1.4 10.1-2.7 6.5-7 11.5-13 15.2-4.6 2.8-8.7 2.4-12.3-1.6-6-6.5-8.8-14.2-8.5-23.1 0-.8.2-1.6.5-2.3 1.1-2.5 3.3-3.3 5.7-2 1.5.8 2.6 2 3.6 3.4.5.4.7 1.1 1.6 1.6z" fill="#DA7015"/><path fill-rule="evenodd" clip-rule="evenodd" d="M1830.01 128.214c.19-.028.28-.198.39-.282.48-.396.99-.707 1.61-.82.54-.084 1.05 0 1.42.424.39.48.48 1.046.25 1.611-.28.706-.79 1.214-1.44 1.582-.57.31-1.19.593-1.81.819-.39.141-.39.141-.39.593 0 .848.02 1.695.02 2.543 0 .508-.02.536-.53.536-.79.029-.77.029-.79-.762l-.09-5.424c-.03-1.3.09-2.6.11-3.899 0-.48.09-.509.57-.537h.2c.42.028.45.057.45.452 0 .735-.03 1.469 0 2.204 0 .339-.06.649.03.96z" fill="#6CB4B8"/><path fill-rule="evenodd" clip-rule="evenodd" d="M1828.23 118.326c.08-.395.14-.734.22-1.073.06-.283.14-.565.29-.82.39-.649 1.07-.678 1.52-.084.2.282.34.565.4.904.08.339.14.678.22 1.017.03.113 0 .226.12.367.22-.565.39-1.102.7-1.582.17-.311.4-.565.68-.791.56-.424 1.19-.396 1.72.056.51.424.74.989.85 1.639.14.989-.03 1.949-.4 2.853-.76 1.836-1.97 3.249-3.67 4.294-1.3.791-2.46.678-3.47-.452-1.7-1.836-2.49-4.011-2.4-6.526 0-.226.05-.452.14-.649.31-.707.93-.933 1.61-.565.42.226.73.565 1.01.96.15.113.2.311.46.452z" fill="#DA7015"/><path fill-rule="evenodd" clip-rule="evenodd" d="M1852.51 150.639c.3-.043.42-.297.59-.424.72-.594 1.49-1.06 2.42-1.229.8-.127 1.57 0 2.12.635.59.721.72 1.568.38 2.416-.42 1.059-1.19 1.822-2.16 2.373-.85.466-1.78.89-2.71 1.229-.6.212-.6.212-.6.89 0 1.271.05 2.542.05 3.814 0 .762-.05.805-.81.805-1.19.042-1.14.042-1.19-1.144l-.12-8.137c-.05-1.949.12-3.898.17-5.847 0-.721.12-.763.84-.806h.3c.64.043.68.085.68.678 0 1.102-.04 2.204 0 3.306 0 .508-.09.974.04 1.441z" fill="#6CB4B8"/><path fill-rule="evenodd" clip-rule="evenodd" d="M1849.84 135.807c.13-.594.21-1.102.34-1.611.08-.424.21-.847.42-1.229.6-.974 1.61-1.017 2.29-.127.3.424.51.848.59 1.356.13.509.22 1.017.34 1.526.05.169 0 .339.17.551.34-.848.6-1.653 1.06-2.373.26-.467.6-.848 1.02-1.187.85-.636 1.78-.593 2.58.085.77.635 1.11 1.483 1.28 2.458.21 1.483-.05 2.924-.6 4.28-1.14 2.754-2.96 4.873-5.51 6.441-1.95 1.186-3.68 1.017-5.21-.678-2.54-2.755-3.73-6.018-3.6-9.789 0-.339.08-.678.21-.975.47-1.059 1.4-1.398 2.42-.847.63.339 1.1.847 1.52 1.441.21.169.3.466.68.678z" fill="#DA7015"/><path d="M1846.25 314.007c-2.72-2.011-6.64-1.405-9.52.011-3.64 1.864-6.56 4.813-9.92 7.112-2.72 1.749-7.81 3.323-9.49-.698-1.21-3.139.93-7.635 2.1-10.484 1.47-3.355 3.04-6.724 5-9.905 2.23-3.803 3.73-7.75 1.35-11.8-1.93-3.168-5.92-2.201-8.57-.813-5.94 3.208-9.95 8.76-15.33 12.721-2.05 1.431-5.29 3.715-7.77 1.79-2.73-2.127-.43-7.231.57-9.588 2.62-6.319 7.24-13.592 1.86-19.971-4.54-5.309-12.61-2.189-16.82 1.744-1.48 1.359-2.68 3.036-4.01 4.612-1.85 2.11-3.96 4.019-6.36 5.493-4.89 3.194-11.55 2.613-15.32-2.204-2.82-3.761-.17-8.908 1.74-12.437 1.91-3.528 4.69-6.694 5.73-10.584 1.61-5.958-.17-13.609-6.46-15.997-7.89-3.011-14.73 4.304-18.84 9.986-2.51 3.485-4.88 7.071-8.16 9.947-2.45 2.068-7.27 4.901-10.36 2.701-2.57-1.794-2.73-5.887-2.48-8.62.32-3.095 1.72-5.972 2.02-9.183.69-5.842-.37-14.288-7.34-15.535-7.69-1.391-11.99 6.547-15.32 11.897-1.95 3.181-3.95 6.015-7.68 7.185-4.74 1.531-8.33-2.722-11.19-5.89-1.76-1.895-3.53-3.79-4.52-6.134-.87-2.242.01-4.584 1.31-6.391 2.09-3.08 5.34-5.248 7.28-8.545 2.32-4.048 3.65-10.324.79-14.433-1.72-2.488-4.83-2.923-7.64-2.808-4.77.36-9.12 3.135-13.51 4.739-5.18 1.82-10.9 1.124-12.68-4.647-1-3.283-.98-6.928-.7-10.37.01.116.16.333.17.449.33.781 1.71.492 1.59-.434-.43-3.471-.05-6.103 2.88-7.996 2.72-1.749 6.02-2.63 8.75-4.263 6.93-3.801 9.54-12.116 6.05-19.319-1.44-3.11-4.23-5.7-7.53-6.699-3.41-.985-7.11.417-10.61.618-3.62.216-7.25-.624-9.63-3.735-2.11-2.792-3.88-8.447-.92-11.165 2.43-2.183 6.36-2.673 9.27-3.858 3.24-1.344 6.4-3.266 9.2-5.376 5.15-3.932 11.43-11.06 5.51-17.02-5.92-6.076-15.37-1.727-22.56-4.708-3.71-1.535-8.01-4.877-8.87-8.999-1.1-5.033 4.22-8.517 8.26-10.077 4.37-1.72 8.94-2.76 12.54-5.91 3.08-2.617 5.38-6.781 5.21-10.99-.3-8.07-10.67-7.365-16.21-6.557-2.66.332-6.44 1.155-8.78-.668-3.35-2.402-.49-7.694 1.74-9.617 2.85-2.588 6.52-4.22 9.37-6.808 2.43-2.183 4.04-5.321 4.82-8.473.9-3.167 1.23-7.086-.54-10.037-1.78-2.951-5.22-4.167-8.42-3.416-3.53.91-6.77 3.193-9.27 5.738-1.78 1.75-3.57 4.323-3.6 6.911a19.77 19.77 0 00-2.56-1.678c-.38-.188-1.06.014-1.12.491-3.15 8.618-1.35 18.381.33 27.102.93 4.7 1.97 9.271 2.68 14 .94 5.641 1.07 11.382 1.06 17.023.06 12.683-1.57 25.105-2.11 37.745-.49 12.047 1.24 24.051 3.88 35.824 1.37 6.291 3.08 12.424 4.43 18.6 1.38 6.291 2.4 12.626 3.54 18.946 2.18 11.831 5.01 23.228 9.68 34.279 3.19 7.709 6.95 15.231 12.86 21.191 6.84 6.785 15.99 9.522 24.9 12.172 9.26 2.606 18.58 4.851 27.14 9.424 9.07 4.863 15.18 13.383 23.86 18.882 7.78 4.905 16.48 7.815 25.41 9.641 10.86 2.288 21.75 2.929 32.74 4.379 4.54.609 9.09 1.334 13.36 2.564 3.05.913 5.71 2.461 8.28 4.255 2.82 1.881 5.66 3.878 8.75 5.137 2.59.97 5.34 1.333 8.19 1.565.42.535 1.14.68 1.66.145.35-.043.71.03 1.05-.014.94.001 1.21-.737.99-1.532 3.4-1.952 7.62-2.008 10.98-4.306 2.7-1.865 4.27-5.35 4.45-8.546.82-2.921-.15-5.973-2.61-7.781z" fill="#FFCE33"/><path d="M1836.99 319.86c-3.35-2.401-7.31-4.023-10.97-6.034-4.67-2.591-8.45-6.468-12.71-9.579-8.92-6.525-18.91-11.272-28.51-16.656-9.98-5.571-19.26-12.169-28.65-18.637-8.98-6.048-18.26-11.706-28.19-15.991-10.43-4.458-21.71-6.342-32.74-9.079-9.1-2.274-17.21-6.08-24.22-12.374-6.1-5.584-10.51-12.672-13.81-20.252-3.97-9.257-6.38-19.179-8.55-29.014-2.68-12.12-4.8-24.428-6.45-36.678-1.79-12.467-3.11-24.991-4.32-37.53-1.03-11.035-2.42-22.258-2.51-33.293-.04-8.807.25-17.774-2.22-26.278-1.05-3.746-2.93-7.507-5.73-10.212-2.94-2.807-6.83-4.79-10.66-6.31-14.69-5.689-30.87-3.554-46.18-1.882-2.54.317-5.14.172-7.66.72-3.31.766-6.28 2.428-8.69 4.727-5.4 4.785-8.51 11.87-9.28 18.898-.86 7.274 1.15 14.896 6.4 20.235 2.01 1.982 4.23 3.82 7.11 4.283 2.63.377 5.25-.302 7.87-.98 8.19-2.196 15.78-6.315 23.17-10.173 5.41-2.79 10.75-6.157 16.43-8.628.29 5.134.69 10.253.63 15.43-.03 6.35-.29 12.727-.31 19.192 0 12.22-.37 24.368-.14 36.56.26 11.483.86 22.923 1.23 34.391.27 11.599.54 23.197.83 34.912.66 23.183 1.79 46.424 5.7 69.319 1.79 10.586 4.14 20.985 8.31 30.807 4.34 10.385 9.94 20.38 12.61 31.445.92 3.645 1.15 7.376 2.19 11.006 1.06 3.746 2.68 7.304 4.28 10.747 3.05 6.552 6.56 13.047 7.92 20.163-8.72.734-18.15 5.2-21.31 13.818-.36.868.35 1.837 1.27 1.722 9.33-.576 18.44-1.946 27.67-3.331 7.04-.996 14.01-1.63 21.04-2.741 4.04-.62 8.75-1.443 11.5-4.84 3.06-3.788 1.77-9.386.18-13.652 9.23-2.325 18.92-1.888 28.28-4.112.4 1.36.67 2.618.51 4.165-4.07 2.154-8.12 4.538-11.63 7.56-1.59 1.373-4.02 3.556-3.96 5.899.03 2.111 2.04 2.213 3.57 2.257 4.6.132 9.13-.315 13.62-.993 3-.49 5.85-1.198 8.81-1.92 2.98-.606 5.99-.981 9-1.356 5.55-.693 11.47-1.312 16.92-2.814 2.95-.838 5.09-2.515 7.03-4.872 1.94-2.356 4.18-4.163 6.81-5.666 5.28-2.891 11.17-4.682 16.94-6.459 7.02-2.167 14.18-4.116 21.18-6.399 6.66-2.123 13.32-4.363 19.52-7.369 4.66-2.225 9.58-5.188 12.43-9.656 1.19-1.793 1.98-3.889 2.05-6.131.01-2.82-1.16-4.672-3.61-6.365z" fill="#6CB4B8"/><path d="M1557.69 53.051c3.27-.172 5.53-2.804 6.95-5.565 1.14-2.14 2.14-5.437.56-7.708-1.14-1.62-3.19-1.13-4.62-.364-1.75 1.041-2.64 3.384-2.39 5.35.1.81 1.37.652 1.27-.158-.06-1.403.74-2.56 1.81-3.398.54-.42 1.77-.925 2.21-.158.77 1.432-.37 3.572-1.03 4.945-.66 1.258-1.75 2.921-3.21 3.456-.16-.333-.42-.536-.79-.724-1.29-.897-2.81.115-2.74 1.634.05.347-.01.824.03 1.17.13 1.042 1.14 1.621 1.95 1.52zm45.07-7.027c.36.072.72.145 1.09.217.96.232 1.96-.245 2.73-.693 1.63-1.026 3.89-3.658 2.13-5.553-.81-.839-2.04-1.273-3.36-1.462-.61-.16-1.18-.087-1.65-.03l-.57.073c-2.19.39-4 1.907-3.35 4.294.39 1.244 1.64 2.734 2.98 3.154z" fill="#122528"/><path d="M1761.28 316.724c-2.6 1.735-5.09 3.455-7.69 5.189-.22.145-.32.275-.55.304-6.63 5.29-13.11 10.798-20.15 15.554-4.39 3.483-8.8 6.736-13.73 9.583-.09.246-.06.477-.14.723-.05.593-1 .477-.96-.116-.88.463-1.45-.29-1.55-1.1-.33.159-.68.203-1.02.246-.34.159-.65.434-1.1.607-.55.303-.93.115-1.3-.073-.34.159-.54.419-.87.578-1.3.868-2.69-.839-1.53-1.924 3.58-3.267 7.32-6.317 11.06-9.251.12-.015.1-.131.22-.145-.02-.116.09-.246.19-.376 5.34-7.128 12.05-12.664 19.17-17.781 1.69-1.504 3.4-2.892 5.1-4.279 10.45-8.587 21.43-16.653 33.46-22.853 1.48-1.359 2.95-2.718 4.56-3.975 0 0 .11-.015.13.101 1.13.564 2.27 1.244 3.4 1.809-1.09.723-2.17 1.445-3.27 2.052-.1.13-.19.376-.29.506-1.8 1.634-3.72 3.166-5.64 4.699.21-.145.44-.174.66-.318 3.26-2.169 6.63-4.351 10.03-6.302.88.477 1.88.94 2.76 1.418-.67.318-1.32.752-1.97 1.185-2.68 2.096-5.48 4.091-8.29 6.086-.1.13-.22.144-.32.274 3.82-2.356 7.76-4.726 11.72-6.865 1.63.854 3.27 1.708 4.92 2.677-12.7 6.518-25.07 13.817-37.01 21.767zm-34.62 20.061l-.24.029c-.21.144-.42.405-.63.549.33-.159.66-.318.87-.578zm82.08 4.339c-.71 2.791-1.32 5.452-1.9 8.344-.11.015-.33.159-.45.173a97.4 97.4 0 01-2.15.622c.72-3.616 1.56-7.245 2.53-10.774.97-3.528 2.06-7.071 3.14-10.614-2.51 7.129-4.89 14.475-6.69 21.749-.91.231-1.8.578-2.6.794 1.55-7.36 3.35-14.634 5.39-21.821-.17.492-.35.983-.52 1.475a708.167 708.167 0 01-3.49 9.717c-.73 3.615-1.33 7.216-1.96 10.701-.56.188-1.02.246-1.59.434.15-.723.28-1.562.42-2.285-.24.853-.5 1.59-.75 2.444-.91.231-1.81.577-2.72.808.41-1.46.91-3.051 1.43-4.526 1.84-6.926 4.14-13.911 6.59-20.678.64-2.429 1.28-4.859 1.91-7.288-3.18 9.327-6.27 18.523-9.21 27.937-.5 1.591-1.01 3.181-1.5 4.888-.8.216-1.59.433-2.39.65l6.39-19.478c.34-.984.58-1.953.92-2.936.09-.246.18-.491.26-.737-2.56 6.782-5.25 13.462-7.57 20.331-.26.737-.52 1.475-.66 2.198-.07.361-.15.723-.22 1.084-1.03.246-1.92.592-2.95.838.26-.738.41-1.461.67-2.198 1.15-4.844 2.43-9.703 4.08-14.374 1.72-5.032 4.28-9.934 6.6-14.922-1.14 1.2-2.1 2.964-2.76 4.222-1.83 3.282-3.15 6.853-4.46 10.425-2.1 5.784-3.54 12.19-6.5 17.613-.12.014-.35.043-.45.173-.91.231-1.69.563-2.6.795-.02-.116.08-.246.05-.478 0-.94.02-1.764.02-2.704-.57 1.128-1 2.357-1.56 3.485-.8.216-1.58.549-2.38.765 1.54-3.716 3.2-7.331 4.74-11.047 1.33-6.276 3.73-12.451 6.32-18.061.92-2.111 1.96-4.121 2.98-6.246-2.56 3.961-5.12 7.923-7.45 11.856-3.62 7.736-6.61 15.747-8.52 23.975-.79.332-1.58.549-2.36.881.58-2.892 1.29-5.683 2.23-8.503-1.39 2.993-2.53 6.073-3.68 9.153-.56.188-1.11.492-1.68.68 2.47-7.592 5.79-14.822 9.63-21.762 5.96-14.374 14.25-27.979 22.99-40.819 1.65.97 3.3 1.94 4.85 3.039-.6.897-1.06 1.894-1.54 2.776.02.116.13.102.15.217.46-.997 1.04-2.009 1.5-3.007.77.492 1.42.998 2.19 1.49-.34 1.099-.79 2.213-1.12 3.312.45-1.114.8-2.097 1.13-3.196.77.492 1.42.998 2.07 1.505l2.73 2.127c-.61 1.72-1.33 3.456-1.94 5.176.73-1.735 1.35-3.34 2.09-4.959.92.824 1.96 1.634 2.89 2.459-3.87 10.469-7.72 21.054-10.57 32.102zm-4.21-31.905c-1.99 3.89-3.97 7.779-5.82 11.77a7.1 7.1 0 012.11-.968c.88-2.342 1.87-4.815 2.75-7.158.44-1.229.77-2.328.96-3.644zm-.35-7.477a226.313 226.313 0 00-7.94 12.623c2.66-4.092 5.42-8.314 7.94-12.623zm34.27 30.744c1.18-1.793 1.98-3.889 2.05-6.131.11-2.95-1.08-4.917-3.52-6.61a35.342 35.342 0 00-3.56-2.142c.27 6.898-.38 13.912-1.16 20.825 2.38-1.59 4.61-3.513 6.19-5.942zm-224-60.676c.32-.274.64-.549.97-.708-.33.159-.65.434-.98.593-.12-.926-.36-1.953-.48-2.878-.33-1.722-.55-3.457-.88-5.178.33-.159.67-.318.88-.463 3.29-1.936 6.56-3.989 9.84-5.926-3.63 1.98-7.25 4.076-10.73 6.273-.16-1.273-.45-2.647-.61-3.919.22-.145.42-.405.64-.55-.23.029-.45.174-.68.203-.12-.926-.22-1.736-.33-2.662 2.83-.823 5.51-1.979 8.18-3.135 4.2-3.108 8.67-5.897 13.05-8.441-7.01 3.107-13.78 6.3-20.34 10.29-.31.274-.76.448-1.08.722-.16-1.272-.32-2.545-.46-3.702a37.52 37.52 0 013.45-2.428c-1.21.621-2.31 1.228-3.53 1.849-.05-.462-.12-1.041-.18-1.504 1.42-.881 2.96-1.662 4.39-2.428 5.75-2.948 11.69-5.216 17.64-7.485 1.33-.636 2.77-1.286 4.1-1.922 6.98-3.454 13.93-7.023 21.07-10.145 2.22-.982 4.45-1.965 6.79-2.962a42.437 42.437 0 005.84 6.322c2.78 2.474 5.74 4.572 8.91 6.41-10.69 5.68-21.67 10.926-32.47 16.62-10.46 7.531-20.46 15.944-32.39 21.074-.17-1.389-.45-2.647-.61-3.92zm35.53-29.808c2.68-1.156 5.34-2.427 8.02-3.583.88-.463 1.75-1.041 2.63-1.504-3.13 1.33-6.25 2.659-9.48 4.119-.43.289-.85.694-1.17.968zm-3.39 8.647c-5.26 3.007-10.24 6.447-15.21 9.887 4.81-2.833 9.65-5.55 14.49-8.151 1.72-1.272 3.46-2.429 5.19-3.585 7.16-4.77 15.18-8.354 22.76-12.588-9.35 4.219-18.36 9.22-27.23 14.437zm-6.72-3.979c.65-.434 1.29-.983 1.94-1.417-6.77 3.194-13.32 7.183-20.21 10.391-.53.42-.97.709-1.5 1.128 6.48-3.628 13.12-6.923 19.77-10.102zm-24.85-175.854c6.43-3.975 13.16-7.515 20.2-10.39.13 1.98.26 3.962.28 5.958a244.28 244.28 0 01-7.43 4.567c2.46-1.011 5.04-2.037 7.5-3.049-.03 1.649.05 3.283.02 4.932-1.21.621-2.56 1.141-3.79 1.647.37.073.77.492.81.84l3-1.431c.03.231-.06.477-.02.824-.03 1.649.06 3.283.16 5.033-9.76 3.684-19.47 7.831-29.27 11.168-.03-2.111.06-4.237.14-6.363.45-.173.8-.216 1.25-.39 1.33-.636 2.77-1.286 4.12-1.806-1.81.578-3.5 1.141-5.31 1.719.04-1.533.1-2.95.03-4.469 2.23-.982 4.34-1.95 6.55-3.049 2.04-1.547 4.07-3.209 6.22-4.77-1.88.94-3.76 1.879-5.62 2.934-2.39 1.59-4.78 3.18-7.03 4.87.06-1.416.01-2.704.07-4.12 2.37-1.707 5.24-3.239 8.12-4.655zm8.27.38c3.51-1.966 7.03-3.932 10.4-6.114-1.35.52-2.68 1.156-3.89 1.777-2.32 1.228-4.36 2.775-6.51 4.336zm-3.86 33.145c5.93-1.444 11.66-3.568 17.54-5.36.26 3.024.65 6.148.91 9.17.14 1.157.17 2.329.33 3.601-.45.174-.91.231-1.36.405.47-.058.91-.231 1.38-.289.15 2.213.44 4.527.72 6.725-4.01.852-8.03 1.588-11.92 2.426-6.99 1.458-13.94 3.147-20.9 4.837-.03-4.932-.05-9.863.03-14.809a88.835 88.835 0 017.61-3.064c-2.5.665-5 1.329-7.36 2.211-.12.014-.12.014-.22.144.03-.709.08-1.301-.01-1.996 4.34-1.951 9.14-3.019 13.25-4.001zm14.58.063c-5.23 1.473-10.3 3.164-15.36 4.97-3.82 1.416-7.64 2.831-11.45 4.363 1.02-.361 2.03-.722 3.04-1.084 5.05-1.921 10.2-3.973 15.42-5.446.23-.029.45-.174.68-.202 2.81-1.055 5.51-1.98 8.35-2.803l.11-.015a2.25 2.25 0 00-.79.217zm11.13 60.065c-.12-.925-.35-1.837-.47-2.762-6.59 2.702-13.35 5.071-19.96 7.658-5.71 2.239-11.37 4.942-17.21 7.08 0 .94 0 1.88.01 2.936 5.96-2.153 11.72-4.986 17.43-7.225 6.84-2.615 13.6-4.985 20.2-7.687zm-36.11 57.257c-.11-.926-.11-1.866-.23-2.791l.35-.044c6.69-1.892 13.22-4.232 19.78-6.226-6.61 1.647-13.35 4.132-20.07 5.793-.19-5.265-.39-10.645-.57-15.909l6.03-2.514c-2.06.491-4.1 1.097-6.15 1.588-.06-.462 0-.94-.06-1.402 5.57-1.517 11.14-3.033 16.74-4.319 8.18-3.135 16.54-5.822 25.12-7.713.43 1.591.75 3.196 1.2 4.903-2.16.621-4.2 1.228-6.35 1.849 2.17-.506 4.34-1.011 6.39-1.502 1.19 4.787 2.59 9.43 4.32 13.914-.68.202-1.34.52-1.91.708-7.2 2.543-14.74 4.304-22.1 6.514-7.46 2.341-14.87 5.144-22.49 7.151zm15.61-18.043l-1.62.202c-4.38 1.604-8.65 3.193-13.04 4.681 4.88-1.314 9.73-2.976 14.66-4.883zm4.57 1.78c4.43-1.256 8.97-2.527 13.39-3.784.8-.216 1.47-.534 2.26-.751l-4.28.533-.93.116c-1.79.693-3.47 1.373-5.26 2.066-1.69.563-3.37 1.243-5.18 1.82zm39.16 110.505c-.21.26-.54.419-.89.462-2.01 2.718-3.89 5.538-5.41 8.43-.85 1.633-3.34.533-2.49-1.1 2.09-4.02 4.68-7.75 7.53-11.278 6.9-12.493 16.75-23.003 25.85-33.89 2.9-4.121 5.66-8.343 8.69-12.362-.84.81-1.68 1.619-2.54 2.313-7.79 9.079-15.33 18.361-23.01 27.426-4.48 6.55-9.34 12.796-15.66 17.696-2.37 2.646-4.87 5.191-7.38 7.735-1.26 1.214-3.19-.189-2.21-1.722 3.46-5.248 7.18-10.294 11.03-15.239-.42.405-.96.824-1.49 1.243-.42.405-1.13.376-1.65-.029-2.97 3.542-7.19 8.298-12.02 8.195-.71-.029-1.16-.795-1-1.403 1.01-5.061 3.73-9.63 6.99-13.678-.03-.232.06-.478.26-.738 12.34-17.87 27.95-33.093 44.4-47.246 1.65-1.85 3.18-3.687 4.85-5.421l6.9 1.607c-1.13 1.316-2.28 2.516-3.4 3.832-3.2 3.571-6.51 7.156-9.71 10.727 4.92-4.843 9.85-9.57 14.8-14.182 4.36 1.101 8.73 2.201 12.93 3.794-9.02 11.58-19.2 22.25-28.62 33.411-4.91 5.899-9.97 11.465-15.14 17.161a123.056 123.056 0 01-11.61 14.256zm4.52-20.303s-.11.13 0 0c-1.23 1.445-2.36 2.761-3.48 4.192l3.39-3.947s-.02-.115.09-.245zm-1.39-12.048a1861.479 1861.479 0 00-16.4 16.38c-.11.13-.22.144-.22.144-2.75 3.398-5.11 7.099-6.35 11.25 2.25-.752 4.44-3.021 5.9-4.496 5.21-5.349 9.34-11.74 13.4-17.885 1.31-1.691 2.48-3.6 3.67-5.393zm6.24-4.654c3.08-3.557 6.26-7.244 9.34-10.8-.42.405-.94.939-1.36 1.344l-.1.13c-2.68 3.036-5.47 6.087-7.88 9.326zm17.44-12.75c-2.52 2.429-4.9 4.959-7.16 7.59-2.78 3.167-5.31 6.42-7.84 9.673 1.46-1.475 2.91-3.065 4.37-4.54 1.81-2.458 3.85-4.945 5.9-7.316 1.43-1.706 3.08-3.556 4.73-5.407zm11.92-2.425c.74-.68 1.46-1.475 2.2-2.154 3.04-2.964 6.06-6.043 8.81-9.441-1.71 1.388-3.3 2.761-5.01 4.149-2.05 2.371-4.09 4.858-6 7.446zm-13.01 18.189c2.97-3.543 6.06-6.983 9.04-10.41a87.572 87.572 0 00-6.2 6.766c-.62.665-1.23 1.446-1.74 2.097-.4.52-.69 1.026-1.1 1.547zm-86.76-115.381c.09 2.574.16 5.033.24 7.607 9.43-4.465 19.34-7.933 29.26-11.284 2.64-.563 5.17-.996 7.8-1.559-.16-1.273-.43-2.531-.61-3.92-2.47.896-5.07 1.69-7.55 2.586-9.76 1.804-19.62 3.739-29.14 6.57zm17.77-23.364a379.91 379.91 0 0116.24-4.492c.29 2.314.56 4.512.97 6.812.13 1.041.24 1.967.37 3.008-8.57 2.832-17.43 5.345-26.03 7.945 8.79-2.036 17.51-4.65 26.15-7.019.27 2.198.66 4.382 1.05 6.566-.23.029-.35.043-.56.188-.68.202-1.48.419-2.17.505-11.1 3.38-22.35 6.428-33.67 8.897-.05-.347.03-.709 0-.94-.06-2.343-.13-4.802-.19-7.145.12-.014.33-.159.45-.173.43-.289.75-.564 1.2-.737a63.129 63.129 0 016.18-3.237c-1.72.332-3.44.664-5.18.88-.68.202-1.37.289-2.05.491-.24.029-.45.173-.8.217-.07-2.459-.24-4.787-.32-7.246.57-.188 1.15-.26 1.71-.448 5.44-1.618 11.04-2.903 16.65-4.072zm-9.2 16.657c2.96-.722 5.93-1.444 8.77-2.152l5.82-1.429c3.86-1.069 7.61-2.124 11.47-3.192-4.36.895-8.71 1.79-12.92 2.902-1.7.448-3.3.881-4.89 1.314l-6.46 1.863c-.54.42-1.12.492-1.79.694zm11.05-9.368c-3.84 1.301-7.67 2.601-11.34 4.234 7.36-2.21 14.74-4.305 22.08-6.63l-.81.101c-1.5.187-2.87.476-4.36.779-1.26.274-2.62.679-4 .967-.56.188-1.12.376-1.57.549zm85 171.059c1.61-2.198 3.23-4.28 4.85-6.362-6.05 7.099-12.13 13.966-18.98 20.226-.1.13-.1.13-.22.145-2.13 2.732-4.27 5.349-6.51 8.096-1.11 1.431-2.97-.218-2.08-1.621.69-1.026 1.26-2.154 1.95-3.18-1.04 1.069-2.69.1-2.28-1.361 1.42-4.642 3.7-8.922 6.38-12.898-.75.564-1.52 1.012-2.29 1.46-1.33.636-2.12-1.027-1.54-2.039 7.12-11.698 17.23-21.066 26.98-30.506 8.1-11.35 16.71-22.41 26.82-31.778.77.492 1.54.984 2.42 1.462-5.5 4.915-10.46 10.351-15.15 16.105 2.5-2.544 5.12-5.103 7.74-7.662 2.72-2.689 5.32-5.364 7.8-8.139.76.492 1.53.984 2.17 1.374-.41.521-.93 1.056-1.35 1.46.54-.419 1.06-.954 1.59-1.373 2.04 1.274 4.09 2.663 6.02 3.95 3.34 2.287 6.56 4.587 9.89 6.758-4.17 4.279-8.49 8.226-12.94 12.187-16.49 18.505-32.71 37.329-50.11 55.126-.74.679-1.58.549-2.11.028l-.96.824c-.95.824-2.02-.218-1.79-1.187-.41-.419-.49-1.114-.1-1.75 1.1-1.547 2.08-3.079 3.18-4.626-.01-.116.09-.246.2-.261 3.13-5.089 6.66-9.759 10.42-14.458zm26.28-35.235l.2-.26-.2.26c-.02-.115 0 0 0 0zm-.32 5.915c1.68-1.619 3.24-3.224 4.92-4.843l10.2-11.494c-2.55 2.198-5.1 4.395-7.51 6.694-2.53 3.253-5.07 6.506-7.61 9.643zm-36.2 30.126l-2.82 2.819a.894.894 0 01-1.14.26c-1.51 2.068-2.78 4.106-3.91 6.362 2.07-2.255 4.02-4.496 6.09-6.752.6-.896 1.19-1.792 1.78-2.689zm8.4-17.496c-4.81 4.829-9.35 9.86-13.26 15.282.37.072.64.39.81.839a94.694 94.694 0 014.4-5.248c.83-.926 1.65-1.851 2.37-2.646 1.9-2.704 3.78-5.523 5.68-8.227zm6.46-4.683c1.15-1.2 2.17-2.386 3.2-3.571 3.18-3.687 6.48-7.388 9.78-11.089-1.14 1.2-2.3 2.284-3.44 3.484-1.88 1.879-3.75 3.874-5.75 5.768-1.3 1.808-2.6 3.615-3.79 5.408z" fill="#356F7C"/><path d="M1722.1 332.3c-2.37-4.875-6.14-8.752-10.23-12.355-3.98-3.617-8.27-6.959-12.55-10.185-8.92-6.526-18.68-12.242-29.05-16.237-8.89-3.474-17.99-4.808-27.55-5.144-7.78-.205-15.98-.006-23.43 2.45-.12.015-.23.029-.33.159.95 2.936 2.02 5.858 3.19 8.65 4.35 10.385 9.94 20.38 12.62 31.445.04.347.2.679.24 1.026 6.35 7.552 16.86 17.404 22.51 20.342 9.92 5.109 20.81 9.509 31.93 12.001-.02-.116-.03-.232-.16-.333 9.23-2.325 18.92-1.888 28.27-4.112.02.116.03.232.16.333 1.35-1.46 2.68-3.036 3.65-4.684 4.49-7.374 4.36-15.936.73-23.356z" fill="#BEDCE3"/><path d="M1567.48 70.279c3.92-2.486 7.23-6.072 10.18-9.73 3.04-3.903 5.65-8.458 6.68-13.404.05-.477-.68-.737-.86-.246-2.95 8.358-8.98 16.513-16.49 21.326-3.04 2.024-6.37 3.613-9.74 4.856-1.67.679-3.7 1.401-5.78 1.66.66.623 1.33 1.245 1.98 1.751.91-.23 1.71-.447 2.49-.78 4.21-1.112 8.07-3.12 11.54-5.433z" fill="#122528"/></svg>