<svg width="320" height="607" fill="none" xmlns="http://www.w3.org/2000/svg"><path d="M339 116.767c66.715 29.661 122.242-33.996 151.658-74.876C549.024-45.443 618.377 25.161 659 61.705v270.796C628.183 461.644 380.95 490.075 339 527.5c-57.499 51.297-208.039-58.889-298.444 22.407-94.97 85.402-207.007 60.606-314.556 18.487l33.467-365.035c43.191-142.15 240.467-64.107 281.09-45.526 40.622 18.582 94.381 4.459 146.443-41.066 52.062-45.525 79.125-32.4 152 0z" fill="#DFEEF1"/><path d="M362.909 517.344c-1.133-1.079-2.968-1.025-4.372-.539-1.781.647-3.292 1.835-4.965 2.698-1.349.648-3.778 1.08-4.317-.863-.378-1.511.863-3.454 1.565-4.696.863-1.457 1.781-2.914 2.86-4.263 1.241-1.62 2.159-3.347 1.295-5.343-.701-1.566-2.59-1.35-3.885-.864-2.915 1.133-5.074 3.454-7.772 4.965-1.026.54-2.645 1.404-3.67.378-1.134-1.133.216-3.346.809-4.372 1.565-2.752 4.102-5.828 1.997-9.067-1.781-2.698-5.667-1.727-7.825-.161-.756.539-1.404 1.241-2.105 1.888-.972.864-2.051 1.62-3.239 2.159-2.428 1.188-5.451.54-6.908-1.889-1.079-1.889.432-4.101 1.511-5.613 1.08-1.511 2.537-2.806 3.239-4.533 1.079-2.645.701-6.261-2.051-7.718-3.454-1.835-7.016 1.133-9.229 3.508-1.349 1.457-2.645 2.969-4.318 4.102-1.241.809-3.616 1.835-4.911.648-1.08-.972-.918-2.861-.648-4.102.324-1.403 1.134-2.645 1.457-4.102.648-2.644.648-6.584-2.482-7.556-3.454-1.079-5.883 2.321-7.718 4.588-1.079 1.349-2.159 2.536-3.94 2.86-2.267.432-3.67-1.727-4.803-3.346-.702-.972-1.403-1.943-1.727-3.076-.27-1.08.27-2.105.971-2.861 1.134-1.295 2.753-2.105 3.832-3.508 1.295-1.727 2.267-4.533 1.187-6.584-.647-1.242-2.05-1.619-3.346-1.727-2.213-.108-4.371.917-6.476 1.403-2.483.54-5.073-.108-5.559-2.861-.27-1.565-.054-3.238.27-4.803 0 .054.054.162.054.216.108.378.755.324.755-.108 0-1.619.324-2.806 1.781-3.508 1.35-.648 2.915-.864 4.264-1.457 3.4-1.349 5.073-5.019 3.886-8.528-.486-1.511-1.619-2.86-3.076-3.508-1.512-.647-3.293-.216-4.912-.323-1.673-.108-3.292-.702-4.21-2.267-.809-1.403-1.295-4.102.216-5.181 1.242-.864 3.077-.864 4.48-1.242 1.565-.431 3.13-1.133 4.533-1.943 2.591-1.511 5.883-4.425 3.509-7.502-2.375-3.13-6.963-1.673-10.093-3.454-1.619-.917-3.4-2.698-3.562-4.641-.216-2.375 2.429-3.67 4.372-4.156 2.104-.54 4.263-.755 6.098-1.997 1.565-1.025 2.861-2.806 3.023-4.749.323-3.724-4.48-3.994-7.07-3.94-1.242 0-3.023.162-3.994-.81-1.404-1.295.216-3.562 1.349-4.317 1.457-1.026 3.238-1.565 4.695-2.591 1.242-.863 2.159-2.213 2.699-3.616.594-1.403.971-3.184.324-4.641-.648-1.457-2.159-2.213-3.67-2.051-1.673.216-3.292 1.079-4.588 2.105-.917.701-1.889 1.781-2.051 2.968a8.636 8.636 0 00-1.079-.917c-.162-.108-.486-.054-.54.162-1.943 3.777-1.673 8.365-1.403 12.467.162 2.212.378 4.371.432 6.584.108 2.645-.162 5.289-.486 7.88-.702 5.829-2.159 11.442-3.13 17.216-.918 5.505-.81 11.118-.27 16.677.27 2.969.702 5.883.971 8.797.27 2.969.378 5.937.54 8.906.324 5.558.972 10.956 2.483 16.299 1.025 3.724 2.32 7.394 4.695 10.47 2.753 3.508 6.8 5.289 10.74 7.016 4.102 1.727 8.258 3.292 11.928 5.883 3.886 2.752 6.206 7.016 9.876 10.038 3.293 2.699 7.124 4.534 11.118 5.883 4.858 1.673 9.823 2.591 14.788 3.886 2.051.54 4.102 1.133 5.991 1.943 1.349.594 2.483 1.457 3.562 2.429 1.187 1.025 2.375 2.104 3.724 2.86 1.133.594 2.375.918 3.67 1.187.162.27.486.378.755.162.162 0 .324.054.486.054.432.054.594-.27.54-.647 1.673-.702 3.616-.486 5.289-1.35 1.349-.701 2.267-2.212 2.537-3.67.539-1.295.269-2.752-.756-3.724z" fill="#FFCE33"/><path d="M358.322 519.503c-1.403-1.295-3.13-2.267-4.695-3.4-1.997-1.457-3.509-3.454-5.29-5.127-3.724-3.508-8.041-6.261-12.143-9.283-4.264-3.131-8.149-6.693-12.089-10.201-3.778-3.292-7.718-6.422-12.036-8.959-4.533-2.644-9.606-4.156-14.518-6.044-4.048-1.566-7.556-3.778-10.416-7.071-2.483-2.914-4.102-6.422-5.181-10.092-1.296-4.48-1.835-9.175-2.267-13.817-.54-5.72-.81-11.495-.864-17.216-.107-5.829 0-11.658.162-17.487.162-5.127.162-10.362.756-15.435.486-4.048 1.133-8.15.486-12.197-.27-1.781-.918-3.616-2.051-5.02-1.188-1.457-2.861-2.59-4.534-3.508-6.422-3.454-13.978-3.4-21.102-3.508-1.187 0-2.375-.216-3.562-.108a8.67 8.67 0 00-4.264 1.673c-2.752 1.889-4.587 4.966-5.343 8.15-.809 3.292-.324 6.908 1.781 9.661.81 1.025 1.727 1.996 3.022 2.374 1.188.324 2.429.162 3.67 0 3.886-.539 7.61-1.997 11.226-3.346 2.645-.971 5.289-2.213 8.042-3.022-.162 2.374-.27 4.749-.594 7.124-.378 2.914-.863 5.829-1.241 8.797-.702 5.613-1.565 11.172-2.159 16.785-.54 5.289-.917 10.578-1.403 15.867-.54 5.343-1.08 10.686-1.619 16.083-1.026 10.687-1.835 21.427-1.35 32.167.216 4.965.702 9.876 2.051 14.626 1.404 5.019 3.4 9.93 3.994 15.165.216 1.728.108 3.455.378 5.182.27 1.781.81 3.508 1.349 5.181 1.026 3.184 2.267 6.368 2.483 9.714-4.048-.161-8.635 1.35-10.578 5.128-.216.377.054.863.485.863 4.318.27 8.582.162 12.899.054 3.293-.054 6.531.054 9.823-.054 1.889-.054 4.102-.162 5.559-1.565 1.619-1.565 1.349-4.21.863-6.26 4.372-.54 8.798.215 13.223-.27.108.647.162 1.241 0 1.943-1.997.755-3.994 1.619-5.775 2.806-.809.54-2.051 1.403-2.158 2.483-.108.971.809 1.133 1.511 1.241 2.105.324 4.209.378 6.314.324 1.403-.054 2.753-.216 4.156-.378 1.403-.108 2.806-.108 4.21-.108 2.59 0 5.343.054 7.933-.324 1.404-.216 2.483-.863 3.508-1.835 1.026-.971 2.159-1.673 3.455-2.213 2.59-1.025 5.397-1.511 8.149-1.996 3.346-.594 6.746-1.08 10.093-1.727 3.184-.594 6.368-1.242 9.39-2.267 2.267-.756 4.696-1.835 6.261-3.724.648-.756 1.133-1.673 1.295-2.699.162-1.295-.27-2.213-1.295-3.13z" fill="#6CB4B8"/><path d="M245.307 380.961c1.511.108 2.699-.972 3.508-2.159.648-.918 1.296-2.375.702-3.508-.432-.81-1.403-.702-2.105-.432-.863.378-1.403 1.403-1.403 2.321 0 .377.594.377.594 0 .054-.648.485-1.134 1.025-1.458.27-.161.864-.323 1.025.054.27.702-.377 1.62-.755 2.213-.378.54-.972 1.242-1.673 1.403-.054-.161-.162-.269-.324-.377-.54-.486-1.295-.108-1.349.593 0 .162-.054.378-.054.54 0 .486.431.81.809.81zm21.103-.648l.485.162c.432.162.918 0 1.296-.162.809-.378 1.997-1.457 1.295-2.429-.324-.432-.863-.702-1.457-.863-.27-.108-.54-.108-.756-.108h-.27c-1.025.054-1.942.647-1.781 1.781.108.593.594 1.349 1.188 1.619z" fill="#122528"/><path d="M323.727 513.728c-1.296.647-2.537 1.295-3.832 1.943-.108.054-.162.108-.27.108-3.346 2.051-6.638 4.209-10.146 5.99-2.213 1.35-4.426 2.591-6.855 3.616-.054.108-.054.216-.108.324-.054.27-.485.162-.431-.108-.432.162-.648-.216-.648-.593-.162.054-.324.054-.486.054-.162.054-.324.162-.54.215-.269.108-.431 0-.593-.107-.162.054-.27.161-.432.215-.648.324-1.187-.539-.594-.971 1.835-1.295 3.724-2.483 5.613-3.616.054 0 .054-.054.108-.054 0-.054.054-.108.108-.162 2.861-2.968 6.261-5.127 9.823-7.07.863-.594 1.727-1.133 2.59-1.673 5.29-3.346 10.794-6.423 16.677-8.581.756-.54 1.511-1.08 2.321-1.566 0 0 .054 0 .054.054.486.324.971.702 1.457 1.026-.54.27-1.079.539-1.619.755-.054.054-.108.162-.162.216-.917.648-1.889 1.242-2.86 1.835.108-.054.216-.054.324-.108 1.619-.809 3.292-1.619 4.965-2.32.378.269.809.539 1.187.809-.324.108-.647.27-.971.432-1.35.809-2.753 1.565-4.156 2.321-.054.054-.108.054-.162.108 1.889-.864 3.832-1.727 5.775-2.483.702.486 1.403.971 2.105 1.511a175.19 175.19 0 00-18.242 7.88zm-17.055 7.232h-.108c-.108.054-.216.162-.324.216.162-.054.324-.108.432-.216zm-47.818-36.268c.162-.108.324-.216.486-.27-.162.054-.324.162-.486.216 0-.432-.054-.918-.054-1.349-.054-.81-.054-1.62-.108-2.429a3.72 3.72 0 00.432-.162c1.619-.702 3.238-1.457 4.857-2.159a91.59 91.59 0 00-5.289 2.267c0-.594-.054-1.241-.054-1.835.108-.054.216-.162.324-.216-.108 0-.216.054-.324.054v-1.241c1.349-.216 2.645-.594 3.94-.972 2.105-1.187 4.317-2.213 6.476-3.13-3.4 1.025-6.692 2.105-9.93 3.562-.162.108-.378.162-.54.27v-1.727c.54-.324 1.133-.648 1.727-.918-.594.216-1.133.432-1.727.648v-.702c.702-.324 1.457-.593 2.159-.863 2.806-1.026 5.667-1.727 8.527-2.429.648-.216 1.349-.432 1.997-.648 3.4-1.187 6.8-2.428 10.254-3.454 1.08-.323 2.159-.647 3.293-.971a19.644 19.644 0 002.32 3.238 25.05 25.05 0 003.724 3.454c-5.235 1.997-10.578 3.778-15.867 5.775-5.235 2.86-10.308 6.153-16.083 7.826 0-.648-.054-1.242-.054-1.835zm18.026-11.658c1.295-.378 2.591-.809 3.886-1.187.432-.162.863-.378 1.295-.54-1.511.432-3.022.864-4.587 1.349-.216.108-.432.27-.594.378zm-2.051 3.778c-2.59 1.079-5.073 2.375-7.556 3.67a198.32 198.32 0 017.124-2.914 59.42 59.42 0 012.591-1.35c3.562-1.781 7.448-2.968 11.172-4.479-4.534 1.403-8.959 3.184-13.331 5.073zm-2.86-2.213c.324-.162.647-.377.971-.539-3.292 1.079-6.53 2.536-9.876 3.616-.27.162-.486.269-.756.431 3.184-1.295 6.423-2.428 9.661-3.508zm-1.349-82.197c3.184-1.457 6.476-2.698 9.876-3.616-.054.918-.108 1.835-.216 2.753a111.491 111.491 0 01-3.67 1.673c1.188-.324 2.429-.648 3.616-.972-.108.756-.162 1.511-.27 2.267-.593.216-1.241.378-1.835.54.162.054.324.27.324.431l1.457-.485c0 .108-.054.216-.054.378-.108.755-.161 1.511-.215 2.32-4.696 1.134-9.391 2.483-14.087 3.454.108-.971.27-1.943.432-2.914.216-.054.378-.054.594-.108a27.811 27.811 0 011.997-.594c-.864.162-1.673.324-2.537.486.108-.702.216-1.349.27-2.051a72.564 72.564 0 003.184-1.025c1.026-.594 2.051-1.242 3.13-1.835-.917.324-1.835.647-2.752 1.025-1.187.594-2.375 1.188-3.508 1.835.108-.647.162-1.241.27-1.889 1.187-.647 2.59-1.187 3.994-1.673zm3.777.648c1.727-.702 3.455-1.403 5.128-2.213-.648.162-1.296.378-1.889.594-1.134.431-2.159 1.025-3.239 1.619zm-3.67 15.003c2.807-.323 5.559-.971 8.366-1.457-.054 1.403-.054 2.861-.108 4.264 0 .54-.054 1.079-.054 1.673-.216.054-.432.054-.648.108.216 0 .432-.054.648-.054-.054 1.025-.054 2.105-.054 3.13-1.889.162-3.778.27-5.613.432-3.292.27-6.584.648-9.877 1.025.27-2.266.54-4.533.864-6.8a40.327 40.327 0 013.67-.971c-1.187.162-2.375.323-3.508.593-.054 0-.054 0-.108.054.054-.324.108-.593.108-.917 2.105-.648 4.371-.864 6.314-1.08zm6.693.864c-2.483.378-4.912.863-7.34 1.403-1.835.432-3.67.864-5.505 1.349l1.457-.323c2.429-.594 4.911-1.242 7.394-1.62.108 0 .216-.054.324-.054a52.704 52.704 0 013.994-.809h.053c-.107 0-.215 0-.377.054zm1.673 28.227c0-.432-.054-.864-.054-1.295-3.184.863-6.423 1.565-9.607 2.374-2.752.702-5.505 1.619-8.311 2.267-.054.432-.108.864-.162 1.349 2.86-.647 5.667-1.619 8.419-2.32 3.292-.81 6.531-1.512 9.715-2.375zm-19.862 24.232c0-.431.054-.863.054-1.295h.162c3.184-.486 6.315-1.187 9.445-1.727-3.13.378-6.369 1.133-9.553 1.511.216-2.429.432-4.911.648-7.34l2.914-.809c-.971.108-1.943.269-2.914.377 0-.216.054-.431.054-.647 2.644-.378 5.289-.756 7.933-1.026 3.94-.971 7.934-1.727 11.982-2.105.108.756.162 1.512.27 2.321-1.026.162-1.997.324-3.023.486 1.026-.108 2.051-.216 3.023-.324.27 2.267.647 4.48 1.187 6.638-.324.054-.648.162-.917.216-3.455.756-7.017 1.134-10.525 1.727-3.562.648-7.124 1.512-10.74 1.997zm8.204-7.394h-.756c-2.105.486-4.156.972-6.26 1.404 2.32-.324 4.641-.81 7.016-1.404zm1.997 1.08c2.104-.324 4.263-.648 6.368-.972.378-.054.702-.162 1.08-.216h-2.429c-.864.216-1.673.432-2.537.648-.809.162-1.619.378-2.482.54zm11.658 52.999a.612.612 0 01-.431.162c-1.08 1.133-2.105 2.321-2.969 3.562-.486.702-1.565.054-1.079-.648 1.187-1.727 2.59-3.292 4.102-4.749 3.885-5.343 9.013-9.607 13.816-14.086 1.565-1.727 3.076-3.508 4.695-5.181-.431.323-.863.647-1.295.917-4.102 3.724-8.095 7.556-12.143 11.28-2.429 2.752-5.02 5.343-8.204 7.232-1.241 1.079-2.536 2.105-3.832 3.13-.647.486-1.457-.27-.917-.917 1.889-2.213 3.886-4.318 5.937-6.369a9.213 9.213 0 01-.756.486c-.216.162-.54.108-.756-.108-1.565 1.457-3.778 3.4-5.99 3.076-.324-.054-.486-.431-.378-.701.755-2.267 2.267-4.21 3.994-5.883 0-.108.054-.216.162-.324 6.692-7.502 14.734-13.6 23.099-19.159.864-.756 1.673-1.512 2.537-2.213l3.076 1.133c-.594.54-1.187 1.026-1.781 1.565-1.673 1.458-3.4 2.915-5.073 4.372a344.076 344.076 0 017.61-5.667c1.942.756 3.885 1.511 5.72 2.483-4.803 4.803-10.092 9.121-15.057 13.708-2.591 2.429-5.236 4.696-7.934 7.016a57.251 57.251 0 01-6.153 5.883zm3.239-9.067s-.054.054 0 0c-.648.594-1.242 1.134-1.835 1.727l1.781-1.619s0-.054.054-.108zm.054-5.613a900.352 900.352 0 00-8.474 6.585c-.054.054-.108.054-.108.054-1.457 1.403-2.752 2.968-3.562 4.803 1.08-.216 2.213-1.133 2.969-1.727 2.698-2.159 4.965-4.857 7.178-7.448.701-.702 1.349-1.511 1.997-2.267zm3.13-1.781c1.619-1.457 3.292-2.968 4.911-4.425-.216.162-.486.377-.702.539l-.053.054c-1.404 1.242-2.861 2.483-4.156 3.832zm8.743-4.857a51.175 51.175 0 00-3.724 3.076c-1.457 1.295-2.806 2.645-4.156 3.994.756-.594 1.511-1.241 2.267-1.835a55.774 55.774 0 013.13-3.022c.756-.702 1.619-1.458 2.483-2.213zm5.613-.432c.378-.27.756-.594 1.133-.863 1.565-1.188 3.131-2.429 4.588-3.832-.864.539-1.673 1.079-2.537 1.619a56.735 56.735 0 00-3.184 3.076zm-7.016 7.61c1.565-1.457 3.184-2.861 4.749-4.264a39.58 39.58 0 00-3.238 2.753c-.324.27-.648.593-.918.863-.215.216-.377.432-.593.648zm-33.246-57.965c-.108 1.188-.216 2.321-.324 3.508 4.587-1.511 9.337-2.536 14.086-3.508 1.241-.108 2.429-.162 3.67-.269 0-.594-.054-1.188-.054-1.835-1.187.269-2.429.485-3.616.755-4.587.27-9.229.594-13.762 1.349zm9.499-9.714c2.536-.432 5.127-.81 7.717-1.134 0 1.08 0 2.105.054 3.185v1.403c-4.101.809-8.311 1.457-12.413 2.159 4.156-.432 8.312-1.134 12.413-1.727 0 1.025.054 2.051.108 3.076-.108 0-.162 0-.27.054a6.59 6.59 0 01-1.025.108c-5.289.917-10.632 1.673-15.975 2.159 0-.162.054-.324.054-.432.108-1.079.216-2.213.324-3.292.054 0 .161-.054.215-.054.216-.108.378-.216.594-.27.972-.432 1.997-.81 3.022-1.133-.809.054-1.619.107-2.428.107-.324.054-.648.054-.972.108-.108 0-.216.054-.377.054.107-1.133.161-2.212.269-3.346.27-.054.54-.054.81-.108 2.591-.431 5.235-.701 7.88-.917zm-5.182 7.124a913.51 913.51 0 004.156-.486l2.753-.324c1.835-.27 3.616-.539 5.451-.809-2.051.162-4.102.324-6.099.593-.809.108-1.565.216-2.321.324l-3.076.486c-.27.162-.54.162-.864.216zm5.613-3.67c-1.835.378-3.67.755-5.451 1.295 3.508-.593 7.017-1.133 10.525-1.781h-.378c-.702 0-1.349.054-2.051.108-.594.054-1.241.162-1.889.216-.27.054-.54.108-.756.162zm29.252 83.438c.863-.917 1.727-1.781 2.59-2.644-3.184 2.914-6.368 5.721-9.876 8.203-.054.054-.054.054-.108.054-1.134 1.134-2.267 2.213-3.455 3.346-.593.594-1.349-.27-.863-.863.378-.432.702-.918 1.079-1.349-.539.431-1.241-.108-.971-.756.917-2.051 2.213-3.886 3.67-5.559-.378.216-.756.378-1.134.54-.647.216-.917-.594-.593-1.026 3.94-4.965 9.121-8.689 14.14-12.467 4.372-4.749 8.959-9.337 14.14-13.061.324.27.648.54 1.026.81-2.807 1.943-5.397 4.156-7.88 6.53a257.097 257.097 0 013.994-3.076 83.553 83.553 0 004.048-3.292c.324.27.647.539.917.755a6.941 6.941 0 01-.701.594c.269-.162.539-.378.809-.54.864.702 1.727 1.457 2.537 2.159 1.403 1.241 2.752 2.483 4.155 3.67-2.158 1.727-4.371 3.292-6.638 4.857-8.635 7.556-17.163 15.274-26.176 22.452-.377.27-.755.162-.971-.108l-.486.324c-.486.324-.917-.216-.755-.648-.162-.216-.162-.539.054-.809.593-.648 1.133-1.295 1.727-1.943 0-.054.054-.108.108-.108 1.727-2.159 3.616-4.102 5.613-6.045zm14.086-14.68l.108-.108-.108.108c0-.054 0 0 0 0zm-.486 2.699c.864-.648 1.673-1.296 2.537-1.943l5.343-4.696c-1.296.864-2.591 1.727-3.832 2.645a280.428 280.428 0 01-4.048 3.994zm-18.35 11.765l-1.457 1.134a.415.415 0 01-.54.054 20.639 20.639 0 00-2.159 2.698c1.08-.917 2.105-1.835 3.185-2.752l.971-1.134zm4.857-7.556c-2.482 1.943-4.857 3.994-6.962 6.261.162.054.27.216.324.432a43.902 43.902 0 012.321-2.159c.432-.378.863-.756 1.241-1.079 1.026-1.134 2.051-2.321 3.076-3.455zm3.239-1.781a46.132 46.132 0 001.673-1.457c1.673-1.511 3.4-3.022 5.127-4.533-.594.485-1.187.917-1.781 1.403-.972.756-1.943 1.565-2.968 2.321a76.362 76.362 0 00-2.051 2.266z" fill="#356F7C"/><path d="M304.837 518.639c-.809-2.374-2.321-4.371-3.994-6.26-1.619-1.889-3.4-3.67-5.181-5.397-3.724-3.508-7.879-6.693-12.413-9.121-3.886-2.105-7.988-3.238-12.359-3.94-3.562-.54-7.34-.918-10.902-.216-.054 0-.108 0-.162.054.27 1.403.593 2.806.971 4.156 1.404 5.019 3.4 9.93 3.994 15.165 0 .162.054.324.054.486 2.483 3.832 6.746 8.959 9.175 10.632 4.264 2.915 9.013 5.559 13.978 7.34 0-.054 0-.108-.054-.162 4.372-.539 8.798.216 13.223-.269 0 .054 0 .108.054.161.702-.593 1.403-1.241 1.943-1.942 2.483-3.131 2.915-7.071 1.673-10.687z" fill="#BEDCE3"/><path d="M248.816 389.434c1.943-.918 3.67-2.375 5.235-3.886 1.619-1.619 3.076-3.562 3.832-5.775.054-.216-.27-.378-.378-.162-1.835 3.67-5.073 7.07-8.797 8.851-1.512.756-3.131 1.296-4.75 1.673-.809.216-1.781.432-2.752.432.27.324.539.648.809.918.432-.054.81-.108 1.188-.216 1.997-.27 3.886-.972 5.613-1.835z" fill="#122528"/><path fill-rule="evenodd" clip-rule="evenodd" d="M222.267 179.569c.27.859.511 1.577.701 2.335.261.95.47 1.94.407 2.9-.104 1.323-.914 2.381-2.046 2.621-1.041.25-2.262-.349-2.875-1.431-.654-1.133-1.015-2.417-1.375-3.7-.07-.192-.09-.425-.16-.617-.331-1.142-.331-1.142-1.322-.518a13.804 13.804 0 01-3.277 1.699c-.333.1-.667.2-.95.26-1.263.179-2.282-.167-2.987-1.259-.664-1.042-.318-2.062.341-2.999a7.086 7.086 0 012.46-2.206c.829-.413.86-.685.053-1.283-.968-.8-1.946-1.51-2.964-2.27-.464-.375-.826-.83-1.037-1.406-.541-1.718.695-3.281 2.492-2.893 1.131.174 2.079.742 2.976 1.351.474.284.898.608 1.412.942.233-.433.103-.909.054-1.282-.027-1.384-.105-2.728.141-4.081.062-.545.214-1.08.458-1.604.933-1.735 3.156-1.851 4.314-.293.553.799.773 1.699.993 2.598.15.708.249 1.455.389 2.253.606-.069.789-.462 1.052-.755.729-.745 1.408-1.451 2.338-1.943.637-.342 1.355-.583 2.042-.551 1.838.025 3.067 1.361 2.911 3.138-.197 2.141-1.353 3.805-3.063 5.083-.303.242-.818.322-.971.857.514.334 1.11.356 1.645.509 1.474.397 2.836.966 3.965 1.969.967.8 1.359 1.811.952 2.961-.366 1.201-1.337 1.644-2.448 1.701-1.99.097-3.817-.433-5.512-1.316-.231-.394-.524-.658-1.109-.77zm-6.106-6.216c-.123.676-.145 1.272-.257 1.857-.123.677.452.88.785 1.194.373.365.606-.069.899-.22.648-.433 1.345-.492 2.112-.358.222.071.404.091.566-.12.122-.263-.029-.556-.251-.627-1.362-.569-2.288-1.733-3.854-1.726z" fill="#FFCE33"/><path fill-rule="evenodd" clip-rule="evenodd" d="M215.534 178.224c-1.818-2.1-.819-4.763.685-6.24.67-.627 1.425-1.088 2.354-1.267 1.281-.227 2.32.16 3.123 1.108.251.314.531.605.841.871 1.686 1.506 1.869 3.695.525 5.558-1.343 1.863-3.77 2.487-5.684 1.49-.694-.381-1.396-.896-1.844-1.52z" fill="#fff"/><path fill-rule="evenodd" clip-rule="evenodd" d="M279.016 177.577c.434 1.377.82 2.527 1.125 3.742.417 1.522.753 3.109.652 4.647-.167 2.12-1.466 3.816-3.28 4.2-1.668.401-3.624-.559-4.607-2.293-1.048-1.816-1.626-3.873-2.203-5.93-.113-.307-.144-.68-.257-.987-.53-1.831-.53-1.831-2.118-.831-1.605 1.145-3.404 2.047-5.251 2.723-.534.16-1.069.321-1.522.417-2.024.286-3.658-.268-4.786-2.019-1.065-1.669-.51-3.303.545-4.806 1.056-1.502 2.289-2.616 3.942-3.535 1.329-.66 1.378-1.097.086-2.055-1.551-1.283-3.118-2.419-4.75-3.637-.743-.601-1.324-1.33-1.662-2.254-.867-2.753 1.114-5.258 3.993-4.636 1.812.28 3.331 1.19 4.77 2.165.759.455 1.438.974 2.262 1.51.374-.695.165-1.456.086-2.055-.043-2.218-.168-4.371.226-6.539a8.302 8.302 0 01.734-2.571c1.496-2.781 5.058-2.966 6.913-.469.887 1.281 1.24 2.722 1.592 4.163.24 1.134.399 2.332.623 3.611.971-.111 1.264-.741 1.686-1.21 1.168-1.195 2.255-2.325 3.746-3.114 1.021-.548 2.172-.934 3.272-.883 2.946.04 4.915 2.181 4.666 5.029-.316 3.431-2.168 6.097-4.908 8.146-.487.387-1.312.515-1.557 1.372.824.536 1.779.571 2.636.815 2.362.637 4.545 1.549 6.353 3.156 1.551 1.282 2.179 2.902 1.527 4.746-.588 1.924-2.143 2.633-3.924 2.726-3.189.154-6.116-.695-8.832-2.109-.371-.633-.839-1.055-1.778-1.235zm-9.784-9.961c-.197 1.084-.232 2.038-.412 2.977-.197 1.084.725 1.41 1.258 1.913.597.584.971-.111 1.441-.353 1.038-.693 2.155-.788 3.385-.574.355.114.647.147.906-.192.196-.421-.046-.891-.402-1.005-2.183-.912-3.667-2.777-6.176-2.766z" fill="#FFCE33"/><path fill-rule="evenodd" clip-rule="evenodd" d="M268.227 175.424c-2.914-3.366-1.313-7.633 1.097-10.001 1.075-1.004 2.283-1.742 3.772-2.03 2.054-.363 3.719.257 5.006 1.776.401.503.85.969 1.347 1.397 2.701 2.413 2.994 5.92.842 8.905-2.153 2.986-6.042 3.987-9.11 2.389-1.111-.611-2.236-1.436-2.954-2.436z" fill="#fff"/><path fill-rule="evenodd" clip-rule="evenodd" d="M298.163 222.541c.512.591.951 1.08 1.364 1.619.534.667 1.043 1.384 1.323 2.17.373 1.089.092 2.212-.727 2.793-.743.558-1.922.501-2.784-.15-.911-.677-1.641-1.575-2.37-2.474-.122-.128-.218-.307-.34-.436-.657-.796-.657-.796-1.232.043a12.006 12.006 0 01-2.025 2.483c-.231.194-.462.389-.667.534-.945.578-1.876.654-2.814.026-.888-.601-.963-1.533-.762-2.507a6.151 6.151 0 011.2-2.605c.518-.614.449-.842-.399-1.04-1.047-.304-2.071-.532-3.144-.787-.498-.139-.944-.377-1.311-.763-1.023-1.183-.577-2.854.989-3.163.961-.251 1.912-.125 2.836.05.476.063.925.175 1.45.265.036-.426-.231-.76-.399-1.041-.499-1.093-1.023-2.137-1.294-3.299a4.525 4.525 0 01-.188-1.437c.146-1.703 1.877-2.561 3.336-1.719.717.446 1.202 1.087 1.687 1.728.363.512.7 1.073 1.086 1.661.459-.264.469-.641.578-.964.324-.845.622-1.641 1.193-2.354.39-.492.879-.931 1.437-1.142 1.473-.614 2.912.027 3.401 1.497.58 1.773.233 3.497-.689 5.105-.158.297-.542.538-.479 1.017.525.089 1.007-.099 1.486-.162 1.311-.191 2.592-.207 3.837.203 1.047.304 1.707.974 1.78 2.031.121 1.083-.5 1.77-1.365 2.199-1.552.762-3.19.97-4.845.851-.32-.235-.643-.344-1.149-.232zm-7.006-2.849c.135.582.323 1.064.435 1.569.136.581.664.545 1.037.681.423.162.459-.264.641-.486.367-.567.902-.855 1.559-1.013.201-.02.353-.066.409-.29.007-.251-.214-.433-.416-.413-1.281.016-2.42-.592-3.665-.048z" fill="#FFCE33"/><path fill-rule="evenodd" clip-rule="evenodd" d="M292.337 223.79c-2.173-1.047-2.294-3.512-1.605-5.208.318-.73.76-1.357 1.439-1.82.943-.622 1.904-.672 2.87-.194.308.165.631.3.97.405 1.862.619 2.762 2.3 2.333 4.247-.428 1.947-2.146 3.281-4.015 3.146-.684-.065-1.421-.233-1.992-.576z" fill="#fff"/></svg>