<svg width="320" height="1027" fill="none" xmlns="http://www.w3.org/2000/svg"><path opacity=".5" d="M88.046 15.962C74.61-23.606 13.62 13.5 5.06 92.965-6.328 198.696-.002 231.179-.002 295v155.076L0 526.5c0 108.837 320 669.4 320 448.545V147.404c0-89.838-13.248-179.082-67.019-120.042-11.229 12.33-139.29 64.117-164.934-11.4z" fill="url(#paint0_linear)"/><path d="M276.812 737.3c-.596-.594-1.231-.023-1.821.293a22.972 22.972 0 01-5.674 2.504c2.362-1.997 4.869-3.679 7.37-5.534.692-.48 4.708-4.061 2.111-4.529-1.55-.333-3.537 1.33-4.711 2.135-1.709 1.211-3.515 2.306-5.223 3.518a43.563 43.563 0 012.315-3.668c.395-.549-.176-1.184-.748-1.083-.786.082-1.885 1.499-2.428 2.013-1.731 1.708-3.363 3.532-4.504 5.659-.625 1.199-2.009 3.63-.084 4.363.543.221 1.257-.019 1.803-.079.495.758 1.869.642 2.588.576 3.441-.257 6.558-2.469 9.006-4.697.508-.366.376-1.07 0-1.471zm39.964 22.689c1.326-.316 4.596-.112 5.566-1.043 1.238-1.275-.498-1.948-1.464-2.034-3.435-.304-7.4-.482-10.463 1.366-2.967.04-1.112 3.277-.292 4.518 1.161 1.79 2.707 3.139 4.563 4.169.846.464 4.349 2.678 4.164.131-.069-1.175-3.421-2.9-4.285-3.885 1.79.31 3.57.727 5.309 1.12 1.253.262 4.719 1.435 5.79.34 1.541-1.768-7.85-4.439-8.888-4.682zm-19.622-26.401c.069-.017.069-.017 0 0z" fill="#FFCE33"/><path d="M302.265 739.902c-.695.025-1.389.785-2.062 1.05-.805.297-1.708.476-2.586.615 2.186-1.71 4.289-3.471 6.588-4.998.966-.65 4.161-1.795 2.526-3.367-2.256-2.126-10.192 4.418-12.14 5.652.386-1.913 1.008-3.567 2.347-5.006.938-1.063-.611-2.867-1.754-1.929-1.427 1.214-2.561 2.78-3.316 4.465-.756 1.686-3.65 9.694.504 9.196 2.453.888 7.697-.918 9.683-2.581.742-.562 2.451-3.245.21-3.097z" fill="#FFCE33"/><path d="M297.154 733.586c-.025.041-.117.098-.218.262.142-.139.193-.221.218-.262z" fill="#FFCE33"/><defs><linearGradient id="paint0_linear" x1="162.366" y1="872.562" x2="162.366" y2="-9.386" gradientUnits="userSpaceOnUse"><stop stop-color="#D8F1F7"/><stop offset="1" stop-color="#BEDCE3" stop-opacity="0"/></linearGradient></defs></svg>