<svg width="320" height="413" fill="none" xmlns="http://www.w3.org/2000/svg"><mask id="a" style="mask-type:alpha" maskUnits="userSpaceOnUse" x="0" y="0" width="320" height="413"><path fill="#C4C4C4" d="M0 0h320v413H0z"/></mask><g mask="url(#a)"><path d="M1121 400.023c142.84-20.384 197.11-71.786 308.55-88.839 204.47-31.286 221.47 25.115 308.45.001V125.086c-65.98-88.75-330.07-57.626-419.89-83.346-123.11-35.252-698.7 55.87-892.268 0C222.499-16.95 46.274-4.89-184 24.055v342.548c92.476 97.69 469.523 12.769 556.5-.001 86.977-12.77 207.267-12.075 326.5.001 266 26.94 265.967 55.686 422 33.42z" fill="#DFEEF1"/></g></svg>