<svg width="320" height="413" fill="none" xmlns="http://www.w3.org/2000/svg"><mask id="a" style="mask-type:alpha" maskUnits="userSpaceOnUse" x="0" y="0" width="320" height="413"><path fill="#C4C4C4" d="M0 0h320v413H0z"/></mask><g mask="url(#a)"><path d="M1121 400.023c142.84-20.384 197.11-71.786 308.55-88.839 204.47-31.286 221.47 25.115 308.45.001V125.086c-65.98-88.75-330.07-57.626-419.89-83.346-123.11-35.252-698.7 55.87-892.268 0C222.499-16.95 46.274-4.89-184 24.055v342.548c92.476 97.69 469.523 12.769 556.5-.001 86.977-12.77 207.267-12.075 326.5.001 266 26.94 265.967 55.686 422 33.42z" fill="#DFEEF1"/></g><path d="M204.113 388.53c-1.697-.397-2.196 1.289-2.894 2.479-1.896 3.769-4.391 7.339-7.285 10.512 1.996-6.049 4.59-11.702 6.985-17.652.699-1.587 3.892-12.198-1.197-10.215-3.094 1.091-4.79 6.149-5.988 8.826-1.696 3.967-3.692 7.835-5.389 11.802-.1-2.975-.1-5.95.1-8.926.1-1.388-1.597-1.884-2.495-1.09-1.297.991-1.697 4.661-2.096 6.148-1.197 4.86-2.095 9.818-1.796 14.777.2 2.776.399 8.528 4.591 7.735 1.197-.198 2.195-1.388 3.093-2.083 1.697.794 3.992-.892 5.19-1.785 5.788-4.165 8.882-11.404 10.778-17.95.499-1.19-.499-2.281-1.597-2.578zm95.105-3.372c1.996-1.983 7.984-5.157 8.683-7.834.798-3.57-2.994-2.876-4.791-1.984-6.387 3.174-13.572 7.141-16.965 13.686-5.189 3.272 1.597 6.942 4.391 8.231 3.992 1.884 8.183 2.578 12.574 2.38 1.996-.099 10.579 0 7.485-4.264-1.397-1.984-9.181-1.389-11.776-2.182 3.493-1.388 7.086-2.578 10.579-3.768 2.494-.893 9.879-2.579 10.578-5.653.798-4.76-18.662.694-20.758 1.388zm-63.271-25.09c.1-.1.1-.1 0 0z" fill="#FFCE33"/><path d="M251.815 365.621c-1.197.793-1.596 2.876-2.495 4.066-1.097 1.388-2.494 2.678-3.892 3.868 1.996-5.355 3.793-10.711 6.188-15.868.998-2.181 5.389-7.636.798-8.627-6.287-1.29-13.173 18.743-15.269 23.007-1.397-3.768-2.095-7.338-1.297-11.305.499-2.876-4.191-4.364-5.189-1.488-1.198 3.669-1.497 7.636-.998 11.405.499 3.768 4.091 20.925 10.877 15.57 5.29-1.091 12.575-9.917 14.271-14.975.699-1.785.799-8.331-2.994-5.653z" fill="#FFCE33"/><path d="M235.948 360.068c0 .099-.1.297-.1.694.1-.397.1-.595.1-.694zm-113.001 38.403c-.159-.812-.476-2.089-1.389-2.398-.675-.232-1.509-.155-2.184-.078-5.083.31-10.404 1.78-15.367.039-5.877-2.128-8.935-7.853-12.509-12.456-4.248-5.455-8.974-10.6-14.374-15.01-3.931-3.211-8.26-5.919-12.707-8.433-4.209-2.36-8.458-4.565-12.468-7.196-4.646-3.056-9.212-6.537-12.071-11.334-2.542-4.256-3.256-9.169-3.415-14.004-.159-5.029.119-10.019 1.112-14.932.595-3.095 1.43-6.151 2.74-9.014.675-1.509 1.548-3.095 2.78-4.294.436 2.708 1.548 5.416 4.327 6.46 2.86 1.045 6.155-.232 8.498-1.818 2.62-1.702 4.963-4.255 5.797-7.272.874-3.173-.754-6.074-3.852-7.312-2.303-.89-4.923-1.006-7.346-.89-2.501.116-5.042.542-7.385 1.393-.874.31-1.747.735-2.502 1.315-1.032.774-1.747 2.012-2.541 3.018-6.631 8.433-11.238 23.868-12.826 29.593-3.018 10.91-6.353 35.397-4.924 46.77.636 5.184 2.224 10.29 4.964 14.855 2.898 4.836 7.108 9.091 11.873 12.147a22.587 22.587 0 003.891 1.934c.715 1.354 1.43 2.67 1.985 4.062.318.774.636 1.548.874 2.36.199.735.596 1.431.675 2.205.08.696-.357.735-.913.812-.715.078-1.43.194-2.145.31-1.27.155-2.978.387-3.812 1.47-.158.193-.238.541 0 .774 1.946 1.547 4.845.503 7.029.116.834-.155 1.707-.155 2.065-1.084.476-1.237.238-2.437-.08-3.675-.317-1.392-.516-2.785-.794-4.178a9.58 9.58 0 00-.516-1.818 63.32 63.32 0 006.433 1.045c3.891.464 7.822.657 11.714.735-.914 1.702-1.51 3.597-2.026 5.454-.317 1.045-1.111 2.554-.238 3.559.715.813 2.184.387 3.217.542 1.23.155 2.144.425 3.454.696.715.155 1.628 0 2.303-.309.437-.232.794-.774.715-1.238-.08-.503-.556-.813-.993-1.006-1.151-.58-2.7-.851-4.01-.812-.675 0-2.105.348-1.867-.735.16-.774.636-1.509.953-2.244.556-1.277 1.192-2.592 1.946-3.791.913 0 1.827 0 2.7.039 5.043.038 10.126.038 15.169.502 5.638.542 11.198 1.741 16.836 2.283 5.48.503 11.595.696 16.678-1.741a15.266 15.266 0 003.256-2.166c.913-.967 1.509-2.012 1.27-3.25z" fill="#FFCE33"/><path d="M50.56 294.332c-.08-.31-.318-.464-.596-.503-.16-.077-.358-.039-.556.039h-.04a1.946 1.946 0 00-.993.657c-.079.078-.158.155-.198.232-.358.465-.397 1.316.238 1.548.516.193 1.112-.194 1.509-.503.477-.348.755-.89.635-1.47zm-7.465-4.41c.357-1.973 1.032-5.106 3.295-5.802 0 1.586.08 3.21.318 4.796.834-.154.874.116.794-.889-.04-1.006-.04-2.012-.04-3.018 0-1.702-.238-2.592-2.104-1.586-2.422 1.316-3.256 4.642-3.574 7.08a9.616 9.616 0 011.31-.581c.08-.541-.436.155 0 0zm64.962 110.948c-.874 0-1.787-.116-2.541-.542-1.033-.58-.517-1.818-1.271-2.321-.874-.58-2.78.232-3.812.078-1.191-.194-2.541-.619-3.256-1.509-.675-.812-.278-2.128-1.191-2.824-1.073-.812-2.939.348-3.931.812-.239-.812-.517-3.675-1.589-3.675-.675 0-1.39.387-2.144.426-1.072 0-.755-1.432-.794-2.321-.04-.774.08-2.089-.397-2.747-.477-.658-1.628-.116-2.224.039-1.866.503-3.653 1.238-5.44 2.011-.159-1.121-.834-9.245-2.263-8.742-1.47.503-6.354 2.94-7.386.773-.437-.967.556-4.874-.675-5.106-1.152-.193-3.097 1.393-3.971 2.012-1.231.928-2.383 1.972-3.335 3.172-.199-1.393-.556-2.747-.914-4.101-.198-.735-.397-1.47-.556-2.205-.158-.696-.04-2.166-.516-2.708-1.072-1.199-7.664 3.791-8.775 4.488-.239-1.354-.874-10.174-2.184-10.407-2.343-.386-7.744 1.703-11.397 2.747 1.231-2.321 2.7-4.526 3.931-6.847.636-1.238 2.264-3.791.517-4.836-2.462-1.508-6.234-.193-8.935-.271.397-3.249 1.628-6.344 3.296-9.129 1.27-2.166-7.505-1.702-8.339-1.625 1.39-1.509 3.018-3.095 2.383-5.338-.675-2.399-3.455-3.211-5.718-3.172 1.787-2.089 7.227-3.289 6.949-6.654-.278-3.366-4.527-6.267-7.346-7.544 1.112-1.199 2.898-1.663 4.487-2.05.834-.193 1.668-.387 2.541-.542.914-.154 2.7-.038 3.455-.541 1.032-.697-1.668-4.449-2.184-5.184-1.072-1.586-2.383-3.095-4.13-3.946 1.112-2.011 2.939-3.791 5.043-4.797.913-.425 1.946-.735 2.978-.773 1.27-.039.238-2.128.04-2.631-.794-2.244-1.946-4.449-2.065-6.847-.04-.929.755-1.354 1.588-1.431.556-.078 1.112-.039 1.629 0 .873.077.873-.349 1.39-1.006-1.788-.31-5.322-.697-5.878 1.702-.675 2.901 1.668 6.383 2.462 9.052-1.985.271-3.772 1.315-5.241 2.553-1.072.89-3.574 3.018-3.455 4.565.04.619 1.072.774 1.51 1.045.873.502 1.588 1.237 2.183 2.011a24.308 24.308 0 012.82 4.642c-2.621.271-5.44.735-7.863 1.78-.992.425-1.945 1.006-2.58 1.857-1.073 1.431 1.548 1.934 2.5 2.553 1.708 1.083 5.044 3.481 4.766 5.841-.238 2.128-4.289 3.521-5.837 4.72-.636.503-1.747 1.547-1.43 2.476.238.735 2.144.309 2.82.386 2.064.233 4.209 1.78 3.097 4.062-.397.813-4.13 3.985-1.787 4.372 2.62.425 5.122-.774 7.743.387-1.35 2.398-2.383 5.029-2.939 7.736-.238 1.277-.794 2.592.914 2.747 1.509.155 3.018-.077 4.526-.232 1.112-.116 2.582-.348 3.654.155.992.425-.16 2.127-.477 2.785-1.27 2.631-3.137 4.952-4.328 7.582-.596 1.315-.596 2.244 1.112 1.78 1.509-.387 2.978-.89 4.447-1.354 1.39-.426 2.82-.851 4.249-1.122.715-.116 1.985-.387 2.144-.194.199.194.278 1.587.437 2.36.199 1.199.754 8.201 1.985 8.317.914.078 2.78-1.663 3.574-2.166 1.509-.928 3.018-1.857 4.606-2.63.239 1.972.834 3.907 1.27 5.841.2.851.16 4.333 1.311 4.371.834.039 2.303-2.63 2.939-3.211a16.043 16.043 0 014.01-2.862c-.04 1.586-.556 3.984 1.033 5.029 2.104 1.392 5.44-.155 7.504-.89.318 1.509.556 3.056.755 4.565.12.928 0 3.443.675 4.139.675.696 2.422-.503 3.097-.774 1.43-.58 2.899-1.083 4.448-1.431.079.89-.239 5.841 1.43 5.377.833-.232 2.382-.503 2.62.31.238.812.397 2.205.873 2.94.953 1.508 4.01-2.012 4.487-.619.318.89.556 2.437 1.47 3.017.873.58 1.548.697 2.58.851 1.033.155 1.986.232 2.979.194 1.191-.078.913.851 1.787 1.586 1.35 1.16 3.335 1.354 5.043 1.315 1.906-.077 3.812-.503 5.519-1.354.635-.309 1.946-1.044 2.343-1.702.397-.735 0-.696-.556-.271-2.025 1.548-5.917 1.702-8.299 1.625zm-80.806-55.358c-.04 0-.04-.039 0 0zm14.096 12.224c-.04-.038.04.039 0 0z" fill="#122528"/><path d="M26.02 353.635c-.12.813 1.151 1.045 1.509.387.714-1.315.953-2.785 1.786-4.023.318-.464-.357-.89-.754-.542-1.27 1.006-2.303 2.592-2.541 4.178zm4.447 2.437c-.08-.464-.715-.425-.913-.116-.834 1.277-2.383 2.669-1.906 4.333.238.812 1.43.967 1.826.232.397-.696.556-1.509.834-2.282.199-.735.278-1.393.16-2.167zm-8.101-4.139a.685.685 0 00.398 0c.238-.078.476-.271.555-.542.358-1.392.755-2.592 1.708-3.713.318-.387-.12-1.122-.596-.774-1.35 1.006-2.74 2.476-2.66 4.255.04.387.238.658.595.774zm1.43 5.261c-.913 1.006-1.707 2.321-1.747 3.714 0 .735.953.735 1.191.155.477-1.084.596-2.283 1.191-3.366.239-.426-.317-.89-.635-.503zm8.14 7.157c.199-.503.477-1.006.715-1.509.08-.155-.159-.309-.278-.232-.397.232-.715.658-.953 1.044-.238.349-.596.929-.278 1.277.318.464.675-.348.794-.58zm-3.494-.774c-1.111 1.238-2.144 2.67-2.263 4.372-.04.27.159.58.397.696.12.077.238.116.397.116.397-.039.675-.232.794-.58.477-1.393.834-2.786 1.39-4.178.159-.387-.437-.735-.715-.426zm-.675 12.341a33.018 33.018 0 00-.834 2.824c-.198.812-.476 1.663.12 2.359.198.232.595.194.794 0 .595-.541.476-1.431.556-2.166.119-.928.317-1.818.516-2.747.08-.657-.913-.967-1.152-.27zm9.331-15.668a24.106 24.106 0 00-2.025 1.973c-.516.581-1.43 1.47-1.112 2.283a.48.48 0 00.596.309c.714-.193 1.032-1.044 1.39-1.625.555-.812 1.19-1.508 1.866-2.243.436-.465-.239-1.122-.715-.697zm-3.732 7.737c-.635 1.006-1.23 2.089-1.628 3.211-.238.696-.993 2.244-.08 2.785.954.542 1.35-1.315 1.47-1.818.318-1.276.635-2.592 1.112-3.83.158-.503-.596-.773-.874-.348zm3.097 13.617c-.477 1.045-1.35 2.553-.754 3.714.238.426.913.232.913-.232 0-.542-.04-1.083.04-1.625.079-.58.158-1.122.278-1.663.04-.271-.358-.464-.477-.194zm7.068-11.257a7.658 7.658 0 00-1.906 2.128c-.397.696-1.19 1.934-.675 2.708.16.232.437.27.675.154.675-.309.834-1.354 1.112-1.973.357-.812.755-1.624 1.35-2.282.437-.348-.08-1.083-.556-.735zM31.38 381.759c-.516.696-.714 1.624-.833 2.476-.12.735-.437 1.895.198 2.475a.512.512 0 00.715 0c.556-.503.397-1.586.437-2.282.04-.812.198-1.663.119-2.476 0-.387-.397-.464-.635-.193zm14.851-2.863c.199-1.044.358-2.089.437-3.133.08-.58-.834-.658-.993-.116-.317 1.044-.754 2.089-.992 3.172-.199.774-.596 2.012.159 2.592.238.193.476.193.714 0 .675-.542.517-1.78.675-2.515zm-7.743 8.82c-.993.697-1.31 1.857-1.47 2.94-.158 1.122-.356 2.979.716 3.714.278.193.754.039.913-.232.397-.813.04-2.012-.04-2.863-.08-.967-.159-2.205.358-3.056.238-.309-.16-.735-.477-.503zm17.234-10.096a26.878 26.878 0 00-1.589 2.978c-.357.774-.953 1.935-.476 2.747.119.232.397.271.635.155.794-.387 1.033-1.586 1.27-2.321a27.192 27.192 0 011.152-2.979c.318-.658-.595-1.199-.992-.58zm-6.552 5.416c-.517.425-.715 1.16-.914 1.779-.238.735-.476 1.663-.278 2.437.12.464.755.387.913 0 .239-.657.239-1.47.318-2.166.08-.658.278-1.277.397-1.896 0-.232-.317-.271-.437-.154zm5.558 2.359c-.476 1.238-.953 2.476-1.151 3.753-.16 1.005-.437 2.475.357 3.288.238.232.636.193.794-.116.477-.851.199-2.051.318-2.979.12-1.238.357-2.476.675-3.714.159-.619-.754-.851-.993-.232zm10.444-1.934c-.516.735-.913 1.47-1.27 2.282-.279.658-.596 1.818.118 2.321.12.078.318.039.437-.077.477-.426.358-1.393.477-1.973.198-.735.556-1.47.953-2.128.278-.464-.437-.851-.715-.425zm-2.66 9.439c-.04-.812 0-1.663.04-2.476 0-.619-.914-.58-.954 0-.08.968-.198 1.935-.158 2.902.04.735.158 1.779.913 2.089.159.077.397-.078.437-.232.119-.349-.04-.619-.12-.967-.04-.465-.119-.89-.158-1.316zm9.688-9.594c-1.588 1.006-2.899 2.824-2.938 4.72 0 .232.119.464.357.58.993.542 1.152-.967 1.35-1.547.358-1.083.953-2.244 1.787-3.095.318-.309-.12-.928-.556-.658zm-4.486 7.118a.39.39 0 00-.755-.116c-.595 1.431-1.39 4.604.159 5.725.199.155.516 0 .596-.232.238-.735-.04-1.663-.08-2.437 0-1.006.16-1.973.08-2.94zm8.299-.232c-.675.929-1.033 2.012-1.152 3.134-.08.851-.357 2.708.636 3.172.198.077.436.077.555-.077.556-.658.199-1.819.199-2.592 0-1.083.12-2.283.556-3.288.198-.503-.556-.697-.794-.349zm5.956 4.526c-.517.813-.755 1.741-.834 2.669-.08.813 0 2.206.794 2.67.238.116.516.038.635-.194.358-.619 0-1.392-.08-2.011-.118-.929-.118-1.857.239-2.708.198-.542-.477-.929-.754-.426zm4.566-.038c-.436 1.16-1.35 3.559-.119 4.487.239.155.556.039.715-.193.357-.503.199-1.238.159-1.857-.04-.735.08-1.47.198-2.205.08-.58-.754-.812-.953-.232zm10.562 7.195c-.238-.426-.556-.735-.754-1.199-.199-.464-.358-.967-.636-1.393-.158-.271-.635-.232-.714.078-.199 1.121.198 2.707 1.27 3.326.556.31 1.191-.309.834-.812zm-73.102-57.176c.238-.193.238-.464.317-.735.08-.31.238-.619.358-.89.278-.541.754-1.006 1.19-1.47.2-.193-.039-.58-.317-.464-.675.271-1.191.774-1.588 1.393-.318.503-.834 1.547-.437 2.127.12.194.318.194.477.039zm.913-11.683c.437-.503.556-1.238.953-1.779.437-.581 1.112-.967 1.787-1.2.516-.154.278-.928-.238-.773a5.057 5.057 0 00-2.224 1.354c-.516.541-1.112 1.508-.834 2.243.08.271.357.349.556.155zm19.933 54.391a7.715 7.715 0 00-.873 3.095c-.08.928-.12 2.553.675 3.21.198.155.595.194.715-.077.357-.774 0-1.702-.08-2.553a10.65 10.65 0 01.318-3.366c.119-.425-.516-.735-.755-.309zm5.003 5.339c.04-.465-.794-.581-.834-.116a15.465 15.465 0 00-.119 3.829c.12 1.006.358 2.515 1.31 3.095.279.155.556-.039.556-.309.12-.929-.476-2.012-.674-2.902a13.711 13.711 0 01-.239-3.597zm8.26 2.204c-.12-1.16-.04-2.359.159-3.481.04-.232-.2-.387-.398-.232-.953.889-1.151 2.205-1.151 3.481 0 1.083 0 3.211 1.072 3.83.198.116.556.077.675-.155.199-.464.12-.889 0-1.354a19.103 19.103 0 01-.357-2.089zm13.659 1.935c-.119-1.161-.159-2.321-.278-3.482-.04-.503-.754-.503-.794 0-.12 1.238-.318 2.476-.238 3.753.04.928.119 2.63 1.151 3.094.239.117.517.039.596-.232.12-.425 0-.812-.12-1.238-.118-.657-.237-1.276-.317-1.895zm-36.888-23.521c-.755.31-.834 1.78-.953 2.437-.16 1.122-.437 2.322.08 3.366.118.271.555.232.674 0 .477-.928.437-1.973.556-2.979.08-.503.159-1.006.199-1.508.04-.349.198-.774 0-1.084-.12-.193-.358-.309-.556-.232zM23.2 365.937c-.793.774-1.111 2.05-1.27 3.095-.159 1.083-.318 2.437.238 3.404.16.309.596.232.715-.077.318-.929.12-1.935.238-2.902.12-1.083.556-2.05.794-3.133.08-.387-.436-.697-.714-.387z" fill="#fff"/></svg>