<svg width="1920" height="322" fill="none" xmlns="http://www.w3.org/2000/svg"><path opacity=".5" d="M1249.12 303.095c142.84-19.056 250.99 3.759 362.43-12.183 204.47-29.248 221.47 23.479 308.45.001V116.938c-65.98-82.97-330.07-53.873-419.89-77.917-123.11-32.956-698.701 52.23-892.268 0C404.499-15.846 228.273-4.572-2 22.488v239.176c92.476 91.326 522.865 41.186 609.842 29.248 86.978-11.938 128.872-17.065 240.343 12.183 111.471 29.248 244.895 20.816 400.935 0z" fill="#BEDCE3"/><path d="M373.296 285.793c-.291-1.525-.872-3.922-2.542-4.503-1.235-.436-2.76-.291-3.995-.145-9.296.581-19.028 3.341-28.107.072-10.749-3.994-16.341-14.743-22.878-23.386-7.771-10.241-16.414-19.9-26.291-28.18-7.191-6.028-15.107-11.112-23.241-15.833-7.699-4.43-15.47-8.57-22.806-13.509-8.497-5.737-16.849-12.274-22.079-21.28-4.648-7.989-5.955-17.213-6.246-26.291-.29-9.442.218-18.811 2.034-28.035 1.089-5.81 2.614-11.548 5.011-16.922 1.235-2.833 2.833-5.81 5.084-8.062.799 5.084 2.833 10.168 7.917 12.129 5.229 1.961 11.257-.436 15.542-3.413 4.794-3.196 9.079-7.99 10.604-13.654 1.598-5.956-1.38-11.403-7.045-13.727-4.213-1.67-9.006-1.889-13.436-1.67-4.576.217-9.224 1.016-13.509 2.614-1.598.58-3.196 1.38-4.576 2.47-1.888 1.452-3.195 3.776-4.648 5.664-12.129 15.833-20.554 44.812-23.459 55.561-5.52 20.481-11.62 66.455-9.006 87.808 1.162 9.732 4.067 19.319 9.079 27.889 5.302 9.078 13 17.067 21.716 22.805 2.251 1.453 4.575 2.615 7.117 3.632 1.307 2.542 2.615 5.011 3.632 7.625.581 1.453 1.162 2.906 1.597 4.431.364 1.38 1.09 2.687 1.235 4.14.145 1.307-.654 1.38-1.67 1.525-1.308.145-2.615.363-3.922.581-2.324.29-5.447.726-6.973 2.76-.29.363-.435 1.017 0 1.452 3.559 2.905 8.861.944 12.856.218 1.525-.29 3.123-.29 3.776-2.033.872-2.325.436-4.576-.145-6.9-.581-2.615-.944-5.229-1.453-7.844-.217-1.162-.508-2.324-.944-3.413a113.51 113.51 0 0011.766 1.96c7.118.872 14.308 1.235 21.425 1.38-1.67 3.196-2.759 6.755-3.704 10.241-.581 1.961-2.033 4.793-.435 6.682 1.307 1.525 3.994.726 5.882 1.017 2.252.29 3.922.798 6.319 1.307 1.307.29 2.978 0 4.213-.581.798-.436 1.452-1.453 1.307-2.324-.145-.944-1.017-1.525-1.816-1.889-2.106-1.089-4.939-1.597-7.335-1.525-1.235 0-3.85.654-3.414-1.38.291-1.452 1.162-2.832 1.743-4.212 1.017-2.397 2.179-4.866 3.559-7.118 1.671 0 3.341 0 4.939.073 9.224.073 18.52.073 27.744.944 10.313 1.017 20.481 3.268 30.794 4.285 10.023.944 21.208 1.307 30.504-3.268 2.179-1.09 4.14-2.469 5.956-4.067 1.67-1.816 2.759-3.777 2.324-6.101z" fill="#FFCE33"/><path d="M240.894 90.277c-.145-.58-.581-.871-1.089-.944-.291-.145-.654-.073-1.017.073h-.073c-.726.218-1.38.653-1.816 1.234-.145.146-.29.29-.363.436-.653.872-.726 2.47.436 2.905.944.363 2.034-.363 2.76-.944.871-.654 1.38-1.67 1.162-2.76zm-13.654-8.279c.654-3.704 1.889-9.587 6.029-10.894 0 2.978.145 6.028.581 9.006 1.525-.29 1.597.218 1.452-1.67-.072-1.89-.072-3.777-.072-5.666 0-3.195-.436-4.866-3.85-2.978-4.43 2.47-5.955 8.716-6.536 13.291a17.533 17.533 0 012.396-1.089c.146-1.017-.798.29 0 0zm118.821 208.298c-1.598 0-3.269-.218-4.649-1.017-1.888-1.089-.944-3.413-2.324-4.357-1.598-1.09-5.084.435-6.972.145-2.179-.363-4.648-1.162-5.956-2.833-1.234-1.525-.508-3.994-2.178-5.301-1.961-1.526-5.375.653-7.191 1.525-.435-1.525-.944-6.9-2.905-6.9-1.234 0-2.542.726-3.922.799-1.961 0-1.38-2.687-1.452-4.358-.073-1.452.145-3.922-.727-5.156-.871-1.235-2.977-.218-4.067.072-3.413.944-6.682 2.324-9.95 3.777-.29-2.106-1.525-17.358-4.14-16.414-2.687.944-11.62 5.52-13.508 1.453-.799-1.816 1.016-9.152-1.235-9.587-2.106-.364-5.665 2.614-7.263 3.776-2.251 1.743-4.358 3.704-6.101 5.956-.363-2.615-1.017-5.157-1.67-7.699-.363-1.38-.726-2.76-1.017-4.14-.291-1.307-.073-4.067-.944-5.084-1.961-2.251-14.017 7.118-16.051 8.425-.436-2.542-1.598-19.101-3.995-19.537-4.285-.726-14.162 3.196-20.844 5.157 2.252-4.358 4.939-8.498 7.19-12.855 1.162-2.324 4.14-7.118.944-9.079-4.502-2.832-11.402-.363-16.341-.508.726-6.101 2.978-11.911 6.028-17.141 2.324-4.067-13.727-3.195-15.252-3.05 2.542-2.832 5.52-5.81 4.358-10.023-1.235-4.503-6.319-6.028-10.458-5.955 3.268-3.922 13.218-6.174 12.709-12.492-.508-6.319-8.279-11.766-13.436-14.163 2.034-2.251 5.302-3.123 8.207-3.849 1.525-.363 3.051-.726 4.648-1.017 1.671-.29 4.939-.072 6.319-1.017 1.888-1.307-3.05-8.352-3.994-9.732-1.961-2.978-4.358-5.81-7.554-7.408 2.034-3.777 5.375-7.118 9.224-9.006 1.67-.799 3.559-1.38 5.447-1.452 2.324-.073.436-3.995.073-4.939-1.453-4.213-3.559-8.352-3.777-12.855-.073-1.743 1.38-2.542 2.905-2.688 1.017-.145 2.034-.072 2.978 0 1.598.146 1.598-.653 2.542-1.888-3.268-.581-9.732-1.307-10.749 3.196-1.235 5.447 3.05 11.983 4.503 16.995-3.631.508-6.9 2.469-9.587 4.793-1.961 1.671-6.537 5.665-6.319 8.57.073 1.162 1.961 1.453 2.76 1.961 1.598.944 2.905 2.324 3.995 3.777a45.904 45.904 0 015.156 8.715c-4.793.509-9.95 1.38-14.38 3.341-1.816.799-3.559 1.889-4.721 3.486-1.961 2.688 2.833 3.632 4.576 4.794 3.123 2.033 9.224 6.536 8.715 10.967-.436 3.994-7.844 6.609-10.676 8.86-1.162.945-3.196 2.906-2.615 4.649.436 1.38 3.922.581 5.157.726 3.776.436 7.698 3.341 5.665 7.626-.727 1.525-7.554 7.481-3.269 8.207 4.794.799 9.37-1.453 14.163.726-2.469 4.503-4.358 9.442-5.375 14.526-.435 2.397-1.452 4.866 1.671 5.156 2.76.291 5.52-.145 8.28-.435 2.033-.218 4.72-.654 6.681.29 1.816.799-.29 3.995-.871 5.229-2.324 4.939-5.738 9.297-7.917 14.236-1.089 2.469-1.089 4.212 2.034 3.34 2.76-.726 5.447-1.67 8.134-2.542 2.542-.798 5.157-1.597 7.772-2.106 1.307-.218 3.631-.726 3.921-.363.364.363.509 2.978.799 4.43.364 2.252 1.38 15.398 3.632 15.616 1.67.145 5.084-3.124 6.536-4.068 2.76-1.743 5.52-3.486 8.425-4.938.436 3.704 1.525 7.335 2.324 10.966.363 1.598.291 8.135 2.397 8.207 1.525.073 4.213-4.938 5.375-6.028a29.33 29.33 0 017.335-5.374c-.073 2.978-1.017 7.481 1.888 9.442 3.85 2.614 9.95-.291 13.727-1.671.581 2.833 1.017 5.738 1.38 8.57.218 1.743 0 6.464 1.235 7.771 1.234 1.308 4.43-.944 5.665-1.452 2.614-1.09 5.302-2.034 8.134-2.687.145 1.67-.436 10.967 2.615 10.095 1.525-.436 4.357-.944 4.793.581.436 1.525.726 4.14 1.598 5.52 1.743 2.832 7.335-3.777 8.207-1.162.581 1.67 1.017 4.575 2.687 5.665 1.598 1.089 2.833 1.307 4.721 1.598 1.888.29 3.632.435 5.447.363 2.179-.146 1.671 1.597 3.269 2.977 2.469 2.179 6.1 2.542 9.223 2.47 3.486-.145 6.973-.944 10.096-2.542 1.162-.581 3.558-1.961 4.285-3.196.726-1.38 0-1.307-1.017-.508-3.704 2.905-10.822 3.195-15.179 3.05zM198.262 186.365c-.073 0-.073-.073 0 0zm25.783 22.951c-.073-.073.073.072 0 0z" fill="#122528"/><path d="M196.01 201.616c-.217 1.525 2.107 1.961 2.76.726 1.308-2.469 1.743-5.229 3.269-7.553.581-.871-.654-1.67-1.38-1.017-2.324 1.889-4.213 4.866-4.649 7.844zm8.135 4.576c-.145-.872-1.307-.799-1.671-.218-1.525 2.397-4.357 5.011-3.486 8.134.436 1.526 2.615 1.816 3.341.436.727-1.307 1.017-2.832 1.525-4.285.364-1.38.509-2.615.291-4.067zm-14.816-7.772c.29.073.508.073.726 0 .436-.145.872-.508 1.017-1.016.654-2.615 1.38-4.867 3.123-6.973.581-.726-.218-2.106-1.09-1.452-2.469 1.888-5.011 4.648-4.866 7.989.073.726.436 1.234 1.09 1.452zm2.615 9.878c-1.671 1.888-3.123 4.357-3.196 6.972 0 1.38 1.743 1.38 2.179.29.871-2.033 1.089-4.285 2.179-6.318.436-.799-.581-1.671-1.162-.944zm14.889 13.436c.363-.944.871-1.888 1.307-2.833.145-.29-.291-.581-.509-.435-.726.435-1.307 1.234-1.743 1.961-.435.653-1.089 1.743-.508 2.396.581.872 1.235-.653 1.453-1.089zm-6.392-1.452c-2.033 2.324-3.922 5.011-4.14 8.207-.072.508.291 1.089.727 1.307.217.145.435.218.726.218.726-.073 1.235-.436 1.452-1.089.872-2.615 1.526-5.23 2.542-7.844.291-.727-.798-1.38-1.307-.799zm-1.235 23.168a63.626 63.626 0 00-1.525 5.302c-.363 1.525-.871 3.123.218 4.43.363.436 1.09.363 1.453 0 1.089-1.017.871-2.687 1.017-4.067.217-1.743.581-3.414.944-5.157.145-1.234-1.671-1.815-2.107-.508zm17.067-29.414a44.642 44.642 0 00-3.704 3.704c-.944 1.089-2.614 2.759-2.033 4.285.145.435.581.726 1.089.581 1.308-.363 1.889-1.961 2.542-3.051 1.017-1.525 2.179-2.832 3.414-4.212.799-.872-.436-2.106-1.308-1.307zm-6.826 14.525c-1.162 1.888-2.251 3.922-2.978 6.028-.435 1.308-1.815 4.213-.145 5.23 1.743 1.016 2.469-2.47 2.687-3.414.581-2.397 1.162-4.866 2.034-7.19.29-.944-1.09-1.453-1.598-.654zm5.664 25.565c-.871 1.961-2.469 4.794-1.38 6.973.436.799 1.671.436 1.671-.436 0-1.017-.073-2.034.073-3.05.145-1.09.29-2.107.508-3.123.073-.509-.654-.872-.872-.364zm12.929-21.134a14.248 14.248 0 00-3.486 3.994c-.727 1.307-2.179 3.632-1.235 5.084.29.436.799.508 1.235.291 1.234-.581 1.525-2.542 2.033-3.704.654-1.526 1.38-3.051 2.47-4.286.798-.653-.146-2.033-1.017-1.379zm-22.225 21.425c-.944 1.307-1.307 3.05-1.525 4.648-.218 1.38-.799 3.559.363 4.648a.922.922 0 001.308 0c1.016-.944.726-2.978.799-4.285.072-1.525.363-3.123.217-4.648 0-.726-.726-.872-1.162-.363zm27.164-5.375c.363-1.961.653-3.922.798-5.883.146-1.089-1.525-1.234-1.815-.218-.581 1.961-1.38 3.922-1.816 5.956-.363 1.452-1.089 3.777.291 4.866.435.363.871.363 1.307 0 1.235-1.017.944-3.341 1.235-4.721zm-14.163 16.559c-1.816 1.308-2.397 3.487-2.687 5.52-.291 2.106-.654 5.593 1.307 6.973.508.363 1.38.072 1.67-.436.727-1.525.073-3.777-.072-5.375-.146-1.815-.291-4.14.653-5.737.436-.581-.29-1.38-.871-.945zm31.52-18.956a51.088 51.088 0 00-2.905 5.593c-.653 1.452-1.743 3.631-.871 5.156.218.436.726.509 1.162.291 1.452-.727 1.888-2.978 2.324-4.358a51.849 51.849 0 012.106-5.592c.581-1.235-1.089-2.252-1.816-1.09zm-11.983 10.169c-.944.798-1.307 2.178-1.67 3.34-.436 1.38-.872 3.123-.509 4.576.218.872 1.38.726 1.671 0 .436-1.235.436-2.76.581-4.067.145-1.235.508-2.397.726-3.559 0-.436-.581-.508-.799-.29zm10.167 4.43c-.871 2.324-1.743 4.648-2.106 7.045-.291 1.888-.799 4.648.654 6.173.435.436 1.162.363 1.452-.218.872-1.598.363-3.849.581-5.592.218-2.324.654-4.648 1.235-6.973.29-1.162-1.38-1.597-1.816-.435zm19.102-3.632c-.944 1.38-1.67 2.76-2.324 4.285-.508 1.235-1.089 3.414.218 4.358.218.145.581.072.799-.145.872-.799.654-2.615.872-3.704.363-1.38 1.016-2.76 1.743-3.995.508-.872-.799-1.598-1.308-.799zm-4.865 17.722c-.073-1.525 0-3.123.072-4.648 0-1.162-1.67-1.09-1.743 0-.145 1.816-.363 3.631-.29 5.447.072 1.38.29 3.341 1.67 3.922.291.145.726-.145.799-.436.218-.654-.073-1.162-.218-1.816-.072-.871-.218-1.67-.29-2.469zm17.72-18.012c-2.905 1.889-5.302 5.302-5.374 8.861 0 .436.217.871.653 1.089 1.816 1.017 2.106-1.815 2.47-2.905.653-2.033 1.743-4.212 3.268-5.81.581-.581-.218-1.743-1.017-1.235zm-8.207 13.364c-.072-.799-1.089-.945-1.38-.218-1.089 2.687-2.542 8.642.291 10.749.363.29.944 0 1.089-.436.436-1.38-.072-3.123-.145-4.576 0-1.888.29-3.704.145-5.519zm15.18-.436c-1.235 1.743-1.888 3.777-2.106 5.883-.146 1.598-.654 5.084 1.162 5.955.363.146.799.146 1.017-.145 1.016-1.234.363-3.413.363-4.866 0-2.033.218-4.285 1.016-6.173.364-.944-1.016-1.308-1.452-.654zm10.894 8.497c-.944 1.525-1.38 3.268-1.525 5.012-.145 1.525 0 4.139 1.452 5.011.436.218.945.073 1.162-.363.654-1.162 0-2.615-.145-3.777-.218-1.743-.218-3.486.436-5.084.363-1.017-.872-1.743-1.38-.799zm8.353-.072c-.799 2.179-2.47 6.682-.218 8.425.436.29 1.017.073 1.307-.363.654-.944.363-2.324.291-3.486-.073-1.38.145-2.76.363-4.14.145-1.09-1.38-1.525-1.743-.436zm19.319 13.509c-.436-.799-1.017-1.38-1.38-2.252-.363-.871-.654-1.815-1.162-2.614-.291-.509-1.162-.436-1.308.145-.363 2.106.363 5.084 2.324 6.246 1.017.581 2.179-.581 1.526-1.525zm-133.71-107.345c.436-.363.436-.872.581-1.38.145-.581.436-1.162.654-1.671.508-1.016 1.38-1.888 2.178-2.76.364-.363-.072-1.089-.581-.871-1.234.508-2.178 1.453-2.905 2.615-.581.944-1.525 2.905-.799 3.994.218.363.581.363.872.073zm1.671-21.934c.799-.944 1.017-2.324 1.743-3.341.799-1.089 2.034-1.815 3.269-2.251.944-.291.508-1.743-.436-1.453-1.598.509-2.905 1.308-4.067 2.542-.944 1.017-2.034 2.833-1.525 4.213.145.508.653.653 1.016.29zm36.46 102.115c-.945 1.889-1.453 3.704-1.598 5.81-.145 1.744-.218 4.794 1.234 6.029.364.29 1.09.363 1.308-.146.653-1.452 0-3.195-.145-4.793-.146-2.106.072-4.285.581-6.319.217-.799-.945-1.38-1.38-.581zm9.15 10.023c.073-.871-1.452-1.089-1.525-.217a29.807 29.807 0 00-.218 7.19c.218 1.888.654 4.721 2.397 5.81.508.291 1.017-.073 1.017-.581.218-1.743-.872-3.777-1.235-5.447-.436-2.252-.581-4.503-.436-6.755zm15.107 4.14c-.218-2.179-.072-4.43.291-6.536.072-.436-.363-.727-.726-.436-1.744 1.67-2.107 4.14-2.107 6.536 0 2.034 0 6.029 1.961 7.191.363.218 1.017.145 1.235-.291.363-.871.218-1.67 0-2.542a36.83 36.83 0 01-.654-3.922zm24.984 3.632c-.218-2.179-.29-4.358-.508-6.537a.727.727 0 00-1.453 0c-.218 2.324-.581 4.648-.436 7.045.073 1.743.218 4.939 2.107 5.81.435.218.944.073 1.089-.435.218-.799 0-1.526-.218-2.324-.218-1.235-.436-2.397-.581-3.559zm-67.472-44.158c-1.38.581-1.525 3.34-1.743 4.575-.29 2.106-.799 4.358.146 6.319.217.508 1.016.436 1.234 0 .872-1.743.799-3.704 1.017-5.593.145-.944.291-1.888.363-2.832.073-.654.363-1.453 0-2.034-.218-.363-.653-.581-1.017-.435zm-21.352-13.945c-1.453 1.453-2.034 3.849-2.324 5.81-.291 2.034-.581 4.576.436 6.392.29.581 1.089.435 1.307-.146.581-1.743.218-3.631.436-5.447.217-2.033 1.016-3.849 1.452-5.883.145-.726-.799-1.307-1.307-.726z" fill="#fff"/><path d="M1500.16 273.86c-1.7-.4-2.2 1.3-2.9 2.5-1.9 3.8-4.4 7.4-7.3 10.6 2-6.1 4.6-11.8 7-17.8.7-1.6 3.9-12.3-1.2-10.3-3.1 1.1-4.8 6.2-6 8.9-1.7 4-3.7 7.9-5.4 11.9-.1-3-.1-6 .1-9 .1-1.4-1.6-1.9-2.5-1.1-1.3 1-1.7 4.7-2.1 6.2-1.2 4.9-2.1 9.9-1.8 14.9.2 2.8.4 8.6 4.6 7.8 1.2-.2 2.2-1.4 3.1-2.1 1.7.8 4-.9 5.2-1.8 5.8-4.2 8.9-11.5 10.8-18.1.5-1.2-.5-2.3-1.6-2.6zm95.3-3.4c2-2 8-5.2 8.7-7.9.8-3.6-3-2.9-4.8-2-6.4 3.2-13.6 7.2-17 13.8-5.2 3.3 1.6 7 4.4 8.3 4 1.9 8.2 2.6 12.6 2.4 2-.1 10.6 0 7.5-4.3-1.4-2-9.2-1.4-11.8-2.2 3.5-1.4 7.1-2.6 10.6-3.8 2.5-.9 9.9-2.6 10.6-5.7.8-4.8-18.7.7-20.8 1.4zm-63.4-25.3c.1-.1.1-.1 0 0z" fill="#FFCE33"/><path d="M1547.96 250.76c-1.2.8-1.6 2.9-2.5 4.1-1.1 1.4-2.5 2.7-3.9 3.9 2-5.4 3.8-10.8 6.2-16 1-2.2 5.4-7.7.8-8.7-6.3-1.3-13.2 18.9-15.3 23.2-1.4-3.8-2.1-7.4-1.3-11.4.5-2.9-4.2-4.4-5.2-1.5-1.2 3.7-1.5 7.7-1 11.5s4.1 21.1 10.9 15.7c5.3-1.1 12.6-10 14.3-15.1.7-1.8.8-8.4-3-5.7z" fill="#FFCE33"/><path d="M1532.06 245.16c0 .1-.1.3-.1.7.1-.4.1-.6.1-.7z" fill="#FFCE33"/></svg>