<svg width="1920" height="605" fill="none" xmlns="http://www.w3.org/2000/svg"><path d="M1305 585.99c142.84-29.861 197.11-105.159 308.55-130.139 204.47-45.831 221.47 36.791 308.45.001V183.238c-65.98-130.01-330.07-84.417-419.89-122.093-123.11-51.641-698.7 81.842-892.268 0C406.499-24.831 230.273-7.164 0 35.238v501.796c92.476 143.104 469.523 18.705 556.5-.002 86.977-18.706 207.267-17.688 326.5.002 266 39.464 265.97 81.574 422 48.956z" fill="#DFEEF1"/><path d="M366.296 575.79c-.291-1.525-.872-3.921-2.542-4.502-1.235-.436-2.76-.291-3.995-.146-9.296.581-19.028 3.341-28.107.073-10.749-3.995-16.341-14.744-22.878-23.386-7.771-10.241-16.414-19.901-26.291-28.18-7.191-6.028-15.107-11.112-23.241-15.833-7.699-4.431-15.47-8.57-22.806-13.509-8.497-5.738-16.849-12.274-22.079-21.28-4.648-7.989-5.955-17.213-6.246-26.292-.29-9.441.218-18.81 2.034-28.034 1.089-5.81 2.614-11.548 5.011-16.922 1.235-2.833 2.833-5.811 5.084-8.062.799 5.084 2.833 10.168 7.917 12.129 5.229 1.961 11.257-.436 15.542-3.414 4.794-3.195 9.079-7.989 10.604-13.654 1.598-5.955-1.38-11.403-7.045-13.727-4.213-1.67-9.006-1.888-13.436-1.67-4.576.218-9.224 1.017-13.509 2.614-1.598.581-3.196 1.38-4.576 2.47-1.888 1.452-3.195 3.777-4.648 5.665-12.129 15.833-20.554 44.812-23.459 55.56-5.52 20.482-11.62 66.455-9.006 87.808 1.162 9.732 4.067 19.319 9.079 27.889 5.302 9.079 13 17.068 21.716 22.806 2.251 1.452 4.575 2.614 7.117 3.631 1.307 2.542 2.615 5.011 3.632 7.626.581 1.453 1.162 2.905 1.597 4.43.364 1.38 1.09 2.688 1.235 4.14.145 1.307-.654 1.38-1.67 1.525-1.308.146-2.615.363-3.922.581-2.324.291-5.447.727-6.973 2.76-.29.363-.435 1.017 0 1.453 3.559 2.905 8.861.944 12.856.218 1.525-.291 3.123-.291 3.776-2.034.872-2.324.436-4.575-.145-6.9-.581-2.614-.944-5.229-1.453-7.843-.217-1.162-.508-2.325-.944-3.414 3.922.872 7.917 1.525 11.766 1.961 7.118.872 14.308 1.235 21.425 1.38-1.67 3.196-2.759 6.754-3.704 10.241-.581 1.96-2.033 4.793-.435 6.681 1.307 1.526 3.994.727 5.882 1.017 2.252.291 3.922.799 6.319 1.307 1.307.291 2.978 0 4.213-.581.798-.435 1.452-1.452 1.307-2.324-.145-.944-1.017-1.525-1.816-1.888-2.106-1.089-4.939-1.598-7.335-1.525-1.235 0-3.85.653-3.414-1.38.291-1.453 1.162-2.833 1.743-4.213 1.017-2.396 2.179-4.866 3.559-7.117 1.671 0 3.341 0 4.939.072 9.224.073 18.52.073 27.744.945 10.313 1.016 20.481 3.268 30.794 4.285 10.023.944 21.208 1.307 30.504-3.269 2.179-1.089 4.14-2.469 5.956-4.067 1.67-1.815 2.759-3.776 2.324-6.101z" fill="#FFCE33"/><path d="M233.894 380.275c-.145-.581-.581-.871-1.089-.944-.29-.145-.654-.072-1.017.073h-.072c-.727.218-1.38.653-1.816 1.234-.145.146-.291.291-.363.436-.654.872-.726 2.47.436 2.905.944.363 2.033-.363 2.759-.944.872-.653 1.38-1.67 1.162-2.76zm-13.654-8.279c.654-3.704 1.889-9.587 6.029-10.894 0 2.978.145 6.028.581 9.006 1.525-.291 1.597.218 1.452-1.671-.072-1.888-.072-3.776-.072-5.665 0-3.195-.436-4.866-3.85-2.977-4.43 2.469-5.955 8.715-6.536 13.291a17.574 17.574 0 012.396-1.09c.146-1.017-.798.291 0 0zm118.821 208.298c-1.598 0-3.269-.218-4.649-1.017-1.888-1.09-.944-3.414-2.324-4.358-1.598-1.089-5.084.436-6.972.145-2.179-.363-4.648-1.162-5.956-2.832-1.234-1.525-.508-3.995-2.178-5.302-1.961-1.525-5.375.654-7.191 1.525-.435-1.525-.944-6.899-2.905-6.899-1.234 0-2.542.726-3.922.798-1.961 0-1.38-2.687-1.452-4.357-.073-1.453.145-3.922-.727-5.157-.871-1.234-2.977-.218-4.067.073-3.413.944-6.682 2.324-9.95 3.776-.29-2.106-1.525-17.358-4.14-16.414-2.687.945-11.62 5.52-13.508 1.453-.799-1.816 1.016-9.151-1.235-9.587-2.106-.363-5.665 2.615-7.263 3.777-2.251 1.743-4.358 3.704-6.101 5.955-.363-2.614-1.017-5.156-1.67-7.698-.363-1.38-.726-2.76-1.017-4.14-.291-1.307-.073-4.067-.944-5.084-1.961-2.252-14.017 7.117-16.051 8.425-.436-2.542-1.598-19.101-3.995-19.537-4.285-.726-14.162 3.195-20.844 5.156 2.252-4.357 4.939-8.497 7.19-12.855 1.162-2.324 4.14-7.117.944-9.078-4.502-2.833-11.402-.363-16.341-.509.726-6.101 2.978-11.911 6.028-17.14 2.324-4.067-13.727-3.196-15.252-3.05 2.542-2.833 5.52-5.811 4.358-10.023-1.235-4.503-6.319-6.028-10.458-5.956 3.268-3.922 13.218-6.173 12.709-12.492-.508-6.318-8.279-11.765-13.436-14.162 2.034-2.252 5.302-3.123 8.207-3.85 1.525-.363 3.051-.726 4.648-1.016 1.671-.291 4.939-.073 6.319-1.017 1.888-1.307-3.05-8.352-3.994-9.732-1.961-2.978-4.358-5.811-7.554-7.408 2.034-3.777 5.375-7.118 9.224-9.006 1.67-.799 3.559-1.38 5.447-1.453 2.324-.072.436-3.994.073-4.939-1.453-4.212-3.559-8.352-3.777-12.855-.073-1.743 1.38-2.542 2.905-2.687 1.017-.145 2.034-.073 2.978 0 1.598.145 1.598-.654 2.542-1.888-3.268-.581-9.732-1.308-10.749 3.195-1.235 5.447 3.05 11.984 4.503 16.995-3.631.509-6.9 2.47-9.587 4.794-1.961 1.67-6.537 5.665-6.319 8.57.073 1.162 1.961 1.452 2.76 1.961 1.598.944 2.905 2.324 3.995 3.777a45.904 45.904 0 015.156 8.715c-4.793.508-9.95 1.38-14.38 3.341-1.816.799-3.559 1.888-4.721 3.486-1.961 2.687 2.833 3.631 4.576 4.793 3.123 2.034 9.224 6.537 8.715 10.967-.436 3.995-7.844 6.609-10.676 8.861-1.162.944-3.196 2.905-2.615 4.648.436 1.38 3.922.581 5.157.726 3.776.436 7.698 3.341 5.665 7.626-.727 1.526-7.554 7.481-3.269 8.207 4.794.799 9.37-1.452 14.163.727-2.469 4.503-4.358 9.441-5.375 14.525-.435 2.397-1.452 4.866 1.671 5.157 2.76.29 5.52-.145 8.28-.436 2.033-.218 4.72-.653 6.681.291 1.816.799-.29 3.994-.871 5.229-2.324 4.939-5.738 9.296-7.917 14.235-1.089 2.469-1.089 4.213 2.034 3.341 2.76-.726 5.447-1.67 8.134-2.542 2.542-.799 5.157-1.598 7.772-2.106 1.307-.218 3.631-.726 3.921-.363.364.363.509 2.977.799 4.43.364 2.251 1.38 15.397 3.632 15.615 1.67.145 5.084-3.123 6.536-4.067 2.76-1.743 5.52-3.486 8.425-4.939.436 3.704 1.525 7.336 2.324 10.967.363 1.598.291 8.134 2.397 8.207 1.525.073 4.213-4.939 5.375-6.028a29.334 29.334 0 017.335-5.375c-.073 2.978-1.017 7.481 1.888 9.442 3.85 2.615 9.95-.29 13.727-1.67.581 2.832 1.017 5.737 1.38 8.57.218 1.743 0 6.464 1.235 7.771 1.234 1.307 4.43-.944 5.665-1.453 2.614-1.089 5.302-2.033 8.134-2.687.145 1.671-.436 10.967 2.615 10.096 1.525-.436 4.357-.945 4.793.581.436 1.525.726 4.139 1.598 5.519 1.743 2.833 7.335-3.776 8.207-1.162.581 1.671 1.017 4.576 2.687 5.665 1.598 1.09 2.833 1.308 4.721 1.598 1.888.291 3.632.436 5.447.363 2.179-.145 1.671 1.598 3.269 2.978 2.469 2.179 6.1 2.542 9.223 2.469 3.486-.145 6.973-.944 10.096-2.542 1.162-.581 3.558-1.961 4.285-3.195.726-1.38 0-1.308-1.017-.509-3.704 2.905-10.822 3.196-15.179 3.051zM191.262 476.363c-.073 0-.073-.073 0 0zm25.783 22.95c-.073-.073.073.073 0 0z" fill="#122528"/><path d="M189.01 491.615c-.217 1.525 2.107 1.961 2.76.726 1.308-2.469 1.743-5.229 3.269-7.553.581-.872-.654-1.671-1.38-1.017-2.324 1.888-4.213 4.866-4.649 7.844zm8.135 4.575c-.145-.871-1.307-.799-1.67-.218-1.525 2.397-4.358 5.012-3.486 8.135.436 1.525 2.614 1.815 3.341.435.726-1.307 1.017-2.832 1.525-4.285.363-1.38.508-2.614.29-4.067zm-14.816-7.772c.29.073.508.073.726 0 .436-.145.872-.508 1.017-1.016.654-2.615 1.38-4.867 3.123-6.973.581-.726-.218-2.106-1.09-1.452-2.469 1.888-5.011 4.648-4.866 7.989.073.726.436 1.234 1.09 1.452zm2.614 9.878c-1.67 1.889-3.123 4.358-3.195 6.973 0 1.38 1.743 1.38 2.178.29.872-2.033 1.09-4.285 2.179-6.319.436-.798-.581-1.67-1.162-.944zm14.889 13.437c.363-.944.872-1.889 1.307-2.833.146-.29-.29-.581-.508-.436-.726.436-1.307 1.235-1.743 1.961-.436.654-1.09 1.743-.509 2.397.581.872 1.235-.654 1.453-1.089zm-6.391-1.453c-2.033 2.324-3.922 5.011-4.14 8.207-.072.509.291 1.09.727 1.307.217.146.435.218.726.218.726-.072 1.235-.435 1.452-1.089.872-2.615 1.526-5.229 2.542-7.844.291-.726-.798-1.38-1.307-.799zm-1.235 23.168a63.847 63.847 0 00-1.525 5.302c-.363 1.525-.871 3.123.218 4.431.363.435 1.09.363 1.453 0 1.089-1.017.871-2.688 1.017-4.068.217-1.743.581-3.413.944-5.156.145-1.235-1.671-1.816-2.107-.509zm17.067-29.414a44.796 44.796 0 00-3.704 3.704c-.944 1.09-2.614 2.76-2.033 4.285.145.436.581.726 1.089.581 1.308-.363 1.889-1.961 2.542-3.05 1.017-1.525 2.179-2.833 3.414-4.213.799-.871-.436-2.106-1.308-1.307zm-6.826 14.525c-1.162 1.888-2.251 3.922-2.978 6.028-.435 1.307-1.815 4.213-.145 5.229 1.743 1.017 2.469-2.469 2.687-3.413.581-2.397 1.162-4.866 2.034-7.19.29-.945-1.09-1.453-1.598-.654zm5.665 25.566c-.872 1.961-2.469 4.793-1.38 6.972.436.799 1.67.436 1.67-.436 0-1.017-.072-2.033.073-3.05.145-1.09.291-2.106.508-3.123.073-.509-.653-.872-.871-.363zm12.928-21.135a14.262 14.262 0 00-3.486 3.994c-.727 1.308-2.179 3.632-1.235 5.084.29.436.799.509 1.235.291 1.234-.581 1.525-2.542 2.033-3.704.654-1.525 1.38-3.051 2.47-4.285.798-.654-.146-2.034-1.017-1.38zm-22.225 21.425c-.944 1.308-1.307 3.051-1.525 4.648-.218 1.38-.799 3.559.363 4.649a.922.922 0 001.308 0c1.016-.945.726-2.978.799-4.285.072-1.526.363-3.123.217-4.649 0-.726-.726-.871-1.162-.363zm27.164-5.375c.363-1.961.653-3.921.798-5.882.146-1.09-1.525-1.235-1.815-.218-.581 1.961-1.38 3.922-1.816 5.955-.363 1.453-1.089 3.777.291 4.866.435.363.871.363 1.307 0 1.235-1.017.944-3.341 1.235-4.721zm-14.163 16.56c-1.816 1.307-2.397 3.486-2.687 5.519-.291 2.107-.654 5.593 1.307 6.973.508.363 1.38.072 1.67-.436.727-1.525.073-3.777-.072-5.375-.146-1.815-.291-4.139.653-5.737.436-.581-.29-1.38-.871-.944zm31.52-18.956a50.983 50.983 0 00-2.905 5.592c-.653 1.453-1.743 3.632-.871 5.157.218.436.726.508 1.162.29 1.452-.726 1.888-2.977 2.324-4.357a51.865 51.865 0 012.106-5.593c.581-1.234-1.089-2.251-1.816-1.089zm-11.983 10.167c-.944.799-1.307 2.179-1.67 3.341-.436 1.38-.872 3.123-.509 4.576.218.871 1.38.726 1.671 0 .436-1.235.436-2.76.581-4.067.145-1.235.508-2.397.726-3.559 0-.436-.581-.509-.799-.291zm10.168 4.431c-.872 2.324-1.743 4.648-2.107 7.045-.29 1.888-.798 4.648.654 6.174.436.435 1.162.363 1.453-.218.871-1.598.363-3.85.581-5.593.218-2.324.653-4.648 1.234-6.972.291-1.162-1.38-1.598-1.815-.436zm19.101-3.632c-.944 1.38-1.671 2.76-2.324 4.285-.509 1.235-1.09 3.414.218 4.358.218.145.581.073.799-.145.871-.799.653-2.615.871-3.704.363-1.38 1.017-2.76 1.743-3.995.509-.871-.799-1.598-1.307-.799zm-4.866 17.723c-.072-1.526 0-3.123.073-4.649 0-1.162-1.671-1.089-1.743 0-.146 1.816-.363 3.632-.291 5.447.073 1.38.291 3.341 1.671 3.922.29.146.726-.145.799-.435.217-.654-.073-1.162-.218-1.816-.073-.872-.218-1.67-.291-2.469zm17.722-18.012c-2.906 1.888-5.302 5.302-5.375 8.86 0 .436.218.872.654 1.09 1.815 1.017 2.106-1.816 2.469-2.905.654-2.034 1.743-4.213 3.268-5.811.581-.581-.218-1.743-1.016-1.234zm-8.207 13.363c-.073-.799-1.09-.944-1.38-.218-1.09 2.687-2.542 8.643.29 10.749.363.291.944 0 1.09-.436.435-1.38-.073-3.123-.146-4.575 0-1.888.291-3.704.146-5.52zm15.178-.436c-1.234 1.743-1.888 3.777-2.106 5.883-.145 1.598-.653 5.084 1.162 5.956.363.145.799.145 1.017-.145 1.017-1.235.363-3.414.363-4.867 0-2.033.218-4.285 1.017-6.173.363-.944-1.017-1.307-1.453-.654zm10.895 8.497c-.944 1.525-1.38 3.269-1.525 5.012-.145 1.525 0 4.139 1.452 5.011.436.218.945.073 1.162-.363.654-1.162 0-2.615-.145-3.777-.218-1.743-.218-3.486.436-5.084.363-1.017-.872-1.743-1.38-.799zm8.352-.072c-.799 2.179-2.469 6.682-.218 8.425.436.29 1.017.073 1.308-.363.653-.944.363-2.324.29-3.486-.072-1.38.145-2.76.363-4.14.146-1.09-1.38-1.525-1.743-.436zm19.319 13.51c-.436-.799-1.017-1.38-1.38-2.252-.363-.871-.653-1.816-1.162-2.614-.29-.509-1.162-.436-1.307.145-.363 2.106.363 5.084 2.324 6.246 1.017.581 2.179-.581 1.525-1.525zM185.306 474.837c.436-.363.436-.872.581-1.38.146-.581.436-1.162.654-1.67.508-1.017 1.38-1.889 2.179-2.76.363-.363-.073-1.09-.581-.872-1.235.509-2.179 1.453-2.905 2.615-.581.944-1.525 2.905-.799 3.994.218.364.581.364.871.073zm1.671-21.934c.799-.944 1.017-2.324 1.743-3.34.799-1.09 2.034-1.816 3.269-2.252.944-.29.508-1.743-.436-1.452-1.598.508-2.905 1.307-4.067 2.542-.944 1.016-2.034 2.832-1.525 4.212.145.508.653.654 1.016.29zm36.46 102.116c-.945 1.888-1.453 3.704-1.598 5.81-.145 1.743-.218 4.793 1.234 6.028.364.291 1.09.363 1.308-.145.653-1.453 0-3.196-.145-4.794-.146-2.106.072-4.285.581-6.318.217-.799-.945-1.38-1.38-.581zm9.151 10.022c.072-.871-1.453-1.089-1.525-.218a29.766 29.766 0 00-.218 7.191c.218 1.888.653 4.72 2.396 5.81.509.29 1.017-.073 1.017-.581.218-1.743-.871-3.777-1.234-5.447-.436-2.252-.581-4.503-.436-6.755zm15.106 4.14c-.218-2.179-.073-4.43.29-6.537.073-.435-.363-.726-.726-.435-1.743 1.67-2.106 4.14-2.106 6.536 0 2.034 0 6.028 1.961 7.19.363.218 1.017.146 1.234-.29.364-.872.218-1.67 0-2.542a36.868 36.868 0 01-.653-3.922zm24.985 3.632c-.218-2.179-.291-4.358-.509-6.537a.726.726 0 00-1.452 0c-.218 2.325-.581 4.649-.436 7.045.073 1.744.218 4.939 2.106 5.811.436.218.944.072 1.09-.436.217-.799 0-1.525-.218-2.324-.218-1.235-.436-2.397-.581-3.559zm-67.472-44.158c-1.38.581-1.525 3.341-1.743 4.575-.291 2.107-.799 4.358.145 6.319.218.509 1.017.436 1.235 0 .871-1.743.799-3.704 1.017-5.592.145-.944.29-1.889.363-2.833.072-.653.363-1.452 0-2.033-.218-.364-.654-.581-1.017-.436zm-21.353-13.944c-1.453 1.452-2.034 3.849-2.324 5.81-.291 2.034-.581 4.576.436 6.391.29.581 1.089.436 1.307-.145.581-1.743.218-3.631.436-5.447.217-2.034 1.016-3.849 1.452-5.883.145-.726-.799-1.307-1.307-.726z" fill="#fff"/><path d="M1574.72 429.688c-1.74.108-1.73 1.88-2.05 3.231-.72 4.187-2.08 8.355-3.93 12.256.15-6.418 1-12.626 1.56-19.063.21-1.734.18-12.902-4.12-9.515-2.65 1.948-2.81 7.322-3.18 10.253-.47 4.321-1.26 8.632-1.73 12.953-.96-2.844-1.83-5.716-2.5-8.646-.31-1.369-2.08-1.357-2.71-.331-.96 1.332-.27 4.99-.22 6.542.26 5.038.84 10.084 2.57 14.785 1 2.623 2.87 8.118 6.66 6.14 1.09-.538 1.7-1.976 2.36-2.906 1.86.275 3.57-2.016 4.46-3.224 4.34-5.696 5.2-13.58 5.11-20.448.14-1.293-1.14-2.057-2.28-2.027zm90.26-30.769c1.34-2.492 6.16-7.288 6.05-10.075-.27-3.678-3.71-1.91-5.17-.529-5.2 4.912-10.94 10.82-12.29 18.12-4.03 4.661 3.55 6.24 6.61 6.677 4.37.664 8.6.122 12.75-1.34 1.89-.673 10.15-3.06 5.94-6.282-1.92-1.511-9.21 1.315-11.93 1.3 2.95-2.351 6.05-4.539 9.05-6.698 2.13-1.584 8.73-5.348 8.5-8.518-.62-4.827-17.7 6.069-19.51 7.345zm-68-5.918c.06-.125.06-.125 0 0zm16.84.771c-.92 1.113-.7 3.239-1.21 4.648-.65 1.658-1.62 3.306-2.61 4.86.36-5.748.52-11.438 1.32-17.109.32-2.395 2.94-8.931-1.75-8.561-6.41.575-7.18 21.906-7.95 26.63-2.44-3.234-4.15-6.479-4.54-10.54-.35-2.92-5.29-3-5.41.066-.08 3.888.79 7.805 2.37 11.299 1.57 3.493 10.01 19.017 14.96 11.884 4.76-2.583 9.18-13.212 9.34-18.585.15-1.926-1.66-8.274-4.52-4.592z" fill="#FFCE33"/><path d="M1596.98 393c.03.096-.01.317.1.7-.01-.412-.07-.604-.1-.7z" fill="#FFCE33"/></svg>