<svg preserveAspectRatio="xMidYMid meet" data-bbox="0 0 26 28.641" xmlns="http://www.w3.org/2000/svg" viewBox="0 0 26 28.641" height="29" width="26" data-type="color" role="presentation" aria-hidden="true" aria-labelledby="svgcid-ax0led-ptb6y4"><title id="svgcid-ax0led-ptb6y4"></title>
    <g>
        <path fill="#002360" d="M15.623 0H2.603A2.611 2.611 0 0 0 0 2.604v23.433a2.611 2.611 0 0 0 2.604 2.604h13.018a2.611 2.611 0 0 0 2.604-2.604V2.604A2.611 2.611 0 0 0 15.623 0zm0 24.736H2.603V3.906h13.02v20.83zm8.63-15.284a.91.91 0 0 0-1.353-.079l-.04.04c-.325.325-.338.846-.064 1.21 1.64 2.135 1.627 5.039-.026 7.252a.927.927 0 0 0 .065 1.197l.065.066a.914.914 0 0 0 1.34-.066c2.344-2.773 2.344-6.756.014-9.62zm-4.178 2.746l-.078.079a.902.902 0 0 0-.195.99 2.49 2.49 0 0 1 0 1.978.902.902 0 0 0 .195.99l.104.104a.9.9 0 0 0 1.419-.196c.638-1.159.638-2.525-.013-3.723a.894.894 0 0 0-1.432-.222z" data-color="1"></path>
    </g>
</svg>  