<svg preserveAspectRatio="xMidYMid meet" data-bbox="0 0 34 28.333" xmlns="http://www.w3.org/2000/svg" viewBox="0 0 34 28.333" height="29" width="34" data-type="color" role="presentation" aria-hidden="true" aria-labelledby="svgcid--c6al7t-nexdml"><title id="svgcid--c6al7t-nexdml"></title>
    <g>
        <path fill="#002360" d="M32.583 12.764L25.5 12.75a1.42 1.42 0 0 0-1.417 1.417v12.75a1.42 1.42 0 0 0 1.417 1.416h7.083A1.42 1.42 0 0 0 34 26.917v-12.75c0-.78-.638-1.403-1.417-1.403zm0 12.736H25.5v-9.917h7.083V25.5zM28.333 0h-25.5A2.842 2.842 0 0 0 0 2.833v17a2.842 2.842 0 0 0 2.833 2.834h9.917V25.5h-1.417a1.42 1.42 0 0 0-1.416 1.417 1.42 1.42 0 0 0 1.416 1.416h8.5a1.42 1.42 0 0 0 1.417-1.416 1.42 1.42 0 0 0-1.417-1.417h-1.416v-2.833h1.416a1.42 1.42 0 0 0 1.417-1.417 1.42 1.42 0 0 0-1.417-1.417H4.25a1.42 1.42 0 0 1-1.417-1.416V4.25c0-.78.638-1.417 1.417-1.417h22.667a1.42 1.42 0 0 1 1.416 1.417V8.5c0 .78.638 1.417 1.417 1.417A1.42 1.42 0 0 0 31.167 8.5V2.833A2.842 2.842 0 0 0 28.333 0zM16.958 9.917l-1.375-4.25-1.374 4.25H9.917l3.499 2.493-1.332 4.122 3.5-2.55 3.498 2.55-1.331-4.122 3.499-2.493h-4.293z" data-color="1"></path>
    </g>
</svg>