<svg preserveAspectRatio="xMidYMid meet" data-bbox="-0.002 0.626 33.002 26.434" xmlns="http://www.w3.org/2000/svg" viewBox="-0.002 0.626 33.002 26.434" height="28" width="33" data-type="color" role="presentation" aria-hidden="true" aria-labelledby="svgcid--e4mk03-8fknar"><title id="svgcid--e4mk03-8fknar"></title>
    <g>
        <path fill="#002360" d="M28.811 10.56a1.651 1.651 0 0 0-.115 1.65c.41.956.698 1.96.858 2.987A13.2 13.2 0 0 1 28.415 23a1.65 1.65 0 0 1-1.468.875H6.074a1.65 1.65 0 0 1-1.469-.891A13.2 13.2 0 0 1 18.152 4.059c1.199.14 2.37.452 3.482.924a1.65 1.65 0 0 0 1.65-.116 1.65 1.65 0 0 0-.28-2.904A16.5 16.5 0 0 0 2.228 25.41a3.3 3.3 0 0 0 2.838 1.65H27.92a3.3 3.3 0 0 0 2.871-1.65 16.5 16.5 0 0 0 .908-14.668 1.65 1.65 0 0 0-2.888-.182z" data-color="1"></path>
        <path fill="#002360" d="M14.175 14.833a3.302 3.302 0 0 0 4.67 4.67l9.339-14.009-14.009 9.34z" data-color="1"></path>
    </g>
</svg>