<svg data-bbox="0 0.132 130.874 31.391" xmlns="http://www.w3.org/2000/svg" viewBox="0 0.132 130.874 31.391" height="32" width="131" data-type="color" aria-hidden="true" aria-labelledby="svgcid--eqeingucgyx1"><path d="M79.997 24.797h-7.551l-5.065-4.213h-7.156v4.213H55.02v-8.565h14.45c.883 0 1.61-.132 2.184-.396.73-.343 1.093-.847 1.093-1.514 0-1.303-1.093-1.955-3.275-1.955h-14.45l3.39-4.353h10.572c2.617 0 4.739.497 6.366 1.49 1.827 1.133 2.74 2.748 2.74 4.842 0 1.179-.368 2.247-1.104 3.201-.735.955-1.754 1.687-3.054 2.2l6.064 5.05zM53.759 14.3c0 1.894-.813 3.429-2.44 4.608-1.564 1.117-3.501 1.676-5.809 1.676h-8.758v4.213h-5.18v-8.565h14.451c.712 0 1.313-.178 1.801-.536.489-.357.733-.83.733-1.42 0-.589-.245-1.054-.733-1.397-.488-.341-1.087-.512-1.8-.512H31.57l3.438-4.353h10.525c2.292 0 4.221.559 5.785 1.677 1.627 1.179 2.44 2.714 2.44 4.608zM31.447 7.968l-8.282 8.53 7.91 8.299h-6.61l-5.684-6.069L6.59 31.523H0l14.374-15.025L2.546 4.28H9.25l9.531 9.916 5.94-6.228h6.726zm-7.242 20.137v.645h1.026v2.705h.71V28.75h1.026v-.645h-2.762zm3.692 3.351l.247-.627h1.527l.244.627h.74l-1.36-3.351h-.773l-1.366 3.351h.74zm.936-2.421c.028-.067.053-.135.076-.263.023.13.048.196.072.263l.468 1.2h-1.08l.464-1.2zm3.42 2.421v-1.172h.524l.901 1.172h.827l-.998-1.264c.407-.13.73-.42.73-.996 0-.847-.677-1.091-1.326-1.091h-1.374v3.351h.715zm0-2.719h.692c.3 0 .562.13.562.474 0 .34-.262.474-.562.474h-.693v-.948zm2.933 1.043c0 1.23.9 1.743 1.837 1.743a2.82 2.82 0 001.09-.225v-1.661h-.683v1.195a1.03 1.03 0 01-.367.062c-.491 0-1.145-.224-1.145-1.116 0-.785.587-1.1 1.183-1.1.339 0 .678.09.931.257v-.685a2.553 2.553 0 00-1.025-.217c-.92.005-1.821.533-1.821 1.747zm4.04-1.675v3.351h2.382v-.632h-1.665v-.747h1.494v-.627h-1.494v-.713h1.637v-.632h-2.354zm3.162 0v.645h1.026v2.705h.71V28.75h1.026v-.645h-2.762zm12.261 0v3.351h.715v-1.1h.545c.807 0 1.44-.26 1.44-1.125 0-.867-.635-1.124-1.44-1.124h-1.26v-.002zm1.97 1.126c0 .392-.31.492-.677.492h-.578v-.986h.578c.369 0 .678.096.678.494zm1.717-1.126v3.351h2.382v-.632h-1.665v-.747h1.494v-.627h-1.494v-.713h1.637v-.632h-2.354zm4.175 3.351v-1.172h.524l.903 1.172h.825l-.997-1.264c.405-.13.73-.42.73-.996 0-.847-.677-1.091-1.326-1.091h-1.375v3.351h.716zm0-2.719h.692c.3 0 .563.13.563.474 0 .34-.262.474-.563.474h-.692v-.948zm3.162-.632v3.351h.716v-1.279h1.504v-.645h-1.504v-.78h1.641v-.645h-2.357v-.002zm3.152 1.675c0 .91.593 1.743 1.777 1.743 1.183 0 1.776-.834 1.776-1.743 0-.91-.593-1.743-1.776-1.743-1.184.001-1.777.835-1.777 1.743zm2.817 0c0 .588-.348 1.078-1.04 1.078-.698 0-1.046-.488-1.046-1.078 0-.589.348-1.076 1.046-1.076.69 0 1.04.489 1.04 1.076zm2.489 1.676v-1.172h.524l.902 1.172h.825l-.998-1.264c.405-.13.73-.42.73-.996 0-.847-.677-1.091-1.326-1.091h-1.374v3.351h.717zm0-2.719h.692c.3 0 .563.13.563.474 0 .34-.262.474-.563.474h-.692v-.948zm6.112-.632l-1.14 1.743-1.146-1.743h-.662v3.351h.715v-2.069l.883 1.35h.415l.883-1.345v2.063h.716v-3.352h-.664v.002zm2.284 3.351l.247-.627h1.528l.244.627h.74l-1.361-3.351h-.774l-1.364 3.351h.74zm.935-2.421c.028-.067.053-.135.076-.263.025.13.048.196.071.263l.469 1.2h-1.08l.464-1.2zm3.42 2.421v-1.728a8.4 8.4 0 00-.012-.459l1.555 2.187h.672v-3.351h-.715v1.728c0 .153.005.321.013.459l-1.555-2.187h-.672v3.351h.715zm3.253-1.638c0 1.167.911 1.705 1.804 1.705.354 0 .683-.077.97-.216v-.704c-.201.181-.517.278-.86.278-.583 0-1.184-.326-1.179-1.063 0-.808.591-1.144 1.179-1.144.31 0 .62.096.835.262v-.685a2.155 2.155 0 00-.955-.216c-.891.003-1.79.559-1.794 1.783zm3.818-1.713v3.351h2.38v-.632h-1.665v-.747h1.494v-.627h-1.494v-.713h1.637v-.632h-2.352zm7.467 0l-1.141 1.743-1.145-1.743h-.664v3.351h.715v-2.069l.883 1.35h.415l.883-1.345v2.063h.716v-3.352h-.662v.002zm1.887 0v3.351h2.382v-.632h-1.665v-.747h1.494v-.627h-1.494v-.713h1.637v-.632h-2.354zm3.459 0v3.351h1.25c1.189 0 1.752-.703 1.752-1.675 0-.97-.563-1.674-1.752-1.674h-1.25v-.002zm2.271 1.675c0 .69-.358 1.043-1.021 1.043h-.534v-2.086h.534c.664 0 1.021.354 1.021 1.043zm1.78 1.676h.715v-3.351h-.715v3.351zm2.335 0l.248-.627h1.527l.244.627h.74l-1.361-3.351h-.773l-1.365 3.351h.74zm.937-2.421c.028-.067.053-.135.076-.263.025.13.048.196.071.263l.469 1.2h-1.079l.463-1.2zm-68.009-.93v3.351h2.382v-.632h-1.665v-.747h1.494v-.627h-1.494v-.713h1.637v-.632H46.08zm3.46 0v3.351h1.25c1.188 0 1.75-.703 1.75-1.675 0-.97-.562-1.674-1.75-1.674h-1.25v-.002zm2.27 1.675c0 .69-.358 1.043-1.02 1.043h-.535v-2.086h.535c.664 0 1.02.354 1.02 1.043zM94.32 8.653l.838.572a.834.834 0 01.293.342.607.607 0 01.026.451l-.42 1.19a7.977 7.977 0 011.164 1.45l1.327-.084a.628.628 0 01.437.145.815.815 0 01.259.37l.337.946a.81.81 0 01.033.445.61.61 0 01-.25.381l-1.053.724a7.431 7.431 0 01.091 1.459 6.91 6.91 0 01-.022.373l1.144.75a.62.62 0 01.257.376.815.815 0 01-.023.448l-.317.953a.822.822 0 01-.249.374.645.645 0 01-.433.155l-1.243-.053a7.904 7.904 0 01-1.046 1.531l.476 1.26a.61.61 0 01-.015.453.84.84 0 01-.285.35l-.825.588a.866.866 0 01-.427.158.629.629 0 01-.443-.124l-.976-.757c-.277.138-.561.26-.852.366a7.811 7.811 0 01-.906.27l-.395 1.311a.622.622 0 01-.289.353.856.856 0 01-.442.113l-1.02-.015a.855.855 0 01-.439-.123.621.621 0 01-.279-.363l-.312-1.157a8.153 8.153 0 01-1.817-.507l-1.026.833a.646.646 0 01-.44.135.864.864 0 01-.43-.15l-.837-.572a.828.828 0 01-.294-.345.608.608 0 01-.025-.45l.42-1.19a7.76 7.76 0 01-1.162-1.452l-1.327.084a.632.632 0 01-.437-.145.821.821 0 01-.257-.369l-.339-.946a.812.812 0 01-.033-.446.617.617 0 01.249-.383l1.052-.721a8.411 8.411 0 01-.09-.923 8.18 8.18 0 01.019-.91l-1.142-.749a.624.624 0 01-.26-.376.815.815 0 01.024-.447l.317-.953a.849.849 0 01.25-.376.635.635 0 01.434-.153l1.242.052a7.893 7.893 0 011.045-1.532l-.476-1.262a.61.61 0 01.015-.453.83.83 0 01.287-.347l.825-.59a.865.865 0 01.427-.16.629.629 0 01.443.124l.975.759a8.226 8.226 0 011.758-.635l.395-1.313a.63.63 0 01.288-.354.84.84 0 01.44-.112l1.021.015a.855.855 0 01.438.124.622.622 0 01.28.362l.311 1.158c.31.048.616.114.917.2.31.086.61.187.901.307l1.026-.833a.646.646 0 01.44-.135.883.883 0 01.431.155zm-2.361 5.362A3.9 3.9 0 0089.183 13a3.89 3.89 0 00-2.692 1.21 3.755 3.755 0 00-1.034 2.727 3.765 3.765 0 001.233 2.646 3.9 3.9 0 002.776 1.014 3.896 3.896 0 002.694-1.21 3.75 3.75 0 00-.201-5.372zM104.64 1.644a5.294 5.294 0 011.462.907l.92-.313a.492.492 0 01.357.023.645.645 0 01.264.225l.416.61c.07.102.11.218.115.33a.49.49 0 01-.108.34l-.584.7a5.154 5.154 0 01.4 1.689l.871.43a.48.48 0 01.236.268c.04.102.05.225.028.346l-.136.729a.64.64 0 01-.153.312.48.48 0 01-.317.165l-.904.08a5.248 5.248 0 01-.908 1.475l.312.921a.493.493 0 01-.022.358.65.65 0 01-.224.266l-.609.418a.648.648 0 01-.329.114.486.486 0 01-.34-.108l-.697-.585a5.143 5.143 0 01-1.684.4l-.431.874a.495.495 0 01-.267.238.649.649 0 01-.346.026l-.725-.136a.639.639 0 01-.312-.152.489.489 0 01-.165-.319l-.079-.906a5.24 5.24 0 01-1.473-.91l-.918.313a.496.496 0 01-.358-.022.66.66 0 01-.266-.226l-.416-.609a.667.667 0 01-.115-.33.501.501 0 01.11-.34l.584-.699a5.134 5.134 0 01-.4-1.688l-.87-.43a.48.48 0 01-.237-.27.652.652 0 01-.027-.346l.136-.727a.65.65 0 01.151-.312.502.502 0 01.319-.165l.905-.08a5.171 5.171 0 01.908-1.475l-.314-.921a.494.494 0 01.023-.358.66.66 0 01.226-.266l.608-.418a.675.675 0 01.328-.114.487.487 0 01.34.108l.698.585a5.116 5.116 0 011.698-.4l.36-.834a.483.483 0 01.256-.251.643.643 0 01.345-.045l.729.1a.643.643 0 01.32.136.49.49 0 01.179.31l.13.96zm-.01 3.44c-.36-.5-.91-.867-1.564-.978l-.023-.004a2.434 2.434 0 00-2.797 2.02 2.443 2.443 0 001.992 2.799l.023.003a2.438 2.438 0 002.794-1.997l.003-.022a2.454 2.454 0 00-.428-1.821zm26.244 26.439h-5.117V18.612h-9.846v6.185h-5.141V7.993h5.141v6.32h9.846V4.572h5.117v26.951z" data-color="1" fill="#fff" clip-rule="evenodd" fill-rule="evenodd"/></svg>