<svg data-bbox="0.768 0.451 199.465 47.577" xmlns="http://www.w3.org/2000/svg" viewBox="0.768 0.451 199.465 47.577" height="49" width="201" data-type="color" aria-hidden="true" aria-labelledby="svgcid--rh5na6md8ca"><g clip-rule="evenodd" fill-rule="evenodd"><path fill="#002361" d="M122.691 37.834h-11.509l-7.719-6.385H92.556v6.385h-7.932V24.852h22.024c1.346 0 2.454-.2 3.329-.6 1.111-.52 1.665-1.283 1.665-2.294 0-1.976-1.665-2.964-4.992-2.964H84.627l5.169-6.597h16.111c3.989 0 7.223.754 9.702 2.258 2.786 1.717 4.177 4.165 4.177 7.338 0 1.788-.561 3.406-1.682 4.853-1.121 1.447-2.674 2.556-4.655 3.335l9.242 7.653zm-39.99-15.911c0 2.87-1.24 5.198-3.719 6.985-2.383 1.694-5.335 2.54-8.852 2.54H56.782v6.386h-7.896V24.852h22.026c1.085 0 2-.27 2.745-.812.743-.542 1.115-1.258 1.115-2.152 0-.893-.372-1.599-1.115-2.118-.744-.517-1.657-.776-2.745-.776H48.885l5.24-6.597h16.04c3.494 0 6.434.847 8.817 2.54 2.48 1.788 3.72 4.115 3.72 6.986z" data-color="1"/><path fill="#FF6A00" d="M48.696 12.326L36.074 25.255l12.055 12.578H38.055l-8.663-9.198-18.583 19.392H.768l21.907-22.772L4.649 6.738h10.216l14.527 15.028 9.052-9.44h10.252zM37.658 42.847v.978h1.563v4.099h1.083v-4.099h1.564v-.978h-4.21zm5.627 5.08l.377-.95h2.327l.372.95h1.128l-2.074-5.08h-1.177l-2.082 5.08h1.129zm1.426-3.67c.043-.102.081-.205.117-.399.035.197.073.297.109.398l.713 1.82h-1.645l.706-1.82zm5.212 3.67v-1.778h.8l1.373 1.777h1.26l-1.52-1.915c.62-.197 1.113-.638 1.113-1.51 0-1.283-1.032-1.654-2.021-1.654h-2.095v5.08h1.09zm0-4.122h1.055c.458 0 .858.197.858.718 0 .515-.4.719-.858.719h-1.055v-1.437zm4.47 1.58c0 1.866 1.374 2.642 2.801 2.642.567 0 1.15-.123 1.66-.34v-2.518h-1.04v1.812a1.579 1.579 0 01-.559.093c-.749 0-1.745-.34-1.745-1.691 0-1.19.895-1.669 1.803-1.669.517 0 1.033.139 1.42.391v-1.038a3.91 3.91 0 00-1.564-.328c-1.401.007-2.775.806-2.775 2.647zm6.159-2.538v5.08h3.63v-.959h-2.537v-1.131h2.277v-.95h-2.277v-1.082h2.494v-.958h-3.587zm4.82 0v.978h1.563v4.099h1.083v-4.099h1.563v-.978h-4.21zm18.686 0v5.08h1.09v-1.67h.83c1.23 0 2.196-.392 2.196-1.703 0-1.314-.969-1.704-2.196-1.704h-1.92v-.003zm3.003 1.707c0 .595-.473.746-1.032.746h-.88v-1.495h.88c.562 0 1.032.146 1.032.749zm2.616-1.707v5.08h3.63v-.959H90.77v-1.131h2.277v-.95H90.77v-1.082h2.495v-.958h-3.588zm6.363 5.08v-1.778h.8l1.376 1.777h1.257l-1.52-1.915c.617-.197 1.113-.638 1.113-1.51 0-1.283-1.032-1.654-2.022-1.654H94.95v5.08h1.09zm0-4.122h1.055c.458 0 .858.197.858.718 0 .515-.4.719-.858.719H96.04v-1.437zm4.82-.958v5.08h1.09v-1.939h2.292v-.978h-2.292v-1.182h2.502v-.978h-3.592v-.003zm4.804 2.538c0 1.38.903 2.642 2.707 2.642 1.804 0 2.707-1.263 2.707-2.642 0-1.378-.903-2.641-2.707-2.641-1.804.002-2.707 1.265-2.707 2.642zm4.294 0c0 .893-.532 1.634-1.587 1.634-1.062 0-1.594-.739-1.594-1.633 0-.893.532-1.631 1.594-1.631 1.053 0 1.587.74 1.587 1.63zm3.792 2.541V46.15h.8l1.373 1.777h1.258l-1.521-1.915c.618-.197 1.113-.638 1.113-1.51 0-1.283-1.032-1.654-2.021-1.654h-2.095v5.08h1.093zm0-4.121h1.055c.458 0 .858.197.858.718 0 .515-.4.719-.858.719h-1.055v-1.437zm9.316-.958l-1.739 2.642-1.745-2.642h-1.01v5.08h1.091V44.79l1.346 2.047h.632l1.346-2.04v3.126h1.091v-5.08h-1.012v.003zm3.481 5.08l.377-.95h2.327l.372.95h1.129l-2.075-5.08h-1.179l-2.08 5.08h1.129zm1.424-3.67c.043-.102.081-.205.117-.399.038.197.073.297.108.398l.714 1.82h-1.645l.706-1.82zm5.215 3.67v-2.62a11.8 11.8 0 00-.021-.695l2.371 3.314h1.025v-5.079h-1.091v2.62c0 .231.008.486.02.695l-2.37-3.315h-1.025v5.08h1.091zm4.956-2.483c0 1.769 1.389 2.583 2.75 2.583.539 0 1.04-.116 1.477-.328v-1.066c-.306.275-.786.421-1.31.421-.888 0-1.804-.494-1.796-1.61 0-1.226.9-1.735 1.796-1.735.473 0 .946.146 1.272.398V43.07a3.297 3.297 0 00-1.454-.328c-1.359.005-2.728.847-2.735 2.703zm5.819-2.597v5.08h3.628v-.959h-2.538v-1.131h2.277v-.95h-2.277v-1.082h2.495v-.958h-3.585zm11.38 0l-1.738 2.642-1.746-2.642h-1.012v5.08h1.09V44.79l1.346 2.047h.633l1.346-2.04v3.126h1.09v-5.08h-1.009v.003zm2.876 0v5.08h3.631v-.959h-2.538v-1.131h2.277v-.95h-2.277v-1.082h2.495v-.958h-3.588zm5.273 0v5.08h1.905c1.811 0 2.669-1.067 2.669-2.539 0-1.472-.858-2.538-2.669-2.538h-1.905v-.003zm3.461 2.538c0 1.047-.547 1.581-1.556 1.581h-.815v-3.161h.815c1.012 0 1.556.537 1.556 1.58zm2.712 2.541h1.09v-5.079h-1.09v5.08zm3.56 0l.377-.95h2.327l.372.95h1.129l-2.075-5.079h-1.179l-2.08 5.08h1.129zm1.427-3.67c.043-.1.081-.204.116-.398.038.197.073.297.109.398l.713 1.82h-1.644l.706-1.82zM70.998 42.847v5.08h3.63v-.959h-2.537v-1.131h2.277v-.95h-2.277v-1.082h2.495v-.958h-3.588zm5.273 0v5.08h1.905c1.811 0 2.669-1.067 2.669-2.539 0-1.472-.858-2.538-2.67-2.538h-1.904v-.003zm3.46 2.538c0 1.047-.546 1.581-1.555 1.581h-.815v-3.161h.815c1.012 0 1.556.537 1.556 1.58z" data-color="2"/><path fill="#002361" d="M144.519 13.365l1.278.867c.205.139.359.323.448.52a.916.916 0 01.038.682l-.64 1.803c.339.332.655.68.951 1.046.294.365.569.75.822 1.152l2.024-.126a.962.962 0 01.666.219c.172.134.311.328.394.56l.514 1.434c.083.232.099.469.051.675a.93.93 0 01-.382.578l-1.604 1.096c.027.182.053.37.075.562.031.273.051.555.061.837.01.272.01.545.003.812-.005.191-.018.38-.033.567l1.743 1.137a.94.94 0 01.392.57c.051.206.043.443-.035.678l-.484 1.444a1.242 1.242 0 01-.379.567.987.987 0 01-.66.235l-1.895-.081a12.04 12.04 0 01-1.594 2.321l.726 1.911a.92.92 0 01-.023.686 1.272 1.272 0 01-.435.53l-1.257.892c-.2.14-.431.221-.651.239a.96.96 0 01-.675-.189l-1.488-1.147a12.147 12.147 0 01-2.679.963l-.602 1.989a.948.948 0 01-.44.534 1.316 1.316 0 01-.673.172l-1.556-.023a1.306 1.306 0 01-.668-.187.94.94 0 01-.425-.55l-.476-1.754a12.517 12.517 0 01-2.77-.768l-1.564 1.263a.987.987 0 01-.67.204 1.323 1.323 0 01-.656-.227l-1.275-.867a1.26 1.26 0 01-.448-.522.916.916 0 01-.037-.683l.64-1.802a12.21 12.21 0 01-.949-1.047 11.766 11.766 0 01-.822-1.154l-2.024.126a.967.967 0 01-.666-.22 1.248 1.248 0 01-.392-.559l-.516-1.434a1.226 1.226 0 01-.051-.676.938.938 0 01.38-.58l1.604-1.094a12.456 12.456 0 01-.137-1.399 12.213 12.213 0 01.028-1.378l-1.741-1.135a.948.948 0 01-.394-.57 1.228 1.228 0 01.035-.677l.483-1.445c.079-.232.215-.428.382-.57a.973.973 0 01.661-.232l1.892.079a12.04 12.04 0 011.594-2.322l-.726-1.913a.92.92 0 01.023-.686 1.26 1.26 0 01.437-.527l1.258-.895c.202-.143.433-.224.65-.242a.964.964 0 01.676.19l1.485 1.149c.422-.21.855-.396 1.3-.555.448-.16.908-.297 1.379-.408l.602-1.989a.957.957 0 01.44-.537c.19-.11.425-.174.671-.168l1.556.022c.25.003.483.073.668.187.21.13.364.322.425.55l.475 1.754c.471.073.939.174 1.397.302.473.131.931.285 1.374.466l1.563-1.262a.988.988 0 01.671-.205c.222.018.453.094.657.235zm-3.597 8.127a5.965 5.965 0 00-4.23-1.538 5.942 5.942 0 00-4.104 1.835 5.676 5.676 0 00-1.576 4.131 5.693 5.693 0 001.88 4.011 5.961 5.961 0 004.23 1.538 5.953 5.953 0 004.106-1.835 5.67 5.67 0 001.574-4.132 5.702 5.702 0 00-1.88-4.01zm19.327-18.75c.41.167.799.369 1.171.595a7.72 7.72 0 011.058.78l1.401-.475a.753.753 0 01.544.036.979.979 0 01.403.34l.635.925c.106.154.167.33.174.5a.742.742 0 01-.164.516l-.891 1.061a7.709 7.709 0 01.61 2.559l1.328.653c.167.08.291.226.359.405.061.154.076.34.043.525l-.207 1.104a.97.97 0 01-.233.474.737.737 0 01-.483.25l-1.379.12a7.885 7.885 0 01-1.384 2.236l.476 1.397a.749.749 0 01-.033.542.976.976 0 01-.342.403l-.928.633a.993.993 0 01-.501.173.748.748 0 01-.519-.163l-1.062-.888a7.82 7.82 0 01-2.566.608l-.657 1.323a.756.756 0 01-.408.36.988.988 0 01-.526.041l-1.106-.207a.978.978 0 01-.475-.23.736.736 0 01-.251-.483l-.121-1.374a7.96 7.96 0 01-2.244-1.379l-1.399.474a.762.762 0 01-.547-.032 1.004 1.004 0 01-.405-.343l-.635-.923a1.008 1.008 0 01-.174-.499.755.755 0 01.167-.517l.89-1.059a7.736 7.736 0 01-.609-2.558l-1.326-.653a.728.728 0 01-.362-.408.979.979 0 01-.04-.525l.207-1.101a.981.981 0 01.23-.474.767.767 0 01.486-.25l1.379-.12a7.882 7.882 0 011.384-2.236l-.478-1.397a.744.744 0 01.035-.542.997.997 0 01.344-.403l.926-.633c.159-.106.337-.164.501-.174a.748.748 0 01.519.164l1.062.887a7.961 7.961 0 012.588-.607l.549-1.263a.741.741 0 01.39-.38.987.987 0 01.526-.069l1.111.151a.99.99 0 01.488.207.747.747 0 01.274.469l.197 1.454zm-.015 5.213a3.699 3.699 0 00-2.384-1.482l-.035-.005a3.724 3.724 0 00-2.768.65 3.685 3.685 0 00-1.495 2.41 3.682 3.682 0 00.653 2.758 3.7 3.7 0 002.383 1.485l.035.005a3.723 3.723 0 002.768-.65 3.69 3.69 0 001.49-2.378l.005-.032a3.698 3.698 0 00-.652-2.76z" data-color="1"/><path fill="#FF6A00" d="M200.233 48.028h-7.8V28.459h-15.006v9.375h-7.835v-25.47h7.835v9.58h15.006V7.178h7.8v40.849z" data-color="2"/></g></svg>