<svg id="NewGroup1-18" xmlns="http://www.w3.org/2000/svg" width="50.678" height="50.678" viewBox="0 0 50.678 50.678">
  <g id="Сгруппировать_7" data-name="Сгруппировать 7">
    <path id="Контур_29" data-name="Контур 29" d="M886.708,173.885h-6.038v-9.007H877.7v9.877l-.258.258a19.388,19.388,0,0,0-5.681,13.716v11.98H856.915v-11.98a19.387,19.387,0,0,0-5.681-13.716l-.258-.258v-9.877h-2.97v9.008H841.97V163.393a7.482,7.482,0,0,1,7.522-7.424h7.573a7.425,7.425,0,0,0,14.549,0h7.573a7.482,7.482,0,0,1,7.522,7.424v10.492ZM877.7,200.708h-2.969v-11.98A16.31,16.31,0,0,1,877.7,179.3v21.408Zm-23.755,0h-2.969V179.3a16.309,16.309,0,0,1,2.969,9.427v11.98ZM879.186,153H868.793v1.485a4.454,4.454,0,0,1-8.908,0V153H849.492A10.455,10.455,0,0,0,839,163.393v13.46h9.007v26.824h32.663V176.854h9.007V163.393A10.455,10.455,0,0,0,879.186,153Z" transform="translate(-839 -153)" fill="#30e2d9"/>
    <path id="Контур_30" data-name="Контур 30" d="M901.147,184.486A1.485,1.485,0,1,1,902.632,183a1.486,1.486,0,0,1-1.485,1.485Zm0-5.939A4.454,4.454,0,1,0,905.6,183a4.459,4.459,0,0,0-4.454-4.454Z" transform="translate(-869.87 -166.669)" fill="#30e2d9"/>
  </g>
</svg>
