<svg xmlns="http://www.w3.org/2000/svg" width="50.68" height="50.678" viewBox="0 0 50.68 50.678">
  <g id="NewGroupe8" transform="translate(-365 -276.002)">
    <g id="NewGroup1-15" transform="translate(365 276.002)">
      <g id="Сгруппировать_10" data-name="Сгруппировать 10">
        <path id="Контур_35" data-name="Контур 35" d="M390.1,327.3H387.13v2.97h-2.97v2.97h2.97v2.969H390.1v-2.969h2.97v-2.97H390.1V327.3Z" transform="translate(-375.252 -303.452)" fill="#30e2d9"/>
        <path id="Контур_36" data-name="Контур 36" d="M440.134,333.244a1.485,1.485,0,1,1,1.485-1.485,1.486,1.486,0,0,1-1.485,1.485Zm0-5.939a4.454,4.454,0,1,0,4.454,4.454,4.459,4.459,0,0,0-4.454-4.454Z" transform="translate(-402.817 -303.452)" fill="#30e2d9"/>
        <rect id="Прямоугольник_1" data-name="Прямоугольник 1" transform="translate(10.393 50.678)" fill="#30e2d9"/>
        <path id="Контур_37" data-name="Контур 37" d="M410.28,319.656c-1.394,2.577-3.214,4.055-4.994,4.055-2.745,0-5.427-3.417-6.674-8.5a4.545,4.545,0,0,0-4.408-3.376h-7.729a4.546,4.546,0,0,0-4.408,3.376c-1.247,5.085-3.929,8.5-6.674,8.5-1.779,0-3.6-1.478-4.993-4.055a23.359,23.359,0,0,1-2.43-10.892c0-5.928,2.524-14.847,7.423-14.847h29.893c5.071,0,7.424,9.317,7.424,14.847a23.359,23.359,0,0,1-2.43,10.892Zm-4.994-28.709H393.033A13.533,13.533,0,0,0,391.039,276l-2.218,1.974a10.6,10.6,0,0,1,.772,12.971h-14.2c-5.828,0-10.393,7.826-10.393,17.817a26.35,26.35,0,0,0,2.788,12.3c1.957,3.619,4.658,5.611,7.605,5.611,5.163,0,8.328-5.745,9.558-10.764a1.589,1.589,0,0,1,1.524-1.114H394.2a1.59,1.59,0,0,1,1.524,1.114c1.23,5.017,4.394,10.764,9.558,10.764,2.947,0,5.648-1.993,7.605-5.611a26.348,26.348,0,0,0,2.788-12.3v0c0-9.99-4.565-17.816-10.393-17.816Z" transform="translate(-365 -276.002)" fill="#30e2d9"/>
      </g>
    </g>
  </g>
</svg>
