<svg xmlns="http://www.w3.org/2000/svg" width="50.84" height="50.84" viewBox="0 0 50.84 50.84">
  <g id="NewGroupe1" transform="translate(-207 -153)">
    <g id="NewGroup1-22" transform="translate(207 153)">
      <g id="Сгруппировать_3" data-name="Сгруппировать 3">
        <path id="Контур_11" data-name="Контур 11" d="M211.468,232.074a1.489,1.489,0,1,1-1.489,1.489,1.491,1.491,0,0,1,1.489-1.489Zm41.9,0a1.489,1.489,0,1,1-1.489,1.489,1.491,1.491,0,0,1,1.489-1.489Zm-11.916,2.979a1.489,1.489,0,1,1,1.489-1.489,1.491,1.491,0,0,1-1.489,1.489Zm-18.072-2.979a1.489,1.489,0,1,1-1.489,1.489,1.491,1.491,0,0,1,1.489-1.489Zm-11.916,5.958a4.468,4.468,0,0,0,1.489-8.681v-3.334h8.937v3.334a4.468,4.468,0,1,0,2.979,0v-6.313h-5.958v-2.979h27.009v2.979h-5.958v6.313a4.468,4.468,0,1,0,2.979,0v-3.334h8.937v3.334a4.468,4.468,0,1,0,2.979,0v-6.313H248.9V217.08H215.937v5.958h-5.958v6.313a4.468,4.468,0,0,0,1.489,8.681Z" transform="translate(-207 -187.192)" fill="#30e2d9"/>
        <path id="Контур_12" data-name="Контур 12" d="M245.1,155.979h8.937v7.546a4.468,4.468,0,0,1-2.354,3.938,6.562,6.562,0,0,0-2.114,1.816,6.567,6.567,0,0,0-2.114-1.816,4.467,4.467,0,0,1-2.354-3.938v-7.546Zm-2.979,7.546a7.443,7.443,0,0,0,3.922,6.562,4.222,4.222,0,0,1,2.036,3.745v3.1H245.1v2.979h8.937v-2.979h-2.979v-3.1a4.222,4.222,0,0,1,2.036-3.745,7.443,7.443,0,0,0,3.922-6.562v-4.568H260v-2.979H257.02V153H242.125v2.979h-2.979v2.979h2.979v4.568Z" transform="translate(-224.152 -153)" fill="#30e2d9"/>
      </g>
    </g>
  </g>
</svg>
