<svg xmlns="http://www.w3.org/2000/svg" width="51.285" height="51.285" viewBox="0 0 51.285 51.285">
  <g id="NewGroupe19" transform="translate(-185 -488.715)">
    <g id="NewGroup1-4" transform="translate(-22 -33.285)">
      <g id="Сгруппировать_23" data-name="Сгруппировать 23" transform="translate(207 522)">
        <path id="Контур_75" data-name="Контур 75" d="M210.005,598.2v-9.115H231.14V598.2Zm9.115,6.01h-3.005v3.005h9.015V604.21h-3.005v-3h12.02V586.08H207v15.125h12.12v3Z" transform="translate(-207 -555.93)" fill="#30e2d9"/>
        <path id="Контур_76" data-name="Контур 76" d="M261.312,534.12v-9.115h21.135v9.115Zm9.015,6.01h-3v3.005h9.015V540.13h-3.005v-3h12.12V522H258.307v15.125h12.02v3Z" transform="translate(-234.167 -522)" fill="#30e2d9"/>
        <path id="Контур_77" data-name="Контур 77" d="M214.487,525.267l2.194-2.055,45.079,48.11-2.194,2.055-45.079-48.11Z" transform="translate(-210.965 -522.641)" fill="#30e2d9"/>
      </g>
    </g>
  </g>
</svg>
