<svg id="NewGroup1-11" xmlns="http://www.w3.org/2000/svg" width="51.285" height="51.285" viewBox="0 0 51.285 51.285">
  <g id="Сгруппировать_14" data-name="Сгруппировать 14">
    <path id="Контур_44" data-name="Контур 44" d="M97.28,447.28h-3.1v-7.612a4.508,4.508,0,1,0-9.015,0v7.612h-3v-7.612a7.513,7.513,0,0,0-15.025,0v7.612H64.125v-7.612a4.507,4.507,0,1,0-9.015,0v7.612h-3.1V417.13H97.28v30.15Zm-6.11,0H88.165v-7.612a1.5,1.5,0,1,1,3.005,0v7.612Zm-12.02,0H70.135v-7.612a4.507,4.507,0,1,1,9.015,0v7.612Zm-18.03,0H58.115v-7.612a1.5,1.5,0,1,1,3.005,0v7.612Zm-6.11-45.275h6.11v3H55.01v-3Zm18.13,0h6.01v3H73.14v-3Zm18.03,0h6.11v3H91.17v-3Zm9.115,12.12H91.17v-6.11h9.115V399H88.165v15.125H73.14v-6.11h9.015V399H70.135v15.125H55.01v-6.11h9.115V399H52.005v15.125H49v36.16h51.285v-36.16Z" transform="translate(-49 -399)" fill="#30e2d9"/>
    <path id="Контур_45" data-name="Контур 45" d="M68,449.93H64.991v-1.5a1.5,1.5,0,0,1,3.005,0v1.5Zm3-1.5a4.507,4.507,0,0,0-9.015,0v4.507H71v-4.507Z" transform="translate(-55.876 -422.785)" fill="#30e2d9"/>
    <path id="Контур_46" data-name="Контур 46" d="M99.93,449.93h-3v-1.5a1.5,1.5,0,1,1,3,0v1.5Zm3.005-1.5a4.507,4.507,0,1,0-9.015,0v4.507h9.015v-4.507Z" transform="translate(-72.785 -422.785)" fill="#30e2d9"/>
    <path id="Контур_47" data-name="Контур 47" d="M131.863,449.93h-3.005v-1.5a1.5,1.5,0,0,1,3.005,0v1.5Zm3.005-1.5a4.508,4.508,0,0,0-9.015,0v4.507h9.015v-4.507Z" transform="translate(-89.693 -422.785)" fill="#30e2d9"/>
  </g>
</svg>
