<svg xmlns="http://www.w3.org/2000/svg" width="27.893" height="27.892"><g data-name="Сгруппировать 10" fill="#30e2d9"><path data-name="Контур 35" d="M8.172 13.123H6.538v1.634H4.903v1.634h1.634v1.634h1.634v-1.634h1.634v-1.634H8.171v-1.634z"/><path data-name="Контур 36" d="M20.538 16.397a.817.817 0 11.817-.817.818.818 0 01-.817.817zm0-3.269a2.452 2.452 0 102.452 2.452 2.454 2.454 0 00-2.452-2.452z"/><rect data-name="Прямоугольник 1" transform="translate(5.72 27.892)"/><path data-name="Контур 37" d="M24.921 24.026c-.767 1.418-1.769 2.232-2.748 2.232-1.511 0-2.987-1.881-3.673-4.679a2.5 2.5 0 00-2.426-1.858H11.82a2.5 2.5 0 00-2.426 1.858c-.686 2.8-2.162 4.679-3.673 4.679-.979 0-1.981-.814-2.748-2.232a12.856 12.856 0 01-1.338-5.995c0-3.262 1.389-8.172 4.086-8.172h16.452c2.791 0 4.086 5.128 4.086 8.172a12.857 12.857 0 01-1.338 5.995zm-2.748-15.8h-6.744a7.448 7.448 0 00-1.1-8.225l-1.221 1.087a5.837 5.837 0 01.425 7.139H5.72C2.513 8.227 0 12.534 0 18.033a14.5 14.5 0 001.534 6.772c1.077 1.992 2.564 3.088 4.186 3.088 2.842 0 4.583-3.162 5.261-5.924a.875.875 0 01.839-.613h4.254a.875.875 0 01.839.613c.677 2.761 2.418 5.924 5.26 5.924 1.622 0 3.109-1.1 4.186-3.088a14.5 14.5 0 001.535-6.772c0-5.5-2.513-9.806-5.72-9.806z"/></g></svg>