<svg data-name="Сгруппировать 4" xmlns="http://www.w3.org/2000/svg" width="26.888" height="25.216"><path data-name="Контур 13" d="M2.945 20.489h1.827v1.575h1.44a2.367 2.367 0 01-2.228 1.577H2.945L4 22.064l-1.051-1.576zm3.4-3.152h14.183v3.152H6.347v-3.152zm7.1-4.272l.981 2.7h-1.963l.981-2.7zm8.663 9v-1.576h1.827l-1.051 1.576 1.051 1.576h-.986a2.452 2.452 0 01-2.272-1.576zM9.567 7.018l-.539-1.481 1.481-.539.539 1.481-1.481.539zM7.95 2.575l1.481-.539.539 1.481-1.481.539-.539-1.481zM6.605 8.096l-.54-1.485 1.481-.539.539 1.481-1.481.539zM4.988 3.653l1.481-.539.539 1.481-1.481.539-.539-1.481zM3.643 9.174l-.539-1.481 1.481-.539.539 1.481-1.481.539zM2.565 6.212l-.539-1.481 1.481-.539.539 1.481-1.481.539zm13.822-1.23l1.481.539-.539 1.481-1.481-.539.539-1.481zm1.078-2.962l1.481.539-.539 1.481-1.481-.539.539-1.481zm3.365 4.579l-.539 1.481-1.481-.539.539-1.481 1.481.539zm-.4-3.5l1.481.539-.539 1.481-1.481-.539.539-1.481zm3.365 4.579l-.539 1.481-1.481-.539.539-1.481 1.481.539zm-.4-3.5l1.481.539-.539 1.481-1.481-.539.539-1.481zM7.852 22.067h11.191a4 4 0 003.912 3.152h3.931l-2.1-3.152 2.1-3.152h-4.771v-3.154h-6l-1.82-5 1.025-2.817 8.885 3.234 2.695-7.4L16.534.005l-3.078 8.457L10.384.021.018 3.794l2.695 7.4 8.885-3.234 1.02 2.8-1.82 5H4.784v3.151H0l2.1 3.152L0 25.215h3.983a3.947 3.947 0 003.861-3.152z" fill="#30e2d9"/></svg>