<svg xmlns="http://www.w3.org/2000/svg" width="18.78" height="24.654"><g data-name="Сгруппировать 15"><path data-name="Контур 48" d="M1.445 1.445h15.89v2.937H1.445V1.445zm15.168 9.393l-.627-5.011h1.253l-.626 5.011zM6.501 13.05a.722.722 0 11.722-.722.723.723 0 01-.722.722zm6.5 1.445v1.445h-1.445v-1.445h-1.442v1.445H7.225v-1.57a2.167 2.167 0 10-1.445 0v1.569H2.987L4.251 5.827h10.282l1.264 10.112h-1.349v-1.445zm2.889 8.716h-13v-5.827h13v5.827zM2.166 10.839L1.54 5.828h1.253l-.627 5.011zm15.168 13.817v-7.949L18.779 5.15V0H-.001v5.149l1.445 11.557v7.949z" fill="#30e2d9"/></g></svg>