<svg xmlns="http://www.w3.org/2000/svg" width="24.777" height="24.777"><g data-name="Сгруппировать 21" fill="#30e2d9"><path data-name="Контур 67" d="M23.326 18.921v4.4H17.47v-4.4zm-7.307 4.4H8.76v-7.307h7.259v7.307zm-14.566 0v-4.4h5.855v4.4zm16.018-8.759H7.307v2.9H0v7.307h24.777v-7.307H17.47v-2.9z"/><path data-name="Контур 68" d="M14.566 9.485a2.178 2.178 0 11-2.178-2.178 2.18 2.18 0 012.178 2.178zm-3.178-8.033h2l1.023 2.08-2.023 2.023-2.023-2.023 1.023-2.08zM14.288 0H10.48L8.599 3.824l2.335 2.335a3.63 3.63 0 102.9 0l2.335-2.335L14.292 0z"/><path data-name="Контур 69" d="M3.63 9.712a4.389 4.389 0 001.225 1.225 1.225 1.225 0 11-2.45 0A4.388 4.388 0 003.63 9.712zm-.726 4.854h1.452a2.907 2.907 0 012.9-2.9V10.21a2.907 2.907 0 01-2.9-2.9H2.9a2.907 2.907 0 01-2.9 2.9v1.45a2.907 2.907 0 012.9 2.9z"/><path data-name="Контур 70" d="M21.142 12.17a4.438 4.438 0 00-.573-.689 4.488 4.488 0 00-.674-.545 4.5 4.5 0 00.674-.545 4.445 4.445 0 00.573-.689 4.393 4.393 0 001.231 1.234 4.393 4.393 0 00-1.231 1.234zm.732-4.863h-1.452a2.931 2.931 0 01-2.952 2.9v1.453a2.931 2.931 0 012.952 2.9h1.452a2.907 2.907 0 012.9-2.9v-1.45a2.907 2.907 0 01-2.9-2.9z"/></g></svg>