<svg xmlns="http://www.w3.org/2000/svg" width="25.024" height="26.684"><defs><clipPath id="a"><path data-name="Прямоугольник 2" fill="#30e2d9" d="M0 0h25.024v26.684H0z"/></clipPath></defs><g data-name="Сгруппировать 20"><g data-name="Сгруппировать 19"><g data-name="Сгруппировать 18" clip-path="url(#a)"><path data-name="Контур 60" d="M23.46 17.551v5.65l-3.128-1.043v-3.565l3.128-1.043zm-4.692 7.569h-17.2v-9.436h17.2v9.436zm1.564-11H0v12.564h20.332v-2.877l4.692 1.564v-9.99l-4.692 1.564V14.12z" fill="#30e2d9"/></g></g><path data-name="Контур 61" d="M14.076 17.248h3.128v1.564h-3.128v-1.564z" fill="#30e2d9"/><path data-name="Контур 62" d="M5.328 1.135L4.253 0a8.611 8.611 0 00.041 12.534l1.068-1.142a7.046 7.046 0 01-.034-10.256z" fill="#30e2d9"/><path data-name="Контур 63" d="M18.764 6.257A8.525 8.525 0 0016.093.01l-1.078 1.133a7.047 7.047 0 01-.016 10.216l1.075 1.136a8.525 8.525 0 002.69-6.239z" fill="#30e2d9"/><path data-name="Контур 64" d="M6.296 2.377a5.48 5.48 0 000 7.741l1.106-1.106a3.914 3.914 0 010-5.529L6.296 2.377z" fill="#30e2d9"/><path data-name="Контур 65" d="M14.037 10.118a5.48 5.48 0 000-7.741l-1.106 1.106a3.914 3.914 0 010 5.529l1.106 1.106z" fill="#30e2d9"/><path data-name="Контур 66" d="M10.166 7.03a.782.782 0 11.782-.782.783.783 0 01-.782.782zm0-3.128a2.346 2.346 0 102.346 2.346 2.349 2.349 0 00-2.346-2.346z" fill="#30e2d9"/></g></svg>