<svg xmlns="http://www.w3.org/2000/svg" width="28.061" height="29"><g data-name="Сгруппировать 6" fill="#30e2d9"><path data-name="Контур 23" d="M6.109 15.966l-.938-.493-.938.493.179-1.045-.759-.74 1.049-.153.469-.951.469.951 1.049.153-.759.74.179 1.045zm-.938-6.729l-1.6 3.238-3.573.519 2.586 2.52-.61 3.558 3.2-1.68 3.2 1.68-.618-3.554 2.586-2.52-3.573-.519-1.6-3.238z"/><path data-name="Контур 24" d="M2.567 22.6v-.449h5.1v.449a2.965 2.965 0 11-5.1 0zm6.8 0v-2.148h-8.5V22.6a6.92 6.92 0 003.869 6.209l.38.19.38-.19A6.92 6.92 0 009.365 22.6z"/><path data-name="Контур 25" d="M12.765 3.455h8.5v1.7h-8.5v-1.7zm10.2 0h3.4v1.7h-3.4v-1.7zm-11.9 3.4h17v-5.1h-17v5.1z"/><path data-name="Контур 26" d="M12.765 13.654h6.8v1.7h-6.8v-1.7zm8.5 0h5.1v1.7h-5.1v-1.7zm-10.2 3.4h17v-5.1h-17v5.1z"/><path data-name="Контур 27" d="M12.765 23.852h5.1v1.7h-5.1v-1.7zm6.8 0h6.8v1.7h-6.8v-1.7zm-8.5 3.4h17v-5.1h-17v5.1z"/><path data-name="Контур 28" d="M3.193 1.7a1.185 1.185 0 011.138.63l1.572.007v-.008a1.185 1.185 0 011.139-.631 1.135 1.135 0 011.076 1.241c0 1.082-1.328 2.11-2.551 3.142l-.45.381-.316-.269c-1.766-1.5-2.687-2.329-2.687-3.254A1.135 1.135 0 013.193 1.7zM.417 2.941c0 1.754 1.378 2.926 3.285 4.548.9.763.848.728 1.417 1.219.538-.463.542-.478 1.547-1.326C8.154 6.126 9.82 4.841 9.82 2.942A2.831 2.831 0 007.047.002h-.005a3.145 3.145 0 01-3.849 0 2.831 2.831 0 00-2.776 2.94z"/></g></svg>