<svg xmlns="http://www.w3.org/2000/svg" width="27.895" height="24.516"><g data-name="Сгруппировать 9" fill="#30e2d9"><path data-name="Контур 32" d="M26.26 14.71v8.172H13.447l1.229-3.687 1.088-1.346 2.79.75.149-2.886 2.621-1zm-13.527 1.284l-1.865.5-.1-1.928-1.8-.69 1.053-1.619-1.053-1.619 1.8-.69.1-1.928 1.865.5 1.214-1.5 1.214 1.5 1.865-.5.1 1.928 1.8.69-1.053 1.619 1.053 1.619-1.8.69-.1 1.928-1.865-.5-1.214 1.5-1.214-1.5zM6.57 9.806H1.634V1.634h12.813l-1.229 3.687-1.088 1.346-2.79-.75-.149 2.886-2.621 1zm13.255 2.452l1.576-2.422-2.7-1.033-.149-2.886-2.79.75-.9-1.113 1.852-5.555H0V11.44h7.537l.532.817-1.576 2.422 2.7 1.033.149 2.886 2.79-.75.9 1.113-1.851 5.555h16.715V13.075h-7.537l-.532-.817z"/><path data-name="Контур 33" d="M14.764 8.99H13.13v3.273h1.634V8.994z"/><path data-name="Контур 34" d="M14.764 13.075H13.13v1.634h1.634v-1.634z"/></g></svg>