<svg xmlns="http://www.w3.org/2000/svg" width="23.949" height="23.937"><path d="M23.709 5.064a.346.346 0 00-.488-.024l-1.021.926a.1.1 0 01-.148-.007l-.747-.824a.345.345 0 00-.512.464l.609.672-1.03.934a.345.345 0 00-.1.176l-.284 1.2a3.258 3.258 0 01-.986 1.669l-2.025 1.836a.5.5 0 11-.673-.742l.883-.8a.345.345 0 10-.464-.512l-.883.8a1.186 1.186 0 00-.311.452 1.122 1.122 0 00-.477-.106h0a1.119 1.119 0 00-.486.11 1.122 1.122 0 00-.16-.318l.862-.782a.345.345 0 10-.464-.512l-.489.444a1.127 1.127 0 00-.276-.422l-.273-.264.443-.4a.345.345 0 10-.464-.512l-.476.432-.973-.94a1.191 1.191 0 00.469-1.881l1.468-1.331a5.288 5.288 0 012.48-1.26.346.346 0 00.157-.091l1.087-.985 1.846 2.036a.346.346 0 00.512-.464l-1.983-2.187a.1.1 0 01.007-.148L19.36.781a.345.345 0 10-.464-.512l-1.021.926a.794.794 0 00-.258.651l-1.142 1.036a5.979 5.979 0 00-2.71 1.4l-1.5 1.358-1.551-1.5a3.946 3.946 0 00-2.1-1.058l-1.102-.18-1.044-1.009a.794.794 0 00-.237-.659L5.24.277a.347.347 0 00-.48.5l.991.958a.105.105 0 010 .148l-3.846 3.98a.1.1 0 01-.074.032.107.107 0 01-.075-.029l-.99-.958a.347.347 0 00-.48.5l.991.958a.79.79 0 00.553.224h.014a.808.808 0 00.1-.009l1.109 1.07a5.98 5.98 0 001.581 2.612l.721.7a.347.347 0 10.48-.5l-.721-.7a5.287 5.287 0 01-1.422-2.391.345.345 0 00-.093-.156l-1.055-1.02 3.565-3.689 1 .966a.345.345 0 00.183.092l1.213.2a3.258 3.258 0 011.731.873l1.966 1.9a.5.5 0 01-.627.776l-.927-.884a.347.347 0 10-.48.5l3.388 3.261a.431.431 0 01.132.324 1.122 1.122 0 00-.2-.018h0a1.119 1.119 0 00-.436.088 1.125 1.125 0 00-1.121-1.047h0a1.133 1.133 0 00-.277.034l-1.232-1.187a.347.347 0 10-.48.5l1.113 1.075a1.114 1.114 0 00-.2.383 1.122 1.122 0 00-.482-.108h0a1.132 1.132 0 00-.251.028l-.78-.753a.347.347 0 10-.48.5l.65.628a1.117 1.117 0 00-.265.724v.228l-.989-.956a.347.347 0 00-.48.5l1.468 1.418v1.1a.43.43 0 01-.228-.115l-2.12-2.048a.347.347 0 00-.48.5l1.842 1.775a1.193 1.193 0 00-.713 1.087v2.734a3.946 3.946 0 00.693 2.243l.634.926v1.451a.8.8 0 00-.076.066.79.79 0 00-.234.562v.6a.345.345 0 00.345.346h0a.346.346 0 00.345-.345v-.6a.1.1 0 01.031-.074.1.1 0 01.074-.031l5.539.006a.1.1 0 01.1.1v.6a.345.345 0 00.345.346h0a.346.346 0 00.345-.345v-.6a.794.794 0 00-.309-.629v-1.542a5.978 5.978 0 00.783-2.951v-.315a.345.345 0 00-.345-.346h0a.346.346 0 00-.345.345v.315a5.287 5.287 0 01-.735 2.682.345.345 0 00-.048.175v1.467l-5.13-.006V20.64a.346.346 0 00-.06-.2l-.695-1.015a3.258 3.258 0 01-.572-1.852v-2.734a.5.5 0 01.5-.5h0a.5.5 0 01.5.5v1.212a.346.346 0 00.345.346h0a.346.346 0 00.352-.346v-4.694a.434.434 0 01.434-.434h0a.434.434 0 01.434.435v3.5a.345.345 0 00.345.346h0a.345.345 0 00.345-.345v-4.195a.434.434 0 01.434-.434h0a.434.434 0 01.434.435v4.195a.346.346 0 00.345.346h0a.345.345 0 00.345-.345v-3.238a.434.434 0 01.434-.434h0a.435.435 0 01.434.435v3.238a.345.345 0 00.345.346h0a.345.345 0 00.345-.345V12.3a.435.435 0 01.434-.434h0a.434.434 0 01.434.435v3.632a.346.346 0 00.345.346h0a.346.346 0 00.345-.345v-3.123a1.192 1.192 0 00.407.092h.06a1.183 1.183 0 00.8-.309l2.025-1.836a3.946 3.946 0 001.194-2.022l.259-1.092 1.075-.974a.8.8 0 00.1.012h.04a.79.79 0 00.534-.206l1.03-.925a.345.345 0 00.024-.488z" fill="#30e2d9" stroke="#30e2d9" stroke-width=".3" data-name="Сгруппировать 799"/></svg>