<svg xmlns="http://www.w3.org/2000/svg" width="25.933" height="25.933"><g data-name="Сгруппировать 798"><g data-name="Сгруппировать 749"><g data-name="Сгруппировать 748"><path data-name="Контур 938" d="M24.074 5.277a1.709 1.709 0 101.709 1.709 1.711 1.711 0 00-1.709-1.709zm0 2.563a.854.854 0 11.854-.854.855.855 0 01-.854.854z" fill="#30e2d9" stroke="#30e2d9" stroke-width=".3"/></g></g><g data-name="Сгруппировать 751"><g data-name="Сгруппировать 750"><path data-name="Контур 939" d="M1.859 19.375a1.709 1.709 0 101.709 1.709 1.711 1.711 0 00-1.709-1.709zm0 2.563a.854.854 0 11.854-.854.855.855 0 01-.854.854z" fill="#30e2d9" stroke="#30e2d9" stroke-width=".3"/></g></g><g data-name="Сгруппировать 753"><g data-name="Сгруппировать 752"><path data-name="Контур 940" d="M23.245 5.817l-3.686-1.779a.427.427 0 00-.371.769l3.686 1.779a.427.427 0 00.371-.769z" fill="#30e2d9" stroke="#30e2d9" stroke-width=".3"/></g></g><g data-name="Сгруппировать 755"><g data-name="Сгруппировать 754"><path data-name="Контур 941" d="M19.375 22.365a1.709 1.709 0 101.709 1.709 1.711 1.711 0 00-1.709-1.709zm0 2.563a.854.854 0 11.854-.854.855.855 0 01-.854.858z" fill="#30e2d9" stroke="#30e2d9" stroke-width=".3"/></g></g><g data-name="Сгруппировать 757"><g data-name="Сгруппировать 756"><path data-name="Контур 942" d="M18.546 22.905l-3.686-1.779a.427.427 0 10-.371.769l3.686 1.779a.427.427 0 10.371-.769z" fill="#30e2d9" stroke="#30e2d9" stroke-width=".3"/></g></g><g data-name="Сгруппировать 759"><g data-name="Сгруппировать 758"><path data-name="Контур 943" d="M12.967 11.685a1.709 1.709 0 101.709 1.709 1.711 1.711 0 00-1.709-1.709zm0 2.563a.854.854 0 11.854-.854.855.855 0 01-.854.854z" fill="#30e2d9" stroke="#30e2d9" stroke-width=".3"/></g></g><g data-name="Сгруппировать 761"><g data-name="Сгруппировать 760"><path data-name="Контур 944" d="M12.216 12.272l-2.831-2.207a.427.427 0 10-.525.674l2.831 2.207a.427.427 0 10.525-.674z" fill="#30e2d9" stroke="#30e2d9" stroke-width=".3"/></g></g><g data-name="Сгруппировать 763"><g data-name="Сгруппировать 762"><path data-name="Контур 945" d="M20.656 11.258a4.7 4.7 0 104.7 4.7 4.7 4.7 0 00-4.7-4.7zm0 8.544a3.845 3.845 0 113.845-3.845 3.849 3.849 0 01-3.845 3.845z" fill="#30e2d9" stroke="#30e2d9" stroke-width=".3"/></g></g><g data-name="Сгруппировать 765"><g data-name="Сгруппировать 764"><path data-name="Контур 946" d="M20.656 12.966a1.709 1.709 0 101.709 1.709 1.711 1.711 0 00-1.709-1.709zm0 2.563a.854.854 0 11.854-.854.855.855 0 01-.854.854z" fill="#30e2d9" stroke="#30e2d9" stroke-width=".3"/></g></g><g data-name="Сгруппировать 767"><g data-name="Сгруппировать 766"><path data-name="Контур 947" d="M21.893 17.239h-2.479a1.308 1.308 0 00-1.324 1.288v1.126a.427.427 0 00.213.37 4.675 4.675 0 004.7 0 .427.427 0 00.213-.37v-1.126a1.308 1.308 0 00-1.323-1.288zm.469 2.16a3.874 3.874 0 01-3.418 0v-.871a.453.453 0 01.469-.434h2.48a.453.453 0 01.47.434v.871z" fill="#30e2d9" stroke="#30e2d9" stroke-width=".3"/></g></g><g data-name="Сгруппировать 769"><g data-name="Сгруппировать 768"><path data-name="Контур 948" d="M10.403 16.384a4.7 4.7 0 104.7 4.7 4.7 4.7 0 00-4.7-4.7zm0 8.544a3.845 3.845 0 113.845-3.845 3.849 3.849 0 01-3.845 3.845z" fill="#30e2d9" stroke="#30e2d9" stroke-width=".3"/></g></g><g data-name="Сгруппировать 771"><g data-name="Сгруппировать 770"><path data-name="Контур 949" d="M10.403 18.093a1.709 1.709 0 101.709 1.709 1.711 1.711 0 00-1.709-1.709zm0 2.563a.854.854 0 11.854-.854.855.855 0 01-.854.854z" fill="#30e2d9" stroke="#30e2d9" stroke-width=".3"/></g></g><g data-name="Сгруппировать 773"><g data-name="Сгруппировать 772"><path data-name="Контур 950" d="M11.64 22.365H9.161a1.308 1.308 0 00-1.324 1.288v1.126a.428.428 0 00.213.37 4.676 4.676 0 004.7 0 .427.427 0 00.213-.37v-1.126a1.308 1.308 0 00-1.323-1.288zm.469 2.16a3.874 3.874 0 01-3.418 0v-.871a.453.453 0 01.47-.434h2.479a.453.453 0 01.47.434v.871z" fill="#30e2d9" stroke="#30e2d9" stroke-width=".3"/></g></g><g data-name="Сгруппировать 775"><g data-name="Сгруппировать 774"><path data-name="Контур 951" d="M4.85 5.704a4.7 4.7 0 104.7 4.7 4.7 4.7 0 00-4.7-4.7zm0 8.544a3.845 3.845 0 113.845-3.845 3.849 3.849 0 01-3.845 3.845z" fill="#30e2d9" stroke="#30e2d9" stroke-width=".3"/></g></g><g data-name="Сгруппировать 777"><g data-name="Сгруппировать 776"><path data-name="Контур 952" d="M4.85 7.413a1.709 1.709 0 101.709 1.709A1.711 1.711 0 004.85 7.413zm0 2.563a.854.854 0 11.854-.854.855.855 0 01-.854.854z" fill="#30e2d9" stroke="#30e2d9" stroke-width=".3"/></g></g><g data-name="Сгруппировать 779"><g data-name="Сгруппировать 778"><path data-name="Контур 953" d="M6.089 11.685H3.61a1.308 1.308 0 00-1.324 1.288v1.126a.427.427 0 00.213.37 4.675 4.675 0 004.7 0 .427.427 0 00.213-.37v-1.126a1.308 1.308 0 00-1.323-1.288zm.469 2.16a3.874 3.874 0 01-3.418 0v-.871a.453.453 0 01.47-.434h2.479a.453.453 0 01.469.434v.871z" fill="#30e2d9" stroke="#30e2d9" stroke-width=".3"/></g></g><g data-name="Сгруппировать 781"><g data-name="Сгруппировать 780"><path data-name="Контур 954" d="M15.103.15a4.7 4.7 0 104.7 4.7 4.7 4.7 0 00-4.7-4.7zm0 8.544a3.845 3.845 0 113.844-3.844 3.849 3.849 0 01-3.844 3.844z" fill="#30e2d9" stroke="#30e2d9" stroke-width=".3"/></g></g><g data-name="Сгруппировать 783"><g data-name="Сгруппировать 782"><path data-name="Контур 955" d="M15.103 1.859a1.709 1.709 0 101.709 1.709 1.711 1.711 0 00-1.709-1.709zm0 2.563a.854.854 0 11.854-.854.855.855 0 01-.854.858z" fill="#30e2d9" stroke="#30e2d9" stroke-width=".3"/></g></g><g data-name="Сгруппировать 785"><g data-name="Сгруппировать 784"><path data-name="Контур 956" d="M16.342 6.131h-2.479a1.308 1.308 0 00-1.324 1.288v1.126a.428.428 0 00.213.37 4.676 4.676 0 004.7 0 .427.427 0 00.213-.37V7.419a1.308 1.308 0 00-1.323-1.288zm.47 2.16a3.874 3.874 0 01-3.418 0V7.42a.453.453 0 01.47-.434h2.479a.453.453 0 01.469.434v.871z" fill="#30e2d9" stroke="#30e2d9" stroke-width=".3"/></g></g><g data-name="Сгруппировать 787"><g data-name="Сгруппировать 786"><path data-name="Контур 957" d="M11.155 4.571a.428.428 0 00-.6-.047L7.594 7.057a.427.427 0 10.555.649l2.961-2.533a.427.427 0 00.045-.602z" fill="#30e2d9" stroke="#30e2d9" stroke-width=".3"/></g></g><g data-name="Сгруппировать 789"><g data-name="Сгруппировать 788"><path data-name="Контур 958" d="M20.571 11.43l-2.563-3.418a.427.427 0 00-.684.512l2.563 3.418a.427.427 0 00.684-.512z" fill="#30e2d9" stroke="#30e2d9" stroke-width=".3"/></g></g><g data-name="Сгруппировать 791"><g data-name="Сгруппировать 790"><path data-name="Контур 959" d="M17.064 17.37a.427.427 0 00-.6-.085l-2.388 1.789a.427.427 0 00.513.683l2.386-1.79a.427.427 0 00.089-.597z" fill="#30e2d9" stroke="#30e2d9" stroke-width=".3"/></g></g><g data-name="Сгруппировать 793"><g data-name="Сгруппировать 792"><path data-name="Контур 960" d="M6.131 20.656H3.14a.427.427 0 000 .854h2.99a.427.427 0 000-.854z" fill="#30e2d9" stroke="#30e2d9" stroke-width=".3"/></g></g><g data-name="Сгруппировать 795"><g data-name="Сгруппировать 794"><path data-name="Контур 961" d="M4.849.15a1.709 1.709 0 101.709 1.709A1.711 1.711 0 004.849.15zm0 2.563a.854.854 0 11.854-.854.855.855 0 01-.854.854z" fill="#30e2d9" stroke="#30e2d9" stroke-width=".3"/></g></g><g data-name="Сгруппировать 797"><g data-name="Сгруппировать 796"><path data-name="Контур 962" d="M4.849 2.713a.427.427 0 00-.427.427v2.99a.427.427 0 00.854 0V3.14a.427.427 0 00-.427-.427z" fill="#30e2d9" stroke="#30e2d9" stroke-width=".3"/></g></g></g></svg>