<svg data-bbox="0 0 25 33" xmlns="http://www.w3.org/2000/svg" height="33" width="25" data-type="color" aria-hidden="true" aria-labelledby="svgcid-fdskpwc7gi8k"><path fill="#002360" d="M17.188 0H3.124C1.406 0 0 1.485 0 3.3v26.4C0 31.515 1.406 33 3.125 33h18.75C23.594 33 25 31.515 25 29.7V8.25L17.187 0zM3.124 29.7V3.3h12.5v6.6h6.25v19.8H3.125zM18.75 13.2v8.25c0 3.646-2.797 6.6-6.25 6.6s-6.25-2.954-6.25-6.6V10.725c0-2.425 1.969-4.356 4.313-4.108 2.03.214 3.5 2.177 3.5 4.339V21.45h-3.126V10.725c0-.462-.343-.825-.78-.825-.438 0-.782.363-.782.825V21.45c0 1.815 1.406 3.3 3.125 3.3s3.125-1.485 3.125-3.3V13.2h3.125z" data-color="1"/></svg>