<svg xmlns="http://www.w3.org/2000/svg" width="120.858" height="34.366" viewBox="0 0 120.858 34.366">
  <g id="Сгруппировать_18" data-name="Сгруппировать 18" transform="translate(-18.095 -22.496)">
    <path id="Контур_17" data-name="Контур 17" d="M63.021,32.4c0-1.7,1.463-2.718,3.791-2.718,2.558,0,4.159,1.059,4.89,3.223l8.544-.827c-.914-6.406-6.123-9.585-13.753-9.585-7.311,0-12.61,4.01-12.61,10.229,0,12.16,17.225,9.165,17.452,14.234.048,1.752-1.552,2.857-4.111,2.857-2.877,0-4.66-1.292-5.346-3.733l-8.864.783c1.1,6.5,6.58,10,14.255,10,8.131,0,13.434-4.1,13.434-10.318C80.7,34.29,63.021,38.206,63.021,32.4Z" fill="#f2f2f2"/>
    <path id="Контур_18" data-name="Контур 18" d="M105.416,36.4H94.638V30.728h11.6L105.846,23H85.407V56.355h9.231V43.91h10.779Z" fill="#f2f2f2"/>
    <path id="Контур_19" data-name="Контур 19" d="M134.679,44.838h-16.56L125.835,23h-8.766L104.733,56.355h9.732l1.556-4.976h11.648l1.6,4.976h9.684Z" fill="#f2f2f2"/>
    <path id="Контур_20" data-name="Контур 20" d="M129.54,29.866l-3.19,10.121h6.66Z" fill="#30e2d9"/>
    <path id="Контур_21" data-name="Контур 21" d="M34.462,42.451H47.437V35.209H18.095v7.233h6.638l-.261,13.913H47.915l.395-8.708H34.462Z" fill="#30e2d9"/>
    <path id="Контур_22" data-name="Контур 22" d="M24.471,23l.261,7.724H48.31L47.915,23Z" fill="#30e2d9"/>
  </g>
</svg>
