<svg width="16" height="16" viewBox="0 0 16 16" fill="none" xmlns="http://www.w3.org/2000/svg">
    <path d="M6.72094 1.28003C3.54725 1.28003 0.960938 3.86635 0.960938 7.04003C0.960938 10.2137 3.54725 12.8 6.72094 12.8C7.8799 12.8 8.95848 12.4525 9.86344 11.86L13.8822 15.8788L15.2397 14.5213L11.2728 10.5544C12.027 9.58031 12.4809 8.36314 12.4809 7.04003C12.4809 3.86635 9.89462 1.28003 6.72094 1.28003ZM6.72094 2.56003C9.20293 2.56003 11.2009 4.55803 11.2009 7.04003C11.2009 9.52203 9.20293 11.52 6.72094 11.52C4.23894 11.52 2.24094 9.52203 2.24094 7.04003C2.24094 4.55803 4.23894 2.56003 6.72094 2.56003Z" fill="#9DAED0"/>
    </svg>
    