<svg width="24" height="24" viewBox="0 0 24 24" fill="none" xmlns="http://www.w3.org/2000/svg">
    <path d="M11.1404 7.00276C10.121 6.99175 9.2534 7.00276 8.76538 7.24496C8.44003 7.40459 8.1906 7.76789 8.34243 7.7844C8.53221 7.81193 8.96059 7.9055 9.18833 8.21926C9.48115 8.62108 9.4703 9.52933 9.4703 9.52933C9.4703 9.52933 9.63298 12.0284 9.07446 12.3421C8.68946 12.5568 8.16349 12.1219 7.02476 10.1348C6.44456 9.11099 6.00534 7.98256 6.00534 7.98256C6.00534 7.98256 5.924 7.77339 5.77217 7.6633C5.58781 7.52569 5.33295 7.48166 5.33295 7.48166L2.61629 7.49817C2.61629 7.49817 2.2096 7.51468 2.0632 7.69083C1.92763 7.85596 2.05235 8.18073 2.05235 8.18073C2.05235 8.18073 4.17796 13.2283 6.58554 15.7714C8.79249 18.1053 11.2977 17.9512 11.2977 17.9512H12.4364C12.4364 17.9512 12.778 17.9127 12.9515 17.7255C13.1142 17.5494 13.1088 17.2191 13.1088 17.2191C13.1088 17.2191 13.0871 15.6723 13.792 15.4412C14.4915 15.221 15.3808 16.9384 16.3297 17.5989C17.0509 18.0998 17.5986 17.9897 17.5986 17.9897L20.1363 17.9512C20.1363 17.9512 21.4594 17.8686 20.8304 16.8063C20.7816 16.7237 20.4671 16.0246 18.9488 14.5935C17.3546 13.0962 17.5661 13.3384 19.4856 10.7458C20.6515 9.16603 21.1178 8.20274 20.9714 7.7844C20.8304 7.39358 19.9736 7.49817 19.9736 7.49817L17.116 7.51468C17.116 7.51468 16.9045 7.48716 16.7473 7.58074C16.5954 7.67431 16.4978 7.89449 16.4978 7.89449C16.4978 7.89449 16.0423 9.11649 15.4405 10.1568C14.1716 12.3476 13.6565 12.4687 13.4504 12.3311C12.9678 12.0119 13.0871 11.0541 13.0871 10.377C13.0871 8.24678 13.407 7.36606 12.4689 7.13487C12.1599 7.05781 11.9321 7.00827 11.1404 7.00276Z" fill="#9DAED0"/>
    </svg>
    