<svg width="24" height="24" viewBox="0 0 24 24" fill="none" xmlns="http://www.w3.org/2000/svg">
    <path d="M6.58618 3L7.82837 7.07812V9.72656H8.85962V6.9375L10.0784 3H9.02368L8.36743 5.69531H8.32055L7.64087 3H6.58618ZM11.4143 4.64062C10.9954 4.64062 10.6555 4.76367 10.4065 4.99219C10.1575 5.21777 10.0315 5.52246 10.0315 5.90625V8.48438C10.0315 8.90625 10.1633 9.24316 10.4065 9.49219C10.6497 9.74121 10.9631 9.86719 11.3674 9.86719C11.7864 9.86719 12.1116 9.73242 12.3518 9.49219C12.5891 9.24902 12.7034 8.93262 12.7034 8.50781V5.92969C12.7034 5.55176 12.595 5.23242 12.3518 4.99219C12.1086 4.75195 11.7981 4.64062 11.4143 4.64062ZM13.5002 4.75781V8.92969C13.5002 9.22852 13.5559 9.43945 13.6643 9.58594C13.7727 9.73242 13.9426 9.79688 14.1565 9.79688C14.3293 9.79688 14.4905 9.76172 14.6721 9.65625C14.8567 9.55078 15.0413 9.38965 15.2112 9.1875V9.72656H16.1252V4.75781H15.2112V8.53125C15.1262 8.63965 15.0354 8.74219 14.9299 8.8125C14.8274 8.88281 14.7395 8.90625 14.6721 8.90625C14.5872 8.90625 14.5227 8.88867 14.4846 8.83594C14.4436 8.7832 14.4143 8.69238 14.4143 8.57812V4.75781H13.5002ZM11.3674 5.50781C11.4905 5.50781 11.5989 5.53418 11.6721 5.60156C11.7483 5.66895 11.7659 5.75098 11.7659 5.85938V8.57812C11.7659 8.71289 11.7454 8.80957 11.6721 8.88281C11.5959 8.95898 11.4934 9 11.3674 9C11.2473 9 11.1506 8.95605 11.0862 8.88281C11.0188 8.80664 10.9924 8.71289 10.9924 8.57812V5.85938C10.9924 5.75098 11.0159 5.66895 11.0862 5.60156C11.1565 5.53418 11.2532 5.50781 11.3674 5.50781ZM11.2502 10.8984C9.46899 10.8955 7.73169 10.9189 6.02368 10.9922C4.83129 10.9922 3.84399 11.9678 3.84399 13.1484C3.77368 14.083 3.74731 15.0234 3.75024 15.9609C3.74731 16.8955 3.77075 17.8125 3.84399 18.75C3.84399 19.9336 4.82837 20.9062 6.02368 20.9062C7.73169 20.9766 9.46899 21.0029 11.2502 21C13.0344 21.0029 14.7717 20.9766 16.4768 20.9062C17.6721 20.9062 18.6565 19.9336 18.6565 18.75C18.7268 17.8125 18.7532 16.8955 18.7502 15.9609C18.7532 15.0234 18.7297 14.083 18.6565 13.1484C18.6565 11.9678 17.6721 10.9922 16.4768 10.9922C14.7717 10.9219 13.0344 10.8955 11.2502 10.8984ZM4.92212 12.4453H8.06274C8.1184 12.4453 8.15649 12.4834 8.15649 12.5391V13.5C8.15649 13.5557 8.1184 13.5938 8.06274 13.5938H7.1018V19.1719C7.1018 19.2275 7.06372 19.2656 7.00805 19.2656H5.9768C5.92114 19.2656 5.85962 19.2275 5.85962 19.1719V13.5938H4.92212C4.86645 13.5938 4.80493 13.5557 4.80493 13.5V12.5391C4.80493 12.4834 4.86645 12.4453 4.92212 12.4453ZM11.5315 12.4453H12.4456C12.5012 12.4453 12.5627 12.4834 12.5627 12.5391V14.4141C12.6389 14.3438 12.7151 14.2969 12.7971 14.25C12.9524 14.165 13.1077 14.1094 13.2659 14.1094C13.5881 14.1094 13.8196 14.2236 13.9924 14.4609C14.1565 14.6895 14.2502 15.0264 14.2502 15.4453V18.1641C14.2502 18.5361 14.1741 18.8291 14.0159 19.0312C13.8518 19.2422 13.6145 19.3359 13.3127 19.3359C13.1223 19.3359 12.9524 19.2979 12.7971 19.2188C12.7151 19.1748 12.6389 19.1221 12.5627 19.0547V19.1719C12.5627 19.2275 12.5012 19.2656 12.4456 19.2656H11.5315C11.4758 19.2656 11.4377 19.2275 11.4377 19.1719V12.5391C11.4377 12.4834 11.4758 12.4453 11.5315 12.4453ZM16.219 14.0391C16.6643 14.0391 17.0071 14.1914 17.2502 14.4609C17.4905 14.7275 17.6252 15.0967 17.6252 15.5859V16.8516C17.6252 16.9072 17.5637 16.9453 17.5081 16.9453H15.8674V17.7656C15.8674 18.0645 15.9055 18.1787 15.9377 18.2344C15.9641 18.2783 16.0286 18.3516 16.1721 18.3516C16.2864 18.3516 16.3655 18.3135 16.4065 18.2578C16.427 18.2285 16.4768 18.123 16.4768 17.7656V17.4141C16.4768 17.3584 16.5149 17.3203 16.5706 17.3203H17.5081C17.5637 17.3203 17.6018 17.3584 17.6018 17.4141V17.7891C17.6018 18.3164 17.4934 18.7119 17.2502 18.9844C17.0041 19.2598 16.6321 19.4062 16.1487 19.4062C15.7122 19.4062 15.3459 19.2539 15.094 18.9609C14.845 18.6738 14.719 18.2842 14.719 17.7891V15.5859C14.719 15.1348 14.8655 14.7715 15.1409 14.4844C15.4163 14.1973 15.7825 14.0391 16.219 14.0391ZM8.0393 14.1797H8.95337C9.00903 14.1797 9.07055 14.2178 9.07055 14.2734V18.0234C9.07055 18.1465 9.07934 18.1934 9.09399 18.2109C9.09985 18.2197 9.11157 18.2578 9.18774 18.2578C9.21411 18.2578 9.29028 18.2373 9.39868 18.1641C9.48657 18.1055 9.56274 18.0381 9.63305 17.9531V14.2734C9.63305 14.2178 9.67114 14.1797 9.7268 14.1797H10.6409C10.6965 14.1797 10.7346 14.2178 10.7346 14.2734V19.1719H10.7581C10.7581 19.2275 10.6965 19.2656 10.6409 19.2656H9.7268C9.67114 19.2656 9.63305 19.2275 9.63305 19.1719V18.8906C9.51294 19.0078 9.38403 19.1016 9.25805 19.1719C9.05883 19.2861 8.86548 19.3359 8.67212 19.3359C8.42895 19.3359 8.25903 19.251 8.13305 19.0781C8.01294 18.9141 7.94555 18.6855 7.94555 18.375V14.2734C7.94555 14.2178 7.98364 14.1797 8.0393 14.1797ZM12.8909 15.0938C12.8293 15.082 12.7561 15.1025 12.6799 15.1406C12.636 15.1611 12.6067 15.1904 12.5627 15.2344V18.2109C12.6184 18.2666 12.6536 18.3018 12.7034 18.3281C12.759 18.3545 12.8293 18.3516 12.8909 18.3516C13.0081 18.3516 13.0432 18.3193 13.0549 18.3047C13.0842 18.2695 13.1018 18.1875 13.1018 18.0234V15.4922C13.1018 15.3516 13.0813 15.2549 13.0315 15.1875C12.9993 15.1436 12.9524 15.1055 12.8909 15.0938ZM16.1721 15.1172C16.0637 15.1172 15.9817 15.1494 15.9377 15.2109C15.9055 15.2549 15.8674 15.3574 15.8674 15.5859V15.9844H16.4768V15.5859C16.4768 15.3604 16.4182 15.2607 16.3831 15.2109C16.342 15.1523 16.2776 15.1172 16.1721 15.1172Z" fill="white"/>
    </svg>
    