<svg xmlns="http://www.w3.org/2000/svg" width="12.105" height="12.107" viewBox="0 0 12.105 12.107">
    <g id="Сгруппировать_133"  transform="translate(0)">
      <path id="Контур_204"  d="M330.14,27.67a.187.187,0,0,1-.135-.056L318.278,15.888a.192.192,0,0,1,.271-.271l11.726,11.726a.2.2,0,0,1,0,.271A.186.186,0,0,1,330.14,27.67Z" transform="translate(-318.224 -15.563)" fill="#333"/>
      <path id="Контур_205"  d="M318.414,27.67a.187.187,0,0,1-.136-.056.2.2,0,0,1,0-.271L330,15.617a.192.192,0,0,1,.271.271L318.549,27.615A.187.187,0,0,1,318.414,27.67Z" transform="translate(-318.224 -15.563)" fill="#333"/>
    </g>
  </svg>
  